G04 #@! TF.FileFunction,Legend,Bot*
%FSLAX46Y46*%
G04 Gerber Fmt 4.6, Leading zero omitted, Abs format (unit mm)*
G04 Created by KiCad (PCBNEW 4.0.4-stable) date 12/07/16 00:40:48*
%MOMM*%
%LPD*%
G01*
G04 APERTURE LIST*
%ADD10C,0.100000*%
%ADD11C,0.150000*%
%ADD12C,0.127000*%
%ADD13C,0.203200*%
%ADD14C,0.152400*%
%ADD15C,0.125000*%
G04 APERTURE END LIST*
D10*
D11*
X223300760Y-133175000D02*
G75*
G03X223300760Y-133175000I-1000760J0D01*
G01*
X228500140Y-133175000D02*
G75*
G03X228500140Y-133175000I-6200140J0D01*
G01*
D12*
X190988000Y-153379000D02*
X192512000Y-153379000D01*
X192893000Y-153506000D02*
X190607000Y-153506000D01*
X190353000Y-153633000D02*
X193147000Y-153633000D01*
X193401000Y-153760000D02*
X190099000Y-153760000D01*
X189972000Y-153887000D02*
X193528000Y-153887000D01*
X194798000Y-156300000D02*
G75*
G03X194798000Y-156300000I-3048000J0D01*
G01*
X188448000Y-152998000D02*
X195052000Y-152998000D01*
X195052000Y-152998000D02*
X195052000Y-158840000D01*
X195052000Y-158840000D02*
X194290000Y-159602000D01*
X194290000Y-159602000D02*
X189210000Y-159602000D01*
X189210000Y-159602000D02*
X188448000Y-158840000D01*
X188448000Y-158840000D02*
X188448000Y-152998000D01*
X191750000Y-158459000D02*
X191750000Y-157697000D01*
X191369000Y-158078000D02*
X192131000Y-158078000D01*
X179813000Y-144654000D02*
X181337000Y-144654000D01*
X181718000Y-144781000D02*
X179432000Y-144781000D01*
X179178000Y-144908000D02*
X181972000Y-144908000D01*
X182226000Y-145035000D02*
X178924000Y-145035000D01*
X178797000Y-145162000D02*
X182353000Y-145162000D01*
X183623000Y-147575000D02*
G75*
G03X183623000Y-147575000I-3048000J0D01*
G01*
X177273000Y-144273000D02*
X183877000Y-144273000D01*
X183877000Y-144273000D02*
X183877000Y-150115000D01*
X183877000Y-150115000D02*
X183115000Y-150877000D01*
X183115000Y-150877000D02*
X178035000Y-150877000D01*
X178035000Y-150877000D02*
X177273000Y-150115000D01*
X177273000Y-150115000D02*
X177273000Y-144273000D01*
X180575000Y-149734000D02*
X180575000Y-148972000D01*
X180194000Y-149353000D02*
X180956000Y-149353000D01*
D11*
X190250000Y-173050000D02*
X190750000Y-173050000D01*
X190750000Y-174100000D02*
X190250000Y-174100000D01*
X220975000Y-170600000D02*
X220725000Y-170600000D01*
X221475000Y-170600000D02*
X221725000Y-170600000D01*
X221475000Y-170600000D02*
X220975000Y-170250000D01*
X220975000Y-170250000D02*
X220975000Y-170950000D01*
X220975000Y-170950000D02*
X221475000Y-170600000D01*
X221475000Y-170250000D02*
X221475000Y-170950000D01*
X222525000Y-171400000D02*
X220125000Y-171400000D01*
X222525000Y-169800000D02*
X220125000Y-169800000D01*
D13*
X233866000Y-168104000D02*
X231834000Y-168104000D01*
X231834000Y-167596000D02*
X233866000Y-167596000D01*
X233866000Y-168104000D02*
G75*
G02X232850000Y-169120000I-1016000J0D01*
G01*
X232850000Y-169120000D02*
G75*
G02X231834000Y-168104000I0J1016000D01*
G01*
X231834000Y-167596000D02*
G75*
G02X232850000Y-166580000I1016000J0D01*
G01*
X232850000Y-166580000D02*
G75*
G02X233866000Y-167596000I0J-1016000D01*
G01*
X221479000Y-171859000D02*
X221479000Y-173891000D01*
X220971000Y-173891000D02*
X220971000Y-171859000D01*
X221479000Y-171859000D02*
G75*
G02X222495000Y-172875000I0J-1016000D01*
G01*
X222495000Y-172875000D02*
G75*
G02X221479000Y-173891000I-1016000J0D01*
G01*
X220971000Y-173891000D02*
G75*
G02X219955000Y-172875000I0J1016000D01*
G01*
X219955000Y-172875000D02*
G75*
G02X220971000Y-171859000I1016000J0D01*
G01*
D11*
X191000000Y-126300000D02*
X191000000Y-133900000D01*
X179600000Y-133900000D02*
X179600000Y-126300000D01*
X191000000Y-133900000D02*
X179600000Y-133900000D01*
X191000000Y-126300000D02*
X179600000Y-126300000D01*
X233712500Y-155950000D02*
G75*
G03X233712500Y-155950000I-250000J0D01*
G01*
X238287500Y-156550000D02*
X238287500Y-162350000D01*
X236387500Y-155450000D02*
X234037500Y-155450000D01*
X234037500Y-155450000D02*
X234037500Y-156350000D01*
X234037500Y-155950000D02*
X235237500Y-155950000D01*
X235237500Y-155950000D02*
X235237500Y-155950000D01*
X235237500Y-155950000D02*
X234037500Y-155950000D01*
X234037500Y-155950000D02*
X234037500Y-155950000D01*
X234537500Y-155950000D02*
X234537500Y-155950000D01*
X234537500Y-155950000D02*
X234537500Y-155450000D01*
X234537500Y-155450000D02*
X234537500Y-155450000D01*
X234537500Y-155450000D02*
X234537500Y-155950000D01*
X235237500Y-155950000D02*
X235237500Y-155950000D01*
X235237500Y-155950000D02*
X235237500Y-155450000D01*
X235237500Y-155450000D02*
X235237500Y-155450000D01*
X235237500Y-155450000D02*
X235237500Y-155950000D01*
X236387500Y-163450000D02*
X234037500Y-163450000D01*
X234037500Y-163450000D02*
X234037500Y-162550000D01*
X234037500Y-162950000D02*
X235237500Y-162950000D01*
X235237500Y-162950000D02*
X235237500Y-162950000D01*
X235237500Y-162950000D02*
X234037500Y-162950000D01*
X234037500Y-162950000D02*
X234037500Y-162950000D01*
X234537500Y-162950000D02*
X234537500Y-162950000D01*
X234537500Y-162950000D02*
X234537500Y-163450000D01*
X234537500Y-163450000D02*
X234537500Y-163450000D01*
X234537500Y-163450000D02*
X234537500Y-162950000D01*
X235237500Y-162950000D02*
X235237500Y-162950000D01*
X235237500Y-162950000D02*
X235237500Y-163450000D01*
X235237500Y-163450000D02*
X235237500Y-163450000D01*
X235237500Y-163450000D02*
X235237500Y-162950000D01*
X190150000Y-164450000D02*
X189650000Y-164450000D01*
X189650000Y-163400000D02*
X190150000Y-163400000D01*
X222000000Y-166350000D02*
X221500000Y-166350000D01*
X221500000Y-165300000D02*
X222000000Y-165300000D01*
X222000000Y-164175000D02*
X221500000Y-164175000D01*
X221500000Y-163125000D02*
X222000000Y-163125000D01*
X228300000Y-170475000D02*
X228300000Y-170975000D01*
X227250000Y-170975000D02*
X227250000Y-170475000D01*
X188300000Y-174100000D02*
X187800000Y-174100000D01*
X187800000Y-173050000D02*
X188300000Y-173050000D01*
X221500000Y-167875000D02*
X222000000Y-167875000D01*
X222000000Y-168925000D02*
X221500000Y-168925000D01*
X227199780Y-160535110D02*
X227199780Y-163035110D01*
X227199780Y-163035110D02*
X228299780Y-163035110D01*
X228299780Y-163035110D02*
X228299780Y-160535110D01*
X228299780Y-160535110D02*
X227199780Y-160535110D01*
X228549780Y-160285110D02*
X228549780Y-163285110D01*
X226949780Y-160285110D02*
X226949780Y-163285110D01*
X226949780Y-163285110D02*
X228549780Y-163285110D01*
X226949780Y-160285110D02*
X228549780Y-160285110D01*
X229499780Y-158785110D02*
X229499780Y-164785110D01*
X225999780Y-158785110D02*
X225999780Y-164785110D01*
X225999780Y-158785110D02*
X229499780Y-158785110D01*
X225999780Y-164785110D02*
X229499780Y-164785110D01*
X183199780Y-161710110D02*
X183199780Y-164210110D01*
X183199780Y-164210110D02*
X184299780Y-164210110D01*
X184299780Y-164210110D02*
X184299780Y-161710110D01*
X184299780Y-161710110D02*
X183199780Y-161710110D01*
X184549780Y-161460110D02*
X184549780Y-164460110D01*
X182949780Y-161460110D02*
X182949780Y-164460110D01*
X182949780Y-164460110D02*
X184549780Y-164460110D01*
X182949780Y-161460110D02*
X184549780Y-161460110D01*
X185499780Y-159960110D02*
X185499780Y-165960110D01*
X181999780Y-159960110D02*
X181999780Y-165960110D01*
X181999780Y-159960110D02*
X185499780Y-159960110D01*
X181999780Y-165960110D02*
X185499780Y-165960110D01*
D14*
X197559000Y-160841000D02*
X197559000Y-160079000D01*
X197559000Y-160079000D02*
X213561000Y-160079000D01*
X213561000Y-160079000D02*
X213561000Y-160841000D01*
D13*
X190284000Y-169446000D02*
X192316000Y-169446000D01*
X192316000Y-169954000D02*
X190284000Y-169954000D01*
X190284000Y-169446000D02*
G75*
G02X191300000Y-168430000I1016000J0D01*
G01*
X191300000Y-168430000D02*
G75*
G02X192316000Y-169446000I0J-1016000D01*
G01*
X192316000Y-169954000D02*
G75*
G02X191300000Y-170970000I-1016000J0D01*
G01*
X191300000Y-170970000D02*
G75*
G02X190284000Y-169954000I0J1016000D01*
G01*
D11*
X197900000Y-106850000D02*
X197900000Y-156850000D01*
X210900000Y-106850000D02*
X197900000Y-106850000D01*
X210900000Y-156850000D02*
X210900000Y-106850000D01*
X197900000Y-156850000D02*
X210900000Y-156850000D01*
X223038095Y-125626381D02*
X223038095Y-124626381D01*
X222657142Y-124626381D01*
X222561904Y-124674000D01*
X222514285Y-124721619D01*
X222466666Y-124816857D01*
X222466666Y-124959714D01*
X222514285Y-125054952D01*
X222561904Y-125102571D01*
X222657142Y-125150190D01*
X223038095Y-125150190D01*
X221514285Y-125626381D02*
X222085714Y-125626381D01*
X221800000Y-125626381D02*
X221800000Y-124626381D01*
X221895238Y-124769238D01*
X221990476Y-124864476D01*
X222085714Y-124912095D01*
X226490952Y-130706429D02*
X225729047Y-130706429D01*
X226109999Y-131087381D02*
X226109999Y-130325476D01*
D15*
X188178571Y-157916667D02*
X188202381Y-157892857D01*
X188226190Y-157821429D01*
X188226190Y-157773810D01*
X188202381Y-157702381D01*
X188154762Y-157654762D01*
X188107143Y-157630953D01*
X188011905Y-157607143D01*
X187940476Y-157607143D01*
X187845238Y-157630953D01*
X187797619Y-157654762D01*
X187750000Y-157702381D01*
X187726190Y-157773810D01*
X187726190Y-157821429D01*
X187750000Y-157892857D01*
X187773810Y-157916667D01*
X188226190Y-158392857D02*
X188226190Y-158107143D01*
X188226190Y-158250000D02*
X187726190Y-158250000D01*
X187797619Y-158202381D01*
X187845238Y-158154762D01*
X187869048Y-158107143D01*
X177003571Y-149191667D02*
X177027381Y-149167857D01*
X177051190Y-149096429D01*
X177051190Y-149048810D01*
X177027381Y-148977381D01*
X176979762Y-148929762D01*
X176932143Y-148905953D01*
X176836905Y-148882143D01*
X176765476Y-148882143D01*
X176670238Y-148905953D01*
X176622619Y-148929762D01*
X176575000Y-148977381D01*
X176551190Y-149048810D01*
X176551190Y-149096429D01*
X176575000Y-149167857D01*
X176598810Y-149191667D01*
X176598810Y-149382143D02*
X176575000Y-149405953D01*
X176551190Y-149453572D01*
X176551190Y-149572619D01*
X176575000Y-149620238D01*
X176598810Y-149644048D01*
X176646429Y-149667857D01*
X176694048Y-149667857D01*
X176765476Y-149644048D01*
X177051190Y-149358334D01*
X177051190Y-149667857D01*
D11*
X190666666Y-172132143D02*
X190714285Y-172179762D01*
X190857142Y-172227381D01*
X190952380Y-172227381D01*
X191095238Y-172179762D01*
X191190476Y-172084524D01*
X191238095Y-171989286D01*
X191285714Y-171798810D01*
X191285714Y-171655952D01*
X191238095Y-171465476D01*
X191190476Y-171370238D01*
X191095238Y-171275000D01*
X190952380Y-171227381D01*
X190857142Y-171227381D01*
X190714285Y-171275000D01*
X190666666Y-171322619D01*
X190333333Y-171227381D02*
X189714285Y-171227381D01*
X190047619Y-171608333D01*
X189904761Y-171608333D01*
X189809523Y-171655952D01*
X189761904Y-171703571D01*
X189714285Y-171798810D01*
X189714285Y-172036905D01*
X189761904Y-172132143D01*
X189809523Y-172179762D01*
X189904761Y-172227381D01*
X190190476Y-172227381D01*
X190285714Y-172179762D01*
X190333333Y-172132143D01*
X224788095Y-170952381D02*
X224788095Y-169952381D01*
X224550000Y-169952381D01*
X224407142Y-170000000D01*
X224311904Y-170095238D01*
X224264285Y-170190476D01*
X224216666Y-170380952D01*
X224216666Y-170523810D01*
X224264285Y-170714286D01*
X224311904Y-170809524D01*
X224407142Y-170904762D01*
X224550000Y-170952381D01*
X224788095Y-170952381D01*
X223835714Y-170047619D02*
X223788095Y-170000000D01*
X223692857Y-169952381D01*
X223454761Y-169952381D01*
X223359523Y-170000000D01*
X223311904Y-170047619D01*
X223264285Y-170142857D01*
X223264285Y-170238095D01*
X223311904Y-170380952D01*
X223883333Y-170952381D01*
X223264285Y-170952381D01*
D14*
X234337714Y-167215001D02*
X234882000Y-167215001D01*
X234990857Y-167178715D01*
X235063429Y-167106144D01*
X235099714Y-166997287D01*
X235099714Y-166924715D01*
X235099714Y-167577858D02*
X234337714Y-167577858D01*
X234337714Y-167868143D01*
X234374000Y-167940715D01*
X234410286Y-167977000D01*
X234482857Y-168013286D01*
X234591714Y-168013286D01*
X234664286Y-167977000D01*
X234700571Y-167940715D01*
X234736857Y-167868143D01*
X234736857Y-167577858D01*
X234410286Y-168303572D02*
X234374000Y-168339858D01*
X234337714Y-168412429D01*
X234337714Y-168593858D01*
X234374000Y-168666429D01*
X234410286Y-168702715D01*
X234482857Y-168739000D01*
X234555429Y-168739000D01*
X234664286Y-168702715D01*
X235099714Y-168267286D01*
X235099714Y-168739000D01*
X224184999Y-172607714D02*
X224184999Y-173152000D01*
X224221285Y-173260857D01*
X224293856Y-173333429D01*
X224402713Y-173369714D01*
X224475285Y-173369714D01*
X223822142Y-173369714D02*
X223822142Y-172607714D01*
X223531857Y-172607714D01*
X223459285Y-172644000D01*
X223423000Y-172680286D01*
X223386714Y-172752857D01*
X223386714Y-172861714D01*
X223423000Y-172934286D01*
X223459285Y-172970571D01*
X223531857Y-173006857D01*
X223822142Y-173006857D01*
X222733571Y-172861714D02*
X222733571Y-173369714D01*
X222915000Y-172571429D02*
X223096428Y-173115714D01*
X222624714Y-173115714D01*
D11*
X232164881Y-156211905D02*
X231164881Y-156211905D01*
X231164881Y-156592858D01*
X231212500Y-156688096D01*
X231260119Y-156735715D01*
X231355357Y-156783334D01*
X231498214Y-156783334D01*
X231593452Y-156735715D01*
X231641071Y-156688096D01*
X231688690Y-156592858D01*
X231688690Y-156211905D01*
X231164881Y-157116667D02*
X231164881Y-157735715D01*
X231545833Y-157402381D01*
X231545833Y-157545239D01*
X231593452Y-157640477D01*
X231641071Y-157688096D01*
X231736310Y-157735715D01*
X231974405Y-157735715D01*
X232069643Y-157688096D01*
X232117262Y-157640477D01*
X232164881Y-157545239D01*
X232164881Y-157259524D01*
X232117262Y-157164286D01*
X232069643Y-157116667D01*
X190000000Y-165446429D02*
X190200000Y-165160714D01*
X190342857Y-165446429D02*
X190342857Y-164846429D01*
X190114285Y-164846429D01*
X190057143Y-164875000D01*
X190028571Y-164903571D01*
X190000000Y-164960714D01*
X190000000Y-165046429D01*
X190028571Y-165103571D01*
X190057143Y-165132143D01*
X190114285Y-165160714D01*
X190342857Y-165160714D01*
X189428571Y-165446429D02*
X189771428Y-165446429D01*
X189600000Y-165446429D02*
X189600000Y-164846429D01*
X189657143Y-164932143D01*
X189714285Y-164989286D01*
X189771428Y-165017857D01*
X223500000Y-166171429D02*
X223700000Y-165885714D01*
X223842857Y-166171429D02*
X223842857Y-165571429D01*
X223614285Y-165571429D01*
X223557143Y-165600000D01*
X223528571Y-165628571D01*
X223500000Y-165685714D01*
X223500000Y-165771429D01*
X223528571Y-165828571D01*
X223557143Y-165857143D01*
X223614285Y-165885714D01*
X223842857Y-165885714D01*
X223271428Y-165628571D02*
X223242857Y-165600000D01*
X223185714Y-165571429D01*
X223042857Y-165571429D01*
X222985714Y-165600000D01*
X222957143Y-165628571D01*
X222928571Y-165685714D01*
X222928571Y-165742857D01*
X222957143Y-165828571D01*
X223300000Y-166171429D01*
X222928571Y-166171429D01*
X223600000Y-164021429D02*
X223800000Y-163735714D01*
X223942857Y-164021429D02*
X223942857Y-163421429D01*
X223714285Y-163421429D01*
X223657143Y-163450000D01*
X223628571Y-163478571D01*
X223600000Y-163535714D01*
X223600000Y-163621429D01*
X223628571Y-163678571D01*
X223657143Y-163707143D01*
X223714285Y-163735714D01*
X223942857Y-163735714D01*
X223400000Y-163421429D02*
X223028571Y-163421429D01*
X223228571Y-163650000D01*
X223142857Y-163650000D01*
X223085714Y-163678571D01*
X223057143Y-163707143D01*
X223028571Y-163764286D01*
X223028571Y-163907143D01*
X223057143Y-163964286D01*
X223085714Y-163992857D01*
X223142857Y-164021429D01*
X223314285Y-164021429D01*
X223371428Y-163992857D01*
X223400000Y-163964286D01*
X229296429Y-170625000D02*
X229010714Y-170425000D01*
X229296429Y-170282143D02*
X228696429Y-170282143D01*
X228696429Y-170510715D01*
X228725000Y-170567857D01*
X228753571Y-170596429D01*
X228810714Y-170625000D01*
X228896429Y-170625000D01*
X228953571Y-170596429D01*
X228982143Y-170567857D01*
X229010714Y-170510715D01*
X229010714Y-170282143D01*
X228896429Y-171139286D02*
X229296429Y-171139286D01*
X228667857Y-170996429D02*
X229096429Y-170853572D01*
X229096429Y-171225000D01*
X188150000Y-175096429D02*
X188350000Y-174810714D01*
X188492857Y-175096429D02*
X188492857Y-174496429D01*
X188264285Y-174496429D01*
X188207143Y-174525000D01*
X188178571Y-174553571D01*
X188150000Y-174610714D01*
X188150000Y-174696429D01*
X188178571Y-174753571D01*
X188207143Y-174782143D01*
X188264285Y-174810714D01*
X188492857Y-174810714D01*
X187607143Y-174496429D02*
X187892857Y-174496429D01*
X187921428Y-174782143D01*
X187892857Y-174753571D01*
X187835714Y-174725000D01*
X187692857Y-174725000D01*
X187635714Y-174753571D01*
X187607143Y-174782143D01*
X187578571Y-174839286D01*
X187578571Y-174982143D01*
X187607143Y-175039286D01*
X187635714Y-175067857D01*
X187692857Y-175096429D01*
X187835714Y-175096429D01*
X187892857Y-175067857D01*
X187921428Y-175039286D01*
X223525000Y-168696429D02*
X223725000Y-168410714D01*
X223867857Y-168696429D02*
X223867857Y-168096429D01*
X223639285Y-168096429D01*
X223582143Y-168125000D01*
X223553571Y-168153571D01*
X223525000Y-168210714D01*
X223525000Y-168296429D01*
X223553571Y-168353571D01*
X223582143Y-168382143D01*
X223639285Y-168410714D01*
X223867857Y-168410714D01*
X223010714Y-168096429D02*
X223125000Y-168096429D01*
X223182143Y-168125000D01*
X223210714Y-168153571D01*
X223267857Y-168239286D01*
X223296428Y-168353571D01*
X223296428Y-168582143D01*
X223267857Y-168639286D01*
X223239285Y-168667857D01*
X223182143Y-168696429D01*
X223067857Y-168696429D01*
X223010714Y-168667857D01*
X222982143Y-168639286D01*
X222953571Y-168582143D01*
X222953571Y-168439286D01*
X222982143Y-168382143D01*
X223010714Y-168353571D01*
X223067857Y-168325000D01*
X223182143Y-168325000D01*
X223239285Y-168353571D01*
X223267857Y-168382143D01*
X223296428Y-168439286D01*
X197336905Y-177152381D02*
X197336905Y-177961905D01*
X197289286Y-178057143D01*
X197241667Y-178104762D01*
X197146429Y-178152381D01*
X196955952Y-178152381D01*
X196860714Y-178104762D01*
X196813095Y-178057143D01*
X196765476Y-177961905D01*
X196765476Y-177152381D01*
X196336905Y-177247619D02*
X196289286Y-177200000D01*
X196194048Y-177152381D01*
X195955952Y-177152381D01*
X195860714Y-177200000D01*
X195813095Y-177247619D01*
X195765476Y-177342857D01*
X195765476Y-177438095D01*
X195813095Y-177580952D01*
X196384524Y-178152381D01*
X195765476Y-178152381D01*
D14*
X188977714Y-169065001D02*
X189522000Y-169065001D01*
X189630857Y-169028715D01*
X189703429Y-168956144D01*
X189739714Y-168847287D01*
X189739714Y-168774715D01*
X189739714Y-169427858D02*
X188977714Y-169427858D01*
X188977714Y-169718143D01*
X189014000Y-169790715D01*
X189050286Y-169827000D01*
X189122857Y-169863286D01*
X189231714Y-169863286D01*
X189304286Y-169827000D01*
X189340571Y-169790715D01*
X189376857Y-169718143D01*
X189376857Y-169427858D01*
X189739714Y-170589000D02*
X189739714Y-170153572D01*
X189739714Y-170371286D02*
X188977714Y-170371286D01*
X189086571Y-170298715D01*
X189159143Y-170226143D01*
X189195429Y-170153572D01*
D11*
X205171900Y-130702498D02*
X205029043Y-130750117D01*
X204981424Y-130797737D01*
X204933805Y-130892975D01*
X204933805Y-131035832D01*
X204981424Y-131131070D01*
X205029043Y-131178689D01*
X205124281Y-131226308D01*
X205505234Y-131226308D01*
X205505234Y-130226308D01*
X205171900Y-130226308D01*
X205076662Y-130273927D01*
X205029043Y-130321546D01*
X204981424Y-130416784D01*
X204981424Y-130512022D01*
X205029043Y-130607260D01*
X205076662Y-130654879D01*
X205171900Y-130702498D01*
X205505234Y-130702498D01*
X204648091Y-130226308D02*
X204076662Y-130226308D01*
X204362377Y-131226308D02*
X204362377Y-130226308D01*
X203219519Y-131226308D02*
X203790948Y-131226308D01*
X203505234Y-131226308D02*
X203505234Y-130226308D01*
X203600472Y-130369165D01*
X203695710Y-130464403D01*
X203790948Y-130512022D01*
X206304762Y-113207143D02*
X202495238Y-113207143D01*
X204400000Y-115111905D02*
X204400000Y-111302381D01*
M02*
