G04 #@! TF.FileFunction,Soldermask,Top*
%FSLAX46Y46*%
G04 Gerber Fmt 4.6, Leading zero omitted, Abs format (unit mm)*
G04 Created by KiCad (PCBNEW 4.0.4-stable) date 12/07/16 00:40:48*
%MOMM*%
%LPD*%
G01*
G04 APERTURE LIST*
%ADD10C,0.100000*%
%ADD11C,0.010000*%
%ADD12R,1.800000X1.400000*%
%ADD13C,2.000000*%
%ADD14R,2.180000X1.600000*%
%ADD15C,1.700000*%
%ADD16C,1.524000*%
G04 APERTURE END LIST*
D10*
D11*
G36*
X204756602Y-93854483D02*
X204943551Y-93895892D01*
X205162637Y-93988257D01*
X205463480Y-94144522D01*
X205595535Y-94215767D01*
X206007530Y-94454639D01*
X206302469Y-94669209D01*
X206522636Y-94892489D01*
X206611984Y-95009372D01*
X206976476Y-95558268D01*
X207236645Y-96031084D01*
X207383000Y-96410208D01*
X207395934Y-96464333D01*
X207481658Y-96753571D01*
X207593052Y-97014666D01*
X207678012Y-97241359D01*
X207753733Y-97554444D01*
X207789354Y-97776666D01*
X207831712Y-98114709D01*
X207886059Y-98536039D01*
X207941482Y-98956164D01*
X207947934Y-99004333D01*
X207996054Y-99377100D01*
X208037272Y-99722081D01*
X208064225Y-99976963D01*
X208067816Y-100018612D01*
X208110752Y-100214167D01*
X208222887Y-100337393D01*
X208435454Y-100404860D01*
X208779683Y-100433136D01*
X208853076Y-100435227D01*
X209057915Y-100449851D01*
X209394114Y-100484626D01*
X209825518Y-100534935D01*
X210315976Y-100596159D01*
X210829334Y-100663680D01*
X211329440Y-100732882D01*
X211780139Y-100799145D01*
X212095000Y-100849310D01*
X212328670Y-100897863D01*
X212437892Y-100964174D01*
X212466407Y-101085634D01*
X212464697Y-101165311D01*
X212460930Y-101316782D01*
X212456218Y-101611830D01*
X212450871Y-102024706D01*
X212445203Y-102529659D01*
X212439525Y-103100937D01*
X212434932Y-103618666D01*
X212423768Y-104496182D01*
X212404693Y-105222527D01*
X212375197Y-105815774D01*
X212332771Y-106294000D01*
X212274906Y-106675279D01*
X212199094Y-106977687D01*
X212102826Y-107219299D01*
X211983591Y-107418189D01*
X211891389Y-107534500D01*
X211655928Y-107706738D01*
X211389863Y-107714855D01*
X211090881Y-107558427D01*
X210855594Y-107345409D01*
X210571337Y-106973461D01*
X210359286Y-106513590D01*
X210204015Y-105930612D01*
X210179891Y-105804304D01*
X210079663Y-105564486D01*
X209881534Y-105449503D01*
X209574078Y-105454719D01*
X209409276Y-105491725D01*
X209292041Y-105556183D01*
X209208764Y-105700718D01*
X209138331Y-105965672D01*
X209123849Y-106037066D01*
X209044021Y-106333221D01*
X208940907Y-106574019D01*
X208867405Y-106675952D01*
X208744995Y-106826019D01*
X208708333Y-106928083D01*
X208638346Y-107039972D01*
X208550166Y-107086455D01*
X208371246Y-107187475D01*
X208240710Y-107303828D01*
X208023525Y-107446673D01*
X207783405Y-107424796D01*
X207523775Y-107240746D01*
X207248058Y-106897071D01*
X206959677Y-106396318D01*
X206923152Y-106323297D01*
X206748098Y-105981099D01*
X206618142Y-105766789D01*
X206511602Y-105652646D01*
X206406794Y-105610949D01*
X206363896Y-105608333D01*
X206132618Y-105644303D01*
X205935454Y-105732539D01*
X205833334Y-105843530D01*
X205829666Y-105867093D01*
X205782924Y-106045832D01*
X205660380Y-106313942D01*
X205488556Y-106625874D01*
X205293975Y-106936079D01*
X205103159Y-107199008D01*
X204967278Y-107348131D01*
X204657637Y-107572682D01*
X204378999Y-107640608D01*
X204102266Y-107550847D01*
X203801553Y-107305553D01*
X203617768Y-107103699D01*
X203458819Y-106879676D01*
X203302588Y-106595066D01*
X203126959Y-106211454D01*
X203004235Y-105920595D01*
X202905618Y-105715414D01*
X202797835Y-105628877D01*
X202617163Y-105619324D01*
X202550965Y-105624261D01*
X202401140Y-105643481D01*
X202287606Y-105691213D01*
X202184133Y-105796359D01*
X202064492Y-105987821D01*
X201902455Y-106294501D01*
X201850333Y-106396308D01*
X201556746Y-106902695D01*
X201274844Y-107243492D01*
X200998328Y-107421486D01*
X200720901Y-107439462D01*
X200436263Y-107300207D01*
X200231140Y-107112588D01*
X200032203Y-106872165D01*
X199892076Y-106622153D01*
X199785381Y-106306614D01*
X199702415Y-105947000D01*
X199606666Y-105481333D01*
X199240576Y-105454992D01*
X198930554Y-105462640D01*
X198742752Y-105558899D01*
X198641543Y-105771075D01*
X198611161Y-105937379D01*
X198519291Y-106316246D01*
X198355688Y-106718108D01*
X198147180Y-107093451D01*
X197920595Y-107392761D01*
X197738696Y-107547577D01*
X197388103Y-107694069D01*
X197078817Y-107706467D01*
X196839695Y-107584247D01*
X196820371Y-107564180D01*
X196721558Y-107433585D01*
X196639759Y-107269178D01*
X196573079Y-107054167D01*
X196519620Y-106771761D01*
X196477487Y-106405167D01*
X196444782Y-105937594D01*
X196419609Y-105352250D01*
X196400073Y-104632344D01*
X196384275Y-103761083D01*
X196383258Y-103693821D01*
X196341295Y-100890308D01*
X197084980Y-100790462D01*
X197328073Y-100758196D01*
X197678355Y-100712183D01*
X198102868Y-100656702D01*
X198568653Y-100596032D01*
X199042750Y-100534452D01*
X199492200Y-100476241D01*
X199884044Y-100425679D01*
X200185322Y-100387044D01*
X200363075Y-100364614D01*
X200389833Y-100361404D01*
X200403048Y-100284329D01*
X200411220Y-100093399D01*
X200412299Y-99999166D01*
X200434301Y-99739285D01*
X200491126Y-99387594D01*
X200571061Y-99015100D01*
X200581633Y-98972445D01*
X200660640Y-98642440D01*
X200719587Y-98364885D01*
X200748118Y-98189463D01*
X200749289Y-98168111D01*
X200774828Y-98015798D01*
X200843159Y-97746867D01*
X200941199Y-97404553D01*
X201055863Y-97032087D01*
X201174069Y-96672701D01*
X201282733Y-96369628D01*
X201327785Y-96256553D01*
X201524536Y-95904082D01*
X201813064Y-95524476D01*
X202143013Y-95176139D01*
X202464024Y-94917475D01*
X202503723Y-94892733D01*
X202758927Y-94705029D01*
X202981713Y-94484745D01*
X203016001Y-94441318D01*
X203257807Y-94187197D01*
X203564061Y-94016283D01*
X203973556Y-93911136D01*
X204280645Y-93872758D01*
X204552173Y-93851086D01*
X204756602Y-93854483D01*
X204756602Y-93854483D01*
G37*
X204756602Y-93854483D02*
X204943551Y-93895892D01*
X205162637Y-93988257D01*
X205463480Y-94144522D01*
X205595535Y-94215767D01*
X206007530Y-94454639D01*
X206302469Y-94669209D01*
X206522636Y-94892489D01*
X206611984Y-95009372D01*
X206976476Y-95558268D01*
X207236645Y-96031084D01*
X207383000Y-96410208D01*
X207395934Y-96464333D01*
X207481658Y-96753571D01*
X207593052Y-97014666D01*
X207678012Y-97241359D01*
X207753733Y-97554444D01*
X207789354Y-97776666D01*
X207831712Y-98114709D01*
X207886059Y-98536039D01*
X207941482Y-98956164D01*
X207947934Y-99004333D01*
X207996054Y-99377100D01*
X208037272Y-99722081D01*
X208064225Y-99976963D01*
X208067816Y-100018612D01*
X208110752Y-100214167D01*
X208222887Y-100337393D01*
X208435454Y-100404860D01*
X208779683Y-100433136D01*
X208853076Y-100435227D01*
X209057915Y-100449851D01*
X209394114Y-100484626D01*
X209825518Y-100534935D01*
X210315976Y-100596159D01*
X210829334Y-100663680D01*
X211329440Y-100732882D01*
X211780139Y-100799145D01*
X212095000Y-100849310D01*
X212328670Y-100897863D01*
X212437892Y-100964174D01*
X212466407Y-101085634D01*
X212464697Y-101165311D01*
X212460930Y-101316782D01*
X212456218Y-101611830D01*
X212450871Y-102024706D01*
X212445203Y-102529659D01*
X212439525Y-103100937D01*
X212434932Y-103618666D01*
X212423768Y-104496182D01*
X212404693Y-105222527D01*
X212375197Y-105815774D01*
X212332771Y-106294000D01*
X212274906Y-106675279D01*
X212199094Y-106977687D01*
X212102826Y-107219299D01*
X211983591Y-107418189D01*
X211891389Y-107534500D01*
X211655928Y-107706738D01*
X211389863Y-107714855D01*
X211090881Y-107558427D01*
X210855594Y-107345409D01*
X210571337Y-106973461D01*
X210359286Y-106513590D01*
X210204015Y-105930612D01*
X210179891Y-105804304D01*
X210079663Y-105564486D01*
X209881534Y-105449503D01*
X209574078Y-105454719D01*
X209409276Y-105491725D01*
X209292041Y-105556183D01*
X209208764Y-105700718D01*
X209138331Y-105965672D01*
X209123849Y-106037066D01*
X209044021Y-106333221D01*
X208940907Y-106574019D01*
X208867405Y-106675952D01*
X208744995Y-106826019D01*
X208708333Y-106928083D01*
X208638346Y-107039972D01*
X208550166Y-107086455D01*
X208371246Y-107187475D01*
X208240710Y-107303828D01*
X208023525Y-107446673D01*
X207783405Y-107424796D01*
X207523775Y-107240746D01*
X207248058Y-106897071D01*
X206959677Y-106396318D01*
X206923152Y-106323297D01*
X206748098Y-105981099D01*
X206618142Y-105766789D01*
X206511602Y-105652646D01*
X206406794Y-105610949D01*
X206363896Y-105608333D01*
X206132618Y-105644303D01*
X205935454Y-105732539D01*
X205833334Y-105843530D01*
X205829666Y-105867093D01*
X205782924Y-106045832D01*
X205660380Y-106313942D01*
X205488556Y-106625874D01*
X205293975Y-106936079D01*
X205103159Y-107199008D01*
X204967278Y-107348131D01*
X204657637Y-107572682D01*
X204378999Y-107640608D01*
X204102266Y-107550847D01*
X203801553Y-107305553D01*
X203617768Y-107103699D01*
X203458819Y-106879676D01*
X203302588Y-106595066D01*
X203126959Y-106211454D01*
X203004235Y-105920595D01*
X202905618Y-105715414D01*
X202797835Y-105628877D01*
X202617163Y-105619324D01*
X202550965Y-105624261D01*
X202401140Y-105643481D01*
X202287606Y-105691213D01*
X202184133Y-105796359D01*
X202064492Y-105987821D01*
X201902455Y-106294501D01*
X201850333Y-106396308D01*
X201556746Y-106902695D01*
X201274844Y-107243492D01*
X200998328Y-107421486D01*
X200720901Y-107439462D01*
X200436263Y-107300207D01*
X200231140Y-107112588D01*
X200032203Y-106872165D01*
X199892076Y-106622153D01*
X199785381Y-106306614D01*
X199702415Y-105947000D01*
X199606666Y-105481333D01*
X199240576Y-105454992D01*
X198930554Y-105462640D01*
X198742752Y-105558899D01*
X198641543Y-105771075D01*
X198611161Y-105937379D01*
X198519291Y-106316246D01*
X198355688Y-106718108D01*
X198147180Y-107093451D01*
X197920595Y-107392761D01*
X197738696Y-107547577D01*
X197388103Y-107694069D01*
X197078817Y-107706467D01*
X196839695Y-107584247D01*
X196820371Y-107564180D01*
X196721558Y-107433585D01*
X196639759Y-107269178D01*
X196573079Y-107054167D01*
X196519620Y-106771761D01*
X196477487Y-106405167D01*
X196444782Y-105937594D01*
X196419609Y-105352250D01*
X196400073Y-104632344D01*
X196384275Y-103761083D01*
X196383258Y-103693821D01*
X196341295Y-100890308D01*
X197084980Y-100790462D01*
X197328073Y-100758196D01*
X197678355Y-100712183D01*
X198102868Y-100656702D01*
X198568653Y-100596032D01*
X199042750Y-100534452D01*
X199492200Y-100476241D01*
X199884044Y-100425679D01*
X200185322Y-100387044D01*
X200363075Y-100364614D01*
X200389833Y-100361404D01*
X200403048Y-100284329D01*
X200411220Y-100093399D01*
X200412299Y-99999166D01*
X200434301Y-99739285D01*
X200491126Y-99387594D01*
X200571061Y-99015100D01*
X200581633Y-98972445D01*
X200660640Y-98642440D01*
X200719587Y-98364885D01*
X200748118Y-98189463D01*
X200749289Y-98168111D01*
X200774828Y-98015798D01*
X200843159Y-97746867D01*
X200941199Y-97404553D01*
X201055863Y-97032087D01*
X201174069Y-96672701D01*
X201282733Y-96369628D01*
X201327785Y-96256553D01*
X201524536Y-95904082D01*
X201813064Y-95524476D01*
X202143013Y-95176139D01*
X202464024Y-94917475D01*
X202503723Y-94892733D01*
X202758927Y-94705029D01*
X202981713Y-94484745D01*
X203016001Y-94441318D01*
X203257807Y-94187197D01*
X203564061Y-94016283D01*
X203973556Y-93911136D01*
X204280645Y-93872758D01*
X204552173Y-93851086D01*
X204756602Y-93854483D01*
G36*
X241243344Y-145169299D02*
X241304416Y-145215969D01*
X241344352Y-145331837D01*
X241372721Y-145548062D01*
X241399096Y-145895803D01*
X241405125Y-145986166D01*
X241443333Y-146813110D01*
X241457751Y-147740389D01*
X241449854Y-148729733D01*
X241421116Y-149742868D01*
X241373011Y-150741523D01*
X241307012Y-151687425D01*
X241224595Y-152542303D01*
X241127232Y-153267885D01*
X241123866Y-153288666D01*
X241011291Y-153947521D01*
X240884630Y-154634670D01*
X240748711Y-155328566D01*
X240608362Y-156007662D01*
X240468412Y-156650408D01*
X240333688Y-157235258D01*
X240209020Y-157740663D01*
X240099235Y-158145076D01*
X240009160Y-158426948D01*
X239943626Y-158564732D01*
X239941055Y-158567477D01*
X239872738Y-158715382D01*
X239853250Y-158872433D01*
X239829024Y-159029585D01*
X239763456Y-159305281D01*
X239668669Y-159657391D01*
X239556786Y-160043786D01*
X239439929Y-160422339D01*
X239330221Y-160750920D01*
X239255132Y-160951000D01*
X239196486Y-161108177D01*
X239102229Y-161375607D01*
X238990068Y-161702818D01*
X238958072Y-161797666D01*
X238830482Y-162163648D01*
X238700808Y-162513389D01*
X238593884Y-162780283D01*
X238579291Y-162813666D01*
X238448450Y-163110647D01*
X238321338Y-163404809D01*
X238302696Y-163448666D01*
X238144001Y-163813302D01*
X237935305Y-164278048D01*
X237700297Y-164790557D01*
X237536437Y-165142000D01*
X237359058Y-165499956D01*
X237119361Y-165956697D01*
X236842812Y-166466207D01*
X236554876Y-166982467D01*
X236281021Y-167459462D01*
X236046713Y-167851174D01*
X235966775Y-167978333D01*
X235753052Y-168313477D01*
X235611751Y-168542457D01*
X235521712Y-168700234D01*
X235479934Y-168782666D01*
X235396100Y-168922115D01*
X235232588Y-169166537D01*
X235011271Y-169485401D01*
X234754022Y-169848176D01*
X234482713Y-170224331D01*
X234219217Y-170583335D01*
X233985406Y-170894657D01*
X233803154Y-171127766D01*
X233777166Y-171159480D01*
X233648801Y-171339033D01*
X233587528Y-171473105D01*
X233586666Y-171483055D01*
X233539255Y-171572478D01*
X233519397Y-171576666D01*
X233437628Y-171639234D01*
X233289494Y-171802825D01*
X233117231Y-172018898D01*
X232922382Y-172271384D01*
X232751580Y-172484410D01*
X232655333Y-172596734D01*
X232549010Y-172713320D01*
X232359025Y-172924464D01*
X232114152Y-173198104D01*
X231893441Y-173445669D01*
X231348750Y-174037596D01*
X230733792Y-174672080D01*
X230085774Y-175312908D01*
X229441902Y-175923868D01*
X228839382Y-176468747D01*
X228420339Y-176826000D01*
X228200383Y-177009388D01*
X228025988Y-177159047D01*
X227962610Y-177216369D01*
X227858324Y-177303614D01*
X227650659Y-177467825D01*
X227371475Y-177684063D01*
X227106344Y-177886642D01*
X226798986Y-178121540D01*
X226543462Y-178319553D01*
X226368828Y-178457989D01*
X226305333Y-178512272D01*
X226255097Y-178557858D01*
X226146412Y-178640190D01*
X225961813Y-178771552D01*
X225683837Y-178964225D01*
X225295019Y-179230493D01*
X224947581Y-179467222D01*
X224562801Y-179727170D01*
X224249339Y-179932506D01*
X223959452Y-180112258D01*
X223645392Y-180295453D01*
X223259415Y-180511118D01*
X222961000Y-180674992D01*
X222589862Y-180880238D01*
X222195665Y-181101523D01*
X221876963Y-181283353D01*
X221625217Y-181426645D01*
X221438631Y-181528711D01*
X221357907Y-181567333D01*
X221275503Y-181601370D01*
X221068730Y-181694716D01*
X220766265Y-181834219D01*
X220396789Y-182006731D01*
X220282943Y-182060236D01*
X219394350Y-182466858D01*
X218576712Y-182814650D01*
X217757348Y-183134460D01*
X217711666Y-183151524D01*
X217416633Y-183265247D01*
X217132314Y-183380440D01*
X217094960Y-183396213D01*
X216862907Y-183477350D01*
X216674750Y-183514431D01*
X216664571Y-183514666D01*
X216505727Y-183541924D01*
X216457441Y-183569447D01*
X216332268Y-183638258D01*
X216086035Y-183734506D01*
X215761770Y-183843815D01*
X215402504Y-183951807D01*
X215051266Y-184044107D01*
X215002333Y-184055618D01*
X214647831Y-184144924D01*
X214291449Y-184246252D01*
X214113333Y-184303018D01*
X213839790Y-184384633D01*
X213474359Y-184478389D01*
X213091596Y-184565271D01*
X213055000Y-184572899D01*
X212691729Y-184649268D01*
X212354051Y-184722617D01*
X212107136Y-184778750D01*
X212081333Y-184784960D01*
X211852601Y-184832403D01*
X211522323Y-184890969D01*
X211156747Y-184949002D01*
X211107666Y-184956253D01*
X210780304Y-185010535D01*
X210516202Y-185066159D01*
X210361824Y-185113001D01*
X210345666Y-185122273D01*
X210226918Y-185159253D01*
X209984237Y-185199507D01*
X209662716Y-185236066D01*
X209541333Y-185246585D01*
X209183682Y-185276587D01*
X208713664Y-185318151D01*
X208187426Y-185366210D01*
X207661117Y-185415696D01*
X207560971Y-185425301D01*
X206897333Y-185474356D01*
X206109962Y-185508376D01*
X205243812Y-185527109D01*
X204343839Y-185530307D01*
X203454996Y-185517718D01*
X202622237Y-185489091D01*
X202048333Y-185456020D01*
X201016958Y-185362577D01*
X199936008Y-185227925D01*
X198889839Y-185063368D01*
X198323000Y-184956814D01*
X197863551Y-184864270D01*
X197371451Y-184765400D01*
X196930676Y-184677068D01*
X196799000Y-184650749D01*
X196392426Y-184563458D01*
X195910151Y-184450914D01*
X195439489Y-184333688D01*
X195317333Y-184301674D01*
X194939865Y-184201561D01*
X194597194Y-184111102D01*
X194340583Y-184043812D01*
X194259000Y-184022675D01*
X193719446Y-183854929D01*
X193497000Y-183765103D01*
X193350977Y-183710086D01*
X193083799Y-183616333D01*
X192735298Y-183497615D01*
X192396333Y-183384539D01*
X191992210Y-183248214D01*
X191618145Y-183117017D01*
X191320841Y-183007610D01*
X191168666Y-182946538D01*
X190622638Y-182700656D01*
X190221540Y-182506007D01*
X189951500Y-182355040D01*
X189798646Y-182240206D01*
X189753638Y-182176436D01*
X189653402Y-182005501D01*
X189546444Y-181881535D01*
X189432285Y-181786153D01*
X189393172Y-181814570D01*
X189390666Y-181860368D01*
X189347272Y-181962990D01*
X189211794Y-181990657D01*
X188976288Y-181940265D01*
X188632810Y-181808710D01*
X188173417Y-181592886D01*
X187590163Y-181289689D01*
X186875105Y-180896014D01*
X186766000Y-180834615D01*
X186172469Y-180487878D01*
X185523811Y-180088134D01*
X184844870Y-179652464D01*
X184160492Y-179197943D01*
X183495522Y-178741651D01*
X182874807Y-178300665D01*
X182323192Y-177892064D01*
X181865522Y-177532926D01*
X181526644Y-177240329D01*
X181499195Y-177214382D01*
X181336014Y-177071696D01*
X181224603Y-176998066D01*
X181212712Y-176995333D01*
X181120965Y-176939192D01*
X180979384Y-176803799D01*
X180976184Y-176800326D01*
X180825409Y-176651866D01*
X180590632Y-176437672D01*
X180318316Y-176199957D01*
X180271808Y-176160392D01*
X179912262Y-175839390D01*
X179471681Y-175420515D01*
X178979581Y-174934162D01*
X178465481Y-174410722D01*
X177958897Y-173880588D01*
X177489346Y-173374154D01*
X177086347Y-172921811D01*
X176826629Y-172613038D01*
X176568039Y-172294779D01*
X176340228Y-172017652D01*
X176168808Y-171812605D01*
X176082085Y-171713352D01*
X175904625Y-171504757D01*
X175654735Y-171178214D01*
X175349832Y-170759309D01*
X175007333Y-170273625D01*
X174644656Y-169746746D01*
X174279218Y-169204258D01*
X173928436Y-168671743D01*
X173609728Y-168174788D01*
X173340510Y-167738974D01*
X173138200Y-167389888D01*
X173135886Y-167385666D01*
X172947227Y-167053656D01*
X172746386Y-166719323D01*
X172615202Y-166513588D01*
X172477616Y-166299187D01*
X172389727Y-166147114D01*
X172372666Y-166105231D01*
X172338197Y-166016257D01*
X172245000Y-165807396D01*
X172108388Y-165511047D01*
X171943675Y-165159609D01*
X171766175Y-164785483D01*
X171591203Y-164421068D01*
X171434071Y-164098763D01*
X171310094Y-163850970D01*
X171277101Y-163787333D01*
X171155122Y-163511329D01*
X171067565Y-163237076D01*
X171062810Y-163215833D01*
X171035239Y-163028781D01*
X171085358Y-162954119D01*
X171245035Y-162940666D01*
X171492392Y-163011650D01*
X171696262Y-163200771D01*
X171884694Y-163429651D01*
X172062100Y-163639610D01*
X172076333Y-163656072D01*
X172246559Y-163857972D01*
X172436922Y-164091263D01*
X172456403Y-164115634D01*
X172615626Y-164284353D01*
X172749359Y-164375034D01*
X172773903Y-164380000D01*
X172871029Y-164447176D01*
X172880666Y-164494636D01*
X172933319Y-164628427D01*
X173063446Y-164813508D01*
X173098511Y-164854470D01*
X173285048Y-165056923D01*
X173544696Y-165328464D01*
X173856699Y-165648442D01*
X174200303Y-165996206D01*
X174554753Y-166351105D01*
X174899293Y-166692488D01*
X175213169Y-166999704D01*
X175475626Y-167252101D01*
X175665908Y-167429030D01*
X175763261Y-167509838D01*
X175770097Y-167512666D01*
X175863148Y-167568448D01*
X176053313Y-167721817D01*
X176316793Y-167951806D01*
X176629792Y-168237449D01*
X176968515Y-168557781D01*
X177091429Y-168676833D01*
X177275850Y-168840937D01*
X177417578Y-168939374D01*
X177454771Y-168952000D01*
X177558145Y-169016000D01*
X177641648Y-169121333D01*
X177783088Y-169255263D01*
X177895648Y-169290666D01*
X178053252Y-169356826D01*
X178150449Y-169462729D01*
X178275204Y-169595913D01*
X178496223Y-169774539D01*
X178743833Y-169945510D01*
X178988070Y-170110570D01*
X179162793Y-170246163D01*
X179230653Y-170323267D01*
X179230666Y-170323781D01*
X179295668Y-170389373D01*
X179316066Y-170391333D01*
X179439950Y-170441496D01*
X179639228Y-170567022D01*
X179863005Y-170730465D01*
X180060389Y-170894378D01*
X180180489Y-171021315D01*
X180187373Y-171032433D01*
X180291899Y-171139204D01*
X180339113Y-171153333D01*
X180474192Y-171202331D01*
X180525406Y-171238274D01*
X180682544Y-171352840D01*
X180952043Y-171533241D01*
X181300811Y-171758617D01*
X181695752Y-172008110D01*
X182103772Y-172260859D01*
X182491776Y-172496005D01*
X182826669Y-172692689D01*
X182891304Y-172729502D01*
X183198694Y-172905972D01*
X183447007Y-173053609D01*
X183601370Y-173151419D01*
X183633570Y-173176347D01*
X183756484Y-173267675D01*
X183971879Y-173387247D01*
X184216162Y-173504067D01*
X184425737Y-173587141D01*
X184520597Y-173608666D01*
X184665830Y-173677233D01*
X184703382Y-173735666D01*
X184809985Y-173848190D01*
X184870058Y-173862666D01*
X184976789Y-173911411D01*
X184988000Y-173947333D01*
X185053287Y-174028481D01*
X185079281Y-174032000D01*
X185210525Y-174067701D01*
X185433147Y-174160387D01*
X185704474Y-174288430D01*
X185981832Y-174430200D01*
X186222549Y-174564069D01*
X186383950Y-174668410D01*
X186427333Y-174715240D01*
X186494853Y-174787485D01*
X186539329Y-174794000D01*
X186668280Y-174829050D01*
X186898130Y-174920885D01*
X187175678Y-175048000D01*
X187450857Y-175175782D01*
X187669038Y-175267006D01*
X187783154Y-175301999D01*
X187783348Y-175302000D01*
X187864255Y-175366470D01*
X187866666Y-175386666D01*
X187938570Y-175452242D01*
X188061400Y-175471333D01*
X188249844Y-175500662D01*
X188336566Y-175544057D01*
X188449814Y-175605042D01*
X188679413Y-175702625D01*
X188981529Y-175818496D01*
X189073166Y-175851731D01*
X189375068Y-175968107D01*
X189603645Y-176071975D01*
X189721271Y-176145659D01*
X189729333Y-176160007D01*
X189800125Y-176220206D01*
X189893669Y-176233333D01*
X190055751Y-176272211D01*
X190110333Y-176318000D01*
X190231320Y-176392662D01*
X190305830Y-176403188D01*
X190481540Y-176441472D01*
X190685409Y-176527022D01*
X190943723Y-176632041D01*
X191214576Y-176705257D01*
X191408522Y-176760641D01*
X191504964Y-176825419D01*
X191507333Y-176835422D01*
X191579726Y-176892380D01*
X191715148Y-176910666D01*
X191896917Y-176940267D01*
X192175547Y-177017959D01*
X192491438Y-177127073D01*
X192498315Y-177129685D01*
X192818947Y-177238488D01*
X193108641Y-177314008D01*
X193305179Y-177340052D01*
X193306500Y-177340006D01*
X193475246Y-177359772D01*
X193539333Y-177414664D01*
X193602096Y-177460458D01*
X193676814Y-177445262D01*
X193830900Y-177463140D01*
X193892687Y-177532586D01*
X194032518Y-177643787D01*
X194168200Y-177672666D01*
X194382484Y-177704979D01*
X194634794Y-177783408D01*
X194650826Y-177789867D01*
X194858166Y-177855255D01*
X195179903Y-177934359D01*
X195563128Y-178014768D01*
X195783000Y-178055415D01*
X196168943Y-178130390D01*
X196514319Y-178210671D01*
X196770046Y-178284215D01*
X196858295Y-178319214D01*
X197103902Y-178398905D01*
X197387284Y-178434535D01*
X197402617Y-178434666D01*
X197697283Y-178457381D01*
X197971847Y-178512224D01*
X197978322Y-178514175D01*
X198265401Y-178588302D01*
X198625625Y-178662017D01*
X199015350Y-178728776D01*
X199390931Y-178782037D01*
X199708724Y-178815260D01*
X199925083Y-178821900D01*
X199979020Y-178814073D01*
X200163730Y-178803632D01*
X200253229Y-178839716D01*
X200432475Y-178912644D01*
X200760929Y-178976449D01*
X201218698Y-179030876D01*
X201785890Y-179075669D01*
X202442610Y-179110572D01*
X203168967Y-179135329D01*
X203945068Y-179149685D01*
X204751019Y-179153385D01*
X205566927Y-179146172D01*
X206372900Y-179127792D01*
X207149045Y-179097987D01*
X207875469Y-179056504D01*
X208532278Y-179003086D01*
X208991000Y-178952003D01*
X209507511Y-178881836D01*
X210003302Y-178807804D01*
X210437716Y-178736458D01*
X210770097Y-178674350D01*
X210908221Y-178643066D01*
X211211404Y-178574105D01*
X211479569Y-178529188D01*
X211601724Y-178519333D01*
X211786448Y-178486624D01*
X211874225Y-178427290D01*
X211992359Y-178369446D01*
X212090888Y-178377030D01*
X212221002Y-178384617D01*
X212250666Y-178356069D01*
X212326953Y-178310184D01*
X212526095Y-178252207D01*
X212779833Y-178199468D01*
X213091392Y-178137326D01*
X213467918Y-178051924D01*
X213874237Y-177952539D01*
X214275175Y-177848449D01*
X214635557Y-177748930D01*
X214920210Y-177663262D01*
X215093959Y-177600720D01*
X215129333Y-177579770D01*
X215233760Y-177525749D01*
X215431003Y-177468450D01*
X215451095Y-177463973D01*
X215743311Y-177378995D01*
X216183007Y-177218722D01*
X216771668Y-176982599D01*
X217034333Y-176873035D01*
X217257054Y-176780112D01*
X217555755Y-176656443D01*
X217754000Y-176574769D01*
X218032933Y-176457725D01*
X218264319Y-176356442D01*
X218366684Y-176308349D01*
X218552094Y-176243734D01*
X218632792Y-176233333D01*
X218766942Y-176168938D01*
X218792611Y-176127197D01*
X218892475Y-176033748D01*
X219091393Y-175931102D01*
X219161502Y-175904037D01*
X219438148Y-175785437D01*
X219686678Y-175647908D01*
X219714403Y-175629173D01*
X219910350Y-175517871D01*
X220066756Y-175471334D01*
X220067181Y-175471333D01*
X220198121Y-175435608D01*
X220223444Y-175407833D01*
X220310039Y-175341560D01*
X220506129Y-175234061D01*
X220717333Y-175132688D01*
X221011486Y-174982960D01*
X221272383Y-174823132D01*
X221393801Y-174730521D01*
X221563810Y-174599637D01*
X221690620Y-174540311D01*
X221696219Y-174540000D01*
X221812738Y-174492316D01*
X222006003Y-174371056D01*
X222120417Y-174288355D01*
X222326423Y-174141569D01*
X222478418Y-174049693D01*
X222520073Y-174034355D01*
X222639092Y-173984562D01*
X222689406Y-173948609D01*
X223035077Y-173677591D01*
X223452868Y-173366068D01*
X223887655Y-173053846D01*
X224284314Y-172780737D01*
X224508408Y-172635000D01*
X224655387Y-172514596D01*
X224831583Y-172335052D01*
X224847079Y-172317500D01*
X225004096Y-172163491D01*
X225126615Y-172086636D01*
X225139973Y-172084666D01*
X225250155Y-172033406D01*
X225443857Y-171901449D01*
X225678870Y-171721529D01*
X225912989Y-171526380D01*
X226104004Y-171348736D01*
X226145931Y-171304484D01*
X226270032Y-171187643D01*
X226332542Y-171153333D01*
X226411631Y-171098535D01*
X226581599Y-170951824D01*
X226812302Y-170739720D01*
X226933993Y-170624166D01*
X227214021Y-170356735D01*
X227476616Y-170107892D01*
X227676839Y-169920165D01*
X227721048Y-169879348D01*
X228014231Y-169597001D01*
X228370666Y-169232604D01*
X228765939Y-168813305D01*
X229175636Y-168366256D01*
X229575344Y-167918606D01*
X229940648Y-167497505D01*
X230247135Y-167130101D01*
X230470391Y-166843546D01*
X230538666Y-166745977D01*
X230659402Y-166582158D01*
X230849152Y-166345271D01*
X231046666Y-166110275D01*
X231357118Y-165748284D01*
X231572203Y-165493290D01*
X231708172Y-165324950D01*
X231781278Y-165222922D01*
X231807770Y-165166863D01*
X231809058Y-165155974D01*
X231862245Y-165065151D01*
X231995598Y-164903084D01*
X232063058Y-164829091D01*
X232218441Y-164645750D01*
X232308016Y-164506049D01*
X232316666Y-164475306D01*
X232369622Y-164348678D01*
X232424320Y-164280214D01*
X232531767Y-164150671D01*
X232691505Y-163938043D01*
X232876454Y-163680995D01*
X233059534Y-163418188D01*
X233213664Y-163188285D01*
X233311765Y-163029949D01*
X233332666Y-162983345D01*
X233378967Y-162887217D01*
X233494155Y-162714821D01*
X233534506Y-162659850D01*
X233682771Y-162433304D01*
X233785170Y-162226367D01*
X233794211Y-162199833D01*
X233868386Y-162052040D01*
X233931038Y-162009333D01*
X233996114Y-161938684D01*
X234010000Y-161847055D01*
X234038691Y-161698759D01*
X234073500Y-161656555D01*
X234174083Y-161559969D01*
X234323235Y-161358949D01*
X234490068Y-161098595D01*
X234643692Y-160824007D01*
X234643696Y-160824000D01*
X234753840Y-160623844D01*
X234836981Y-160498086D01*
X234849385Y-160485333D01*
X234914006Y-160391341D01*
X235023632Y-160193983D01*
X235112738Y-160019666D01*
X235238658Y-159781965D01*
X235341985Y-159616118D01*
X235385833Y-159568111D01*
X235441109Y-159470901D01*
X235449333Y-159397265D01*
X235494186Y-159239284D01*
X235605811Y-159022276D01*
X235645390Y-158959820D01*
X235807477Y-158684549D01*
X235945245Y-158400238D01*
X235958083Y-158368666D01*
X236047019Y-158164689D01*
X236117492Y-158039877D01*
X236126757Y-158030000D01*
X236200393Y-157921731D01*
X236313732Y-157705158D01*
X236444441Y-157429537D01*
X236570188Y-157144126D01*
X236668641Y-156898181D01*
X236717468Y-156740959D01*
X236719333Y-156723001D01*
X236784773Y-156607362D01*
X236846333Y-156590666D01*
X236952550Y-156521085D01*
X236973333Y-156437236D01*
X237009105Y-156272789D01*
X237099760Y-156031401D01*
X237156102Y-155908069D01*
X237290418Y-155619124D01*
X237446910Y-155262745D01*
X237611473Y-154873616D01*
X237770005Y-154486421D01*
X237908400Y-154135844D01*
X238012555Y-153856569D01*
X238068366Y-153683279D01*
X238074000Y-153650815D01*
X238128778Y-153511046D01*
X238222166Y-153391292D01*
X238338516Y-153214730D01*
X238465875Y-152938170D01*
X238579269Y-152627080D01*
X238653726Y-152346927D01*
X238669359Y-152218969D01*
X238721308Y-152026896D01*
X238796359Y-151896651D01*
X238895072Y-151710922D01*
X238920666Y-151592159D01*
X238957127Y-151421968D01*
X239045392Y-151202108D01*
X239050586Y-151191584D01*
X239144607Y-150961728D01*
X239247068Y-150650001D01*
X239306138Y-150437743D01*
X239396504Y-150119575D01*
X239494521Y-149829048D01*
X239551263Y-149690333D01*
X239767624Y-149163738D01*
X239985842Y-148508636D01*
X240193224Y-147765225D01*
X240304725Y-147304235D01*
X240372294Y-147045455D01*
X240436683Y-146858328D01*
X240467153Y-146803290D01*
X240515787Y-146677548D01*
X240529333Y-146537507D01*
X240580540Y-146323201D01*
X240656333Y-146206904D01*
X240758649Y-146022459D01*
X240783333Y-145879282D01*
X240815453Y-145702408D01*
X240868000Y-145626333D01*
X240933538Y-145509626D01*
X240952666Y-145367336D01*
X240990606Y-145207762D01*
X241133357Y-145160898D01*
X241151563Y-145160666D01*
X241243344Y-145169299D01*
X241243344Y-145169299D01*
G37*
X241243344Y-145169299D02*
X241304416Y-145215969D01*
X241344352Y-145331837D01*
X241372721Y-145548062D01*
X241399096Y-145895803D01*
X241405125Y-145986166D01*
X241443333Y-146813110D01*
X241457751Y-147740389D01*
X241449854Y-148729733D01*
X241421116Y-149742868D01*
X241373011Y-150741523D01*
X241307012Y-151687425D01*
X241224595Y-152542303D01*
X241127232Y-153267885D01*
X241123866Y-153288666D01*
X241011291Y-153947521D01*
X240884630Y-154634670D01*
X240748711Y-155328566D01*
X240608362Y-156007662D01*
X240468412Y-156650408D01*
X240333688Y-157235258D01*
X240209020Y-157740663D01*
X240099235Y-158145076D01*
X240009160Y-158426948D01*
X239943626Y-158564732D01*
X239941055Y-158567477D01*
X239872738Y-158715382D01*
X239853250Y-158872433D01*
X239829024Y-159029585D01*
X239763456Y-159305281D01*
X239668669Y-159657391D01*
X239556786Y-160043786D01*
X239439929Y-160422339D01*
X239330221Y-160750920D01*
X239255132Y-160951000D01*
X239196486Y-161108177D01*
X239102229Y-161375607D01*
X238990068Y-161702818D01*
X238958072Y-161797666D01*
X238830482Y-162163648D01*
X238700808Y-162513389D01*
X238593884Y-162780283D01*
X238579291Y-162813666D01*
X238448450Y-163110647D01*
X238321338Y-163404809D01*
X238302696Y-163448666D01*
X238144001Y-163813302D01*
X237935305Y-164278048D01*
X237700297Y-164790557D01*
X237536437Y-165142000D01*
X237359058Y-165499956D01*
X237119361Y-165956697D01*
X236842812Y-166466207D01*
X236554876Y-166982467D01*
X236281021Y-167459462D01*
X236046713Y-167851174D01*
X235966775Y-167978333D01*
X235753052Y-168313477D01*
X235611751Y-168542457D01*
X235521712Y-168700234D01*
X235479934Y-168782666D01*
X235396100Y-168922115D01*
X235232588Y-169166537D01*
X235011271Y-169485401D01*
X234754022Y-169848176D01*
X234482713Y-170224331D01*
X234219217Y-170583335D01*
X233985406Y-170894657D01*
X233803154Y-171127766D01*
X233777166Y-171159480D01*
X233648801Y-171339033D01*
X233587528Y-171473105D01*
X233586666Y-171483055D01*
X233539255Y-171572478D01*
X233519397Y-171576666D01*
X233437628Y-171639234D01*
X233289494Y-171802825D01*
X233117231Y-172018898D01*
X232922382Y-172271384D01*
X232751580Y-172484410D01*
X232655333Y-172596734D01*
X232549010Y-172713320D01*
X232359025Y-172924464D01*
X232114152Y-173198104D01*
X231893441Y-173445669D01*
X231348750Y-174037596D01*
X230733792Y-174672080D01*
X230085774Y-175312908D01*
X229441902Y-175923868D01*
X228839382Y-176468747D01*
X228420339Y-176826000D01*
X228200383Y-177009388D01*
X228025988Y-177159047D01*
X227962610Y-177216369D01*
X227858324Y-177303614D01*
X227650659Y-177467825D01*
X227371475Y-177684063D01*
X227106344Y-177886642D01*
X226798986Y-178121540D01*
X226543462Y-178319553D01*
X226368828Y-178457989D01*
X226305333Y-178512272D01*
X226255097Y-178557858D01*
X226146412Y-178640190D01*
X225961813Y-178771552D01*
X225683837Y-178964225D01*
X225295019Y-179230493D01*
X224947581Y-179467222D01*
X224562801Y-179727170D01*
X224249339Y-179932506D01*
X223959452Y-180112258D01*
X223645392Y-180295453D01*
X223259415Y-180511118D01*
X222961000Y-180674992D01*
X222589862Y-180880238D01*
X222195665Y-181101523D01*
X221876963Y-181283353D01*
X221625217Y-181426645D01*
X221438631Y-181528711D01*
X221357907Y-181567333D01*
X221275503Y-181601370D01*
X221068730Y-181694716D01*
X220766265Y-181834219D01*
X220396789Y-182006731D01*
X220282943Y-182060236D01*
X219394350Y-182466858D01*
X218576712Y-182814650D01*
X217757348Y-183134460D01*
X217711666Y-183151524D01*
X217416633Y-183265247D01*
X217132314Y-183380440D01*
X217094960Y-183396213D01*
X216862907Y-183477350D01*
X216674750Y-183514431D01*
X216664571Y-183514666D01*
X216505727Y-183541924D01*
X216457441Y-183569447D01*
X216332268Y-183638258D01*
X216086035Y-183734506D01*
X215761770Y-183843815D01*
X215402504Y-183951807D01*
X215051266Y-184044107D01*
X215002333Y-184055618D01*
X214647831Y-184144924D01*
X214291449Y-184246252D01*
X214113333Y-184303018D01*
X213839790Y-184384633D01*
X213474359Y-184478389D01*
X213091596Y-184565271D01*
X213055000Y-184572899D01*
X212691729Y-184649268D01*
X212354051Y-184722617D01*
X212107136Y-184778750D01*
X212081333Y-184784960D01*
X211852601Y-184832403D01*
X211522323Y-184890969D01*
X211156747Y-184949002D01*
X211107666Y-184956253D01*
X210780304Y-185010535D01*
X210516202Y-185066159D01*
X210361824Y-185113001D01*
X210345666Y-185122273D01*
X210226918Y-185159253D01*
X209984237Y-185199507D01*
X209662716Y-185236066D01*
X209541333Y-185246585D01*
X209183682Y-185276587D01*
X208713664Y-185318151D01*
X208187426Y-185366210D01*
X207661117Y-185415696D01*
X207560971Y-185425301D01*
X206897333Y-185474356D01*
X206109962Y-185508376D01*
X205243812Y-185527109D01*
X204343839Y-185530307D01*
X203454996Y-185517718D01*
X202622237Y-185489091D01*
X202048333Y-185456020D01*
X201016958Y-185362577D01*
X199936008Y-185227925D01*
X198889839Y-185063368D01*
X198323000Y-184956814D01*
X197863551Y-184864270D01*
X197371451Y-184765400D01*
X196930676Y-184677068D01*
X196799000Y-184650749D01*
X196392426Y-184563458D01*
X195910151Y-184450914D01*
X195439489Y-184333688D01*
X195317333Y-184301674D01*
X194939865Y-184201561D01*
X194597194Y-184111102D01*
X194340583Y-184043812D01*
X194259000Y-184022675D01*
X193719446Y-183854929D01*
X193497000Y-183765103D01*
X193350977Y-183710086D01*
X193083799Y-183616333D01*
X192735298Y-183497615D01*
X192396333Y-183384539D01*
X191992210Y-183248214D01*
X191618145Y-183117017D01*
X191320841Y-183007610D01*
X191168666Y-182946538D01*
X190622638Y-182700656D01*
X190221540Y-182506007D01*
X189951500Y-182355040D01*
X189798646Y-182240206D01*
X189753638Y-182176436D01*
X189653402Y-182005501D01*
X189546444Y-181881535D01*
X189432285Y-181786153D01*
X189393172Y-181814570D01*
X189390666Y-181860368D01*
X189347272Y-181962990D01*
X189211794Y-181990657D01*
X188976288Y-181940265D01*
X188632810Y-181808710D01*
X188173417Y-181592886D01*
X187590163Y-181289689D01*
X186875105Y-180896014D01*
X186766000Y-180834615D01*
X186172469Y-180487878D01*
X185523811Y-180088134D01*
X184844870Y-179652464D01*
X184160492Y-179197943D01*
X183495522Y-178741651D01*
X182874807Y-178300665D01*
X182323192Y-177892064D01*
X181865522Y-177532926D01*
X181526644Y-177240329D01*
X181499195Y-177214382D01*
X181336014Y-177071696D01*
X181224603Y-176998066D01*
X181212712Y-176995333D01*
X181120965Y-176939192D01*
X180979384Y-176803799D01*
X180976184Y-176800326D01*
X180825409Y-176651866D01*
X180590632Y-176437672D01*
X180318316Y-176199957D01*
X180271808Y-176160392D01*
X179912262Y-175839390D01*
X179471681Y-175420515D01*
X178979581Y-174934162D01*
X178465481Y-174410722D01*
X177958897Y-173880588D01*
X177489346Y-173374154D01*
X177086347Y-172921811D01*
X176826629Y-172613038D01*
X176568039Y-172294779D01*
X176340228Y-172017652D01*
X176168808Y-171812605D01*
X176082085Y-171713352D01*
X175904625Y-171504757D01*
X175654735Y-171178214D01*
X175349832Y-170759309D01*
X175007333Y-170273625D01*
X174644656Y-169746746D01*
X174279218Y-169204258D01*
X173928436Y-168671743D01*
X173609728Y-168174788D01*
X173340510Y-167738974D01*
X173138200Y-167389888D01*
X173135886Y-167385666D01*
X172947227Y-167053656D01*
X172746386Y-166719323D01*
X172615202Y-166513588D01*
X172477616Y-166299187D01*
X172389727Y-166147114D01*
X172372666Y-166105231D01*
X172338197Y-166016257D01*
X172245000Y-165807396D01*
X172108388Y-165511047D01*
X171943675Y-165159609D01*
X171766175Y-164785483D01*
X171591203Y-164421068D01*
X171434071Y-164098763D01*
X171310094Y-163850970D01*
X171277101Y-163787333D01*
X171155122Y-163511329D01*
X171067565Y-163237076D01*
X171062810Y-163215833D01*
X171035239Y-163028781D01*
X171085358Y-162954119D01*
X171245035Y-162940666D01*
X171492392Y-163011650D01*
X171696262Y-163200771D01*
X171884694Y-163429651D01*
X172062100Y-163639610D01*
X172076333Y-163656072D01*
X172246559Y-163857972D01*
X172436922Y-164091263D01*
X172456403Y-164115634D01*
X172615626Y-164284353D01*
X172749359Y-164375034D01*
X172773903Y-164380000D01*
X172871029Y-164447176D01*
X172880666Y-164494636D01*
X172933319Y-164628427D01*
X173063446Y-164813508D01*
X173098511Y-164854470D01*
X173285048Y-165056923D01*
X173544696Y-165328464D01*
X173856699Y-165648442D01*
X174200303Y-165996206D01*
X174554753Y-166351105D01*
X174899293Y-166692488D01*
X175213169Y-166999704D01*
X175475626Y-167252101D01*
X175665908Y-167429030D01*
X175763261Y-167509838D01*
X175770097Y-167512666D01*
X175863148Y-167568448D01*
X176053313Y-167721817D01*
X176316793Y-167951806D01*
X176629792Y-168237449D01*
X176968515Y-168557781D01*
X177091429Y-168676833D01*
X177275850Y-168840937D01*
X177417578Y-168939374D01*
X177454771Y-168952000D01*
X177558145Y-169016000D01*
X177641648Y-169121333D01*
X177783088Y-169255263D01*
X177895648Y-169290666D01*
X178053252Y-169356826D01*
X178150449Y-169462729D01*
X178275204Y-169595913D01*
X178496223Y-169774539D01*
X178743833Y-169945510D01*
X178988070Y-170110570D01*
X179162793Y-170246163D01*
X179230653Y-170323267D01*
X179230666Y-170323781D01*
X179295668Y-170389373D01*
X179316066Y-170391333D01*
X179439950Y-170441496D01*
X179639228Y-170567022D01*
X179863005Y-170730465D01*
X180060389Y-170894378D01*
X180180489Y-171021315D01*
X180187373Y-171032433D01*
X180291899Y-171139204D01*
X180339113Y-171153333D01*
X180474192Y-171202331D01*
X180525406Y-171238274D01*
X180682544Y-171352840D01*
X180952043Y-171533241D01*
X181300811Y-171758617D01*
X181695752Y-172008110D01*
X182103772Y-172260859D01*
X182491776Y-172496005D01*
X182826669Y-172692689D01*
X182891304Y-172729502D01*
X183198694Y-172905972D01*
X183447007Y-173053609D01*
X183601370Y-173151419D01*
X183633570Y-173176347D01*
X183756484Y-173267675D01*
X183971879Y-173387247D01*
X184216162Y-173504067D01*
X184425737Y-173587141D01*
X184520597Y-173608666D01*
X184665830Y-173677233D01*
X184703382Y-173735666D01*
X184809985Y-173848190D01*
X184870058Y-173862666D01*
X184976789Y-173911411D01*
X184988000Y-173947333D01*
X185053287Y-174028481D01*
X185079281Y-174032000D01*
X185210525Y-174067701D01*
X185433147Y-174160387D01*
X185704474Y-174288430D01*
X185981832Y-174430200D01*
X186222549Y-174564069D01*
X186383950Y-174668410D01*
X186427333Y-174715240D01*
X186494853Y-174787485D01*
X186539329Y-174794000D01*
X186668280Y-174829050D01*
X186898130Y-174920885D01*
X187175678Y-175048000D01*
X187450857Y-175175782D01*
X187669038Y-175267006D01*
X187783154Y-175301999D01*
X187783348Y-175302000D01*
X187864255Y-175366470D01*
X187866666Y-175386666D01*
X187938570Y-175452242D01*
X188061400Y-175471333D01*
X188249844Y-175500662D01*
X188336566Y-175544057D01*
X188449814Y-175605042D01*
X188679413Y-175702625D01*
X188981529Y-175818496D01*
X189073166Y-175851731D01*
X189375068Y-175968107D01*
X189603645Y-176071975D01*
X189721271Y-176145659D01*
X189729333Y-176160007D01*
X189800125Y-176220206D01*
X189893669Y-176233333D01*
X190055751Y-176272211D01*
X190110333Y-176318000D01*
X190231320Y-176392662D01*
X190305830Y-176403188D01*
X190481540Y-176441472D01*
X190685409Y-176527022D01*
X190943723Y-176632041D01*
X191214576Y-176705257D01*
X191408522Y-176760641D01*
X191504964Y-176825419D01*
X191507333Y-176835422D01*
X191579726Y-176892380D01*
X191715148Y-176910666D01*
X191896917Y-176940267D01*
X192175547Y-177017959D01*
X192491438Y-177127073D01*
X192498315Y-177129685D01*
X192818947Y-177238488D01*
X193108641Y-177314008D01*
X193305179Y-177340052D01*
X193306500Y-177340006D01*
X193475246Y-177359772D01*
X193539333Y-177414664D01*
X193602096Y-177460458D01*
X193676814Y-177445262D01*
X193830900Y-177463140D01*
X193892687Y-177532586D01*
X194032518Y-177643787D01*
X194168200Y-177672666D01*
X194382484Y-177704979D01*
X194634794Y-177783408D01*
X194650826Y-177789867D01*
X194858166Y-177855255D01*
X195179903Y-177934359D01*
X195563128Y-178014768D01*
X195783000Y-178055415D01*
X196168943Y-178130390D01*
X196514319Y-178210671D01*
X196770046Y-178284215D01*
X196858295Y-178319214D01*
X197103902Y-178398905D01*
X197387284Y-178434535D01*
X197402617Y-178434666D01*
X197697283Y-178457381D01*
X197971847Y-178512224D01*
X197978322Y-178514175D01*
X198265401Y-178588302D01*
X198625625Y-178662017D01*
X199015350Y-178728776D01*
X199390931Y-178782037D01*
X199708724Y-178815260D01*
X199925083Y-178821900D01*
X199979020Y-178814073D01*
X200163730Y-178803632D01*
X200253229Y-178839716D01*
X200432475Y-178912644D01*
X200760929Y-178976449D01*
X201218698Y-179030876D01*
X201785890Y-179075669D01*
X202442610Y-179110572D01*
X203168967Y-179135329D01*
X203945068Y-179149685D01*
X204751019Y-179153385D01*
X205566927Y-179146172D01*
X206372900Y-179127792D01*
X207149045Y-179097987D01*
X207875469Y-179056504D01*
X208532278Y-179003086D01*
X208991000Y-178952003D01*
X209507511Y-178881836D01*
X210003302Y-178807804D01*
X210437716Y-178736458D01*
X210770097Y-178674350D01*
X210908221Y-178643066D01*
X211211404Y-178574105D01*
X211479569Y-178529188D01*
X211601724Y-178519333D01*
X211786448Y-178486624D01*
X211874225Y-178427290D01*
X211992359Y-178369446D01*
X212090888Y-178377030D01*
X212221002Y-178384617D01*
X212250666Y-178356069D01*
X212326953Y-178310184D01*
X212526095Y-178252207D01*
X212779833Y-178199468D01*
X213091392Y-178137326D01*
X213467918Y-178051924D01*
X213874237Y-177952539D01*
X214275175Y-177848449D01*
X214635557Y-177748930D01*
X214920210Y-177663262D01*
X215093959Y-177600720D01*
X215129333Y-177579770D01*
X215233760Y-177525749D01*
X215431003Y-177468450D01*
X215451095Y-177463973D01*
X215743311Y-177378995D01*
X216183007Y-177218722D01*
X216771668Y-176982599D01*
X217034333Y-176873035D01*
X217257054Y-176780112D01*
X217555755Y-176656443D01*
X217754000Y-176574769D01*
X218032933Y-176457725D01*
X218264319Y-176356442D01*
X218366684Y-176308349D01*
X218552094Y-176243734D01*
X218632792Y-176233333D01*
X218766942Y-176168938D01*
X218792611Y-176127197D01*
X218892475Y-176033748D01*
X219091393Y-175931102D01*
X219161502Y-175904037D01*
X219438148Y-175785437D01*
X219686678Y-175647908D01*
X219714403Y-175629173D01*
X219910350Y-175517871D01*
X220066756Y-175471334D01*
X220067181Y-175471333D01*
X220198121Y-175435608D01*
X220223444Y-175407833D01*
X220310039Y-175341560D01*
X220506129Y-175234061D01*
X220717333Y-175132688D01*
X221011486Y-174982960D01*
X221272383Y-174823132D01*
X221393801Y-174730521D01*
X221563810Y-174599637D01*
X221690620Y-174540311D01*
X221696219Y-174540000D01*
X221812738Y-174492316D01*
X222006003Y-174371056D01*
X222120417Y-174288355D01*
X222326423Y-174141569D01*
X222478418Y-174049693D01*
X222520073Y-174034355D01*
X222639092Y-173984562D01*
X222689406Y-173948609D01*
X223035077Y-173677591D01*
X223452868Y-173366068D01*
X223887655Y-173053846D01*
X224284314Y-172780737D01*
X224508408Y-172635000D01*
X224655387Y-172514596D01*
X224831583Y-172335052D01*
X224847079Y-172317500D01*
X225004096Y-172163491D01*
X225126615Y-172086636D01*
X225139973Y-172084666D01*
X225250155Y-172033406D01*
X225443857Y-171901449D01*
X225678870Y-171721529D01*
X225912989Y-171526380D01*
X226104004Y-171348736D01*
X226145931Y-171304484D01*
X226270032Y-171187643D01*
X226332542Y-171153333D01*
X226411631Y-171098535D01*
X226581599Y-170951824D01*
X226812302Y-170739720D01*
X226933993Y-170624166D01*
X227214021Y-170356735D01*
X227476616Y-170107892D01*
X227676839Y-169920165D01*
X227721048Y-169879348D01*
X228014231Y-169597001D01*
X228370666Y-169232604D01*
X228765939Y-168813305D01*
X229175636Y-168366256D01*
X229575344Y-167918606D01*
X229940648Y-167497505D01*
X230247135Y-167130101D01*
X230470391Y-166843546D01*
X230538666Y-166745977D01*
X230659402Y-166582158D01*
X230849152Y-166345271D01*
X231046666Y-166110275D01*
X231357118Y-165748284D01*
X231572203Y-165493290D01*
X231708172Y-165324950D01*
X231781278Y-165222922D01*
X231807770Y-165166863D01*
X231809058Y-165155974D01*
X231862245Y-165065151D01*
X231995598Y-164903084D01*
X232063058Y-164829091D01*
X232218441Y-164645750D01*
X232308016Y-164506049D01*
X232316666Y-164475306D01*
X232369622Y-164348678D01*
X232424320Y-164280214D01*
X232531767Y-164150671D01*
X232691505Y-163938043D01*
X232876454Y-163680995D01*
X233059534Y-163418188D01*
X233213664Y-163188285D01*
X233311765Y-163029949D01*
X233332666Y-162983345D01*
X233378967Y-162887217D01*
X233494155Y-162714821D01*
X233534506Y-162659850D01*
X233682771Y-162433304D01*
X233785170Y-162226367D01*
X233794211Y-162199833D01*
X233868386Y-162052040D01*
X233931038Y-162009333D01*
X233996114Y-161938684D01*
X234010000Y-161847055D01*
X234038691Y-161698759D01*
X234073500Y-161656555D01*
X234174083Y-161559969D01*
X234323235Y-161358949D01*
X234490068Y-161098595D01*
X234643692Y-160824007D01*
X234643696Y-160824000D01*
X234753840Y-160623844D01*
X234836981Y-160498086D01*
X234849385Y-160485333D01*
X234914006Y-160391341D01*
X235023632Y-160193983D01*
X235112738Y-160019666D01*
X235238658Y-159781965D01*
X235341985Y-159616118D01*
X235385833Y-159568111D01*
X235441109Y-159470901D01*
X235449333Y-159397265D01*
X235494186Y-159239284D01*
X235605811Y-159022276D01*
X235645390Y-158959820D01*
X235807477Y-158684549D01*
X235945245Y-158400238D01*
X235958083Y-158368666D01*
X236047019Y-158164689D01*
X236117492Y-158039877D01*
X236126757Y-158030000D01*
X236200393Y-157921731D01*
X236313732Y-157705158D01*
X236444441Y-157429537D01*
X236570188Y-157144126D01*
X236668641Y-156898181D01*
X236717468Y-156740959D01*
X236719333Y-156723001D01*
X236784773Y-156607362D01*
X236846333Y-156590666D01*
X236952550Y-156521085D01*
X236973333Y-156437236D01*
X237009105Y-156272789D01*
X237099760Y-156031401D01*
X237156102Y-155908069D01*
X237290418Y-155619124D01*
X237446910Y-155262745D01*
X237611473Y-154873616D01*
X237770005Y-154486421D01*
X237908400Y-154135844D01*
X238012555Y-153856569D01*
X238068366Y-153683279D01*
X238074000Y-153650815D01*
X238128778Y-153511046D01*
X238222166Y-153391292D01*
X238338516Y-153214730D01*
X238465875Y-152938170D01*
X238579269Y-152627080D01*
X238653726Y-152346927D01*
X238669359Y-152218969D01*
X238721308Y-152026896D01*
X238796359Y-151896651D01*
X238895072Y-151710922D01*
X238920666Y-151592159D01*
X238957127Y-151421968D01*
X239045392Y-151202108D01*
X239050586Y-151191584D01*
X239144607Y-150961728D01*
X239247068Y-150650001D01*
X239306138Y-150437743D01*
X239396504Y-150119575D01*
X239494521Y-149829048D01*
X239551263Y-149690333D01*
X239767624Y-149163738D01*
X239985842Y-148508636D01*
X240193224Y-147765225D01*
X240304725Y-147304235D01*
X240372294Y-147045455D01*
X240436683Y-146858328D01*
X240467153Y-146803290D01*
X240515787Y-146677548D01*
X240529333Y-146537507D01*
X240580540Y-146323201D01*
X240656333Y-146206904D01*
X240758649Y-146022459D01*
X240783333Y-145879282D01*
X240815453Y-145702408D01*
X240868000Y-145626333D01*
X240933538Y-145509626D01*
X240952666Y-145367336D01*
X240990606Y-145207762D01*
X241133357Y-145160898D01*
X241151563Y-145160666D01*
X241243344Y-145169299D01*
D12*
X239450000Y-148975000D03*
X239450000Y-145675000D03*
X234650000Y-145675000D03*
X234650000Y-148975000D03*
X226450000Y-148975000D03*
X226450000Y-145675000D03*
X221650000Y-145675000D03*
X221650000Y-148975000D03*
X213450000Y-148975000D03*
X213450000Y-145675000D03*
X208650000Y-145675000D03*
X208650000Y-148975000D03*
X200450000Y-148975000D03*
X200450000Y-145675000D03*
X195650000Y-145675000D03*
X195650000Y-148975000D03*
X187450000Y-148975000D03*
X187450000Y-145675000D03*
X182650000Y-145675000D03*
X182650000Y-148975000D03*
D13*
X226099840Y-133175000D03*
X218500160Y-133175000D03*
D12*
X174450000Y-148975000D03*
X174450000Y-145675000D03*
X169650000Y-145675000D03*
X169650000Y-148975000D03*
D14*
X210152430Y-171577320D03*
X200947570Y-171572680D03*
D15*
X204400000Y-109500000D03*
D16*
X204400000Y-154200000D03*
M02*
