G04 #@! TF.FileFunction,Copper,L1,Top,Signal*
%FSLAX46Y46*%
G04 Gerber Fmt 4.6, Leading zero omitted, Abs format (unit mm)*
G04 Created by KiCad (PCBNEW 4.0.4-stable) date 12/07/16 00:40:48*
%MOMM*%
%LPD*%
G01*
G04 APERTURE LIST*
%ADD10C,0.100000*%
%ADD11R,1.800000X1.400000*%
%ADD12C,2.000000*%
%ADD13R,2.180000X1.600000*%
%ADD14C,1.700000*%
%ADD15C,1.524000*%
%ADD16C,2.500000*%
%ADD17C,0.600000*%
%ADD18C,0.400000*%
%ADD19C,0.200000*%
%ADD20C,0.254000*%
G04 APERTURE END LIST*
D10*
D11*
X239450000Y-148975000D03*
X239450000Y-145675000D03*
X234650000Y-145675000D03*
X234650000Y-148975000D03*
X226450000Y-148975000D03*
X226450000Y-145675000D03*
X221650000Y-145675000D03*
X221650000Y-148975000D03*
X213450000Y-148975000D03*
X213450000Y-145675000D03*
X208650000Y-145675000D03*
X208650000Y-148975000D03*
X200450000Y-148975000D03*
X200450000Y-145675000D03*
X195650000Y-145675000D03*
X195650000Y-148975000D03*
X187450000Y-148975000D03*
X187450000Y-145675000D03*
X182650000Y-145675000D03*
X182650000Y-148975000D03*
D12*
X226099840Y-133175000D03*
X218500160Y-133175000D03*
D11*
X174450000Y-148975000D03*
X174450000Y-145675000D03*
X169650000Y-145675000D03*
X169650000Y-148975000D03*
D13*
X210152430Y-171577320D03*
X200947570Y-171572680D03*
D14*
X204400000Y-109500000D03*
D15*
X204400000Y-154200000D03*
D16*
X204450000Y-95925000D03*
D17*
X235125000Y-156950000D03*
X221675000Y-143850000D03*
X208600000Y-143750000D03*
X195725000Y-143725000D03*
X180600000Y-141850000D03*
X180575000Y-147375000D03*
X182575000Y-144000000D03*
X169625000Y-143875000D03*
X222425000Y-162350000D03*
X211075000Y-162325000D03*
X216250000Y-161625000D03*
X191725000Y-150625000D03*
X189900000Y-153500000D03*
X181425000Y-158425000D03*
X187250000Y-128450000D03*
X187225000Y-131750000D03*
X191575000Y-129025000D03*
X187000000Y-130000000D03*
X229550000Y-157175000D03*
X231200000Y-154475000D03*
X178250000Y-151350000D03*
X189150000Y-165150000D03*
X186575000Y-172175000D03*
X192800000Y-174650000D03*
X217950000Y-174025000D03*
X194925000Y-167700000D03*
X232050000Y-160025000D03*
X216150000Y-173025000D03*
X231725000Y-161075000D03*
X215550000Y-175850000D03*
X194250000Y-171325000D03*
X193375000Y-168475000D03*
X200950000Y-166000000D03*
D18*
X214125000Y-100975000D02*
X213925000Y-100975000D01*
D19*
X221650000Y-145675000D02*
X221650000Y-143875000D01*
X221650000Y-143875000D02*
X221675000Y-143850000D01*
X208650000Y-145675000D02*
X208650000Y-143800000D01*
X208650000Y-143800000D02*
X208600000Y-143750000D01*
X195650000Y-145675000D02*
X195650000Y-143800000D01*
X195650000Y-143800000D02*
X195725000Y-143725000D01*
X182650000Y-145675000D02*
X182650000Y-144075000D01*
X182650000Y-144075000D02*
X182575000Y-144000000D01*
X169650000Y-145675000D02*
X169650000Y-143900000D01*
X169650000Y-143900000D02*
X169625000Y-143875000D01*
D18*
X230725000Y-151950000D02*
X230725000Y-154000000D01*
X230725000Y-154000000D02*
X231200000Y-154475000D01*
X230725000Y-151950000D02*
X235175000Y-151950000D01*
X235175000Y-151950000D02*
X238150000Y-148975000D01*
X238150000Y-148975000D02*
X239450000Y-148975000D01*
X226450000Y-148975000D02*
X227750000Y-148975000D01*
X227750000Y-148975000D02*
X230725000Y-151950000D01*
X218025000Y-152250000D02*
X221875000Y-152250000D01*
X221875000Y-152250000D02*
X225150000Y-148975000D01*
X225150000Y-148975000D02*
X226450000Y-148975000D01*
X213450000Y-148975000D02*
X214750000Y-148975000D01*
X214750000Y-148975000D02*
X218025000Y-152250000D01*
X204300000Y-151525000D02*
X209600000Y-151525000D01*
X209600000Y-151525000D02*
X212150000Y-148975000D01*
X212150000Y-148975000D02*
X213450000Y-148975000D01*
X200450000Y-148975000D02*
X201750000Y-148975000D01*
X201750000Y-148975000D02*
X204300000Y-151525000D01*
X194800000Y-151500000D02*
X196625000Y-151500000D01*
X196625000Y-151500000D02*
X199150000Y-148975000D01*
X199150000Y-148975000D02*
X200450000Y-148975000D01*
X192275000Y-148975000D02*
X194800000Y-151500000D01*
X187450000Y-148975000D02*
X192275000Y-148975000D01*
X178250000Y-151350000D02*
X186175000Y-151350000D01*
X186175000Y-151350000D02*
X187450000Y-150075000D01*
X187450000Y-150075000D02*
X187450000Y-148975000D01*
X174450000Y-148975000D02*
X175875000Y-148975000D01*
X175875000Y-148975000D02*
X178250000Y-151350000D01*
D19*
X186575000Y-172175000D02*
X189150000Y-169600000D01*
X189150000Y-169600000D02*
X189150000Y-165150000D01*
X216925736Y-174625000D02*
X192825000Y-174625000D01*
X192825000Y-174625000D02*
X192800000Y-174650000D01*
X217950000Y-174025000D02*
X217525736Y-174025000D01*
X217525736Y-174025000D02*
X216925736Y-174625000D01*
X174450000Y-145675000D02*
X174450000Y-146575000D01*
X174450000Y-146575000D02*
X176850000Y-148975000D01*
X176850000Y-148975000D02*
X181550000Y-148975000D01*
X181550000Y-148975000D02*
X182650000Y-148975000D01*
X194925000Y-167700000D02*
X191824999Y-164599999D01*
X191824999Y-164599999D02*
X186374999Y-164599999D01*
X186374999Y-164599999D02*
X170750000Y-148975000D01*
X170750000Y-148975000D02*
X169650000Y-148975000D01*
X187450000Y-145675000D02*
X193250000Y-145675000D01*
X193250000Y-145675000D02*
X195650000Y-148075000D01*
X195650000Y-148075000D02*
X195650000Y-148975000D01*
X200450000Y-145675000D02*
X206250000Y-145675000D01*
X206250000Y-145675000D02*
X208650000Y-148075000D01*
X208650000Y-148075000D02*
X208650000Y-148975000D01*
X213450000Y-145675000D02*
X219250000Y-145675000D01*
X219250000Y-145675000D02*
X221650000Y-148075000D01*
X221650000Y-148075000D02*
X221650000Y-148975000D01*
X226450000Y-145675000D02*
X232250000Y-145675000D01*
X232250000Y-145675000D02*
X234650000Y-148075000D01*
X234650000Y-148075000D02*
X234650000Y-148975000D01*
X216849999Y-172725001D02*
X228300000Y-161275000D01*
X228300000Y-161275000D02*
X230425000Y-161275000D01*
X216449999Y-172725001D02*
X216849999Y-172725001D01*
X230425000Y-161275000D02*
X231675000Y-160025000D01*
X231675000Y-160025000D02*
X232050000Y-160025000D01*
X216150000Y-173025000D02*
X216449999Y-172725001D01*
X215849999Y-175550001D02*
X217249999Y-175550001D01*
X217249999Y-175550001D02*
X231050000Y-161750000D01*
X231050000Y-161750000D02*
X231725000Y-161075000D01*
X215550000Y-175850000D02*
X215849999Y-175550001D01*
X193375000Y-168475000D02*
X193375000Y-170450000D01*
X193375000Y-170450000D02*
X194250000Y-171325000D01*
X200947570Y-171572680D02*
X200947570Y-166002430D01*
X200947570Y-166002430D02*
X200950000Y-166000000D01*
D20*
G36*
X205078076Y-93304065D02*
X205782440Y-93563174D01*
X206529783Y-93986163D01*
X206885060Y-94270126D01*
X207352893Y-94814749D01*
X207773320Y-95531370D01*
X208136590Y-96447247D01*
X208423717Y-97580565D01*
X208611579Y-98937369D01*
X208649731Y-99475549D01*
X208655140Y-99495313D01*
X208655113Y-99515806D01*
X208671837Y-99556328D01*
X208683408Y-99598613D01*
X208695970Y-99614805D01*
X208703787Y-99633746D01*
X208734742Y-99664781D01*
X208761617Y-99699422D01*
X208779420Y-99709575D01*
X208793890Y-99724082D01*
X208834365Y-99740908D01*
X208872451Y-99762628D01*
X208892785Y-99765195D01*
X208911704Y-99773060D01*
X209870413Y-99965046D01*
X209883032Y-99965062D01*
X209895019Y-99969005D01*
X211407552Y-100153545D01*
X212213804Y-100271528D01*
X212850630Y-100421196D01*
X213101158Y-100750419D01*
X213319514Y-101264275D01*
X213462680Y-101966819D01*
X213519256Y-102960623D01*
X213486468Y-104543156D01*
X213486618Y-104543999D01*
X213486438Y-104544834D01*
X213474842Y-105288776D01*
X213475308Y-105291327D01*
X213474802Y-105293872D01*
X213474802Y-111221225D01*
X213478227Y-111238446D01*
X213476649Y-111255935D01*
X213490578Y-111300537D01*
X213499693Y-111346362D01*
X213509448Y-111360962D01*
X213514683Y-111377724D01*
X213544620Y-111413600D01*
X213570578Y-111452449D01*
X213585179Y-111462205D01*
X213596429Y-111475687D01*
X213637814Y-111497375D01*
X213676665Y-111523334D01*
X213693887Y-111526760D01*
X213709440Y-111534910D01*
X215073212Y-111936463D01*
X216396302Y-112367736D01*
X217664867Y-112822992D01*
X218899378Y-113308406D01*
X220086087Y-113817650D01*
X221240615Y-114356407D01*
X222353449Y-114919433D01*
X223435766Y-115511527D01*
X224481999Y-116129027D01*
X225496768Y-116773864D01*
X227443105Y-118151172D01*
X229279350Y-119643958D01*
X231017600Y-121260757D01*
X232666414Y-123010499D01*
X234235123Y-124906578D01*
X234789874Y-125639063D01*
X235546600Y-126696525D01*
X236283885Y-127799336D01*
X236962996Y-128889020D01*
X237617883Y-130019214D01*
X238216199Y-131133453D01*
X238786337Y-132283564D01*
X239302397Y-133416527D01*
X239787343Y-134581601D01*
X240221043Y-135729531D01*
X240621360Y-136906387D01*
X240973189Y-138066928D01*
X241289819Y-139253722D01*
X241560471Y-140425584D01*
X241794428Y-141621469D01*
X241984521Y-142804162D01*
X242136613Y-144009094D01*
X242246518Y-145202837D01*
X242317229Y-146417204D01*
X242346913Y-147622592D01*
X242336250Y-148847309D01*
X242285233Y-150065324D01*
X242192744Y-151300656D01*
X242010423Y-152916692D01*
X241586263Y-155488014D01*
X241023839Y-157940743D01*
X240326313Y-160285663D01*
X239495642Y-162531798D01*
X238532219Y-164687568D01*
X237434837Y-166760972D01*
X236200633Y-168759454D01*
X234825092Y-170689863D01*
X233301864Y-172558564D01*
X231622486Y-174371732D01*
X229921210Y-176004211D01*
X228912251Y-176893048D01*
X227861987Y-177761557D01*
X226838065Y-178554901D01*
X225777593Y-179323287D01*
X224737782Y-180026144D01*
X223663940Y-180701566D01*
X222606061Y-181318767D01*
X221516156Y-181906577D01*
X220438202Y-182441747D01*
X219329670Y-182945983D01*
X218229301Y-183401933D01*
X217099592Y-183825527D01*
X215974434Y-184204167D01*
X214820871Y-184549124D01*
X213668351Y-184851571D01*
X212488062Y-185119076D01*
X211305471Y-185345677D01*
X210095541Y-185536034D01*
X208879945Y-185686421D01*
X207637355Y-185799200D01*
X206385757Y-185872277D01*
X205105664Y-185906326D01*
X204661948Y-185908739D01*
X202108019Y-185830724D01*
X199639087Y-185600325D01*
X197245703Y-185221428D01*
X194922864Y-184696966D01*
X192665877Y-184028707D01*
X190470489Y-183217367D01*
X188332983Y-182262594D01*
X186250296Y-181163114D01*
X184220064Y-179916823D01*
X182240729Y-178520989D01*
X180309846Y-176971001D01*
X179308594Y-176087845D01*
X178322537Y-175162652D01*
X177923296Y-174764269D01*
X192222900Y-174764269D01*
X192310558Y-174976417D01*
X192472729Y-175138871D01*
X192684724Y-175226900D01*
X192914269Y-175227100D01*
X193126417Y-175139442D01*
X193264099Y-175002000D01*
X216925736Y-175002000D01*
X217070008Y-174973303D01*
X217192315Y-174891579D01*
X217596399Y-174487495D01*
X217622729Y-174513871D01*
X217714757Y-174552085D01*
X217093841Y-175173001D01*
X215849999Y-175173001D01*
X215705727Y-175201698D01*
X215668010Y-175226900D01*
X215598953Y-175273042D01*
X215435731Y-175272900D01*
X215223583Y-175360558D01*
X215061129Y-175522729D01*
X214973100Y-175734724D01*
X214972900Y-175964269D01*
X215060558Y-176176417D01*
X215222729Y-176338871D01*
X215434724Y-176426900D01*
X215664269Y-176427100D01*
X215876417Y-176339442D01*
X216038871Y-176177271D01*
X216126900Y-175965276D01*
X216126933Y-175927001D01*
X217249999Y-175927001D01*
X217394271Y-175898304D01*
X217516578Y-175816580D01*
X231316580Y-162016579D01*
X231316582Y-162016576D01*
X231681196Y-161651962D01*
X231839269Y-161652100D01*
X232051417Y-161564442D01*
X232213871Y-161402271D01*
X232301900Y-161190276D01*
X232302100Y-160960731D01*
X232214442Y-160748583D01*
X232068131Y-160602016D01*
X232164269Y-160602100D01*
X232376417Y-160514442D01*
X232538871Y-160352271D01*
X232626900Y-160140276D01*
X232627100Y-159910731D01*
X232539442Y-159698583D01*
X232377271Y-159536129D01*
X232165276Y-159448100D01*
X231935731Y-159447900D01*
X231723583Y-159535558D01*
X231595005Y-159663912D01*
X231530728Y-159676697D01*
X231408421Y-159758421D01*
X230268842Y-160898000D01*
X228300000Y-160898000D01*
X228155728Y-160926697D01*
X228033421Y-161008421D01*
X216693841Y-172348001D01*
X216449999Y-172348001D01*
X216305727Y-172376698D01*
X216256738Y-172409432D01*
X216198953Y-172448042D01*
X216035731Y-172447900D01*
X215823583Y-172535558D01*
X215661129Y-172697729D01*
X215573100Y-172909724D01*
X215572900Y-173139269D01*
X215660558Y-173351417D01*
X215822729Y-173513871D01*
X216034724Y-173601900D01*
X216264269Y-173602100D01*
X216476417Y-173514442D01*
X216638871Y-173352271D01*
X216726900Y-173140276D01*
X216726933Y-173102001D01*
X216849999Y-173102001D01*
X216994271Y-173073304D01*
X217116578Y-172991580D01*
X228456158Y-161652000D01*
X230425000Y-161652000D01*
X230569272Y-161623303D01*
X230691579Y-161541579D01*
X231147991Y-161085167D01*
X231147961Y-161118881D01*
X230783424Y-161483418D01*
X230783421Y-161483420D01*
X218477106Y-173789736D01*
X218439442Y-173698583D01*
X218277271Y-173536129D01*
X218065276Y-173448100D01*
X217835731Y-173447900D01*
X217623583Y-173535558D01*
X217507264Y-173651674D01*
X217381464Y-173676697D01*
X217259157Y-173758421D01*
X216769578Y-174248000D01*
X193213991Y-174248000D01*
X193127271Y-174161129D01*
X192915276Y-174073100D01*
X192685731Y-174072900D01*
X192473583Y-174160558D01*
X192311129Y-174322729D01*
X192223100Y-174534724D01*
X192222900Y-174764269D01*
X177923296Y-174764269D01*
X177364233Y-174206408D01*
X176476468Y-173263162D01*
X175617264Y-172289886D01*
X174819672Y-171325177D01*
X174051224Y-170331137D01*
X173337490Y-169341762D01*
X172653421Y-168323482D01*
X172018584Y-167306126D01*
X171414012Y-166260156D01*
X170854396Y-165211441D01*
X170325690Y-164134202D01*
X169838699Y-163050600D01*
X169383332Y-161938357D01*
X168967323Y-160816076D01*
X168583808Y-159664989D01*
X168238077Y-158500113D01*
X167925820Y-157305986D01*
X167650527Y-156094346D01*
X167410029Y-154853945D01*
X167136193Y-153089552D01*
X166886647Y-150629688D01*
X166798879Y-148275000D01*
X168467574Y-148275000D01*
X168467574Y-149675000D01*
X168486889Y-149777650D01*
X168547555Y-149871927D01*
X168640120Y-149935175D01*
X168750000Y-149957426D01*
X170550000Y-149957426D01*
X170652650Y-149938111D01*
X170746927Y-149877445D01*
X170810175Y-149784880D01*
X170832426Y-149675000D01*
X170832426Y-149590584D01*
X186108419Y-164866578D01*
X186229796Y-164947680D01*
X186230727Y-164948302D01*
X186374999Y-164976999D01*
X188597070Y-164976999D01*
X188573100Y-165034724D01*
X188572900Y-165264269D01*
X188660558Y-165476417D01*
X188773000Y-165589055D01*
X188773000Y-169443842D01*
X186618804Y-171598038D01*
X186460731Y-171597900D01*
X186248583Y-171685558D01*
X186086129Y-171847729D01*
X185998100Y-172059724D01*
X185997900Y-172289269D01*
X186085558Y-172501417D01*
X186247729Y-172663871D01*
X186459724Y-172751900D01*
X186689269Y-172752100D01*
X186901417Y-172664442D01*
X187063871Y-172502271D01*
X187151900Y-172290276D01*
X187152039Y-172131119D01*
X189416579Y-169866579D01*
X189498303Y-169744272D01*
X189527000Y-169600000D01*
X189527000Y-168589269D01*
X192797900Y-168589269D01*
X192885558Y-168801417D01*
X192998000Y-168914055D01*
X192998000Y-170450000D01*
X193026697Y-170594272D01*
X193108421Y-170716579D01*
X193673038Y-171281196D01*
X193672900Y-171439269D01*
X193760558Y-171651417D01*
X193922729Y-171813871D01*
X194134724Y-171901900D01*
X194364269Y-171902100D01*
X194576417Y-171814442D01*
X194738871Y-171652271D01*
X194826900Y-171440276D01*
X194827100Y-171210731D01*
X194739442Y-170998583D01*
X194577271Y-170836129D01*
X194424471Y-170772680D01*
X199575144Y-170772680D01*
X199575144Y-172372680D01*
X199594459Y-172475330D01*
X199655125Y-172569607D01*
X199747690Y-172632855D01*
X199857570Y-172655106D01*
X202037570Y-172655106D01*
X202140220Y-172635791D01*
X202234497Y-172575125D01*
X202297745Y-172482560D01*
X202319996Y-172372680D01*
X202319996Y-171863070D01*
X208427430Y-171863070D01*
X208427430Y-172503630D01*
X208524103Y-172737019D01*
X208702732Y-172915647D01*
X208936121Y-173012320D01*
X209866680Y-173012320D01*
X210025430Y-172853570D01*
X210025430Y-171704320D01*
X210279430Y-171704320D01*
X210279430Y-172853570D01*
X210438180Y-173012320D01*
X211368739Y-173012320D01*
X211602128Y-172915647D01*
X211780757Y-172737019D01*
X211877430Y-172503630D01*
X211877430Y-171863070D01*
X211718680Y-171704320D01*
X210279430Y-171704320D01*
X210025430Y-171704320D01*
X208586180Y-171704320D01*
X208427430Y-171863070D01*
X202319996Y-171863070D01*
X202319996Y-170772680D01*
X202300681Y-170670030D01*
X202288442Y-170651010D01*
X208427430Y-170651010D01*
X208427430Y-171291570D01*
X208586180Y-171450320D01*
X210025430Y-171450320D01*
X210025430Y-170301070D01*
X210279430Y-170301070D01*
X210279430Y-171450320D01*
X211718680Y-171450320D01*
X211877430Y-171291570D01*
X211877430Y-170651010D01*
X211780757Y-170417621D01*
X211602128Y-170238993D01*
X211368739Y-170142320D01*
X210438180Y-170142320D01*
X210279430Y-170301070D01*
X210025430Y-170301070D01*
X209866680Y-170142320D01*
X208936121Y-170142320D01*
X208702732Y-170238993D01*
X208524103Y-170417621D01*
X208427430Y-170651010D01*
X202288442Y-170651010D01*
X202240015Y-170575753D01*
X202147450Y-170512505D01*
X202037570Y-170490254D01*
X201324570Y-170490254D01*
X201324570Y-166441373D01*
X201438871Y-166327271D01*
X201526900Y-166115276D01*
X201527100Y-165885731D01*
X201439442Y-165673583D01*
X201277271Y-165511129D01*
X201065276Y-165423100D01*
X200835731Y-165422900D01*
X200623583Y-165510558D01*
X200461129Y-165672729D01*
X200373100Y-165884724D01*
X200372900Y-166114269D01*
X200460558Y-166326417D01*
X200570570Y-166436621D01*
X200570570Y-170490254D01*
X199857570Y-170490254D01*
X199754920Y-170509569D01*
X199660643Y-170570235D01*
X199597395Y-170662800D01*
X199575144Y-170772680D01*
X194424471Y-170772680D01*
X194365276Y-170748100D01*
X194206119Y-170747961D01*
X193752000Y-170293842D01*
X193752000Y-168913947D01*
X193863871Y-168802271D01*
X193951900Y-168590276D01*
X193952100Y-168360731D01*
X193864442Y-168148583D01*
X193702271Y-167986129D01*
X193490276Y-167898100D01*
X193260731Y-167897900D01*
X193048583Y-167985558D01*
X192886129Y-168147729D01*
X192798100Y-168359724D01*
X192797900Y-168589269D01*
X189527000Y-168589269D01*
X189527000Y-165588947D01*
X189638871Y-165477271D01*
X189726900Y-165265276D01*
X189727100Y-165035731D01*
X189702832Y-164976999D01*
X191668841Y-164976999D01*
X194348038Y-167656197D01*
X194347900Y-167814269D01*
X194435558Y-168026417D01*
X194597729Y-168188871D01*
X194809724Y-168276900D01*
X195039269Y-168277100D01*
X195251417Y-168189442D01*
X195413871Y-168027271D01*
X195501900Y-167815276D01*
X195502100Y-167585731D01*
X195414442Y-167373583D01*
X195252271Y-167211129D01*
X195040276Y-167123100D01*
X194881120Y-167122961D01*
X192091578Y-164333420D01*
X191969271Y-164251696D01*
X191824999Y-164222999D01*
X186531158Y-164222999D01*
X177488372Y-155180213D01*
X203599392Y-155180213D01*
X203668857Y-155422397D01*
X204192302Y-155609144D01*
X204747368Y-155581362D01*
X205131143Y-155422397D01*
X205200608Y-155180213D01*
X204400000Y-154379605D01*
X203599392Y-155180213D01*
X177488372Y-155180213D01*
X176300461Y-153992302D01*
X202990856Y-153992302D01*
X203018638Y-154547368D01*
X203177603Y-154931143D01*
X203419787Y-155000608D01*
X204220395Y-154200000D01*
X204579605Y-154200000D01*
X205380213Y-155000608D01*
X205622397Y-154931143D01*
X205809144Y-154407698D01*
X205781362Y-153852632D01*
X205622397Y-153468857D01*
X205380213Y-153399392D01*
X204579605Y-154200000D01*
X204220395Y-154200000D01*
X203419787Y-153399392D01*
X203177603Y-153468857D01*
X202990856Y-153992302D01*
X176300461Y-153992302D01*
X175527946Y-153219787D01*
X203599392Y-153219787D01*
X204400000Y-154020395D01*
X205200608Y-153219787D01*
X205131143Y-152977603D01*
X204607698Y-152790856D01*
X204052632Y-152818638D01*
X203668857Y-152977603D01*
X203599392Y-153219787D01*
X175527946Y-153219787D01*
X171016579Y-148708421D01*
X170894272Y-148626697D01*
X170832426Y-148614395D01*
X170832426Y-148275000D01*
X170813111Y-148172350D01*
X170752445Y-148078073D01*
X170659880Y-148014825D01*
X170550000Y-147992574D01*
X168750000Y-147992574D01*
X168647350Y-148011889D01*
X168553073Y-148072555D01*
X168489825Y-148165120D01*
X168467574Y-148275000D01*
X166798879Y-148275000D01*
X166796297Y-148205740D01*
X166857883Y-145960750D01*
X168115000Y-145960750D01*
X168115000Y-146501309D01*
X168211673Y-146734698D01*
X168390301Y-146913327D01*
X168623690Y-147010000D01*
X169364250Y-147010000D01*
X169523000Y-146851250D01*
X169523000Y-145802000D01*
X169777000Y-145802000D01*
X169777000Y-146851250D01*
X169935750Y-147010000D01*
X170676310Y-147010000D01*
X170909699Y-146913327D01*
X171088327Y-146734698D01*
X171185000Y-146501309D01*
X171185000Y-145960750D01*
X171026250Y-145802000D01*
X169777000Y-145802000D01*
X169523000Y-145802000D01*
X168273750Y-145802000D01*
X168115000Y-145960750D01*
X166857883Y-145960750D01*
X166861914Y-145813822D01*
X166951587Y-144848691D01*
X168115000Y-144848691D01*
X168115000Y-145389250D01*
X168273750Y-145548000D01*
X169523000Y-145548000D01*
X169523000Y-144498750D01*
X169777000Y-144498750D01*
X169777000Y-145548000D01*
X171026250Y-145548000D01*
X171185000Y-145389250D01*
X171185000Y-144975000D01*
X173267574Y-144975000D01*
X173267574Y-146375000D01*
X173286889Y-146477650D01*
X173347555Y-146571927D01*
X173440120Y-146635175D01*
X173550000Y-146657426D01*
X174089395Y-146657426D01*
X174101697Y-146719272D01*
X174183421Y-146841579D01*
X175334416Y-147992574D01*
X173550000Y-147992574D01*
X173447350Y-148011889D01*
X173353073Y-148072555D01*
X173289825Y-148165120D01*
X173267574Y-148275000D01*
X173267574Y-149675000D01*
X173286889Y-149777650D01*
X173347555Y-149871927D01*
X173440120Y-149935175D01*
X173550000Y-149957426D01*
X175350000Y-149957426D01*
X175452650Y-149938111D01*
X175546927Y-149877445D01*
X175610175Y-149784880D01*
X175632426Y-149675000D01*
X175632426Y-149452000D01*
X175677420Y-149452000D01*
X177672915Y-151447495D01*
X177672900Y-151464269D01*
X177760558Y-151676417D01*
X177922729Y-151838871D01*
X178134724Y-151926900D01*
X178364269Y-151927100D01*
X178576417Y-151839442D01*
X178588881Y-151827000D01*
X186175000Y-151827000D01*
X186357540Y-151790691D01*
X186512290Y-151687290D01*
X187787290Y-150412290D01*
X187890691Y-150257541D01*
X187927000Y-150075000D01*
X187927000Y-149957426D01*
X188350000Y-149957426D01*
X188452650Y-149938111D01*
X188546927Y-149877445D01*
X188610175Y-149784880D01*
X188632426Y-149675000D01*
X188632426Y-149452000D01*
X192077420Y-149452000D01*
X194462710Y-151837290D01*
X194617460Y-151940691D01*
X194800000Y-151977000D01*
X196625000Y-151977000D01*
X196807540Y-151940691D01*
X196962290Y-151837290D01*
X199267574Y-149532006D01*
X199267574Y-149675000D01*
X199286889Y-149777650D01*
X199347555Y-149871927D01*
X199440120Y-149935175D01*
X199550000Y-149957426D01*
X201350000Y-149957426D01*
X201452650Y-149938111D01*
X201546927Y-149877445D01*
X201610175Y-149784880D01*
X201632426Y-149675000D01*
X201632426Y-149532006D01*
X203962710Y-151862290D01*
X204117460Y-151965691D01*
X204300000Y-152002000D01*
X209600000Y-152002000D01*
X209782540Y-151965691D01*
X209937290Y-151862290D01*
X212267574Y-149532006D01*
X212267574Y-149675000D01*
X212286889Y-149777650D01*
X212347555Y-149871927D01*
X212440120Y-149935175D01*
X212550000Y-149957426D01*
X214350000Y-149957426D01*
X214452650Y-149938111D01*
X214546927Y-149877445D01*
X214610175Y-149784880D01*
X214632426Y-149675000D01*
X214632426Y-149532006D01*
X217687710Y-152587290D01*
X217842459Y-152690691D01*
X218025000Y-152727000D01*
X221875000Y-152727000D01*
X222057540Y-152690691D01*
X222212290Y-152587290D01*
X225267574Y-149532006D01*
X225267574Y-149675000D01*
X225286889Y-149777650D01*
X225347555Y-149871927D01*
X225440120Y-149935175D01*
X225550000Y-149957426D01*
X227350000Y-149957426D01*
X227452650Y-149938111D01*
X227546927Y-149877445D01*
X227610175Y-149784880D01*
X227632426Y-149675000D01*
X227632426Y-149532006D01*
X230248000Y-152147580D01*
X230248000Y-154000000D01*
X230284309Y-154182540D01*
X230387710Y-154337290D01*
X230622915Y-154572495D01*
X230622900Y-154589269D01*
X230710558Y-154801417D01*
X230872729Y-154963871D01*
X231084724Y-155051900D01*
X231314269Y-155052100D01*
X231526417Y-154964442D01*
X231688871Y-154802271D01*
X231776900Y-154590276D01*
X231777100Y-154360731D01*
X231689442Y-154148583D01*
X231527271Y-153986129D01*
X231315276Y-153898100D01*
X231297665Y-153898085D01*
X231202000Y-153802420D01*
X231202000Y-152427000D01*
X235175000Y-152427000D01*
X235357540Y-152390691D01*
X235512290Y-152287290D01*
X238267574Y-149532006D01*
X238267574Y-149675000D01*
X238286889Y-149777650D01*
X238347555Y-149871927D01*
X238440120Y-149935175D01*
X238550000Y-149957426D01*
X240350000Y-149957426D01*
X240452650Y-149938111D01*
X240546927Y-149877445D01*
X240610175Y-149784880D01*
X240632426Y-149675000D01*
X240632426Y-148275000D01*
X240613111Y-148172350D01*
X240552445Y-148078073D01*
X240459880Y-148014825D01*
X240350000Y-147992574D01*
X238550000Y-147992574D01*
X238447350Y-148011889D01*
X238353073Y-148072555D01*
X238289825Y-148165120D01*
X238267574Y-148275000D01*
X238267574Y-148498000D01*
X238150000Y-148498000D01*
X237967459Y-148534309D01*
X237812710Y-148637710D01*
X234977420Y-151473000D01*
X230922580Y-151473000D01*
X228087290Y-148637710D01*
X227932540Y-148534309D01*
X227750000Y-148498000D01*
X227632426Y-148498000D01*
X227632426Y-148275000D01*
X227613111Y-148172350D01*
X227552445Y-148078073D01*
X227459880Y-148014825D01*
X227350000Y-147992574D01*
X225550000Y-147992574D01*
X225447350Y-148011889D01*
X225353073Y-148072555D01*
X225289825Y-148165120D01*
X225267574Y-148275000D01*
X225267574Y-148498000D01*
X225150000Y-148498000D01*
X224967459Y-148534309D01*
X224812710Y-148637710D01*
X221677420Y-151773000D01*
X218222580Y-151773000D01*
X215087290Y-148637710D01*
X214932540Y-148534309D01*
X214750000Y-148498000D01*
X214632426Y-148498000D01*
X214632426Y-148275000D01*
X214613111Y-148172350D01*
X214552445Y-148078073D01*
X214459880Y-148014825D01*
X214350000Y-147992574D01*
X212550000Y-147992574D01*
X212447350Y-148011889D01*
X212353073Y-148072555D01*
X212289825Y-148165120D01*
X212267574Y-148275000D01*
X212267574Y-148498000D01*
X212150000Y-148498000D01*
X211967460Y-148534309D01*
X211812710Y-148637710D01*
X209402420Y-151048000D01*
X204497580Y-151048000D01*
X202087290Y-148637710D01*
X201932540Y-148534309D01*
X201750000Y-148498000D01*
X201632426Y-148498000D01*
X201632426Y-148275000D01*
X201613111Y-148172350D01*
X201552445Y-148078073D01*
X201459880Y-148014825D01*
X201350000Y-147992574D01*
X199550000Y-147992574D01*
X199447350Y-148011889D01*
X199353073Y-148072555D01*
X199289825Y-148165120D01*
X199267574Y-148275000D01*
X199267574Y-148498000D01*
X199150000Y-148498000D01*
X198967460Y-148534309D01*
X198812710Y-148637710D01*
X196427420Y-151023000D01*
X194997580Y-151023000D01*
X192612290Y-148637710D01*
X192457540Y-148534309D01*
X192275000Y-148498000D01*
X188632426Y-148498000D01*
X188632426Y-148275000D01*
X188613111Y-148172350D01*
X188552445Y-148078073D01*
X188459880Y-148014825D01*
X188350000Y-147992574D01*
X186550000Y-147992574D01*
X186447350Y-148011889D01*
X186353073Y-148072555D01*
X186289825Y-148165120D01*
X186267574Y-148275000D01*
X186267574Y-149675000D01*
X186286889Y-149777650D01*
X186347555Y-149871927D01*
X186440120Y-149935175D01*
X186550000Y-149957426D01*
X186892994Y-149957426D01*
X185977420Y-150873000D01*
X178589121Y-150873000D01*
X178577271Y-150861129D01*
X178365276Y-150773100D01*
X178347665Y-150773085D01*
X176926580Y-149352000D01*
X181467574Y-149352000D01*
X181467574Y-149675000D01*
X181486889Y-149777650D01*
X181547555Y-149871927D01*
X181640120Y-149935175D01*
X181750000Y-149957426D01*
X183550000Y-149957426D01*
X183652650Y-149938111D01*
X183746927Y-149877445D01*
X183810175Y-149784880D01*
X183832426Y-149675000D01*
X183832426Y-148275000D01*
X183813111Y-148172350D01*
X183752445Y-148078073D01*
X183659880Y-148014825D01*
X183550000Y-147992574D01*
X181750000Y-147992574D01*
X181647350Y-148011889D01*
X181553073Y-148072555D01*
X181489825Y-148165120D01*
X181467574Y-148275000D01*
X181467574Y-148598000D01*
X177006159Y-148598000D01*
X175065584Y-146657426D01*
X175350000Y-146657426D01*
X175452650Y-146638111D01*
X175546927Y-146577445D01*
X175610175Y-146484880D01*
X175632426Y-146375000D01*
X175632426Y-145960750D01*
X181115000Y-145960750D01*
X181115000Y-146501309D01*
X181211673Y-146734698D01*
X181390301Y-146913327D01*
X181623690Y-147010000D01*
X182364250Y-147010000D01*
X182523000Y-146851250D01*
X182523000Y-145802000D01*
X182777000Y-145802000D01*
X182777000Y-146851250D01*
X182935750Y-147010000D01*
X183676310Y-147010000D01*
X183909699Y-146913327D01*
X184088327Y-146734698D01*
X184185000Y-146501309D01*
X184185000Y-145960750D01*
X184026250Y-145802000D01*
X182777000Y-145802000D01*
X182523000Y-145802000D01*
X181273750Y-145802000D01*
X181115000Y-145960750D01*
X175632426Y-145960750D01*
X175632426Y-144975000D01*
X175613111Y-144872350D01*
X175597887Y-144848691D01*
X181115000Y-144848691D01*
X181115000Y-145389250D01*
X181273750Y-145548000D01*
X182523000Y-145548000D01*
X182523000Y-144498750D01*
X182777000Y-144498750D01*
X182777000Y-145548000D01*
X184026250Y-145548000D01*
X184185000Y-145389250D01*
X184185000Y-144975000D01*
X186267574Y-144975000D01*
X186267574Y-146375000D01*
X186286889Y-146477650D01*
X186347555Y-146571927D01*
X186440120Y-146635175D01*
X186550000Y-146657426D01*
X188350000Y-146657426D01*
X188452650Y-146638111D01*
X188546927Y-146577445D01*
X188610175Y-146484880D01*
X188632426Y-146375000D01*
X188632426Y-146052000D01*
X193093842Y-146052000D01*
X195034415Y-147992574D01*
X194750000Y-147992574D01*
X194647350Y-148011889D01*
X194553073Y-148072555D01*
X194489825Y-148165120D01*
X194467574Y-148275000D01*
X194467574Y-149675000D01*
X194486889Y-149777650D01*
X194547555Y-149871927D01*
X194640120Y-149935175D01*
X194750000Y-149957426D01*
X196550000Y-149957426D01*
X196652650Y-149938111D01*
X196746927Y-149877445D01*
X196810175Y-149784880D01*
X196832426Y-149675000D01*
X196832426Y-148275000D01*
X196813111Y-148172350D01*
X196752445Y-148078073D01*
X196659880Y-148014825D01*
X196550000Y-147992574D01*
X196010605Y-147992574D01*
X195998303Y-147930728D01*
X195964791Y-147880574D01*
X195916580Y-147808421D01*
X195118159Y-147010000D01*
X195364250Y-147010000D01*
X195523000Y-146851250D01*
X195523000Y-145802000D01*
X195777000Y-145802000D01*
X195777000Y-146851250D01*
X195935750Y-147010000D01*
X196676310Y-147010000D01*
X196909699Y-146913327D01*
X197088327Y-146734698D01*
X197185000Y-146501309D01*
X197185000Y-145960750D01*
X197026250Y-145802000D01*
X195777000Y-145802000D01*
X195523000Y-145802000D01*
X194273750Y-145802000D01*
X194115000Y-145960750D01*
X194115000Y-146006842D01*
X193516579Y-145408421D01*
X193394272Y-145326697D01*
X193250000Y-145298000D01*
X188632426Y-145298000D01*
X188632426Y-144975000D01*
X188613111Y-144872350D01*
X188597887Y-144848691D01*
X194115000Y-144848691D01*
X194115000Y-145389250D01*
X194273750Y-145548000D01*
X195523000Y-145548000D01*
X195523000Y-144498750D01*
X195777000Y-144498750D01*
X195777000Y-145548000D01*
X197026250Y-145548000D01*
X197185000Y-145389250D01*
X197185000Y-144975000D01*
X199267574Y-144975000D01*
X199267574Y-146375000D01*
X199286889Y-146477650D01*
X199347555Y-146571927D01*
X199440120Y-146635175D01*
X199550000Y-146657426D01*
X201350000Y-146657426D01*
X201452650Y-146638111D01*
X201546927Y-146577445D01*
X201610175Y-146484880D01*
X201632426Y-146375000D01*
X201632426Y-146052000D01*
X206093842Y-146052000D01*
X208034415Y-147992574D01*
X207750000Y-147992574D01*
X207647350Y-148011889D01*
X207553073Y-148072555D01*
X207489825Y-148165120D01*
X207467574Y-148275000D01*
X207467574Y-149675000D01*
X207486889Y-149777650D01*
X207547555Y-149871927D01*
X207640120Y-149935175D01*
X207750000Y-149957426D01*
X209550000Y-149957426D01*
X209652650Y-149938111D01*
X209746927Y-149877445D01*
X209810175Y-149784880D01*
X209832426Y-149675000D01*
X209832426Y-148275000D01*
X209813111Y-148172350D01*
X209752445Y-148078073D01*
X209659880Y-148014825D01*
X209550000Y-147992574D01*
X209010605Y-147992574D01*
X208998303Y-147930728D01*
X208964791Y-147880574D01*
X208916580Y-147808421D01*
X208118159Y-147010000D01*
X208364250Y-147010000D01*
X208523000Y-146851250D01*
X208523000Y-145802000D01*
X208777000Y-145802000D01*
X208777000Y-146851250D01*
X208935750Y-147010000D01*
X209676310Y-147010000D01*
X209909699Y-146913327D01*
X210088327Y-146734698D01*
X210185000Y-146501309D01*
X210185000Y-145960750D01*
X210026250Y-145802000D01*
X208777000Y-145802000D01*
X208523000Y-145802000D01*
X207273750Y-145802000D01*
X207115000Y-145960750D01*
X207115000Y-146006842D01*
X206516579Y-145408421D01*
X206394272Y-145326697D01*
X206250000Y-145298000D01*
X201632426Y-145298000D01*
X201632426Y-144975000D01*
X201613111Y-144872350D01*
X201597887Y-144848691D01*
X207115000Y-144848691D01*
X207115000Y-145389250D01*
X207273750Y-145548000D01*
X208523000Y-145548000D01*
X208523000Y-144498750D01*
X208777000Y-144498750D01*
X208777000Y-145548000D01*
X210026250Y-145548000D01*
X210185000Y-145389250D01*
X210185000Y-144975000D01*
X212267574Y-144975000D01*
X212267574Y-146375000D01*
X212286889Y-146477650D01*
X212347555Y-146571927D01*
X212440120Y-146635175D01*
X212550000Y-146657426D01*
X214350000Y-146657426D01*
X214452650Y-146638111D01*
X214546927Y-146577445D01*
X214610175Y-146484880D01*
X214632426Y-146375000D01*
X214632426Y-146052000D01*
X219093842Y-146052000D01*
X221034415Y-147992574D01*
X220750000Y-147992574D01*
X220647350Y-148011889D01*
X220553073Y-148072555D01*
X220489825Y-148165120D01*
X220467574Y-148275000D01*
X220467574Y-149675000D01*
X220486889Y-149777650D01*
X220547555Y-149871927D01*
X220640120Y-149935175D01*
X220750000Y-149957426D01*
X222550000Y-149957426D01*
X222652650Y-149938111D01*
X222746927Y-149877445D01*
X222810175Y-149784880D01*
X222832426Y-149675000D01*
X222832426Y-148275000D01*
X222813111Y-148172350D01*
X222752445Y-148078073D01*
X222659880Y-148014825D01*
X222550000Y-147992574D01*
X222010605Y-147992574D01*
X221998303Y-147930728D01*
X221964791Y-147880574D01*
X221916580Y-147808421D01*
X221118159Y-147010000D01*
X221364250Y-147010000D01*
X221523000Y-146851250D01*
X221523000Y-145802000D01*
X221777000Y-145802000D01*
X221777000Y-146851250D01*
X221935750Y-147010000D01*
X222676310Y-147010000D01*
X222909699Y-146913327D01*
X223088327Y-146734698D01*
X223185000Y-146501309D01*
X223185000Y-145960750D01*
X223026250Y-145802000D01*
X221777000Y-145802000D01*
X221523000Y-145802000D01*
X220273750Y-145802000D01*
X220115000Y-145960750D01*
X220115000Y-146006842D01*
X219516579Y-145408421D01*
X219394272Y-145326697D01*
X219250000Y-145298000D01*
X214632426Y-145298000D01*
X214632426Y-144975000D01*
X214613111Y-144872350D01*
X214597887Y-144848691D01*
X220115000Y-144848691D01*
X220115000Y-145389250D01*
X220273750Y-145548000D01*
X221523000Y-145548000D01*
X221523000Y-144498750D01*
X221777000Y-144498750D01*
X221777000Y-145548000D01*
X223026250Y-145548000D01*
X223185000Y-145389250D01*
X223185000Y-144975000D01*
X225267574Y-144975000D01*
X225267574Y-146375000D01*
X225286889Y-146477650D01*
X225347555Y-146571927D01*
X225440120Y-146635175D01*
X225550000Y-146657426D01*
X227350000Y-146657426D01*
X227452650Y-146638111D01*
X227546927Y-146577445D01*
X227610175Y-146484880D01*
X227632426Y-146375000D01*
X227632426Y-146052000D01*
X232093842Y-146052000D01*
X234034415Y-147992574D01*
X233750000Y-147992574D01*
X233647350Y-148011889D01*
X233553073Y-148072555D01*
X233489825Y-148165120D01*
X233467574Y-148275000D01*
X233467574Y-149675000D01*
X233486889Y-149777650D01*
X233547555Y-149871927D01*
X233640120Y-149935175D01*
X233750000Y-149957426D01*
X235550000Y-149957426D01*
X235652650Y-149938111D01*
X235746927Y-149877445D01*
X235810175Y-149784880D01*
X235832426Y-149675000D01*
X235832426Y-148275000D01*
X235813111Y-148172350D01*
X235752445Y-148078073D01*
X235659880Y-148014825D01*
X235550000Y-147992574D01*
X235010605Y-147992574D01*
X234998303Y-147930728D01*
X234964791Y-147880574D01*
X234916580Y-147808421D01*
X234118159Y-147010000D01*
X234364250Y-147010000D01*
X234523000Y-146851250D01*
X234523000Y-145802000D01*
X234777000Y-145802000D01*
X234777000Y-146851250D01*
X234935750Y-147010000D01*
X235676310Y-147010000D01*
X235909699Y-146913327D01*
X236088327Y-146734698D01*
X236185000Y-146501309D01*
X236185000Y-145960750D01*
X236026250Y-145802000D01*
X234777000Y-145802000D01*
X234523000Y-145802000D01*
X233273750Y-145802000D01*
X233115000Y-145960750D01*
X233115000Y-146006842D01*
X232516579Y-145408421D01*
X232394272Y-145326697D01*
X232250000Y-145298000D01*
X227632426Y-145298000D01*
X227632426Y-144975000D01*
X227613111Y-144872350D01*
X227597887Y-144848691D01*
X233115000Y-144848691D01*
X233115000Y-145389250D01*
X233273750Y-145548000D01*
X234523000Y-145548000D01*
X234523000Y-144498750D01*
X234777000Y-144498750D01*
X234777000Y-145548000D01*
X236026250Y-145548000D01*
X236185000Y-145389250D01*
X236185000Y-144975000D01*
X238267574Y-144975000D01*
X238267574Y-146375000D01*
X238286889Y-146477650D01*
X238347555Y-146571927D01*
X238440120Y-146635175D01*
X238550000Y-146657426D01*
X240350000Y-146657426D01*
X240452650Y-146638111D01*
X240546927Y-146577445D01*
X240610175Y-146484880D01*
X240632426Y-146375000D01*
X240632426Y-144975000D01*
X240613111Y-144872350D01*
X240552445Y-144778073D01*
X240459880Y-144714825D01*
X240350000Y-144692574D01*
X238550000Y-144692574D01*
X238447350Y-144711889D01*
X238353073Y-144772555D01*
X238289825Y-144865120D01*
X238267574Y-144975000D01*
X236185000Y-144975000D01*
X236185000Y-144848691D01*
X236088327Y-144615302D01*
X235909699Y-144436673D01*
X235676310Y-144340000D01*
X234935750Y-144340000D01*
X234777000Y-144498750D01*
X234523000Y-144498750D01*
X234364250Y-144340000D01*
X233623690Y-144340000D01*
X233390301Y-144436673D01*
X233211673Y-144615302D01*
X233115000Y-144848691D01*
X227597887Y-144848691D01*
X227552445Y-144778073D01*
X227459880Y-144714825D01*
X227350000Y-144692574D01*
X225550000Y-144692574D01*
X225447350Y-144711889D01*
X225353073Y-144772555D01*
X225289825Y-144865120D01*
X225267574Y-144975000D01*
X223185000Y-144975000D01*
X223185000Y-144848691D01*
X223088327Y-144615302D01*
X222909699Y-144436673D01*
X222676310Y-144340000D01*
X221935750Y-144340000D01*
X221777000Y-144498750D01*
X221523000Y-144498750D01*
X221364250Y-144340000D01*
X220623690Y-144340000D01*
X220390301Y-144436673D01*
X220211673Y-144615302D01*
X220115000Y-144848691D01*
X214597887Y-144848691D01*
X214552445Y-144778073D01*
X214459880Y-144714825D01*
X214350000Y-144692574D01*
X212550000Y-144692574D01*
X212447350Y-144711889D01*
X212353073Y-144772555D01*
X212289825Y-144865120D01*
X212267574Y-144975000D01*
X210185000Y-144975000D01*
X210185000Y-144848691D01*
X210088327Y-144615302D01*
X209909699Y-144436673D01*
X209676310Y-144340000D01*
X208935750Y-144340000D01*
X208777000Y-144498750D01*
X208523000Y-144498750D01*
X208364250Y-144340000D01*
X207623690Y-144340000D01*
X207390301Y-144436673D01*
X207211673Y-144615302D01*
X207115000Y-144848691D01*
X201597887Y-144848691D01*
X201552445Y-144778073D01*
X201459880Y-144714825D01*
X201350000Y-144692574D01*
X199550000Y-144692574D01*
X199447350Y-144711889D01*
X199353073Y-144772555D01*
X199289825Y-144865120D01*
X199267574Y-144975000D01*
X197185000Y-144975000D01*
X197185000Y-144848691D01*
X197088327Y-144615302D01*
X196909699Y-144436673D01*
X196676310Y-144340000D01*
X195935750Y-144340000D01*
X195777000Y-144498750D01*
X195523000Y-144498750D01*
X195364250Y-144340000D01*
X194623690Y-144340000D01*
X194390301Y-144436673D01*
X194211673Y-144615302D01*
X194115000Y-144848691D01*
X188597887Y-144848691D01*
X188552445Y-144778073D01*
X188459880Y-144714825D01*
X188350000Y-144692574D01*
X186550000Y-144692574D01*
X186447350Y-144711889D01*
X186353073Y-144772555D01*
X186289825Y-144865120D01*
X186267574Y-144975000D01*
X184185000Y-144975000D01*
X184185000Y-144848691D01*
X184088327Y-144615302D01*
X183909699Y-144436673D01*
X183676310Y-144340000D01*
X182935750Y-144340000D01*
X182777000Y-144498750D01*
X182523000Y-144498750D01*
X182364250Y-144340000D01*
X181623690Y-144340000D01*
X181390301Y-144436673D01*
X181211673Y-144615302D01*
X181115000Y-144848691D01*
X175597887Y-144848691D01*
X175552445Y-144778073D01*
X175459880Y-144714825D01*
X175350000Y-144692574D01*
X173550000Y-144692574D01*
X173447350Y-144711889D01*
X173353073Y-144772555D01*
X173289825Y-144865120D01*
X173267574Y-144975000D01*
X171185000Y-144975000D01*
X171185000Y-144848691D01*
X171088327Y-144615302D01*
X170909699Y-144436673D01*
X170676310Y-144340000D01*
X169935750Y-144340000D01*
X169777000Y-144498750D01*
X169523000Y-144498750D01*
X169364250Y-144340000D01*
X168623690Y-144340000D01*
X168390301Y-144436673D01*
X168211673Y-144615302D01*
X168115000Y-144848691D01*
X166951587Y-144848691D01*
X167081359Y-143452009D01*
X167453277Y-141119010D01*
X167977007Y-138814129D01*
X168652357Y-136537808D01*
X169479339Y-134291684D01*
X169861291Y-133427897D01*
X217222939Y-133427897D01*
X217416941Y-133897417D01*
X217775853Y-134256957D01*
X218245035Y-134451778D01*
X218753057Y-134452221D01*
X219054826Y-134327532D01*
X225126913Y-134327532D01*
X225225576Y-134594387D01*
X225835301Y-134820908D01*
X226485300Y-134796856D01*
X226974104Y-134594387D01*
X227072767Y-134327532D01*
X226099840Y-133354605D01*
X225126913Y-134327532D01*
X219054826Y-134327532D01*
X219222577Y-134258219D01*
X219582117Y-133899307D01*
X219776938Y-133430125D01*
X219777381Y-132922103D01*
X219772571Y-132910461D01*
X224453932Y-132910461D01*
X224477984Y-133560460D01*
X224680453Y-134049264D01*
X224947308Y-134147927D01*
X225920235Y-133175000D01*
X226279445Y-133175000D01*
X227252372Y-134147927D01*
X227519227Y-134049264D01*
X227745748Y-133439539D01*
X227721696Y-132789540D01*
X227519227Y-132300736D01*
X227252372Y-132202073D01*
X226279445Y-133175000D01*
X225920235Y-133175000D01*
X224947308Y-132202073D01*
X224680453Y-132300736D01*
X224453932Y-132910461D01*
X219772571Y-132910461D01*
X219583379Y-132452583D01*
X219224467Y-132093043D01*
X219054504Y-132022468D01*
X225126913Y-132022468D01*
X226099840Y-132995395D01*
X227072767Y-132022468D01*
X226974104Y-131755613D01*
X226364379Y-131529092D01*
X225714380Y-131553144D01*
X225225576Y-131755613D01*
X225126913Y-132022468D01*
X219054504Y-132022468D01*
X218755285Y-131898222D01*
X218247263Y-131897779D01*
X217777743Y-132091781D01*
X217418203Y-132450693D01*
X217223382Y-132919875D01*
X217222939Y-133427897D01*
X169861291Y-133427897D01*
X170457749Y-132079008D01*
X171586624Y-129905097D01*
X172863390Y-127777952D01*
X174273985Y-125720847D01*
X175026744Y-124724042D01*
X175807209Y-123757226D01*
X176601923Y-122836211D01*
X177423138Y-121945846D01*
X178261042Y-121096133D01*
X179125747Y-120276191D01*
X180010065Y-119492502D01*
X180921584Y-118738040D01*
X181856208Y-118016112D01*
X182816372Y-117324647D01*
X184825891Y-116025030D01*
X186953779Y-114839142D01*
X189213999Y-113762686D01*
X191619675Y-112794447D01*
X194187725Y-111934024D01*
X195266654Y-111619757D01*
X195282654Y-111611432D01*
X195300344Y-111607913D01*
X195338804Y-111582215D01*
X195379837Y-111560864D01*
X195391433Y-111547049D01*
X195406431Y-111537028D01*
X195432131Y-111498565D01*
X195461868Y-111463139D01*
X195467295Y-111445939D01*
X195477316Y-111430941D01*
X195486340Y-111385572D01*
X195500257Y-111341462D01*
X195498688Y-111323494D01*
X195502207Y-111305804D01*
X195502207Y-109723191D01*
X203272805Y-109723191D01*
X203444019Y-110137560D01*
X203760772Y-110454867D01*
X204174842Y-110626804D01*
X204623191Y-110627195D01*
X205037560Y-110455981D01*
X205354867Y-110139228D01*
X205526804Y-109725158D01*
X205527195Y-109276809D01*
X205355981Y-108862440D01*
X205039228Y-108545133D01*
X204625158Y-108373196D01*
X204176809Y-108372805D01*
X203762440Y-108544019D01*
X203445133Y-108860772D01*
X203273196Y-109274842D01*
X203272805Y-109723191D01*
X195502207Y-109723191D01*
X195502207Y-105379199D01*
X195501324Y-105374762D01*
X195502086Y-105370302D01*
X195458112Y-103754651D01*
X195456449Y-102406946D01*
X195510029Y-101813627D01*
X195618926Y-101290411D01*
X195718317Y-101014246D01*
X195845565Y-100778219D01*
X195968131Y-100621563D01*
X196114392Y-100491149D01*
X196512182Y-100288614D01*
X197053530Y-100164502D01*
X197922231Y-100102341D01*
X198738986Y-100062360D01*
X198752410Y-100059000D01*
X198766221Y-100059882D01*
X199621087Y-99945884D01*
X199638803Y-99939837D01*
X199657498Y-99938908D01*
X199698694Y-99919395D01*
X199741836Y-99904670D01*
X199755889Y-99892304D01*
X199772807Y-99884291D01*
X199803401Y-99850497D01*
X199837622Y-99820385D01*
X199845873Y-99803583D01*
X199858437Y-99789705D01*
X199873770Y-99746776D01*
X199893863Y-99705859D01*
X199895056Y-99687178D01*
X199901352Y-99669550D01*
X200009258Y-98939253D01*
X200152619Y-98245043D01*
X200323165Y-97613436D01*
X200527305Y-97012002D01*
X200751493Y-96473129D01*
X200874740Y-96227407D01*
X202922735Y-96227407D01*
X203154717Y-96788846D01*
X203583894Y-97218773D01*
X204144928Y-97451735D01*
X204752407Y-97452265D01*
X205313846Y-97220283D01*
X205743773Y-96791106D01*
X205976735Y-96230072D01*
X205977265Y-95622593D01*
X205745283Y-95061154D01*
X205316106Y-94631227D01*
X204755072Y-94398265D01*
X204147593Y-94397735D01*
X203586154Y-94629717D01*
X203156227Y-95058894D01*
X202923265Y-95619928D01*
X202922735Y-96227407D01*
X200874740Y-96227407D01*
X201006009Y-95965692D01*
X201274703Y-95516632D01*
X201570772Y-95099215D01*
X201877386Y-94733627D01*
X202209113Y-94399284D01*
X202550568Y-94109654D01*
X202915846Y-93850900D01*
X203292842Y-93630834D01*
X203691439Y-93442783D01*
X204222545Y-93254290D01*
X204559829Y-93219030D01*
X205078076Y-93304065D01*
X205078076Y-93304065D01*
G37*
X205078076Y-93304065D02*
X205782440Y-93563174D01*
X206529783Y-93986163D01*
X206885060Y-94270126D01*
X207352893Y-94814749D01*
X207773320Y-95531370D01*
X208136590Y-96447247D01*
X208423717Y-97580565D01*
X208611579Y-98937369D01*
X208649731Y-99475549D01*
X208655140Y-99495313D01*
X208655113Y-99515806D01*
X208671837Y-99556328D01*
X208683408Y-99598613D01*
X208695970Y-99614805D01*
X208703787Y-99633746D01*
X208734742Y-99664781D01*
X208761617Y-99699422D01*
X208779420Y-99709575D01*
X208793890Y-99724082D01*
X208834365Y-99740908D01*
X208872451Y-99762628D01*
X208892785Y-99765195D01*
X208911704Y-99773060D01*
X209870413Y-99965046D01*
X209883032Y-99965062D01*
X209895019Y-99969005D01*
X211407552Y-100153545D01*
X212213804Y-100271528D01*
X212850630Y-100421196D01*
X213101158Y-100750419D01*
X213319514Y-101264275D01*
X213462680Y-101966819D01*
X213519256Y-102960623D01*
X213486468Y-104543156D01*
X213486618Y-104543999D01*
X213486438Y-104544834D01*
X213474842Y-105288776D01*
X213475308Y-105291327D01*
X213474802Y-105293872D01*
X213474802Y-111221225D01*
X213478227Y-111238446D01*
X213476649Y-111255935D01*
X213490578Y-111300537D01*
X213499693Y-111346362D01*
X213509448Y-111360962D01*
X213514683Y-111377724D01*
X213544620Y-111413600D01*
X213570578Y-111452449D01*
X213585179Y-111462205D01*
X213596429Y-111475687D01*
X213637814Y-111497375D01*
X213676665Y-111523334D01*
X213693887Y-111526760D01*
X213709440Y-111534910D01*
X215073212Y-111936463D01*
X216396302Y-112367736D01*
X217664867Y-112822992D01*
X218899378Y-113308406D01*
X220086087Y-113817650D01*
X221240615Y-114356407D01*
X222353449Y-114919433D01*
X223435766Y-115511527D01*
X224481999Y-116129027D01*
X225496768Y-116773864D01*
X227443105Y-118151172D01*
X229279350Y-119643958D01*
X231017600Y-121260757D01*
X232666414Y-123010499D01*
X234235123Y-124906578D01*
X234789874Y-125639063D01*
X235546600Y-126696525D01*
X236283885Y-127799336D01*
X236962996Y-128889020D01*
X237617883Y-130019214D01*
X238216199Y-131133453D01*
X238786337Y-132283564D01*
X239302397Y-133416527D01*
X239787343Y-134581601D01*
X240221043Y-135729531D01*
X240621360Y-136906387D01*
X240973189Y-138066928D01*
X241289819Y-139253722D01*
X241560471Y-140425584D01*
X241794428Y-141621469D01*
X241984521Y-142804162D01*
X242136613Y-144009094D01*
X242246518Y-145202837D01*
X242317229Y-146417204D01*
X242346913Y-147622592D01*
X242336250Y-148847309D01*
X242285233Y-150065324D01*
X242192744Y-151300656D01*
X242010423Y-152916692D01*
X241586263Y-155488014D01*
X241023839Y-157940743D01*
X240326313Y-160285663D01*
X239495642Y-162531798D01*
X238532219Y-164687568D01*
X237434837Y-166760972D01*
X236200633Y-168759454D01*
X234825092Y-170689863D01*
X233301864Y-172558564D01*
X231622486Y-174371732D01*
X229921210Y-176004211D01*
X228912251Y-176893048D01*
X227861987Y-177761557D01*
X226838065Y-178554901D01*
X225777593Y-179323287D01*
X224737782Y-180026144D01*
X223663940Y-180701566D01*
X222606061Y-181318767D01*
X221516156Y-181906577D01*
X220438202Y-182441747D01*
X219329670Y-182945983D01*
X218229301Y-183401933D01*
X217099592Y-183825527D01*
X215974434Y-184204167D01*
X214820871Y-184549124D01*
X213668351Y-184851571D01*
X212488062Y-185119076D01*
X211305471Y-185345677D01*
X210095541Y-185536034D01*
X208879945Y-185686421D01*
X207637355Y-185799200D01*
X206385757Y-185872277D01*
X205105664Y-185906326D01*
X204661948Y-185908739D01*
X202108019Y-185830724D01*
X199639087Y-185600325D01*
X197245703Y-185221428D01*
X194922864Y-184696966D01*
X192665877Y-184028707D01*
X190470489Y-183217367D01*
X188332983Y-182262594D01*
X186250296Y-181163114D01*
X184220064Y-179916823D01*
X182240729Y-178520989D01*
X180309846Y-176971001D01*
X179308594Y-176087845D01*
X178322537Y-175162652D01*
X177923296Y-174764269D01*
X192222900Y-174764269D01*
X192310558Y-174976417D01*
X192472729Y-175138871D01*
X192684724Y-175226900D01*
X192914269Y-175227100D01*
X193126417Y-175139442D01*
X193264099Y-175002000D01*
X216925736Y-175002000D01*
X217070008Y-174973303D01*
X217192315Y-174891579D01*
X217596399Y-174487495D01*
X217622729Y-174513871D01*
X217714757Y-174552085D01*
X217093841Y-175173001D01*
X215849999Y-175173001D01*
X215705727Y-175201698D01*
X215668010Y-175226900D01*
X215598953Y-175273042D01*
X215435731Y-175272900D01*
X215223583Y-175360558D01*
X215061129Y-175522729D01*
X214973100Y-175734724D01*
X214972900Y-175964269D01*
X215060558Y-176176417D01*
X215222729Y-176338871D01*
X215434724Y-176426900D01*
X215664269Y-176427100D01*
X215876417Y-176339442D01*
X216038871Y-176177271D01*
X216126900Y-175965276D01*
X216126933Y-175927001D01*
X217249999Y-175927001D01*
X217394271Y-175898304D01*
X217516578Y-175816580D01*
X231316580Y-162016579D01*
X231316582Y-162016576D01*
X231681196Y-161651962D01*
X231839269Y-161652100D01*
X232051417Y-161564442D01*
X232213871Y-161402271D01*
X232301900Y-161190276D01*
X232302100Y-160960731D01*
X232214442Y-160748583D01*
X232068131Y-160602016D01*
X232164269Y-160602100D01*
X232376417Y-160514442D01*
X232538871Y-160352271D01*
X232626900Y-160140276D01*
X232627100Y-159910731D01*
X232539442Y-159698583D01*
X232377271Y-159536129D01*
X232165276Y-159448100D01*
X231935731Y-159447900D01*
X231723583Y-159535558D01*
X231595005Y-159663912D01*
X231530728Y-159676697D01*
X231408421Y-159758421D01*
X230268842Y-160898000D01*
X228300000Y-160898000D01*
X228155728Y-160926697D01*
X228033421Y-161008421D01*
X216693841Y-172348001D01*
X216449999Y-172348001D01*
X216305727Y-172376698D01*
X216256738Y-172409432D01*
X216198953Y-172448042D01*
X216035731Y-172447900D01*
X215823583Y-172535558D01*
X215661129Y-172697729D01*
X215573100Y-172909724D01*
X215572900Y-173139269D01*
X215660558Y-173351417D01*
X215822729Y-173513871D01*
X216034724Y-173601900D01*
X216264269Y-173602100D01*
X216476417Y-173514442D01*
X216638871Y-173352271D01*
X216726900Y-173140276D01*
X216726933Y-173102001D01*
X216849999Y-173102001D01*
X216994271Y-173073304D01*
X217116578Y-172991580D01*
X228456158Y-161652000D01*
X230425000Y-161652000D01*
X230569272Y-161623303D01*
X230691579Y-161541579D01*
X231147991Y-161085167D01*
X231147961Y-161118881D01*
X230783424Y-161483418D01*
X230783421Y-161483420D01*
X218477106Y-173789736D01*
X218439442Y-173698583D01*
X218277271Y-173536129D01*
X218065276Y-173448100D01*
X217835731Y-173447900D01*
X217623583Y-173535558D01*
X217507264Y-173651674D01*
X217381464Y-173676697D01*
X217259157Y-173758421D01*
X216769578Y-174248000D01*
X193213991Y-174248000D01*
X193127271Y-174161129D01*
X192915276Y-174073100D01*
X192685731Y-174072900D01*
X192473583Y-174160558D01*
X192311129Y-174322729D01*
X192223100Y-174534724D01*
X192222900Y-174764269D01*
X177923296Y-174764269D01*
X177364233Y-174206408D01*
X176476468Y-173263162D01*
X175617264Y-172289886D01*
X174819672Y-171325177D01*
X174051224Y-170331137D01*
X173337490Y-169341762D01*
X172653421Y-168323482D01*
X172018584Y-167306126D01*
X171414012Y-166260156D01*
X170854396Y-165211441D01*
X170325690Y-164134202D01*
X169838699Y-163050600D01*
X169383332Y-161938357D01*
X168967323Y-160816076D01*
X168583808Y-159664989D01*
X168238077Y-158500113D01*
X167925820Y-157305986D01*
X167650527Y-156094346D01*
X167410029Y-154853945D01*
X167136193Y-153089552D01*
X166886647Y-150629688D01*
X166798879Y-148275000D01*
X168467574Y-148275000D01*
X168467574Y-149675000D01*
X168486889Y-149777650D01*
X168547555Y-149871927D01*
X168640120Y-149935175D01*
X168750000Y-149957426D01*
X170550000Y-149957426D01*
X170652650Y-149938111D01*
X170746927Y-149877445D01*
X170810175Y-149784880D01*
X170832426Y-149675000D01*
X170832426Y-149590584D01*
X186108419Y-164866578D01*
X186229796Y-164947680D01*
X186230727Y-164948302D01*
X186374999Y-164976999D01*
X188597070Y-164976999D01*
X188573100Y-165034724D01*
X188572900Y-165264269D01*
X188660558Y-165476417D01*
X188773000Y-165589055D01*
X188773000Y-169443842D01*
X186618804Y-171598038D01*
X186460731Y-171597900D01*
X186248583Y-171685558D01*
X186086129Y-171847729D01*
X185998100Y-172059724D01*
X185997900Y-172289269D01*
X186085558Y-172501417D01*
X186247729Y-172663871D01*
X186459724Y-172751900D01*
X186689269Y-172752100D01*
X186901417Y-172664442D01*
X187063871Y-172502271D01*
X187151900Y-172290276D01*
X187152039Y-172131119D01*
X189416579Y-169866579D01*
X189498303Y-169744272D01*
X189527000Y-169600000D01*
X189527000Y-168589269D01*
X192797900Y-168589269D01*
X192885558Y-168801417D01*
X192998000Y-168914055D01*
X192998000Y-170450000D01*
X193026697Y-170594272D01*
X193108421Y-170716579D01*
X193673038Y-171281196D01*
X193672900Y-171439269D01*
X193760558Y-171651417D01*
X193922729Y-171813871D01*
X194134724Y-171901900D01*
X194364269Y-171902100D01*
X194576417Y-171814442D01*
X194738871Y-171652271D01*
X194826900Y-171440276D01*
X194827100Y-171210731D01*
X194739442Y-170998583D01*
X194577271Y-170836129D01*
X194424471Y-170772680D01*
X199575144Y-170772680D01*
X199575144Y-172372680D01*
X199594459Y-172475330D01*
X199655125Y-172569607D01*
X199747690Y-172632855D01*
X199857570Y-172655106D01*
X202037570Y-172655106D01*
X202140220Y-172635791D01*
X202234497Y-172575125D01*
X202297745Y-172482560D01*
X202319996Y-172372680D01*
X202319996Y-171863070D01*
X208427430Y-171863070D01*
X208427430Y-172503630D01*
X208524103Y-172737019D01*
X208702732Y-172915647D01*
X208936121Y-173012320D01*
X209866680Y-173012320D01*
X210025430Y-172853570D01*
X210025430Y-171704320D01*
X210279430Y-171704320D01*
X210279430Y-172853570D01*
X210438180Y-173012320D01*
X211368739Y-173012320D01*
X211602128Y-172915647D01*
X211780757Y-172737019D01*
X211877430Y-172503630D01*
X211877430Y-171863070D01*
X211718680Y-171704320D01*
X210279430Y-171704320D01*
X210025430Y-171704320D01*
X208586180Y-171704320D01*
X208427430Y-171863070D01*
X202319996Y-171863070D01*
X202319996Y-170772680D01*
X202300681Y-170670030D01*
X202288442Y-170651010D01*
X208427430Y-170651010D01*
X208427430Y-171291570D01*
X208586180Y-171450320D01*
X210025430Y-171450320D01*
X210025430Y-170301070D01*
X210279430Y-170301070D01*
X210279430Y-171450320D01*
X211718680Y-171450320D01*
X211877430Y-171291570D01*
X211877430Y-170651010D01*
X211780757Y-170417621D01*
X211602128Y-170238993D01*
X211368739Y-170142320D01*
X210438180Y-170142320D01*
X210279430Y-170301070D01*
X210025430Y-170301070D01*
X209866680Y-170142320D01*
X208936121Y-170142320D01*
X208702732Y-170238993D01*
X208524103Y-170417621D01*
X208427430Y-170651010D01*
X202288442Y-170651010D01*
X202240015Y-170575753D01*
X202147450Y-170512505D01*
X202037570Y-170490254D01*
X201324570Y-170490254D01*
X201324570Y-166441373D01*
X201438871Y-166327271D01*
X201526900Y-166115276D01*
X201527100Y-165885731D01*
X201439442Y-165673583D01*
X201277271Y-165511129D01*
X201065276Y-165423100D01*
X200835731Y-165422900D01*
X200623583Y-165510558D01*
X200461129Y-165672729D01*
X200373100Y-165884724D01*
X200372900Y-166114269D01*
X200460558Y-166326417D01*
X200570570Y-166436621D01*
X200570570Y-170490254D01*
X199857570Y-170490254D01*
X199754920Y-170509569D01*
X199660643Y-170570235D01*
X199597395Y-170662800D01*
X199575144Y-170772680D01*
X194424471Y-170772680D01*
X194365276Y-170748100D01*
X194206119Y-170747961D01*
X193752000Y-170293842D01*
X193752000Y-168913947D01*
X193863871Y-168802271D01*
X193951900Y-168590276D01*
X193952100Y-168360731D01*
X193864442Y-168148583D01*
X193702271Y-167986129D01*
X193490276Y-167898100D01*
X193260731Y-167897900D01*
X193048583Y-167985558D01*
X192886129Y-168147729D01*
X192798100Y-168359724D01*
X192797900Y-168589269D01*
X189527000Y-168589269D01*
X189527000Y-165588947D01*
X189638871Y-165477271D01*
X189726900Y-165265276D01*
X189727100Y-165035731D01*
X189702832Y-164976999D01*
X191668841Y-164976999D01*
X194348038Y-167656197D01*
X194347900Y-167814269D01*
X194435558Y-168026417D01*
X194597729Y-168188871D01*
X194809724Y-168276900D01*
X195039269Y-168277100D01*
X195251417Y-168189442D01*
X195413871Y-168027271D01*
X195501900Y-167815276D01*
X195502100Y-167585731D01*
X195414442Y-167373583D01*
X195252271Y-167211129D01*
X195040276Y-167123100D01*
X194881120Y-167122961D01*
X192091578Y-164333420D01*
X191969271Y-164251696D01*
X191824999Y-164222999D01*
X186531158Y-164222999D01*
X177488372Y-155180213D01*
X203599392Y-155180213D01*
X203668857Y-155422397D01*
X204192302Y-155609144D01*
X204747368Y-155581362D01*
X205131143Y-155422397D01*
X205200608Y-155180213D01*
X204400000Y-154379605D01*
X203599392Y-155180213D01*
X177488372Y-155180213D01*
X176300461Y-153992302D01*
X202990856Y-153992302D01*
X203018638Y-154547368D01*
X203177603Y-154931143D01*
X203419787Y-155000608D01*
X204220395Y-154200000D01*
X204579605Y-154200000D01*
X205380213Y-155000608D01*
X205622397Y-154931143D01*
X205809144Y-154407698D01*
X205781362Y-153852632D01*
X205622397Y-153468857D01*
X205380213Y-153399392D01*
X204579605Y-154200000D01*
X204220395Y-154200000D01*
X203419787Y-153399392D01*
X203177603Y-153468857D01*
X202990856Y-153992302D01*
X176300461Y-153992302D01*
X175527946Y-153219787D01*
X203599392Y-153219787D01*
X204400000Y-154020395D01*
X205200608Y-153219787D01*
X205131143Y-152977603D01*
X204607698Y-152790856D01*
X204052632Y-152818638D01*
X203668857Y-152977603D01*
X203599392Y-153219787D01*
X175527946Y-153219787D01*
X171016579Y-148708421D01*
X170894272Y-148626697D01*
X170832426Y-148614395D01*
X170832426Y-148275000D01*
X170813111Y-148172350D01*
X170752445Y-148078073D01*
X170659880Y-148014825D01*
X170550000Y-147992574D01*
X168750000Y-147992574D01*
X168647350Y-148011889D01*
X168553073Y-148072555D01*
X168489825Y-148165120D01*
X168467574Y-148275000D01*
X166798879Y-148275000D01*
X166796297Y-148205740D01*
X166857883Y-145960750D01*
X168115000Y-145960750D01*
X168115000Y-146501309D01*
X168211673Y-146734698D01*
X168390301Y-146913327D01*
X168623690Y-147010000D01*
X169364250Y-147010000D01*
X169523000Y-146851250D01*
X169523000Y-145802000D01*
X169777000Y-145802000D01*
X169777000Y-146851250D01*
X169935750Y-147010000D01*
X170676310Y-147010000D01*
X170909699Y-146913327D01*
X171088327Y-146734698D01*
X171185000Y-146501309D01*
X171185000Y-145960750D01*
X171026250Y-145802000D01*
X169777000Y-145802000D01*
X169523000Y-145802000D01*
X168273750Y-145802000D01*
X168115000Y-145960750D01*
X166857883Y-145960750D01*
X166861914Y-145813822D01*
X166951587Y-144848691D01*
X168115000Y-144848691D01*
X168115000Y-145389250D01*
X168273750Y-145548000D01*
X169523000Y-145548000D01*
X169523000Y-144498750D01*
X169777000Y-144498750D01*
X169777000Y-145548000D01*
X171026250Y-145548000D01*
X171185000Y-145389250D01*
X171185000Y-144975000D01*
X173267574Y-144975000D01*
X173267574Y-146375000D01*
X173286889Y-146477650D01*
X173347555Y-146571927D01*
X173440120Y-146635175D01*
X173550000Y-146657426D01*
X174089395Y-146657426D01*
X174101697Y-146719272D01*
X174183421Y-146841579D01*
X175334416Y-147992574D01*
X173550000Y-147992574D01*
X173447350Y-148011889D01*
X173353073Y-148072555D01*
X173289825Y-148165120D01*
X173267574Y-148275000D01*
X173267574Y-149675000D01*
X173286889Y-149777650D01*
X173347555Y-149871927D01*
X173440120Y-149935175D01*
X173550000Y-149957426D01*
X175350000Y-149957426D01*
X175452650Y-149938111D01*
X175546927Y-149877445D01*
X175610175Y-149784880D01*
X175632426Y-149675000D01*
X175632426Y-149452000D01*
X175677420Y-149452000D01*
X177672915Y-151447495D01*
X177672900Y-151464269D01*
X177760558Y-151676417D01*
X177922729Y-151838871D01*
X178134724Y-151926900D01*
X178364269Y-151927100D01*
X178576417Y-151839442D01*
X178588881Y-151827000D01*
X186175000Y-151827000D01*
X186357540Y-151790691D01*
X186512290Y-151687290D01*
X187787290Y-150412290D01*
X187890691Y-150257541D01*
X187927000Y-150075000D01*
X187927000Y-149957426D01*
X188350000Y-149957426D01*
X188452650Y-149938111D01*
X188546927Y-149877445D01*
X188610175Y-149784880D01*
X188632426Y-149675000D01*
X188632426Y-149452000D01*
X192077420Y-149452000D01*
X194462710Y-151837290D01*
X194617460Y-151940691D01*
X194800000Y-151977000D01*
X196625000Y-151977000D01*
X196807540Y-151940691D01*
X196962290Y-151837290D01*
X199267574Y-149532006D01*
X199267574Y-149675000D01*
X199286889Y-149777650D01*
X199347555Y-149871927D01*
X199440120Y-149935175D01*
X199550000Y-149957426D01*
X201350000Y-149957426D01*
X201452650Y-149938111D01*
X201546927Y-149877445D01*
X201610175Y-149784880D01*
X201632426Y-149675000D01*
X201632426Y-149532006D01*
X203962710Y-151862290D01*
X204117460Y-151965691D01*
X204300000Y-152002000D01*
X209600000Y-152002000D01*
X209782540Y-151965691D01*
X209937290Y-151862290D01*
X212267574Y-149532006D01*
X212267574Y-149675000D01*
X212286889Y-149777650D01*
X212347555Y-149871927D01*
X212440120Y-149935175D01*
X212550000Y-149957426D01*
X214350000Y-149957426D01*
X214452650Y-149938111D01*
X214546927Y-149877445D01*
X214610175Y-149784880D01*
X214632426Y-149675000D01*
X214632426Y-149532006D01*
X217687710Y-152587290D01*
X217842459Y-152690691D01*
X218025000Y-152727000D01*
X221875000Y-152727000D01*
X222057540Y-152690691D01*
X222212290Y-152587290D01*
X225267574Y-149532006D01*
X225267574Y-149675000D01*
X225286889Y-149777650D01*
X225347555Y-149871927D01*
X225440120Y-149935175D01*
X225550000Y-149957426D01*
X227350000Y-149957426D01*
X227452650Y-149938111D01*
X227546927Y-149877445D01*
X227610175Y-149784880D01*
X227632426Y-149675000D01*
X227632426Y-149532006D01*
X230248000Y-152147580D01*
X230248000Y-154000000D01*
X230284309Y-154182540D01*
X230387710Y-154337290D01*
X230622915Y-154572495D01*
X230622900Y-154589269D01*
X230710558Y-154801417D01*
X230872729Y-154963871D01*
X231084724Y-155051900D01*
X231314269Y-155052100D01*
X231526417Y-154964442D01*
X231688871Y-154802271D01*
X231776900Y-154590276D01*
X231777100Y-154360731D01*
X231689442Y-154148583D01*
X231527271Y-153986129D01*
X231315276Y-153898100D01*
X231297665Y-153898085D01*
X231202000Y-153802420D01*
X231202000Y-152427000D01*
X235175000Y-152427000D01*
X235357540Y-152390691D01*
X235512290Y-152287290D01*
X238267574Y-149532006D01*
X238267574Y-149675000D01*
X238286889Y-149777650D01*
X238347555Y-149871927D01*
X238440120Y-149935175D01*
X238550000Y-149957426D01*
X240350000Y-149957426D01*
X240452650Y-149938111D01*
X240546927Y-149877445D01*
X240610175Y-149784880D01*
X240632426Y-149675000D01*
X240632426Y-148275000D01*
X240613111Y-148172350D01*
X240552445Y-148078073D01*
X240459880Y-148014825D01*
X240350000Y-147992574D01*
X238550000Y-147992574D01*
X238447350Y-148011889D01*
X238353073Y-148072555D01*
X238289825Y-148165120D01*
X238267574Y-148275000D01*
X238267574Y-148498000D01*
X238150000Y-148498000D01*
X237967459Y-148534309D01*
X237812710Y-148637710D01*
X234977420Y-151473000D01*
X230922580Y-151473000D01*
X228087290Y-148637710D01*
X227932540Y-148534309D01*
X227750000Y-148498000D01*
X227632426Y-148498000D01*
X227632426Y-148275000D01*
X227613111Y-148172350D01*
X227552445Y-148078073D01*
X227459880Y-148014825D01*
X227350000Y-147992574D01*
X225550000Y-147992574D01*
X225447350Y-148011889D01*
X225353073Y-148072555D01*
X225289825Y-148165120D01*
X225267574Y-148275000D01*
X225267574Y-148498000D01*
X225150000Y-148498000D01*
X224967459Y-148534309D01*
X224812710Y-148637710D01*
X221677420Y-151773000D01*
X218222580Y-151773000D01*
X215087290Y-148637710D01*
X214932540Y-148534309D01*
X214750000Y-148498000D01*
X214632426Y-148498000D01*
X214632426Y-148275000D01*
X214613111Y-148172350D01*
X214552445Y-148078073D01*
X214459880Y-148014825D01*
X214350000Y-147992574D01*
X212550000Y-147992574D01*
X212447350Y-148011889D01*
X212353073Y-148072555D01*
X212289825Y-148165120D01*
X212267574Y-148275000D01*
X212267574Y-148498000D01*
X212150000Y-148498000D01*
X211967460Y-148534309D01*
X211812710Y-148637710D01*
X209402420Y-151048000D01*
X204497580Y-151048000D01*
X202087290Y-148637710D01*
X201932540Y-148534309D01*
X201750000Y-148498000D01*
X201632426Y-148498000D01*
X201632426Y-148275000D01*
X201613111Y-148172350D01*
X201552445Y-148078073D01*
X201459880Y-148014825D01*
X201350000Y-147992574D01*
X199550000Y-147992574D01*
X199447350Y-148011889D01*
X199353073Y-148072555D01*
X199289825Y-148165120D01*
X199267574Y-148275000D01*
X199267574Y-148498000D01*
X199150000Y-148498000D01*
X198967460Y-148534309D01*
X198812710Y-148637710D01*
X196427420Y-151023000D01*
X194997580Y-151023000D01*
X192612290Y-148637710D01*
X192457540Y-148534309D01*
X192275000Y-148498000D01*
X188632426Y-148498000D01*
X188632426Y-148275000D01*
X188613111Y-148172350D01*
X188552445Y-148078073D01*
X188459880Y-148014825D01*
X188350000Y-147992574D01*
X186550000Y-147992574D01*
X186447350Y-148011889D01*
X186353073Y-148072555D01*
X186289825Y-148165120D01*
X186267574Y-148275000D01*
X186267574Y-149675000D01*
X186286889Y-149777650D01*
X186347555Y-149871927D01*
X186440120Y-149935175D01*
X186550000Y-149957426D01*
X186892994Y-149957426D01*
X185977420Y-150873000D01*
X178589121Y-150873000D01*
X178577271Y-150861129D01*
X178365276Y-150773100D01*
X178347665Y-150773085D01*
X176926580Y-149352000D01*
X181467574Y-149352000D01*
X181467574Y-149675000D01*
X181486889Y-149777650D01*
X181547555Y-149871927D01*
X181640120Y-149935175D01*
X181750000Y-149957426D01*
X183550000Y-149957426D01*
X183652650Y-149938111D01*
X183746927Y-149877445D01*
X183810175Y-149784880D01*
X183832426Y-149675000D01*
X183832426Y-148275000D01*
X183813111Y-148172350D01*
X183752445Y-148078073D01*
X183659880Y-148014825D01*
X183550000Y-147992574D01*
X181750000Y-147992574D01*
X181647350Y-148011889D01*
X181553073Y-148072555D01*
X181489825Y-148165120D01*
X181467574Y-148275000D01*
X181467574Y-148598000D01*
X177006159Y-148598000D01*
X175065584Y-146657426D01*
X175350000Y-146657426D01*
X175452650Y-146638111D01*
X175546927Y-146577445D01*
X175610175Y-146484880D01*
X175632426Y-146375000D01*
X175632426Y-145960750D01*
X181115000Y-145960750D01*
X181115000Y-146501309D01*
X181211673Y-146734698D01*
X181390301Y-146913327D01*
X181623690Y-147010000D01*
X182364250Y-147010000D01*
X182523000Y-146851250D01*
X182523000Y-145802000D01*
X182777000Y-145802000D01*
X182777000Y-146851250D01*
X182935750Y-147010000D01*
X183676310Y-147010000D01*
X183909699Y-146913327D01*
X184088327Y-146734698D01*
X184185000Y-146501309D01*
X184185000Y-145960750D01*
X184026250Y-145802000D01*
X182777000Y-145802000D01*
X182523000Y-145802000D01*
X181273750Y-145802000D01*
X181115000Y-145960750D01*
X175632426Y-145960750D01*
X175632426Y-144975000D01*
X175613111Y-144872350D01*
X175597887Y-144848691D01*
X181115000Y-144848691D01*
X181115000Y-145389250D01*
X181273750Y-145548000D01*
X182523000Y-145548000D01*
X182523000Y-144498750D01*
X182777000Y-144498750D01*
X182777000Y-145548000D01*
X184026250Y-145548000D01*
X184185000Y-145389250D01*
X184185000Y-144975000D01*
X186267574Y-144975000D01*
X186267574Y-146375000D01*
X186286889Y-146477650D01*
X186347555Y-146571927D01*
X186440120Y-146635175D01*
X186550000Y-146657426D01*
X188350000Y-146657426D01*
X188452650Y-146638111D01*
X188546927Y-146577445D01*
X188610175Y-146484880D01*
X188632426Y-146375000D01*
X188632426Y-146052000D01*
X193093842Y-146052000D01*
X195034415Y-147992574D01*
X194750000Y-147992574D01*
X194647350Y-148011889D01*
X194553073Y-148072555D01*
X194489825Y-148165120D01*
X194467574Y-148275000D01*
X194467574Y-149675000D01*
X194486889Y-149777650D01*
X194547555Y-149871927D01*
X194640120Y-149935175D01*
X194750000Y-149957426D01*
X196550000Y-149957426D01*
X196652650Y-149938111D01*
X196746927Y-149877445D01*
X196810175Y-149784880D01*
X196832426Y-149675000D01*
X196832426Y-148275000D01*
X196813111Y-148172350D01*
X196752445Y-148078073D01*
X196659880Y-148014825D01*
X196550000Y-147992574D01*
X196010605Y-147992574D01*
X195998303Y-147930728D01*
X195964791Y-147880574D01*
X195916580Y-147808421D01*
X195118159Y-147010000D01*
X195364250Y-147010000D01*
X195523000Y-146851250D01*
X195523000Y-145802000D01*
X195777000Y-145802000D01*
X195777000Y-146851250D01*
X195935750Y-147010000D01*
X196676310Y-147010000D01*
X196909699Y-146913327D01*
X197088327Y-146734698D01*
X197185000Y-146501309D01*
X197185000Y-145960750D01*
X197026250Y-145802000D01*
X195777000Y-145802000D01*
X195523000Y-145802000D01*
X194273750Y-145802000D01*
X194115000Y-145960750D01*
X194115000Y-146006842D01*
X193516579Y-145408421D01*
X193394272Y-145326697D01*
X193250000Y-145298000D01*
X188632426Y-145298000D01*
X188632426Y-144975000D01*
X188613111Y-144872350D01*
X188597887Y-144848691D01*
X194115000Y-144848691D01*
X194115000Y-145389250D01*
X194273750Y-145548000D01*
X195523000Y-145548000D01*
X195523000Y-144498750D01*
X195777000Y-144498750D01*
X195777000Y-145548000D01*
X197026250Y-145548000D01*
X197185000Y-145389250D01*
X197185000Y-144975000D01*
X199267574Y-144975000D01*
X199267574Y-146375000D01*
X199286889Y-146477650D01*
X199347555Y-146571927D01*
X199440120Y-146635175D01*
X199550000Y-146657426D01*
X201350000Y-146657426D01*
X201452650Y-146638111D01*
X201546927Y-146577445D01*
X201610175Y-146484880D01*
X201632426Y-146375000D01*
X201632426Y-146052000D01*
X206093842Y-146052000D01*
X208034415Y-147992574D01*
X207750000Y-147992574D01*
X207647350Y-148011889D01*
X207553073Y-148072555D01*
X207489825Y-148165120D01*
X207467574Y-148275000D01*
X207467574Y-149675000D01*
X207486889Y-149777650D01*
X207547555Y-149871927D01*
X207640120Y-149935175D01*
X207750000Y-149957426D01*
X209550000Y-149957426D01*
X209652650Y-149938111D01*
X209746927Y-149877445D01*
X209810175Y-149784880D01*
X209832426Y-149675000D01*
X209832426Y-148275000D01*
X209813111Y-148172350D01*
X209752445Y-148078073D01*
X209659880Y-148014825D01*
X209550000Y-147992574D01*
X209010605Y-147992574D01*
X208998303Y-147930728D01*
X208964791Y-147880574D01*
X208916580Y-147808421D01*
X208118159Y-147010000D01*
X208364250Y-147010000D01*
X208523000Y-146851250D01*
X208523000Y-145802000D01*
X208777000Y-145802000D01*
X208777000Y-146851250D01*
X208935750Y-147010000D01*
X209676310Y-147010000D01*
X209909699Y-146913327D01*
X210088327Y-146734698D01*
X210185000Y-146501309D01*
X210185000Y-145960750D01*
X210026250Y-145802000D01*
X208777000Y-145802000D01*
X208523000Y-145802000D01*
X207273750Y-145802000D01*
X207115000Y-145960750D01*
X207115000Y-146006842D01*
X206516579Y-145408421D01*
X206394272Y-145326697D01*
X206250000Y-145298000D01*
X201632426Y-145298000D01*
X201632426Y-144975000D01*
X201613111Y-144872350D01*
X201597887Y-144848691D01*
X207115000Y-144848691D01*
X207115000Y-145389250D01*
X207273750Y-145548000D01*
X208523000Y-145548000D01*
X208523000Y-144498750D01*
X208777000Y-144498750D01*
X208777000Y-145548000D01*
X210026250Y-145548000D01*
X210185000Y-145389250D01*
X210185000Y-144975000D01*
X212267574Y-144975000D01*
X212267574Y-146375000D01*
X212286889Y-146477650D01*
X212347555Y-146571927D01*
X212440120Y-146635175D01*
X212550000Y-146657426D01*
X214350000Y-146657426D01*
X214452650Y-146638111D01*
X214546927Y-146577445D01*
X214610175Y-146484880D01*
X214632426Y-146375000D01*
X214632426Y-146052000D01*
X219093842Y-146052000D01*
X221034415Y-147992574D01*
X220750000Y-147992574D01*
X220647350Y-148011889D01*
X220553073Y-148072555D01*
X220489825Y-148165120D01*
X220467574Y-148275000D01*
X220467574Y-149675000D01*
X220486889Y-149777650D01*
X220547555Y-149871927D01*
X220640120Y-149935175D01*
X220750000Y-149957426D01*
X222550000Y-149957426D01*
X222652650Y-149938111D01*
X222746927Y-149877445D01*
X222810175Y-149784880D01*
X222832426Y-149675000D01*
X222832426Y-148275000D01*
X222813111Y-148172350D01*
X222752445Y-148078073D01*
X222659880Y-148014825D01*
X222550000Y-147992574D01*
X222010605Y-147992574D01*
X221998303Y-147930728D01*
X221964791Y-147880574D01*
X221916580Y-147808421D01*
X221118159Y-147010000D01*
X221364250Y-147010000D01*
X221523000Y-146851250D01*
X221523000Y-145802000D01*
X221777000Y-145802000D01*
X221777000Y-146851250D01*
X221935750Y-147010000D01*
X222676310Y-147010000D01*
X222909699Y-146913327D01*
X223088327Y-146734698D01*
X223185000Y-146501309D01*
X223185000Y-145960750D01*
X223026250Y-145802000D01*
X221777000Y-145802000D01*
X221523000Y-145802000D01*
X220273750Y-145802000D01*
X220115000Y-145960750D01*
X220115000Y-146006842D01*
X219516579Y-145408421D01*
X219394272Y-145326697D01*
X219250000Y-145298000D01*
X214632426Y-145298000D01*
X214632426Y-144975000D01*
X214613111Y-144872350D01*
X214597887Y-144848691D01*
X220115000Y-144848691D01*
X220115000Y-145389250D01*
X220273750Y-145548000D01*
X221523000Y-145548000D01*
X221523000Y-144498750D01*
X221777000Y-144498750D01*
X221777000Y-145548000D01*
X223026250Y-145548000D01*
X223185000Y-145389250D01*
X223185000Y-144975000D01*
X225267574Y-144975000D01*
X225267574Y-146375000D01*
X225286889Y-146477650D01*
X225347555Y-146571927D01*
X225440120Y-146635175D01*
X225550000Y-146657426D01*
X227350000Y-146657426D01*
X227452650Y-146638111D01*
X227546927Y-146577445D01*
X227610175Y-146484880D01*
X227632426Y-146375000D01*
X227632426Y-146052000D01*
X232093842Y-146052000D01*
X234034415Y-147992574D01*
X233750000Y-147992574D01*
X233647350Y-148011889D01*
X233553073Y-148072555D01*
X233489825Y-148165120D01*
X233467574Y-148275000D01*
X233467574Y-149675000D01*
X233486889Y-149777650D01*
X233547555Y-149871927D01*
X233640120Y-149935175D01*
X233750000Y-149957426D01*
X235550000Y-149957426D01*
X235652650Y-149938111D01*
X235746927Y-149877445D01*
X235810175Y-149784880D01*
X235832426Y-149675000D01*
X235832426Y-148275000D01*
X235813111Y-148172350D01*
X235752445Y-148078073D01*
X235659880Y-148014825D01*
X235550000Y-147992574D01*
X235010605Y-147992574D01*
X234998303Y-147930728D01*
X234964791Y-147880574D01*
X234916580Y-147808421D01*
X234118159Y-147010000D01*
X234364250Y-147010000D01*
X234523000Y-146851250D01*
X234523000Y-145802000D01*
X234777000Y-145802000D01*
X234777000Y-146851250D01*
X234935750Y-147010000D01*
X235676310Y-147010000D01*
X235909699Y-146913327D01*
X236088327Y-146734698D01*
X236185000Y-146501309D01*
X236185000Y-145960750D01*
X236026250Y-145802000D01*
X234777000Y-145802000D01*
X234523000Y-145802000D01*
X233273750Y-145802000D01*
X233115000Y-145960750D01*
X233115000Y-146006842D01*
X232516579Y-145408421D01*
X232394272Y-145326697D01*
X232250000Y-145298000D01*
X227632426Y-145298000D01*
X227632426Y-144975000D01*
X227613111Y-144872350D01*
X227597887Y-144848691D01*
X233115000Y-144848691D01*
X233115000Y-145389250D01*
X233273750Y-145548000D01*
X234523000Y-145548000D01*
X234523000Y-144498750D01*
X234777000Y-144498750D01*
X234777000Y-145548000D01*
X236026250Y-145548000D01*
X236185000Y-145389250D01*
X236185000Y-144975000D01*
X238267574Y-144975000D01*
X238267574Y-146375000D01*
X238286889Y-146477650D01*
X238347555Y-146571927D01*
X238440120Y-146635175D01*
X238550000Y-146657426D01*
X240350000Y-146657426D01*
X240452650Y-146638111D01*
X240546927Y-146577445D01*
X240610175Y-146484880D01*
X240632426Y-146375000D01*
X240632426Y-144975000D01*
X240613111Y-144872350D01*
X240552445Y-144778073D01*
X240459880Y-144714825D01*
X240350000Y-144692574D01*
X238550000Y-144692574D01*
X238447350Y-144711889D01*
X238353073Y-144772555D01*
X238289825Y-144865120D01*
X238267574Y-144975000D01*
X236185000Y-144975000D01*
X236185000Y-144848691D01*
X236088327Y-144615302D01*
X235909699Y-144436673D01*
X235676310Y-144340000D01*
X234935750Y-144340000D01*
X234777000Y-144498750D01*
X234523000Y-144498750D01*
X234364250Y-144340000D01*
X233623690Y-144340000D01*
X233390301Y-144436673D01*
X233211673Y-144615302D01*
X233115000Y-144848691D01*
X227597887Y-144848691D01*
X227552445Y-144778073D01*
X227459880Y-144714825D01*
X227350000Y-144692574D01*
X225550000Y-144692574D01*
X225447350Y-144711889D01*
X225353073Y-144772555D01*
X225289825Y-144865120D01*
X225267574Y-144975000D01*
X223185000Y-144975000D01*
X223185000Y-144848691D01*
X223088327Y-144615302D01*
X222909699Y-144436673D01*
X222676310Y-144340000D01*
X221935750Y-144340000D01*
X221777000Y-144498750D01*
X221523000Y-144498750D01*
X221364250Y-144340000D01*
X220623690Y-144340000D01*
X220390301Y-144436673D01*
X220211673Y-144615302D01*
X220115000Y-144848691D01*
X214597887Y-144848691D01*
X214552445Y-144778073D01*
X214459880Y-144714825D01*
X214350000Y-144692574D01*
X212550000Y-144692574D01*
X212447350Y-144711889D01*
X212353073Y-144772555D01*
X212289825Y-144865120D01*
X212267574Y-144975000D01*
X210185000Y-144975000D01*
X210185000Y-144848691D01*
X210088327Y-144615302D01*
X209909699Y-144436673D01*
X209676310Y-144340000D01*
X208935750Y-144340000D01*
X208777000Y-144498750D01*
X208523000Y-144498750D01*
X208364250Y-144340000D01*
X207623690Y-144340000D01*
X207390301Y-144436673D01*
X207211673Y-144615302D01*
X207115000Y-144848691D01*
X201597887Y-144848691D01*
X201552445Y-144778073D01*
X201459880Y-144714825D01*
X201350000Y-144692574D01*
X199550000Y-144692574D01*
X199447350Y-144711889D01*
X199353073Y-144772555D01*
X199289825Y-144865120D01*
X199267574Y-144975000D01*
X197185000Y-144975000D01*
X197185000Y-144848691D01*
X197088327Y-144615302D01*
X196909699Y-144436673D01*
X196676310Y-144340000D01*
X195935750Y-144340000D01*
X195777000Y-144498750D01*
X195523000Y-144498750D01*
X195364250Y-144340000D01*
X194623690Y-144340000D01*
X194390301Y-144436673D01*
X194211673Y-144615302D01*
X194115000Y-144848691D01*
X188597887Y-144848691D01*
X188552445Y-144778073D01*
X188459880Y-144714825D01*
X188350000Y-144692574D01*
X186550000Y-144692574D01*
X186447350Y-144711889D01*
X186353073Y-144772555D01*
X186289825Y-144865120D01*
X186267574Y-144975000D01*
X184185000Y-144975000D01*
X184185000Y-144848691D01*
X184088327Y-144615302D01*
X183909699Y-144436673D01*
X183676310Y-144340000D01*
X182935750Y-144340000D01*
X182777000Y-144498750D01*
X182523000Y-144498750D01*
X182364250Y-144340000D01*
X181623690Y-144340000D01*
X181390301Y-144436673D01*
X181211673Y-144615302D01*
X181115000Y-144848691D01*
X175597887Y-144848691D01*
X175552445Y-144778073D01*
X175459880Y-144714825D01*
X175350000Y-144692574D01*
X173550000Y-144692574D01*
X173447350Y-144711889D01*
X173353073Y-144772555D01*
X173289825Y-144865120D01*
X173267574Y-144975000D01*
X171185000Y-144975000D01*
X171185000Y-144848691D01*
X171088327Y-144615302D01*
X170909699Y-144436673D01*
X170676310Y-144340000D01*
X169935750Y-144340000D01*
X169777000Y-144498750D01*
X169523000Y-144498750D01*
X169364250Y-144340000D01*
X168623690Y-144340000D01*
X168390301Y-144436673D01*
X168211673Y-144615302D01*
X168115000Y-144848691D01*
X166951587Y-144848691D01*
X167081359Y-143452009D01*
X167453277Y-141119010D01*
X167977007Y-138814129D01*
X168652357Y-136537808D01*
X169479339Y-134291684D01*
X169861291Y-133427897D01*
X217222939Y-133427897D01*
X217416941Y-133897417D01*
X217775853Y-134256957D01*
X218245035Y-134451778D01*
X218753057Y-134452221D01*
X219054826Y-134327532D01*
X225126913Y-134327532D01*
X225225576Y-134594387D01*
X225835301Y-134820908D01*
X226485300Y-134796856D01*
X226974104Y-134594387D01*
X227072767Y-134327532D01*
X226099840Y-133354605D01*
X225126913Y-134327532D01*
X219054826Y-134327532D01*
X219222577Y-134258219D01*
X219582117Y-133899307D01*
X219776938Y-133430125D01*
X219777381Y-132922103D01*
X219772571Y-132910461D01*
X224453932Y-132910461D01*
X224477984Y-133560460D01*
X224680453Y-134049264D01*
X224947308Y-134147927D01*
X225920235Y-133175000D01*
X226279445Y-133175000D01*
X227252372Y-134147927D01*
X227519227Y-134049264D01*
X227745748Y-133439539D01*
X227721696Y-132789540D01*
X227519227Y-132300736D01*
X227252372Y-132202073D01*
X226279445Y-133175000D01*
X225920235Y-133175000D01*
X224947308Y-132202073D01*
X224680453Y-132300736D01*
X224453932Y-132910461D01*
X219772571Y-132910461D01*
X219583379Y-132452583D01*
X219224467Y-132093043D01*
X219054504Y-132022468D01*
X225126913Y-132022468D01*
X226099840Y-132995395D01*
X227072767Y-132022468D01*
X226974104Y-131755613D01*
X226364379Y-131529092D01*
X225714380Y-131553144D01*
X225225576Y-131755613D01*
X225126913Y-132022468D01*
X219054504Y-132022468D01*
X218755285Y-131898222D01*
X218247263Y-131897779D01*
X217777743Y-132091781D01*
X217418203Y-132450693D01*
X217223382Y-132919875D01*
X217222939Y-133427897D01*
X169861291Y-133427897D01*
X170457749Y-132079008D01*
X171586624Y-129905097D01*
X172863390Y-127777952D01*
X174273985Y-125720847D01*
X175026744Y-124724042D01*
X175807209Y-123757226D01*
X176601923Y-122836211D01*
X177423138Y-121945846D01*
X178261042Y-121096133D01*
X179125747Y-120276191D01*
X180010065Y-119492502D01*
X180921584Y-118738040D01*
X181856208Y-118016112D01*
X182816372Y-117324647D01*
X184825891Y-116025030D01*
X186953779Y-114839142D01*
X189213999Y-113762686D01*
X191619675Y-112794447D01*
X194187725Y-111934024D01*
X195266654Y-111619757D01*
X195282654Y-111611432D01*
X195300344Y-111607913D01*
X195338804Y-111582215D01*
X195379837Y-111560864D01*
X195391433Y-111547049D01*
X195406431Y-111537028D01*
X195432131Y-111498565D01*
X195461868Y-111463139D01*
X195467295Y-111445939D01*
X195477316Y-111430941D01*
X195486340Y-111385572D01*
X195500257Y-111341462D01*
X195498688Y-111323494D01*
X195502207Y-111305804D01*
X195502207Y-109723191D01*
X203272805Y-109723191D01*
X203444019Y-110137560D01*
X203760772Y-110454867D01*
X204174842Y-110626804D01*
X204623191Y-110627195D01*
X205037560Y-110455981D01*
X205354867Y-110139228D01*
X205526804Y-109725158D01*
X205527195Y-109276809D01*
X205355981Y-108862440D01*
X205039228Y-108545133D01*
X204625158Y-108373196D01*
X204176809Y-108372805D01*
X203762440Y-108544019D01*
X203445133Y-108860772D01*
X203273196Y-109274842D01*
X203272805Y-109723191D01*
X195502207Y-109723191D01*
X195502207Y-105379199D01*
X195501324Y-105374762D01*
X195502086Y-105370302D01*
X195458112Y-103754651D01*
X195456449Y-102406946D01*
X195510029Y-101813627D01*
X195618926Y-101290411D01*
X195718317Y-101014246D01*
X195845565Y-100778219D01*
X195968131Y-100621563D01*
X196114392Y-100491149D01*
X196512182Y-100288614D01*
X197053530Y-100164502D01*
X197922231Y-100102341D01*
X198738986Y-100062360D01*
X198752410Y-100059000D01*
X198766221Y-100059882D01*
X199621087Y-99945884D01*
X199638803Y-99939837D01*
X199657498Y-99938908D01*
X199698694Y-99919395D01*
X199741836Y-99904670D01*
X199755889Y-99892304D01*
X199772807Y-99884291D01*
X199803401Y-99850497D01*
X199837622Y-99820385D01*
X199845873Y-99803583D01*
X199858437Y-99789705D01*
X199873770Y-99746776D01*
X199893863Y-99705859D01*
X199895056Y-99687178D01*
X199901352Y-99669550D01*
X200009258Y-98939253D01*
X200152619Y-98245043D01*
X200323165Y-97613436D01*
X200527305Y-97012002D01*
X200751493Y-96473129D01*
X200874740Y-96227407D01*
X202922735Y-96227407D01*
X203154717Y-96788846D01*
X203583894Y-97218773D01*
X204144928Y-97451735D01*
X204752407Y-97452265D01*
X205313846Y-97220283D01*
X205743773Y-96791106D01*
X205976735Y-96230072D01*
X205977265Y-95622593D01*
X205745283Y-95061154D01*
X205316106Y-94631227D01*
X204755072Y-94398265D01*
X204147593Y-94397735D01*
X203586154Y-94629717D01*
X203156227Y-95058894D01*
X202923265Y-95619928D01*
X202922735Y-96227407D01*
X200874740Y-96227407D01*
X201006009Y-95965692D01*
X201274703Y-95516632D01*
X201570772Y-95099215D01*
X201877386Y-94733627D01*
X202209113Y-94399284D01*
X202550568Y-94109654D01*
X202915846Y-93850900D01*
X203292842Y-93630834D01*
X203691439Y-93442783D01*
X204222545Y-93254290D01*
X204559829Y-93219030D01*
X205078076Y-93304065D01*
M02*
