G04 #@! TF.FileFunction,Profile,NP*
%FSLAX46Y46*%
G04 Gerber Fmt 4.6, Leading zero omitted, Abs format (unit mm)*
G04 Created by KiCad (PCBNEW 4.0.4-stable) date 12/07/16 00:40:48*
%MOMM*%
%LPD*%
G01*
G04 APERTURE LIST*
%ADD10C,0.100000*%
G04 APERTURE END LIST*
D10*
X240528868Y-135619067D02*
X240932707Y-136806277D01*
X240932707Y-136806277D02*
X241287718Y-137977313D01*
X199687132Y-98882235D02*
X199834364Y-98169284D01*
X199577864Y-99621753D02*
X199687132Y-98882235D01*
X198722998Y-99735751D02*
X199577864Y-99621753D01*
X197902571Y-99775912D02*
X198722998Y-99735751D01*
X197005034Y-99840136D02*
X197902571Y-99775912D01*
X196399778Y-99978900D02*
X197005034Y-99840136D01*
X195937086Y-100214480D02*
X196399778Y-99978900D01*
X195917433Y-100228656D02*
X195937086Y-100214480D01*
X195728643Y-100396991D02*
X195917433Y-100228656D01*
X195570913Y-100598590D02*
X195728643Y-100396991D01*
X195418898Y-100880557D02*
X195570913Y-100598590D01*
X195303465Y-101201297D02*
X195418898Y-100880557D01*
X195186049Y-101765445D02*
X195303465Y-101201297D01*
X195129431Y-102392413D02*
X195186049Y-101765445D01*
X195131117Y-103759295D02*
X195129431Y-102392413D01*
X195175207Y-105379199D02*
X195131117Y-103759295D01*
X195175207Y-108578784D02*
X195175207Y-105379199D01*
X195175207Y-111305804D02*
X195175207Y-108578784D01*
X194090033Y-111621890D02*
X195175207Y-111305804D01*
X191506575Y-112487475D02*
X194090033Y-111621890D01*
X189082533Y-113463107D02*
X191506575Y-112487475D01*
X186803717Y-114548419D02*
X189082533Y-113463107D01*
X184657332Y-115744616D02*
X186803717Y-114548419D01*
X182631926Y-117054507D02*
X184657332Y-115744616D01*
X181660635Y-117753985D02*
X182631926Y-117054507D01*
X180717344Y-118482608D02*
X181660635Y-117753985D01*
X179797316Y-119244113D02*
X180717344Y-118482608D01*
X178904730Y-120035129D02*
X179797316Y-119244113D01*
X178032072Y-120862613D02*
X178904730Y-120035129D01*
X177186461Y-121720141D02*
X178032072Y-120862613D01*
X176357885Y-122618487D02*
X177186461Y-121720141D01*
X175556135Y-123547656D02*
X176357885Y-122618487D01*
X174768972Y-124522769D02*
X175556135Y-123547656D01*
X174008535Y-125529742D02*
X174768972Y-124522769D01*
X172588118Y-127601169D02*
X174008535Y-125529742D01*
X171301062Y-129745456D02*
X172588118Y-127601169D01*
X170162825Y-131937396D02*
X171301062Y-129745456D01*
X169176069Y-134168948D02*
X170162825Y-131937396D01*
X168341856Y-136434710D02*
X169176069Y-134168948D01*
X167660490Y-138731311D02*
X168341856Y-136434710D01*
X167132040Y-141056964D02*
X167660490Y-138731311D01*
X166756750Y-143411113D02*
X167132040Y-141056964D01*
X166535330Y-145794185D02*
X166756750Y-143411113D01*
X166469130Y-148207347D02*
X166535330Y-145794185D01*
X166560263Y-150652301D02*
X166469130Y-148207347D01*
X166811735Y-153131152D02*
X166560263Y-150652301D01*
X167087843Y-154910182D02*
X166811735Y-153131152D01*
X167330496Y-156161700D02*
X167087843Y-154910182D01*
X167608122Y-157383609D02*
X167330496Y-156161700D01*
X167923063Y-158588000D02*
X167608122Y-157383609D01*
X168271864Y-159763217D02*
X167923063Y-158588000D01*
X168658819Y-160924632D02*
X168271864Y-159763217D01*
X169078634Y-162057177D02*
X168658819Y-160924632D01*
X169538168Y-163179599D02*
X169078634Y-162057177D01*
X170029699Y-164273303D02*
X169538168Y-163179599D01*
X170563292Y-165360499D02*
X170029699Y-164273303D01*
X171128119Y-166418979D02*
X170563292Y-165360499D01*
X171738241Y-167474551D02*
X171128119Y-166418979D01*
X172378904Y-168501246D02*
X171738241Y-167474551D01*
X173069098Y-169528644D02*
X172378904Y-168501246D01*
X173789198Y-170526843D02*
X173069098Y-169528644D01*
X174564253Y-171529429D02*
X173789198Y-170526843D01*
X208936987Y-98903338D02*
X208975912Y-99452426D01*
X208745146Y-97517795D02*
X208936987Y-98903338D01*
X208448370Y-96346393D02*
X208745146Y-97517795D01*
X208068045Y-95387515D02*
X208448370Y-96346393D01*
X207620077Y-94623950D02*
X208068045Y-95387515D01*
X207113150Y-94033816D02*
X207620077Y-94623950D01*
X206713560Y-93714435D02*
X207113150Y-94033816D01*
X205920332Y-93265475D02*
X206713560Y-93714435D01*
X205161749Y-92986422D02*
X205920332Y-93265475D01*
X204569471Y-92889239D02*
X205161749Y-92986422D01*
X204149847Y-92933108D02*
X204569471Y-92889239D01*
X203566679Y-93140078D02*
X204149847Y-92933108D01*
X203140364Y-93341205D02*
X203566679Y-93140078D01*
X202738569Y-93575747D02*
X203140364Y-93341205D01*
X202349913Y-93851062D02*
X202738569Y-93575747D01*
X201986876Y-94158999D02*
X202349913Y-93851062D01*
X201635626Y-94513019D02*
X201986876Y-94158999D01*
X201311712Y-94899234D02*
X201635626Y-94513019D01*
X201000631Y-95337817D02*
X201311712Y-94899234D01*
X200719160Y-95808230D02*
X201000631Y-95337817D01*
X200454016Y-96336856D02*
X200719160Y-95808230D01*
X200221174Y-96896533D02*
X200454016Y-96336856D01*
X200010176Y-97518176D02*
X200221174Y-96896533D01*
X199834364Y-98169284D02*
X200010176Y-97518176D01*
X175368605Y-172502314D02*
X174564253Y-171529429D01*
X176234785Y-173483493D02*
X175368605Y-172502314D01*
X177129629Y-174434260D02*
X176234785Y-173483493D01*
X178095106Y-175397662D02*
X177129629Y-174434260D01*
X179088499Y-176329738D02*
X178095106Y-175397662D01*
X180099211Y-177221240D02*
X179088499Y-176329738D01*
X182043959Y-178782359D02*
X180099211Y-177221240D01*
X184040121Y-180190059D02*
X182043959Y-178782359D01*
X186088263Y-181447345D02*
X184040121Y-180190059D01*
X188189825Y-182556788D02*
X186088263Y-181447345D01*
X190346991Y-183520343D02*
X188189825Y-182556788D01*
X192562674Y-184339183D02*
X190346991Y-183520343D01*
X194840353Y-185013568D02*
X192562674Y-184339183D01*
X197184065Y-185542743D02*
X194840353Y-185013568D01*
X199598280Y-185924937D02*
X197184065Y-185542743D01*
X202087828Y-186157260D02*
X199598280Y-185924937D01*
X204657827Y-186235766D02*
X202087828Y-186157260D01*
X205110891Y-186233302D02*
X204657827Y-186235766D01*
X206399649Y-186199023D02*
X205110891Y-186233302D01*
X207661657Y-186125338D02*
X206399649Y-186199023D01*
X208914824Y-186011599D02*
X207661657Y-186125338D01*
X210141050Y-185859897D02*
X208914824Y-186011599D01*
X211361670Y-185667857D02*
X210141050Y-185859897D01*
X212555006Y-185439197D02*
X211361670Y-185667857D01*
X213746023Y-185169261D02*
X212555006Y-185439197D01*
X214909231Y-184864009D02*
X213746023Y-185169261D01*
X216073477Y-184515857D02*
X214909231Y-184864009D01*
X217209173Y-184133670D02*
X216073477Y-184515857D01*
X218349333Y-183706157D02*
X217209173Y-184133670D01*
X219459990Y-183245944D02*
X218349333Y-183706157D01*
X220578634Y-182737109D02*
X219459990Y-183245944D01*
X221666533Y-182197001D02*
X220578634Y-182737109D01*
X222766134Y-181603961D02*
X221666533Y-182197001D01*
X223833418Y-180981273D02*
X222766134Y-181603961D01*
X224916433Y-180300082D02*
X223833418Y-180981273D01*
X225965139Y-179591212D02*
X224916433Y-180300082D01*
X227034185Y-178816615D02*
X225965139Y-179591212D01*
X228066366Y-178016871D02*
X227034185Y-178816615D01*
X229124571Y-177141795D02*
X228066366Y-178016871D01*
X230142576Y-176244990D02*
X229124571Y-177141795D01*
X231855848Y-174601001D02*
X230142576Y-176244990D01*
X233548796Y-172773181D02*
X231855848Y-174601001D01*
X235085249Y-170888255D02*
X233548796Y-172773181D01*
X236473188Y-168940448D02*
X235085249Y-170888255D01*
X237718763Y-166923556D02*
X236473188Y-168940448D01*
X238826323Y-164830920D02*
X237718763Y-166923556D01*
X239798597Y-162655345D02*
X238826323Y-164830920D01*
X240636702Y-160389110D02*
X239798597Y-162655345D01*
X241340239Y-158023982D02*
X240636702Y-160389110D01*
X241907255Y-155551227D02*
X241340239Y-158023982D01*
X242334425Y-152961657D02*
X241907255Y-155551227D01*
X242518370Y-151331225D02*
X242334425Y-152961657D01*
X242611723Y-150084353D02*
X242518370Y-151331225D01*
X242663191Y-148855578D02*
X242611723Y-150084353D01*
X242673948Y-147619998D02*
X242663191Y-148855578D01*
X242643995Y-146403674D02*
X242673948Y-147619998D01*
X242572645Y-145178332D02*
X242643995Y-146403674D01*
X242461729Y-143973613D02*
X242572645Y-145178332D01*
X242308256Y-142757739D02*
X242461729Y-143973613D01*
X242116407Y-141564120D02*
X242308256Y-142757739D01*
X241880323Y-140357364D02*
X242116407Y-141564120D01*
X241607191Y-139174762D02*
X241880323Y-140357364D01*
X241287718Y-137977313D02*
X241607191Y-139174762D01*
X240091322Y-134460956D02*
X240528868Y-135619067D01*
X239602217Y-133285891D02*
X240091322Y-134460956D01*
X239081694Y-132143130D02*
X239602217Y-133285891D01*
X238506804Y-130983432D02*
X239081694Y-132143130D01*
X237903471Y-129859851D02*
X238506804Y-130983432D01*
X237243300Y-128720538D02*
X237903471Y-129859851D01*
X236558622Y-127621921D02*
X237243300Y-128720538D01*
X235815550Y-126510455D02*
X236558622Y-127621921D01*
X235053221Y-125445163D02*
X235815550Y-126510455D01*
X234491560Y-124703555D02*
X235053221Y-125445163D01*
X232911634Y-122793918D02*
X234491560Y-124703555D01*
X231248198Y-121028659D02*
X232911634Y-122793918D01*
X229494078Y-119397098D02*
X231248198Y-121028659D01*
X227640905Y-117890551D02*
X229494078Y-119397098D01*
X225679007Y-116502231D02*
X227640905Y-117890551D01*
X224652830Y-115850146D02*
X225679007Y-116502231D01*
X223597380Y-115227206D02*
X224652830Y-115850146D01*
X222505789Y-114630038D02*
X223597380Y-115227206D01*
X221383589Y-114062274D02*
X222505789Y-114630038D01*
X220219740Y-113519168D02*
X221383589Y-114062274D01*
X219023710Y-113005923D02*
X220219740Y-113519168D01*
X217779966Y-112516879D02*
X219023710Y-113005923D01*
X216502203Y-112058322D02*
X217779966Y-112516879D01*
X215170073Y-111624103D02*
X216502203Y-112058322D01*
X213801802Y-111221225D02*
X215170073Y-111624103D01*
X213801802Y-108337558D02*
X213801802Y-111221225D01*
X213801802Y-105293872D02*
X213801802Y-108337558D01*
X213813398Y-104549930D02*
X213801802Y-105293872D01*
X213846449Y-102954715D02*
X213813398Y-104549930D01*
X213633352Y-101166705D02*
X213787809Y-101924655D01*
X213787809Y-101924655D02*
X213846449Y-102954715D01*
X213386129Y-100584918D02*
X213633352Y-101166705D01*
X213039747Y-100129733D02*
X213386129Y-100584918D01*
X208975912Y-99452426D02*
X209934622Y-99644412D01*
X211451033Y-99829425D02*
X212275000Y-99950000D01*
X209934622Y-99644412D02*
X211451033Y-99829425D01*
X212275000Y-99950000D02*
X213039747Y-100129733D01*
M02*
