G04 #@! TF.FileFunction,Legend,Top*
%FSLAX46Y46*%
G04 Gerber Fmt 4.6, Leading zero omitted, Abs format (unit mm)*
G04 Created by KiCad (PCBNEW 4.0.4-stable) date 12/07/16 00:40:48*
%MOMM*%
%LPD*%
G01*
G04 APERTURE LIST*
%ADD10C,0.100000*%
%ADD11C,0.200000*%
%ADD12C,0.150000*%
%ADD13C,0.010000*%
G04 APERTURE END LIST*
D10*
D11*
X238050000Y-146325000D02*
X238050000Y-148325000D01*
X238050000Y-148325000D02*
X236050000Y-148325000D01*
X236050000Y-148325000D02*
X236050000Y-146825000D01*
X236050000Y-146825000D02*
X236550000Y-146325000D01*
X236550000Y-146325000D02*
X238050000Y-146325000D01*
X238050000Y-144825000D02*
X236050000Y-144825000D01*
X234550000Y-146825000D02*
X234550000Y-147825000D01*
X238050000Y-149825000D02*
X236050000Y-149825000D01*
X239550000Y-146825000D02*
X239550000Y-147825000D01*
X225050000Y-146325000D02*
X225050000Y-148325000D01*
X225050000Y-148325000D02*
X223050000Y-148325000D01*
X223050000Y-148325000D02*
X223050000Y-146825000D01*
X223050000Y-146825000D02*
X223550000Y-146325000D01*
X223550000Y-146325000D02*
X225050000Y-146325000D01*
X225050000Y-144825000D02*
X223050000Y-144825000D01*
X221550000Y-146825000D02*
X221550000Y-147825000D01*
X225050000Y-149825000D02*
X223050000Y-149825000D01*
X226550000Y-146825000D02*
X226550000Y-147825000D01*
X212050000Y-146325000D02*
X212050000Y-148325000D01*
X212050000Y-148325000D02*
X210050000Y-148325000D01*
X210050000Y-148325000D02*
X210050000Y-146825000D01*
X210050000Y-146825000D02*
X210550000Y-146325000D01*
X210550000Y-146325000D02*
X212050000Y-146325000D01*
X212050000Y-144825000D02*
X210050000Y-144825000D01*
X208550000Y-146825000D02*
X208550000Y-147825000D01*
X212050000Y-149825000D02*
X210050000Y-149825000D01*
X213550000Y-146825000D02*
X213550000Y-147825000D01*
X199050000Y-146325000D02*
X199050000Y-148325000D01*
X199050000Y-148325000D02*
X197050000Y-148325000D01*
X197050000Y-148325000D02*
X197050000Y-146825000D01*
X197050000Y-146825000D02*
X197550000Y-146325000D01*
X197550000Y-146325000D02*
X199050000Y-146325000D01*
X199050000Y-144825000D02*
X197050000Y-144825000D01*
X195550000Y-146825000D02*
X195550000Y-147825000D01*
X199050000Y-149825000D02*
X197050000Y-149825000D01*
X200550000Y-146825000D02*
X200550000Y-147825000D01*
X186050000Y-146325000D02*
X186050000Y-148325000D01*
X186050000Y-148325000D02*
X184050000Y-148325000D01*
X184050000Y-148325000D02*
X184050000Y-146825000D01*
X184050000Y-146825000D02*
X184550000Y-146325000D01*
X184550000Y-146325000D02*
X186050000Y-146325000D01*
X186050000Y-144825000D02*
X184050000Y-144825000D01*
X182550000Y-146825000D02*
X182550000Y-147825000D01*
X186050000Y-149825000D02*
X184050000Y-149825000D01*
X187550000Y-146825000D02*
X187550000Y-147825000D01*
X173050000Y-146325000D02*
X173050000Y-148325000D01*
X173050000Y-148325000D02*
X171050000Y-148325000D01*
X171050000Y-148325000D02*
X171050000Y-146825000D01*
X171050000Y-146825000D02*
X171550000Y-146325000D01*
X171550000Y-146325000D02*
X173050000Y-146325000D01*
X173050000Y-144825000D02*
X171050000Y-144825000D01*
X169550000Y-146825000D02*
X169550000Y-147825000D01*
X173050000Y-149825000D02*
X171050000Y-149825000D01*
X174550000Y-146825000D02*
X174550000Y-147825000D01*
D12*
X206789890Y-172125220D02*
X204289890Y-172125220D01*
X204289890Y-172125220D02*
X204289890Y-171025220D01*
X204289890Y-171025220D02*
X206789890Y-171025220D01*
X206789890Y-171025220D02*
X206789890Y-172125220D01*
X207039890Y-170775220D02*
X204039890Y-170775220D01*
X207039890Y-172375220D02*
X204039890Y-172375220D01*
X204039890Y-172375220D02*
X204039890Y-170775220D01*
X207039890Y-172375220D02*
X207039890Y-170775220D01*
X208539890Y-169825220D02*
X202539890Y-169825220D01*
X208539890Y-173325220D02*
X202539890Y-173325220D01*
X208539890Y-173325220D02*
X208539890Y-169825220D01*
X202539890Y-173325220D02*
X202539890Y-169825220D01*
D13*
G36*
X183305181Y-131758539D02*
X183444601Y-132001466D01*
X183473888Y-132266176D01*
X183450646Y-132540552D01*
X183398792Y-132812064D01*
X183331483Y-133030148D01*
X183261874Y-133144242D01*
X183243768Y-133150666D01*
X183173638Y-133219598D01*
X183081912Y-133386731D01*
X183076456Y-133398902D01*
X182904756Y-133679919D01*
X182630412Y-134012736D01*
X182293317Y-134357733D01*
X181933363Y-134675290D01*
X181590442Y-134925789D01*
X181464822Y-134999490D01*
X181024107Y-135181846D01*
X180593564Y-135265816D01*
X180221580Y-135243791D01*
X180118166Y-135211260D01*
X180043341Y-135098410D01*
X180011486Y-134869848D01*
X180020244Y-134573012D01*
X180067256Y-134255344D01*
X180150165Y-133964284D01*
X180184137Y-133883991D01*
X180457099Y-133422468D01*
X180834939Y-132945665D01*
X181277075Y-132494124D01*
X181742925Y-132108389D01*
X182191908Y-131829001D01*
X182284185Y-131785923D01*
X182716028Y-131647156D01*
X183059342Y-131639232D01*
X183305181Y-131758539D01*
X183305181Y-131758539D01*
G37*
X183305181Y-131758539D02*
X183444601Y-132001466D01*
X183473888Y-132266176D01*
X183450646Y-132540552D01*
X183398792Y-132812064D01*
X183331483Y-133030148D01*
X183261874Y-133144242D01*
X183243768Y-133150666D01*
X183173638Y-133219598D01*
X183081912Y-133386731D01*
X183076456Y-133398902D01*
X182904756Y-133679919D01*
X182630412Y-134012736D01*
X182293317Y-134357733D01*
X181933363Y-134675290D01*
X181590442Y-134925789D01*
X181464822Y-134999490D01*
X181024107Y-135181846D01*
X180593564Y-135265816D01*
X180221580Y-135243791D01*
X180118166Y-135211260D01*
X180043341Y-135098410D01*
X180011486Y-134869848D01*
X180020244Y-134573012D01*
X180067256Y-134255344D01*
X180150165Y-133964284D01*
X180184137Y-133883991D01*
X180457099Y-133422468D01*
X180834939Y-132945665D01*
X181277075Y-132494124D01*
X181742925Y-132108389D01*
X182191908Y-131829001D01*
X182284185Y-131785923D01*
X182716028Y-131647156D01*
X183059342Y-131639232D01*
X183305181Y-131758539D01*
G36*
X190378135Y-119807465D02*
X190682374Y-119889171D01*
X190948937Y-120001640D01*
X191132181Y-120126198D01*
X191188333Y-120227804D01*
X191249665Y-120360895D01*
X191294166Y-120387400D01*
X191358266Y-120490826D01*
X191395437Y-120723767D01*
X191407220Y-121048815D01*
X191395158Y-121428563D01*
X191360793Y-121825604D01*
X191305668Y-122202530D01*
X191231325Y-122521934D01*
X191202561Y-122609097D01*
X191044423Y-122978366D01*
X190823499Y-123411388D01*
X190568608Y-123858697D01*
X190308570Y-124270831D01*
X190072204Y-124598326D01*
X189981833Y-124704266D01*
X189833832Y-124886378D01*
X189753523Y-125028295D01*
X189748756Y-125052787D01*
X189684296Y-125160629D01*
X189526681Y-125297702D01*
X189499198Y-125316703D01*
X189316196Y-125479722D01*
X189208550Y-125650051D01*
X189205261Y-125661534D01*
X189171724Y-125743865D01*
X189098225Y-125851204D01*
X188968457Y-126001087D01*
X188766113Y-126211049D01*
X188474885Y-126498626D01*
X188078466Y-126881353D01*
X188008108Y-126948833D01*
X187847903Y-127080966D01*
X187733056Y-127139197D01*
X187729906Y-127139333D01*
X187632546Y-127206395D01*
X187605173Y-127257321D01*
X187504736Y-127375730D01*
X187286565Y-127554849D01*
X186981718Y-127774557D01*
X186621258Y-128014736D01*
X186236245Y-128255263D01*
X185857740Y-128476019D01*
X185516804Y-128656884D01*
X185277553Y-128765093D01*
X184658648Y-128961265D01*
X184082155Y-129050831D01*
X183578334Y-129031074D01*
X183272000Y-128945284D01*
X182911484Y-128742504D01*
X182690095Y-128485528D01*
X182585044Y-128176151D01*
X182555665Y-127820050D01*
X182570700Y-127373140D01*
X182623278Y-126905996D01*
X182706533Y-126489191D01*
X182768339Y-126292666D01*
X182892239Y-126012920D01*
X183075070Y-125650348D01*
X183295551Y-125242114D01*
X183532402Y-124825382D01*
X183764341Y-124437316D01*
X183970088Y-124115079D01*
X184128363Y-123895836D01*
X184164389Y-123854670D01*
X184353369Y-123640240D01*
X184564788Y-123377682D01*
X184631764Y-123289113D01*
X184855341Y-123017595D01*
X185118665Y-122738783D01*
X185207674Y-122654113D01*
X185436830Y-122440885D01*
X185724624Y-122167505D01*
X186009170Y-121892767D01*
X186012008Y-121890000D01*
X186352884Y-121581097D01*
X186754985Y-121253193D01*
X187177422Y-120936322D01*
X187579304Y-120660518D01*
X187919744Y-120455816D01*
X188055666Y-120388851D01*
X188316862Y-120270920D01*
X188550260Y-120159087D01*
X188563666Y-120152318D01*
X188934784Y-120001602D01*
X189378347Y-119875629D01*
X189813383Y-119794514D01*
X190081867Y-119775192D01*
X190378135Y-119807465D01*
X190378135Y-119807465D01*
G37*
X190378135Y-119807465D02*
X190682374Y-119889171D01*
X190948937Y-120001640D01*
X191132181Y-120126198D01*
X191188333Y-120227804D01*
X191249665Y-120360895D01*
X191294166Y-120387400D01*
X191358266Y-120490826D01*
X191395437Y-120723767D01*
X191407220Y-121048815D01*
X191395158Y-121428563D01*
X191360793Y-121825604D01*
X191305668Y-122202530D01*
X191231325Y-122521934D01*
X191202561Y-122609097D01*
X191044423Y-122978366D01*
X190823499Y-123411388D01*
X190568608Y-123858697D01*
X190308570Y-124270831D01*
X190072204Y-124598326D01*
X189981833Y-124704266D01*
X189833832Y-124886378D01*
X189753523Y-125028295D01*
X189748756Y-125052787D01*
X189684296Y-125160629D01*
X189526681Y-125297702D01*
X189499198Y-125316703D01*
X189316196Y-125479722D01*
X189208550Y-125650051D01*
X189205261Y-125661534D01*
X189171724Y-125743865D01*
X189098225Y-125851204D01*
X188968457Y-126001087D01*
X188766113Y-126211049D01*
X188474885Y-126498626D01*
X188078466Y-126881353D01*
X188008108Y-126948833D01*
X187847903Y-127080966D01*
X187733056Y-127139197D01*
X187729906Y-127139333D01*
X187632546Y-127206395D01*
X187605173Y-127257321D01*
X187504736Y-127375730D01*
X187286565Y-127554849D01*
X186981718Y-127774557D01*
X186621258Y-128014736D01*
X186236245Y-128255263D01*
X185857740Y-128476019D01*
X185516804Y-128656884D01*
X185277553Y-128765093D01*
X184658648Y-128961265D01*
X184082155Y-129050831D01*
X183578334Y-129031074D01*
X183272000Y-128945284D01*
X182911484Y-128742504D01*
X182690095Y-128485528D01*
X182585044Y-128176151D01*
X182555665Y-127820050D01*
X182570700Y-127373140D01*
X182623278Y-126905996D01*
X182706533Y-126489191D01*
X182768339Y-126292666D01*
X182892239Y-126012920D01*
X183075070Y-125650348D01*
X183295551Y-125242114D01*
X183532402Y-124825382D01*
X183764341Y-124437316D01*
X183970088Y-124115079D01*
X184128363Y-123895836D01*
X184164389Y-123854670D01*
X184353369Y-123640240D01*
X184564788Y-123377682D01*
X184631764Y-123289113D01*
X184855341Y-123017595D01*
X185118665Y-122738783D01*
X185207674Y-122654113D01*
X185436830Y-122440885D01*
X185724624Y-122167505D01*
X186009170Y-121892767D01*
X186012008Y-121890000D01*
X186352884Y-121581097D01*
X186754985Y-121253193D01*
X187177422Y-120936322D01*
X187579304Y-120660518D01*
X187919744Y-120455816D01*
X188055666Y-120388851D01*
X188316862Y-120270920D01*
X188550260Y-120159087D01*
X188563666Y-120152318D01*
X188934784Y-120001602D01*
X189378347Y-119875629D01*
X189813383Y-119794514D01*
X190081867Y-119775192D01*
X190378135Y-119807465D01*
D12*
X204206557Y-174579982D02*
X204349414Y-174627601D01*
X204587510Y-174627601D01*
X204682748Y-174579982D01*
X204730367Y-174532363D01*
X204777986Y-174437125D01*
X204777986Y-174341887D01*
X204730367Y-174246649D01*
X204682748Y-174199030D01*
X204587510Y-174151410D01*
X204397033Y-174103791D01*
X204301795Y-174056172D01*
X204254176Y-174008553D01*
X204206557Y-173913315D01*
X204206557Y-173818077D01*
X204254176Y-173722839D01*
X204301795Y-173675220D01*
X204397033Y-173627601D01*
X204635129Y-173627601D01*
X204777986Y-173675220D01*
X205111319Y-173627601D02*
X205349414Y-174627601D01*
X205539891Y-173913315D01*
X205730367Y-174627601D01*
X205968462Y-173627601D01*
X206873224Y-174627601D02*
X206301795Y-174627601D01*
X206587509Y-174627601D02*
X206587509Y-173627601D01*
X206492271Y-173770458D01*
X206397033Y-173865696D01*
X206301795Y-173913315D01*
M02*
