M48
;DRILL file {KiCad 4.0.4-stable} date 12/07/16 00:40:51
;FORMAT={-:-/ absolute / inch / decimal}
FMAT,2
INCH,TZ
T1C0.016
T2C0.039
T3C0.040
T4C0.098
%
G90
G05
M72
T1
X6.6781Y-5.6644
X7.0177Y-5.9587
X7.1093Y-5.8022
X7.1102Y-5.5846
X7.1427Y-6.2372
X7.188Y-5.6693
X7.3455Y-6.7785
X7.3622Y-5.1181
X7.3711Y-5.187
X7.372Y-5.0571
X7.4469Y-6.502
X7.4764Y-6.0433
X7.5423Y-5.0797
X7.5482Y-5.9301
X7.5906Y-6.876
X7.6132Y-6.6329
X7.6476Y-6.7451
X7.6742Y-6.6024
X7.7057Y-5.6585
X7.9114Y-6.5354
X8.2126Y-5.6594
X8.31Y-6.3907
X8.4862Y-6.9232
X8.5098Y-6.812
X8.5138Y-6.3632
X8.5807Y-6.8514
X8.7274Y-5.6634
X8.7569Y-6.3917
X9.0374Y-6.188
X9.1024Y-6.0817
X9.123Y-6.3415
X9.1358Y-6.3002
X9.2569Y-6.1791
T2
X8.6024Y-5.2431
X8.9016Y-5.2431
T3
X8.0472Y-4.311
X8.0472Y-6.0709
T4
X8.0492Y-3.7766
T0
M30
