G04 #@! TF.FileFunction,Legend,Bot*
%FSLAX46Y46*%
G04 Gerber Fmt 4.6, Leading zero omitted, Abs format (unit mm)*
G04 Created by KiCad (PCBNEW 4.0.4-stable) date 12/07/16 00:33:37*
%MOMM*%
%LPD*%
G01*
G04 APERTURE LIST*
%ADD10C,0.100000*%
%ADD11C,0.150000*%
%ADD12C,0.127000*%
%ADD13C,0.203200*%
%ADD14C,0.152400*%
%ADD15C,0.125000*%
G04 APERTURE END LIST*
D10*
D11*
X197850000Y-108175000D02*
X197850000Y-158175000D01*
X210850000Y-108175000D02*
X197850000Y-108175000D01*
X210850000Y-158175000D02*
X210850000Y-108175000D01*
X197850000Y-158175000D02*
X210850000Y-158175000D01*
X193950760Y-92949840D02*
G75*
G03X193950760Y-92949840I-1000760J0D01*
G01*
X199150140Y-92949840D02*
G75*
G03X199150140Y-92949840I-6200140J0D01*
G01*
D12*
X190988000Y-153379000D02*
X192512000Y-153379000D01*
X192893000Y-153506000D02*
X190607000Y-153506000D01*
X190353000Y-153633000D02*
X193147000Y-153633000D01*
X193401000Y-153760000D02*
X190099000Y-153760000D01*
X189972000Y-153887000D02*
X193528000Y-153887000D01*
X194798000Y-156300000D02*
G75*
G03X194798000Y-156300000I-3048000J0D01*
G01*
X188448000Y-152998000D02*
X195052000Y-152998000D01*
X195052000Y-152998000D02*
X195052000Y-158840000D01*
X195052000Y-158840000D02*
X194290000Y-159602000D01*
X194290000Y-159602000D02*
X189210000Y-159602000D01*
X189210000Y-159602000D02*
X188448000Y-158840000D01*
X188448000Y-158840000D02*
X188448000Y-152998000D01*
X191750000Y-158459000D02*
X191750000Y-157697000D01*
X191369000Y-158078000D02*
X192131000Y-158078000D01*
X220371000Y-142713000D02*
X220371000Y-144237000D01*
X220244000Y-144618000D02*
X220244000Y-142332000D01*
X220117000Y-142078000D02*
X220117000Y-144872000D01*
X219990000Y-145126000D02*
X219990000Y-141824000D01*
X219863000Y-141697000D02*
X219863000Y-145253000D01*
X220498000Y-143475000D02*
G75*
G03X220498000Y-143475000I-3048000J0D01*
G01*
X220752000Y-140173000D02*
X220752000Y-146777000D01*
X220752000Y-146777000D02*
X214910000Y-146777000D01*
X214910000Y-146777000D02*
X214148000Y-146015000D01*
X214148000Y-146015000D02*
X214148000Y-140935000D01*
X214148000Y-140935000D02*
X214910000Y-140173000D01*
X214910000Y-140173000D02*
X220752000Y-140173000D01*
X215291000Y-143475000D02*
X216053000Y-143475000D01*
X215672000Y-143094000D02*
X215672000Y-143856000D01*
D11*
X190250000Y-173050000D02*
X190750000Y-173050000D01*
X190750000Y-174100000D02*
X190250000Y-174100000D01*
X220975000Y-170600000D02*
X220725000Y-170600000D01*
X221475000Y-170600000D02*
X221725000Y-170600000D01*
X221475000Y-170600000D02*
X220975000Y-170250000D01*
X220975000Y-170250000D02*
X220975000Y-170950000D01*
X220975000Y-170950000D02*
X221475000Y-170600000D01*
X221475000Y-170250000D02*
X221475000Y-170950000D01*
X222525000Y-171400000D02*
X220125000Y-171400000D01*
X222525000Y-169800000D02*
X220125000Y-169800000D01*
D13*
X226791000Y-173329000D02*
X224759000Y-173329000D01*
X224759000Y-172821000D02*
X226791000Y-172821000D01*
X226791000Y-173329000D02*
G75*
G02X225775000Y-174345000I-1016000J0D01*
G01*
X225775000Y-174345000D02*
G75*
G02X224759000Y-173329000I0J1016000D01*
G01*
X224759000Y-172821000D02*
G75*
G02X225775000Y-171805000I1016000J0D01*
G01*
X225775000Y-171805000D02*
G75*
G02X226791000Y-172821000I0J-1016000D01*
G01*
X221479000Y-171859000D02*
X221479000Y-173891000D01*
X220971000Y-173891000D02*
X220971000Y-171859000D01*
X221479000Y-171859000D02*
G75*
G02X222495000Y-172875000I0J-1016000D01*
G01*
X222495000Y-172875000D02*
G75*
G02X221479000Y-173891000I-1016000J0D01*
G01*
X220971000Y-173891000D02*
G75*
G02X219955000Y-172875000I0J1016000D01*
G01*
X219955000Y-172875000D02*
G75*
G02X220971000Y-171859000I1016000J0D01*
G01*
D11*
X207930000Y-104625000D02*
X200330000Y-104625000D01*
X200330000Y-93225000D02*
X207930000Y-93225000D01*
X200330000Y-104625000D02*
X200330000Y-93225000D01*
X207930000Y-104625000D02*
X207930000Y-93225000D01*
X222178078Y-173828330D02*
G75*
G03X222178078Y-173828330I-250000J0D01*
G01*
X224915604Y-177664384D02*
X220814384Y-181765604D01*
X224349918Y-175543064D02*
X222688217Y-173881363D01*
X222688217Y-173881363D02*
X222051821Y-174517759D01*
X222334664Y-174234917D02*
X223183192Y-175083445D01*
X223183192Y-175083445D02*
X223183192Y-175083445D01*
X223183192Y-175083445D02*
X222334664Y-174234917D01*
X222334664Y-174234917D02*
X222334664Y-174234917D01*
X222688217Y-174588470D02*
X222688217Y-174588470D01*
X222688217Y-174588470D02*
X223041771Y-174234917D01*
X223041771Y-174234917D02*
X223041771Y-174234917D01*
X223041771Y-174234917D02*
X222688217Y-174588470D01*
X223183192Y-175083445D02*
X223183192Y-175083445D01*
X223183192Y-175083445D02*
X223536746Y-174729891D01*
X223536746Y-174729891D02*
X223536746Y-174729891D01*
X223536746Y-174729891D02*
X223183192Y-175083445D01*
X218693064Y-181199918D02*
X217031363Y-179538217D01*
X217031363Y-179538217D02*
X217667759Y-178901821D01*
X217384917Y-179184664D02*
X218233445Y-180033192D01*
X218233445Y-180033192D02*
X218233445Y-180033192D01*
X218233445Y-180033192D02*
X217384917Y-179184664D01*
X217384917Y-179184664D02*
X217384917Y-179184664D01*
X217738470Y-179538217D02*
X217738470Y-179538217D01*
X217738470Y-179538217D02*
X217384917Y-179891771D01*
X217384917Y-179891771D02*
X217384917Y-179891771D01*
X217384917Y-179891771D02*
X217738470Y-179538217D01*
X218233445Y-180033192D02*
X218233445Y-180033192D01*
X218233445Y-180033192D02*
X217879891Y-180386746D01*
X217879891Y-180386746D02*
X217879891Y-180386746D01*
X217879891Y-180386746D02*
X218233445Y-180033192D01*
X190150000Y-164450000D02*
X189650000Y-164450000D01*
X189650000Y-163400000D02*
X190150000Y-163400000D01*
X222000000Y-166350000D02*
X221500000Y-166350000D01*
X221500000Y-165300000D02*
X222000000Y-165300000D01*
X222000000Y-164175000D02*
X221500000Y-164175000D01*
X221500000Y-163125000D02*
X222000000Y-163125000D01*
X228300000Y-170475000D02*
X228300000Y-170975000D01*
X227250000Y-170975000D02*
X227250000Y-170475000D01*
X188300000Y-174100000D02*
X187800000Y-174100000D01*
X187800000Y-173050000D02*
X188300000Y-173050000D01*
X221500000Y-167875000D02*
X222000000Y-167875000D01*
X222000000Y-168925000D02*
X221500000Y-168925000D01*
X227199780Y-160535110D02*
X227199780Y-163035110D01*
X227199780Y-163035110D02*
X228299780Y-163035110D01*
X228299780Y-163035110D02*
X228299780Y-160535110D01*
X228299780Y-160535110D02*
X227199780Y-160535110D01*
X228549780Y-160285110D02*
X228549780Y-163285110D01*
X226949780Y-160285110D02*
X226949780Y-163285110D01*
X226949780Y-163285110D02*
X228549780Y-163285110D01*
X226949780Y-160285110D02*
X228549780Y-160285110D01*
X229499780Y-158785110D02*
X229499780Y-164785110D01*
X225999780Y-158785110D02*
X225999780Y-164785110D01*
X225999780Y-158785110D02*
X229499780Y-158785110D01*
X225999780Y-164785110D02*
X229499780Y-164785110D01*
X183199780Y-161710110D02*
X183199780Y-164210110D01*
X183199780Y-164210110D02*
X184299780Y-164210110D01*
X184299780Y-164210110D02*
X184299780Y-161710110D01*
X184299780Y-161710110D02*
X183199780Y-161710110D01*
X184549780Y-161460110D02*
X184549780Y-164460110D01*
X182949780Y-161460110D02*
X182949780Y-164460110D01*
X182949780Y-164460110D02*
X184549780Y-164460110D01*
X182949780Y-161460110D02*
X184549780Y-161460110D01*
X185499780Y-159960110D02*
X185499780Y-165960110D01*
X181999780Y-159960110D02*
X181999780Y-165960110D01*
X181999780Y-159960110D02*
X185499780Y-159960110D01*
X181999780Y-165960110D02*
X185499780Y-165960110D01*
D14*
X197559000Y-160841000D02*
X197559000Y-160079000D01*
X197559000Y-160079000D02*
X213561000Y-160079000D01*
X213561000Y-160079000D02*
X213561000Y-160841000D01*
D13*
X190284000Y-169446000D02*
X192316000Y-169446000D01*
X192316000Y-169954000D02*
X190284000Y-169954000D01*
X190284000Y-169446000D02*
G75*
G02X191300000Y-168430000I1016000J0D01*
G01*
X191300000Y-168430000D02*
G75*
G02X192316000Y-169446000I0J-1016000D01*
G01*
X192316000Y-169954000D02*
G75*
G02X191300000Y-170970000I-1016000J0D01*
G01*
X191300000Y-170970000D02*
G75*
G02X190284000Y-169954000I0J1016000D01*
G01*
D11*
X205121900Y-132027498D02*
X204979043Y-132075117D01*
X204931424Y-132122737D01*
X204883805Y-132217975D01*
X204883805Y-132360832D01*
X204931424Y-132456070D01*
X204979043Y-132503689D01*
X205074281Y-132551308D01*
X205455234Y-132551308D01*
X205455234Y-131551308D01*
X205121900Y-131551308D01*
X205026662Y-131598927D01*
X204979043Y-131646546D01*
X204931424Y-131741784D01*
X204931424Y-131837022D01*
X204979043Y-131932260D01*
X205026662Y-131979879D01*
X205121900Y-132027498D01*
X205455234Y-132027498D01*
X204598091Y-131551308D02*
X204026662Y-131551308D01*
X204312377Y-132551308D02*
X204312377Y-131551308D01*
X203169519Y-132551308D02*
X203740948Y-132551308D01*
X203455234Y-132551308D02*
X203455234Y-131551308D01*
X203550472Y-131694165D01*
X203645710Y-131789403D01*
X203740948Y-131837022D01*
X206254762Y-114532143D02*
X202445238Y-114532143D01*
X204350000Y-116436905D02*
X204350000Y-112627381D01*
X190481429Y-88758888D02*
X190481429Y-89520793D01*
X190862381Y-89139841D02*
X190100476Y-89139841D01*
D15*
X188178571Y-157916667D02*
X188202381Y-157892857D01*
X188226190Y-157821429D01*
X188226190Y-157773810D01*
X188202381Y-157702381D01*
X188154762Y-157654762D01*
X188107143Y-157630953D01*
X188011905Y-157607143D01*
X187940476Y-157607143D01*
X187845238Y-157630953D01*
X187797619Y-157654762D01*
X187750000Y-157702381D01*
X187726190Y-157773810D01*
X187726190Y-157821429D01*
X187750000Y-157892857D01*
X187773810Y-157916667D01*
X188226190Y-158392857D02*
X188226190Y-158107143D01*
X188226190Y-158250000D02*
X187726190Y-158250000D01*
X187797619Y-158202381D01*
X187845238Y-158154762D01*
X187869048Y-158107143D01*
X215833333Y-139903571D02*
X215857143Y-139927381D01*
X215928571Y-139951190D01*
X215976190Y-139951190D01*
X216047619Y-139927381D01*
X216095238Y-139879762D01*
X216119047Y-139832143D01*
X216142857Y-139736905D01*
X216142857Y-139665476D01*
X216119047Y-139570238D01*
X216095238Y-139522619D01*
X216047619Y-139475000D01*
X215976190Y-139451190D01*
X215928571Y-139451190D01*
X215857143Y-139475000D01*
X215833333Y-139498810D01*
X215642857Y-139498810D02*
X215619047Y-139475000D01*
X215571428Y-139451190D01*
X215452381Y-139451190D01*
X215404762Y-139475000D01*
X215380952Y-139498810D01*
X215357143Y-139546429D01*
X215357143Y-139594048D01*
X215380952Y-139665476D01*
X215666666Y-139951190D01*
X215357143Y-139951190D01*
D11*
X190666666Y-172132143D02*
X190714285Y-172179762D01*
X190857142Y-172227381D01*
X190952380Y-172227381D01*
X191095238Y-172179762D01*
X191190476Y-172084524D01*
X191238095Y-171989286D01*
X191285714Y-171798810D01*
X191285714Y-171655952D01*
X191238095Y-171465476D01*
X191190476Y-171370238D01*
X191095238Y-171275000D01*
X190952380Y-171227381D01*
X190857142Y-171227381D01*
X190714285Y-171275000D01*
X190666666Y-171322619D01*
X190333333Y-171227381D02*
X189714285Y-171227381D01*
X190047619Y-171608333D01*
X189904761Y-171608333D01*
X189809523Y-171655952D01*
X189761904Y-171703571D01*
X189714285Y-171798810D01*
X189714285Y-172036905D01*
X189761904Y-172132143D01*
X189809523Y-172179762D01*
X189904761Y-172227381D01*
X190190476Y-172227381D01*
X190285714Y-172179762D01*
X190333333Y-172132143D01*
X224788095Y-170952381D02*
X224788095Y-169952381D01*
X224550000Y-169952381D01*
X224407142Y-170000000D01*
X224311904Y-170095238D01*
X224264285Y-170190476D01*
X224216666Y-170380952D01*
X224216666Y-170523810D01*
X224264285Y-170714286D01*
X224311904Y-170809524D01*
X224407142Y-170904762D01*
X224550000Y-170952381D01*
X224788095Y-170952381D01*
X223835714Y-170047619D02*
X223788095Y-170000000D01*
X223692857Y-169952381D01*
X223454761Y-169952381D01*
X223359523Y-170000000D01*
X223311904Y-170047619D01*
X223264285Y-170142857D01*
X223264285Y-170238095D01*
X223311904Y-170380952D01*
X223883333Y-170952381D01*
X223264285Y-170952381D01*
D14*
X227262714Y-172440001D02*
X227807000Y-172440001D01*
X227915857Y-172403715D01*
X227988429Y-172331144D01*
X228024714Y-172222287D01*
X228024714Y-172149715D01*
X228024714Y-172802858D02*
X227262714Y-172802858D01*
X227262714Y-173093143D01*
X227299000Y-173165715D01*
X227335286Y-173202000D01*
X227407857Y-173238286D01*
X227516714Y-173238286D01*
X227589286Y-173202000D01*
X227625571Y-173165715D01*
X227661857Y-173093143D01*
X227661857Y-172802858D01*
X227335286Y-173528572D02*
X227299000Y-173564858D01*
X227262714Y-173637429D01*
X227262714Y-173818858D01*
X227299000Y-173891429D01*
X227335286Y-173927715D01*
X227407857Y-173964000D01*
X227480429Y-173964000D01*
X227589286Y-173927715D01*
X228024714Y-173492286D01*
X228024714Y-173964000D01*
X224184999Y-172607714D02*
X224184999Y-173152000D01*
X224221285Y-173260857D01*
X224293856Y-173333429D01*
X224402713Y-173369714D01*
X224475285Y-173369714D01*
X223822142Y-173369714D02*
X223822142Y-172607714D01*
X223531857Y-172607714D01*
X223459285Y-172644000D01*
X223423000Y-172680286D01*
X223386714Y-172752857D01*
X223386714Y-172861714D01*
X223423000Y-172934286D01*
X223459285Y-172970571D01*
X223531857Y-173006857D01*
X223822142Y-173006857D01*
X222733571Y-172861714D02*
X222733571Y-173369714D01*
X222915000Y-172571429D02*
X223096428Y-173115714D01*
X222624714Y-173115714D01*
D11*
X220825328Y-173095970D02*
X220118221Y-172388863D01*
X219848846Y-172658237D01*
X219815175Y-172759253D01*
X219815175Y-172826596D01*
X219848846Y-172927611D01*
X219949862Y-173028626D01*
X220050877Y-173062298D01*
X220118220Y-173062298D01*
X220219235Y-173028626D01*
X220488610Y-172759252D01*
X219478458Y-173028626D02*
X219040724Y-173466359D01*
X219545801Y-173500030D01*
X219444785Y-173601046D01*
X219411113Y-173702061D01*
X219411113Y-173769405D01*
X219444786Y-173870421D01*
X219613144Y-174038779D01*
X219714160Y-174072451D01*
X219781503Y-174072451D01*
X219882518Y-174038779D01*
X220084549Y-173836748D01*
X220118221Y-173735733D01*
X220118221Y-173668390D01*
X190000000Y-165446429D02*
X190200000Y-165160714D01*
X190342857Y-165446429D02*
X190342857Y-164846429D01*
X190114285Y-164846429D01*
X190057143Y-164875000D01*
X190028571Y-164903571D01*
X190000000Y-164960714D01*
X190000000Y-165046429D01*
X190028571Y-165103571D01*
X190057143Y-165132143D01*
X190114285Y-165160714D01*
X190342857Y-165160714D01*
X189428571Y-165446429D02*
X189771428Y-165446429D01*
X189600000Y-165446429D02*
X189600000Y-164846429D01*
X189657143Y-164932143D01*
X189714285Y-164989286D01*
X189771428Y-165017857D01*
X223500000Y-166171429D02*
X223700000Y-165885714D01*
X223842857Y-166171429D02*
X223842857Y-165571429D01*
X223614285Y-165571429D01*
X223557143Y-165600000D01*
X223528571Y-165628571D01*
X223500000Y-165685714D01*
X223500000Y-165771429D01*
X223528571Y-165828571D01*
X223557143Y-165857143D01*
X223614285Y-165885714D01*
X223842857Y-165885714D01*
X223271428Y-165628571D02*
X223242857Y-165600000D01*
X223185714Y-165571429D01*
X223042857Y-165571429D01*
X222985714Y-165600000D01*
X222957143Y-165628571D01*
X222928571Y-165685714D01*
X222928571Y-165742857D01*
X222957143Y-165828571D01*
X223300000Y-166171429D01*
X222928571Y-166171429D01*
X223600000Y-164021429D02*
X223800000Y-163735714D01*
X223942857Y-164021429D02*
X223942857Y-163421429D01*
X223714285Y-163421429D01*
X223657143Y-163450000D01*
X223628571Y-163478571D01*
X223600000Y-163535714D01*
X223600000Y-163621429D01*
X223628571Y-163678571D01*
X223657143Y-163707143D01*
X223714285Y-163735714D01*
X223942857Y-163735714D01*
X223400000Y-163421429D02*
X223028571Y-163421429D01*
X223228571Y-163650000D01*
X223142857Y-163650000D01*
X223085714Y-163678571D01*
X223057143Y-163707143D01*
X223028571Y-163764286D01*
X223028571Y-163907143D01*
X223057143Y-163964286D01*
X223085714Y-163992857D01*
X223142857Y-164021429D01*
X223314285Y-164021429D01*
X223371428Y-163992857D01*
X223400000Y-163964286D01*
X229296429Y-170625000D02*
X229010714Y-170425000D01*
X229296429Y-170282143D02*
X228696429Y-170282143D01*
X228696429Y-170510715D01*
X228725000Y-170567857D01*
X228753571Y-170596429D01*
X228810714Y-170625000D01*
X228896429Y-170625000D01*
X228953571Y-170596429D01*
X228982143Y-170567857D01*
X229010714Y-170510715D01*
X229010714Y-170282143D01*
X228896429Y-171139286D02*
X229296429Y-171139286D01*
X228667857Y-170996429D02*
X229096429Y-170853572D01*
X229096429Y-171225000D01*
X188150000Y-175096429D02*
X188350000Y-174810714D01*
X188492857Y-175096429D02*
X188492857Y-174496429D01*
X188264285Y-174496429D01*
X188207143Y-174525000D01*
X188178571Y-174553571D01*
X188150000Y-174610714D01*
X188150000Y-174696429D01*
X188178571Y-174753571D01*
X188207143Y-174782143D01*
X188264285Y-174810714D01*
X188492857Y-174810714D01*
X187607143Y-174496429D02*
X187892857Y-174496429D01*
X187921428Y-174782143D01*
X187892857Y-174753571D01*
X187835714Y-174725000D01*
X187692857Y-174725000D01*
X187635714Y-174753571D01*
X187607143Y-174782143D01*
X187578571Y-174839286D01*
X187578571Y-174982143D01*
X187607143Y-175039286D01*
X187635714Y-175067857D01*
X187692857Y-175096429D01*
X187835714Y-175096429D01*
X187892857Y-175067857D01*
X187921428Y-175039286D01*
X223525000Y-168696429D02*
X223725000Y-168410714D01*
X223867857Y-168696429D02*
X223867857Y-168096429D01*
X223639285Y-168096429D01*
X223582143Y-168125000D01*
X223553571Y-168153571D01*
X223525000Y-168210714D01*
X223525000Y-168296429D01*
X223553571Y-168353571D01*
X223582143Y-168382143D01*
X223639285Y-168410714D01*
X223867857Y-168410714D01*
X223010714Y-168096429D02*
X223125000Y-168096429D01*
X223182143Y-168125000D01*
X223210714Y-168153571D01*
X223267857Y-168239286D01*
X223296428Y-168353571D01*
X223296428Y-168582143D01*
X223267857Y-168639286D01*
X223239285Y-168667857D01*
X223182143Y-168696429D01*
X223067857Y-168696429D01*
X223010714Y-168667857D01*
X222982143Y-168639286D01*
X222953571Y-168582143D01*
X222953571Y-168439286D01*
X222982143Y-168382143D01*
X223010714Y-168353571D01*
X223067857Y-168325000D01*
X223182143Y-168325000D01*
X223239285Y-168353571D01*
X223267857Y-168382143D01*
X223296428Y-168439286D01*
X197336905Y-177152381D02*
X197336905Y-177961905D01*
X197289286Y-178057143D01*
X197241667Y-178104762D01*
X197146429Y-178152381D01*
X196955952Y-178152381D01*
X196860714Y-178104762D01*
X196813095Y-178057143D01*
X196765476Y-177961905D01*
X196765476Y-177152381D01*
X196336905Y-177247619D02*
X196289286Y-177200000D01*
X196194048Y-177152381D01*
X195955952Y-177152381D01*
X195860714Y-177200000D01*
X195813095Y-177247619D01*
X195765476Y-177342857D01*
X195765476Y-177438095D01*
X195813095Y-177580952D01*
X196384524Y-178152381D01*
X195765476Y-178152381D01*
D14*
X188977714Y-169065001D02*
X189522000Y-169065001D01*
X189630857Y-169028715D01*
X189703429Y-168956144D01*
X189739714Y-168847287D01*
X189739714Y-168774715D01*
X189739714Y-169427858D02*
X188977714Y-169427858D01*
X188977714Y-169718143D01*
X189014000Y-169790715D01*
X189050286Y-169827000D01*
X189122857Y-169863286D01*
X189231714Y-169863286D01*
X189304286Y-169827000D01*
X189340571Y-169790715D01*
X189376857Y-169718143D01*
X189376857Y-169427858D01*
X189739714Y-170589000D02*
X189739714Y-170153572D01*
X189739714Y-170371286D02*
X188977714Y-170371286D01*
X189086571Y-170298715D01*
X189159143Y-170226143D01*
X189195429Y-170153572D01*
M02*
