G04 #@! TF.FileFunction,Legend,Top*
%FSLAX46Y46*%
G04 Gerber Fmt 4.6, Leading zero omitted, Abs format (unit mm)*
G04 Created by KiCad (PCBNEW 4.0.4-stable) date 12/07/16 00:33:37*
%MOMM*%
%LPD*%
G01*
G04 APERTURE LIST*
%ADD10C,0.100000*%
%ADD11C,0.200000*%
%ADD12C,0.150000*%
%ADD13C,0.010000*%
G04 APERTURE END LIST*
D10*
D11*
X210225000Y-141800000D02*
X212225000Y-141800000D01*
X212225000Y-141800000D02*
X212225000Y-143800000D01*
X212225000Y-143800000D02*
X210725000Y-143800000D01*
X210725000Y-143800000D02*
X210225000Y-143300000D01*
X210225000Y-143300000D02*
X210225000Y-141800000D01*
X208725000Y-141800000D02*
X208725000Y-143800000D01*
X210725000Y-145300000D02*
X211725000Y-145300000D01*
X213725000Y-141800000D02*
X213725000Y-143800000D01*
X210725000Y-140300000D02*
X211725000Y-140300000D01*
X212475000Y-152450000D02*
X214475000Y-152450000D01*
X214475000Y-152450000D02*
X214475000Y-154450000D01*
X214475000Y-154450000D02*
X212975000Y-154450000D01*
X212975000Y-154450000D02*
X212475000Y-153950000D01*
X212475000Y-153950000D02*
X212475000Y-152450000D01*
X210975000Y-152450000D02*
X210975000Y-154450000D01*
X212975000Y-155950000D02*
X213975000Y-155950000D01*
X215975000Y-152450000D02*
X215975000Y-154450000D01*
X212975000Y-150950000D02*
X213975000Y-150950000D01*
X211500000Y-162675000D02*
X213500000Y-162675000D01*
X213500000Y-162675000D02*
X213500000Y-164675000D01*
X213500000Y-164675000D02*
X212000000Y-164675000D01*
X212000000Y-164675000D02*
X211500000Y-164175000D01*
X211500000Y-164175000D02*
X211500000Y-162675000D01*
X210000000Y-162675000D02*
X210000000Y-164675000D01*
X212000000Y-166175000D02*
X213000000Y-166175000D01*
X215000000Y-162675000D02*
X215000000Y-164675000D01*
X212000000Y-161175000D02*
X213000000Y-161175000D01*
D12*
X206789890Y-172125220D02*
X204289890Y-172125220D01*
X204289890Y-172125220D02*
X204289890Y-171025220D01*
X204289890Y-171025220D02*
X206789890Y-171025220D01*
X206789890Y-171025220D02*
X206789890Y-172125220D01*
X207039890Y-170775220D02*
X204039890Y-170775220D01*
X207039890Y-172375220D02*
X204039890Y-172375220D01*
X204039890Y-172375220D02*
X204039890Y-170775220D01*
X207039890Y-172375220D02*
X207039890Y-170775220D01*
X208539890Y-169825220D02*
X202539890Y-169825220D01*
X208539890Y-173325220D02*
X202539890Y-173325220D01*
X208539890Y-173325220D02*
X208539890Y-169825220D01*
X202539890Y-173325220D02*
X202539890Y-169825220D01*
D13*
G36*
X218889166Y-135832384D02*
X219336144Y-136104491D01*
X219874426Y-136453892D01*
X220462865Y-136852383D01*
X221060310Y-137271764D01*
X221625611Y-137683830D01*
X221957823Y-137935546D01*
X222398596Y-138296783D01*
X222920817Y-138758526D01*
X223495917Y-139292558D01*
X224095329Y-139870661D01*
X224690484Y-140464615D01*
X225252814Y-141046203D01*
X225753751Y-141587206D01*
X226164728Y-142059406D01*
X226295390Y-142220000D01*
X227547430Y-143911804D01*
X228646999Y-145640704D01*
X229599900Y-147420354D01*
X230411933Y-149264410D01*
X231088902Y-151186527D01*
X231636610Y-153200360D01*
X232060857Y-155319564D01*
X232177492Y-156063000D01*
X232249609Y-156705095D01*
X232300681Y-157476994D01*
X232330950Y-158340514D01*
X232340657Y-159257468D01*
X232330044Y-160189673D01*
X232299352Y-161098943D01*
X232248822Y-161947094D01*
X232178697Y-162695939D01*
X232133353Y-163041629D01*
X231727671Y-165241663D01*
X231175688Y-167356541D01*
X230476976Y-169387098D01*
X229631109Y-171334171D01*
X228637659Y-173198594D01*
X227496200Y-174981204D01*
X226206304Y-176682836D01*
X224767544Y-178304325D01*
X223873545Y-179199889D01*
X222278021Y-180617661D01*
X220592250Y-181892179D01*
X218816408Y-183023360D01*
X216950669Y-184011121D01*
X214995208Y-184855378D01*
X212950198Y-185556049D01*
X210815815Y-186113050D01*
X208592233Y-186526298D01*
X208454000Y-186546811D01*
X208117723Y-186584010D01*
X207650266Y-186618944D01*
X207083737Y-186650712D01*
X206450244Y-186678416D01*
X205781896Y-186701154D01*
X205110801Y-186718027D01*
X204469067Y-186728136D01*
X203888803Y-186730580D01*
X203402117Y-186724460D01*
X203041118Y-186708875D01*
X202950666Y-186701046D01*
X201197097Y-186475593D01*
X199525098Y-186179227D01*
X197966795Y-185818000D01*
X197334844Y-185642825D01*
X195315833Y-184965922D01*
X193373222Y-184141567D01*
X191513271Y-183176434D01*
X189742241Y-182077194D01*
X188066393Y-180850522D01*
X186491990Y-179503089D01*
X185025292Y-178041570D01*
X183672561Y-176472637D01*
X182440057Y-174802963D01*
X181334042Y-173039221D01*
X180360778Y-171188084D01*
X179526526Y-169256225D01*
X178837546Y-167250318D01*
X178352543Y-165412295D01*
X178156127Y-164501139D01*
X178002648Y-163668097D01*
X177887657Y-162870723D01*
X177806706Y-162066569D01*
X177755348Y-161213185D01*
X177729134Y-160268125D01*
X177723278Y-159407334D01*
X177727344Y-158541702D01*
X177741792Y-157805179D01*
X177770413Y-157157668D01*
X177816995Y-156559072D01*
X177885326Y-155969295D01*
X177979196Y-155348241D01*
X178102393Y-154655811D01*
X178238761Y-153952138D01*
X178705920Y-152011585D01*
X179331363Y-150080153D01*
X180104714Y-148182078D01*
X181015600Y-146341595D01*
X182053647Y-144582940D01*
X182596959Y-143770762D01*
X183413130Y-142673401D01*
X184333162Y-141567344D01*
X185328435Y-140481367D01*
X186370328Y-139444245D01*
X187430219Y-138484754D01*
X188479486Y-137631669D01*
X189275006Y-137056688D01*
X189775708Y-136716667D01*
X193433339Y-136716667D01*
X193387109Y-136991834D01*
X193366358Y-137151832D01*
X193332360Y-137459391D01*
X193286458Y-137900125D01*
X193229995Y-138459649D01*
X193164314Y-139123577D01*
X193090758Y-139877525D01*
X193010670Y-140707105D01*
X192925394Y-141597933D01*
X192836271Y-142535624D01*
X192744645Y-143505792D01*
X192651860Y-144494051D01*
X192559258Y-145486016D01*
X192468182Y-146467302D01*
X192379975Y-147423523D01*
X192295980Y-148340293D01*
X192217541Y-149203228D01*
X192145999Y-149997941D01*
X192082699Y-150710047D01*
X192028984Y-151325161D01*
X191986195Y-151828898D01*
X191955677Y-152206871D01*
X191938772Y-152444695D01*
X191936675Y-152527898D01*
X192028577Y-152544154D01*
X192265285Y-152568949D01*
X192622581Y-152600600D01*
X193076247Y-152637422D01*
X193602065Y-152677732D01*
X194175816Y-152719848D01*
X194773284Y-152762085D01*
X195370248Y-152802760D01*
X195942492Y-152840190D01*
X196465797Y-152872691D01*
X196915944Y-152898579D01*
X197268716Y-152916172D01*
X197499895Y-152923785D01*
X197584446Y-152920487D01*
X197592452Y-152833607D01*
X197601332Y-152588883D01*
X197610929Y-152197804D01*
X197621084Y-151671855D01*
X197631640Y-151022524D01*
X197642439Y-150261299D01*
X197653322Y-149399665D01*
X197664133Y-148449110D01*
X197674712Y-147421122D01*
X197684903Y-146327186D01*
X197694546Y-145178791D01*
X197699236Y-144571335D01*
X197708323Y-143399328D01*
X197717628Y-142275810D01*
X197727023Y-141212275D01*
X197736380Y-140220216D01*
X197745571Y-139311129D01*
X197754467Y-138496507D01*
X197762940Y-137787845D01*
X197770861Y-137196636D01*
X197778103Y-136734376D01*
X197784538Y-136412558D01*
X197790036Y-136242676D01*
X197792452Y-136218227D01*
X197879352Y-136216578D01*
X198125110Y-136219948D01*
X198519335Y-136228053D01*
X199051636Y-136240610D01*
X199711621Y-136257336D01*
X200488898Y-136277947D01*
X201373076Y-136302160D01*
X202353764Y-136329691D01*
X203420569Y-136360257D01*
X204563101Y-136393575D01*
X205770967Y-136429361D01*
X207033776Y-136467331D01*
X207964662Y-136495664D01*
X209263942Y-136535341D01*
X210518035Y-136573508D01*
X211716330Y-136609849D01*
X212848217Y-136644048D01*
X213903084Y-136675789D01*
X214870322Y-136704756D01*
X215739319Y-136730631D01*
X216499466Y-136753099D01*
X217140151Y-136771844D01*
X217650764Y-136786550D01*
X218020694Y-136796899D01*
X218239332Y-136802577D01*
X218296500Y-136803604D01*
X218395688Y-136790782D01*
X218452743Y-136730865D01*
X218479233Y-136587237D01*
X218486725Y-136323284D01*
X218487000Y-136200622D01*
X218487000Y-135599910D01*
X218889166Y-135832384D01*
X218889166Y-135832384D01*
G37*
X218889166Y-135832384D02*
X219336144Y-136104491D01*
X219874426Y-136453892D01*
X220462865Y-136852383D01*
X221060310Y-137271764D01*
X221625611Y-137683830D01*
X221957823Y-137935546D01*
X222398596Y-138296783D01*
X222920817Y-138758526D01*
X223495917Y-139292558D01*
X224095329Y-139870661D01*
X224690484Y-140464615D01*
X225252814Y-141046203D01*
X225753751Y-141587206D01*
X226164728Y-142059406D01*
X226295390Y-142220000D01*
X227547430Y-143911804D01*
X228646999Y-145640704D01*
X229599900Y-147420354D01*
X230411933Y-149264410D01*
X231088902Y-151186527D01*
X231636610Y-153200360D01*
X232060857Y-155319564D01*
X232177492Y-156063000D01*
X232249609Y-156705095D01*
X232300681Y-157476994D01*
X232330950Y-158340514D01*
X232340657Y-159257468D01*
X232330044Y-160189673D01*
X232299352Y-161098943D01*
X232248822Y-161947094D01*
X232178697Y-162695939D01*
X232133353Y-163041629D01*
X231727671Y-165241663D01*
X231175688Y-167356541D01*
X230476976Y-169387098D01*
X229631109Y-171334171D01*
X228637659Y-173198594D01*
X227496200Y-174981204D01*
X226206304Y-176682836D01*
X224767544Y-178304325D01*
X223873545Y-179199889D01*
X222278021Y-180617661D01*
X220592250Y-181892179D01*
X218816408Y-183023360D01*
X216950669Y-184011121D01*
X214995208Y-184855378D01*
X212950198Y-185556049D01*
X210815815Y-186113050D01*
X208592233Y-186526298D01*
X208454000Y-186546811D01*
X208117723Y-186584010D01*
X207650266Y-186618944D01*
X207083737Y-186650712D01*
X206450244Y-186678416D01*
X205781896Y-186701154D01*
X205110801Y-186718027D01*
X204469067Y-186728136D01*
X203888803Y-186730580D01*
X203402117Y-186724460D01*
X203041118Y-186708875D01*
X202950666Y-186701046D01*
X201197097Y-186475593D01*
X199525098Y-186179227D01*
X197966795Y-185818000D01*
X197334844Y-185642825D01*
X195315833Y-184965922D01*
X193373222Y-184141567D01*
X191513271Y-183176434D01*
X189742241Y-182077194D01*
X188066393Y-180850522D01*
X186491990Y-179503089D01*
X185025292Y-178041570D01*
X183672561Y-176472637D01*
X182440057Y-174802963D01*
X181334042Y-173039221D01*
X180360778Y-171188084D01*
X179526526Y-169256225D01*
X178837546Y-167250318D01*
X178352543Y-165412295D01*
X178156127Y-164501139D01*
X178002648Y-163668097D01*
X177887657Y-162870723D01*
X177806706Y-162066569D01*
X177755348Y-161213185D01*
X177729134Y-160268125D01*
X177723278Y-159407334D01*
X177727344Y-158541702D01*
X177741792Y-157805179D01*
X177770413Y-157157668D01*
X177816995Y-156559072D01*
X177885326Y-155969295D01*
X177979196Y-155348241D01*
X178102393Y-154655811D01*
X178238761Y-153952138D01*
X178705920Y-152011585D01*
X179331363Y-150080153D01*
X180104714Y-148182078D01*
X181015600Y-146341595D01*
X182053647Y-144582940D01*
X182596959Y-143770762D01*
X183413130Y-142673401D01*
X184333162Y-141567344D01*
X185328435Y-140481367D01*
X186370328Y-139444245D01*
X187430219Y-138484754D01*
X188479486Y-137631669D01*
X189275006Y-137056688D01*
X189775708Y-136716667D01*
X193433339Y-136716667D01*
X193387109Y-136991834D01*
X193366358Y-137151832D01*
X193332360Y-137459391D01*
X193286458Y-137900125D01*
X193229995Y-138459649D01*
X193164314Y-139123577D01*
X193090758Y-139877525D01*
X193010670Y-140707105D01*
X192925394Y-141597933D01*
X192836271Y-142535624D01*
X192744645Y-143505792D01*
X192651860Y-144494051D01*
X192559258Y-145486016D01*
X192468182Y-146467302D01*
X192379975Y-147423523D01*
X192295980Y-148340293D01*
X192217541Y-149203228D01*
X192145999Y-149997941D01*
X192082699Y-150710047D01*
X192028984Y-151325161D01*
X191986195Y-151828898D01*
X191955677Y-152206871D01*
X191938772Y-152444695D01*
X191936675Y-152527898D01*
X192028577Y-152544154D01*
X192265285Y-152568949D01*
X192622581Y-152600600D01*
X193076247Y-152637422D01*
X193602065Y-152677732D01*
X194175816Y-152719848D01*
X194773284Y-152762085D01*
X195370248Y-152802760D01*
X195942492Y-152840190D01*
X196465797Y-152872691D01*
X196915944Y-152898579D01*
X197268716Y-152916172D01*
X197499895Y-152923785D01*
X197584446Y-152920487D01*
X197592452Y-152833607D01*
X197601332Y-152588883D01*
X197610929Y-152197804D01*
X197621084Y-151671855D01*
X197631640Y-151022524D01*
X197642439Y-150261299D01*
X197653322Y-149399665D01*
X197664133Y-148449110D01*
X197674712Y-147421122D01*
X197684903Y-146327186D01*
X197694546Y-145178791D01*
X197699236Y-144571335D01*
X197708323Y-143399328D01*
X197717628Y-142275810D01*
X197727023Y-141212275D01*
X197736380Y-140220216D01*
X197745571Y-139311129D01*
X197754467Y-138496507D01*
X197762940Y-137787845D01*
X197770861Y-137196636D01*
X197778103Y-136734376D01*
X197784538Y-136412558D01*
X197790036Y-136242676D01*
X197792452Y-136218227D01*
X197879352Y-136216578D01*
X198125110Y-136219948D01*
X198519335Y-136228053D01*
X199051636Y-136240610D01*
X199711621Y-136257336D01*
X200488898Y-136277947D01*
X201373076Y-136302160D01*
X202353764Y-136329691D01*
X203420569Y-136360257D01*
X204563101Y-136393575D01*
X205770967Y-136429361D01*
X207033776Y-136467331D01*
X207964662Y-136495664D01*
X209263942Y-136535341D01*
X210518035Y-136573508D01*
X211716330Y-136609849D01*
X212848217Y-136644048D01*
X213903084Y-136675789D01*
X214870322Y-136704756D01*
X215739319Y-136730631D01*
X216499466Y-136753099D01*
X217140151Y-136771844D01*
X217650764Y-136786550D01*
X218020694Y-136796899D01*
X218239332Y-136802577D01*
X218296500Y-136803604D01*
X218395688Y-136790782D01*
X218452743Y-136730865D01*
X218479233Y-136587237D01*
X218486725Y-136323284D01*
X218487000Y-136200622D01*
X218487000Y-135599910D01*
X218889166Y-135832384D01*
G36*
X215762147Y-101177144D02*
X216597355Y-101786981D01*
X217462321Y-102517641D01*
X218320722Y-103334038D01*
X219136232Y-104201089D01*
X219872529Y-105083710D01*
X220056974Y-105325404D01*
X221055755Y-106800030D01*
X221901450Y-108345191D01*
X222594891Y-109962951D01*
X223136908Y-111655372D01*
X223528329Y-113424518D01*
X223660096Y-114280000D01*
X223712253Y-114813581D01*
X223746550Y-115466905D01*
X223762956Y-116191327D01*
X223761443Y-116938199D01*
X223741980Y-117658873D01*
X223704536Y-118304701D01*
X223662852Y-118725000D01*
X223382032Y-120355607D01*
X222956678Y-121966160D01*
X222396286Y-123535326D01*
X221710351Y-125041772D01*
X220908370Y-126464163D01*
X219999837Y-127781168D01*
X219203635Y-128743488D01*
X218827048Y-129162343D01*
X216815524Y-129221394D01*
X216065667Y-129248575D01*
X215420046Y-129282540D01*
X214896066Y-129322039D01*
X214511129Y-129365822D01*
X214326112Y-129400222D01*
X214235475Y-129422515D01*
X214145093Y-129442303D01*
X214046368Y-129459354D01*
X213930699Y-129473434D01*
X213789489Y-129484312D01*
X213614136Y-129491755D01*
X213396043Y-129495529D01*
X213126610Y-129495403D01*
X212797238Y-129491144D01*
X212399328Y-129482518D01*
X211924280Y-129469294D01*
X211363496Y-129451239D01*
X210708376Y-129428119D01*
X209950321Y-129399703D01*
X209080731Y-129365758D01*
X208091009Y-129326051D01*
X206972553Y-129280349D01*
X205716766Y-129228420D01*
X204315048Y-129170032D01*
X202758799Y-129104950D01*
X201565521Y-129054979D01*
X190951710Y-128610425D01*
X190747343Y-128366713D01*
X190539249Y-128103234D01*
X190268772Y-127739198D01*
X189965291Y-127316360D01*
X189658185Y-126876476D01*
X189376834Y-126461303D01*
X189150618Y-126112597D01*
X189077947Y-125994048D01*
X188691513Y-125293941D01*
X188297883Y-124486554D01*
X187923472Y-123630568D01*
X187594697Y-122784669D01*
X187463694Y-122408000D01*
X186982396Y-120699036D01*
X186666085Y-118968795D01*
X186514031Y-117227895D01*
X186525498Y-115486951D01*
X186699756Y-113756579D01*
X187036071Y-112047394D01*
X187320257Y-111089494D01*
X201518245Y-111089494D01*
X201591479Y-111440646D01*
X201799536Y-111902412D01*
X202127152Y-112334861D01*
X202532180Y-112693914D01*
X202972475Y-112935496D01*
X203045088Y-112960849D01*
X203596356Y-113056421D01*
X204176942Y-113018150D01*
X204701144Y-112858095D01*
X205199372Y-112541923D01*
X205610162Y-112090507D01*
X205853270Y-111666734D01*
X206014916Y-111122079D01*
X206018987Y-110932133D01*
X209737198Y-110932133D01*
X209769494Y-111125191D01*
X209956981Y-111651988D01*
X210267132Y-112130198D01*
X210668200Y-112523230D01*
X211128436Y-112794493D01*
X211259314Y-112842296D01*
X211562489Y-112893557D01*
X211957766Y-112901548D01*
X212377965Y-112870779D01*
X212755904Y-112805761D01*
X212996337Y-112725683D01*
X213483860Y-112400107D01*
X213862292Y-111967314D01*
X214121802Y-111457283D01*
X214252555Y-110899989D01*
X214244720Y-110325408D01*
X214088465Y-109763518D01*
X214017214Y-109613383D01*
X213667055Y-109121381D01*
X213194537Y-108739396D01*
X212616163Y-108480539D01*
X212575875Y-108468455D01*
X212016119Y-108386031D01*
X211474224Y-108453662D01*
X210970535Y-108652091D01*
X210525395Y-108962059D01*
X210159147Y-109364305D01*
X209892136Y-109839572D01*
X209744705Y-110368601D01*
X209737198Y-110932133D01*
X206018987Y-110932133D01*
X206027168Y-110550485D01*
X205897409Y-109989000D01*
X205633024Y-109474674D01*
X205349919Y-109141290D01*
X204873146Y-108795330D01*
X204330486Y-108586622D01*
X203755528Y-108517105D01*
X203181857Y-108588716D01*
X202643062Y-108803392D01*
X202389964Y-108970556D01*
X201964881Y-109399419D01*
X201671387Y-109915677D01*
X201519252Y-110489110D01*
X201518245Y-111089494D01*
X187320257Y-111089494D01*
X187533711Y-110370014D01*
X188191943Y-108735054D01*
X188443739Y-108207716D01*
X188626881Y-107858963D01*
X188797278Y-107570036D01*
X188934529Y-107373440D01*
X189011779Y-107302598D01*
X189108089Y-107278086D01*
X189359890Y-107215016D01*
X189758319Y-107115591D01*
X190294510Y-106982014D01*
X190959602Y-106816486D01*
X191744730Y-106621212D01*
X192641030Y-106398394D01*
X193639640Y-106150235D01*
X194731695Y-105878937D01*
X195908332Y-105586704D01*
X197160687Y-105275738D01*
X198479896Y-104948241D01*
X199857097Y-104606418D01*
X201283425Y-104252470D01*
X202173147Y-104031716D01*
X215196295Y-100800667D01*
X215762147Y-101177144D01*
X215762147Y-101177144D01*
G37*
X215762147Y-101177144D02*
X216597355Y-101786981D01*
X217462321Y-102517641D01*
X218320722Y-103334038D01*
X219136232Y-104201089D01*
X219872529Y-105083710D01*
X220056974Y-105325404D01*
X221055755Y-106800030D01*
X221901450Y-108345191D01*
X222594891Y-109962951D01*
X223136908Y-111655372D01*
X223528329Y-113424518D01*
X223660096Y-114280000D01*
X223712253Y-114813581D01*
X223746550Y-115466905D01*
X223762956Y-116191327D01*
X223761443Y-116938199D01*
X223741980Y-117658873D01*
X223704536Y-118304701D01*
X223662852Y-118725000D01*
X223382032Y-120355607D01*
X222956678Y-121966160D01*
X222396286Y-123535326D01*
X221710351Y-125041772D01*
X220908370Y-126464163D01*
X219999837Y-127781168D01*
X219203635Y-128743488D01*
X218827048Y-129162343D01*
X216815524Y-129221394D01*
X216065667Y-129248575D01*
X215420046Y-129282540D01*
X214896066Y-129322039D01*
X214511129Y-129365822D01*
X214326112Y-129400222D01*
X214235475Y-129422515D01*
X214145093Y-129442303D01*
X214046368Y-129459354D01*
X213930699Y-129473434D01*
X213789489Y-129484312D01*
X213614136Y-129491755D01*
X213396043Y-129495529D01*
X213126610Y-129495403D01*
X212797238Y-129491144D01*
X212399328Y-129482518D01*
X211924280Y-129469294D01*
X211363496Y-129451239D01*
X210708376Y-129428119D01*
X209950321Y-129399703D01*
X209080731Y-129365758D01*
X208091009Y-129326051D01*
X206972553Y-129280349D01*
X205716766Y-129228420D01*
X204315048Y-129170032D01*
X202758799Y-129104950D01*
X201565521Y-129054979D01*
X190951710Y-128610425D01*
X190747343Y-128366713D01*
X190539249Y-128103234D01*
X190268772Y-127739198D01*
X189965291Y-127316360D01*
X189658185Y-126876476D01*
X189376834Y-126461303D01*
X189150618Y-126112597D01*
X189077947Y-125994048D01*
X188691513Y-125293941D01*
X188297883Y-124486554D01*
X187923472Y-123630568D01*
X187594697Y-122784669D01*
X187463694Y-122408000D01*
X186982396Y-120699036D01*
X186666085Y-118968795D01*
X186514031Y-117227895D01*
X186525498Y-115486951D01*
X186699756Y-113756579D01*
X187036071Y-112047394D01*
X187320257Y-111089494D01*
X201518245Y-111089494D01*
X201591479Y-111440646D01*
X201799536Y-111902412D01*
X202127152Y-112334861D01*
X202532180Y-112693914D01*
X202972475Y-112935496D01*
X203045088Y-112960849D01*
X203596356Y-113056421D01*
X204176942Y-113018150D01*
X204701144Y-112858095D01*
X205199372Y-112541923D01*
X205610162Y-112090507D01*
X205853270Y-111666734D01*
X206014916Y-111122079D01*
X206018987Y-110932133D01*
X209737198Y-110932133D01*
X209769494Y-111125191D01*
X209956981Y-111651988D01*
X210267132Y-112130198D01*
X210668200Y-112523230D01*
X211128436Y-112794493D01*
X211259314Y-112842296D01*
X211562489Y-112893557D01*
X211957766Y-112901548D01*
X212377965Y-112870779D01*
X212755904Y-112805761D01*
X212996337Y-112725683D01*
X213483860Y-112400107D01*
X213862292Y-111967314D01*
X214121802Y-111457283D01*
X214252555Y-110899989D01*
X214244720Y-110325408D01*
X214088465Y-109763518D01*
X214017214Y-109613383D01*
X213667055Y-109121381D01*
X213194537Y-108739396D01*
X212616163Y-108480539D01*
X212575875Y-108468455D01*
X212016119Y-108386031D01*
X211474224Y-108453662D01*
X210970535Y-108652091D01*
X210525395Y-108962059D01*
X210159147Y-109364305D01*
X209892136Y-109839572D01*
X209744705Y-110368601D01*
X209737198Y-110932133D01*
X206018987Y-110932133D01*
X206027168Y-110550485D01*
X205897409Y-109989000D01*
X205633024Y-109474674D01*
X205349919Y-109141290D01*
X204873146Y-108795330D01*
X204330486Y-108586622D01*
X203755528Y-108517105D01*
X203181857Y-108588716D01*
X202643062Y-108803392D01*
X202389964Y-108970556D01*
X201964881Y-109399419D01*
X201671387Y-109915677D01*
X201519252Y-110489110D01*
X201518245Y-111089494D01*
X187320257Y-111089494D01*
X187533711Y-110370014D01*
X188191943Y-108735054D01*
X188443739Y-108207716D01*
X188626881Y-107858963D01*
X188797278Y-107570036D01*
X188934529Y-107373440D01*
X189011779Y-107302598D01*
X189108089Y-107278086D01*
X189359890Y-107215016D01*
X189758319Y-107115591D01*
X190294510Y-106982014D01*
X190959602Y-106816486D01*
X191744730Y-106621212D01*
X192641030Y-106398394D01*
X193639640Y-106150235D01*
X194731695Y-105878937D01*
X195908332Y-105586704D01*
X197160687Y-105275738D01*
X198479896Y-104948241D01*
X199857097Y-104606418D01*
X201283425Y-104252470D01*
X202173147Y-104031716D01*
X215196295Y-100800667D01*
X215762147Y-101177144D01*
D12*
X204206557Y-174579982D02*
X204349414Y-174627601D01*
X204587510Y-174627601D01*
X204682748Y-174579982D01*
X204730367Y-174532363D01*
X204777986Y-174437125D01*
X204777986Y-174341887D01*
X204730367Y-174246649D01*
X204682748Y-174199030D01*
X204587510Y-174151410D01*
X204397033Y-174103791D01*
X204301795Y-174056172D01*
X204254176Y-174008553D01*
X204206557Y-173913315D01*
X204206557Y-173818077D01*
X204254176Y-173722839D01*
X204301795Y-173675220D01*
X204397033Y-173627601D01*
X204635129Y-173627601D01*
X204777986Y-173675220D01*
X205111319Y-173627601D02*
X205349414Y-174627601D01*
X205539891Y-173913315D01*
X205730367Y-174627601D01*
X205968462Y-173627601D01*
X206873224Y-174627601D02*
X206301795Y-174627601D01*
X206587509Y-174627601D02*
X206587509Y-173627601D01*
X206492271Y-173770458D01*
X206397033Y-173865696D01*
X206301795Y-173913315D01*
M02*
