G04 #@! TF.FileFunction,Profile,NP*
%FSLAX46Y46*%
G04 Gerber Fmt 4.6, Leading zero omitted, Abs format (unit mm)*
G04 Created by KiCad (PCBNEW 4.0.4-stable) date 12/07/16 00:33:37*
%MOMM*%
%LPD*%
G01*
G04 APERTURE LIST*
%ADD10C,0.100000*%
G04 APERTURE END LIST*
D10*
X217613727Y-101047613D02*
X218390186Y-101767828D01*
X218123218Y-100891348D02*
X217613727Y-101047613D01*
X219087528Y-100740606D02*
X218123218Y-100891348D01*
X219605548Y-100607413D02*
X219087528Y-100740606D01*
X219938648Y-100411413D02*
X219605548Y-100607413D01*
X220060703Y-100278082D02*
X219938648Y-100411413D01*
X220153797Y-100116400D02*
X220060703Y-100278082D01*
X220220127Y-99894324D02*
X220153797Y-100116400D01*
X220244922Y-99633902D02*
X220220127Y-99894324D01*
X220219120Y-99221045D02*
X220244922Y-99633902D01*
X220134555Y-98767843D02*
X220219120Y-99221045D01*
X219958454Y-98153418D02*
X220134555Y-98767843D01*
X219732746Y-97547766D02*
X219958454Y-98153418D01*
X219244602Y-96538092D02*
X219732746Y-97547766D01*
X218968341Y-96136969D02*
X219244602Y-96538092D01*
X217540882Y-96359747D02*
X218968341Y-96136969D01*
X215845981Y-96739172D02*
X217540882Y-96359747D01*
X214201328Y-97168860D02*
X215845981Y-96739172D01*
X212194934Y-97661093D02*
X214201328Y-97168860D01*
X219154361Y-102538351D02*
X219825000Y-103275000D01*
X218390186Y-101767828D02*
X219154361Y-102538351D01*
X211775760Y-96187842D02*
X212194934Y-97661093D01*
X210868168Y-93210638D02*
X211775760Y-96187842D01*
X209920154Y-90245001D02*
X210868168Y-93210638D01*
X208469745Y-85638403D02*
X209920154Y-90245001D01*
X208364399Y-85247229D02*
X208469745Y-85638403D01*
X208025150Y-83823034D02*
X208364399Y-85247229D01*
X207726368Y-82869116D02*
X208025150Y-83823034D01*
X207422290Y-82235144D02*
X207726368Y-82869116D01*
X207108142Y-81837317D02*
X207422290Y-82235144D01*
X206774845Y-81616827D02*
X207108142Y-81837317D01*
X206592334Y-81562933D02*
X206774845Y-81616827D01*
X206396885Y-81547827D02*
X206592334Y-81562933D01*
X206183765Y-81574377D02*
X206396885Y-81547827D01*
X196400470Y-83777441D02*
X206183765Y-81574377D01*
X186371704Y-86061621D02*
X196400470Y-83777441D01*
X186288505Y-86080176D02*
X186371704Y-86061621D01*
X184981521Y-86382269D02*
X186288505Y-86080176D01*
X184186462Y-86633703D02*
X184981521Y-86382269D01*
X183827705Y-86824713D02*
X184186462Y-86633703D01*
X183747055Y-86908423D02*
X183827705Y-86824713D01*
X183646606Y-87164679D02*
X183747055Y-86908423D01*
X183615089Y-87437872D02*
X183646606Y-87164679D01*
X183638229Y-87929266D02*
X183615089Y-87437872D01*
X183726242Y-88487768D02*
X183638229Y-87929266D01*
X184009369Y-89664435D02*
X183726242Y-88487768D01*
X184339790Y-90887686D02*
X184009369Y-89664435D01*
X185766296Y-97073614D02*
X184339790Y-90887686D01*
X187133758Y-103079718D02*
X185766296Y-97073614D01*
X185652305Y-103613989D02*
X187133758Y-103079718D01*
X184000961Y-104180426D02*
X185652305Y-103613989D01*
X183950393Y-104198858D02*
X184000961Y-104180426D01*
X182765426Y-104622824D02*
X183950393Y-104198858D01*
X181957771Y-104985907D02*
X182765426Y-104622824D01*
X181486671Y-105298346D02*
X181957771Y-104985907D01*
X181256584Y-105571142D02*
X181486671Y-105298346D01*
X181207077Y-105704046D02*
X181256584Y-105571142D01*
X181186477Y-106097571D02*
X181207077Y-105704046D01*
X181314033Y-106688605D02*
X181186477Y-106097571D01*
X181535324Y-107285711D02*
X181314033Y-106688605D01*
X181799720Y-107990347D02*
X181535324Y-107285711D01*
X181975456Y-108733587D02*
X181799720Y-107990347D01*
X182145111Y-109271368D02*
X181975456Y-108733587D01*
X182355384Y-109606482D02*
X182145111Y-109271368D01*
X182487205Y-109722601D02*
X182355384Y-109606482D01*
X182638626Y-109804510D02*
X182487205Y-109722601D01*
X182815673Y-109852942D02*
X182638626Y-109804510D01*
X183120262Y-109849707D02*
X182815673Y-109852942D01*
X183453903Y-109727942D02*
X183120262Y-109849707D01*
X183768631Y-109544043D02*
X183453903Y-109727942D01*
X184170463Y-109344961D02*
X183768631Y-109544043D01*
X184482101Y-109246710D02*
X184170463Y-109344961D01*
X185972595Y-108917227D02*
X184482101Y-109246710D01*
X187133758Y-108667654D02*
X185972595Y-108917227D01*
X186720474Y-109575354D02*
X187133758Y-108667654D01*
X186462776Y-110273138D02*
X186720474Y-109575354D01*
X186240944Y-110997656D02*
X186462776Y-110273138D01*
X186043953Y-111791662D02*
X186240944Y-110997656D01*
X185885376Y-112608374D02*
X186043953Y-111791662D01*
X185758712Y-113489691D02*
X185885376Y-112608374D01*
X185672462Y-114387549D02*
X185758712Y-113489691D01*
X185624313Y-115336981D02*
X185672462Y-114387549D01*
X185617561Y-116294531D02*
X185624313Y-115336981D01*
X185652374Y-117281775D02*
X185617561Y-116294531D01*
X185728088Y-118266791D02*
X185652374Y-117281775D01*
X185844459Y-119252661D02*
X185728088Y-118266791D01*
X185999534Y-120225073D02*
X185844459Y-119252661D01*
X186414299Y-122085966D02*
X185999534Y-120225073D01*
X186944435Y-123777228D02*
X186414299Y-122085966D01*
X187557350Y-125249182D02*
X186944435Y-123777228D01*
X188221729Y-126478323D02*
X187557350Y-125249182D01*
X188911777Y-127463751D02*
X188221729Y-126478323D01*
X188851322Y-127486654D02*
X188911777Y-127463751D01*
X188497058Y-127702032D02*
X188851322Y-127486654D01*
X188370029Y-127851446D02*
X188497058Y-127702032D01*
X188257770Y-128063467D02*
X188370029Y-127851446D01*
X188149723Y-128394964D02*
X188257770Y-128063467D01*
X188013126Y-129099493D02*
X188149723Y-128394964D01*
X187938556Y-129975332D02*
X188013126Y-129099493D01*
X187925525Y-130923941D02*
X187938556Y-129975332D01*
X188041736Y-133854895D02*
X187925525Y-130923941D01*
X188064930Y-135516119D02*
X188041736Y-133854895D01*
X187980396Y-136692297D02*
X188064930Y-135516119D01*
X186077362Y-138383093D02*
X187980396Y-136692297D01*
X184381637Y-140069403D02*
X186077362Y-138383093D01*
X182905334Y-141737646D02*
X184381637Y-140069403D01*
X181617241Y-143413305D02*
X182905334Y-141737646D01*
X180497284Y-145114615D02*
X181617241Y-143413305D01*
X179532188Y-146856390D02*
X180497284Y-145114615D01*
X178713409Y-148651770D02*
X179532188Y-146856390D01*
X178036102Y-150513189D02*
X178713409Y-148651770D01*
X177498558Y-152452887D02*
X178036102Y-150513189D01*
X177101829Y-154483206D02*
X177498558Y-152452887D01*
X176849533Y-156616766D02*
X177101829Y-154483206D01*
X176747642Y-158866476D02*
X176849533Y-156616766D01*
X176804329Y-161245672D02*
X176747642Y-158866476D01*
X176997375Y-163290625D02*
X176804329Y-161245672D01*
X177156974Y-164339758D02*
X176997375Y-163290625D01*
X177354988Y-165371451D02*
X177156974Y-164339758D01*
X177595314Y-166405813D02*
X177354988Y-165371451D01*
X177872902Y-167420843D02*
X177595314Y-166405813D01*
X178193443Y-168437018D02*
X177872902Y-167420843D01*
X178549919Y-169431814D02*
X178193443Y-168437018D01*
X178949669Y-170425375D02*
X178549919Y-169431814D01*
X179383812Y-171395315D02*
X178949669Y-170425375D01*
X179860992Y-172360724D02*
X179383812Y-171395315D01*
X180370712Y-173300116D02*
X179860992Y-172360724D01*
X180922363Y-174230688D02*
X180370712Y-173300116D01*
X181504341Y-175132712D02*
X180922363Y-174230688D01*
X182125976Y-176020727D02*
X181504341Y-175132712D01*
X182775299Y-176877600D02*
X182125976Y-176020727D01*
X183460571Y-177714468D02*
X182775299Y-176877600D01*
X184170463Y-178517660D02*
X183460571Y-177714468D01*
X185327697Y-179707998D02*
X184170463Y-178517660D01*
X186909843Y-181134360D02*
X185327697Y-179707998D01*
X188583805Y-182431357D02*
X186909843Y-181134360D01*
X190339923Y-183592871D02*
X188583805Y-182431357D01*
X192169559Y-184614248D02*
X190339923Y-183592871D01*
X194065067Y-185491980D02*
X192169559Y-184614248D01*
X196019992Y-186223334D02*
X194065067Y-185491980D01*
X198028980Y-186806097D02*
X196019992Y-186223334D01*
X200087665Y-187238226D02*
X198028980Y-186806097D01*
X201442371Y-187430365D02*
X200087665Y-187238226D01*
X202570758Y-187537817D02*
X201442371Y-187430365D01*
X203727802Y-187605444D02*
X202570758Y-187537817D01*
X206086902Y-187621939D02*
X203727802Y-187605444D01*
X208287296Y-187488730D02*
X206086902Y-187621939D01*
X210163013Y-187238226D02*
X208287296Y-187488730D01*
X211689273Y-186925924D02*
X210163013Y-187238226D01*
X212722049Y-186663290D02*
X211689273Y-186925924D01*
X213734928Y-186363974D02*
X212722049Y-186663290D01*
X214742557Y-186023688D02*
X213734928Y-186363974D01*
X215728412Y-185648031D02*
X214742557Y-186023688D01*
X216706394Y-185231726D02*
X215728412Y-185648031D01*
X217660648Y-184781546D02*
X216706394Y-185231726D01*
X218603763Y-184291571D02*
X217660648Y-184781546D01*
X219521106Y-183769400D02*
X218603763Y-184291571D01*
X220423450Y-183208944D02*
X219521106Y-183769400D01*
X221297947Y-182618277D02*
X220423450Y-183208944D01*
X222153110Y-181991690D02*
X221297947Y-182618277D01*
X222978321Y-181337088D02*
X222153110Y-181991690D01*
X223779575Y-180649893D02*
X222978321Y-181337088D01*
X224548847Y-179937170D02*
X223779575Y-180649893D01*
X225289478Y-179196158D02*
X224548847Y-179937170D01*
X225996219Y-178432333D02*
X225289478Y-179196158D01*
X226271854Y-178119177D02*
X225996219Y-178432333D01*
X227706745Y-176360007D02*
X226271854Y-178119177D01*
X228959018Y-174593710D02*
X227706745Y-176360007D01*
X230042926Y-172807944D02*
X228959018Y-174593710D01*
X230968326Y-170992529D02*
X230042926Y-172807944D01*
X231741855Y-169138403D02*
X230968326Y-170992529D01*
X232367481Y-167236838D02*
X231741855Y-169138403D01*
X232846759Y-165279242D02*
X232367481Y-167236838D01*
X233179050Y-163256888D02*
X232846759Y-165279242D01*
X233361606Y-161160910D02*
X233179050Y-163256888D01*
X233383854Y-160634451D02*
X233361606Y-161160910D01*
X233403629Y-159481131D02*
X233383854Y-160634451D01*
X233382999Y-158366141D02*
X233403629Y-159481131D01*
X233322361Y-157270041D02*
X233382999Y-158366141D01*
X233223484Y-156209631D02*
X233322361Y-157270041D01*
X233083850Y-155154837D02*
X233223484Y-156209631D01*
X232907581Y-154133536D02*
X233083850Y-155154837D01*
X232686786Y-153101767D02*
X232907581Y-154133536D01*
X232430393Y-152101690D02*
X232686786Y-153101767D01*
X232365818Y-151872061D02*
X232430393Y-152101690D01*
X231657367Y-149671271D02*
X232365818Y-151872061D01*
X230828540Y-147607229D02*
X231657367Y-149671271D01*
X230368915Y-146622107D02*
X230828540Y-147607229D01*
X229879825Y-145667929D02*
X230368915Y-146622107D01*
X229359272Y-144740179D02*
X229879825Y-145667929D01*
X228809742Y-143842550D02*
X229359272Y-144740179D01*
X228226566Y-142967245D02*
X228809742Y-143842550D01*
X227614673Y-142121435D02*
X228226566Y-142967245D01*
X226966068Y-141294287D02*
X227614673Y-142121435D01*
X226288822Y-140496206D02*
X226966068Y-141294287D01*
X225570850Y-139713537D02*
X226288822Y-140496206D01*
X224824070Y-138959707D02*
X225570850Y-139713537D01*
X224031543Y-138218466D02*
X224824070Y-138959707D01*
X223209797Y-137506033D02*
X224031543Y-138218466D01*
X222336185Y-136803824D02*
X223209797Y-137506033D01*
X221432727Y-136130545D02*
X222336185Y-136803824D01*
X220469959Y-135465506D02*
X221432727Y-136130545D01*
X219476490Y-134829703D02*
X220469959Y-135465506D01*
X219609897Y-132338553D02*
X219476490Y-134829703D01*
X219645649Y-129749746D02*
X219609897Y-132338553D01*
X220802799Y-128296316D02*
X219645649Y-129749746D01*
X221866657Y-126750937D02*
X220802799Y-128296316D01*
X222749378Y-125217901D02*
X221866657Y-126750937D01*
X223468814Y-123674421D02*
X222749378Y-125217901D01*
X224035144Y-122103514D02*
X223468814Y-123674421D01*
X224453357Y-120490790D02*
X224035144Y-122103514D01*
X224724338Y-118823065D02*
X224453357Y-120490790D01*
X224845371Y-117087561D02*
X224724338Y-118823065D01*
X224810535Y-115271734D02*
X224845371Y-117087561D01*
X224694950Y-114016241D02*
X224810535Y-115271734D01*
X224562671Y-113107077D02*
X224694950Y-114016241D01*
X224393482Y-112225897D02*
X224562671Y-113107077D01*
X224182453Y-111346411D02*
X224393482Y-112225897D01*
X223936298Y-110495764D02*
X224182453Y-111346411D01*
X223645679Y-109642401D02*
X223936298Y-110495764D01*
X223321781Y-108819189D02*
X223645679Y-109642401D01*
X222949329Y-107988684D02*
X223321781Y-108819189D01*
X222545597Y-107190176D02*
X222949329Y-107988684D01*
X222087375Y-106379599D02*
X222545597Y-107190176D01*
X221600330Y-105603522D02*
X222087375Y-106379599D01*
X221050480Y-104810049D02*
X221600330Y-105603522D01*
X220475132Y-104054541D02*
X221050480Y-104810049D01*
X219825000Y-103275000D02*
X220475132Y-104054541D01*
M02*
