G04 #@! TF.FileFunction,Soldermask,Bot*
%FSLAX46Y46*%
G04 Gerber Fmt 4.6, Leading zero omitted, Abs format (unit mm)*
G04 Created by KiCad (PCBNEW 4.0.4-stable) date 12/07/16 00:33:37*
%MOMM*%
%LPD*%
G01*
G04 APERTURE LIST*
%ADD10C,0.100000*%
%ADD11C,1.700000*%
%ADD12C,1.524000*%
%ADD13C,2.000000*%
%ADD14R,1.600200X3.599180*%
%ADD15R,3.599180X1.600200*%
%ADD16R,0.700000X0.600000*%
%ADD17R,0.590000X0.450000*%
%ADD18R,1.000000X1.000000*%
%ADD19R,1.727200X2.032000*%
%ADD20O,1.727200X2.032000*%
%ADD21R,0.600000X0.700000*%
%ADD22R,1.600000X2.180000*%
%ADD23R,2.500000X1.100000*%
%ADD24O,2.500000X1.100000*%
%ADD25O,1.100000X2.400000*%
%ADD26C,1.800000*%
G04 APERTURE END LIST*
D10*
D11*
X204350000Y-110825000D03*
D12*
X204350000Y-155525000D03*
D13*
X192950000Y-89150000D03*
X192950000Y-96749680D03*
D14*
X191750000Y-159050820D03*
X191750000Y-153549180D03*
D15*
X214699180Y-143475000D03*
X220200820Y-143475000D03*
D16*
X191100000Y-173575000D03*
X189900000Y-173575000D03*
D17*
X222280000Y-170600000D03*
X220170000Y-170600000D03*
D18*
X225775000Y-172425000D03*
X225775000Y-173725000D03*
X220575000Y-172875000D03*
X221875000Y-172875000D03*
D19*
X206730000Y-103225000D03*
D20*
X204190000Y-103225000D03*
X201650000Y-103225000D03*
D10*
G36*
X221061872Y-173952074D02*
X222157888Y-175048090D01*
X221733624Y-175472354D01*
X220637608Y-174376338D01*
X221061872Y-173952074D01*
X221061872Y-173952074D01*
G37*
G36*
X220354765Y-174659180D02*
X221450781Y-175755196D01*
X221026517Y-176179460D01*
X219930501Y-175083444D01*
X220354765Y-174659180D01*
X220354765Y-174659180D01*
G37*
G36*
X219647658Y-175366287D02*
X220743674Y-176462303D01*
X220319410Y-176886567D01*
X219223394Y-175790551D01*
X219647658Y-175366287D01*
X219647658Y-175366287D01*
G37*
G36*
X218940551Y-176073394D02*
X220036567Y-177169410D01*
X219612303Y-177593674D01*
X218516287Y-176497658D01*
X218940551Y-176073394D01*
X218940551Y-176073394D01*
G37*
G36*
X218233444Y-176780501D02*
X219329460Y-177876517D01*
X218905196Y-178300781D01*
X217809180Y-177204765D01*
X218233444Y-176780501D01*
X218233444Y-176780501D01*
G37*
G36*
X217526338Y-177487608D02*
X218622354Y-178583624D01*
X218198090Y-179007888D01*
X217102074Y-177911872D01*
X217526338Y-177487608D01*
X217526338Y-177487608D01*
G37*
G36*
X224844893Y-175472354D02*
X226117685Y-176745146D01*
X225269157Y-177593674D01*
X223996365Y-176320882D01*
X224844893Y-175472354D01*
X224844893Y-175472354D01*
G37*
G36*
X219470882Y-180846365D02*
X220743674Y-182119157D01*
X219895146Y-182967685D01*
X218622354Y-181694893D01*
X219470882Y-180846365D01*
X219470882Y-180846365D01*
G37*
D16*
X189300000Y-163925000D03*
X190500000Y-163925000D03*
X221150000Y-165825000D03*
X222350000Y-165825000D03*
X221150000Y-163650000D03*
X222350000Y-163650000D03*
D21*
X227775000Y-171325000D03*
X227775000Y-170125000D03*
D16*
X187450000Y-173575000D03*
X188650000Y-173575000D03*
X222350000Y-168400000D03*
X221150000Y-168400000D03*
D22*
X227747680Y-157172570D03*
X227752320Y-166377430D03*
X183747680Y-158347570D03*
X183752320Y-167552430D03*
D23*
X197875000Y-175700000D03*
D24*
X197875000Y-173700000D03*
X197875000Y-171700000D03*
X197875000Y-169700000D03*
X197875000Y-167700000D03*
X197875000Y-165700000D03*
X197875000Y-163700000D03*
X197875000Y-161700000D03*
D25*
X200565000Y-159950000D03*
X202565000Y-159950000D03*
X204565000Y-159950000D03*
X206565000Y-159950000D03*
X208565000Y-159950000D03*
X210565000Y-159950000D03*
D24*
X213275000Y-161700000D03*
X213175000Y-163700000D03*
X213275000Y-165700000D03*
X213275000Y-167700000D03*
X213275000Y-169700000D03*
X213275000Y-171700000D03*
X213275000Y-173700000D03*
X213275000Y-175700000D03*
D18*
X191300000Y-170350000D03*
X191300000Y-169050000D03*
D26*
X212575000Y-110625000D03*
M02*
