G04 #@! TF.FileFunction,Copper,L2,Bot,Signal*
%FSLAX46Y46*%
G04 Gerber Fmt 4.6, Leading zero omitted, Abs format (unit mm)*
G04 Created by KiCad (PCBNEW 4.0.4-stable) date 12/07/16 00:33:37*
%MOMM*%
%LPD*%
G01*
G04 APERTURE LIST*
%ADD10C,0.100000*%
%ADD11C,1.700000*%
%ADD12C,1.524000*%
%ADD13C,2.000000*%
%ADD14R,1.600200X3.599180*%
%ADD15R,3.599180X1.600200*%
%ADD16R,0.700000X0.600000*%
%ADD17R,0.590000X0.450000*%
%ADD18R,1.000000X1.000000*%
%ADD19R,1.727200X2.032000*%
%ADD20O,1.727200X2.032000*%
%ADD21R,0.600000X0.700000*%
%ADD22R,1.600000X2.180000*%
%ADD23R,2.500000X1.100000*%
%ADD24O,2.500000X1.100000*%
%ADD25O,1.100000X2.400000*%
%ADD26C,1.800000*%
%ADD27C,2.500000*%
%ADD28C,0.600000*%
%ADD29C,0.890000*%
%ADD30C,0.200000*%
%ADD31C,0.600000*%
%ADD32C,0.400000*%
%ADD33C,0.254000*%
G04 APERTURE END LIST*
D10*
D11*
X204350000Y-110825000D03*
D12*
X204350000Y-155525000D03*
D13*
X192950000Y-89150000D03*
X192950000Y-96749680D03*
D14*
X191750000Y-159050820D03*
X191750000Y-153549180D03*
D15*
X214699180Y-143475000D03*
X220200820Y-143475000D03*
D16*
X191100000Y-173575000D03*
X189900000Y-173575000D03*
D17*
X222280000Y-170600000D03*
X220170000Y-170600000D03*
D18*
X225775000Y-172425000D03*
X225775000Y-173725000D03*
X220575000Y-172875000D03*
X221875000Y-172875000D03*
D19*
X206730000Y-103225000D03*
D20*
X204190000Y-103225000D03*
X201650000Y-103225000D03*
D10*
G36*
X221061872Y-173952074D02*
X222157888Y-175048090D01*
X221733624Y-175472354D01*
X220637608Y-174376338D01*
X221061872Y-173952074D01*
X221061872Y-173952074D01*
G37*
G36*
X220354765Y-174659180D02*
X221450781Y-175755196D01*
X221026517Y-176179460D01*
X219930501Y-175083444D01*
X220354765Y-174659180D01*
X220354765Y-174659180D01*
G37*
G36*
X219647658Y-175366287D02*
X220743674Y-176462303D01*
X220319410Y-176886567D01*
X219223394Y-175790551D01*
X219647658Y-175366287D01*
X219647658Y-175366287D01*
G37*
G36*
X218940551Y-176073394D02*
X220036567Y-177169410D01*
X219612303Y-177593674D01*
X218516287Y-176497658D01*
X218940551Y-176073394D01*
X218940551Y-176073394D01*
G37*
G36*
X218233444Y-176780501D02*
X219329460Y-177876517D01*
X218905196Y-178300781D01*
X217809180Y-177204765D01*
X218233444Y-176780501D01*
X218233444Y-176780501D01*
G37*
G36*
X217526338Y-177487608D02*
X218622354Y-178583624D01*
X218198090Y-179007888D01*
X217102074Y-177911872D01*
X217526338Y-177487608D01*
X217526338Y-177487608D01*
G37*
G36*
X224844893Y-175472354D02*
X226117685Y-176745146D01*
X225269157Y-177593674D01*
X223996365Y-176320882D01*
X224844893Y-175472354D01*
X224844893Y-175472354D01*
G37*
G36*
X219470882Y-180846365D02*
X220743674Y-182119157D01*
X219895146Y-182967685D01*
X218622354Y-181694893D01*
X219470882Y-180846365D01*
X219470882Y-180846365D01*
G37*
D16*
X189300000Y-163925000D03*
X190500000Y-163925000D03*
X221150000Y-165825000D03*
X222350000Y-165825000D03*
X221150000Y-163650000D03*
X222350000Y-163650000D03*
D21*
X227775000Y-171325000D03*
X227775000Y-170125000D03*
D16*
X187450000Y-173575000D03*
X188650000Y-173575000D03*
X222350000Y-168400000D03*
X221150000Y-168400000D03*
D22*
X227747680Y-157172570D03*
X227752320Y-166377430D03*
X183747680Y-158347570D03*
X183752320Y-167552430D03*
D23*
X197875000Y-175700000D03*
D24*
X197875000Y-173700000D03*
X197875000Y-171700000D03*
X197875000Y-169700000D03*
X197875000Y-167700000D03*
X197875000Y-165700000D03*
X197875000Y-163700000D03*
X197875000Y-161700000D03*
D25*
X200565000Y-159950000D03*
X202565000Y-159950000D03*
X204565000Y-159950000D03*
X206565000Y-159950000D03*
X208565000Y-159950000D03*
X210565000Y-159950000D03*
D24*
X213275000Y-161700000D03*
X213175000Y-163700000D03*
X213275000Y-165700000D03*
X213275000Y-167700000D03*
X213275000Y-169700000D03*
X213275000Y-171700000D03*
X213275000Y-173700000D03*
X213275000Y-175700000D03*
D18*
X191300000Y-170350000D03*
X191300000Y-169050000D03*
D26*
X212575000Y-110625000D03*
D27*
X204875000Y-84925000D03*
D28*
X207950000Y-145250000D03*
X210125000Y-155850000D03*
X210850000Y-163500000D03*
X222348591Y-175673591D03*
X220075000Y-141575000D03*
X220150000Y-145400000D03*
X223100000Y-143525000D03*
X204175000Y-100550000D03*
X204175000Y-106050000D03*
X222425000Y-162350000D03*
X216250000Y-161625000D03*
X191725000Y-150625000D03*
X189900000Y-153500000D03*
X181425000Y-158425000D03*
X229550000Y-157175000D03*
X221800000Y-167175000D03*
X218775000Y-174925000D03*
D29*
X215125000Y-145650000D03*
X201575000Y-108475000D03*
D28*
X189150000Y-165150000D03*
X186575000Y-172175000D03*
X192800000Y-174650000D03*
X217950000Y-174025000D03*
X202200000Y-167700000D03*
X207550000Y-165775000D03*
X194250000Y-171325000D03*
X193375000Y-168475000D03*
X200950000Y-166000000D03*
D30*
X212575000Y-161700000D02*
X212575000Y-161775000D01*
X212575000Y-161775000D02*
X210850000Y-163500000D01*
X221397748Y-174712214D02*
X221397748Y-174722748D01*
X221397748Y-174722748D02*
X222348591Y-175673591D01*
X220200820Y-143475000D02*
X220200820Y-141700820D01*
X220200820Y-141700820D02*
X220075000Y-141575000D01*
X220200820Y-143475000D02*
X220200820Y-145349180D01*
X220200820Y-145349180D02*
X220150000Y-145400000D01*
X220200820Y-143475000D02*
X223050000Y-143475000D01*
X223050000Y-143475000D02*
X223100000Y-143525000D01*
D31*
X204190000Y-103225000D02*
X204190000Y-106035000D01*
X204190000Y-106035000D02*
X204175000Y-106050000D01*
D32*
X222350000Y-163650000D02*
X222350000Y-162425000D01*
X222350000Y-162425000D02*
X222425000Y-162350000D01*
X212575000Y-161700000D02*
X216175000Y-161700000D01*
X216175000Y-161700000D02*
X216250000Y-161625000D01*
X191750000Y-153549180D02*
X191750000Y-150650000D01*
X191750000Y-150650000D02*
X191725000Y-150625000D01*
X191750000Y-153549180D02*
X189949180Y-153549180D01*
X189949180Y-153549180D02*
X189900000Y-153500000D01*
X183747680Y-158347570D02*
X181502430Y-158347570D01*
X181502430Y-158347570D02*
X181425000Y-158425000D01*
X227747680Y-157172570D02*
X229547570Y-157172570D01*
X229547570Y-157172570D02*
X229550000Y-157175000D01*
X221150000Y-166525000D02*
X221800000Y-167175000D01*
X221800000Y-167175000D02*
X222325000Y-167700000D01*
D31*
X219983534Y-176126427D02*
X219976427Y-176126427D01*
X219976427Y-176126427D02*
X218775000Y-174925000D01*
X214699180Y-143475000D02*
X206326330Y-143475000D01*
X206326330Y-143475000D02*
X191750000Y-158051330D01*
X191750000Y-158051330D02*
X191750000Y-159050820D01*
X214699180Y-143475000D02*
X214699180Y-145224180D01*
X214699180Y-145224180D02*
X215125000Y-145650000D01*
X201650000Y-103225000D02*
X201650000Y-108400000D01*
X201650000Y-108400000D02*
X201575000Y-108475000D01*
D32*
X221150000Y-165825000D02*
X221150000Y-166525000D01*
X222325000Y-167700000D02*
X222350000Y-167700000D01*
X222350000Y-167700000D02*
X222350000Y-168400000D01*
D31*
X191750000Y-159050820D02*
X193150100Y-159050820D01*
X193150100Y-159050820D02*
X195799280Y-161700000D01*
X195799280Y-161700000D02*
X198575000Y-161700000D01*
D30*
X189300000Y-163925000D02*
X189300000Y-160500720D01*
X189300000Y-160500720D02*
X190749900Y-159050820D01*
X190749900Y-159050820D02*
X191750000Y-159050820D01*
X189150000Y-165150000D02*
X189150000Y-164075000D01*
X189150000Y-164075000D02*
X189300000Y-163925000D01*
X187450000Y-173575000D02*
X187450000Y-173050000D01*
X187450000Y-173050000D02*
X186575000Y-172175000D01*
D31*
X204350000Y-110825000D02*
X204350000Y-109550000D01*
X204350000Y-109550000D02*
X206730000Y-107170000D01*
X206730000Y-107170000D02*
X206730000Y-103225000D01*
D30*
X217862214Y-178247748D02*
X218480932Y-178866466D01*
X218480932Y-178866466D02*
X218741466Y-178866466D01*
X218741466Y-178866466D02*
X219025000Y-179150000D01*
X219025000Y-179150000D02*
X221000000Y-179150000D01*
X221000000Y-179150000D02*
X223100000Y-177050000D01*
X223100000Y-177050000D02*
X223100000Y-175700000D01*
X223100000Y-175700000D02*
X225075000Y-173725000D01*
X225075000Y-173725000D02*
X225775000Y-173725000D01*
X221875000Y-172875000D02*
X225325000Y-172875000D01*
X225325000Y-172875000D02*
X225775000Y-172425000D01*
X221875000Y-172875000D02*
X221875000Y-171005000D01*
X221875000Y-171005000D02*
X222280000Y-170600000D01*
X220575000Y-172875000D02*
X221875000Y-172875000D01*
X192800000Y-174650000D02*
X191725000Y-173575000D01*
X191725000Y-173575000D02*
X191100000Y-173575000D01*
X220575000Y-172875000D02*
X219100000Y-172875000D01*
X219100000Y-172875000D02*
X217950000Y-174025000D01*
X223625000Y-170125000D02*
X223190000Y-169690000D01*
X223190000Y-169690000D02*
X221150000Y-169690000D01*
X227775000Y-170125000D02*
X223625000Y-170125000D01*
X227752320Y-166377430D02*
X227752320Y-170102320D01*
X227752320Y-170102320D02*
X227775000Y-170125000D01*
X212575000Y-167700000D02*
X216775000Y-167700000D01*
X216775000Y-167700000D02*
X219675000Y-170600000D01*
X219675000Y-170600000D02*
X220170000Y-170600000D01*
X221150000Y-168400000D02*
X221150000Y-169690000D01*
X221150000Y-169690000D02*
X220240000Y-170600000D01*
X220240000Y-170600000D02*
X220170000Y-170600000D01*
X191300000Y-170350000D02*
X191300000Y-169050000D01*
X188650000Y-172740110D02*
X188650000Y-171000000D01*
X188650000Y-171000000D02*
X190600000Y-169050000D01*
X190600000Y-169050000D02*
X191300000Y-169050000D01*
X189900000Y-173575000D02*
X189900000Y-174075000D01*
X189900000Y-174075000D02*
X191525000Y-175700000D01*
X191525000Y-175700000D02*
X198575000Y-175700000D01*
X188650000Y-173575000D02*
X189900000Y-173575000D01*
X183752320Y-167552430D02*
X183752320Y-167842430D01*
X183752320Y-167842430D02*
X188650000Y-172740110D01*
X188650000Y-172740110D02*
X188650000Y-173075000D01*
X188650000Y-173075000D02*
X188650000Y-173575000D01*
X191300000Y-170350000D02*
X192000000Y-170350000D01*
X192000000Y-170350000D02*
X192650000Y-169700000D01*
X192650000Y-169700000D02*
X198575000Y-169700000D01*
X198575000Y-167700000D02*
X202200000Y-167700000D01*
X212575000Y-169700000D02*
X211475000Y-169700000D01*
X211475000Y-169700000D02*
X207550000Y-165775000D01*
X212575000Y-173700000D02*
X216142893Y-173700000D01*
X216142893Y-173700000D02*
X219276427Y-176833534D01*
X212575000Y-175700000D02*
X216728679Y-175700000D01*
X216728679Y-175700000D02*
X218569320Y-177540641D01*
X194250000Y-171325000D02*
X194674264Y-171325000D01*
X194674264Y-171325000D02*
X195049264Y-171700000D01*
X195049264Y-171700000D02*
X198575000Y-171700000D01*
X190500000Y-163925000D02*
X190550000Y-163925000D01*
X190550000Y-163925000D02*
X193375000Y-166750000D01*
X193375000Y-166750000D02*
X193375000Y-168475000D01*
X212575000Y-165700000D02*
X213000001Y-165274999D01*
X213000001Y-165274999D02*
X221749999Y-165274999D01*
X221749999Y-165274999D02*
X222300000Y-165825000D01*
X222300000Y-165825000D02*
X222350000Y-165825000D01*
X200950000Y-166000000D02*
X200650000Y-165700000D01*
X200650000Y-165700000D02*
X198575000Y-165700000D01*
X212575000Y-163700000D02*
X212625000Y-163650000D01*
X212625000Y-163650000D02*
X221150000Y-163650000D01*
D33*
G36*
X206532777Y-81886305D02*
X206635271Y-81916571D01*
X206884000Y-82081116D01*
X207143154Y-82409299D01*
X207421352Y-82989317D01*
X207709689Y-83909887D01*
X208046299Y-85323002D01*
X208048325Y-85327418D01*
X208048649Y-85332263D01*
X208153995Y-85723437D01*
X208157084Y-85729682D01*
X208157840Y-85736608D01*
X209608249Y-90343205D01*
X209608599Y-90343843D01*
X209608681Y-90344568D01*
X210556018Y-93308088D01*
X211462086Y-96280293D01*
X211880417Y-97750580D01*
X211906832Y-97802129D01*
X211931342Y-97854609D01*
X211935829Y-97858716D01*
X211938603Y-97864129D01*
X211982726Y-97901637D01*
X212025462Y-97940751D01*
X212031181Y-97942829D01*
X212035814Y-97946767D01*
X212090925Y-97964533D01*
X212145383Y-97984317D01*
X212151461Y-97984048D01*
X212157250Y-97985914D01*
X212214981Y-97981236D01*
X212272847Y-97978675D01*
X214279241Y-97486442D01*
X214281499Y-97485387D01*
X214283987Y-97485240D01*
X215923035Y-97057016D01*
X217601878Y-96681186D01*
X218815641Y-96491759D01*
X218961096Y-96702955D01*
X219431681Y-97676310D01*
X219647608Y-98255716D01*
X219815944Y-98843049D01*
X219894004Y-99261388D01*
X219916951Y-99628567D01*
X219897636Y-99831436D01*
X219851386Y-99986282D01*
X219795248Y-100083780D01*
X219730558Y-100154447D01*
X219479457Y-100302197D01*
X219021404Y-100419972D01*
X218072714Y-100568272D01*
X218050682Y-100576350D01*
X218027333Y-100578722D01*
X217517842Y-100734987D01*
X217498596Y-100745351D01*
X217477332Y-100750417D01*
X217442916Y-100775332D01*
X217405504Y-100795477D01*
X217391688Y-100812417D01*
X217373983Y-100825235D01*
X217351719Y-100861427D01*
X217324866Y-100894354D01*
X217318586Y-100915289D01*
X217307132Y-100933908D01*
X217300414Y-100975863D01*
X217288204Y-101016563D01*
X217290414Y-101038312D01*
X217286958Y-101059893D01*
X217296806Y-101101223D01*
X217301101Y-101143498D01*
X217311465Y-101162744D01*
X217316531Y-101184008D01*
X217341446Y-101218424D01*
X217361591Y-101255836D01*
X217378531Y-101269652D01*
X217391349Y-101287357D01*
X218162812Y-102002938D01*
X218917262Y-102763655D01*
X219578418Y-103489888D01*
X220219368Y-104258419D01*
X220785886Y-105002332D01*
X221327314Y-105783653D01*
X221806409Y-106547061D01*
X222257198Y-107344490D01*
X222654071Y-108129432D01*
X223020286Y-108946028D01*
X223338596Y-109755039D01*
X223624301Y-110593972D01*
X223866238Y-111430043D01*
X224073762Y-112294921D01*
X224240141Y-113161465D01*
X224370117Y-114054801D01*
X224483823Y-115289881D01*
X224518152Y-117079305D01*
X224399171Y-118785392D01*
X224133021Y-120423387D01*
X223722405Y-122006813D01*
X223166198Y-123549641D01*
X222458951Y-125066969D01*
X221589850Y-126576351D01*
X220539895Y-128101535D01*
X219389825Y-129546072D01*
X219369922Y-129584675D01*
X219345297Y-129620449D01*
X219340936Y-129640893D01*
X219331356Y-129659474D01*
X219327741Y-129702753D01*
X219318680Y-129745230D01*
X219283018Y-132327555D01*
X219149958Y-134812216D01*
X219156226Y-134855796D01*
X219157095Y-134899818D01*
X219165231Y-134918413D01*
X219168121Y-134938505D01*
X219190591Y-134976372D01*
X219208240Y-135016708D01*
X219222873Y-135030775D01*
X219233232Y-135048231D01*
X219268480Y-135074615D01*
X219300223Y-135105128D01*
X220288849Y-135737832D01*
X221242028Y-136396247D01*
X222135997Y-137062454D01*
X223000177Y-137757082D01*
X223812681Y-138461502D01*
X224596139Y-139194261D01*
X225334123Y-139939212D01*
X226043593Y-140712612D01*
X226712644Y-141501036D01*
X227353446Y-142318233D01*
X227957942Y-143153819D01*
X228534127Y-144018632D01*
X229077134Y-144905606D01*
X229591635Y-145822569D01*
X230075148Y-146765867D01*
X230528423Y-147737377D01*
X231349627Y-149782438D01*
X232052679Y-151966455D01*
X232114577Y-152186565D01*
X232368402Y-153176624D01*
X232586452Y-154195565D01*
X232760522Y-155204124D01*
X232898482Y-156246277D01*
X232996201Y-157294262D01*
X233056166Y-158378210D01*
X233076577Y-159481350D01*
X233056972Y-160624761D01*
X233035207Y-161139793D01*
X232854361Y-163216142D01*
X232526135Y-165213751D01*
X232052885Y-167146729D01*
X231435193Y-169024178D01*
X230671329Y-170855136D01*
X229757101Y-172648633D01*
X228685526Y-174414080D01*
X227446375Y-176161870D01*
X226022351Y-177907719D01*
X225753440Y-178213235D01*
X225053739Y-178969451D01*
X224322018Y-179701549D01*
X223561942Y-180405753D01*
X222770198Y-181084793D01*
X221954792Y-181731616D01*
X221109733Y-182350800D01*
X220498783Y-182763458D01*
X220943379Y-182318862D01*
X221002306Y-182232620D01*
X221026073Y-182123059D01*
X221005342Y-182012882D01*
X220943379Y-181919452D01*
X219670587Y-180646660D01*
X219584345Y-180587733D01*
X219474784Y-180563966D01*
X219364607Y-180584697D01*
X219271177Y-180646660D01*
X218422649Y-181495188D01*
X218363722Y-181581430D01*
X218339955Y-181690991D01*
X218360686Y-181801168D01*
X218422649Y-181894598D01*
X219695441Y-183167390D01*
X219778842Y-183224376D01*
X219353905Y-183488309D01*
X218447452Y-184004282D01*
X217515447Y-184488485D01*
X216572550Y-184933307D01*
X215606100Y-185344703D01*
X214631974Y-185715890D01*
X213636247Y-186052156D01*
X212635404Y-186347915D01*
X211616164Y-186607108D01*
X210108526Y-186915600D01*
X208255729Y-187163043D01*
X206078161Y-187294870D01*
X203738495Y-187278511D01*
X202595793Y-187211722D01*
X201480861Y-187105551D01*
X200144274Y-186915982D01*
X198108230Y-186488606D01*
X196122968Y-185912725D01*
X194191245Y-185190050D01*
X192318163Y-184322703D01*
X190510059Y-183313346D01*
X188774408Y-182165370D01*
X187119750Y-180883329D01*
X185554647Y-179472331D01*
X184410334Y-178295283D01*
X184275585Y-178142824D01*
X196724257Y-178142824D01*
X196741098Y-178190341D01*
X196798278Y-178285641D01*
X196848004Y-184576004D01*
X196856823Y-184621509D01*
X196884228Y-184663823D01*
X196925937Y-184692140D01*
X196975376Y-184701999D01*
X213850376Y-184651999D01*
X213895241Y-184643669D01*
X213937845Y-184616718D01*
X213966608Y-184575316D01*
X213976996Y-184525984D01*
X214026996Y-178075984D01*
X214018179Y-178028494D01*
X213990775Y-177986180D01*
X213949067Y-177957861D01*
X213899628Y-177948001D01*
X196849628Y-177998001D01*
X196787693Y-178014335D01*
X196749547Y-178047295D01*
X196727229Y-178092499D01*
X196724257Y-178142824D01*
X184275585Y-178142824D01*
X183709679Y-177502543D01*
X183032205Y-176675198D01*
X182390327Y-175828150D01*
X181775767Y-174950243D01*
X181200507Y-174058632D01*
X180655159Y-173138694D01*
X180151385Y-172210260D01*
X179679724Y-171256017D01*
X179250689Y-170297487D01*
X178855637Y-169315603D01*
X178503397Y-168332629D01*
X178186654Y-167328493D01*
X177949806Y-166462430D01*
X182669894Y-166462430D01*
X182669894Y-168642430D01*
X182689209Y-168745080D01*
X182749875Y-168839357D01*
X182842440Y-168902605D01*
X182952320Y-168924856D01*
X184301588Y-168924856D01*
X188273000Y-172896269D01*
X188273000Y-172997654D01*
X188197350Y-173011889D01*
X188103073Y-173072555D01*
X188049421Y-173151076D01*
X188002445Y-173078073D01*
X187909880Y-173014825D01*
X187816231Y-172995861D01*
X187798303Y-172905728D01*
X187716579Y-172783421D01*
X187151962Y-172218804D01*
X187152100Y-172060731D01*
X187064442Y-171848583D01*
X186902271Y-171686129D01*
X186690276Y-171598100D01*
X186460731Y-171597900D01*
X186248583Y-171685558D01*
X186086129Y-171847729D01*
X185998100Y-172059724D01*
X185997900Y-172289269D01*
X186085558Y-172501417D01*
X186247729Y-172663871D01*
X186459724Y-172751900D01*
X186618881Y-172752039D01*
X186925175Y-173058333D01*
X186903073Y-173072555D01*
X186839825Y-173165120D01*
X186817574Y-173275000D01*
X186817574Y-173875000D01*
X186836889Y-173977650D01*
X186897555Y-174071927D01*
X186990120Y-174135175D01*
X187100000Y-174157426D01*
X187800000Y-174157426D01*
X187902650Y-174138111D01*
X187996927Y-174077445D01*
X188050579Y-173998924D01*
X188097555Y-174071927D01*
X188190120Y-174135175D01*
X188300000Y-174157426D01*
X189000000Y-174157426D01*
X189102650Y-174138111D01*
X189196927Y-174077445D01*
X189260175Y-173984880D01*
X189266833Y-173952000D01*
X189282063Y-173952000D01*
X189286889Y-173977650D01*
X189347555Y-174071927D01*
X189440120Y-174135175D01*
X189538950Y-174155188D01*
X189551697Y-174219272D01*
X189633421Y-174341579D01*
X191258421Y-175966579D01*
X191380728Y-176048303D01*
X191525000Y-176077000D01*
X196342574Y-176077000D01*
X196342574Y-176250000D01*
X196361889Y-176352650D01*
X196422555Y-176446927D01*
X196515120Y-176510175D01*
X196625000Y-176532426D01*
X199125000Y-176532426D01*
X199227650Y-176513111D01*
X199321927Y-176452445D01*
X199385175Y-176359880D01*
X199407426Y-176250000D01*
X199407426Y-175150000D01*
X199388111Y-175047350D01*
X199327445Y-174953073D01*
X199234880Y-174889825D01*
X199125000Y-174867574D01*
X196625000Y-174867574D01*
X196522350Y-174886889D01*
X196428073Y-174947555D01*
X196364825Y-175040120D01*
X196342574Y-175150000D01*
X196342574Y-175323000D01*
X191681158Y-175323000D01*
X190440037Y-174081879D01*
X190446927Y-174077445D01*
X190500579Y-173998924D01*
X190547555Y-174071927D01*
X190640120Y-174135175D01*
X190750000Y-174157426D01*
X191450000Y-174157426D01*
X191552650Y-174138111D01*
X191646927Y-174077445D01*
X191666151Y-174049310D01*
X192223038Y-174606196D01*
X192222900Y-174764269D01*
X192310558Y-174976417D01*
X192472729Y-175138871D01*
X192684724Y-175226900D01*
X192914269Y-175227100D01*
X193126417Y-175139442D01*
X193288871Y-174977271D01*
X193376900Y-174765276D01*
X193377100Y-174535731D01*
X193289442Y-174323583D01*
X193127271Y-174161129D01*
X192915276Y-174073100D01*
X192756120Y-174072961D01*
X192383159Y-173700000D01*
X196318084Y-173700000D01*
X196381036Y-174016479D01*
X196560307Y-174284777D01*
X196828605Y-174464048D01*
X197145084Y-174527000D01*
X198604916Y-174527000D01*
X198921395Y-174464048D01*
X199189693Y-174284777D01*
X199368964Y-174016479D01*
X199431916Y-173700000D01*
X211718084Y-173700000D01*
X211781036Y-174016479D01*
X211960307Y-174284777D01*
X212228605Y-174464048D01*
X212545084Y-174527000D01*
X214004916Y-174527000D01*
X214321395Y-174464048D01*
X214589693Y-174284777D01*
X214728525Y-174077000D01*
X215986735Y-174077000D01*
X218272380Y-176362645D01*
X218257655Y-176384195D01*
X218233888Y-176493756D01*
X218234796Y-176498582D01*
X218127169Y-176518833D01*
X218099212Y-176537374D01*
X216995258Y-175433421D01*
X216872951Y-175351697D01*
X216728679Y-175323000D01*
X214728525Y-175323000D01*
X214589693Y-175115223D01*
X214321395Y-174935952D01*
X214004916Y-174873000D01*
X212545084Y-174873000D01*
X212228605Y-174935952D01*
X211960307Y-175115223D01*
X211781036Y-175383521D01*
X211718084Y-175700000D01*
X211781036Y-176016479D01*
X211960307Y-176284777D01*
X212228605Y-176464048D01*
X212545084Y-176527000D01*
X214004916Y-176527000D01*
X214321395Y-176464048D01*
X214589693Y-176284777D01*
X214728525Y-176077000D01*
X216572521Y-176077000D01*
X217565273Y-177069752D01*
X217550548Y-177091302D01*
X217526781Y-177200863D01*
X217527689Y-177205689D01*
X217420063Y-177225940D01*
X217326633Y-177287903D01*
X216902369Y-177712167D01*
X216843442Y-177798409D01*
X216819675Y-177907970D01*
X216840406Y-178018147D01*
X216902369Y-178111577D01*
X217998385Y-179207593D01*
X218084627Y-179266520D01*
X218194188Y-179290287D01*
X218304365Y-179269556D01*
X218375366Y-179222468D01*
X218480932Y-179243466D01*
X218585308Y-179243466D01*
X218758421Y-179416580D01*
X218831076Y-179465126D01*
X218880728Y-179498303D01*
X219025000Y-179527000D01*
X221000000Y-179527000D01*
X221144272Y-179498303D01*
X221266579Y-179416579D01*
X223366579Y-177316580D01*
X223448303Y-177194272D01*
X223452472Y-177173312D01*
X223477000Y-177050000D01*
X223477000Y-176316980D01*
X223713966Y-176316980D01*
X223734697Y-176427157D01*
X223796660Y-176520587D01*
X225069452Y-177793379D01*
X225155694Y-177852306D01*
X225265255Y-177876073D01*
X225375432Y-177855342D01*
X225468862Y-177793379D01*
X226317390Y-176944851D01*
X226376317Y-176858609D01*
X226400084Y-176749048D01*
X226379353Y-176638871D01*
X226317390Y-176545441D01*
X225044598Y-175272649D01*
X224958356Y-175213722D01*
X224848795Y-175189955D01*
X224738618Y-175210686D01*
X224645188Y-175272649D01*
X223796660Y-176121177D01*
X223737733Y-176207419D01*
X223713966Y-176316980D01*
X223477000Y-176316980D01*
X223477000Y-175856158D01*
X225010878Y-174322280D01*
X225011889Y-174327650D01*
X225072555Y-174421927D01*
X225165120Y-174485175D01*
X225275000Y-174507426D01*
X226275000Y-174507426D01*
X226377650Y-174488111D01*
X226471927Y-174427445D01*
X226535175Y-174334880D01*
X226557426Y-174225000D01*
X226557426Y-173225000D01*
X226538111Y-173122350D01*
X226507700Y-173075090D01*
X226535175Y-173034880D01*
X226557426Y-172925000D01*
X226557426Y-171925000D01*
X226538111Y-171822350D01*
X226477445Y-171728073D01*
X226384880Y-171664825D01*
X226275000Y-171642574D01*
X225275000Y-171642574D01*
X225172350Y-171661889D01*
X225078073Y-171722555D01*
X225014825Y-171815120D01*
X224992574Y-171925000D01*
X224992574Y-172498000D01*
X222657426Y-172498000D01*
X222657426Y-172375000D01*
X222638111Y-172272350D01*
X222577445Y-172178073D01*
X222484880Y-172114825D01*
X222375000Y-172092574D01*
X222252000Y-172092574D01*
X222252000Y-171161158D01*
X222305732Y-171107426D01*
X222575000Y-171107426D01*
X222677650Y-171088111D01*
X222771927Y-171027445D01*
X222835175Y-170934880D01*
X222857426Y-170825000D01*
X222857426Y-170375000D01*
X222838111Y-170272350D01*
X222777445Y-170178073D01*
X222684880Y-170114825D01*
X222575000Y-170092574D01*
X221985000Y-170092574D01*
X221882350Y-170111889D01*
X221788073Y-170172555D01*
X221724825Y-170265120D01*
X221702574Y-170375000D01*
X221702574Y-170644268D01*
X221608421Y-170738421D01*
X221526697Y-170860728D01*
X221498000Y-171005000D01*
X221498000Y-172092574D01*
X221375000Y-172092574D01*
X221272350Y-172111889D01*
X221225090Y-172142300D01*
X221184880Y-172114825D01*
X221075000Y-172092574D01*
X220075000Y-172092574D01*
X219972350Y-172111889D01*
X219878073Y-172172555D01*
X219814825Y-172265120D01*
X219792574Y-172375000D01*
X219792574Y-172498000D01*
X219100000Y-172498000D01*
X218955728Y-172526697D01*
X218929511Y-172544215D01*
X218833421Y-172608420D01*
X217993804Y-173448038D01*
X217835731Y-173447900D01*
X217623583Y-173535558D01*
X217461129Y-173697729D01*
X217373100Y-173909724D01*
X217372900Y-174139269D01*
X217460558Y-174351417D01*
X217622729Y-174513871D01*
X217834724Y-174601900D01*
X218064269Y-174602100D01*
X218276417Y-174514442D01*
X218438871Y-174352271D01*
X218526900Y-174140276D01*
X218527039Y-173981120D01*
X219256159Y-173252000D01*
X219792574Y-173252000D01*
X219792574Y-173375000D01*
X219811889Y-173477650D01*
X219872555Y-173571927D01*
X219965120Y-173635175D01*
X220075000Y-173657426D01*
X220602783Y-173657426D01*
X220602783Y-173737644D01*
X221397748Y-174532609D01*
X221856837Y-174073520D01*
X221856837Y-173849013D01*
X221665250Y-173657426D01*
X222375000Y-173657426D01*
X222477650Y-173638111D01*
X222571927Y-173577445D01*
X222635175Y-173484880D01*
X222657426Y-173375000D01*
X222657426Y-173252000D01*
X224992574Y-173252000D01*
X224992574Y-173364395D01*
X224930728Y-173376697D01*
X224808421Y-173458421D01*
X222833421Y-175433421D01*
X222751697Y-175555728D01*
X222723000Y-175700000D01*
X222723000Y-176893841D01*
X220843842Y-178773000D01*
X219181159Y-178773000D01*
X219008045Y-178599887D01*
X218965080Y-178571178D01*
X219011471Y-178562449D01*
X219104901Y-178500486D01*
X219529165Y-178076222D01*
X219588092Y-177989980D01*
X219611859Y-177880419D01*
X219610951Y-177875593D01*
X219718578Y-177855342D01*
X219812008Y-177793379D01*
X220236272Y-177369115D01*
X220295199Y-177282873D01*
X220318966Y-177173312D01*
X220318058Y-177168486D01*
X220425685Y-177148235D01*
X220519115Y-177086272D01*
X220943379Y-176662008D01*
X221002306Y-176575766D01*
X221026073Y-176466205D01*
X221025165Y-176461379D01*
X221132792Y-176441128D01*
X221226222Y-176379165D01*
X221530041Y-176075346D01*
X221607315Y-176107354D01*
X221859933Y-176107353D01*
X222093323Y-176010681D01*
X222192713Y-175911290D01*
X222192713Y-175686784D01*
X221397748Y-174891819D01*
X221383606Y-174905962D01*
X221204001Y-174726357D01*
X221218143Y-174712214D01*
X221577353Y-174712214D01*
X222372318Y-175507179D01*
X222596824Y-175507179D01*
X222696215Y-175407789D01*
X222792887Y-175174399D01*
X222792888Y-174921781D01*
X222696215Y-174688392D01*
X222517587Y-174509763D01*
X222260949Y-174253125D01*
X222036442Y-174253125D01*
X221577353Y-174712214D01*
X221218143Y-174712214D01*
X220423178Y-173917249D01*
X220198672Y-173917249D01*
X220099281Y-174016639D01*
X220002609Y-174250029D01*
X220002608Y-174502647D01*
X220034615Y-174579920D01*
X219730796Y-174883739D01*
X219671869Y-174969981D01*
X219665472Y-174999470D01*
X219183001Y-174516999D01*
X219182998Y-174516997D01*
X219102271Y-174436129D01*
X218890276Y-174348100D01*
X218775003Y-174348000D01*
X218775000Y-174347999D01*
X218774997Y-174348000D01*
X218660731Y-174347900D01*
X218448583Y-174435558D01*
X218367002Y-174516997D01*
X218366999Y-174516999D01*
X218366997Y-174517002D01*
X218286129Y-174597729D01*
X218198100Y-174809724D01*
X218198000Y-174924997D01*
X218197999Y-174925000D01*
X218198000Y-174925003D01*
X218197900Y-175039269D01*
X218285558Y-175251417D01*
X218366997Y-175332998D01*
X218366999Y-175333001D01*
X218367503Y-175333505D01*
X218447729Y-175413871D01*
X218447969Y-175413970D01*
X218843911Y-175809913D01*
X218834276Y-175811726D01*
X218806318Y-175830267D01*
X216409472Y-173433421D01*
X216287165Y-173351697D01*
X216142893Y-173323000D01*
X214728525Y-173323000D01*
X214589693Y-173115223D01*
X214321395Y-172935952D01*
X214004916Y-172873000D01*
X212545084Y-172873000D01*
X212228605Y-172935952D01*
X211960307Y-173115223D01*
X211781036Y-173383521D01*
X211718084Y-173700000D01*
X199431916Y-173700000D01*
X199368964Y-173383521D01*
X199189693Y-173115223D01*
X198921395Y-172935952D01*
X198604916Y-172873000D01*
X197145084Y-172873000D01*
X196828605Y-172935952D01*
X196560307Y-173115223D01*
X196381036Y-173383521D01*
X196318084Y-173700000D01*
X192383159Y-173700000D01*
X191991579Y-173308421D01*
X191869272Y-173226697D01*
X191725000Y-173198000D01*
X191717937Y-173198000D01*
X191713111Y-173172350D01*
X191652445Y-173078073D01*
X191559880Y-173014825D01*
X191450000Y-172992574D01*
X190750000Y-172992574D01*
X190647350Y-173011889D01*
X190553073Y-173072555D01*
X190499421Y-173151076D01*
X190452445Y-173078073D01*
X190359880Y-173014825D01*
X190250000Y-172992574D01*
X189550000Y-172992574D01*
X189447350Y-173011889D01*
X189353073Y-173072555D01*
X189289825Y-173165120D01*
X189283167Y-173198000D01*
X189267937Y-173198000D01*
X189263111Y-173172350D01*
X189202445Y-173078073D01*
X189109880Y-173014825D01*
X189027000Y-172998042D01*
X189027000Y-171439269D01*
X193672900Y-171439269D01*
X193760558Y-171651417D01*
X193922729Y-171813871D01*
X194134724Y-171901900D01*
X194364269Y-171902100D01*
X194576417Y-171814442D01*
X194603506Y-171787400D01*
X194782685Y-171966579D01*
X194904992Y-172048303D01*
X195049264Y-172077000D01*
X196421475Y-172077000D01*
X196560307Y-172284777D01*
X196828605Y-172464048D01*
X197145084Y-172527000D01*
X198604916Y-172527000D01*
X198921395Y-172464048D01*
X199189693Y-172284777D01*
X199368964Y-172016479D01*
X199431916Y-171700000D01*
X211718084Y-171700000D01*
X211781036Y-172016479D01*
X211960307Y-172284777D01*
X212228605Y-172464048D01*
X212545084Y-172527000D01*
X214004916Y-172527000D01*
X214321395Y-172464048D01*
X214589693Y-172284777D01*
X214768964Y-172016479D01*
X214831916Y-171700000D01*
X214768964Y-171383521D01*
X214589693Y-171115223D01*
X214321395Y-170935952D01*
X214004916Y-170873000D01*
X212545084Y-170873000D01*
X212228605Y-170935952D01*
X211960307Y-171115223D01*
X211781036Y-171383521D01*
X211718084Y-171700000D01*
X199431916Y-171700000D01*
X199368964Y-171383521D01*
X199189693Y-171115223D01*
X198921395Y-170935952D01*
X198604916Y-170873000D01*
X197145084Y-170873000D01*
X196828605Y-170935952D01*
X196560307Y-171115223D01*
X196421475Y-171323000D01*
X195205422Y-171323000D01*
X194940843Y-171058421D01*
X194818536Y-170976697D01*
X194692585Y-170951644D01*
X194577271Y-170836129D01*
X194365276Y-170748100D01*
X194135731Y-170747900D01*
X193923583Y-170835558D01*
X193761129Y-170997729D01*
X193673100Y-171209724D01*
X193672900Y-171439269D01*
X189027000Y-171439269D01*
X189027000Y-171156158D01*
X190535879Y-169647280D01*
X190536889Y-169652650D01*
X190567300Y-169699910D01*
X190539825Y-169740120D01*
X190517574Y-169850000D01*
X190517574Y-170850000D01*
X190536889Y-170952650D01*
X190597555Y-171046927D01*
X190690120Y-171110175D01*
X190800000Y-171132426D01*
X191800000Y-171132426D01*
X191902650Y-171113111D01*
X191996927Y-171052445D01*
X192060175Y-170959880D01*
X192082426Y-170850000D01*
X192082426Y-170710605D01*
X192144272Y-170698303D01*
X192266579Y-170616579D01*
X192806158Y-170077000D01*
X196421475Y-170077000D01*
X196560307Y-170284777D01*
X196828605Y-170464048D01*
X197145084Y-170527000D01*
X198604916Y-170527000D01*
X198921395Y-170464048D01*
X199189693Y-170284777D01*
X199368964Y-170016479D01*
X199431916Y-169700000D01*
X199368964Y-169383521D01*
X199189693Y-169115223D01*
X198921395Y-168935952D01*
X198604916Y-168873000D01*
X197145084Y-168873000D01*
X196828605Y-168935952D01*
X196560307Y-169115223D01*
X196421475Y-169323000D01*
X192650000Y-169323000D01*
X192505728Y-169351697D01*
X192383421Y-169433421D01*
X192064122Y-169752720D01*
X192063111Y-169747350D01*
X192032700Y-169700090D01*
X192060175Y-169659880D01*
X192082426Y-169550000D01*
X192082426Y-168550000D01*
X192063111Y-168447350D01*
X192002445Y-168353073D01*
X191909880Y-168289825D01*
X191800000Y-168267574D01*
X190800000Y-168267574D01*
X190697350Y-168286889D01*
X190603073Y-168347555D01*
X190539825Y-168440120D01*
X190517574Y-168550000D01*
X190517574Y-168689395D01*
X190464260Y-168700000D01*
X190455728Y-168701697D01*
X190333420Y-168783421D01*
X188383421Y-170733421D01*
X188301697Y-170855728D01*
X188273000Y-171000000D01*
X188273000Y-171829951D01*
X184834746Y-168391698D01*
X184834746Y-166462430D01*
X184815431Y-166359780D01*
X184754765Y-166265503D01*
X184662200Y-166202255D01*
X184552320Y-166180004D01*
X182952320Y-166180004D01*
X182849670Y-166199319D01*
X182755393Y-166259985D01*
X182692145Y-166352550D01*
X182669894Y-166462430D01*
X177949806Y-166462430D01*
X177912398Y-166325646D01*
X177674936Y-165303608D01*
X177667386Y-165264269D01*
X188572900Y-165264269D01*
X188660558Y-165476417D01*
X188822729Y-165638871D01*
X189034724Y-165726900D01*
X189264269Y-165727100D01*
X189476417Y-165639442D01*
X189638871Y-165477271D01*
X189726900Y-165265276D01*
X189727100Y-165035731D01*
X189639442Y-164823583D01*
X189527000Y-164710945D01*
X189527000Y-164507426D01*
X189650000Y-164507426D01*
X189752650Y-164488111D01*
X189846927Y-164427445D01*
X189900579Y-164348924D01*
X189947555Y-164421927D01*
X190040120Y-164485175D01*
X190150000Y-164507426D01*
X190599268Y-164507426D01*
X192998000Y-166906158D01*
X192998000Y-168036053D01*
X192886129Y-168147729D01*
X192798100Y-168359724D01*
X192797900Y-168589269D01*
X192885558Y-168801417D01*
X193047729Y-168963871D01*
X193259724Y-169051900D01*
X193489269Y-169052100D01*
X193701417Y-168964442D01*
X193863871Y-168802271D01*
X193951900Y-168590276D01*
X193952100Y-168360731D01*
X193864442Y-168148583D01*
X193752000Y-168035945D01*
X193752000Y-167700000D01*
X196318084Y-167700000D01*
X196381036Y-168016479D01*
X196560307Y-168284777D01*
X196828605Y-168464048D01*
X197145084Y-168527000D01*
X198604916Y-168527000D01*
X198921395Y-168464048D01*
X199189693Y-168284777D01*
X199328525Y-168077000D01*
X201761053Y-168077000D01*
X201872729Y-168188871D01*
X202084724Y-168276900D01*
X202314269Y-168277100D01*
X202526417Y-168189442D01*
X202688871Y-168027271D01*
X202776900Y-167815276D01*
X202777100Y-167585731D01*
X202689442Y-167373583D01*
X202527271Y-167211129D01*
X202315276Y-167123100D01*
X202085731Y-167122900D01*
X201873583Y-167210558D01*
X201760945Y-167323000D01*
X199328525Y-167323000D01*
X199189693Y-167115223D01*
X198921395Y-166935952D01*
X198604916Y-166873000D01*
X197145084Y-166873000D01*
X196828605Y-166935952D01*
X196560307Y-167115223D01*
X196381036Y-167383521D01*
X196318084Y-167700000D01*
X193752000Y-167700000D01*
X193752000Y-166750000D01*
X193723303Y-166605728D01*
X193641579Y-166483421D01*
X192858158Y-165700000D01*
X196318084Y-165700000D01*
X196381036Y-166016479D01*
X196560307Y-166284777D01*
X196828605Y-166464048D01*
X197145084Y-166527000D01*
X198604916Y-166527000D01*
X198921395Y-166464048D01*
X199189693Y-166284777D01*
X199328525Y-166077000D01*
X200372932Y-166077000D01*
X200372900Y-166114269D01*
X200460558Y-166326417D01*
X200622729Y-166488871D01*
X200834724Y-166576900D01*
X201064269Y-166577100D01*
X201276417Y-166489442D01*
X201438871Y-166327271D01*
X201526900Y-166115276D01*
X201527096Y-165889269D01*
X206972900Y-165889269D01*
X207060558Y-166101417D01*
X207222729Y-166263871D01*
X207434724Y-166351900D01*
X207593881Y-166352039D01*
X211208421Y-169966579D01*
X211330728Y-170048303D01*
X211475000Y-170077000D01*
X211821475Y-170077000D01*
X211960307Y-170284777D01*
X212228605Y-170464048D01*
X212545084Y-170527000D01*
X214004916Y-170527000D01*
X214321395Y-170464048D01*
X214589693Y-170284777D01*
X214768964Y-170016479D01*
X214831916Y-169700000D01*
X214768964Y-169383521D01*
X214589693Y-169115223D01*
X214321395Y-168935952D01*
X214004916Y-168873000D01*
X212545084Y-168873000D01*
X212228605Y-168935952D01*
X211960307Y-169115223D01*
X211821475Y-169323000D01*
X211631158Y-169323000D01*
X208126962Y-165818804D01*
X208127065Y-165700000D01*
X211718084Y-165700000D01*
X211781036Y-166016479D01*
X211960307Y-166284777D01*
X212228605Y-166464048D01*
X212545084Y-166527000D01*
X214004916Y-166527000D01*
X214321395Y-166464048D01*
X214589693Y-166284777D01*
X214768964Y-166016479D01*
X214831916Y-165700000D01*
X214822368Y-165651999D01*
X220517574Y-165651999D01*
X220517574Y-166125000D01*
X220536889Y-166227650D01*
X220597555Y-166321927D01*
X220673000Y-166373477D01*
X220673000Y-166525000D01*
X220709309Y-166707540D01*
X220812710Y-166862290D01*
X221222915Y-167272495D01*
X221222900Y-167289269D01*
X221310558Y-167501417D01*
X221472729Y-167663871D01*
X221684724Y-167751900D01*
X221702335Y-167751915D01*
X221830394Y-167879974D01*
X221803073Y-167897555D01*
X221749421Y-167976076D01*
X221702445Y-167903073D01*
X221609880Y-167839825D01*
X221500000Y-167817574D01*
X220800000Y-167817574D01*
X220697350Y-167836889D01*
X220603073Y-167897555D01*
X220539825Y-167990120D01*
X220517574Y-168100000D01*
X220517574Y-168700000D01*
X220536889Y-168802650D01*
X220597555Y-168896927D01*
X220690120Y-168960175D01*
X220773000Y-168976958D01*
X220773000Y-169533842D01*
X220214268Y-170092574D01*
X219875000Y-170092574D01*
X219772350Y-170111889D01*
X219740526Y-170132368D01*
X217041579Y-167433421D01*
X216919272Y-167351697D01*
X216775000Y-167323000D01*
X214728525Y-167323000D01*
X214589693Y-167115223D01*
X214321395Y-166935952D01*
X214004916Y-166873000D01*
X212545084Y-166873000D01*
X212228605Y-166935952D01*
X211960307Y-167115223D01*
X211781036Y-167383521D01*
X211718084Y-167700000D01*
X211781036Y-168016479D01*
X211960307Y-168284777D01*
X212228605Y-168464048D01*
X212545084Y-168527000D01*
X214004916Y-168527000D01*
X214321395Y-168464048D01*
X214589693Y-168284777D01*
X214728525Y-168077000D01*
X216618842Y-168077000D01*
X219408421Y-170866579D01*
X219530728Y-170948303D01*
X219639043Y-170969848D01*
X219672555Y-171021927D01*
X219765120Y-171085175D01*
X219875000Y-171107426D01*
X220465000Y-171107426D01*
X220567650Y-171088111D01*
X220661927Y-171027445D01*
X220725175Y-170934880D01*
X220747426Y-170825000D01*
X220747426Y-170625732D01*
X221306158Y-170067000D01*
X223033842Y-170067000D01*
X223358421Y-170391579D01*
X223480728Y-170473303D01*
X223625000Y-170502000D01*
X227197654Y-170502000D01*
X227211889Y-170577650D01*
X227272555Y-170671927D01*
X227351076Y-170725579D01*
X227278073Y-170772555D01*
X227214825Y-170865120D01*
X227192574Y-170975000D01*
X227192574Y-171675000D01*
X227211889Y-171777650D01*
X227272555Y-171871927D01*
X227365120Y-171935175D01*
X227475000Y-171957426D01*
X228075000Y-171957426D01*
X228177650Y-171938111D01*
X228271927Y-171877445D01*
X228335175Y-171784880D01*
X228357426Y-171675000D01*
X228357426Y-170975000D01*
X228338111Y-170872350D01*
X228277445Y-170778073D01*
X228198924Y-170724421D01*
X228271927Y-170677445D01*
X228335175Y-170584880D01*
X228357426Y-170475000D01*
X228357426Y-169775000D01*
X228338111Y-169672350D01*
X228277445Y-169578073D01*
X228184880Y-169514825D01*
X228129320Y-169503574D01*
X228129320Y-167749856D01*
X228552320Y-167749856D01*
X228654970Y-167730541D01*
X228749247Y-167669875D01*
X228812495Y-167577310D01*
X228834746Y-167467430D01*
X228834746Y-165287430D01*
X228815431Y-165184780D01*
X228754765Y-165090503D01*
X228662200Y-165027255D01*
X228552320Y-165005004D01*
X226952320Y-165005004D01*
X226849670Y-165024319D01*
X226755393Y-165084985D01*
X226692145Y-165177550D01*
X226669894Y-165287430D01*
X226669894Y-167467430D01*
X226689209Y-167570080D01*
X226749875Y-167664357D01*
X226842440Y-167727605D01*
X226952320Y-167749856D01*
X227375320Y-167749856D01*
X227375320Y-169511330D01*
X227372350Y-169511889D01*
X227278073Y-169572555D01*
X227214825Y-169665120D01*
X227198042Y-169748000D01*
X223781158Y-169748000D01*
X223456579Y-169423421D01*
X223334272Y-169341697D01*
X223190000Y-169313000D01*
X221527000Y-169313000D01*
X221527000Y-168977346D01*
X221602650Y-168963111D01*
X221696927Y-168902445D01*
X221750579Y-168823924D01*
X221797555Y-168896927D01*
X221890120Y-168960175D01*
X222000000Y-168982426D01*
X222700000Y-168982426D01*
X222802650Y-168963111D01*
X222896927Y-168902445D01*
X222960175Y-168809880D01*
X222982426Y-168700000D01*
X222982426Y-168100000D01*
X222963111Y-167997350D01*
X222902445Y-167903073D01*
X222827000Y-167851523D01*
X222827000Y-167700000D01*
X222790691Y-167517460D01*
X222687290Y-167362710D01*
X222611948Y-167312368D01*
X222377085Y-167077505D01*
X222377100Y-167060731D01*
X222289442Y-166848583D01*
X222127271Y-166686129D01*
X221915276Y-166598100D01*
X221897665Y-166598085D01*
X221654394Y-166354814D01*
X221696927Y-166327445D01*
X221750579Y-166248924D01*
X221797555Y-166321927D01*
X221890120Y-166385175D01*
X222000000Y-166407426D01*
X222700000Y-166407426D01*
X222802650Y-166388111D01*
X222896927Y-166327445D01*
X222960175Y-166234880D01*
X222982426Y-166125000D01*
X222982426Y-165525000D01*
X222963111Y-165422350D01*
X222902445Y-165328073D01*
X222809880Y-165264825D01*
X222700000Y-165242574D01*
X222250732Y-165242574D01*
X222016578Y-165008420D01*
X221894271Y-164926696D01*
X221749999Y-164897999D01*
X214130594Y-164897999D01*
X214004916Y-164873000D01*
X212545084Y-164873000D01*
X212228605Y-164935952D01*
X211960307Y-165115223D01*
X211781036Y-165383521D01*
X211718084Y-165700000D01*
X208127065Y-165700000D01*
X208127100Y-165660731D01*
X208039442Y-165448583D01*
X207877271Y-165286129D01*
X207665276Y-165198100D01*
X207435731Y-165197900D01*
X207223583Y-165285558D01*
X207061129Y-165447729D01*
X206973100Y-165659724D01*
X206972900Y-165889269D01*
X201527096Y-165889269D01*
X201527100Y-165885731D01*
X201439442Y-165673583D01*
X201277271Y-165511129D01*
X201065276Y-165423100D01*
X200900918Y-165422957D01*
X200794272Y-165351697D01*
X200650000Y-165323000D01*
X199328525Y-165323000D01*
X199189693Y-165115223D01*
X198921395Y-164935952D01*
X198604916Y-164873000D01*
X197145084Y-164873000D01*
X196828605Y-164935952D01*
X196560307Y-165115223D01*
X196381036Y-165383521D01*
X196318084Y-165700000D01*
X192858158Y-165700000D01*
X191132426Y-163974268D01*
X191132426Y-163700000D01*
X196318084Y-163700000D01*
X196381036Y-164016479D01*
X196560307Y-164284777D01*
X196828605Y-164464048D01*
X197145084Y-164527000D01*
X198604916Y-164527000D01*
X198921395Y-164464048D01*
X199189693Y-164284777D01*
X199368964Y-164016479D01*
X199431916Y-163700000D01*
X199368964Y-163383521D01*
X199189693Y-163115223D01*
X198921395Y-162935952D01*
X198604916Y-162873000D01*
X197145084Y-162873000D01*
X196828605Y-162935952D01*
X196560307Y-163115223D01*
X196381036Y-163383521D01*
X196318084Y-163700000D01*
X191132426Y-163700000D01*
X191132426Y-163625000D01*
X191113111Y-163522350D01*
X191052445Y-163428073D01*
X190959880Y-163364825D01*
X190850000Y-163342574D01*
X190150000Y-163342574D01*
X190047350Y-163361889D01*
X189953073Y-163422555D01*
X189899421Y-163501076D01*
X189852445Y-163428073D01*
X189759880Y-163364825D01*
X189677000Y-163348042D01*
X189677000Y-160656878D01*
X190667474Y-159666404D01*
X190667474Y-160850410D01*
X190686789Y-160953060D01*
X190747455Y-161047337D01*
X190840020Y-161110585D01*
X190949900Y-161132836D01*
X192550100Y-161132836D01*
X192652750Y-161113521D01*
X192747027Y-161052855D01*
X192810275Y-160960290D01*
X192832526Y-160850410D01*
X192832526Y-159627820D01*
X192911098Y-159627820D01*
X195391277Y-162107998D01*
X195391279Y-162108001D01*
X195578472Y-162233078D01*
X195799280Y-162277000D01*
X196555111Y-162277000D01*
X196560307Y-162284777D01*
X196828605Y-162464048D01*
X197145084Y-162527000D01*
X198604916Y-162527000D01*
X198921395Y-162464048D01*
X199189693Y-162284777D01*
X199368964Y-162016479D01*
X199370303Y-162009744D01*
X211431197Y-162009744D01*
X211431602Y-162036146D01*
X211647276Y-162448118D01*
X212004187Y-162746196D01*
X212423414Y-162877311D01*
X212128605Y-162935952D01*
X211860307Y-163115223D01*
X211681036Y-163383521D01*
X211618084Y-163700000D01*
X211681036Y-164016479D01*
X211860307Y-164284777D01*
X212128605Y-164464048D01*
X212445084Y-164527000D01*
X213904916Y-164527000D01*
X214221395Y-164464048D01*
X214489693Y-164284777D01*
X214661934Y-164027000D01*
X220532063Y-164027000D01*
X220536889Y-164052650D01*
X220597555Y-164146927D01*
X220690120Y-164210175D01*
X220800000Y-164232426D01*
X221429665Y-164232426D01*
X221461673Y-164309699D01*
X221640302Y-164488327D01*
X221873691Y-164585000D01*
X222064250Y-164585000D01*
X222223000Y-164426250D01*
X222223000Y-163777000D01*
X222477000Y-163777000D01*
X222477000Y-164426250D01*
X222635750Y-164585000D01*
X222826309Y-164585000D01*
X223059698Y-164488327D01*
X223238327Y-164309699D01*
X223335000Y-164076310D01*
X223335000Y-163935750D01*
X223176250Y-163777000D01*
X222477000Y-163777000D01*
X222223000Y-163777000D01*
X222203000Y-163777000D01*
X222203000Y-163523000D01*
X222223000Y-163523000D01*
X222223000Y-162873750D01*
X222477000Y-162873750D01*
X222477000Y-163523000D01*
X223176250Y-163523000D01*
X223335000Y-163364250D01*
X223335000Y-163223690D01*
X223238327Y-162990301D01*
X223059698Y-162811673D01*
X222826309Y-162715000D01*
X222635750Y-162715000D01*
X222477000Y-162873750D01*
X222223000Y-162873750D01*
X222064250Y-162715000D01*
X221873691Y-162715000D01*
X221640302Y-162811673D01*
X221461673Y-162990301D01*
X221429665Y-163067574D01*
X220800000Y-163067574D01*
X220697350Y-163086889D01*
X220603073Y-163147555D01*
X220539825Y-163240120D01*
X220533167Y-163273000D01*
X214595116Y-163273000D01*
X214489693Y-163115223D01*
X214221395Y-162935952D01*
X213965244Y-162885000D01*
X214102000Y-162885000D01*
X214545813Y-162746196D01*
X214902724Y-162448118D01*
X215118398Y-162036146D01*
X215118803Y-162009744D01*
X214993361Y-161827000D01*
X213402000Y-161827000D01*
X213402000Y-161847000D01*
X213148000Y-161847000D01*
X213148000Y-161827000D01*
X211556639Y-161827000D01*
X211431197Y-162009744D01*
X199370303Y-162009744D01*
X199431916Y-161700000D01*
X199368964Y-161383521D01*
X199189693Y-161115223D01*
X198921395Y-160935952D01*
X198604916Y-160873000D01*
X197145084Y-160873000D01*
X196828605Y-160935952D01*
X196560307Y-161115223D01*
X196555111Y-161123000D01*
X196038281Y-161123000D01*
X194186346Y-159271064D01*
X199738000Y-159271064D01*
X199738000Y-160628936D01*
X199800952Y-160945415D01*
X199980223Y-161213713D01*
X200248521Y-161392984D01*
X200565000Y-161455936D01*
X200881479Y-161392984D01*
X201149777Y-161213713D01*
X201329048Y-160945415D01*
X201392000Y-160628936D01*
X201392000Y-159271064D01*
X201738000Y-159271064D01*
X201738000Y-160628936D01*
X201800952Y-160945415D01*
X201980223Y-161213713D01*
X202248521Y-161392984D01*
X202565000Y-161455936D01*
X202881479Y-161392984D01*
X203149777Y-161213713D01*
X203329048Y-160945415D01*
X203392000Y-160628936D01*
X203392000Y-159271064D01*
X203738000Y-159271064D01*
X203738000Y-160628936D01*
X203800952Y-160945415D01*
X203980223Y-161213713D01*
X204248521Y-161392984D01*
X204565000Y-161455936D01*
X204881479Y-161392984D01*
X205149777Y-161213713D01*
X205329048Y-160945415D01*
X205392000Y-160628936D01*
X205392000Y-159271064D01*
X205738000Y-159271064D01*
X205738000Y-160628936D01*
X205800952Y-160945415D01*
X205980223Y-161213713D01*
X206248521Y-161392984D01*
X206565000Y-161455936D01*
X206881479Y-161392984D01*
X207149777Y-161213713D01*
X207329048Y-160945415D01*
X207392000Y-160628936D01*
X207392000Y-159271064D01*
X207738000Y-159271064D01*
X207738000Y-160628936D01*
X207800952Y-160945415D01*
X207980223Y-161213713D01*
X208248521Y-161392984D01*
X208565000Y-161455936D01*
X208881479Y-161392984D01*
X209149777Y-161213713D01*
X209329048Y-160945415D01*
X209392000Y-160628936D01*
X209392000Y-159271064D01*
X209738000Y-159271064D01*
X209738000Y-160628936D01*
X209800952Y-160945415D01*
X209980223Y-161213713D01*
X210248521Y-161392984D01*
X210565000Y-161455936D01*
X210881479Y-161392984D01*
X210885561Y-161390256D01*
X211431197Y-161390256D01*
X211556639Y-161573000D01*
X213148000Y-161573000D01*
X213148000Y-160515000D01*
X213402000Y-160515000D01*
X213402000Y-161573000D01*
X214993361Y-161573000D01*
X215118803Y-161390256D01*
X215118398Y-161363854D01*
X214902724Y-160951882D01*
X214545813Y-160653804D01*
X214102000Y-160515000D01*
X213402000Y-160515000D01*
X213148000Y-160515000D01*
X212448000Y-160515000D01*
X212004187Y-160653804D01*
X211647276Y-160951882D01*
X211431602Y-161363854D01*
X211431197Y-161390256D01*
X210885561Y-161390256D01*
X211149777Y-161213713D01*
X211329048Y-160945415D01*
X211392000Y-160628936D01*
X211392000Y-159271064D01*
X211329048Y-158954585D01*
X211149777Y-158686287D01*
X210881479Y-158507016D01*
X210565000Y-158444064D01*
X210248521Y-158507016D01*
X209980223Y-158686287D01*
X209800952Y-158954585D01*
X209738000Y-159271064D01*
X209392000Y-159271064D01*
X209329048Y-158954585D01*
X209149777Y-158686287D01*
X208881479Y-158507016D01*
X208565000Y-158444064D01*
X208248521Y-158507016D01*
X207980223Y-158686287D01*
X207800952Y-158954585D01*
X207738000Y-159271064D01*
X207392000Y-159271064D01*
X207329048Y-158954585D01*
X207149777Y-158686287D01*
X206881479Y-158507016D01*
X206565000Y-158444064D01*
X206248521Y-158507016D01*
X205980223Y-158686287D01*
X205800952Y-158954585D01*
X205738000Y-159271064D01*
X205392000Y-159271064D01*
X205329048Y-158954585D01*
X205149777Y-158686287D01*
X204881479Y-158507016D01*
X204565000Y-158444064D01*
X204248521Y-158507016D01*
X203980223Y-158686287D01*
X203800952Y-158954585D01*
X203738000Y-159271064D01*
X203392000Y-159271064D01*
X203329048Y-158954585D01*
X203149777Y-158686287D01*
X202881479Y-158507016D01*
X202565000Y-158444064D01*
X202248521Y-158507016D01*
X201980223Y-158686287D01*
X201800952Y-158954585D01*
X201738000Y-159271064D01*
X201392000Y-159271064D01*
X201329048Y-158954585D01*
X201149777Y-158686287D01*
X200881479Y-158507016D01*
X200565000Y-158444064D01*
X200248521Y-158507016D01*
X199980223Y-158686287D01*
X199800952Y-158954585D01*
X199738000Y-159271064D01*
X194186346Y-159271064D01*
X193558101Y-158642819D01*
X193370908Y-158517742D01*
X193150100Y-158473819D01*
X193150095Y-158473820D01*
X192832526Y-158473820D01*
X192832526Y-157784806D01*
X193159011Y-157458320D01*
X226312680Y-157458320D01*
X226312680Y-158388879D01*
X226409353Y-158622268D01*
X226587981Y-158800897D01*
X226821370Y-158897570D01*
X227461930Y-158897570D01*
X227620680Y-158738820D01*
X227620680Y-157299570D01*
X227874680Y-157299570D01*
X227874680Y-158738820D01*
X228033430Y-158897570D01*
X228673990Y-158897570D01*
X228907379Y-158800897D01*
X229086007Y-158622268D01*
X229182680Y-158388879D01*
X229182680Y-157458320D01*
X229023930Y-157299570D01*
X227874680Y-157299570D01*
X227620680Y-157299570D01*
X226471430Y-157299570D01*
X226312680Y-157458320D01*
X193159011Y-157458320D01*
X194112118Y-156505213D01*
X203549392Y-156505213D01*
X203618857Y-156747397D01*
X204142302Y-156934144D01*
X204697368Y-156906362D01*
X205081143Y-156747397D01*
X205150608Y-156505213D01*
X204350000Y-155704605D01*
X203549392Y-156505213D01*
X194112118Y-156505213D01*
X195300029Y-155317302D01*
X202940856Y-155317302D01*
X202968638Y-155872368D01*
X203127603Y-156256143D01*
X203369787Y-156325608D01*
X204170395Y-155525000D01*
X204529605Y-155525000D01*
X205330213Y-156325608D01*
X205572397Y-156256143D01*
X205679384Y-155956261D01*
X226312680Y-155956261D01*
X226312680Y-156886820D01*
X226471430Y-157045570D01*
X227620680Y-157045570D01*
X227620680Y-155606320D01*
X227874680Y-155606320D01*
X227874680Y-157045570D01*
X229023930Y-157045570D01*
X229182680Y-156886820D01*
X229182680Y-155956261D01*
X229086007Y-155722872D01*
X228907379Y-155544243D01*
X228673990Y-155447570D01*
X228033430Y-155447570D01*
X227874680Y-155606320D01*
X227620680Y-155606320D01*
X227461930Y-155447570D01*
X226821370Y-155447570D01*
X226587981Y-155544243D01*
X226409353Y-155722872D01*
X226312680Y-155956261D01*
X205679384Y-155956261D01*
X205759144Y-155732698D01*
X205731362Y-155177632D01*
X205572397Y-154793857D01*
X205330213Y-154724392D01*
X204529605Y-155525000D01*
X204170395Y-155525000D01*
X203369787Y-154724392D01*
X203127603Y-154793857D01*
X202940856Y-155317302D01*
X195300029Y-155317302D01*
X196072544Y-154544787D01*
X203549392Y-154544787D01*
X204350000Y-155345395D01*
X205150608Y-154544787D01*
X205081143Y-154302603D01*
X204557698Y-154115856D01*
X204002632Y-154143638D01*
X203618857Y-154302603D01*
X203549392Y-154544787D01*
X196072544Y-154544787D01*
X206565331Y-144052000D01*
X212617164Y-144052000D01*
X212617164Y-144275100D01*
X212636479Y-144377750D01*
X212697145Y-144472027D01*
X212789710Y-144535275D01*
X212899590Y-144557526D01*
X214122180Y-144557526D01*
X214122180Y-145224175D01*
X214122179Y-145224180D01*
X214166102Y-145444988D01*
X214291179Y-145632181D01*
X214402918Y-145743919D01*
X214402875Y-145792985D01*
X214512561Y-146058446D01*
X214715486Y-146261725D01*
X214980755Y-146371875D01*
X215267985Y-146372125D01*
X215533446Y-146262439D01*
X215736725Y-146059514D01*
X215846875Y-145794245D01*
X215847125Y-145507015D01*
X215737439Y-145241554D01*
X215534514Y-145038275D01*
X215276180Y-144931005D01*
X215276180Y-144557526D01*
X216498770Y-144557526D01*
X216601420Y-144538211D01*
X216695697Y-144477545D01*
X216758945Y-144384980D01*
X216781196Y-144275100D01*
X216781196Y-143760750D01*
X217766230Y-143760750D01*
X217766230Y-144401410D01*
X217862903Y-144634799D01*
X218041532Y-144813427D01*
X218274921Y-144910100D01*
X219915070Y-144910100D01*
X220073820Y-144751350D01*
X220073820Y-143602000D01*
X220327820Y-143602000D01*
X220327820Y-144751350D01*
X220486570Y-144910100D01*
X222126719Y-144910100D01*
X222360108Y-144813427D01*
X222538737Y-144634799D01*
X222635410Y-144401410D01*
X222635410Y-143760750D01*
X222476660Y-143602000D01*
X220327820Y-143602000D01*
X220073820Y-143602000D01*
X217924980Y-143602000D01*
X217766230Y-143760750D01*
X216781196Y-143760750D01*
X216781196Y-142674900D01*
X216761881Y-142572250D01*
X216746657Y-142548590D01*
X217766230Y-142548590D01*
X217766230Y-143189250D01*
X217924980Y-143348000D01*
X220073820Y-143348000D01*
X220073820Y-142198650D01*
X220327820Y-142198650D01*
X220327820Y-143348000D01*
X222476660Y-143348000D01*
X222635410Y-143189250D01*
X222635410Y-142548590D01*
X222538737Y-142315201D01*
X222360108Y-142136573D01*
X222126719Y-142039900D01*
X220486570Y-142039900D01*
X220327820Y-142198650D01*
X220073820Y-142198650D01*
X219915070Y-142039900D01*
X218274921Y-142039900D01*
X218041532Y-142136573D01*
X217862903Y-142315201D01*
X217766230Y-142548590D01*
X216746657Y-142548590D01*
X216701215Y-142477973D01*
X216608650Y-142414725D01*
X216498770Y-142392474D01*
X212899590Y-142392474D01*
X212796940Y-142411789D01*
X212702663Y-142472455D01*
X212639415Y-142565020D01*
X212617164Y-142674900D01*
X212617164Y-142898000D01*
X206326335Y-142898000D01*
X206326330Y-142897999D01*
X206105522Y-142941922D01*
X205918329Y-143066999D01*
X205918327Y-143067002D01*
X192016524Y-156968804D01*
X190949900Y-156968804D01*
X190847250Y-156988119D01*
X190752973Y-157048785D01*
X190689725Y-157141350D01*
X190667474Y-157251230D01*
X190667474Y-158690215D01*
X190605628Y-158702517D01*
X190483321Y-158784241D01*
X189033421Y-160234141D01*
X188951697Y-160356448D01*
X188923000Y-160500720D01*
X188923000Y-163347654D01*
X188847350Y-163361889D01*
X188753073Y-163422555D01*
X188689825Y-163515120D01*
X188667574Y-163625000D01*
X188667574Y-164225000D01*
X188686889Y-164327650D01*
X188747555Y-164421927D01*
X188773000Y-164439313D01*
X188773000Y-164711053D01*
X188661129Y-164822729D01*
X188573100Y-165034724D01*
X188572900Y-165264269D01*
X177667386Y-165264269D01*
X177479304Y-164284327D01*
X177322054Y-163250638D01*
X177130962Y-161226378D01*
X177074818Y-158869984D01*
X177085536Y-158633320D01*
X182312680Y-158633320D01*
X182312680Y-159563879D01*
X182409353Y-159797268D01*
X182587981Y-159975897D01*
X182821370Y-160072570D01*
X183461930Y-160072570D01*
X183620680Y-159913820D01*
X183620680Y-158474570D01*
X183874680Y-158474570D01*
X183874680Y-159913820D01*
X184033430Y-160072570D01*
X184673990Y-160072570D01*
X184907379Y-159975897D01*
X185086007Y-159797268D01*
X185182680Y-159563879D01*
X185182680Y-158633320D01*
X185023930Y-158474570D01*
X183874680Y-158474570D01*
X183620680Y-158474570D01*
X182471430Y-158474570D01*
X182312680Y-158633320D01*
X177085536Y-158633320D01*
X177153565Y-157131261D01*
X182312680Y-157131261D01*
X182312680Y-158061820D01*
X182471430Y-158220570D01*
X183620680Y-158220570D01*
X183620680Y-156781320D01*
X183874680Y-156781320D01*
X183874680Y-158220570D01*
X185023930Y-158220570D01*
X185182680Y-158061820D01*
X185182680Y-157131261D01*
X185086007Y-156897872D01*
X184907379Y-156719243D01*
X184673990Y-156622570D01*
X184033430Y-156622570D01*
X183874680Y-156781320D01*
X183620680Y-156781320D01*
X183461930Y-156622570D01*
X182821370Y-156622570D01*
X182587981Y-156719243D01*
X182409353Y-156897872D01*
X182312680Y-157131261D01*
X177153565Y-157131261D01*
X177175662Y-156643395D01*
X177425119Y-154533846D01*
X177561688Y-153834930D01*
X190314900Y-153834930D01*
X190314900Y-155475079D01*
X190411573Y-155708468D01*
X190590201Y-155887097D01*
X190823590Y-155983770D01*
X191464250Y-155983770D01*
X191623000Y-155825020D01*
X191623000Y-153676180D01*
X191877000Y-153676180D01*
X191877000Y-155825020D01*
X192035750Y-155983770D01*
X192676410Y-155983770D01*
X192909799Y-155887097D01*
X193088427Y-155708468D01*
X193185100Y-155475079D01*
X193185100Y-153834930D01*
X193026350Y-153676180D01*
X191877000Y-153676180D01*
X191623000Y-153676180D01*
X190473650Y-153676180D01*
X190314900Y-153834930D01*
X177561688Y-153834930D01*
X177817063Y-152528012D01*
X178067789Y-151623281D01*
X190314900Y-151623281D01*
X190314900Y-153263430D01*
X190473650Y-153422180D01*
X191623000Y-153422180D01*
X191623000Y-151273340D01*
X191877000Y-151273340D01*
X191877000Y-153422180D01*
X193026350Y-153422180D01*
X193185100Y-153263430D01*
X193185100Y-151623281D01*
X193088427Y-151389892D01*
X192909799Y-151211263D01*
X192676410Y-151114590D01*
X192035750Y-151114590D01*
X191877000Y-151273340D01*
X191623000Y-151273340D01*
X191464250Y-151114590D01*
X190823590Y-151114590D01*
X190590201Y-151211263D01*
X190411573Y-151389892D01*
X190314900Y-151623281D01*
X178067789Y-151623281D01*
X178347790Y-150612915D01*
X179016289Y-148775704D01*
X179824410Y-147003694D01*
X180777271Y-145284002D01*
X181883789Y-143603105D01*
X183157703Y-141945893D01*
X184619612Y-140293915D01*
X186301428Y-138621437D01*
X188197586Y-136936750D01*
X188234869Y-136887507D01*
X188272757Y-136838769D01*
X188273319Y-136836722D01*
X188274602Y-136835028D01*
X188290194Y-136775297D01*
X188306555Y-136715739D01*
X188391089Y-135539560D01*
X188389327Y-135525493D01*
X188391898Y-135511554D01*
X188368704Y-133850330D01*
X188367813Y-133846156D01*
X188368479Y-133841940D01*
X188252614Y-130919709D01*
X188265365Y-129991468D01*
X188337467Y-129144614D01*
X188466896Y-128477060D01*
X188559941Y-128191590D01*
X188642302Y-128036034D01*
X188712015Y-127954036D01*
X188995399Y-127781750D01*
X189027624Y-127769542D01*
X189062114Y-127747992D01*
X189099345Y-127731608D01*
X189115732Y-127714489D01*
X189135827Y-127701933D01*
X189159445Y-127668823D01*
X189187571Y-127639441D01*
X189196159Y-127617354D01*
X189209921Y-127598062D01*
X189219071Y-127558431D01*
X189233811Y-127520525D01*
X189233293Y-127496835D01*
X189238625Y-127473743D01*
X189231912Y-127433626D01*
X189231024Y-127392965D01*
X189221480Y-127371276D01*
X189217569Y-127347904D01*
X189196015Y-127313409D01*
X189179634Y-127276184D01*
X188500417Y-126306224D01*
X187852874Y-125108230D01*
X187252022Y-123665247D01*
X186730460Y-122001337D01*
X186320880Y-120163709D01*
X186168423Y-119207708D01*
X186053615Y-118235085D01*
X185978932Y-117263483D01*
X185944602Y-116289920D01*
X185951255Y-115346409D01*
X185998668Y-114411491D01*
X186083481Y-113528594D01*
X186207909Y-112662834D01*
X186363356Y-111862241D01*
X186556198Y-111084956D01*
X186567454Y-111048191D01*
X203222805Y-111048191D01*
X203394019Y-111462560D01*
X203710772Y-111779867D01*
X204124842Y-111951804D01*
X204573191Y-111952195D01*
X204987560Y-111780981D01*
X205304867Y-111464228D01*
X205476804Y-111050158D01*
X205476971Y-110858093D01*
X211397796Y-110858093D01*
X211576606Y-111290846D01*
X211907412Y-111622230D01*
X212339853Y-111801795D01*
X212808093Y-111802204D01*
X213240846Y-111623394D01*
X213572230Y-111292588D01*
X213751795Y-110860147D01*
X213752204Y-110391907D01*
X213573394Y-109959154D01*
X213242588Y-109627770D01*
X212810147Y-109448205D01*
X212341907Y-109447796D01*
X211909154Y-109626606D01*
X211577770Y-109957412D01*
X211398205Y-110389853D01*
X211397796Y-110858093D01*
X205476971Y-110858093D01*
X205477195Y-110601809D01*
X205305981Y-110187440D01*
X204989228Y-109870133D01*
X204927000Y-109844294D01*
X204927000Y-109789002D01*
X207137998Y-107578003D01*
X207138001Y-107578001D01*
X207263078Y-107390808D01*
X207307000Y-107170000D01*
X207307000Y-104523426D01*
X207593600Y-104523426D01*
X207696250Y-104504111D01*
X207790527Y-104443445D01*
X207853775Y-104350880D01*
X207876026Y-104241000D01*
X207876026Y-102209000D01*
X207856711Y-102106350D01*
X207796045Y-102012073D01*
X207703480Y-101948825D01*
X207593600Y-101926574D01*
X205866400Y-101926574D01*
X205763750Y-101945889D01*
X205669473Y-102006555D01*
X205606225Y-102099120D01*
X205583974Y-102209000D01*
X205583974Y-102602335D01*
X205481954Y-102310680D01*
X205092036Y-101874268D01*
X204564791Y-101620291D01*
X204549026Y-101617642D01*
X204317000Y-101738783D01*
X204317000Y-103098000D01*
X204337000Y-103098000D01*
X204337000Y-103352000D01*
X204317000Y-103352000D01*
X204317000Y-104711217D01*
X204549026Y-104832358D01*
X204564791Y-104829709D01*
X205092036Y-104575732D01*
X205481954Y-104139320D01*
X205583974Y-103847665D01*
X205583974Y-104241000D01*
X205603289Y-104343650D01*
X205663955Y-104437927D01*
X205756520Y-104501175D01*
X205866400Y-104523426D01*
X206153000Y-104523426D01*
X206153000Y-106930999D01*
X203941999Y-109141999D01*
X203816922Y-109329192D01*
X203772999Y-109550000D01*
X203773000Y-109550005D01*
X203773000Y-109843996D01*
X203712440Y-109869019D01*
X203395133Y-110185772D01*
X203223196Y-110599842D01*
X203222805Y-111048191D01*
X186567454Y-111048191D01*
X186772733Y-110377738D01*
X187023060Y-109699913D01*
X187431362Y-108803156D01*
X187440579Y-108763952D01*
X187455417Y-108726513D01*
X187455047Y-108702416D01*
X187460563Y-108678954D01*
X187454076Y-108639207D01*
X187453457Y-108598940D01*
X187443892Y-108576816D01*
X187440010Y-108553030D01*
X187418808Y-108518794D01*
X187402826Y-108481827D01*
X187385522Y-108465047D01*
X187372833Y-108444557D01*
X187340143Y-108421041D01*
X187311231Y-108393004D01*
X187288824Y-108384124D01*
X187269260Y-108370050D01*
X187230056Y-108360833D01*
X187192617Y-108345995D01*
X187168520Y-108346365D01*
X187145058Y-108340849D01*
X187105311Y-108347336D01*
X187065044Y-108347955D01*
X185903881Y-108597528D01*
X185902987Y-108597914D01*
X185902014Y-108597935D01*
X184411520Y-108927418D01*
X184398220Y-108933261D01*
X184383777Y-108934842D01*
X184072140Y-109033093D01*
X184049846Y-109045323D01*
X184025295Y-109051950D01*
X183623463Y-109251032D01*
X183614434Y-109257987D01*
X183603659Y-109261707D01*
X183314247Y-109430813D01*
X183060776Y-109523320D01*
X182857883Y-109525475D01*
X182761158Y-109499015D01*
X182675471Y-109452664D01*
X182607146Y-109392478D01*
X182444360Y-109133044D01*
X182290917Y-108646654D01*
X182117946Y-107915104D01*
X182109260Y-107896092D01*
X182105877Y-107875470D01*
X181841701Y-107171420D01*
X181628756Y-106596835D01*
X181515307Y-106071165D01*
X181531009Y-105771209D01*
X181543180Y-105738535D01*
X181706436Y-105544974D01*
X182116228Y-105273195D01*
X182887727Y-104926366D01*
X184060550Y-104506745D01*
X184061399Y-104506236D01*
X184062377Y-104506085D01*
X184110012Y-104488722D01*
X185758403Y-103923298D01*
X185760660Y-103921985D01*
X185763240Y-103921596D01*
X187244694Y-103387325D01*
X187282518Y-103364525D01*
X187322840Y-103346508D01*
X187336698Y-103331865D01*
X187353965Y-103321457D01*
X187380186Y-103285916D01*
X187410543Y-103253841D01*
X187417742Y-103235011D01*
X187429713Y-103218786D01*
X187440337Y-103175915D01*
X187456109Y-103134665D01*
X187455554Y-103114513D01*
X187460404Y-103094943D01*
X187453813Y-103051267D01*
X187453703Y-103047269D01*
X200509400Y-103047269D01*
X200509400Y-103402731D01*
X200596223Y-103839220D01*
X200843474Y-104209257D01*
X201073000Y-104362621D01*
X201073000Y-107955952D01*
X200963275Y-108065486D01*
X200853125Y-108330755D01*
X200852875Y-108617985D01*
X200962561Y-108883446D01*
X201165486Y-109086725D01*
X201430755Y-109196875D01*
X201717985Y-109197125D01*
X201983446Y-109087439D01*
X202186725Y-108884514D01*
X202296875Y-108619245D01*
X202297125Y-108332015D01*
X202227000Y-108162299D01*
X202227000Y-104362621D01*
X202456526Y-104209257D01*
X202703777Y-103839220D01*
X202736147Y-103676483D01*
X202898046Y-104139320D01*
X203287964Y-104575732D01*
X203815209Y-104829709D01*
X203830974Y-104832358D01*
X204063000Y-104711217D01*
X204063000Y-103352000D01*
X204043000Y-103352000D01*
X204043000Y-103098000D01*
X204063000Y-103098000D01*
X204063000Y-101738783D01*
X203830974Y-101617642D01*
X203815209Y-101620291D01*
X203287964Y-101874268D01*
X202898046Y-102310680D01*
X202736147Y-102773517D01*
X202703777Y-102610780D01*
X202456526Y-102240743D01*
X202086489Y-101993492D01*
X201650000Y-101906669D01*
X201213511Y-101993492D01*
X200843474Y-102240743D01*
X200596223Y-102610780D01*
X200509400Y-103047269D01*
X187453703Y-103047269D01*
X187452598Y-103007125D01*
X186085491Y-97002577D01*
X191672779Y-97002577D01*
X191866781Y-97472097D01*
X192225693Y-97831637D01*
X192694875Y-98026458D01*
X193202897Y-98026901D01*
X193672417Y-97832899D01*
X194031957Y-97473987D01*
X194226778Y-97004805D01*
X194227221Y-96496783D01*
X194033219Y-96027263D01*
X193674307Y-95667723D01*
X193205125Y-95472902D01*
X192697103Y-95472459D01*
X192227583Y-95666461D01*
X191868043Y-96025373D01*
X191673222Y-96494555D01*
X191672779Y-97002577D01*
X186085491Y-97002577D01*
X186085136Y-97001021D01*
X186084947Y-97000598D01*
X186084933Y-97000134D01*
X184658427Y-90814207D01*
X184655892Y-90808577D01*
X184655476Y-90802414D01*
X184520450Y-90302532D01*
X191977073Y-90302532D01*
X192075736Y-90569387D01*
X192685461Y-90795908D01*
X193335460Y-90771856D01*
X193824264Y-90569387D01*
X193922927Y-90302532D01*
X192950000Y-89329605D01*
X191977073Y-90302532D01*
X184520450Y-90302532D01*
X184326237Y-89583538D01*
X184158268Y-88885461D01*
X191304092Y-88885461D01*
X191328144Y-89535460D01*
X191530613Y-90024264D01*
X191797468Y-90122927D01*
X192770395Y-89150000D01*
X193129605Y-89150000D01*
X194102532Y-90122927D01*
X194369387Y-90024264D01*
X194595908Y-89414539D01*
X194571856Y-88764540D01*
X194369387Y-88275736D01*
X194102532Y-88177073D01*
X193129605Y-89150000D01*
X192770395Y-89150000D01*
X191797468Y-88177073D01*
X191530613Y-88275736D01*
X191304092Y-88885461D01*
X184158268Y-88885461D01*
X184047224Y-88423968D01*
X183980013Y-87997468D01*
X191977073Y-87997468D01*
X192950000Y-88970395D01*
X193922927Y-87997468D01*
X193824264Y-87730613D01*
X193214539Y-87504092D01*
X192564540Y-87528144D01*
X192075736Y-87730613D01*
X191977073Y-87997468D01*
X183980013Y-87997468D01*
X183964026Y-87896022D01*
X183942975Y-87448989D01*
X183966576Y-87244416D01*
X184027596Y-87088747D01*
X184313661Y-86936439D01*
X185067782Y-86697952D01*
X186360895Y-86399065D01*
X186442883Y-86380780D01*
X186443570Y-86380477D01*
X186444323Y-86380456D01*
X191506821Y-85227407D01*
X203347735Y-85227407D01*
X203579717Y-85788846D01*
X204008894Y-86218773D01*
X204569928Y-86451735D01*
X205177407Y-86452265D01*
X205738846Y-86220283D01*
X206168773Y-85791106D01*
X206401735Y-85230072D01*
X206402265Y-84622593D01*
X206170283Y-84061154D01*
X205741106Y-83631227D01*
X205180072Y-83398265D01*
X204572593Y-83397735D01*
X204011154Y-83629717D01*
X203581227Y-84058894D01*
X203348265Y-84619928D01*
X203347735Y-85227407D01*
X191506821Y-85227407D01*
X196472738Y-84096356D01*
X206240030Y-81896896D01*
X206404575Y-81876397D01*
X206532777Y-81886305D01*
X206532777Y-81886305D01*
G37*
X206532777Y-81886305D02*
X206635271Y-81916571D01*
X206884000Y-82081116D01*
X207143154Y-82409299D01*
X207421352Y-82989317D01*
X207709689Y-83909887D01*
X208046299Y-85323002D01*
X208048325Y-85327418D01*
X208048649Y-85332263D01*
X208153995Y-85723437D01*
X208157084Y-85729682D01*
X208157840Y-85736608D01*
X209608249Y-90343205D01*
X209608599Y-90343843D01*
X209608681Y-90344568D01*
X210556018Y-93308088D01*
X211462086Y-96280293D01*
X211880417Y-97750580D01*
X211906832Y-97802129D01*
X211931342Y-97854609D01*
X211935829Y-97858716D01*
X211938603Y-97864129D01*
X211982726Y-97901637D01*
X212025462Y-97940751D01*
X212031181Y-97942829D01*
X212035814Y-97946767D01*
X212090925Y-97964533D01*
X212145383Y-97984317D01*
X212151461Y-97984048D01*
X212157250Y-97985914D01*
X212214981Y-97981236D01*
X212272847Y-97978675D01*
X214279241Y-97486442D01*
X214281499Y-97485387D01*
X214283987Y-97485240D01*
X215923035Y-97057016D01*
X217601878Y-96681186D01*
X218815641Y-96491759D01*
X218961096Y-96702955D01*
X219431681Y-97676310D01*
X219647608Y-98255716D01*
X219815944Y-98843049D01*
X219894004Y-99261388D01*
X219916951Y-99628567D01*
X219897636Y-99831436D01*
X219851386Y-99986282D01*
X219795248Y-100083780D01*
X219730558Y-100154447D01*
X219479457Y-100302197D01*
X219021404Y-100419972D01*
X218072714Y-100568272D01*
X218050682Y-100576350D01*
X218027333Y-100578722D01*
X217517842Y-100734987D01*
X217498596Y-100745351D01*
X217477332Y-100750417D01*
X217442916Y-100775332D01*
X217405504Y-100795477D01*
X217391688Y-100812417D01*
X217373983Y-100825235D01*
X217351719Y-100861427D01*
X217324866Y-100894354D01*
X217318586Y-100915289D01*
X217307132Y-100933908D01*
X217300414Y-100975863D01*
X217288204Y-101016563D01*
X217290414Y-101038312D01*
X217286958Y-101059893D01*
X217296806Y-101101223D01*
X217301101Y-101143498D01*
X217311465Y-101162744D01*
X217316531Y-101184008D01*
X217341446Y-101218424D01*
X217361591Y-101255836D01*
X217378531Y-101269652D01*
X217391349Y-101287357D01*
X218162812Y-102002938D01*
X218917262Y-102763655D01*
X219578418Y-103489888D01*
X220219368Y-104258419D01*
X220785886Y-105002332D01*
X221327314Y-105783653D01*
X221806409Y-106547061D01*
X222257198Y-107344490D01*
X222654071Y-108129432D01*
X223020286Y-108946028D01*
X223338596Y-109755039D01*
X223624301Y-110593972D01*
X223866238Y-111430043D01*
X224073762Y-112294921D01*
X224240141Y-113161465D01*
X224370117Y-114054801D01*
X224483823Y-115289881D01*
X224518152Y-117079305D01*
X224399171Y-118785392D01*
X224133021Y-120423387D01*
X223722405Y-122006813D01*
X223166198Y-123549641D01*
X222458951Y-125066969D01*
X221589850Y-126576351D01*
X220539895Y-128101535D01*
X219389825Y-129546072D01*
X219369922Y-129584675D01*
X219345297Y-129620449D01*
X219340936Y-129640893D01*
X219331356Y-129659474D01*
X219327741Y-129702753D01*
X219318680Y-129745230D01*
X219283018Y-132327555D01*
X219149958Y-134812216D01*
X219156226Y-134855796D01*
X219157095Y-134899818D01*
X219165231Y-134918413D01*
X219168121Y-134938505D01*
X219190591Y-134976372D01*
X219208240Y-135016708D01*
X219222873Y-135030775D01*
X219233232Y-135048231D01*
X219268480Y-135074615D01*
X219300223Y-135105128D01*
X220288849Y-135737832D01*
X221242028Y-136396247D01*
X222135997Y-137062454D01*
X223000177Y-137757082D01*
X223812681Y-138461502D01*
X224596139Y-139194261D01*
X225334123Y-139939212D01*
X226043593Y-140712612D01*
X226712644Y-141501036D01*
X227353446Y-142318233D01*
X227957942Y-143153819D01*
X228534127Y-144018632D01*
X229077134Y-144905606D01*
X229591635Y-145822569D01*
X230075148Y-146765867D01*
X230528423Y-147737377D01*
X231349627Y-149782438D01*
X232052679Y-151966455D01*
X232114577Y-152186565D01*
X232368402Y-153176624D01*
X232586452Y-154195565D01*
X232760522Y-155204124D01*
X232898482Y-156246277D01*
X232996201Y-157294262D01*
X233056166Y-158378210D01*
X233076577Y-159481350D01*
X233056972Y-160624761D01*
X233035207Y-161139793D01*
X232854361Y-163216142D01*
X232526135Y-165213751D01*
X232052885Y-167146729D01*
X231435193Y-169024178D01*
X230671329Y-170855136D01*
X229757101Y-172648633D01*
X228685526Y-174414080D01*
X227446375Y-176161870D01*
X226022351Y-177907719D01*
X225753440Y-178213235D01*
X225053739Y-178969451D01*
X224322018Y-179701549D01*
X223561942Y-180405753D01*
X222770198Y-181084793D01*
X221954792Y-181731616D01*
X221109733Y-182350800D01*
X220498783Y-182763458D01*
X220943379Y-182318862D01*
X221002306Y-182232620D01*
X221026073Y-182123059D01*
X221005342Y-182012882D01*
X220943379Y-181919452D01*
X219670587Y-180646660D01*
X219584345Y-180587733D01*
X219474784Y-180563966D01*
X219364607Y-180584697D01*
X219271177Y-180646660D01*
X218422649Y-181495188D01*
X218363722Y-181581430D01*
X218339955Y-181690991D01*
X218360686Y-181801168D01*
X218422649Y-181894598D01*
X219695441Y-183167390D01*
X219778842Y-183224376D01*
X219353905Y-183488309D01*
X218447452Y-184004282D01*
X217515447Y-184488485D01*
X216572550Y-184933307D01*
X215606100Y-185344703D01*
X214631974Y-185715890D01*
X213636247Y-186052156D01*
X212635404Y-186347915D01*
X211616164Y-186607108D01*
X210108526Y-186915600D01*
X208255729Y-187163043D01*
X206078161Y-187294870D01*
X203738495Y-187278511D01*
X202595793Y-187211722D01*
X201480861Y-187105551D01*
X200144274Y-186915982D01*
X198108230Y-186488606D01*
X196122968Y-185912725D01*
X194191245Y-185190050D01*
X192318163Y-184322703D01*
X190510059Y-183313346D01*
X188774408Y-182165370D01*
X187119750Y-180883329D01*
X185554647Y-179472331D01*
X184410334Y-178295283D01*
X184275585Y-178142824D01*
X196724257Y-178142824D01*
X196741098Y-178190341D01*
X196798278Y-178285641D01*
X196848004Y-184576004D01*
X196856823Y-184621509D01*
X196884228Y-184663823D01*
X196925937Y-184692140D01*
X196975376Y-184701999D01*
X213850376Y-184651999D01*
X213895241Y-184643669D01*
X213937845Y-184616718D01*
X213966608Y-184575316D01*
X213976996Y-184525984D01*
X214026996Y-178075984D01*
X214018179Y-178028494D01*
X213990775Y-177986180D01*
X213949067Y-177957861D01*
X213899628Y-177948001D01*
X196849628Y-177998001D01*
X196787693Y-178014335D01*
X196749547Y-178047295D01*
X196727229Y-178092499D01*
X196724257Y-178142824D01*
X184275585Y-178142824D01*
X183709679Y-177502543D01*
X183032205Y-176675198D01*
X182390327Y-175828150D01*
X181775767Y-174950243D01*
X181200507Y-174058632D01*
X180655159Y-173138694D01*
X180151385Y-172210260D01*
X179679724Y-171256017D01*
X179250689Y-170297487D01*
X178855637Y-169315603D01*
X178503397Y-168332629D01*
X178186654Y-167328493D01*
X177949806Y-166462430D01*
X182669894Y-166462430D01*
X182669894Y-168642430D01*
X182689209Y-168745080D01*
X182749875Y-168839357D01*
X182842440Y-168902605D01*
X182952320Y-168924856D01*
X184301588Y-168924856D01*
X188273000Y-172896269D01*
X188273000Y-172997654D01*
X188197350Y-173011889D01*
X188103073Y-173072555D01*
X188049421Y-173151076D01*
X188002445Y-173078073D01*
X187909880Y-173014825D01*
X187816231Y-172995861D01*
X187798303Y-172905728D01*
X187716579Y-172783421D01*
X187151962Y-172218804D01*
X187152100Y-172060731D01*
X187064442Y-171848583D01*
X186902271Y-171686129D01*
X186690276Y-171598100D01*
X186460731Y-171597900D01*
X186248583Y-171685558D01*
X186086129Y-171847729D01*
X185998100Y-172059724D01*
X185997900Y-172289269D01*
X186085558Y-172501417D01*
X186247729Y-172663871D01*
X186459724Y-172751900D01*
X186618881Y-172752039D01*
X186925175Y-173058333D01*
X186903073Y-173072555D01*
X186839825Y-173165120D01*
X186817574Y-173275000D01*
X186817574Y-173875000D01*
X186836889Y-173977650D01*
X186897555Y-174071927D01*
X186990120Y-174135175D01*
X187100000Y-174157426D01*
X187800000Y-174157426D01*
X187902650Y-174138111D01*
X187996927Y-174077445D01*
X188050579Y-173998924D01*
X188097555Y-174071927D01*
X188190120Y-174135175D01*
X188300000Y-174157426D01*
X189000000Y-174157426D01*
X189102650Y-174138111D01*
X189196927Y-174077445D01*
X189260175Y-173984880D01*
X189266833Y-173952000D01*
X189282063Y-173952000D01*
X189286889Y-173977650D01*
X189347555Y-174071927D01*
X189440120Y-174135175D01*
X189538950Y-174155188D01*
X189551697Y-174219272D01*
X189633421Y-174341579D01*
X191258421Y-175966579D01*
X191380728Y-176048303D01*
X191525000Y-176077000D01*
X196342574Y-176077000D01*
X196342574Y-176250000D01*
X196361889Y-176352650D01*
X196422555Y-176446927D01*
X196515120Y-176510175D01*
X196625000Y-176532426D01*
X199125000Y-176532426D01*
X199227650Y-176513111D01*
X199321927Y-176452445D01*
X199385175Y-176359880D01*
X199407426Y-176250000D01*
X199407426Y-175150000D01*
X199388111Y-175047350D01*
X199327445Y-174953073D01*
X199234880Y-174889825D01*
X199125000Y-174867574D01*
X196625000Y-174867574D01*
X196522350Y-174886889D01*
X196428073Y-174947555D01*
X196364825Y-175040120D01*
X196342574Y-175150000D01*
X196342574Y-175323000D01*
X191681158Y-175323000D01*
X190440037Y-174081879D01*
X190446927Y-174077445D01*
X190500579Y-173998924D01*
X190547555Y-174071927D01*
X190640120Y-174135175D01*
X190750000Y-174157426D01*
X191450000Y-174157426D01*
X191552650Y-174138111D01*
X191646927Y-174077445D01*
X191666151Y-174049310D01*
X192223038Y-174606196D01*
X192222900Y-174764269D01*
X192310558Y-174976417D01*
X192472729Y-175138871D01*
X192684724Y-175226900D01*
X192914269Y-175227100D01*
X193126417Y-175139442D01*
X193288871Y-174977271D01*
X193376900Y-174765276D01*
X193377100Y-174535731D01*
X193289442Y-174323583D01*
X193127271Y-174161129D01*
X192915276Y-174073100D01*
X192756120Y-174072961D01*
X192383159Y-173700000D01*
X196318084Y-173700000D01*
X196381036Y-174016479D01*
X196560307Y-174284777D01*
X196828605Y-174464048D01*
X197145084Y-174527000D01*
X198604916Y-174527000D01*
X198921395Y-174464048D01*
X199189693Y-174284777D01*
X199368964Y-174016479D01*
X199431916Y-173700000D01*
X211718084Y-173700000D01*
X211781036Y-174016479D01*
X211960307Y-174284777D01*
X212228605Y-174464048D01*
X212545084Y-174527000D01*
X214004916Y-174527000D01*
X214321395Y-174464048D01*
X214589693Y-174284777D01*
X214728525Y-174077000D01*
X215986735Y-174077000D01*
X218272380Y-176362645D01*
X218257655Y-176384195D01*
X218233888Y-176493756D01*
X218234796Y-176498582D01*
X218127169Y-176518833D01*
X218099212Y-176537374D01*
X216995258Y-175433421D01*
X216872951Y-175351697D01*
X216728679Y-175323000D01*
X214728525Y-175323000D01*
X214589693Y-175115223D01*
X214321395Y-174935952D01*
X214004916Y-174873000D01*
X212545084Y-174873000D01*
X212228605Y-174935952D01*
X211960307Y-175115223D01*
X211781036Y-175383521D01*
X211718084Y-175700000D01*
X211781036Y-176016479D01*
X211960307Y-176284777D01*
X212228605Y-176464048D01*
X212545084Y-176527000D01*
X214004916Y-176527000D01*
X214321395Y-176464048D01*
X214589693Y-176284777D01*
X214728525Y-176077000D01*
X216572521Y-176077000D01*
X217565273Y-177069752D01*
X217550548Y-177091302D01*
X217526781Y-177200863D01*
X217527689Y-177205689D01*
X217420063Y-177225940D01*
X217326633Y-177287903D01*
X216902369Y-177712167D01*
X216843442Y-177798409D01*
X216819675Y-177907970D01*
X216840406Y-178018147D01*
X216902369Y-178111577D01*
X217998385Y-179207593D01*
X218084627Y-179266520D01*
X218194188Y-179290287D01*
X218304365Y-179269556D01*
X218375366Y-179222468D01*
X218480932Y-179243466D01*
X218585308Y-179243466D01*
X218758421Y-179416580D01*
X218831076Y-179465126D01*
X218880728Y-179498303D01*
X219025000Y-179527000D01*
X221000000Y-179527000D01*
X221144272Y-179498303D01*
X221266579Y-179416579D01*
X223366579Y-177316580D01*
X223448303Y-177194272D01*
X223452472Y-177173312D01*
X223477000Y-177050000D01*
X223477000Y-176316980D01*
X223713966Y-176316980D01*
X223734697Y-176427157D01*
X223796660Y-176520587D01*
X225069452Y-177793379D01*
X225155694Y-177852306D01*
X225265255Y-177876073D01*
X225375432Y-177855342D01*
X225468862Y-177793379D01*
X226317390Y-176944851D01*
X226376317Y-176858609D01*
X226400084Y-176749048D01*
X226379353Y-176638871D01*
X226317390Y-176545441D01*
X225044598Y-175272649D01*
X224958356Y-175213722D01*
X224848795Y-175189955D01*
X224738618Y-175210686D01*
X224645188Y-175272649D01*
X223796660Y-176121177D01*
X223737733Y-176207419D01*
X223713966Y-176316980D01*
X223477000Y-176316980D01*
X223477000Y-175856158D01*
X225010878Y-174322280D01*
X225011889Y-174327650D01*
X225072555Y-174421927D01*
X225165120Y-174485175D01*
X225275000Y-174507426D01*
X226275000Y-174507426D01*
X226377650Y-174488111D01*
X226471927Y-174427445D01*
X226535175Y-174334880D01*
X226557426Y-174225000D01*
X226557426Y-173225000D01*
X226538111Y-173122350D01*
X226507700Y-173075090D01*
X226535175Y-173034880D01*
X226557426Y-172925000D01*
X226557426Y-171925000D01*
X226538111Y-171822350D01*
X226477445Y-171728073D01*
X226384880Y-171664825D01*
X226275000Y-171642574D01*
X225275000Y-171642574D01*
X225172350Y-171661889D01*
X225078073Y-171722555D01*
X225014825Y-171815120D01*
X224992574Y-171925000D01*
X224992574Y-172498000D01*
X222657426Y-172498000D01*
X222657426Y-172375000D01*
X222638111Y-172272350D01*
X222577445Y-172178073D01*
X222484880Y-172114825D01*
X222375000Y-172092574D01*
X222252000Y-172092574D01*
X222252000Y-171161158D01*
X222305732Y-171107426D01*
X222575000Y-171107426D01*
X222677650Y-171088111D01*
X222771927Y-171027445D01*
X222835175Y-170934880D01*
X222857426Y-170825000D01*
X222857426Y-170375000D01*
X222838111Y-170272350D01*
X222777445Y-170178073D01*
X222684880Y-170114825D01*
X222575000Y-170092574D01*
X221985000Y-170092574D01*
X221882350Y-170111889D01*
X221788073Y-170172555D01*
X221724825Y-170265120D01*
X221702574Y-170375000D01*
X221702574Y-170644268D01*
X221608421Y-170738421D01*
X221526697Y-170860728D01*
X221498000Y-171005000D01*
X221498000Y-172092574D01*
X221375000Y-172092574D01*
X221272350Y-172111889D01*
X221225090Y-172142300D01*
X221184880Y-172114825D01*
X221075000Y-172092574D01*
X220075000Y-172092574D01*
X219972350Y-172111889D01*
X219878073Y-172172555D01*
X219814825Y-172265120D01*
X219792574Y-172375000D01*
X219792574Y-172498000D01*
X219100000Y-172498000D01*
X218955728Y-172526697D01*
X218929511Y-172544215D01*
X218833421Y-172608420D01*
X217993804Y-173448038D01*
X217835731Y-173447900D01*
X217623583Y-173535558D01*
X217461129Y-173697729D01*
X217373100Y-173909724D01*
X217372900Y-174139269D01*
X217460558Y-174351417D01*
X217622729Y-174513871D01*
X217834724Y-174601900D01*
X218064269Y-174602100D01*
X218276417Y-174514442D01*
X218438871Y-174352271D01*
X218526900Y-174140276D01*
X218527039Y-173981120D01*
X219256159Y-173252000D01*
X219792574Y-173252000D01*
X219792574Y-173375000D01*
X219811889Y-173477650D01*
X219872555Y-173571927D01*
X219965120Y-173635175D01*
X220075000Y-173657426D01*
X220602783Y-173657426D01*
X220602783Y-173737644D01*
X221397748Y-174532609D01*
X221856837Y-174073520D01*
X221856837Y-173849013D01*
X221665250Y-173657426D01*
X222375000Y-173657426D01*
X222477650Y-173638111D01*
X222571927Y-173577445D01*
X222635175Y-173484880D01*
X222657426Y-173375000D01*
X222657426Y-173252000D01*
X224992574Y-173252000D01*
X224992574Y-173364395D01*
X224930728Y-173376697D01*
X224808421Y-173458421D01*
X222833421Y-175433421D01*
X222751697Y-175555728D01*
X222723000Y-175700000D01*
X222723000Y-176893841D01*
X220843842Y-178773000D01*
X219181159Y-178773000D01*
X219008045Y-178599887D01*
X218965080Y-178571178D01*
X219011471Y-178562449D01*
X219104901Y-178500486D01*
X219529165Y-178076222D01*
X219588092Y-177989980D01*
X219611859Y-177880419D01*
X219610951Y-177875593D01*
X219718578Y-177855342D01*
X219812008Y-177793379D01*
X220236272Y-177369115D01*
X220295199Y-177282873D01*
X220318966Y-177173312D01*
X220318058Y-177168486D01*
X220425685Y-177148235D01*
X220519115Y-177086272D01*
X220943379Y-176662008D01*
X221002306Y-176575766D01*
X221026073Y-176466205D01*
X221025165Y-176461379D01*
X221132792Y-176441128D01*
X221226222Y-176379165D01*
X221530041Y-176075346D01*
X221607315Y-176107354D01*
X221859933Y-176107353D01*
X222093323Y-176010681D01*
X222192713Y-175911290D01*
X222192713Y-175686784D01*
X221397748Y-174891819D01*
X221383606Y-174905962D01*
X221204001Y-174726357D01*
X221218143Y-174712214D01*
X221577353Y-174712214D01*
X222372318Y-175507179D01*
X222596824Y-175507179D01*
X222696215Y-175407789D01*
X222792887Y-175174399D01*
X222792888Y-174921781D01*
X222696215Y-174688392D01*
X222517587Y-174509763D01*
X222260949Y-174253125D01*
X222036442Y-174253125D01*
X221577353Y-174712214D01*
X221218143Y-174712214D01*
X220423178Y-173917249D01*
X220198672Y-173917249D01*
X220099281Y-174016639D01*
X220002609Y-174250029D01*
X220002608Y-174502647D01*
X220034615Y-174579920D01*
X219730796Y-174883739D01*
X219671869Y-174969981D01*
X219665472Y-174999470D01*
X219183001Y-174516999D01*
X219182998Y-174516997D01*
X219102271Y-174436129D01*
X218890276Y-174348100D01*
X218775003Y-174348000D01*
X218775000Y-174347999D01*
X218774997Y-174348000D01*
X218660731Y-174347900D01*
X218448583Y-174435558D01*
X218367002Y-174516997D01*
X218366999Y-174516999D01*
X218366997Y-174517002D01*
X218286129Y-174597729D01*
X218198100Y-174809724D01*
X218198000Y-174924997D01*
X218197999Y-174925000D01*
X218198000Y-174925003D01*
X218197900Y-175039269D01*
X218285558Y-175251417D01*
X218366997Y-175332998D01*
X218366999Y-175333001D01*
X218367503Y-175333505D01*
X218447729Y-175413871D01*
X218447969Y-175413970D01*
X218843911Y-175809913D01*
X218834276Y-175811726D01*
X218806318Y-175830267D01*
X216409472Y-173433421D01*
X216287165Y-173351697D01*
X216142893Y-173323000D01*
X214728525Y-173323000D01*
X214589693Y-173115223D01*
X214321395Y-172935952D01*
X214004916Y-172873000D01*
X212545084Y-172873000D01*
X212228605Y-172935952D01*
X211960307Y-173115223D01*
X211781036Y-173383521D01*
X211718084Y-173700000D01*
X199431916Y-173700000D01*
X199368964Y-173383521D01*
X199189693Y-173115223D01*
X198921395Y-172935952D01*
X198604916Y-172873000D01*
X197145084Y-172873000D01*
X196828605Y-172935952D01*
X196560307Y-173115223D01*
X196381036Y-173383521D01*
X196318084Y-173700000D01*
X192383159Y-173700000D01*
X191991579Y-173308421D01*
X191869272Y-173226697D01*
X191725000Y-173198000D01*
X191717937Y-173198000D01*
X191713111Y-173172350D01*
X191652445Y-173078073D01*
X191559880Y-173014825D01*
X191450000Y-172992574D01*
X190750000Y-172992574D01*
X190647350Y-173011889D01*
X190553073Y-173072555D01*
X190499421Y-173151076D01*
X190452445Y-173078073D01*
X190359880Y-173014825D01*
X190250000Y-172992574D01*
X189550000Y-172992574D01*
X189447350Y-173011889D01*
X189353073Y-173072555D01*
X189289825Y-173165120D01*
X189283167Y-173198000D01*
X189267937Y-173198000D01*
X189263111Y-173172350D01*
X189202445Y-173078073D01*
X189109880Y-173014825D01*
X189027000Y-172998042D01*
X189027000Y-171439269D01*
X193672900Y-171439269D01*
X193760558Y-171651417D01*
X193922729Y-171813871D01*
X194134724Y-171901900D01*
X194364269Y-171902100D01*
X194576417Y-171814442D01*
X194603506Y-171787400D01*
X194782685Y-171966579D01*
X194904992Y-172048303D01*
X195049264Y-172077000D01*
X196421475Y-172077000D01*
X196560307Y-172284777D01*
X196828605Y-172464048D01*
X197145084Y-172527000D01*
X198604916Y-172527000D01*
X198921395Y-172464048D01*
X199189693Y-172284777D01*
X199368964Y-172016479D01*
X199431916Y-171700000D01*
X211718084Y-171700000D01*
X211781036Y-172016479D01*
X211960307Y-172284777D01*
X212228605Y-172464048D01*
X212545084Y-172527000D01*
X214004916Y-172527000D01*
X214321395Y-172464048D01*
X214589693Y-172284777D01*
X214768964Y-172016479D01*
X214831916Y-171700000D01*
X214768964Y-171383521D01*
X214589693Y-171115223D01*
X214321395Y-170935952D01*
X214004916Y-170873000D01*
X212545084Y-170873000D01*
X212228605Y-170935952D01*
X211960307Y-171115223D01*
X211781036Y-171383521D01*
X211718084Y-171700000D01*
X199431916Y-171700000D01*
X199368964Y-171383521D01*
X199189693Y-171115223D01*
X198921395Y-170935952D01*
X198604916Y-170873000D01*
X197145084Y-170873000D01*
X196828605Y-170935952D01*
X196560307Y-171115223D01*
X196421475Y-171323000D01*
X195205422Y-171323000D01*
X194940843Y-171058421D01*
X194818536Y-170976697D01*
X194692585Y-170951644D01*
X194577271Y-170836129D01*
X194365276Y-170748100D01*
X194135731Y-170747900D01*
X193923583Y-170835558D01*
X193761129Y-170997729D01*
X193673100Y-171209724D01*
X193672900Y-171439269D01*
X189027000Y-171439269D01*
X189027000Y-171156158D01*
X190535879Y-169647280D01*
X190536889Y-169652650D01*
X190567300Y-169699910D01*
X190539825Y-169740120D01*
X190517574Y-169850000D01*
X190517574Y-170850000D01*
X190536889Y-170952650D01*
X190597555Y-171046927D01*
X190690120Y-171110175D01*
X190800000Y-171132426D01*
X191800000Y-171132426D01*
X191902650Y-171113111D01*
X191996927Y-171052445D01*
X192060175Y-170959880D01*
X192082426Y-170850000D01*
X192082426Y-170710605D01*
X192144272Y-170698303D01*
X192266579Y-170616579D01*
X192806158Y-170077000D01*
X196421475Y-170077000D01*
X196560307Y-170284777D01*
X196828605Y-170464048D01*
X197145084Y-170527000D01*
X198604916Y-170527000D01*
X198921395Y-170464048D01*
X199189693Y-170284777D01*
X199368964Y-170016479D01*
X199431916Y-169700000D01*
X199368964Y-169383521D01*
X199189693Y-169115223D01*
X198921395Y-168935952D01*
X198604916Y-168873000D01*
X197145084Y-168873000D01*
X196828605Y-168935952D01*
X196560307Y-169115223D01*
X196421475Y-169323000D01*
X192650000Y-169323000D01*
X192505728Y-169351697D01*
X192383421Y-169433421D01*
X192064122Y-169752720D01*
X192063111Y-169747350D01*
X192032700Y-169700090D01*
X192060175Y-169659880D01*
X192082426Y-169550000D01*
X192082426Y-168550000D01*
X192063111Y-168447350D01*
X192002445Y-168353073D01*
X191909880Y-168289825D01*
X191800000Y-168267574D01*
X190800000Y-168267574D01*
X190697350Y-168286889D01*
X190603073Y-168347555D01*
X190539825Y-168440120D01*
X190517574Y-168550000D01*
X190517574Y-168689395D01*
X190464260Y-168700000D01*
X190455728Y-168701697D01*
X190333420Y-168783421D01*
X188383421Y-170733421D01*
X188301697Y-170855728D01*
X188273000Y-171000000D01*
X188273000Y-171829951D01*
X184834746Y-168391698D01*
X184834746Y-166462430D01*
X184815431Y-166359780D01*
X184754765Y-166265503D01*
X184662200Y-166202255D01*
X184552320Y-166180004D01*
X182952320Y-166180004D01*
X182849670Y-166199319D01*
X182755393Y-166259985D01*
X182692145Y-166352550D01*
X182669894Y-166462430D01*
X177949806Y-166462430D01*
X177912398Y-166325646D01*
X177674936Y-165303608D01*
X177667386Y-165264269D01*
X188572900Y-165264269D01*
X188660558Y-165476417D01*
X188822729Y-165638871D01*
X189034724Y-165726900D01*
X189264269Y-165727100D01*
X189476417Y-165639442D01*
X189638871Y-165477271D01*
X189726900Y-165265276D01*
X189727100Y-165035731D01*
X189639442Y-164823583D01*
X189527000Y-164710945D01*
X189527000Y-164507426D01*
X189650000Y-164507426D01*
X189752650Y-164488111D01*
X189846927Y-164427445D01*
X189900579Y-164348924D01*
X189947555Y-164421927D01*
X190040120Y-164485175D01*
X190150000Y-164507426D01*
X190599268Y-164507426D01*
X192998000Y-166906158D01*
X192998000Y-168036053D01*
X192886129Y-168147729D01*
X192798100Y-168359724D01*
X192797900Y-168589269D01*
X192885558Y-168801417D01*
X193047729Y-168963871D01*
X193259724Y-169051900D01*
X193489269Y-169052100D01*
X193701417Y-168964442D01*
X193863871Y-168802271D01*
X193951900Y-168590276D01*
X193952100Y-168360731D01*
X193864442Y-168148583D01*
X193752000Y-168035945D01*
X193752000Y-167700000D01*
X196318084Y-167700000D01*
X196381036Y-168016479D01*
X196560307Y-168284777D01*
X196828605Y-168464048D01*
X197145084Y-168527000D01*
X198604916Y-168527000D01*
X198921395Y-168464048D01*
X199189693Y-168284777D01*
X199328525Y-168077000D01*
X201761053Y-168077000D01*
X201872729Y-168188871D01*
X202084724Y-168276900D01*
X202314269Y-168277100D01*
X202526417Y-168189442D01*
X202688871Y-168027271D01*
X202776900Y-167815276D01*
X202777100Y-167585731D01*
X202689442Y-167373583D01*
X202527271Y-167211129D01*
X202315276Y-167123100D01*
X202085731Y-167122900D01*
X201873583Y-167210558D01*
X201760945Y-167323000D01*
X199328525Y-167323000D01*
X199189693Y-167115223D01*
X198921395Y-166935952D01*
X198604916Y-166873000D01*
X197145084Y-166873000D01*
X196828605Y-166935952D01*
X196560307Y-167115223D01*
X196381036Y-167383521D01*
X196318084Y-167700000D01*
X193752000Y-167700000D01*
X193752000Y-166750000D01*
X193723303Y-166605728D01*
X193641579Y-166483421D01*
X192858158Y-165700000D01*
X196318084Y-165700000D01*
X196381036Y-166016479D01*
X196560307Y-166284777D01*
X196828605Y-166464048D01*
X197145084Y-166527000D01*
X198604916Y-166527000D01*
X198921395Y-166464048D01*
X199189693Y-166284777D01*
X199328525Y-166077000D01*
X200372932Y-166077000D01*
X200372900Y-166114269D01*
X200460558Y-166326417D01*
X200622729Y-166488871D01*
X200834724Y-166576900D01*
X201064269Y-166577100D01*
X201276417Y-166489442D01*
X201438871Y-166327271D01*
X201526900Y-166115276D01*
X201527096Y-165889269D01*
X206972900Y-165889269D01*
X207060558Y-166101417D01*
X207222729Y-166263871D01*
X207434724Y-166351900D01*
X207593881Y-166352039D01*
X211208421Y-169966579D01*
X211330728Y-170048303D01*
X211475000Y-170077000D01*
X211821475Y-170077000D01*
X211960307Y-170284777D01*
X212228605Y-170464048D01*
X212545084Y-170527000D01*
X214004916Y-170527000D01*
X214321395Y-170464048D01*
X214589693Y-170284777D01*
X214768964Y-170016479D01*
X214831916Y-169700000D01*
X214768964Y-169383521D01*
X214589693Y-169115223D01*
X214321395Y-168935952D01*
X214004916Y-168873000D01*
X212545084Y-168873000D01*
X212228605Y-168935952D01*
X211960307Y-169115223D01*
X211821475Y-169323000D01*
X211631158Y-169323000D01*
X208126962Y-165818804D01*
X208127065Y-165700000D01*
X211718084Y-165700000D01*
X211781036Y-166016479D01*
X211960307Y-166284777D01*
X212228605Y-166464048D01*
X212545084Y-166527000D01*
X214004916Y-166527000D01*
X214321395Y-166464048D01*
X214589693Y-166284777D01*
X214768964Y-166016479D01*
X214831916Y-165700000D01*
X214822368Y-165651999D01*
X220517574Y-165651999D01*
X220517574Y-166125000D01*
X220536889Y-166227650D01*
X220597555Y-166321927D01*
X220673000Y-166373477D01*
X220673000Y-166525000D01*
X220709309Y-166707540D01*
X220812710Y-166862290D01*
X221222915Y-167272495D01*
X221222900Y-167289269D01*
X221310558Y-167501417D01*
X221472729Y-167663871D01*
X221684724Y-167751900D01*
X221702335Y-167751915D01*
X221830394Y-167879974D01*
X221803073Y-167897555D01*
X221749421Y-167976076D01*
X221702445Y-167903073D01*
X221609880Y-167839825D01*
X221500000Y-167817574D01*
X220800000Y-167817574D01*
X220697350Y-167836889D01*
X220603073Y-167897555D01*
X220539825Y-167990120D01*
X220517574Y-168100000D01*
X220517574Y-168700000D01*
X220536889Y-168802650D01*
X220597555Y-168896927D01*
X220690120Y-168960175D01*
X220773000Y-168976958D01*
X220773000Y-169533842D01*
X220214268Y-170092574D01*
X219875000Y-170092574D01*
X219772350Y-170111889D01*
X219740526Y-170132368D01*
X217041579Y-167433421D01*
X216919272Y-167351697D01*
X216775000Y-167323000D01*
X214728525Y-167323000D01*
X214589693Y-167115223D01*
X214321395Y-166935952D01*
X214004916Y-166873000D01*
X212545084Y-166873000D01*
X212228605Y-166935952D01*
X211960307Y-167115223D01*
X211781036Y-167383521D01*
X211718084Y-167700000D01*
X211781036Y-168016479D01*
X211960307Y-168284777D01*
X212228605Y-168464048D01*
X212545084Y-168527000D01*
X214004916Y-168527000D01*
X214321395Y-168464048D01*
X214589693Y-168284777D01*
X214728525Y-168077000D01*
X216618842Y-168077000D01*
X219408421Y-170866579D01*
X219530728Y-170948303D01*
X219639043Y-170969848D01*
X219672555Y-171021927D01*
X219765120Y-171085175D01*
X219875000Y-171107426D01*
X220465000Y-171107426D01*
X220567650Y-171088111D01*
X220661927Y-171027445D01*
X220725175Y-170934880D01*
X220747426Y-170825000D01*
X220747426Y-170625732D01*
X221306158Y-170067000D01*
X223033842Y-170067000D01*
X223358421Y-170391579D01*
X223480728Y-170473303D01*
X223625000Y-170502000D01*
X227197654Y-170502000D01*
X227211889Y-170577650D01*
X227272555Y-170671927D01*
X227351076Y-170725579D01*
X227278073Y-170772555D01*
X227214825Y-170865120D01*
X227192574Y-170975000D01*
X227192574Y-171675000D01*
X227211889Y-171777650D01*
X227272555Y-171871927D01*
X227365120Y-171935175D01*
X227475000Y-171957426D01*
X228075000Y-171957426D01*
X228177650Y-171938111D01*
X228271927Y-171877445D01*
X228335175Y-171784880D01*
X228357426Y-171675000D01*
X228357426Y-170975000D01*
X228338111Y-170872350D01*
X228277445Y-170778073D01*
X228198924Y-170724421D01*
X228271927Y-170677445D01*
X228335175Y-170584880D01*
X228357426Y-170475000D01*
X228357426Y-169775000D01*
X228338111Y-169672350D01*
X228277445Y-169578073D01*
X228184880Y-169514825D01*
X228129320Y-169503574D01*
X228129320Y-167749856D01*
X228552320Y-167749856D01*
X228654970Y-167730541D01*
X228749247Y-167669875D01*
X228812495Y-167577310D01*
X228834746Y-167467430D01*
X228834746Y-165287430D01*
X228815431Y-165184780D01*
X228754765Y-165090503D01*
X228662200Y-165027255D01*
X228552320Y-165005004D01*
X226952320Y-165005004D01*
X226849670Y-165024319D01*
X226755393Y-165084985D01*
X226692145Y-165177550D01*
X226669894Y-165287430D01*
X226669894Y-167467430D01*
X226689209Y-167570080D01*
X226749875Y-167664357D01*
X226842440Y-167727605D01*
X226952320Y-167749856D01*
X227375320Y-167749856D01*
X227375320Y-169511330D01*
X227372350Y-169511889D01*
X227278073Y-169572555D01*
X227214825Y-169665120D01*
X227198042Y-169748000D01*
X223781158Y-169748000D01*
X223456579Y-169423421D01*
X223334272Y-169341697D01*
X223190000Y-169313000D01*
X221527000Y-169313000D01*
X221527000Y-168977346D01*
X221602650Y-168963111D01*
X221696927Y-168902445D01*
X221750579Y-168823924D01*
X221797555Y-168896927D01*
X221890120Y-168960175D01*
X222000000Y-168982426D01*
X222700000Y-168982426D01*
X222802650Y-168963111D01*
X222896927Y-168902445D01*
X222960175Y-168809880D01*
X222982426Y-168700000D01*
X222982426Y-168100000D01*
X222963111Y-167997350D01*
X222902445Y-167903073D01*
X222827000Y-167851523D01*
X222827000Y-167700000D01*
X222790691Y-167517460D01*
X222687290Y-167362710D01*
X222611948Y-167312368D01*
X222377085Y-167077505D01*
X222377100Y-167060731D01*
X222289442Y-166848583D01*
X222127271Y-166686129D01*
X221915276Y-166598100D01*
X221897665Y-166598085D01*
X221654394Y-166354814D01*
X221696927Y-166327445D01*
X221750579Y-166248924D01*
X221797555Y-166321927D01*
X221890120Y-166385175D01*
X222000000Y-166407426D01*
X222700000Y-166407426D01*
X222802650Y-166388111D01*
X222896927Y-166327445D01*
X222960175Y-166234880D01*
X222982426Y-166125000D01*
X222982426Y-165525000D01*
X222963111Y-165422350D01*
X222902445Y-165328073D01*
X222809880Y-165264825D01*
X222700000Y-165242574D01*
X222250732Y-165242574D01*
X222016578Y-165008420D01*
X221894271Y-164926696D01*
X221749999Y-164897999D01*
X214130594Y-164897999D01*
X214004916Y-164873000D01*
X212545084Y-164873000D01*
X212228605Y-164935952D01*
X211960307Y-165115223D01*
X211781036Y-165383521D01*
X211718084Y-165700000D01*
X208127065Y-165700000D01*
X208127100Y-165660731D01*
X208039442Y-165448583D01*
X207877271Y-165286129D01*
X207665276Y-165198100D01*
X207435731Y-165197900D01*
X207223583Y-165285558D01*
X207061129Y-165447729D01*
X206973100Y-165659724D01*
X206972900Y-165889269D01*
X201527096Y-165889269D01*
X201527100Y-165885731D01*
X201439442Y-165673583D01*
X201277271Y-165511129D01*
X201065276Y-165423100D01*
X200900918Y-165422957D01*
X200794272Y-165351697D01*
X200650000Y-165323000D01*
X199328525Y-165323000D01*
X199189693Y-165115223D01*
X198921395Y-164935952D01*
X198604916Y-164873000D01*
X197145084Y-164873000D01*
X196828605Y-164935952D01*
X196560307Y-165115223D01*
X196381036Y-165383521D01*
X196318084Y-165700000D01*
X192858158Y-165700000D01*
X191132426Y-163974268D01*
X191132426Y-163700000D01*
X196318084Y-163700000D01*
X196381036Y-164016479D01*
X196560307Y-164284777D01*
X196828605Y-164464048D01*
X197145084Y-164527000D01*
X198604916Y-164527000D01*
X198921395Y-164464048D01*
X199189693Y-164284777D01*
X199368964Y-164016479D01*
X199431916Y-163700000D01*
X199368964Y-163383521D01*
X199189693Y-163115223D01*
X198921395Y-162935952D01*
X198604916Y-162873000D01*
X197145084Y-162873000D01*
X196828605Y-162935952D01*
X196560307Y-163115223D01*
X196381036Y-163383521D01*
X196318084Y-163700000D01*
X191132426Y-163700000D01*
X191132426Y-163625000D01*
X191113111Y-163522350D01*
X191052445Y-163428073D01*
X190959880Y-163364825D01*
X190850000Y-163342574D01*
X190150000Y-163342574D01*
X190047350Y-163361889D01*
X189953073Y-163422555D01*
X189899421Y-163501076D01*
X189852445Y-163428073D01*
X189759880Y-163364825D01*
X189677000Y-163348042D01*
X189677000Y-160656878D01*
X190667474Y-159666404D01*
X190667474Y-160850410D01*
X190686789Y-160953060D01*
X190747455Y-161047337D01*
X190840020Y-161110585D01*
X190949900Y-161132836D01*
X192550100Y-161132836D01*
X192652750Y-161113521D01*
X192747027Y-161052855D01*
X192810275Y-160960290D01*
X192832526Y-160850410D01*
X192832526Y-159627820D01*
X192911098Y-159627820D01*
X195391277Y-162107998D01*
X195391279Y-162108001D01*
X195578472Y-162233078D01*
X195799280Y-162277000D01*
X196555111Y-162277000D01*
X196560307Y-162284777D01*
X196828605Y-162464048D01*
X197145084Y-162527000D01*
X198604916Y-162527000D01*
X198921395Y-162464048D01*
X199189693Y-162284777D01*
X199368964Y-162016479D01*
X199370303Y-162009744D01*
X211431197Y-162009744D01*
X211431602Y-162036146D01*
X211647276Y-162448118D01*
X212004187Y-162746196D01*
X212423414Y-162877311D01*
X212128605Y-162935952D01*
X211860307Y-163115223D01*
X211681036Y-163383521D01*
X211618084Y-163700000D01*
X211681036Y-164016479D01*
X211860307Y-164284777D01*
X212128605Y-164464048D01*
X212445084Y-164527000D01*
X213904916Y-164527000D01*
X214221395Y-164464048D01*
X214489693Y-164284777D01*
X214661934Y-164027000D01*
X220532063Y-164027000D01*
X220536889Y-164052650D01*
X220597555Y-164146927D01*
X220690120Y-164210175D01*
X220800000Y-164232426D01*
X221429665Y-164232426D01*
X221461673Y-164309699D01*
X221640302Y-164488327D01*
X221873691Y-164585000D01*
X222064250Y-164585000D01*
X222223000Y-164426250D01*
X222223000Y-163777000D01*
X222477000Y-163777000D01*
X222477000Y-164426250D01*
X222635750Y-164585000D01*
X222826309Y-164585000D01*
X223059698Y-164488327D01*
X223238327Y-164309699D01*
X223335000Y-164076310D01*
X223335000Y-163935750D01*
X223176250Y-163777000D01*
X222477000Y-163777000D01*
X222223000Y-163777000D01*
X222203000Y-163777000D01*
X222203000Y-163523000D01*
X222223000Y-163523000D01*
X222223000Y-162873750D01*
X222477000Y-162873750D01*
X222477000Y-163523000D01*
X223176250Y-163523000D01*
X223335000Y-163364250D01*
X223335000Y-163223690D01*
X223238327Y-162990301D01*
X223059698Y-162811673D01*
X222826309Y-162715000D01*
X222635750Y-162715000D01*
X222477000Y-162873750D01*
X222223000Y-162873750D01*
X222064250Y-162715000D01*
X221873691Y-162715000D01*
X221640302Y-162811673D01*
X221461673Y-162990301D01*
X221429665Y-163067574D01*
X220800000Y-163067574D01*
X220697350Y-163086889D01*
X220603073Y-163147555D01*
X220539825Y-163240120D01*
X220533167Y-163273000D01*
X214595116Y-163273000D01*
X214489693Y-163115223D01*
X214221395Y-162935952D01*
X213965244Y-162885000D01*
X214102000Y-162885000D01*
X214545813Y-162746196D01*
X214902724Y-162448118D01*
X215118398Y-162036146D01*
X215118803Y-162009744D01*
X214993361Y-161827000D01*
X213402000Y-161827000D01*
X213402000Y-161847000D01*
X213148000Y-161847000D01*
X213148000Y-161827000D01*
X211556639Y-161827000D01*
X211431197Y-162009744D01*
X199370303Y-162009744D01*
X199431916Y-161700000D01*
X199368964Y-161383521D01*
X199189693Y-161115223D01*
X198921395Y-160935952D01*
X198604916Y-160873000D01*
X197145084Y-160873000D01*
X196828605Y-160935952D01*
X196560307Y-161115223D01*
X196555111Y-161123000D01*
X196038281Y-161123000D01*
X194186346Y-159271064D01*
X199738000Y-159271064D01*
X199738000Y-160628936D01*
X199800952Y-160945415D01*
X199980223Y-161213713D01*
X200248521Y-161392984D01*
X200565000Y-161455936D01*
X200881479Y-161392984D01*
X201149777Y-161213713D01*
X201329048Y-160945415D01*
X201392000Y-160628936D01*
X201392000Y-159271064D01*
X201738000Y-159271064D01*
X201738000Y-160628936D01*
X201800952Y-160945415D01*
X201980223Y-161213713D01*
X202248521Y-161392984D01*
X202565000Y-161455936D01*
X202881479Y-161392984D01*
X203149777Y-161213713D01*
X203329048Y-160945415D01*
X203392000Y-160628936D01*
X203392000Y-159271064D01*
X203738000Y-159271064D01*
X203738000Y-160628936D01*
X203800952Y-160945415D01*
X203980223Y-161213713D01*
X204248521Y-161392984D01*
X204565000Y-161455936D01*
X204881479Y-161392984D01*
X205149777Y-161213713D01*
X205329048Y-160945415D01*
X205392000Y-160628936D01*
X205392000Y-159271064D01*
X205738000Y-159271064D01*
X205738000Y-160628936D01*
X205800952Y-160945415D01*
X205980223Y-161213713D01*
X206248521Y-161392984D01*
X206565000Y-161455936D01*
X206881479Y-161392984D01*
X207149777Y-161213713D01*
X207329048Y-160945415D01*
X207392000Y-160628936D01*
X207392000Y-159271064D01*
X207738000Y-159271064D01*
X207738000Y-160628936D01*
X207800952Y-160945415D01*
X207980223Y-161213713D01*
X208248521Y-161392984D01*
X208565000Y-161455936D01*
X208881479Y-161392984D01*
X209149777Y-161213713D01*
X209329048Y-160945415D01*
X209392000Y-160628936D01*
X209392000Y-159271064D01*
X209738000Y-159271064D01*
X209738000Y-160628936D01*
X209800952Y-160945415D01*
X209980223Y-161213713D01*
X210248521Y-161392984D01*
X210565000Y-161455936D01*
X210881479Y-161392984D01*
X210885561Y-161390256D01*
X211431197Y-161390256D01*
X211556639Y-161573000D01*
X213148000Y-161573000D01*
X213148000Y-160515000D01*
X213402000Y-160515000D01*
X213402000Y-161573000D01*
X214993361Y-161573000D01*
X215118803Y-161390256D01*
X215118398Y-161363854D01*
X214902724Y-160951882D01*
X214545813Y-160653804D01*
X214102000Y-160515000D01*
X213402000Y-160515000D01*
X213148000Y-160515000D01*
X212448000Y-160515000D01*
X212004187Y-160653804D01*
X211647276Y-160951882D01*
X211431602Y-161363854D01*
X211431197Y-161390256D01*
X210885561Y-161390256D01*
X211149777Y-161213713D01*
X211329048Y-160945415D01*
X211392000Y-160628936D01*
X211392000Y-159271064D01*
X211329048Y-158954585D01*
X211149777Y-158686287D01*
X210881479Y-158507016D01*
X210565000Y-158444064D01*
X210248521Y-158507016D01*
X209980223Y-158686287D01*
X209800952Y-158954585D01*
X209738000Y-159271064D01*
X209392000Y-159271064D01*
X209329048Y-158954585D01*
X209149777Y-158686287D01*
X208881479Y-158507016D01*
X208565000Y-158444064D01*
X208248521Y-158507016D01*
X207980223Y-158686287D01*
X207800952Y-158954585D01*
X207738000Y-159271064D01*
X207392000Y-159271064D01*
X207329048Y-158954585D01*
X207149777Y-158686287D01*
X206881479Y-158507016D01*
X206565000Y-158444064D01*
X206248521Y-158507016D01*
X205980223Y-158686287D01*
X205800952Y-158954585D01*
X205738000Y-159271064D01*
X205392000Y-159271064D01*
X205329048Y-158954585D01*
X205149777Y-158686287D01*
X204881479Y-158507016D01*
X204565000Y-158444064D01*
X204248521Y-158507016D01*
X203980223Y-158686287D01*
X203800952Y-158954585D01*
X203738000Y-159271064D01*
X203392000Y-159271064D01*
X203329048Y-158954585D01*
X203149777Y-158686287D01*
X202881479Y-158507016D01*
X202565000Y-158444064D01*
X202248521Y-158507016D01*
X201980223Y-158686287D01*
X201800952Y-158954585D01*
X201738000Y-159271064D01*
X201392000Y-159271064D01*
X201329048Y-158954585D01*
X201149777Y-158686287D01*
X200881479Y-158507016D01*
X200565000Y-158444064D01*
X200248521Y-158507016D01*
X199980223Y-158686287D01*
X199800952Y-158954585D01*
X199738000Y-159271064D01*
X194186346Y-159271064D01*
X193558101Y-158642819D01*
X193370908Y-158517742D01*
X193150100Y-158473819D01*
X193150095Y-158473820D01*
X192832526Y-158473820D01*
X192832526Y-157784806D01*
X193159011Y-157458320D01*
X226312680Y-157458320D01*
X226312680Y-158388879D01*
X226409353Y-158622268D01*
X226587981Y-158800897D01*
X226821370Y-158897570D01*
X227461930Y-158897570D01*
X227620680Y-158738820D01*
X227620680Y-157299570D01*
X227874680Y-157299570D01*
X227874680Y-158738820D01*
X228033430Y-158897570D01*
X228673990Y-158897570D01*
X228907379Y-158800897D01*
X229086007Y-158622268D01*
X229182680Y-158388879D01*
X229182680Y-157458320D01*
X229023930Y-157299570D01*
X227874680Y-157299570D01*
X227620680Y-157299570D01*
X226471430Y-157299570D01*
X226312680Y-157458320D01*
X193159011Y-157458320D01*
X194112118Y-156505213D01*
X203549392Y-156505213D01*
X203618857Y-156747397D01*
X204142302Y-156934144D01*
X204697368Y-156906362D01*
X205081143Y-156747397D01*
X205150608Y-156505213D01*
X204350000Y-155704605D01*
X203549392Y-156505213D01*
X194112118Y-156505213D01*
X195300029Y-155317302D01*
X202940856Y-155317302D01*
X202968638Y-155872368D01*
X203127603Y-156256143D01*
X203369787Y-156325608D01*
X204170395Y-155525000D01*
X204529605Y-155525000D01*
X205330213Y-156325608D01*
X205572397Y-156256143D01*
X205679384Y-155956261D01*
X226312680Y-155956261D01*
X226312680Y-156886820D01*
X226471430Y-157045570D01*
X227620680Y-157045570D01*
X227620680Y-155606320D01*
X227874680Y-155606320D01*
X227874680Y-157045570D01*
X229023930Y-157045570D01*
X229182680Y-156886820D01*
X229182680Y-155956261D01*
X229086007Y-155722872D01*
X228907379Y-155544243D01*
X228673990Y-155447570D01*
X228033430Y-155447570D01*
X227874680Y-155606320D01*
X227620680Y-155606320D01*
X227461930Y-155447570D01*
X226821370Y-155447570D01*
X226587981Y-155544243D01*
X226409353Y-155722872D01*
X226312680Y-155956261D01*
X205679384Y-155956261D01*
X205759144Y-155732698D01*
X205731362Y-155177632D01*
X205572397Y-154793857D01*
X205330213Y-154724392D01*
X204529605Y-155525000D01*
X204170395Y-155525000D01*
X203369787Y-154724392D01*
X203127603Y-154793857D01*
X202940856Y-155317302D01*
X195300029Y-155317302D01*
X196072544Y-154544787D01*
X203549392Y-154544787D01*
X204350000Y-155345395D01*
X205150608Y-154544787D01*
X205081143Y-154302603D01*
X204557698Y-154115856D01*
X204002632Y-154143638D01*
X203618857Y-154302603D01*
X203549392Y-154544787D01*
X196072544Y-154544787D01*
X206565331Y-144052000D01*
X212617164Y-144052000D01*
X212617164Y-144275100D01*
X212636479Y-144377750D01*
X212697145Y-144472027D01*
X212789710Y-144535275D01*
X212899590Y-144557526D01*
X214122180Y-144557526D01*
X214122180Y-145224175D01*
X214122179Y-145224180D01*
X214166102Y-145444988D01*
X214291179Y-145632181D01*
X214402918Y-145743919D01*
X214402875Y-145792985D01*
X214512561Y-146058446D01*
X214715486Y-146261725D01*
X214980755Y-146371875D01*
X215267985Y-146372125D01*
X215533446Y-146262439D01*
X215736725Y-146059514D01*
X215846875Y-145794245D01*
X215847125Y-145507015D01*
X215737439Y-145241554D01*
X215534514Y-145038275D01*
X215276180Y-144931005D01*
X215276180Y-144557526D01*
X216498770Y-144557526D01*
X216601420Y-144538211D01*
X216695697Y-144477545D01*
X216758945Y-144384980D01*
X216781196Y-144275100D01*
X216781196Y-143760750D01*
X217766230Y-143760750D01*
X217766230Y-144401410D01*
X217862903Y-144634799D01*
X218041532Y-144813427D01*
X218274921Y-144910100D01*
X219915070Y-144910100D01*
X220073820Y-144751350D01*
X220073820Y-143602000D01*
X220327820Y-143602000D01*
X220327820Y-144751350D01*
X220486570Y-144910100D01*
X222126719Y-144910100D01*
X222360108Y-144813427D01*
X222538737Y-144634799D01*
X222635410Y-144401410D01*
X222635410Y-143760750D01*
X222476660Y-143602000D01*
X220327820Y-143602000D01*
X220073820Y-143602000D01*
X217924980Y-143602000D01*
X217766230Y-143760750D01*
X216781196Y-143760750D01*
X216781196Y-142674900D01*
X216761881Y-142572250D01*
X216746657Y-142548590D01*
X217766230Y-142548590D01*
X217766230Y-143189250D01*
X217924980Y-143348000D01*
X220073820Y-143348000D01*
X220073820Y-142198650D01*
X220327820Y-142198650D01*
X220327820Y-143348000D01*
X222476660Y-143348000D01*
X222635410Y-143189250D01*
X222635410Y-142548590D01*
X222538737Y-142315201D01*
X222360108Y-142136573D01*
X222126719Y-142039900D01*
X220486570Y-142039900D01*
X220327820Y-142198650D01*
X220073820Y-142198650D01*
X219915070Y-142039900D01*
X218274921Y-142039900D01*
X218041532Y-142136573D01*
X217862903Y-142315201D01*
X217766230Y-142548590D01*
X216746657Y-142548590D01*
X216701215Y-142477973D01*
X216608650Y-142414725D01*
X216498770Y-142392474D01*
X212899590Y-142392474D01*
X212796940Y-142411789D01*
X212702663Y-142472455D01*
X212639415Y-142565020D01*
X212617164Y-142674900D01*
X212617164Y-142898000D01*
X206326335Y-142898000D01*
X206326330Y-142897999D01*
X206105522Y-142941922D01*
X205918329Y-143066999D01*
X205918327Y-143067002D01*
X192016524Y-156968804D01*
X190949900Y-156968804D01*
X190847250Y-156988119D01*
X190752973Y-157048785D01*
X190689725Y-157141350D01*
X190667474Y-157251230D01*
X190667474Y-158690215D01*
X190605628Y-158702517D01*
X190483321Y-158784241D01*
X189033421Y-160234141D01*
X188951697Y-160356448D01*
X188923000Y-160500720D01*
X188923000Y-163347654D01*
X188847350Y-163361889D01*
X188753073Y-163422555D01*
X188689825Y-163515120D01*
X188667574Y-163625000D01*
X188667574Y-164225000D01*
X188686889Y-164327650D01*
X188747555Y-164421927D01*
X188773000Y-164439313D01*
X188773000Y-164711053D01*
X188661129Y-164822729D01*
X188573100Y-165034724D01*
X188572900Y-165264269D01*
X177667386Y-165264269D01*
X177479304Y-164284327D01*
X177322054Y-163250638D01*
X177130962Y-161226378D01*
X177074818Y-158869984D01*
X177085536Y-158633320D01*
X182312680Y-158633320D01*
X182312680Y-159563879D01*
X182409353Y-159797268D01*
X182587981Y-159975897D01*
X182821370Y-160072570D01*
X183461930Y-160072570D01*
X183620680Y-159913820D01*
X183620680Y-158474570D01*
X183874680Y-158474570D01*
X183874680Y-159913820D01*
X184033430Y-160072570D01*
X184673990Y-160072570D01*
X184907379Y-159975897D01*
X185086007Y-159797268D01*
X185182680Y-159563879D01*
X185182680Y-158633320D01*
X185023930Y-158474570D01*
X183874680Y-158474570D01*
X183620680Y-158474570D01*
X182471430Y-158474570D01*
X182312680Y-158633320D01*
X177085536Y-158633320D01*
X177153565Y-157131261D01*
X182312680Y-157131261D01*
X182312680Y-158061820D01*
X182471430Y-158220570D01*
X183620680Y-158220570D01*
X183620680Y-156781320D01*
X183874680Y-156781320D01*
X183874680Y-158220570D01*
X185023930Y-158220570D01*
X185182680Y-158061820D01*
X185182680Y-157131261D01*
X185086007Y-156897872D01*
X184907379Y-156719243D01*
X184673990Y-156622570D01*
X184033430Y-156622570D01*
X183874680Y-156781320D01*
X183620680Y-156781320D01*
X183461930Y-156622570D01*
X182821370Y-156622570D01*
X182587981Y-156719243D01*
X182409353Y-156897872D01*
X182312680Y-157131261D01*
X177153565Y-157131261D01*
X177175662Y-156643395D01*
X177425119Y-154533846D01*
X177561688Y-153834930D01*
X190314900Y-153834930D01*
X190314900Y-155475079D01*
X190411573Y-155708468D01*
X190590201Y-155887097D01*
X190823590Y-155983770D01*
X191464250Y-155983770D01*
X191623000Y-155825020D01*
X191623000Y-153676180D01*
X191877000Y-153676180D01*
X191877000Y-155825020D01*
X192035750Y-155983770D01*
X192676410Y-155983770D01*
X192909799Y-155887097D01*
X193088427Y-155708468D01*
X193185100Y-155475079D01*
X193185100Y-153834930D01*
X193026350Y-153676180D01*
X191877000Y-153676180D01*
X191623000Y-153676180D01*
X190473650Y-153676180D01*
X190314900Y-153834930D01*
X177561688Y-153834930D01*
X177817063Y-152528012D01*
X178067789Y-151623281D01*
X190314900Y-151623281D01*
X190314900Y-153263430D01*
X190473650Y-153422180D01*
X191623000Y-153422180D01*
X191623000Y-151273340D01*
X191877000Y-151273340D01*
X191877000Y-153422180D01*
X193026350Y-153422180D01*
X193185100Y-153263430D01*
X193185100Y-151623281D01*
X193088427Y-151389892D01*
X192909799Y-151211263D01*
X192676410Y-151114590D01*
X192035750Y-151114590D01*
X191877000Y-151273340D01*
X191623000Y-151273340D01*
X191464250Y-151114590D01*
X190823590Y-151114590D01*
X190590201Y-151211263D01*
X190411573Y-151389892D01*
X190314900Y-151623281D01*
X178067789Y-151623281D01*
X178347790Y-150612915D01*
X179016289Y-148775704D01*
X179824410Y-147003694D01*
X180777271Y-145284002D01*
X181883789Y-143603105D01*
X183157703Y-141945893D01*
X184619612Y-140293915D01*
X186301428Y-138621437D01*
X188197586Y-136936750D01*
X188234869Y-136887507D01*
X188272757Y-136838769D01*
X188273319Y-136836722D01*
X188274602Y-136835028D01*
X188290194Y-136775297D01*
X188306555Y-136715739D01*
X188391089Y-135539560D01*
X188389327Y-135525493D01*
X188391898Y-135511554D01*
X188368704Y-133850330D01*
X188367813Y-133846156D01*
X188368479Y-133841940D01*
X188252614Y-130919709D01*
X188265365Y-129991468D01*
X188337467Y-129144614D01*
X188466896Y-128477060D01*
X188559941Y-128191590D01*
X188642302Y-128036034D01*
X188712015Y-127954036D01*
X188995399Y-127781750D01*
X189027624Y-127769542D01*
X189062114Y-127747992D01*
X189099345Y-127731608D01*
X189115732Y-127714489D01*
X189135827Y-127701933D01*
X189159445Y-127668823D01*
X189187571Y-127639441D01*
X189196159Y-127617354D01*
X189209921Y-127598062D01*
X189219071Y-127558431D01*
X189233811Y-127520525D01*
X189233293Y-127496835D01*
X189238625Y-127473743D01*
X189231912Y-127433626D01*
X189231024Y-127392965D01*
X189221480Y-127371276D01*
X189217569Y-127347904D01*
X189196015Y-127313409D01*
X189179634Y-127276184D01*
X188500417Y-126306224D01*
X187852874Y-125108230D01*
X187252022Y-123665247D01*
X186730460Y-122001337D01*
X186320880Y-120163709D01*
X186168423Y-119207708D01*
X186053615Y-118235085D01*
X185978932Y-117263483D01*
X185944602Y-116289920D01*
X185951255Y-115346409D01*
X185998668Y-114411491D01*
X186083481Y-113528594D01*
X186207909Y-112662834D01*
X186363356Y-111862241D01*
X186556198Y-111084956D01*
X186567454Y-111048191D01*
X203222805Y-111048191D01*
X203394019Y-111462560D01*
X203710772Y-111779867D01*
X204124842Y-111951804D01*
X204573191Y-111952195D01*
X204987560Y-111780981D01*
X205304867Y-111464228D01*
X205476804Y-111050158D01*
X205476971Y-110858093D01*
X211397796Y-110858093D01*
X211576606Y-111290846D01*
X211907412Y-111622230D01*
X212339853Y-111801795D01*
X212808093Y-111802204D01*
X213240846Y-111623394D01*
X213572230Y-111292588D01*
X213751795Y-110860147D01*
X213752204Y-110391907D01*
X213573394Y-109959154D01*
X213242588Y-109627770D01*
X212810147Y-109448205D01*
X212341907Y-109447796D01*
X211909154Y-109626606D01*
X211577770Y-109957412D01*
X211398205Y-110389853D01*
X211397796Y-110858093D01*
X205476971Y-110858093D01*
X205477195Y-110601809D01*
X205305981Y-110187440D01*
X204989228Y-109870133D01*
X204927000Y-109844294D01*
X204927000Y-109789002D01*
X207137998Y-107578003D01*
X207138001Y-107578001D01*
X207263078Y-107390808D01*
X207307000Y-107170000D01*
X207307000Y-104523426D01*
X207593600Y-104523426D01*
X207696250Y-104504111D01*
X207790527Y-104443445D01*
X207853775Y-104350880D01*
X207876026Y-104241000D01*
X207876026Y-102209000D01*
X207856711Y-102106350D01*
X207796045Y-102012073D01*
X207703480Y-101948825D01*
X207593600Y-101926574D01*
X205866400Y-101926574D01*
X205763750Y-101945889D01*
X205669473Y-102006555D01*
X205606225Y-102099120D01*
X205583974Y-102209000D01*
X205583974Y-102602335D01*
X205481954Y-102310680D01*
X205092036Y-101874268D01*
X204564791Y-101620291D01*
X204549026Y-101617642D01*
X204317000Y-101738783D01*
X204317000Y-103098000D01*
X204337000Y-103098000D01*
X204337000Y-103352000D01*
X204317000Y-103352000D01*
X204317000Y-104711217D01*
X204549026Y-104832358D01*
X204564791Y-104829709D01*
X205092036Y-104575732D01*
X205481954Y-104139320D01*
X205583974Y-103847665D01*
X205583974Y-104241000D01*
X205603289Y-104343650D01*
X205663955Y-104437927D01*
X205756520Y-104501175D01*
X205866400Y-104523426D01*
X206153000Y-104523426D01*
X206153000Y-106930999D01*
X203941999Y-109141999D01*
X203816922Y-109329192D01*
X203772999Y-109550000D01*
X203773000Y-109550005D01*
X203773000Y-109843996D01*
X203712440Y-109869019D01*
X203395133Y-110185772D01*
X203223196Y-110599842D01*
X203222805Y-111048191D01*
X186567454Y-111048191D01*
X186772733Y-110377738D01*
X187023060Y-109699913D01*
X187431362Y-108803156D01*
X187440579Y-108763952D01*
X187455417Y-108726513D01*
X187455047Y-108702416D01*
X187460563Y-108678954D01*
X187454076Y-108639207D01*
X187453457Y-108598940D01*
X187443892Y-108576816D01*
X187440010Y-108553030D01*
X187418808Y-108518794D01*
X187402826Y-108481827D01*
X187385522Y-108465047D01*
X187372833Y-108444557D01*
X187340143Y-108421041D01*
X187311231Y-108393004D01*
X187288824Y-108384124D01*
X187269260Y-108370050D01*
X187230056Y-108360833D01*
X187192617Y-108345995D01*
X187168520Y-108346365D01*
X187145058Y-108340849D01*
X187105311Y-108347336D01*
X187065044Y-108347955D01*
X185903881Y-108597528D01*
X185902987Y-108597914D01*
X185902014Y-108597935D01*
X184411520Y-108927418D01*
X184398220Y-108933261D01*
X184383777Y-108934842D01*
X184072140Y-109033093D01*
X184049846Y-109045323D01*
X184025295Y-109051950D01*
X183623463Y-109251032D01*
X183614434Y-109257987D01*
X183603659Y-109261707D01*
X183314247Y-109430813D01*
X183060776Y-109523320D01*
X182857883Y-109525475D01*
X182761158Y-109499015D01*
X182675471Y-109452664D01*
X182607146Y-109392478D01*
X182444360Y-109133044D01*
X182290917Y-108646654D01*
X182117946Y-107915104D01*
X182109260Y-107896092D01*
X182105877Y-107875470D01*
X181841701Y-107171420D01*
X181628756Y-106596835D01*
X181515307Y-106071165D01*
X181531009Y-105771209D01*
X181543180Y-105738535D01*
X181706436Y-105544974D01*
X182116228Y-105273195D01*
X182887727Y-104926366D01*
X184060550Y-104506745D01*
X184061399Y-104506236D01*
X184062377Y-104506085D01*
X184110012Y-104488722D01*
X185758403Y-103923298D01*
X185760660Y-103921985D01*
X185763240Y-103921596D01*
X187244694Y-103387325D01*
X187282518Y-103364525D01*
X187322840Y-103346508D01*
X187336698Y-103331865D01*
X187353965Y-103321457D01*
X187380186Y-103285916D01*
X187410543Y-103253841D01*
X187417742Y-103235011D01*
X187429713Y-103218786D01*
X187440337Y-103175915D01*
X187456109Y-103134665D01*
X187455554Y-103114513D01*
X187460404Y-103094943D01*
X187453813Y-103051267D01*
X187453703Y-103047269D01*
X200509400Y-103047269D01*
X200509400Y-103402731D01*
X200596223Y-103839220D01*
X200843474Y-104209257D01*
X201073000Y-104362621D01*
X201073000Y-107955952D01*
X200963275Y-108065486D01*
X200853125Y-108330755D01*
X200852875Y-108617985D01*
X200962561Y-108883446D01*
X201165486Y-109086725D01*
X201430755Y-109196875D01*
X201717985Y-109197125D01*
X201983446Y-109087439D01*
X202186725Y-108884514D01*
X202296875Y-108619245D01*
X202297125Y-108332015D01*
X202227000Y-108162299D01*
X202227000Y-104362621D01*
X202456526Y-104209257D01*
X202703777Y-103839220D01*
X202736147Y-103676483D01*
X202898046Y-104139320D01*
X203287964Y-104575732D01*
X203815209Y-104829709D01*
X203830974Y-104832358D01*
X204063000Y-104711217D01*
X204063000Y-103352000D01*
X204043000Y-103352000D01*
X204043000Y-103098000D01*
X204063000Y-103098000D01*
X204063000Y-101738783D01*
X203830974Y-101617642D01*
X203815209Y-101620291D01*
X203287964Y-101874268D01*
X202898046Y-102310680D01*
X202736147Y-102773517D01*
X202703777Y-102610780D01*
X202456526Y-102240743D01*
X202086489Y-101993492D01*
X201650000Y-101906669D01*
X201213511Y-101993492D01*
X200843474Y-102240743D01*
X200596223Y-102610780D01*
X200509400Y-103047269D01*
X187453703Y-103047269D01*
X187452598Y-103007125D01*
X186085491Y-97002577D01*
X191672779Y-97002577D01*
X191866781Y-97472097D01*
X192225693Y-97831637D01*
X192694875Y-98026458D01*
X193202897Y-98026901D01*
X193672417Y-97832899D01*
X194031957Y-97473987D01*
X194226778Y-97004805D01*
X194227221Y-96496783D01*
X194033219Y-96027263D01*
X193674307Y-95667723D01*
X193205125Y-95472902D01*
X192697103Y-95472459D01*
X192227583Y-95666461D01*
X191868043Y-96025373D01*
X191673222Y-96494555D01*
X191672779Y-97002577D01*
X186085491Y-97002577D01*
X186085136Y-97001021D01*
X186084947Y-97000598D01*
X186084933Y-97000134D01*
X184658427Y-90814207D01*
X184655892Y-90808577D01*
X184655476Y-90802414D01*
X184520450Y-90302532D01*
X191977073Y-90302532D01*
X192075736Y-90569387D01*
X192685461Y-90795908D01*
X193335460Y-90771856D01*
X193824264Y-90569387D01*
X193922927Y-90302532D01*
X192950000Y-89329605D01*
X191977073Y-90302532D01*
X184520450Y-90302532D01*
X184326237Y-89583538D01*
X184158268Y-88885461D01*
X191304092Y-88885461D01*
X191328144Y-89535460D01*
X191530613Y-90024264D01*
X191797468Y-90122927D01*
X192770395Y-89150000D01*
X193129605Y-89150000D01*
X194102532Y-90122927D01*
X194369387Y-90024264D01*
X194595908Y-89414539D01*
X194571856Y-88764540D01*
X194369387Y-88275736D01*
X194102532Y-88177073D01*
X193129605Y-89150000D01*
X192770395Y-89150000D01*
X191797468Y-88177073D01*
X191530613Y-88275736D01*
X191304092Y-88885461D01*
X184158268Y-88885461D01*
X184047224Y-88423968D01*
X183980013Y-87997468D01*
X191977073Y-87997468D01*
X192950000Y-88970395D01*
X193922927Y-87997468D01*
X193824264Y-87730613D01*
X193214539Y-87504092D01*
X192564540Y-87528144D01*
X192075736Y-87730613D01*
X191977073Y-87997468D01*
X183980013Y-87997468D01*
X183964026Y-87896022D01*
X183942975Y-87448989D01*
X183966576Y-87244416D01*
X184027596Y-87088747D01*
X184313661Y-86936439D01*
X185067782Y-86697952D01*
X186360895Y-86399065D01*
X186442883Y-86380780D01*
X186443570Y-86380477D01*
X186444323Y-86380456D01*
X191506821Y-85227407D01*
X203347735Y-85227407D01*
X203579717Y-85788846D01*
X204008894Y-86218773D01*
X204569928Y-86451735D01*
X205177407Y-86452265D01*
X205738846Y-86220283D01*
X206168773Y-85791106D01*
X206401735Y-85230072D01*
X206402265Y-84622593D01*
X206170283Y-84061154D01*
X205741106Y-83631227D01*
X205180072Y-83398265D01*
X204572593Y-83397735D01*
X204011154Y-83629717D01*
X203581227Y-84058894D01*
X203348265Y-84619928D01*
X203347735Y-85227407D01*
X191506821Y-85227407D01*
X196472738Y-84096356D01*
X206240030Y-81896896D01*
X206404575Y-81876397D01*
X206532777Y-81886305D01*
M02*
