G04 #@! TF.FileFunction,Copper,L1,Top,Signal*
%FSLAX46Y46*%
G04 Gerber Fmt 4.6, Leading zero omitted, Abs format (unit mm)*
G04 Created by KiCad (PCBNEW 4.0.4-stable) date 12/07/16 00:33:37*
%MOMM*%
%LPD*%
G01*
G04 APERTURE LIST*
%ADD10C,0.100000*%
%ADD11C,1.700000*%
%ADD12C,1.524000*%
%ADD13R,1.400000X1.800000*%
%ADD14C,2.000000*%
%ADD15R,2.180000X1.600000*%
%ADD16C,1.800000*%
%ADD17C,2.500000*%
%ADD18C,0.600000*%
%ADD19C,0.890000*%
%ADD20C,0.200000*%
%ADD21C,0.600000*%
%ADD22C,0.254000*%
G04 APERTURE END LIST*
D10*
D11*
X204350000Y-110825000D03*
D12*
X204350000Y-155525000D03*
D13*
X212875000Y-140400000D03*
X209575000Y-140400000D03*
X209575000Y-145200000D03*
X212875000Y-145200000D03*
X215125000Y-151050000D03*
X211825000Y-151050000D03*
X211825000Y-155850000D03*
X215125000Y-155850000D03*
D14*
X192950000Y-89150000D03*
X192950000Y-96749680D03*
D13*
X214150000Y-161275000D03*
X210850000Y-161275000D03*
X210850000Y-166075000D03*
X214150000Y-166075000D03*
D15*
X210152430Y-171577320D03*
X200947570Y-171572680D03*
D16*
X212575000Y-110625000D03*
D17*
X204875000Y-84925000D03*
D18*
X207950000Y-145250000D03*
X210125000Y-155850000D03*
X210850000Y-163500000D03*
X222348591Y-175673591D03*
X220075000Y-141575000D03*
X220150000Y-145400000D03*
X223100000Y-143525000D03*
X204175000Y-100550000D03*
X204175000Y-106050000D03*
X222425000Y-162350000D03*
X216250000Y-161625000D03*
X191725000Y-150625000D03*
X189900000Y-153500000D03*
X181425000Y-158425000D03*
X229550000Y-157175000D03*
X221800000Y-167175000D03*
X218775000Y-174925000D03*
D19*
X215125000Y-145650000D03*
X201575000Y-108475000D03*
D18*
X189150000Y-165150000D03*
X186575000Y-172175000D03*
X192800000Y-174650000D03*
X217950000Y-174025000D03*
X202200000Y-167700000D03*
X207550000Y-165775000D03*
X194250000Y-171325000D03*
X193375000Y-168475000D03*
X200950000Y-166000000D03*
D20*
X209575000Y-145200000D02*
X208000000Y-145200000D01*
X208000000Y-145200000D02*
X207950000Y-145250000D01*
X211825000Y-155850000D02*
X210125000Y-155850000D01*
X210850000Y-163500000D02*
X210850000Y-163924264D01*
X210850000Y-163924264D02*
X210850000Y-166075000D01*
D21*
X204175000Y-106050000D02*
X204175000Y-100550000D01*
X218775000Y-166975000D02*
X218775000Y-162125000D01*
X218775000Y-174925000D02*
X218775000Y-166975000D01*
X218775000Y-166975000D02*
X221600000Y-166975000D01*
X221600000Y-166975000D02*
X221800000Y-167175000D01*
X218775000Y-162125000D02*
X217860002Y-162125000D01*
X217860002Y-162125000D02*
X217210002Y-162775000D01*
X217210002Y-162775000D02*
X215450000Y-162775000D01*
X215450000Y-162775000D02*
X214150000Y-161475000D01*
X214150000Y-161475000D02*
X214150000Y-161275000D01*
X217250000Y-153375000D02*
X217250000Y-156675000D01*
X217250000Y-156675000D02*
X214150000Y-159775000D01*
X214150000Y-159775000D02*
X214150000Y-161275000D01*
X215125000Y-151050000D02*
X215125000Y-151250000D01*
X215125000Y-151250000D02*
X217250000Y-153375000D01*
X215125000Y-145650000D02*
X215125000Y-149550000D01*
X215125000Y-141350000D02*
X215125000Y-145650000D01*
X212875000Y-140400000D02*
X214175000Y-140400000D01*
X214175000Y-140400000D02*
X215125000Y-141350000D01*
X215125000Y-149550000D02*
X215125000Y-151050000D01*
X201575000Y-126150000D02*
X212875000Y-137450000D01*
X212875000Y-137450000D02*
X212875000Y-140400000D01*
X201575000Y-108475000D02*
X201575000Y-126150000D01*
D20*
X186575000Y-172175000D02*
X189150000Y-169600000D01*
X189150000Y-169600000D02*
X189150000Y-165150000D01*
X216925736Y-174625000D02*
X192825000Y-174625000D01*
X192825000Y-174625000D02*
X192800000Y-174650000D01*
X217950000Y-174025000D02*
X217525736Y-174025000D01*
X217525736Y-174025000D02*
X216925736Y-174625000D01*
X210850000Y-161275000D02*
X210850000Y-159225000D01*
X210850000Y-159225000D02*
X214225000Y-155850000D01*
X214225000Y-155850000D02*
X215125000Y-155850000D01*
X202200000Y-167700000D02*
X212725000Y-167700000D01*
X212725000Y-167700000D02*
X214150000Y-166275000D01*
X214150000Y-166275000D02*
X214150000Y-166075000D01*
X211825000Y-151050000D02*
X211825000Y-145350000D01*
X211825000Y-145350000D02*
X211975000Y-145200000D01*
X211975000Y-145200000D02*
X212875000Y-145200000D01*
X207550000Y-165775000D02*
X192950000Y-151175000D01*
X192950000Y-151175000D02*
X192950000Y-96749680D01*
X193375000Y-168475000D02*
X193375000Y-170450000D01*
X193375000Y-170450000D02*
X194250000Y-171325000D01*
X200947570Y-171572680D02*
X200947570Y-166002430D01*
X200947570Y-166002430D02*
X200950000Y-166000000D01*
D22*
G36*
X206532777Y-81886305D02*
X206635271Y-81916571D01*
X206884000Y-82081116D01*
X207143154Y-82409299D01*
X207421352Y-82989317D01*
X207709689Y-83909887D01*
X208046299Y-85323002D01*
X208048325Y-85327418D01*
X208048649Y-85332263D01*
X208153995Y-85723437D01*
X208157084Y-85729682D01*
X208157840Y-85736608D01*
X209608249Y-90343205D01*
X209608599Y-90343843D01*
X209608681Y-90344568D01*
X210556018Y-93308088D01*
X211462086Y-96280293D01*
X211880417Y-97750580D01*
X211906832Y-97802129D01*
X211931342Y-97854609D01*
X211935829Y-97858716D01*
X211938603Y-97864129D01*
X211982726Y-97901637D01*
X212025462Y-97940751D01*
X212031181Y-97942829D01*
X212035814Y-97946767D01*
X212090925Y-97964533D01*
X212145383Y-97984317D01*
X212151461Y-97984048D01*
X212157250Y-97985914D01*
X212214981Y-97981236D01*
X212272847Y-97978675D01*
X214279241Y-97486442D01*
X214281499Y-97485387D01*
X214283987Y-97485240D01*
X215923035Y-97057016D01*
X217601878Y-96681186D01*
X218815641Y-96491759D01*
X218961096Y-96702955D01*
X219431681Y-97676310D01*
X219647608Y-98255716D01*
X219815944Y-98843049D01*
X219894004Y-99261388D01*
X219916951Y-99628567D01*
X219897636Y-99831436D01*
X219851386Y-99986282D01*
X219795248Y-100083780D01*
X219730558Y-100154447D01*
X219479457Y-100302197D01*
X219021404Y-100419972D01*
X218072714Y-100568272D01*
X218050682Y-100576350D01*
X218027333Y-100578722D01*
X217517842Y-100734987D01*
X217498596Y-100745351D01*
X217477332Y-100750417D01*
X217442916Y-100775332D01*
X217405504Y-100795477D01*
X217391688Y-100812417D01*
X217373983Y-100825235D01*
X217351719Y-100861427D01*
X217324866Y-100894354D01*
X217318586Y-100915289D01*
X217307132Y-100933908D01*
X217300414Y-100975863D01*
X217288204Y-101016563D01*
X217290414Y-101038312D01*
X217286958Y-101059893D01*
X217296806Y-101101223D01*
X217301101Y-101143498D01*
X217311465Y-101162744D01*
X217316531Y-101184008D01*
X217341446Y-101218424D01*
X217361591Y-101255836D01*
X217378531Y-101269652D01*
X217391349Y-101287357D01*
X218162812Y-102002938D01*
X218917262Y-102763655D01*
X219578418Y-103489888D01*
X220219368Y-104258419D01*
X220785886Y-105002332D01*
X221327314Y-105783653D01*
X221806409Y-106547061D01*
X222257198Y-107344490D01*
X222654071Y-108129432D01*
X223020286Y-108946028D01*
X223338596Y-109755039D01*
X223624301Y-110593972D01*
X223866238Y-111430043D01*
X224073762Y-112294921D01*
X224240141Y-113161465D01*
X224370117Y-114054801D01*
X224483823Y-115289881D01*
X224518152Y-117079305D01*
X224399171Y-118785392D01*
X224133021Y-120423387D01*
X223722405Y-122006813D01*
X223166198Y-123549641D01*
X222458951Y-125066969D01*
X221589850Y-126576351D01*
X220539895Y-128101535D01*
X219389825Y-129546072D01*
X219369922Y-129584675D01*
X219345297Y-129620449D01*
X219340936Y-129640893D01*
X219331356Y-129659474D01*
X219327741Y-129702753D01*
X219318680Y-129745230D01*
X219283018Y-132327555D01*
X219149958Y-134812216D01*
X219156226Y-134855796D01*
X219157095Y-134899818D01*
X219165231Y-134918413D01*
X219168121Y-134938505D01*
X219190591Y-134976372D01*
X219208240Y-135016708D01*
X219222873Y-135030775D01*
X219233232Y-135048231D01*
X219268480Y-135074615D01*
X219300223Y-135105128D01*
X220288849Y-135737832D01*
X221242028Y-136396247D01*
X222135997Y-137062454D01*
X223000177Y-137757082D01*
X223812681Y-138461502D01*
X224596139Y-139194261D01*
X225334123Y-139939212D01*
X226043593Y-140712612D01*
X226712644Y-141501036D01*
X227353446Y-142318233D01*
X227957942Y-143153819D01*
X228534127Y-144018632D01*
X229077134Y-144905606D01*
X229591635Y-145822569D01*
X230075148Y-146765867D01*
X230528423Y-147737377D01*
X231349627Y-149782438D01*
X232052679Y-151966455D01*
X232114577Y-152186565D01*
X232368402Y-153176624D01*
X232586452Y-154195565D01*
X232760522Y-155204124D01*
X232898482Y-156246277D01*
X232996201Y-157294262D01*
X233056166Y-158378210D01*
X233076577Y-159481350D01*
X233056972Y-160624761D01*
X233035207Y-161139793D01*
X232854361Y-163216142D01*
X232526135Y-165213751D01*
X232052885Y-167146729D01*
X231435193Y-169024178D01*
X230671329Y-170855136D01*
X229757101Y-172648633D01*
X228685526Y-174414080D01*
X227446375Y-176161870D01*
X226022351Y-177907719D01*
X225753440Y-178213235D01*
X225053739Y-178969451D01*
X224322018Y-179701549D01*
X223561942Y-180405753D01*
X222770198Y-181084793D01*
X221954792Y-181731616D01*
X221109733Y-182350800D01*
X220245609Y-182934461D01*
X219353905Y-183488309D01*
X218447452Y-184004282D01*
X217515447Y-184488485D01*
X216572550Y-184933307D01*
X215606100Y-185344703D01*
X214631974Y-185715890D01*
X213636247Y-186052156D01*
X212635404Y-186347915D01*
X211616164Y-186607108D01*
X210108526Y-186915600D01*
X208255729Y-187163043D01*
X206078161Y-187294870D01*
X203738495Y-187278511D01*
X202595793Y-187211722D01*
X201480861Y-187105551D01*
X200144274Y-186915982D01*
X198108230Y-186488606D01*
X196122968Y-185912725D01*
X194191245Y-185190050D01*
X192318163Y-184322703D01*
X190510059Y-183313346D01*
X188774408Y-182165370D01*
X187119750Y-180883329D01*
X185554647Y-179472331D01*
X184410334Y-178295283D01*
X183709679Y-177502543D01*
X183032205Y-176675198D01*
X182390327Y-175828150D01*
X181775767Y-174950243D01*
X181655779Y-174764269D01*
X192222900Y-174764269D01*
X192310558Y-174976417D01*
X192472729Y-175138871D01*
X192684724Y-175226900D01*
X192914269Y-175227100D01*
X193126417Y-175139442D01*
X193264099Y-175002000D01*
X216925736Y-175002000D01*
X217070008Y-174973303D01*
X217192315Y-174891579D01*
X217596399Y-174487495D01*
X217622729Y-174513871D01*
X217834724Y-174601900D01*
X218064269Y-174602100D01*
X218198000Y-174546843D01*
X218198000Y-174924497D01*
X218197900Y-175039269D01*
X218285558Y-175251417D01*
X218366997Y-175332998D01*
X218366999Y-175333001D01*
X218367002Y-175333003D01*
X218447729Y-175413871D01*
X218659724Y-175501900D01*
X218889269Y-175502100D01*
X219101417Y-175414442D01*
X219182998Y-175333003D01*
X219183001Y-175333001D01*
X219183003Y-175332998D01*
X219263871Y-175252271D01*
X219351900Y-175040276D01*
X219352100Y-174810731D01*
X219352000Y-174810489D01*
X219352000Y-167552000D01*
X221360999Y-167552000D01*
X221391881Y-167582882D01*
X221472729Y-167663871D01*
X221684724Y-167751900D01*
X221799997Y-167752000D01*
X221800000Y-167752001D01*
X221800003Y-167752000D01*
X221914269Y-167752100D01*
X222126417Y-167664442D01*
X222207998Y-167583003D01*
X222208001Y-167583001D01*
X222208003Y-167582998D01*
X222288871Y-167502271D01*
X222376900Y-167290276D01*
X222377000Y-167175003D01*
X222377001Y-167175000D01*
X222377000Y-167174997D01*
X222377100Y-167060731D01*
X222289442Y-166848583D01*
X222127271Y-166686129D01*
X222127031Y-166686029D01*
X222008001Y-166566999D01*
X221820808Y-166441922D01*
X221600000Y-166397999D01*
X221599995Y-166398000D01*
X219352000Y-166398000D01*
X219352000Y-162125000D01*
X219308078Y-161904192D01*
X219183001Y-161716999D01*
X218995808Y-161591922D01*
X218775000Y-161548000D01*
X217860007Y-161548000D01*
X217860002Y-161547999D01*
X217639194Y-161591922D01*
X217452001Y-161716999D01*
X217451999Y-161717002D01*
X216971000Y-162198000D01*
X215689001Y-162198000D01*
X215132426Y-161641424D01*
X215132426Y-160375000D01*
X215113111Y-160272350D01*
X215052445Y-160178073D01*
X214959880Y-160114825D01*
X214850000Y-160092574D01*
X214727000Y-160092574D01*
X214727000Y-160014002D01*
X217658001Y-157083001D01*
X217783078Y-156895808D01*
X217827001Y-156675000D01*
X217827000Y-156674995D01*
X217827000Y-153375005D01*
X217827001Y-153375000D01*
X217783078Y-153154192D01*
X217693788Y-153020559D01*
X217658001Y-152966999D01*
X217657998Y-152966997D01*
X216107426Y-151416424D01*
X216107426Y-150150000D01*
X216088111Y-150047350D01*
X216027445Y-149953073D01*
X215934880Y-149889825D01*
X215825000Y-149867574D01*
X215702000Y-149867574D01*
X215702000Y-146094179D01*
X215736725Y-146059514D01*
X215846875Y-145794245D01*
X215847125Y-145507015D01*
X215737439Y-145241554D01*
X215702000Y-145206053D01*
X215702000Y-141350005D01*
X215702001Y-141350000D01*
X215658078Y-141129192D01*
X215533001Y-140941999D01*
X214583001Y-139991999D01*
X214395808Y-139866922D01*
X214175000Y-139822999D01*
X214174995Y-139823000D01*
X213857426Y-139823000D01*
X213857426Y-139500000D01*
X213838111Y-139397350D01*
X213777445Y-139303073D01*
X213684880Y-139239825D01*
X213575000Y-139217574D01*
X213452000Y-139217574D01*
X213452000Y-137450000D01*
X213408078Y-137229192D01*
X213283001Y-137041999D01*
X213282998Y-137041997D01*
X202152000Y-125910998D01*
X202152000Y-111048191D01*
X203222805Y-111048191D01*
X203394019Y-111462560D01*
X203710772Y-111779867D01*
X204124842Y-111951804D01*
X204573191Y-111952195D01*
X204987560Y-111780981D01*
X205304867Y-111464228D01*
X205476804Y-111050158D01*
X205476971Y-110858093D01*
X211397796Y-110858093D01*
X211576606Y-111290846D01*
X211907412Y-111622230D01*
X212339853Y-111801795D01*
X212808093Y-111802204D01*
X213240846Y-111623394D01*
X213572230Y-111292588D01*
X213751795Y-110860147D01*
X213752204Y-110391907D01*
X213573394Y-109959154D01*
X213242588Y-109627770D01*
X212810147Y-109448205D01*
X212341907Y-109447796D01*
X211909154Y-109626606D01*
X211577770Y-109957412D01*
X211398205Y-110389853D01*
X211397796Y-110858093D01*
X205476971Y-110858093D01*
X205477195Y-110601809D01*
X205305981Y-110187440D01*
X204989228Y-109870133D01*
X204575158Y-109698196D01*
X204126809Y-109697805D01*
X203712440Y-109869019D01*
X203395133Y-110185772D01*
X203223196Y-110599842D01*
X203222805Y-111048191D01*
X202152000Y-111048191D01*
X202152000Y-108919179D01*
X202186725Y-108884514D01*
X202296875Y-108619245D01*
X202297125Y-108332015D01*
X202187439Y-108066554D01*
X201984514Y-107863275D01*
X201719245Y-107753125D01*
X201432015Y-107752875D01*
X201166554Y-107862561D01*
X200963275Y-108065486D01*
X200853125Y-108330755D01*
X200852875Y-108617985D01*
X200962561Y-108883446D01*
X200998000Y-108918947D01*
X200998000Y-126149995D01*
X200997999Y-126150000D01*
X201041922Y-126370808D01*
X201166999Y-126558001D01*
X212298000Y-137689001D01*
X212298000Y-139217574D01*
X212175000Y-139217574D01*
X212072350Y-139236889D01*
X211978073Y-139297555D01*
X211914825Y-139390120D01*
X211892574Y-139500000D01*
X211892574Y-141300000D01*
X211911889Y-141402650D01*
X211972555Y-141496927D01*
X212065120Y-141560175D01*
X212175000Y-141582426D01*
X213575000Y-141582426D01*
X213677650Y-141563111D01*
X213771927Y-141502445D01*
X213835175Y-141409880D01*
X213857426Y-141300000D01*
X213857426Y-140977000D01*
X213935998Y-140977000D01*
X214548000Y-141589002D01*
X214548000Y-145205821D01*
X214513275Y-145240486D01*
X214403125Y-145505755D01*
X214402875Y-145792985D01*
X214512561Y-146058446D01*
X214548000Y-146093947D01*
X214548000Y-149867574D01*
X214425000Y-149867574D01*
X214322350Y-149886889D01*
X214228073Y-149947555D01*
X214164825Y-150040120D01*
X214142574Y-150150000D01*
X214142574Y-151950000D01*
X214161889Y-152052650D01*
X214222555Y-152146927D01*
X214315120Y-152210175D01*
X214425000Y-152232426D01*
X215291424Y-152232426D01*
X216673000Y-153614001D01*
X216673000Y-156435998D01*
X213741999Y-159366999D01*
X213616922Y-159554192D01*
X213572999Y-159775000D01*
X213573000Y-159775005D01*
X213573000Y-160092574D01*
X213450000Y-160092574D01*
X213347350Y-160111889D01*
X213253073Y-160172555D01*
X213189825Y-160265120D01*
X213167574Y-160375000D01*
X213167574Y-162175000D01*
X213186889Y-162277650D01*
X213247555Y-162371927D01*
X213340120Y-162435175D01*
X213450000Y-162457426D01*
X214316424Y-162457426D01*
X215041997Y-163182998D01*
X215041999Y-163183001D01*
X215195045Y-163285262D01*
X215229192Y-163308078D01*
X215450000Y-163352001D01*
X215450005Y-163352000D01*
X217209997Y-163352000D01*
X217210002Y-163352001D01*
X217430810Y-163308078D01*
X217618003Y-163183001D01*
X218099003Y-162702000D01*
X218198000Y-162702000D01*
X218198000Y-173503212D01*
X218065276Y-173448100D01*
X217835731Y-173447900D01*
X217623583Y-173535558D01*
X217507264Y-173651674D01*
X217381464Y-173676697D01*
X217259157Y-173758421D01*
X216769578Y-174248000D01*
X193213991Y-174248000D01*
X193127271Y-174161129D01*
X192915276Y-174073100D01*
X192685731Y-174072900D01*
X192473583Y-174160558D01*
X192311129Y-174322729D01*
X192223100Y-174534724D01*
X192222900Y-174764269D01*
X181655779Y-174764269D01*
X181200507Y-174058632D01*
X180655159Y-173138694D01*
X180194256Y-172289269D01*
X185997900Y-172289269D01*
X186085558Y-172501417D01*
X186247729Y-172663871D01*
X186459724Y-172751900D01*
X186689269Y-172752100D01*
X186901417Y-172664442D01*
X187063871Y-172502271D01*
X187151900Y-172290276D01*
X187152039Y-172131119D01*
X189416579Y-169866579D01*
X189498303Y-169744272D01*
X189527000Y-169600000D01*
X189527000Y-168589269D01*
X192797900Y-168589269D01*
X192885558Y-168801417D01*
X192998000Y-168914055D01*
X192998000Y-170450000D01*
X193026697Y-170594272D01*
X193108421Y-170716579D01*
X193673038Y-171281196D01*
X193672900Y-171439269D01*
X193760558Y-171651417D01*
X193922729Y-171813871D01*
X194134724Y-171901900D01*
X194364269Y-171902100D01*
X194576417Y-171814442D01*
X194738871Y-171652271D01*
X194826900Y-171440276D01*
X194827100Y-171210731D01*
X194739442Y-170998583D01*
X194577271Y-170836129D01*
X194424471Y-170772680D01*
X199575144Y-170772680D01*
X199575144Y-172372680D01*
X199594459Y-172475330D01*
X199655125Y-172569607D01*
X199747690Y-172632855D01*
X199857570Y-172655106D01*
X202037570Y-172655106D01*
X202140220Y-172635791D01*
X202234497Y-172575125D01*
X202297745Y-172482560D01*
X202319996Y-172372680D01*
X202319996Y-171863070D01*
X208427430Y-171863070D01*
X208427430Y-172503630D01*
X208524103Y-172737019D01*
X208702732Y-172915647D01*
X208936121Y-173012320D01*
X209866680Y-173012320D01*
X210025430Y-172853570D01*
X210025430Y-171704320D01*
X210279430Y-171704320D01*
X210279430Y-172853570D01*
X210438180Y-173012320D01*
X211368739Y-173012320D01*
X211602128Y-172915647D01*
X211780757Y-172737019D01*
X211877430Y-172503630D01*
X211877430Y-171863070D01*
X211718680Y-171704320D01*
X210279430Y-171704320D01*
X210025430Y-171704320D01*
X208586180Y-171704320D01*
X208427430Y-171863070D01*
X202319996Y-171863070D01*
X202319996Y-170772680D01*
X202300681Y-170670030D01*
X202288442Y-170651010D01*
X208427430Y-170651010D01*
X208427430Y-171291570D01*
X208586180Y-171450320D01*
X210025430Y-171450320D01*
X210025430Y-170301070D01*
X210279430Y-170301070D01*
X210279430Y-171450320D01*
X211718680Y-171450320D01*
X211877430Y-171291570D01*
X211877430Y-170651010D01*
X211780757Y-170417621D01*
X211602128Y-170238993D01*
X211368739Y-170142320D01*
X210438180Y-170142320D01*
X210279430Y-170301070D01*
X210025430Y-170301070D01*
X209866680Y-170142320D01*
X208936121Y-170142320D01*
X208702732Y-170238993D01*
X208524103Y-170417621D01*
X208427430Y-170651010D01*
X202288442Y-170651010D01*
X202240015Y-170575753D01*
X202147450Y-170512505D01*
X202037570Y-170490254D01*
X201324570Y-170490254D01*
X201324570Y-167814269D01*
X201622900Y-167814269D01*
X201710558Y-168026417D01*
X201872729Y-168188871D01*
X202084724Y-168276900D01*
X202314269Y-168277100D01*
X202526417Y-168189442D01*
X202639055Y-168077000D01*
X212725000Y-168077000D01*
X212869272Y-168048303D01*
X212991579Y-167966579D01*
X213700732Y-167257426D01*
X214850000Y-167257426D01*
X214952650Y-167238111D01*
X215046927Y-167177445D01*
X215110175Y-167084880D01*
X215132426Y-166975000D01*
X215132426Y-165175000D01*
X215113111Y-165072350D01*
X215052445Y-164978073D01*
X214959880Y-164914825D01*
X214850000Y-164892574D01*
X213450000Y-164892574D01*
X213347350Y-164911889D01*
X213253073Y-164972555D01*
X213189825Y-165065120D01*
X213167574Y-165175000D01*
X213167574Y-166724268D01*
X212568842Y-167323000D01*
X212093173Y-167323000D01*
X212185000Y-167101310D01*
X212185000Y-166360750D01*
X212026250Y-166202000D01*
X210977000Y-166202000D01*
X210977000Y-166222000D01*
X210723000Y-166222000D01*
X210723000Y-166202000D01*
X209673750Y-166202000D01*
X209515000Y-166360750D01*
X209515000Y-167101310D01*
X209606827Y-167323000D01*
X202638947Y-167323000D01*
X202527271Y-167211129D01*
X202315276Y-167123100D01*
X202085731Y-167122900D01*
X201873583Y-167210558D01*
X201711129Y-167372729D01*
X201623100Y-167584724D01*
X201622900Y-167814269D01*
X201324570Y-167814269D01*
X201324570Y-166441373D01*
X201438871Y-166327271D01*
X201526900Y-166115276D01*
X201527100Y-165885731D01*
X201439442Y-165673583D01*
X201277271Y-165511129D01*
X201065276Y-165423100D01*
X200835731Y-165422900D01*
X200623583Y-165510558D01*
X200461129Y-165672729D01*
X200373100Y-165884724D01*
X200372900Y-166114269D01*
X200460558Y-166326417D01*
X200570570Y-166436621D01*
X200570570Y-170490254D01*
X199857570Y-170490254D01*
X199754920Y-170509569D01*
X199660643Y-170570235D01*
X199597395Y-170662800D01*
X199575144Y-170772680D01*
X194424471Y-170772680D01*
X194365276Y-170748100D01*
X194206119Y-170747961D01*
X193752000Y-170293842D01*
X193752000Y-168913947D01*
X193863871Y-168802271D01*
X193951900Y-168590276D01*
X193952100Y-168360731D01*
X193864442Y-168148583D01*
X193702271Y-167986129D01*
X193490276Y-167898100D01*
X193260731Y-167897900D01*
X193048583Y-167985558D01*
X192886129Y-168147729D01*
X192798100Y-168359724D01*
X192797900Y-168589269D01*
X189527000Y-168589269D01*
X189527000Y-165588947D01*
X189638871Y-165477271D01*
X189726900Y-165265276D01*
X189727100Y-165035731D01*
X189639442Y-164823583D01*
X189477271Y-164661129D01*
X189265276Y-164573100D01*
X189035731Y-164572900D01*
X188823583Y-164660558D01*
X188661129Y-164822729D01*
X188573100Y-165034724D01*
X188572900Y-165264269D01*
X188660558Y-165476417D01*
X188773000Y-165589055D01*
X188773000Y-169443842D01*
X186618804Y-171598038D01*
X186460731Y-171597900D01*
X186248583Y-171685558D01*
X186086129Y-171847729D01*
X185998100Y-172059724D01*
X185997900Y-172289269D01*
X180194256Y-172289269D01*
X180151385Y-172210260D01*
X179679724Y-171256017D01*
X179250689Y-170297487D01*
X178855637Y-169315603D01*
X178503397Y-168332629D01*
X178186654Y-167328493D01*
X177912398Y-166325646D01*
X177674936Y-165303608D01*
X177479304Y-164284327D01*
X177322054Y-163250638D01*
X177130962Y-161226378D01*
X177074818Y-158869984D01*
X177175662Y-156643395D01*
X177425119Y-154533846D01*
X177817063Y-152528012D01*
X178347790Y-150612915D01*
X179016289Y-148775704D01*
X179824410Y-147003694D01*
X180777271Y-145284002D01*
X181883789Y-143603105D01*
X183157703Y-141945893D01*
X184619612Y-140293915D01*
X186301428Y-138621437D01*
X188197586Y-136936750D01*
X188234869Y-136887507D01*
X188272757Y-136838769D01*
X188273319Y-136836722D01*
X188274602Y-136835028D01*
X188290194Y-136775297D01*
X188306555Y-136715739D01*
X188391089Y-135539560D01*
X188389327Y-135525493D01*
X188391898Y-135511554D01*
X188368704Y-133850330D01*
X188367813Y-133846156D01*
X188368479Y-133841940D01*
X188252614Y-130919709D01*
X188265365Y-129991468D01*
X188337467Y-129144614D01*
X188466896Y-128477060D01*
X188559941Y-128191590D01*
X188642302Y-128036034D01*
X188712015Y-127954036D01*
X188995399Y-127781750D01*
X189027624Y-127769542D01*
X189062114Y-127747992D01*
X189099345Y-127731608D01*
X189115732Y-127714489D01*
X189135827Y-127701933D01*
X189159445Y-127668823D01*
X189187571Y-127639441D01*
X189196159Y-127617354D01*
X189209921Y-127598062D01*
X189219071Y-127558431D01*
X189233811Y-127520525D01*
X189233293Y-127496835D01*
X189238625Y-127473743D01*
X189231912Y-127433626D01*
X189231024Y-127392965D01*
X189221480Y-127371276D01*
X189217569Y-127347904D01*
X189196015Y-127313409D01*
X189179634Y-127276184D01*
X188500417Y-126306224D01*
X187852874Y-125108230D01*
X187252022Y-123665247D01*
X186730460Y-122001337D01*
X186320880Y-120163709D01*
X186168423Y-119207708D01*
X186053615Y-118235085D01*
X185978932Y-117263483D01*
X185944602Y-116289920D01*
X185951255Y-115346409D01*
X185998668Y-114411491D01*
X186083481Y-113528594D01*
X186207909Y-112662834D01*
X186363356Y-111862241D01*
X186556198Y-111084956D01*
X186772733Y-110377738D01*
X187023060Y-109699913D01*
X187431362Y-108803156D01*
X187440579Y-108763952D01*
X187455417Y-108726513D01*
X187455047Y-108702416D01*
X187460563Y-108678954D01*
X187454076Y-108639207D01*
X187453457Y-108598940D01*
X187443892Y-108576816D01*
X187440010Y-108553030D01*
X187418808Y-108518794D01*
X187402826Y-108481827D01*
X187385522Y-108465047D01*
X187372833Y-108444557D01*
X187340143Y-108421041D01*
X187311231Y-108393004D01*
X187288824Y-108384124D01*
X187269260Y-108370050D01*
X187230056Y-108360833D01*
X187192617Y-108345995D01*
X187168520Y-108346365D01*
X187145058Y-108340849D01*
X187105311Y-108347336D01*
X187065044Y-108347955D01*
X185903881Y-108597528D01*
X185902987Y-108597914D01*
X185902014Y-108597935D01*
X184411520Y-108927418D01*
X184398220Y-108933261D01*
X184383777Y-108934842D01*
X184072140Y-109033093D01*
X184049846Y-109045323D01*
X184025295Y-109051950D01*
X183623463Y-109251032D01*
X183614434Y-109257987D01*
X183603659Y-109261707D01*
X183314247Y-109430813D01*
X183060776Y-109523320D01*
X182857883Y-109525475D01*
X182761158Y-109499015D01*
X182675471Y-109452664D01*
X182607146Y-109392478D01*
X182444360Y-109133044D01*
X182290917Y-108646654D01*
X182117946Y-107915104D01*
X182109260Y-107896092D01*
X182105877Y-107875470D01*
X181841701Y-107171420D01*
X181628756Y-106596835D01*
X181515307Y-106071165D01*
X181531009Y-105771209D01*
X181543180Y-105738535D01*
X181706436Y-105544974D01*
X182116228Y-105273195D01*
X182887727Y-104926366D01*
X184060550Y-104506745D01*
X184061399Y-104506236D01*
X184062377Y-104506085D01*
X184110012Y-104488722D01*
X185758403Y-103923298D01*
X185760660Y-103921985D01*
X185763240Y-103921596D01*
X187244694Y-103387325D01*
X187282518Y-103364525D01*
X187322840Y-103346508D01*
X187336698Y-103331865D01*
X187353965Y-103321457D01*
X187380186Y-103285916D01*
X187410543Y-103253841D01*
X187417742Y-103235011D01*
X187429713Y-103218786D01*
X187440337Y-103175915D01*
X187456109Y-103134665D01*
X187455554Y-103114513D01*
X187460404Y-103094943D01*
X187453813Y-103051267D01*
X187452598Y-103007125D01*
X186085491Y-97002577D01*
X191672779Y-97002577D01*
X191866781Y-97472097D01*
X192225693Y-97831637D01*
X192573000Y-97975851D01*
X192573000Y-151175000D01*
X192601697Y-151319272D01*
X192683421Y-151441579D01*
X206973038Y-165731196D01*
X206972900Y-165889269D01*
X207060558Y-166101417D01*
X207222729Y-166263871D01*
X207434724Y-166351900D01*
X207664269Y-166352100D01*
X207876417Y-166264442D01*
X208038871Y-166102271D01*
X208126900Y-165890276D01*
X208127100Y-165660731D01*
X208039442Y-165448583D01*
X207877271Y-165286129D01*
X207665276Y-165198100D01*
X207506119Y-165197961D01*
X207356848Y-165048690D01*
X209515000Y-165048690D01*
X209515000Y-165789250D01*
X209673750Y-165948000D01*
X210723000Y-165948000D01*
X210723000Y-164698750D01*
X210977000Y-164698750D01*
X210977000Y-165948000D01*
X212026250Y-165948000D01*
X212185000Y-165789250D01*
X212185000Y-165048690D01*
X212088327Y-164815301D01*
X211909698Y-164636673D01*
X211676309Y-164540000D01*
X211135750Y-164540000D01*
X210977000Y-164698750D01*
X210723000Y-164698750D01*
X210564250Y-164540000D01*
X210023691Y-164540000D01*
X209790302Y-164636673D01*
X209611673Y-164815301D01*
X209515000Y-165048690D01*
X207356848Y-165048690D01*
X202683158Y-160375000D01*
X209867574Y-160375000D01*
X209867574Y-162175000D01*
X209886889Y-162277650D01*
X209947555Y-162371927D01*
X210040120Y-162435175D01*
X210150000Y-162457426D01*
X211550000Y-162457426D01*
X211652650Y-162438111D01*
X211746927Y-162377445D01*
X211810175Y-162284880D01*
X211832426Y-162175000D01*
X211832426Y-160375000D01*
X211813111Y-160272350D01*
X211752445Y-160178073D01*
X211659880Y-160114825D01*
X211550000Y-160092574D01*
X211227000Y-160092574D01*
X211227000Y-159381158D01*
X214142574Y-156465584D01*
X214142574Y-156750000D01*
X214161889Y-156852650D01*
X214222555Y-156946927D01*
X214315120Y-157010175D01*
X214425000Y-157032426D01*
X215825000Y-157032426D01*
X215927650Y-157013111D01*
X216021927Y-156952445D01*
X216085175Y-156859880D01*
X216107426Y-156750000D01*
X216107426Y-154950000D01*
X216088111Y-154847350D01*
X216027445Y-154753073D01*
X215934880Y-154689825D01*
X215825000Y-154667574D01*
X214425000Y-154667574D01*
X214322350Y-154686889D01*
X214228073Y-154747555D01*
X214164825Y-154840120D01*
X214142574Y-154950000D01*
X214142574Y-155489395D01*
X214080728Y-155501697D01*
X213958421Y-155583421D01*
X213160000Y-156381842D01*
X213160000Y-156135750D01*
X213001250Y-155977000D01*
X211952000Y-155977000D01*
X211952000Y-157226250D01*
X212110750Y-157385000D01*
X212156842Y-157385000D01*
X210583421Y-158958421D01*
X210501697Y-159080728D01*
X210473000Y-159225000D01*
X210473000Y-160092574D01*
X210150000Y-160092574D01*
X210047350Y-160111889D01*
X209953073Y-160172555D01*
X209889825Y-160265120D01*
X209867574Y-160375000D01*
X202683158Y-160375000D01*
X198813371Y-156505213D01*
X203549392Y-156505213D01*
X203618857Y-156747397D01*
X204142302Y-156934144D01*
X204697368Y-156906362D01*
X205081143Y-156747397D01*
X205150608Y-156505213D01*
X204350000Y-155704605D01*
X203549392Y-156505213D01*
X198813371Y-156505213D01*
X197625460Y-155317302D01*
X202940856Y-155317302D01*
X202968638Y-155872368D01*
X203127603Y-156256143D01*
X203369787Y-156325608D01*
X204170395Y-155525000D01*
X204529605Y-155525000D01*
X205330213Y-156325608D01*
X205572397Y-156256143D01*
X205615349Y-156135750D01*
X210490000Y-156135750D01*
X210490000Y-156876310D01*
X210586673Y-157109699D01*
X210765302Y-157288327D01*
X210998691Y-157385000D01*
X211539250Y-157385000D01*
X211698000Y-157226250D01*
X211698000Y-155977000D01*
X210648750Y-155977000D01*
X210490000Y-156135750D01*
X205615349Y-156135750D01*
X205759144Y-155732698D01*
X205731362Y-155177632D01*
X205584755Y-154823690D01*
X210490000Y-154823690D01*
X210490000Y-155564250D01*
X210648750Y-155723000D01*
X211698000Y-155723000D01*
X211698000Y-154473750D01*
X211952000Y-154473750D01*
X211952000Y-155723000D01*
X213001250Y-155723000D01*
X213160000Y-155564250D01*
X213160000Y-154823690D01*
X213063327Y-154590301D01*
X212884698Y-154411673D01*
X212651309Y-154315000D01*
X212110750Y-154315000D01*
X211952000Y-154473750D01*
X211698000Y-154473750D01*
X211539250Y-154315000D01*
X210998691Y-154315000D01*
X210765302Y-154411673D01*
X210586673Y-154590301D01*
X210490000Y-154823690D01*
X205584755Y-154823690D01*
X205572397Y-154793857D01*
X205330213Y-154724392D01*
X204529605Y-155525000D01*
X204170395Y-155525000D01*
X203369787Y-154724392D01*
X203127603Y-154793857D01*
X202940856Y-155317302D01*
X197625460Y-155317302D01*
X196852945Y-154544787D01*
X203549392Y-154544787D01*
X204350000Y-155345395D01*
X205150608Y-154544787D01*
X205081143Y-154302603D01*
X204557698Y-154115856D01*
X204002632Y-154143638D01*
X203618857Y-154302603D01*
X203549392Y-154544787D01*
X196852945Y-154544787D01*
X193327000Y-151018842D01*
X193327000Y-150150000D01*
X210842574Y-150150000D01*
X210842574Y-151950000D01*
X210861889Y-152052650D01*
X210922555Y-152146927D01*
X211015120Y-152210175D01*
X211125000Y-152232426D01*
X212525000Y-152232426D01*
X212627650Y-152213111D01*
X212721927Y-152152445D01*
X212785175Y-152059880D01*
X212807426Y-151950000D01*
X212807426Y-150150000D01*
X212788111Y-150047350D01*
X212727445Y-149953073D01*
X212634880Y-149889825D01*
X212525000Y-149867574D01*
X212202000Y-149867574D01*
X212202000Y-146382426D01*
X213575000Y-146382426D01*
X213677650Y-146363111D01*
X213771927Y-146302445D01*
X213835175Y-146209880D01*
X213857426Y-146100000D01*
X213857426Y-144300000D01*
X213838111Y-144197350D01*
X213777445Y-144103073D01*
X213684880Y-144039825D01*
X213575000Y-144017574D01*
X212175000Y-144017574D01*
X212072350Y-144036889D01*
X211978073Y-144097555D01*
X211914825Y-144190120D01*
X211892574Y-144300000D01*
X211892574Y-144839395D01*
X211830728Y-144851697D01*
X211708421Y-144933421D01*
X211558421Y-145083421D01*
X211476697Y-145205728D01*
X211448000Y-145350000D01*
X211448000Y-149867574D01*
X211125000Y-149867574D01*
X211022350Y-149886889D01*
X210928073Y-149947555D01*
X210864825Y-150040120D01*
X210842574Y-150150000D01*
X193327000Y-150150000D01*
X193327000Y-145485750D01*
X208240000Y-145485750D01*
X208240000Y-146226310D01*
X208336673Y-146459699D01*
X208515302Y-146638327D01*
X208748691Y-146735000D01*
X209289250Y-146735000D01*
X209448000Y-146576250D01*
X209448000Y-145327000D01*
X209702000Y-145327000D01*
X209702000Y-146576250D01*
X209860750Y-146735000D01*
X210401309Y-146735000D01*
X210634698Y-146638327D01*
X210813327Y-146459699D01*
X210910000Y-146226310D01*
X210910000Y-145485750D01*
X210751250Y-145327000D01*
X209702000Y-145327000D01*
X209448000Y-145327000D01*
X208398750Y-145327000D01*
X208240000Y-145485750D01*
X193327000Y-145485750D01*
X193327000Y-144173690D01*
X208240000Y-144173690D01*
X208240000Y-144914250D01*
X208398750Y-145073000D01*
X209448000Y-145073000D01*
X209448000Y-143823750D01*
X209702000Y-143823750D01*
X209702000Y-145073000D01*
X210751250Y-145073000D01*
X210910000Y-144914250D01*
X210910000Y-144173690D01*
X210813327Y-143940301D01*
X210634698Y-143761673D01*
X210401309Y-143665000D01*
X209860750Y-143665000D01*
X209702000Y-143823750D01*
X209448000Y-143823750D01*
X209289250Y-143665000D01*
X208748691Y-143665000D01*
X208515302Y-143761673D01*
X208336673Y-143940301D01*
X208240000Y-144173690D01*
X193327000Y-144173690D01*
X193327000Y-139500000D01*
X208592574Y-139500000D01*
X208592574Y-141300000D01*
X208611889Y-141402650D01*
X208672555Y-141496927D01*
X208765120Y-141560175D01*
X208875000Y-141582426D01*
X210275000Y-141582426D01*
X210377650Y-141563111D01*
X210471927Y-141502445D01*
X210535175Y-141409880D01*
X210557426Y-141300000D01*
X210557426Y-139500000D01*
X210538111Y-139397350D01*
X210477445Y-139303073D01*
X210384880Y-139239825D01*
X210275000Y-139217574D01*
X208875000Y-139217574D01*
X208772350Y-139236889D01*
X208678073Y-139297555D01*
X208614825Y-139390120D01*
X208592574Y-139500000D01*
X193327000Y-139500000D01*
X193327000Y-97975623D01*
X193672417Y-97832899D01*
X194031957Y-97473987D01*
X194226778Y-97004805D01*
X194227221Y-96496783D01*
X194033219Y-96027263D01*
X193674307Y-95667723D01*
X193205125Y-95472902D01*
X192697103Y-95472459D01*
X192227583Y-95666461D01*
X191868043Y-96025373D01*
X191673222Y-96494555D01*
X191672779Y-97002577D01*
X186085491Y-97002577D01*
X186085136Y-97001021D01*
X186084947Y-97000598D01*
X186084933Y-97000134D01*
X184658427Y-90814207D01*
X184655892Y-90808577D01*
X184655476Y-90802414D01*
X184520450Y-90302532D01*
X191977073Y-90302532D01*
X192075736Y-90569387D01*
X192685461Y-90795908D01*
X193335460Y-90771856D01*
X193824264Y-90569387D01*
X193922927Y-90302532D01*
X192950000Y-89329605D01*
X191977073Y-90302532D01*
X184520450Y-90302532D01*
X184326237Y-89583538D01*
X184158268Y-88885461D01*
X191304092Y-88885461D01*
X191328144Y-89535460D01*
X191530613Y-90024264D01*
X191797468Y-90122927D01*
X192770395Y-89150000D01*
X193129605Y-89150000D01*
X194102532Y-90122927D01*
X194369387Y-90024264D01*
X194595908Y-89414539D01*
X194571856Y-88764540D01*
X194369387Y-88275736D01*
X194102532Y-88177073D01*
X193129605Y-89150000D01*
X192770395Y-89150000D01*
X191797468Y-88177073D01*
X191530613Y-88275736D01*
X191304092Y-88885461D01*
X184158268Y-88885461D01*
X184047224Y-88423968D01*
X183980013Y-87997468D01*
X191977073Y-87997468D01*
X192950000Y-88970395D01*
X193922927Y-87997468D01*
X193824264Y-87730613D01*
X193214539Y-87504092D01*
X192564540Y-87528144D01*
X192075736Y-87730613D01*
X191977073Y-87997468D01*
X183980013Y-87997468D01*
X183964026Y-87896022D01*
X183942975Y-87448989D01*
X183966576Y-87244416D01*
X184027596Y-87088747D01*
X184313661Y-86936439D01*
X185067782Y-86697952D01*
X186360895Y-86399065D01*
X186442883Y-86380780D01*
X186443570Y-86380477D01*
X186444323Y-86380456D01*
X191506821Y-85227407D01*
X203347735Y-85227407D01*
X203579717Y-85788846D01*
X204008894Y-86218773D01*
X204569928Y-86451735D01*
X205177407Y-86452265D01*
X205738846Y-86220283D01*
X206168773Y-85791106D01*
X206401735Y-85230072D01*
X206402265Y-84622593D01*
X206170283Y-84061154D01*
X205741106Y-83631227D01*
X205180072Y-83398265D01*
X204572593Y-83397735D01*
X204011154Y-83629717D01*
X203581227Y-84058894D01*
X203348265Y-84619928D01*
X203347735Y-85227407D01*
X191506821Y-85227407D01*
X196472738Y-84096356D01*
X206240030Y-81896896D01*
X206404575Y-81876397D01*
X206532777Y-81886305D01*
X206532777Y-81886305D01*
G37*
X206532777Y-81886305D02*
X206635271Y-81916571D01*
X206884000Y-82081116D01*
X207143154Y-82409299D01*
X207421352Y-82989317D01*
X207709689Y-83909887D01*
X208046299Y-85323002D01*
X208048325Y-85327418D01*
X208048649Y-85332263D01*
X208153995Y-85723437D01*
X208157084Y-85729682D01*
X208157840Y-85736608D01*
X209608249Y-90343205D01*
X209608599Y-90343843D01*
X209608681Y-90344568D01*
X210556018Y-93308088D01*
X211462086Y-96280293D01*
X211880417Y-97750580D01*
X211906832Y-97802129D01*
X211931342Y-97854609D01*
X211935829Y-97858716D01*
X211938603Y-97864129D01*
X211982726Y-97901637D01*
X212025462Y-97940751D01*
X212031181Y-97942829D01*
X212035814Y-97946767D01*
X212090925Y-97964533D01*
X212145383Y-97984317D01*
X212151461Y-97984048D01*
X212157250Y-97985914D01*
X212214981Y-97981236D01*
X212272847Y-97978675D01*
X214279241Y-97486442D01*
X214281499Y-97485387D01*
X214283987Y-97485240D01*
X215923035Y-97057016D01*
X217601878Y-96681186D01*
X218815641Y-96491759D01*
X218961096Y-96702955D01*
X219431681Y-97676310D01*
X219647608Y-98255716D01*
X219815944Y-98843049D01*
X219894004Y-99261388D01*
X219916951Y-99628567D01*
X219897636Y-99831436D01*
X219851386Y-99986282D01*
X219795248Y-100083780D01*
X219730558Y-100154447D01*
X219479457Y-100302197D01*
X219021404Y-100419972D01*
X218072714Y-100568272D01*
X218050682Y-100576350D01*
X218027333Y-100578722D01*
X217517842Y-100734987D01*
X217498596Y-100745351D01*
X217477332Y-100750417D01*
X217442916Y-100775332D01*
X217405504Y-100795477D01*
X217391688Y-100812417D01*
X217373983Y-100825235D01*
X217351719Y-100861427D01*
X217324866Y-100894354D01*
X217318586Y-100915289D01*
X217307132Y-100933908D01*
X217300414Y-100975863D01*
X217288204Y-101016563D01*
X217290414Y-101038312D01*
X217286958Y-101059893D01*
X217296806Y-101101223D01*
X217301101Y-101143498D01*
X217311465Y-101162744D01*
X217316531Y-101184008D01*
X217341446Y-101218424D01*
X217361591Y-101255836D01*
X217378531Y-101269652D01*
X217391349Y-101287357D01*
X218162812Y-102002938D01*
X218917262Y-102763655D01*
X219578418Y-103489888D01*
X220219368Y-104258419D01*
X220785886Y-105002332D01*
X221327314Y-105783653D01*
X221806409Y-106547061D01*
X222257198Y-107344490D01*
X222654071Y-108129432D01*
X223020286Y-108946028D01*
X223338596Y-109755039D01*
X223624301Y-110593972D01*
X223866238Y-111430043D01*
X224073762Y-112294921D01*
X224240141Y-113161465D01*
X224370117Y-114054801D01*
X224483823Y-115289881D01*
X224518152Y-117079305D01*
X224399171Y-118785392D01*
X224133021Y-120423387D01*
X223722405Y-122006813D01*
X223166198Y-123549641D01*
X222458951Y-125066969D01*
X221589850Y-126576351D01*
X220539895Y-128101535D01*
X219389825Y-129546072D01*
X219369922Y-129584675D01*
X219345297Y-129620449D01*
X219340936Y-129640893D01*
X219331356Y-129659474D01*
X219327741Y-129702753D01*
X219318680Y-129745230D01*
X219283018Y-132327555D01*
X219149958Y-134812216D01*
X219156226Y-134855796D01*
X219157095Y-134899818D01*
X219165231Y-134918413D01*
X219168121Y-134938505D01*
X219190591Y-134976372D01*
X219208240Y-135016708D01*
X219222873Y-135030775D01*
X219233232Y-135048231D01*
X219268480Y-135074615D01*
X219300223Y-135105128D01*
X220288849Y-135737832D01*
X221242028Y-136396247D01*
X222135997Y-137062454D01*
X223000177Y-137757082D01*
X223812681Y-138461502D01*
X224596139Y-139194261D01*
X225334123Y-139939212D01*
X226043593Y-140712612D01*
X226712644Y-141501036D01*
X227353446Y-142318233D01*
X227957942Y-143153819D01*
X228534127Y-144018632D01*
X229077134Y-144905606D01*
X229591635Y-145822569D01*
X230075148Y-146765867D01*
X230528423Y-147737377D01*
X231349627Y-149782438D01*
X232052679Y-151966455D01*
X232114577Y-152186565D01*
X232368402Y-153176624D01*
X232586452Y-154195565D01*
X232760522Y-155204124D01*
X232898482Y-156246277D01*
X232996201Y-157294262D01*
X233056166Y-158378210D01*
X233076577Y-159481350D01*
X233056972Y-160624761D01*
X233035207Y-161139793D01*
X232854361Y-163216142D01*
X232526135Y-165213751D01*
X232052885Y-167146729D01*
X231435193Y-169024178D01*
X230671329Y-170855136D01*
X229757101Y-172648633D01*
X228685526Y-174414080D01*
X227446375Y-176161870D01*
X226022351Y-177907719D01*
X225753440Y-178213235D01*
X225053739Y-178969451D01*
X224322018Y-179701549D01*
X223561942Y-180405753D01*
X222770198Y-181084793D01*
X221954792Y-181731616D01*
X221109733Y-182350800D01*
X220245609Y-182934461D01*
X219353905Y-183488309D01*
X218447452Y-184004282D01*
X217515447Y-184488485D01*
X216572550Y-184933307D01*
X215606100Y-185344703D01*
X214631974Y-185715890D01*
X213636247Y-186052156D01*
X212635404Y-186347915D01*
X211616164Y-186607108D01*
X210108526Y-186915600D01*
X208255729Y-187163043D01*
X206078161Y-187294870D01*
X203738495Y-187278511D01*
X202595793Y-187211722D01*
X201480861Y-187105551D01*
X200144274Y-186915982D01*
X198108230Y-186488606D01*
X196122968Y-185912725D01*
X194191245Y-185190050D01*
X192318163Y-184322703D01*
X190510059Y-183313346D01*
X188774408Y-182165370D01*
X187119750Y-180883329D01*
X185554647Y-179472331D01*
X184410334Y-178295283D01*
X183709679Y-177502543D01*
X183032205Y-176675198D01*
X182390327Y-175828150D01*
X181775767Y-174950243D01*
X181655779Y-174764269D01*
X192222900Y-174764269D01*
X192310558Y-174976417D01*
X192472729Y-175138871D01*
X192684724Y-175226900D01*
X192914269Y-175227100D01*
X193126417Y-175139442D01*
X193264099Y-175002000D01*
X216925736Y-175002000D01*
X217070008Y-174973303D01*
X217192315Y-174891579D01*
X217596399Y-174487495D01*
X217622729Y-174513871D01*
X217834724Y-174601900D01*
X218064269Y-174602100D01*
X218198000Y-174546843D01*
X218198000Y-174924497D01*
X218197900Y-175039269D01*
X218285558Y-175251417D01*
X218366997Y-175332998D01*
X218366999Y-175333001D01*
X218367002Y-175333003D01*
X218447729Y-175413871D01*
X218659724Y-175501900D01*
X218889269Y-175502100D01*
X219101417Y-175414442D01*
X219182998Y-175333003D01*
X219183001Y-175333001D01*
X219183003Y-175332998D01*
X219263871Y-175252271D01*
X219351900Y-175040276D01*
X219352100Y-174810731D01*
X219352000Y-174810489D01*
X219352000Y-167552000D01*
X221360999Y-167552000D01*
X221391881Y-167582882D01*
X221472729Y-167663871D01*
X221684724Y-167751900D01*
X221799997Y-167752000D01*
X221800000Y-167752001D01*
X221800003Y-167752000D01*
X221914269Y-167752100D01*
X222126417Y-167664442D01*
X222207998Y-167583003D01*
X222208001Y-167583001D01*
X222208003Y-167582998D01*
X222288871Y-167502271D01*
X222376900Y-167290276D01*
X222377000Y-167175003D01*
X222377001Y-167175000D01*
X222377000Y-167174997D01*
X222377100Y-167060731D01*
X222289442Y-166848583D01*
X222127271Y-166686129D01*
X222127031Y-166686029D01*
X222008001Y-166566999D01*
X221820808Y-166441922D01*
X221600000Y-166397999D01*
X221599995Y-166398000D01*
X219352000Y-166398000D01*
X219352000Y-162125000D01*
X219308078Y-161904192D01*
X219183001Y-161716999D01*
X218995808Y-161591922D01*
X218775000Y-161548000D01*
X217860007Y-161548000D01*
X217860002Y-161547999D01*
X217639194Y-161591922D01*
X217452001Y-161716999D01*
X217451999Y-161717002D01*
X216971000Y-162198000D01*
X215689001Y-162198000D01*
X215132426Y-161641424D01*
X215132426Y-160375000D01*
X215113111Y-160272350D01*
X215052445Y-160178073D01*
X214959880Y-160114825D01*
X214850000Y-160092574D01*
X214727000Y-160092574D01*
X214727000Y-160014002D01*
X217658001Y-157083001D01*
X217783078Y-156895808D01*
X217827001Y-156675000D01*
X217827000Y-156674995D01*
X217827000Y-153375005D01*
X217827001Y-153375000D01*
X217783078Y-153154192D01*
X217693788Y-153020559D01*
X217658001Y-152966999D01*
X217657998Y-152966997D01*
X216107426Y-151416424D01*
X216107426Y-150150000D01*
X216088111Y-150047350D01*
X216027445Y-149953073D01*
X215934880Y-149889825D01*
X215825000Y-149867574D01*
X215702000Y-149867574D01*
X215702000Y-146094179D01*
X215736725Y-146059514D01*
X215846875Y-145794245D01*
X215847125Y-145507015D01*
X215737439Y-145241554D01*
X215702000Y-145206053D01*
X215702000Y-141350005D01*
X215702001Y-141350000D01*
X215658078Y-141129192D01*
X215533001Y-140941999D01*
X214583001Y-139991999D01*
X214395808Y-139866922D01*
X214175000Y-139822999D01*
X214174995Y-139823000D01*
X213857426Y-139823000D01*
X213857426Y-139500000D01*
X213838111Y-139397350D01*
X213777445Y-139303073D01*
X213684880Y-139239825D01*
X213575000Y-139217574D01*
X213452000Y-139217574D01*
X213452000Y-137450000D01*
X213408078Y-137229192D01*
X213283001Y-137041999D01*
X213282998Y-137041997D01*
X202152000Y-125910998D01*
X202152000Y-111048191D01*
X203222805Y-111048191D01*
X203394019Y-111462560D01*
X203710772Y-111779867D01*
X204124842Y-111951804D01*
X204573191Y-111952195D01*
X204987560Y-111780981D01*
X205304867Y-111464228D01*
X205476804Y-111050158D01*
X205476971Y-110858093D01*
X211397796Y-110858093D01*
X211576606Y-111290846D01*
X211907412Y-111622230D01*
X212339853Y-111801795D01*
X212808093Y-111802204D01*
X213240846Y-111623394D01*
X213572230Y-111292588D01*
X213751795Y-110860147D01*
X213752204Y-110391907D01*
X213573394Y-109959154D01*
X213242588Y-109627770D01*
X212810147Y-109448205D01*
X212341907Y-109447796D01*
X211909154Y-109626606D01*
X211577770Y-109957412D01*
X211398205Y-110389853D01*
X211397796Y-110858093D01*
X205476971Y-110858093D01*
X205477195Y-110601809D01*
X205305981Y-110187440D01*
X204989228Y-109870133D01*
X204575158Y-109698196D01*
X204126809Y-109697805D01*
X203712440Y-109869019D01*
X203395133Y-110185772D01*
X203223196Y-110599842D01*
X203222805Y-111048191D01*
X202152000Y-111048191D01*
X202152000Y-108919179D01*
X202186725Y-108884514D01*
X202296875Y-108619245D01*
X202297125Y-108332015D01*
X202187439Y-108066554D01*
X201984514Y-107863275D01*
X201719245Y-107753125D01*
X201432015Y-107752875D01*
X201166554Y-107862561D01*
X200963275Y-108065486D01*
X200853125Y-108330755D01*
X200852875Y-108617985D01*
X200962561Y-108883446D01*
X200998000Y-108918947D01*
X200998000Y-126149995D01*
X200997999Y-126150000D01*
X201041922Y-126370808D01*
X201166999Y-126558001D01*
X212298000Y-137689001D01*
X212298000Y-139217574D01*
X212175000Y-139217574D01*
X212072350Y-139236889D01*
X211978073Y-139297555D01*
X211914825Y-139390120D01*
X211892574Y-139500000D01*
X211892574Y-141300000D01*
X211911889Y-141402650D01*
X211972555Y-141496927D01*
X212065120Y-141560175D01*
X212175000Y-141582426D01*
X213575000Y-141582426D01*
X213677650Y-141563111D01*
X213771927Y-141502445D01*
X213835175Y-141409880D01*
X213857426Y-141300000D01*
X213857426Y-140977000D01*
X213935998Y-140977000D01*
X214548000Y-141589002D01*
X214548000Y-145205821D01*
X214513275Y-145240486D01*
X214403125Y-145505755D01*
X214402875Y-145792985D01*
X214512561Y-146058446D01*
X214548000Y-146093947D01*
X214548000Y-149867574D01*
X214425000Y-149867574D01*
X214322350Y-149886889D01*
X214228073Y-149947555D01*
X214164825Y-150040120D01*
X214142574Y-150150000D01*
X214142574Y-151950000D01*
X214161889Y-152052650D01*
X214222555Y-152146927D01*
X214315120Y-152210175D01*
X214425000Y-152232426D01*
X215291424Y-152232426D01*
X216673000Y-153614001D01*
X216673000Y-156435998D01*
X213741999Y-159366999D01*
X213616922Y-159554192D01*
X213572999Y-159775000D01*
X213573000Y-159775005D01*
X213573000Y-160092574D01*
X213450000Y-160092574D01*
X213347350Y-160111889D01*
X213253073Y-160172555D01*
X213189825Y-160265120D01*
X213167574Y-160375000D01*
X213167574Y-162175000D01*
X213186889Y-162277650D01*
X213247555Y-162371927D01*
X213340120Y-162435175D01*
X213450000Y-162457426D01*
X214316424Y-162457426D01*
X215041997Y-163182998D01*
X215041999Y-163183001D01*
X215195045Y-163285262D01*
X215229192Y-163308078D01*
X215450000Y-163352001D01*
X215450005Y-163352000D01*
X217209997Y-163352000D01*
X217210002Y-163352001D01*
X217430810Y-163308078D01*
X217618003Y-163183001D01*
X218099003Y-162702000D01*
X218198000Y-162702000D01*
X218198000Y-173503212D01*
X218065276Y-173448100D01*
X217835731Y-173447900D01*
X217623583Y-173535558D01*
X217507264Y-173651674D01*
X217381464Y-173676697D01*
X217259157Y-173758421D01*
X216769578Y-174248000D01*
X193213991Y-174248000D01*
X193127271Y-174161129D01*
X192915276Y-174073100D01*
X192685731Y-174072900D01*
X192473583Y-174160558D01*
X192311129Y-174322729D01*
X192223100Y-174534724D01*
X192222900Y-174764269D01*
X181655779Y-174764269D01*
X181200507Y-174058632D01*
X180655159Y-173138694D01*
X180194256Y-172289269D01*
X185997900Y-172289269D01*
X186085558Y-172501417D01*
X186247729Y-172663871D01*
X186459724Y-172751900D01*
X186689269Y-172752100D01*
X186901417Y-172664442D01*
X187063871Y-172502271D01*
X187151900Y-172290276D01*
X187152039Y-172131119D01*
X189416579Y-169866579D01*
X189498303Y-169744272D01*
X189527000Y-169600000D01*
X189527000Y-168589269D01*
X192797900Y-168589269D01*
X192885558Y-168801417D01*
X192998000Y-168914055D01*
X192998000Y-170450000D01*
X193026697Y-170594272D01*
X193108421Y-170716579D01*
X193673038Y-171281196D01*
X193672900Y-171439269D01*
X193760558Y-171651417D01*
X193922729Y-171813871D01*
X194134724Y-171901900D01*
X194364269Y-171902100D01*
X194576417Y-171814442D01*
X194738871Y-171652271D01*
X194826900Y-171440276D01*
X194827100Y-171210731D01*
X194739442Y-170998583D01*
X194577271Y-170836129D01*
X194424471Y-170772680D01*
X199575144Y-170772680D01*
X199575144Y-172372680D01*
X199594459Y-172475330D01*
X199655125Y-172569607D01*
X199747690Y-172632855D01*
X199857570Y-172655106D01*
X202037570Y-172655106D01*
X202140220Y-172635791D01*
X202234497Y-172575125D01*
X202297745Y-172482560D01*
X202319996Y-172372680D01*
X202319996Y-171863070D01*
X208427430Y-171863070D01*
X208427430Y-172503630D01*
X208524103Y-172737019D01*
X208702732Y-172915647D01*
X208936121Y-173012320D01*
X209866680Y-173012320D01*
X210025430Y-172853570D01*
X210025430Y-171704320D01*
X210279430Y-171704320D01*
X210279430Y-172853570D01*
X210438180Y-173012320D01*
X211368739Y-173012320D01*
X211602128Y-172915647D01*
X211780757Y-172737019D01*
X211877430Y-172503630D01*
X211877430Y-171863070D01*
X211718680Y-171704320D01*
X210279430Y-171704320D01*
X210025430Y-171704320D01*
X208586180Y-171704320D01*
X208427430Y-171863070D01*
X202319996Y-171863070D01*
X202319996Y-170772680D01*
X202300681Y-170670030D01*
X202288442Y-170651010D01*
X208427430Y-170651010D01*
X208427430Y-171291570D01*
X208586180Y-171450320D01*
X210025430Y-171450320D01*
X210025430Y-170301070D01*
X210279430Y-170301070D01*
X210279430Y-171450320D01*
X211718680Y-171450320D01*
X211877430Y-171291570D01*
X211877430Y-170651010D01*
X211780757Y-170417621D01*
X211602128Y-170238993D01*
X211368739Y-170142320D01*
X210438180Y-170142320D01*
X210279430Y-170301070D01*
X210025430Y-170301070D01*
X209866680Y-170142320D01*
X208936121Y-170142320D01*
X208702732Y-170238993D01*
X208524103Y-170417621D01*
X208427430Y-170651010D01*
X202288442Y-170651010D01*
X202240015Y-170575753D01*
X202147450Y-170512505D01*
X202037570Y-170490254D01*
X201324570Y-170490254D01*
X201324570Y-167814269D01*
X201622900Y-167814269D01*
X201710558Y-168026417D01*
X201872729Y-168188871D01*
X202084724Y-168276900D01*
X202314269Y-168277100D01*
X202526417Y-168189442D01*
X202639055Y-168077000D01*
X212725000Y-168077000D01*
X212869272Y-168048303D01*
X212991579Y-167966579D01*
X213700732Y-167257426D01*
X214850000Y-167257426D01*
X214952650Y-167238111D01*
X215046927Y-167177445D01*
X215110175Y-167084880D01*
X215132426Y-166975000D01*
X215132426Y-165175000D01*
X215113111Y-165072350D01*
X215052445Y-164978073D01*
X214959880Y-164914825D01*
X214850000Y-164892574D01*
X213450000Y-164892574D01*
X213347350Y-164911889D01*
X213253073Y-164972555D01*
X213189825Y-165065120D01*
X213167574Y-165175000D01*
X213167574Y-166724268D01*
X212568842Y-167323000D01*
X212093173Y-167323000D01*
X212185000Y-167101310D01*
X212185000Y-166360750D01*
X212026250Y-166202000D01*
X210977000Y-166202000D01*
X210977000Y-166222000D01*
X210723000Y-166222000D01*
X210723000Y-166202000D01*
X209673750Y-166202000D01*
X209515000Y-166360750D01*
X209515000Y-167101310D01*
X209606827Y-167323000D01*
X202638947Y-167323000D01*
X202527271Y-167211129D01*
X202315276Y-167123100D01*
X202085731Y-167122900D01*
X201873583Y-167210558D01*
X201711129Y-167372729D01*
X201623100Y-167584724D01*
X201622900Y-167814269D01*
X201324570Y-167814269D01*
X201324570Y-166441373D01*
X201438871Y-166327271D01*
X201526900Y-166115276D01*
X201527100Y-165885731D01*
X201439442Y-165673583D01*
X201277271Y-165511129D01*
X201065276Y-165423100D01*
X200835731Y-165422900D01*
X200623583Y-165510558D01*
X200461129Y-165672729D01*
X200373100Y-165884724D01*
X200372900Y-166114269D01*
X200460558Y-166326417D01*
X200570570Y-166436621D01*
X200570570Y-170490254D01*
X199857570Y-170490254D01*
X199754920Y-170509569D01*
X199660643Y-170570235D01*
X199597395Y-170662800D01*
X199575144Y-170772680D01*
X194424471Y-170772680D01*
X194365276Y-170748100D01*
X194206119Y-170747961D01*
X193752000Y-170293842D01*
X193752000Y-168913947D01*
X193863871Y-168802271D01*
X193951900Y-168590276D01*
X193952100Y-168360731D01*
X193864442Y-168148583D01*
X193702271Y-167986129D01*
X193490276Y-167898100D01*
X193260731Y-167897900D01*
X193048583Y-167985558D01*
X192886129Y-168147729D01*
X192798100Y-168359724D01*
X192797900Y-168589269D01*
X189527000Y-168589269D01*
X189527000Y-165588947D01*
X189638871Y-165477271D01*
X189726900Y-165265276D01*
X189727100Y-165035731D01*
X189639442Y-164823583D01*
X189477271Y-164661129D01*
X189265276Y-164573100D01*
X189035731Y-164572900D01*
X188823583Y-164660558D01*
X188661129Y-164822729D01*
X188573100Y-165034724D01*
X188572900Y-165264269D01*
X188660558Y-165476417D01*
X188773000Y-165589055D01*
X188773000Y-169443842D01*
X186618804Y-171598038D01*
X186460731Y-171597900D01*
X186248583Y-171685558D01*
X186086129Y-171847729D01*
X185998100Y-172059724D01*
X185997900Y-172289269D01*
X180194256Y-172289269D01*
X180151385Y-172210260D01*
X179679724Y-171256017D01*
X179250689Y-170297487D01*
X178855637Y-169315603D01*
X178503397Y-168332629D01*
X178186654Y-167328493D01*
X177912398Y-166325646D01*
X177674936Y-165303608D01*
X177479304Y-164284327D01*
X177322054Y-163250638D01*
X177130962Y-161226378D01*
X177074818Y-158869984D01*
X177175662Y-156643395D01*
X177425119Y-154533846D01*
X177817063Y-152528012D01*
X178347790Y-150612915D01*
X179016289Y-148775704D01*
X179824410Y-147003694D01*
X180777271Y-145284002D01*
X181883789Y-143603105D01*
X183157703Y-141945893D01*
X184619612Y-140293915D01*
X186301428Y-138621437D01*
X188197586Y-136936750D01*
X188234869Y-136887507D01*
X188272757Y-136838769D01*
X188273319Y-136836722D01*
X188274602Y-136835028D01*
X188290194Y-136775297D01*
X188306555Y-136715739D01*
X188391089Y-135539560D01*
X188389327Y-135525493D01*
X188391898Y-135511554D01*
X188368704Y-133850330D01*
X188367813Y-133846156D01*
X188368479Y-133841940D01*
X188252614Y-130919709D01*
X188265365Y-129991468D01*
X188337467Y-129144614D01*
X188466896Y-128477060D01*
X188559941Y-128191590D01*
X188642302Y-128036034D01*
X188712015Y-127954036D01*
X188995399Y-127781750D01*
X189027624Y-127769542D01*
X189062114Y-127747992D01*
X189099345Y-127731608D01*
X189115732Y-127714489D01*
X189135827Y-127701933D01*
X189159445Y-127668823D01*
X189187571Y-127639441D01*
X189196159Y-127617354D01*
X189209921Y-127598062D01*
X189219071Y-127558431D01*
X189233811Y-127520525D01*
X189233293Y-127496835D01*
X189238625Y-127473743D01*
X189231912Y-127433626D01*
X189231024Y-127392965D01*
X189221480Y-127371276D01*
X189217569Y-127347904D01*
X189196015Y-127313409D01*
X189179634Y-127276184D01*
X188500417Y-126306224D01*
X187852874Y-125108230D01*
X187252022Y-123665247D01*
X186730460Y-122001337D01*
X186320880Y-120163709D01*
X186168423Y-119207708D01*
X186053615Y-118235085D01*
X185978932Y-117263483D01*
X185944602Y-116289920D01*
X185951255Y-115346409D01*
X185998668Y-114411491D01*
X186083481Y-113528594D01*
X186207909Y-112662834D01*
X186363356Y-111862241D01*
X186556198Y-111084956D01*
X186772733Y-110377738D01*
X187023060Y-109699913D01*
X187431362Y-108803156D01*
X187440579Y-108763952D01*
X187455417Y-108726513D01*
X187455047Y-108702416D01*
X187460563Y-108678954D01*
X187454076Y-108639207D01*
X187453457Y-108598940D01*
X187443892Y-108576816D01*
X187440010Y-108553030D01*
X187418808Y-108518794D01*
X187402826Y-108481827D01*
X187385522Y-108465047D01*
X187372833Y-108444557D01*
X187340143Y-108421041D01*
X187311231Y-108393004D01*
X187288824Y-108384124D01*
X187269260Y-108370050D01*
X187230056Y-108360833D01*
X187192617Y-108345995D01*
X187168520Y-108346365D01*
X187145058Y-108340849D01*
X187105311Y-108347336D01*
X187065044Y-108347955D01*
X185903881Y-108597528D01*
X185902987Y-108597914D01*
X185902014Y-108597935D01*
X184411520Y-108927418D01*
X184398220Y-108933261D01*
X184383777Y-108934842D01*
X184072140Y-109033093D01*
X184049846Y-109045323D01*
X184025295Y-109051950D01*
X183623463Y-109251032D01*
X183614434Y-109257987D01*
X183603659Y-109261707D01*
X183314247Y-109430813D01*
X183060776Y-109523320D01*
X182857883Y-109525475D01*
X182761158Y-109499015D01*
X182675471Y-109452664D01*
X182607146Y-109392478D01*
X182444360Y-109133044D01*
X182290917Y-108646654D01*
X182117946Y-107915104D01*
X182109260Y-107896092D01*
X182105877Y-107875470D01*
X181841701Y-107171420D01*
X181628756Y-106596835D01*
X181515307Y-106071165D01*
X181531009Y-105771209D01*
X181543180Y-105738535D01*
X181706436Y-105544974D01*
X182116228Y-105273195D01*
X182887727Y-104926366D01*
X184060550Y-104506745D01*
X184061399Y-104506236D01*
X184062377Y-104506085D01*
X184110012Y-104488722D01*
X185758403Y-103923298D01*
X185760660Y-103921985D01*
X185763240Y-103921596D01*
X187244694Y-103387325D01*
X187282518Y-103364525D01*
X187322840Y-103346508D01*
X187336698Y-103331865D01*
X187353965Y-103321457D01*
X187380186Y-103285916D01*
X187410543Y-103253841D01*
X187417742Y-103235011D01*
X187429713Y-103218786D01*
X187440337Y-103175915D01*
X187456109Y-103134665D01*
X187455554Y-103114513D01*
X187460404Y-103094943D01*
X187453813Y-103051267D01*
X187452598Y-103007125D01*
X186085491Y-97002577D01*
X191672779Y-97002577D01*
X191866781Y-97472097D01*
X192225693Y-97831637D01*
X192573000Y-97975851D01*
X192573000Y-151175000D01*
X192601697Y-151319272D01*
X192683421Y-151441579D01*
X206973038Y-165731196D01*
X206972900Y-165889269D01*
X207060558Y-166101417D01*
X207222729Y-166263871D01*
X207434724Y-166351900D01*
X207664269Y-166352100D01*
X207876417Y-166264442D01*
X208038871Y-166102271D01*
X208126900Y-165890276D01*
X208127100Y-165660731D01*
X208039442Y-165448583D01*
X207877271Y-165286129D01*
X207665276Y-165198100D01*
X207506119Y-165197961D01*
X207356848Y-165048690D01*
X209515000Y-165048690D01*
X209515000Y-165789250D01*
X209673750Y-165948000D01*
X210723000Y-165948000D01*
X210723000Y-164698750D01*
X210977000Y-164698750D01*
X210977000Y-165948000D01*
X212026250Y-165948000D01*
X212185000Y-165789250D01*
X212185000Y-165048690D01*
X212088327Y-164815301D01*
X211909698Y-164636673D01*
X211676309Y-164540000D01*
X211135750Y-164540000D01*
X210977000Y-164698750D01*
X210723000Y-164698750D01*
X210564250Y-164540000D01*
X210023691Y-164540000D01*
X209790302Y-164636673D01*
X209611673Y-164815301D01*
X209515000Y-165048690D01*
X207356848Y-165048690D01*
X202683158Y-160375000D01*
X209867574Y-160375000D01*
X209867574Y-162175000D01*
X209886889Y-162277650D01*
X209947555Y-162371927D01*
X210040120Y-162435175D01*
X210150000Y-162457426D01*
X211550000Y-162457426D01*
X211652650Y-162438111D01*
X211746927Y-162377445D01*
X211810175Y-162284880D01*
X211832426Y-162175000D01*
X211832426Y-160375000D01*
X211813111Y-160272350D01*
X211752445Y-160178073D01*
X211659880Y-160114825D01*
X211550000Y-160092574D01*
X211227000Y-160092574D01*
X211227000Y-159381158D01*
X214142574Y-156465584D01*
X214142574Y-156750000D01*
X214161889Y-156852650D01*
X214222555Y-156946927D01*
X214315120Y-157010175D01*
X214425000Y-157032426D01*
X215825000Y-157032426D01*
X215927650Y-157013111D01*
X216021927Y-156952445D01*
X216085175Y-156859880D01*
X216107426Y-156750000D01*
X216107426Y-154950000D01*
X216088111Y-154847350D01*
X216027445Y-154753073D01*
X215934880Y-154689825D01*
X215825000Y-154667574D01*
X214425000Y-154667574D01*
X214322350Y-154686889D01*
X214228073Y-154747555D01*
X214164825Y-154840120D01*
X214142574Y-154950000D01*
X214142574Y-155489395D01*
X214080728Y-155501697D01*
X213958421Y-155583421D01*
X213160000Y-156381842D01*
X213160000Y-156135750D01*
X213001250Y-155977000D01*
X211952000Y-155977000D01*
X211952000Y-157226250D01*
X212110750Y-157385000D01*
X212156842Y-157385000D01*
X210583421Y-158958421D01*
X210501697Y-159080728D01*
X210473000Y-159225000D01*
X210473000Y-160092574D01*
X210150000Y-160092574D01*
X210047350Y-160111889D01*
X209953073Y-160172555D01*
X209889825Y-160265120D01*
X209867574Y-160375000D01*
X202683158Y-160375000D01*
X198813371Y-156505213D01*
X203549392Y-156505213D01*
X203618857Y-156747397D01*
X204142302Y-156934144D01*
X204697368Y-156906362D01*
X205081143Y-156747397D01*
X205150608Y-156505213D01*
X204350000Y-155704605D01*
X203549392Y-156505213D01*
X198813371Y-156505213D01*
X197625460Y-155317302D01*
X202940856Y-155317302D01*
X202968638Y-155872368D01*
X203127603Y-156256143D01*
X203369787Y-156325608D01*
X204170395Y-155525000D01*
X204529605Y-155525000D01*
X205330213Y-156325608D01*
X205572397Y-156256143D01*
X205615349Y-156135750D01*
X210490000Y-156135750D01*
X210490000Y-156876310D01*
X210586673Y-157109699D01*
X210765302Y-157288327D01*
X210998691Y-157385000D01*
X211539250Y-157385000D01*
X211698000Y-157226250D01*
X211698000Y-155977000D01*
X210648750Y-155977000D01*
X210490000Y-156135750D01*
X205615349Y-156135750D01*
X205759144Y-155732698D01*
X205731362Y-155177632D01*
X205584755Y-154823690D01*
X210490000Y-154823690D01*
X210490000Y-155564250D01*
X210648750Y-155723000D01*
X211698000Y-155723000D01*
X211698000Y-154473750D01*
X211952000Y-154473750D01*
X211952000Y-155723000D01*
X213001250Y-155723000D01*
X213160000Y-155564250D01*
X213160000Y-154823690D01*
X213063327Y-154590301D01*
X212884698Y-154411673D01*
X212651309Y-154315000D01*
X212110750Y-154315000D01*
X211952000Y-154473750D01*
X211698000Y-154473750D01*
X211539250Y-154315000D01*
X210998691Y-154315000D01*
X210765302Y-154411673D01*
X210586673Y-154590301D01*
X210490000Y-154823690D01*
X205584755Y-154823690D01*
X205572397Y-154793857D01*
X205330213Y-154724392D01*
X204529605Y-155525000D01*
X204170395Y-155525000D01*
X203369787Y-154724392D01*
X203127603Y-154793857D01*
X202940856Y-155317302D01*
X197625460Y-155317302D01*
X196852945Y-154544787D01*
X203549392Y-154544787D01*
X204350000Y-155345395D01*
X205150608Y-154544787D01*
X205081143Y-154302603D01*
X204557698Y-154115856D01*
X204002632Y-154143638D01*
X203618857Y-154302603D01*
X203549392Y-154544787D01*
X196852945Y-154544787D01*
X193327000Y-151018842D01*
X193327000Y-150150000D01*
X210842574Y-150150000D01*
X210842574Y-151950000D01*
X210861889Y-152052650D01*
X210922555Y-152146927D01*
X211015120Y-152210175D01*
X211125000Y-152232426D01*
X212525000Y-152232426D01*
X212627650Y-152213111D01*
X212721927Y-152152445D01*
X212785175Y-152059880D01*
X212807426Y-151950000D01*
X212807426Y-150150000D01*
X212788111Y-150047350D01*
X212727445Y-149953073D01*
X212634880Y-149889825D01*
X212525000Y-149867574D01*
X212202000Y-149867574D01*
X212202000Y-146382426D01*
X213575000Y-146382426D01*
X213677650Y-146363111D01*
X213771927Y-146302445D01*
X213835175Y-146209880D01*
X213857426Y-146100000D01*
X213857426Y-144300000D01*
X213838111Y-144197350D01*
X213777445Y-144103073D01*
X213684880Y-144039825D01*
X213575000Y-144017574D01*
X212175000Y-144017574D01*
X212072350Y-144036889D01*
X211978073Y-144097555D01*
X211914825Y-144190120D01*
X211892574Y-144300000D01*
X211892574Y-144839395D01*
X211830728Y-144851697D01*
X211708421Y-144933421D01*
X211558421Y-145083421D01*
X211476697Y-145205728D01*
X211448000Y-145350000D01*
X211448000Y-149867574D01*
X211125000Y-149867574D01*
X211022350Y-149886889D01*
X210928073Y-149947555D01*
X210864825Y-150040120D01*
X210842574Y-150150000D01*
X193327000Y-150150000D01*
X193327000Y-145485750D01*
X208240000Y-145485750D01*
X208240000Y-146226310D01*
X208336673Y-146459699D01*
X208515302Y-146638327D01*
X208748691Y-146735000D01*
X209289250Y-146735000D01*
X209448000Y-146576250D01*
X209448000Y-145327000D01*
X209702000Y-145327000D01*
X209702000Y-146576250D01*
X209860750Y-146735000D01*
X210401309Y-146735000D01*
X210634698Y-146638327D01*
X210813327Y-146459699D01*
X210910000Y-146226310D01*
X210910000Y-145485750D01*
X210751250Y-145327000D01*
X209702000Y-145327000D01*
X209448000Y-145327000D01*
X208398750Y-145327000D01*
X208240000Y-145485750D01*
X193327000Y-145485750D01*
X193327000Y-144173690D01*
X208240000Y-144173690D01*
X208240000Y-144914250D01*
X208398750Y-145073000D01*
X209448000Y-145073000D01*
X209448000Y-143823750D01*
X209702000Y-143823750D01*
X209702000Y-145073000D01*
X210751250Y-145073000D01*
X210910000Y-144914250D01*
X210910000Y-144173690D01*
X210813327Y-143940301D01*
X210634698Y-143761673D01*
X210401309Y-143665000D01*
X209860750Y-143665000D01*
X209702000Y-143823750D01*
X209448000Y-143823750D01*
X209289250Y-143665000D01*
X208748691Y-143665000D01*
X208515302Y-143761673D01*
X208336673Y-143940301D01*
X208240000Y-144173690D01*
X193327000Y-144173690D01*
X193327000Y-139500000D01*
X208592574Y-139500000D01*
X208592574Y-141300000D01*
X208611889Y-141402650D01*
X208672555Y-141496927D01*
X208765120Y-141560175D01*
X208875000Y-141582426D01*
X210275000Y-141582426D01*
X210377650Y-141563111D01*
X210471927Y-141502445D01*
X210535175Y-141409880D01*
X210557426Y-141300000D01*
X210557426Y-139500000D01*
X210538111Y-139397350D01*
X210477445Y-139303073D01*
X210384880Y-139239825D01*
X210275000Y-139217574D01*
X208875000Y-139217574D01*
X208772350Y-139236889D01*
X208678073Y-139297555D01*
X208614825Y-139390120D01*
X208592574Y-139500000D01*
X193327000Y-139500000D01*
X193327000Y-97975623D01*
X193672417Y-97832899D01*
X194031957Y-97473987D01*
X194226778Y-97004805D01*
X194227221Y-96496783D01*
X194033219Y-96027263D01*
X193674307Y-95667723D01*
X193205125Y-95472902D01*
X192697103Y-95472459D01*
X192227583Y-95666461D01*
X191868043Y-96025373D01*
X191673222Y-96494555D01*
X191672779Y-97002577D01*
X186085491Y-97002577D01*
X186085136Y-97001021D01*
X186084947Y-97000598D01*
X186084933Y-97000134D01*
X184658427Y-90814207D01*
X184655892Y-90808577D01*
X184655476Y-90802414D01*
X184520450Y-90302532D01*
X191977073Y-90302532D01*
X192075736Y-90569387D01*
X192685461Y-90795908D01*
X193335460Y-90771856D01*
X193824264Y-90569387D01*
X193922927Y-90302532D01*
X192950000Y-89329605D01*
X191977073Y-90302532D01*
X184520450Y-90302532D01*
X184326237Y-89583538D01*
X184158268Y-88885461D01*
X191304092Y-88885461D01*
X191328144Y-89535460D01*
X191530613Y-90024264D01*
X191797468Y-90122927D01*
X192770395Y-89150000D01*
X193129605Y-89150000D01*
X194102532Y-90122927D01*
X194369387Y-90024264D01*
X194595908Y-89414539D01*
X194571856Y-88764540D01*
X194369387Y-88275736D01*
X194102532Y-88177073D01*
X193129605Y-89150000D01*
X192770395Y-89150000D01*
X191797468Y-88177073D01*
X191530613Y-88275736D01*
X191304092Y-88885461D01*
X184158268Y-88885461D01*
X184047224Y-88423968D01*
X183980013Y-87997468D01*
X191977073Y-87997468D01*
X192950000Y-88970395D01*
X193922927Y-87997468D01*
X193824264Y-87730613D01*
X193214539Y-87504092D01*
X192564540Y-87528144D01*
X192075736Y-87730613D01*
X191977073Y-87997468D01*
X183980013Y-87997468D01*
X183964026Y-87896022D01*
X183942975Y-87448989D01*
X183966576Y-87244416D01*
X184027596Y-87088747D01*
X184313661Y-86936439D01*
X185067782Y-86697952D01*
X186360895Y-86399065D01*
X186442883Y-86380780D01*
X186443570Y-86380477D01*
X186444323Y-86380456D01*
X191506821Y-85227407D01*
X203347735Y-85227407D01*
X203579717Y-85788846D01*
X204008894Y-86218773D01*
X204569928Y-86451735D01*
X205177407Y-86452265D01*
X205738846Y-86220283D01*
X206168773Y-85791106D01*
X206401735Y-85230072D01*
X206402265Y-84622593D01*
X206170283Y-84061154D01*
X205741106Y-83631227D01*
X205180072Y-83398265D01*
X204572593Y-83397735D01*
X204011154Y-83629717D01*
X203581227Y-84058894D01*
X203348265Y-84619928D01*
X203347735Y-85227407D01*
X191506821Y-85227407D01*
X196472738Y-84096356D01*
X206240030Y-81896896D01*
X206404575Y-81876397D01*
X206532777Y-81886305D01*
M02*
