M48
;DRILL file {KiCad 4.0.4-stable} date 12/07/16 00:33:40
;FORMAT={-:-/ absolute / inch / decimal}
FMAT,2
INCH,TZ
T1C0.016
T2C0.020
T3C0.039
T4C0.040
T5C0.040
T6C0.098
%
G90
G05
M72
T1
X7.1427Y-6.2372
X7.3455Y-6.7785
X7.4469Y-6.502
X7.4764Y-6.0433
X7.5482Y-5.9301
X7.5906Y-6.876
X7.6132Y-6.6329
X7.6476Y-6.7451
X7.9114Y-6.5354
X7.9606Y-6.6024
X8.0384Y-3.9587
X8.0384Y-4.1752
X8.1713Y-6.5266
X8.187Y-5.7185
X8.2726Y-6.1358
X8.3012Y-6.437
X8.5138Y-6.3632
X8.5807Y-6.8514
X8.6132Y-6.8868
X8.6644Y-5.5738
X8.6673Y-5.7244
X8.7323Y-6.5817
X8.7539Y-6.9163
X8.7569Y-6.3917
X8.7835Y-5.6506
X9.0374Y-6.188
T2
X7.936Y-4.2707
X8.4695Y-5.7343
T3
X7.5965Y-3.5098
X7.5965Y-3.809
T4
X8.3691Y-4.3553
T5
X8.0453Y-4.3632
X8.0453Y-6.123
T6
X8.0659Y-3.3435
T0
M30
