G04 #@! TF.FileFunction,Soldermask,Top*
%FSLAX46Y46*%
G04 Gerber Fmt 4.6, Leading zero omitted, Abs format (unit mm)*
G04 Created by KiCad (PCBNEW 4.0.4-stable) date 12/07/16 00:48:56*
%MOMM*%
%LPD*%
G01*
G04 APERTURE LIST*
%ADD10C,0.100000*%
%ADD11C,0.010000*%
%ADD12R,2.180000X1.600000*%
%ADD13R,1.800000X1.400000*%
%ADD14C,2.000000*%
%ADD15C,1.700000*%
%ADD16C,1.524000*%
G04 APERTURE END LIST*
D10*
D11*
G36*
X204564122Y-72296038D02*
X204700181Y-72327286D01*
X204778244Y-72400124D01*
X204816494Y-72473129D01*
X204881416Y-72656374D01*
X204903862Y-72781557D01*
X204942089Y-72915648D01*
X205034808Y-73109405D01*
X205084518Y-73195428D01*
X205210546Y-73414889D01*
X205312627Y-73615296D01*
X205335327Y-73667143D01*
X205419194Y-73848074D01*
X205481704Y-73957428D01*
X205574534Y-74113399D01*
X205603625Y-74170696D01*
X205688680Y-74285766D01*
X205857291Y-74467209D01*
X206081907Y-74688009D01*
X206334977Y-74921150D01*
X206588950Y-75139615D01*
X206606143Y-75153736D01*
X206837494Y-75316356D01*
X207128510Y-75485629D01*
X207331857Y-75586013D01*
X207576962Y-75697215D01*
X207781158Y-75792701D01*
X207888385Y-75845714D01*
X208008343Y-75879778D01*
X208236654Y-75920433D01*
X208537061Y-75961845D01*
X208778066Y-75988897D01*
X209106104Y-76025021D01*
X209386494Y-76060984D01*
X209583745Y-76091942D01*
X209654824Y-76108589D01*
X209735083Y-76177000D01*
X209755239Y-76311989D01*
X209713997Y-76534680D01*
X209610063Y-76866197D01*
X209608026Y-76872088D01*
X209486892Y-77161890D01*
X209326741Y-77408578D01*
X209089942Y-77667786D01*
X209031047Y-77725091D01*
X208718510Y-78017084D01*
X208445280Y-78256780D01*
X208229457Y-78429250D01*
X208089139Y-78519564D01*
X208055933Y-78529428D01*
X207969154Y-78581989D01*
X207829979Y-78716245D01*
X207672127Y-78897059D01*
X207555697Y-79050705D01*
X207490070Y-79226779D01*
X207451350Y-79498108D01*
X207440139Y-79817209D01*
X207457039Y-80136597D01*
X207502649Y-80408788D01*
X207537175Y-80514175D01*
X207729270Y-81036541D01*
X207837533Y-81514698D01*
X207875630Y-82011959D01*
X207876143Y-82084648D01*
X207876143Y-82681245D01*
X207567714Y-82650072D01*
X207307509Y-82645217D01*
X207061362Y-82673205D01*
X207023428Y-82682147D01*
X206858179Y-82748206D01*
X206794722Y-82856576D01*
X206787571Y-82959697D01*
X206754684Y-83130027D01*
X206678714Y-83174000D01*
X206582078Y-83138993D01*
X206569857Y-83109296D01*
X206508353Y-83045408D01*
X206388428Y-82999056D01*
X206252566Y-82942776D01*
X206207000Y-82888098D01*
X206144564Y-82828099D01*
X205995348Y-82776189D01*
X205830500Y-82710503D01*
X205743626Y-82625279D01*
X205645387Y-82531557D01*
X205592420Y-82520857D01*
X205494321Y-82487298D01*
X205481285Y-82457717D01*
X205417997Y-82402753D01*
X205257441Y-82335124D01*
X205154714Y-82303143D01*
X204962153Y-82238119D01*
X204844851Y-82177091D01*
X204828143Y-82154335D01*
X204765666Y-82100485D01*
X204614921Y-82050142D01*
X204610428Y-82049143D01*
X204458072Y-81996483D01*
X204392755Y-81935827D01*
X204392714Y-81934519D01*
X204333848Y-81875224D01*
X204283857Y-81867714D01*
X204187217Y-81902458D01*
X204175000Y-81931924D01*
X204109579Y-81975213D01*
X203940773Y-82019626D01*
X203775857Y-82046003D01*
X203557624Y-82081914D01*
X203412647Y-82122334D01*
X203376714Y-82148643D01*
X203315565Y-82205003D01*
X203164365Y-82277486D01*
X203122714Y-82293261D01*
X202957715Y-82367910D01*
X202872083Y-82435916D01*
X202868714Y-82447217D01*
X202806194Y-82504399D01*
X202655360Y-82556173D01*
X202651000Y-82557143D01*
X202498643Y-82609803D01*
X202433326Y-82670458D01*
X202433285Y-82671766D01*
X202374674Y-82731610D01*
X202328034Y-82738571D01*
X202200040Y-82794194D01*
X202164749Y-82836228D01*
X202058310Y-82916084D01*
X201878178Y-82978021D01*
X201862972Y-82981133D01*
X201674856Y-82995166D01*
X201546125Y-82926174D01*
X201476705Y-82847191D01*
X201284919Y-82697300D01*
X201100044Y-82666000D01*
X200865908Y-82666000D01*
X200857704Y-81896538D01*
X200807927Y-80994495D01*
X200680000Y-80196642D01*
X200585717Y-79835714D01*
X200512418Y-79571639D01*
X200450816Y-79315250D01*
X200438481Y-79255143D01*
X200394244Y-79125887D01*
X200295373Y-78890950D01*
X200153116Y-78573983D01*
X199978722Y-78198632D01*
X199783440Y-77788547D01*
X199578517Y-77367376D01*
X199375204Y-76958768D01*
X199184747Y-76586371D01*
X199033975Y-76302362D01*
X198975024Y-76161073D01*
X198973765Y-76086472D01*
X199058571Y-76060771D01*
X199250185Y-76025886D01*
X199511134Y-75988418D01*
X199579075Y-75979877D01*
X199877787Y-75926718D01*
X200218044Y-75840299D01*
X200566422Y-75732314D01*
X200889499Y-75614459D01*
X201153849Y-75498428D01*
X201326051Y-75395916D01*
X201366463Y-75354479D01*
X201481494Y-75271263D01*
X201527224Y-75263714D01*
X201640886Y-75218684D01*
X201806515Y-75105269D01*
X201877912Y-75046000D01*
X202040726Y-74914829D01*
X202162914Y-74837277D01*
X202191899Y-74828285D01*
X202297069Y-74770727D01*
X202460648Y-74614092D01*
X202664212Y-74382443D01*
X202889335Y-74099839D01*
X203117593Y-73790344D01*
X203330560Y-73478017D01*
X203509811Y-73186920D01*
X203636782Y-72941428D01*
X203696076Y-72806436D01*
X203782178Y-72609744D01*
X203802914Y-72562301D01*
X203877535Y-72408330D01*
X203958609Y-72327629D01*
X204092258Y-72296230D01*
X204324607Y-72290167D01*
X204326637Y-72290158D01*
X204564122Y-72296038D01*
X204564122Y-72296038D01*
G37*
X204564122Y-72296038D02*
X204700181Y-72327286D01*
X204778244Y-72400124D01*
X204816494Y-72473129D01*
X204881416Y-72656374D01*
X204903862Y-72781557D01*
X204942089Y-72915648D01*
X205034808Y-73109405D01*
X205084518Y-73195428D01*
X205210546Y-73414889D01*
X205312627Y-73615296D01*
X205335327Y-73667143D01*
X205419194Y-73848074D01*
X205481704Y-73957428D01*
X205574534Y-74113399D01*
X205603625Y-74170696D01*
X205688680Y-74285766D01*
X205857291Y-74467209D01*
X206081907Y-74688009D01*
X206334977Y-74921150D01*
X206588950Y-75139615D01*
X206606143Y-75153736D01*
X206837494Y-75316356D01*
X207128510Y-75485629D01*
X207331857Y-75586013D01*
X207576962Y-75697215D01*
X207781158Y-75792701D01*
X207888385Y-75845714D01*
X208008343Y-75879778D01*
X208236654Y-75920433D01*
X208537061Y-75961845D01*
X208778066Y-75988897D01*
X209106104Y-76025021D01*
X209386494Y-76060984D01*
X209583745Y-76091942D01*
X209654824Y-76108589D01*
X209735083Y-76177000D01*
X209755239Y-76311989D01*
X209713997Y-76534680D01*
X209610063Y-76866197D01*
X209608026Y-76872088D01*
X209486892Y-77161890D01*
X209326741Y-77408578D01*
X209089942Y-77667786D01*
X209031047Y-77725091D01*
X208718510Y-78017084D01*
X208445280Y-78256780D01*
X208229457Y-78429250D01*
X208089139Y-78519564D01*
X208055933Y-78529428D01*
X207969154Y-78581989D01*
X207829979Y-78716245D01*
X207672127Y-78897059D01*
X207555697Y-79050705D01*
X207490070Y-79226779D01*
X207451350Y-79498108D01*
X207440139Y-79817209D01*
X207457039Y-80136597D01*
X207502649Y-80408788D01*
X207537175Y-80514175D01*
X207729270Y-81036541D01*
X207837533Y-81514698D01*
X207875630Y-82011959D01*
X207876143Y-82084648D01*
X207876143Y-82681245D01*
X207567714Y-82650072D01*
X207307509Y-82645217D01*
X207061362Y-82673205D01*
X207023428Y-82682147D01*
X206858179Y-82748206D01*
X206794722Y-82856576D01*
X206787571Y-82959697D01*
X206754684Y-83130027D01*
X206678714Y-83174000D01*
X206582078Y-83138993D01*
X206569857Y-83109296D01*
X206508353Y-83045408D01*
X206388428Y-82999056D01*
X206252566Y-82942776D01*
X206207000Y-82888098D01*
X206144564Y-82828099D01*
X205995348Y-82776189D01*
X205830500Y-82710503D01*
X205743626Y-82625279D01*
X205645387Y-82531557D01*
X205592420Y-82520857D01*
X205494321Y-82487298D01*
X205481285Y-82457717D01*
X205417997Y-82402753D01*
X205257441Y-82335124D01*
X205154714Y-82303143D01*
X204962153Y-82238119D01*
X204844851Y-82177091D01*
X204828143Y-82154335D01*
X204765666Y-82100485D01*
X204614921Y-82050142D01*
X204610428Y-82049143D01*
X204458072Y-81996483D01*
X204392755Y-81935827D01*
X204392714Y-81934519D01*
X204333848Y-81875224D01*
X204283857Y-81867714D01*
X204187217Y-81902458D01*
X204175000Y-81931924D01*
X204109579Y-81975213D01*
X203940773Y-82019626D01*
X203775857Y-82046003D01*
X203557624Y-82081914D01*
X203412647Y-82122334D01*
X203376714Y-82148643D01*
X203315565Y-82205003D01*
X203164365Y-82277486D01*
X203122714Y-82293261D01*
X202957715Y-82367910D01*
X202872083Y-82435916D01*
X202868714Y-82447217D01*
X202806194Y-82504399D01*
X202655360Y-82556173D01*
X202651000Y-82557143D01*
X202498643Y-82609803D01*
X202433326Y-82670458D01*
X202433285Y-82671766D01*
X202374674Y-82731610D01*
X202328034Y-82738571D01*
X202200040Y-82794194D01*
X202164749Y-82836228D01*
X202058310Y-82916084D01*
X201878178Y-82978021D01*
X201862972Y-82981133D01*
X201674856Y-82995166D01*
X201546125Y-82926174D01*
X201476705Y-82847191D01*
X201284919Y-82697300D01*
X201100044Y-82666000D01*
X200865908Y-82666000D01*
X200857704Y-81896538D01*
X200807927Y-80994495D01*
X200680000Y-80196642D01*
X200585717Y-79835714D01*
X200512418Y-79571639D01*
X200450816Y-79315250D01*
X200438481Y-79255143D01*
X200394244Y-79125887D01*
X200295373Y-78890950D01*
X200153116Y-78573983D01*
X199978722Y-78198632D01*
X199783440Y-77788547D01*
X199578517Y-77367376D01*
X199375204Y-76958768D01*
X199184747Y-76586371D01*
X199033975Y-76302362D01*
X198975024Y-76161073D01*
X198973765Y-76086472D01*
X199058571Y-76060771D01*
X199250185Y-76025886D01*
X199511134Y-75988418D01*
X199579075Y-75979877D01*
X199877787Y-75926718D01*
X200218044Y-75840299D01*
X200566422Y-75732314D01*
X200889499Y-75614459D01*
X201153849Y-75498428D01*
X201326051Y-75395916D01*
X201366463Y-75354479D01*
X201481494Y-75271263D01*
X201527224Y-75263714D01*
X201640886Y-75218684D01*
X201806515Y-75105269D01*
X201877912Y-75046000D01*
X202040726Y-74914829D01*
X202162914Y-74837277D01*
X202191899Y-74828285D01*
X202297069Y-74770727D01*
X202460648Y-74614092D01*
X202664212Y-74382443D01*
X202889335Y-74099839D01*
X203117593Y-73790344D01*
X203330560Y-73478017D01*
X203509811Y-73186920D01*
X203636782Y-72941428D01*
X203696076Y-72806436D01*
X203782178Y-72609744D01*
X203802914Y-72562301D01*
X203877535Y-72408330D01*
X203958609Y-72327629D01*
X204092258Y-72296230D01*
X204324607Y-72290167D01*
X204326637Y-72290158D01*
X204564122Y-72296038D01*
D12*
X210152430Y-171577320D03*
X200947570Y-171572680D03*
D13*
X170800000Y-161300000D03*
X170800000Y-158000000D03*
X166000000Y-158000000D03*
X166000000Y-161300000D03*
X187175000Y-143800000D03*
X187175000Y-140500000D03*
X182375000Y-140500000D03*
X182375000Y-143800000D03*
X233250000Y-150200000D03*
X233250000Y-146900000D03*
X228450000Y-146900000D03*
X228450000Y-150200000D03*
X196125000Y-123100000D03*
X196125000Y-119800000D03*
X191325000Y-119800000D03*
X191325000Y-123100000D03*
X218050000Y-127475000D03*
X218050000Y-124175000D03*
X213250000Y-124175000D03*
X213250000Y-127475000D03*
X209125000Y-100975000D03*
X209125000Y-104275000D03*
X213925000Y-104275000D03*
X213925000Y-100975000D03*
D14*
X223625000Y-139625160D03*
X223625000Y-147224840D03*
D15*
X204425000Y-93945000D03*
D16*
X204425000Y-138645000D03*
M02*
