G04 #@! TF.FileFunction,Copper,L1,Top,Signal*
%FSLAX46Y46*%
G04 Gerber Fmt 4.6, Leading zero omitted, Abs format (unit mm)*
G04 Created by KiCad (PCBNEW 4.0.4-stable) date 12/07/16 00:48:56*
%MOMM*%
%LPD*%
G01*
G04 APERTURE LIST*
%ADD10C,0.100000*%
%ADD11R,2.180000X1.600000*%
%ADD12R,1.800000X1.400000*%
%ADD13C,2.000000*%
%ADD14C,1.700000*%
%ADD15C,1.524000*%
%ADD16C,2.500000*%
%ADD17C,0.600000*%
%ADD18C,0.400000*%
%ADD19C,0.200000*%
%ADD20C,0.254000*%
G04 APERTURE END LIST*
D10*
D11*
X210152430Y-171577320D03*
X200947570Y-171572680D03*
D12*
X170800000Y-161300000D03*
X170800000Y-158000000D03*
X166000000Y-158000000D03*
X166000000Y-161300000D03*
X187175000Y-143800000D03*
X187175000Y-140500000D03*
X182375000Y-140500000D03*
X182375000Y-143800000D03*
X233250000Y-150200000D03*
X233250000Y-146900000D03*
X228450000Y-146900000D03*
X228450000Y-150200000D03*
X196125000Y-123100000D03*
X196125000Y-119800000D03*
X191325000Y-119800000D03*
X191325000Y-123100000D03*
X218050000Y-127475000D03*
X218050000Y-124175000D03*
X213250000Y-124175000D03*
X213250000Y-127475000D03*
X209125000Y-100975000D03*
X209125000Y-104275000D03*
X213925000Y-104275000D03*
X213925000Y-100975000D03*
D13*
X223625000Y-139625160D03*
X223625000Y-147224840D03*
D14*
X204425000Y-93945000D03*
D15*
X204425000Y-138645000D03*
D16*
X204325000Y-76175000D03*
D17*
X248350000Y-158175000D03*
X250025000Y-160575000D03*
X222425000Y-162350000D03*
X211075000Y-162325000D03*
X216250000Y-161625000D03*
X191725000Y-150625000D03*
X189900000Y-153500000D03*
X181425000Y-158425000D03*
X164200000Y-158025000D03*
X180475000Y-140500000D03*
X187250000Y-128450000D03*
X187225000Y-131750000D03*
X191575000Y-129025000D03*
X187000000Y-130000000D03*
X191250000Y-117925000D03*
X226625000Y-146875000D03*
X229550000Y-157175000D03*
X234900000Y-150100000D03*
X217975000Y-129875000D03*
X196175000Y-124925000D03*
X189475000Y-146250000D03*
X173350000Y-161200000D03*
X189150000Y-165150000D03*
X186575000Y-172175000D03*
X192800000Y-174650000D03*
X217950000Y-174025000D03*
X195250000Y-167725000D03*
X245650000Y-159600000D03*
X216150000Y-173025000D03*
X244600000Y-159775000D03*
X215550000Y-175850000D03*
X194250000Y-171325000D03*
X193375000Y-168475000D03*
X200950000Y-166000000D03*
D18*
X166000000Y-158000000D02*
X164225000Y-158000000D01*
X164225000Y-158000000D02*
X164200000Y-158025000D01*
X182375000Y-140500000D02*
X180475000Y-140500000D01*
X191325000Y-119800000D02*
X191325000Y-118000000D01*
X191325000Y-118000000D02*
X191250000Y-117925000D01*
X228450000Y-146900000D02*
X226650000Y-146900000D01*
X226650000Y-146900000D02*
X226625000Y-146875000D01*
X196125000Y-123100000D02*
X196125000Y-122000000D01*
X196125000Y-122000000D02*
X194874999Y-120749999D01*
X194874999Y-120749999D02*
X194874999Y-116325001D01*
X194874999Y-116325001D02*
X209125000Y-102075000D01*
X209125000Y-102075000D02*
X209125000Y-100975000D01*
X234900000Y-150100000D02*
X233350000Y-150100000D01*
X233350000Y-150100000D02*
X233250000Y-150200000D01*
X217975000Y-129875000D02*
X217975000Y-127550000D01*
X217975000Y-127550000D02*
X218050000Y-127475000D01*
X196175000Y-124925000D02*
X196175000Y-123150000D01*
X196175000Y-123150000D02*
X196125000Y-123100000D01*
X187175000Y-143800000D02*
X187175000Y-143950000D01*
X187175000Y-143950000D02*
X189475000Y-146250000D01*
X173350000Y-161200000D02*
X170900000Y-161200000D01*
X170900000Y-161200000D02*
X170800000Y-161300000D01*
D19*
X186575000Y-172175000D02*
X189150000Y-169600000D01*
X189150000Y-169600000D02*
X189150000Y-165150000D01*
X216925736Y-174625000D02*
X192825000Y-174625000D01*
X192825000Y-174625000D02*
X192800000Y-174650000D01*
X217950000Y-174025000D02*
X217525736Y-174025000D01*
X217525736Y-174025000D02*
X216925736Y-174625000D01*
D18*
X170800000Y-158000000D02*
X170800000Y-155175000D01*
X170800000Y-155175000D02*
X182175000Y-143800000D01*
X182175000Y-143800000D02*
X182375000Y-143800000D01*
X195250000Y-167725000D02*
X194825736Y-167725000D01*
X194825736Y-167725000D02*
X189450737Y-162350001D01*
X189450737Y-162350001D02*
X168350001Y-162350001D01*
X168350001Y-162350001D02*
X167300000Y-161300000D01*
X167300000Y-161300000D02*
X166000000Y-161300000D01*
X187175000Y-140500000D02*
X188475000Y-140500000D01*
X188475000Y-140500000D02*
X198175000Y-150200000D01*
X198175000Y-150200000D02*
X227150000Y-150200000D01*
X227150000Y-150200000D02*
X228450000Y-150200000D01*
X233250000Y-146900000D02*
X233050000Y-146900000D01*
X233050000Y-146900000D02*
X214675001Y-128525001D01*
X214675001Y-128525001D02*
X198050001Y-128525001D01*
X198050001Y-128525001D02*
X192625000Y-123100000D01*
X192625000Y-123100000D02*
X191325000Y-123100000D01*
X196125000Y-119800000D02*
X206675000Y-119800000D01*
X206675000Y-119800000D02*
X213250000Y-126375000D01*
X213250000Y-126375000D02*
X213250000Y-127475000D01*
X218050000Y-124175000D02*
X218050000Y-104900000D01*
X218050000Y-104900000D02*
X214125000Y-100975000D01*
X214125000Y-100975000D02*
X213925000Y-100975000D01*
D19*
X242300000Y-159025000D02*
X245075000Y-159025000D01*
X245075000Y-159025000D02*
X245650000Y-159600000D01*
X228599999Y-172725001D02*
X242300000Y-159025000D01*
X216150000Y-173025000D02*
X216449999Y-172725001D01*
X216449999Y-172725001D02*
X228599999Y-172725001D01*
X242575000Y-160125000D02*
X244250000Y-160125000D01*
X244250000Y-160125000D02*
X244600000Y-159775000D01*
X229325000Y-173375000D02*
X242575000Y-160125000D01*
X222700000Y-173375000D02*
X229325000Y-173375000D01*
X220524999Y-175550001D02*
X222700000Y-173375000D01*
X215550000Y-175850000D02*
X215849999Y-175550001D01*
X215849999Y-175550001D02*
X220524999Y-175550001D01*
X193375000Y-168475000D02*
X193375000Y-170450000D01*
X193375000Y-170450000D02*
X194250000Y-171325000D01*
X200947570Y-171572680D02*
X200947570Y-166002430D01*
X200947570Y-166002430D02*
X200950000Y-166000000D01*
D20*
G36*
X204881907Y-71976852D02*
X204887716Y-71987921D01*
X204889782Y-72000251D01*
X205085446Y-72516304D01*
X205092480Y-72527554D01*
X205095714Y-72540422D01*
X205312396Y-72997606D01*
X205320692Y-73008773D01*
X205325205Y-73021934D01*
X205572978Y-73448035D01*
X205582561Y-73458895D01*
X205588441Y-73472134D01*
X205855745Y-73851117D01*
X205866500Y-73861343D01*
X205873715Y-73874311D01*
X206170520Y-74223813D01*
X206182345Y-74233189D01*
X206190852Y-74245651D01*
X206508792Y-74557343D01*
X206521409Y-74565593D01*
X206531006Y-74577218D01*
X206877769Y-74860100D01*
X206897412Y-74870525D01*
X206913748Y-74885612D01*
X207687766Y-75359428D01*
X207714032Y-75369104D01*
X207737518Y-75384334D01*
X208636459Y-75742290D01*
X208661447Y-75746904D01*
X208684643Y-75757286D01*
X209729786Y-75995918D01*
X209750662Y-75996505D01*
X209770650Y-76002560D01*
X210536650Y-76077703D01*
X210539256Y-76103365D01*
X210531349Y-76331268D01*
X210423022Y-76748755D01*
X210199818Y-77115743D01*
X209813327Y-77499294D01*
X209149726Y-77983560D01*
X208743444Y-78273520D01*
X208733672Y-78283913D01*
X208721221Y-78290874D01*
X208358871Y-78599880D01*
X208340320Y-78623376D01*
X208317267Y-78642484D01*
X208034453Y-78990552D01*
X208012384Y-79032330D01*
X207986134Y-79071614D01*
X207817075Y-79479726D01*
X207807421Y-79528254D01*
X207793482Y-79575723D01*
X207744669Y-80121133D01*
X207749339Y-80164577D01*
X207748549Y-80208268D01*
X207843985Y-80737931D01*
X207853731Y-80762719D01*
X207857551Y-80789076D01*
X208105891Y-81490536D01*
X208264785Y-82034533D01*
X208327717Y-82670211D01*
X208290877Y-83110710D01*
X208126457Y-83130086D01*
X207534550Y-83139362D01*
X207519521Y-83142597D01*
X207504206Y-83141251D01*
X207457595Y-83155927D01*
X207409818Y-83166211D01*
X207397169Y-83174952D01*
X207382507Y-83179569D01*
X207221313Y-83267918D01*
X207214331Y-83273772D01*
X207205799Y-83276983D01*
X207165670Y-83314569D01*
X207123541Y-83349890D01*
X207119329Y-83357974D01*
X207112678Y-83364203D01*
X207089987Y-83414284D01*
X207064581Y-83463040D01*
X207063783Y-83472117D01*
X207060021Y-83480420D01*
X207058223Y-83535377D01*
X207053409Y-83590139D01*
X207056146Y-83598832D01*
X207055848Y-83607941D01*
X207075218Y-83659404D01*
X207091727Y-83711838D01*
X207097581Y-83718820D01*
X207100792Y-83727352D01*
X208555801Y-86067150D01*
X208562227Y-86074011D01*
X208566030Y-86082603D01*
X210164944Y-88355689D01*
X210171638Y-88362070D01*
X210175846Y-88370304D01*
X211926548Y-90585636D01*
X211933424Y-90591494D01*
X211937964Y-90599299D01*
X213850707Y-92765971D01*
X213857663Y-92771272D01*
X213862455Y-92778593D01*
X215950391Y-94906278D01*
X215957334Y-94911012D01*
X215962285Y-94917799D01*
X218242284Y-97017195D01*
X218249111Y-97021360D01*
X218254132Y-97027589D01*
X220748105Y-99111145D01*
X220754718Y-99114754D01*
X220759708Y-99120400D01*
X223496739Y-101203638D01*
X223503038Y-101206714D01*
X223507900Y-101211767D01*
X226528286Y-103315389D01*
X226532650Y-103317296D01*
X226536047Y-103320630D01*
X227811977Y-104156058D01*
X227533688Y-104689488D01*
X227091815Y-105448003D01*
X226640935Y-106142647D01*
X226160986Y-106807445D01*
X225670949Y-107418231D01*
X225152453Y-107999991D01*
X224621819Y-108535713D01*
X224062890Y-109042949D01*
X223488807Y-109510427D01*
X222886221Y-109949597D01*
X222264527Y-110353668D01*
X221613741Y-110729196D01*
X220939091Y-111072737D01*
X220230749Y-111388654D01*
X220213891Y-111395653D01*
X220188440Y-111412689D01*
X220160043Y-111424154D01*
X220135940Y-111447829D01*
X220107862Y-111466623D01*
X220090868Y-111492101D01*
X220069020Y-111513561D01*
X220055810Y-111544660D01*
X220037063Y-111572767D01*
X220031113Y-111602805D01*
X220019139Y-111630996D01*
X220018837Y-111664784D01*
X220012272Y-111697925D01*
X220018271Y-111727958D01*
X220017997Y-111758581D01*
X220030646Y-111789908D01*
X220037264Y-111823042D01*
X220054300Y-111848493D01*
X220065765Y-111876890D01*
X221045532Y-113372036D01*
X221055436Y-113382119D01*
X221061827Y-113394726D01*
X222189772Y-114831555D01*
X222200070Y-114840387D01*
X222207176Y-114851946D01*
X223498955Y-116245409D01*
X223509290Y-116252896D01*
X223516792Y-116263221D01*
X224995521Y-117630180D01*
X225005519Y-117636307D01*
X225013066Y-117645283D01*
X226713551Y-119007313D01*
X226722833Y-119012133D01*
X226730054Y-119019697D01*
X228708234Y-120408842D01*
X228716378Y-120412439D01*
X228722860Y-120418537D01*
X231081396Y-121892475D01*
X231087791Y-121894898D01*
X231092964Y-121899378D01*
X234074196Y-123595865D01*
X234077137Y-123596843D01*
X234079515Y-123598826D01*
X238759016Y-126147593D01*
X241774667Y-127883790D01*
X241416767Y-128744136D01*
X240813141Y-129812844D01*
X240037182Y-130890260D01*
X239020250Y-132059070D01*
X237541298Y-133568872D01*
X237540962Y-133569386D01*
X237540458Y-133569733D01*
X236377814Y-134765397D01*
X236372334Y-134773852D01*
X236364398Y-134780060D01*
X235273608Y-136047546D01*
X235268700Y-136056234D01*
X235261223Y-136062845D01*
X235237476Y-136111499D01*
X235210848Y-136158631D01*
X235209638Y-136168536D01*
X235205260Y-136177506D01*
X235201940Y-136231545D01*
X235195376Y-136285279D01*
X235198049Y-136294894D01*
X235197437Y-136304856D01*
X235215050Y-136356052D01*
X235229548Y-136408208D01*
X235235696Y-136416068D01*
X235238943Y-136425505D01*
X236265890Y-138187537D01*
X236274276Y-138197021D01*
X236279295Y-138208638D01*
X237444853Y-139897214D01*
X237453767Y-139905862D01*
X237459534Y-139916864D01*
X238772583Y-141543290D01*
X238781820Y-141550995D01*
X238788164Y-141561217D01*
X240261462Y-143136869D01*
X240270790Y-143143566D01*
X240277509Y-143152881D01*
X241928541Y-144689800D01*
X241937731Y-144695476D01*
X241944610Y-144703810D01*
X243797576Y-146215803D01*
X243806401Y-146220488D01*
X243813212Y-146227795D01*
X245902339Y-147732343D01*
X245910569Y-147736095D01*
X245917086Y-147742364D01*
X248293795Y-149264452D01*
X248301188Y-149267347D01*
X248307168Y-149272572D01*
X251056802Y-150853336D01*
X251063055Y-150855446D01*
X251068193Y-150859587D01*
X254358003Y-152580755D01*
X254362554Y-152582092D01*
X254366334Y-152584964D01*
X258648255Y-154671764D01*
X258649720Y-154672149D01*
X258650932Y-154673053D01*
X261156597Y-155866138D01*
X261177507Y-155964031D01*
X261189385Y-156159710D01*
X261121196Y-156537317D01*
X260934014Y-156888011D01*
X260580230Y-157273631D01*
X259964182Y-157759537D01*
X259518384Y-158094072D01*
X259516258Y-158096445D01*
X259513412Y-158097878D01*
X258030994Y-159255334D01*
X256518771Y-160385183D01*
X254979475Y-161485278D01*
X253407998Y-162559068D01*
X251809767Y-163602629D01*
X250179761Y-164619021D01*
X248523344Y-165604673D01*
X246835489Y-166562349D01*
X245121500Y-167488776D01*
X243376421Y-168386400D01*
X241605367Y-169252308D01*
X239803618Y-170088563D01*
X237976098Y-170892584D01*
X236118065Y-171666186D01*
X234234363Y-172407047D01*
X232320596Y-173116604D01*
X230381124Y-173792922D01*
X228411799Y-174437143D01*
X226416843Y-175047559D01*
X224392332Y-175625027D01*
X222342107Y-176168120D01*
X220262642Y-176677438D01*
X218157298Y-177151779D01*
X216022456Y-177591610D01*
X214417206Y-177898350D01*
X195276365Y-178114595D01*
X193341127Y-177922725D01*
X189548085Y-177428028D01*
X185895357Y-176793422D01*
X182371509Y-176021979D01*
X182154630Y-175964269D01*
X214972900Y-175964269D01*
X215060558Y-176176417D01*
X215222729Y-176338871D01*
X215434724Y-176426900D01*
X215664269Y-176427100D01*
X215876417Y-176339442D01*
X216038871Y-176177271D01*
X216126900Y-175965276D01*
X216126933Y-175927001D01*
X220524999Y-175927001D01*
X220669271Y-175898304D01*
X220791578Y-175816580D01*
X222856158Y-173752000D01*
X229325000Y-173752000D01*
X229469272Y-173723303D01*
X229591579Y-173641579D01*
X242731158Y-160502000D01*
X244250000Y-160502000D01*
X244394272Y-160473303D01*
X244516579Y-160391579D01*
X244556196Y-160351962D01*
X244714269Y-160352100D01*
X244926417Y-160264442D01*
X245088871Y-160102271D01*
X245161501Y-159927361D01*
X245322729Y-160088871D01*
X245534724Y-160176900D01*
X245764269Y-160177100D01*
X245976417Y-160089442D01*
X246138871Y-159927271D01*
X246226900Y-159715276D01*
X246227100Y-159485731D01*
X246139442Y-159273583D01*
X245977271Y-159111129D01*
X245765276Y-159023100D01*
X245606119Y-159022961D01*
X245341579Y-158758421D01*
X245219272Y-158676697D01*
X245075000Y-158648000D01*
X242300000Y-158648000D01*
X242177492Y-158672368D01*
X242155728Y-158676697D01*
X242033421Y-158758421D01*
X228443841Y-172348001D01*
X216449999Y-172348001D01*
X216305727Y-172376698D01*
X216261995Y-172405919D01*
X216198953Y-172448042D01*
X216035731Y-172447900D01*
X215823583Y-172535558D01*
X215661129Y-172697729D01*
X215573100Y-172909724D01*
X215572900Y-173139269D01*
X215660558Y-173351417D01*
X215822729Y-173513871D01*
X216034724Y-173601900D01*
X216264269Y-173602100D01*
X216476417Y-173514442D01*
X216638871Y-173352271D01*
X216726900Y-173140276D01*
X216726933Y-173102001D01*
X222443029Y-173102001D01*
X222433421Y-173108421D01*
X220368841Y-175173001D01*
X215849999Y-175173001D01*
X215705727Y-175201698D01*
X215668010Y-175226900D01*
X215598953Y-175273042D01*
X215435731Y-175272900D01*
X215223583Y-175360558D01*
X215061129Y-175522729D01*
X214973100Y-175734724D01*
X214972900Y-175964269D01*
X182154630Y-175964269D01*
X178966997Y-175116065D01*
X177851486Y-174764269D01*
X192222900Y-174764269D01*
X192310558Y-174976417D01*
X192472729Y-175138871D01*
X192684724Y-175226900D01*
X192914269Y-175227100D01*
X193126417Y-175139442D01*
X193264099Y-175002000D01*
X216925736Y-175002000D01*
X217070008Y-174973303D01*
X217192315Y-174891579D01*
X217596399Y-174487495D01*
X217622729Y-174513871D01*
X217834724Y-174601900D01*
X218064269Y-174602100D01*
X218276417Y-174514442D01*
X218438871Y-174352271D01*
X218526900Y-174140276D01*
X218527100Y-173910731D01*
X218439442Y-173698583D01*
X218277271Y-173536129D01*
X218065276Y-173448100D01*
X217835731Y-173447900D01*
X217623583Y-173535558D01*
X217507264Y-173651674D01*
X217381464Y-173676697D01*
X217259157Y-173758421D01*
X216769578Y-174248000D01*
X193213991Y-174248000D01*
X193127271Y-174161129D01*
X192915276Y-174073100D01*
X192685731Y-174072900D01*
X192473583Y-174160558D01*
X192311129Y-174322729D01*
X192223100Y-174534724D01*
X192222900Y-174764269D01*
X177851486Y-174764269D01*
X175672479Y-174077081D01*
X172478864Y-172905406D01*
X171014516Y-172289269D01*
X185997900Y-172289269D01*
X186085558Y-172501417D01*
X186247729Y-172663871D01*
X186459724Y-172751900D01*
X186689269Y-172752100D01*
X186901417Y-172664442D01*
X187063871Y-172502271D01*
X187151900Y-172290276D01*
X187152039Y-172131119D01*
X189416579Y-169866579D01*
X189498303Y-169744272D01*
X189527000Y-169600000D01*
X189527000Y-168589269D01*
X192797900Y-168589269D01*
X192885558Y-168801417D01*
X192998000Y-168914055D01*
X192998000Y-170450000D01*
X193026697Y-170594272D01*
X193108421Y-170716579D01*
X193673038Y-171281196D01*
X193672900Y-171439269D01*
X193760558Y-171651417D01*
X193922729Y-171813871D01*
X194134724Y-171901900D01*
X194364269Y-171902100D01*
X194576417Y-171814442D01*
X194738871Y-171652271D01*
X194826900Y-171440276D01*
X194827100Y-171210731D01*
X194739442Y-170998583D01*
X194577271Y-170836129D01*
X194424471Y-170772680D01*
X199575144Y-170772680D01*
X199575144Y-172372680D01*
X199594459Y-172475330D01*
X199655125Y-172569607D01*
X199747690Y-172632855D01*
X199857570Y-172655106D01*
X202037570Y-172655106D01*
X202140220Y-172635791D01*
X202234497Y-172575125D01*
X202297745Y-172482560D01*
X202319996Y-172372680D01*
X202319996Y-171863070D01*
X208427430Y-171863070D01*
X208427430Y-172503630D01*
X208524103Y-172737019D01*
X208702732Y-172915647D01*
X208936121Y-173012320D01*
X209866680Y-173012320D01*
X210025430Y-172853570D01*
X210025430Y-171704320D01*
X210279430Y-171704320D01*
X210279430Y-172853570D01*
X210438180Y-173012320D01*
X211368739Y-173012320D01*
X211602128Y-172915647D01*
X211780757Y-172737019D01*
X211877430Y-172503630D01*
X211877430Y-171863070D01*
X211718680Y-171704320D01*
X210279430Y-171704320D01*
X210025430Y-171704320D01*
X208586180Y-171704320D01*
X208427430Y-171863070D01*
X202319996Y-171863070D01*
X202319996Y-170772680D01*
X202300681Y-170670030D01*
X202288442Y-170651010D01*
X208427430Y-170651010D01*
X208427430Y-171291570D01*
X208586180Y-171450320D01*
X210025430Y-171450320D01*
X210025430Y-170301070D01*
X210279430Y-170301070D01*
X210279430Y-171450320D01*
X211718680Y-171450320D01*
X211877430Y-171291570D01*
X211877430Y-170651010D01*
X211780757Y-170417621D01*
X211602128Y-170238993D01*
X211368739Y-170142320D01*
X210438180Y-170142320D01*
X210279430Y-170301070D01*
X210025430Y-170301070D01*
X209866680Y-170142320D01*
X208936121Y-170142320D01*
X208702732Y-170238993D01*
X208524103Y-170417621D01*
X208427430Y-170651010D01*
X202288442Y-170651010D01*
X202240015Y-170575753D01*
X202147450Y-170512505D01*
X202037570Y-170490254D01*
X201324570Y-170490254D01*
X201324570Y-166441373D01*
X201438871Y-166327271D01*
X201526900Y-166115276D01*
X201527100Y-165885731D01*
X201439442Y-165673583D01*
X201277271Y-165511129D01*
X201065276Y-165423100D01*
X200835731Y-165422900D01*
X200623583Y-165510558D01*
X200461129Y-165672729D01*
X200373100Y-165884724D01*
X200372900Y-166114269D01*
X200460558Y-166326417D01*
X200570570Y-166436621D01*
X200570570Y-170490254D01*
X199857570Y-170490254D01*
X199754920Y-170509569D01*
X199660643Y-170570235D01*
X199597395Y-170662800D01*
X199575144Y-170772680D01*
X194424471Y-170772680D01*
X194365276Y-170748100D01*
X194206119Y-170747961D01*
X193752000Y-170293842D01*
X193752000Y-168913947D01*
X193863871Y-168802271D01*
X193951900Y-168590276D01*
X193952100Y-168360731D01*
X193864442Y-168148583D01*
X193702271Y-167986129D01*
X193490276Y-167898100D01*
X193260731Y-167897900D01*
X193048583Y-167985558D01*
X192886129Y-168147729D01*
X192798100Y-168359724D01*
X192797900Y-168589269D01*
X189527000Y-168589269D01*
X189527000Y-165588947D01*
X189638871Y-165477271D01*
X189726900Y-165265276D01*
X189727100Y-165035731D01*
X189639442Y-164823583D01*
X189477271Y-164661129D01*
X189265276Y-164573100D01*
X189035731Y-164572900D01*
X188823583Y-164660558D01*
X188661129Y-164822729D01*
X188573100Y-165034724D01*
X188572900Y-165264269D01*
X188660558Y-165476417D01*
X188773000Y-165589055D01*
X188773000Y-169443842D01*
X186618804Y-171598038D01*
X186460731Y-171597900D01*
X186248583Y-171685558D01*
X186086129Y-171847729D01*
X185998100Y-172059724D01*
X185997900Y-172289269D01*
X171014516Y-172289269D01*
X169377184Y-171600348D01*
X166358585Y-170160028D01*
X163414375Y-168581365D01*
X160535719Y-166859858D01*
X157713672Y-164989443D01*
X154939007Y-162962328D01*
X152201912Y-160768564D01*
X152009387Y-160600000D01*
X164817574Y-160600000D01*
X164817574Y-162000000D01*
X164836889Y-162102650D01*
X164897555Y-162196927D01*
X164990120Y-162260175D01*
X165100000Y-162282426D01*
X166900000Y-162282426D01*
X167002650Y-162263111D01*
X167096927Y-162202445D01*
X167160175Y-162109880D01*
X167182426Y-162000000D01*
X167182426Y-161857006D01*
X168012711Y-162687291D01*
X168167461Y-162790692D01*
X168350001Y-162827001D01*
X189253157Y-162827001D01*
X194488446Y-168062290D01*
X194643195Y-168165691D01*
X194825736Y-168202000D01*
X194910879Y-168202000D01*
X194922729Y-168213871D01*
X195134724Y-168301900D01*
X195364269Y-168302100D01*
X195576417Y-168214442D01*
X195738871Y-168052271D01*
X195826900Y-167840276D01*
X195827100Y-167610731D01*
X195739442Y-167398583D01*
X195577271Y-167236129D01*
X195365276Y-167148100D01*
X195135731Y-167147900D01*
X194985352Y-167210036D01*
X189788027Y-162012711D01*
X189633277Y-161909310D01*
X189450737Y-161873001D01*
X171982426Y-161873001D01*
X171982426Y-161677000D01*
X173010879Y-161677000D01*
X173022729Y-161688871D01*
X173234724Y-161776900D01*
X173464269Y-161777100D01*
X173676417Y-161689442D01*
X173838871Y-161527271D01*
X173926900Y-161315276D01*
X173927100Y-161085731D01*
X173839442Y-160873583D01*
X173677271Y-160711129D01*
X173465276Y-160623100D01*
X173235731Y-160622900D01*
X173023583Y-160710558D01*
X173011119Y-160723000D01*
X171982426Y-160723000D01*
X171982426Y-160600000D01*
X171963111Y-160497350D01*
X171902445Y-160403073D01*
X171809880Y-160339825D01*
X171700000Y-160317574D01*
X169900000Y-160317574D01*
X169797350Y-160336889D01*
X169703073Y-160397555D01*
X169639825Y-160490120D01*
X169617574Y-160600000D01*
X169617574Y-161873001D01*
X168547581Y-161873001D01*
X167637290Y-160962710D01*
X167482540Y-160859309D01*
X167300000Y-160823000D01*
X167182426Y-160823000D01*
X167182426Y-160600000D01*
X167163111Y-160497350D01*
X167102445Y-160403073D01*
X167009880Y-160339825D01*
X166900000Y-160317574D01*
X165100000Y-160317574D01*
X164997350Y-160336889D01*
X164903073Y-160397555D01*
X164839825Y-160490120D01*
X164817574Y-160600000D01*
X152009387Y-160600000D01*
X149491121Y-158395153D01*
X149375260Y-158285750D01*
X164465000Y-158285750D01*
X164465000Y-158826309D01*
X164561673Y-159059698D01*
X164740301Y-159238327D01*
X164973690Y-159335000D01*
X165714250Y-159335000D01*
X165873000Y-159176250D01*
X165873000Y-158127000D01*
X166127000Y-158127000D01*
X166127000Y-159176250D01*
X166285750Y-159335000D01*
X167026310Y-159335000D01*
X167259699Y-159238327D01*
X167438327Y-159059698D01*
X167535000Y-158826309D01*
X167535000Y-158285750D01*
X167376250Y-158127000D01*
X166127000Y-158127000D01*
X165873000Y-158127000D01*
X164623750Y-158127000D01*
X164465000Y-158285750D01*
X149375260Y-158285750D01*
X148197550Y-157173691D01*
X164465000Y-157173691D01*
X164465000Y-157714250D01*
X164623750Y-157873000D01*
X165873000Y-157873000D01*
X165873000Y-156823750D01*
X166127000Y-156823750D01*
X166127000Y-157873000D01*
X167376250Y-157873000D01*
X167535000Y-157714250D01*
X167535000Y-157300000D01*
X169617574Y-157300000D01*
X169617574Y-158700000D01*
X169636889Y-158802650D01*
X169697555Y-158896927D01*
X169790120Y-158960175D01*
X169900000Y-158982426D01*
X171700000Y-158982426D01*
X171802650Y-158963111D01*
X171896927Y-158902445D01*
X171960175Y-158809880D01*
X171982426Y-158700000D01*
X171982426Y-157300000D01*
X171963111Y-157197350D01*
X171902445Y-157103073D01*
X171809880Y-157039825D01*
X171700000Y-157017574D01*
X171277000Y-157017574D01*
X171277000Y-155372580D01*
X181867154Y-144782426D01*
X183275000Y-144782426D01*
X183377650Y-144763111D01*
X183471927Y-144702445D01*
X183535175Y-144609880D01*
X183557426Y-144500000D01*
X183557426Y-143100000D01*
X185992574Y-143100000D01*
X185992574Y-144500000D01*
X186011889Y-144602650D01*
X186072555Y-144696927D01*
X186165120Y-144760175D01*
X186275000Y-144782426D01*
X187332846Y-144782426D01*
X188897915Y-146347495D01*
X188897900Y-146364269D01*
X188985558Y-146576417D01*
X189147729Y-146738871D01*
X189359724Y-146826900D01*
X189589269Y-146827100D01*
X189801417Y-146739442D01*
X189963871Y-146577271D01*
X190051900Y-146365276D01*
X190052100Y-146135731D01*
X189964442Y-145923583D01*
X189802271Y-145761129D01*
X189590276Y-145673100D01*
X189572665Y-145673085D01*
X188357426Y-144457846D01*
X188357426Y-143100000D01*
X188338111Y-142997350D01*
X188277445Y-142903073D01*
X188184880Y-142839825D01*
X188075000Y-142817574D01*
X186275000Y-142817574D01*
X186172350Y-142836889D01*
X186078073Y-142897555D01*
X186014825Y-142990120D01*
X185992574Y-143100000D01*
X183557426Y-143100000D01*
X183538111Y-142997350D01*
X183477445Y-142903073D01*
X183384880Y-142839825D01*
X183275000Y-142817574D01*
X181475000Y-142817574D01*
X181372350Y-142836889D01*
X181278073Y-142897555D01*
X181214825Y-142990120D01*
X181192574Y-143100000D01*
X181192574Y-144107846D01*
X170462710Y-154837710D01*
X170359309Y-154992460D01*
X170323000Y-155175000D01*
X170323000Y-157017574D01*
X169900000Y-157017574D01*
X169797350Y-157036889D01*
X169703073Y-157097555D01*
X169639825Y-157190120D01*
X169617574Y-157300000D01*
X167535000Y-157300000D01*
X167535000Y-157173691D01*
X167438327Y-156940302D01*
X167259699Y-156761673D01*
X167026310Y-156665000D01*
X166285750Y-156665000D01*
X166127000Y-156823750D01*
X165873000Y-156823750D01*
X165714250Y-156665000D01*
X164973690Y-156665000D01*
X164740301Y-156761673D01*
X164561673Y-156940302D01*
X164465000Y-157173691D01*
X148197550Y-157173691D01*
X147469876Y-156486582D01*
X147469876Y-155236254D01*
X150453947Y-153923982D01*
X150456903Y-153921913D01*
X150460407Y-153921057D01*
X153583172Y-152466185D01*
X153586491Y-152463753D01*
X153590462Y-152462678D01*
X155429222Y-151549997D01*
X155432312Y-151547613D01*
X155436052Y-151546506D01*
X157239168Y-150598164D01*
X157242436Y-150595518D01*
X157246440Y-150594222D01*
X158737642Y-149761115D01*
X158740987Y-149758264D01*
X158745131Y-149756800D01*
X160203399Y-148890750D01*
X160206854Y-148887644D01*
X160211189Y-148885975D01*
X161484634Y-148080730D01*
X161488134Y-148077402D01*
X161492592Y-148075535D01*
X162734497Y-147238743D01*
X162738052Y-147235160D01*
X162742647Y-147233070D01*
X163854463Y-146433799D01*
X163858025Y-146429985D01*
X163862704Y-146427676D01*
X164943858Y-145597751D01*
X164947419Y-145593689D01*
X164952181Y-145591144D01*
X165933916Y-144785518D01*
X165937436Y-144781229D01*
X165942241Y-144778451D01*
X166893924Y-143942781D01*
X166897392Y-143938256D01*
X166902227Y-143935234D01*
X167774138Y-143114952D01*
X167777519Y-143110211D01*
X167782345Y-143106955D01*
X168624600Y-142257009D01*
X168627878Y-142252054D01*
X168632680Y-142248558D01*
X169408826Y-141407180D01*
X169411972Y-141402034D01*
X169416716Y-141398309D01*
X169941934Y-140785750D01*
X180840000Y-140785750D01*
X180840000Y-141326309D01*
X180936673Y-141559698D01*
X181115301Y-141738327D01*
X181348690Y-141835000D01*
X182089250Y-141835000D01*
X182248000Y-141676250D01*
X182248000Y-140627000D01*
X182502000Y-140627000D01*
X182502000Y-141676250D01*
X182660750Y-141835000D01*
X183401310Y-141835000D01*
X183634699Y-141738327D01*
X183813327Y-141559698D01*
X183910000Y-141326309D01*
X183910000Y-140785750D01*
X183751250Y-140627000D01*
X182502000Y-140627000D01*
X182248000Y-140627000D01*
X180998750Y-140627000D01*
X180840000Y-140785750D01*
X169941934Y-140785750D01*
X170163391Y-140527467D01*
X170166390Y-140522136D01*
X170171056Y-140518186D01*
X170842821Y-139673691D01*
X180840000Y-139673691D01*
X180840000Y-140214250D01*
X180998750Y-140373000D01*
X182248000Y-140373000D01*
X182248000Y-139323750D01*
X182502000Y-139323750D01*
X182502000Y-140373000D01*
X183751250Y-140373000D01*
X183910000Y-140214250D01*
X183910000Y-139800000D01*
X185992574Y-139800000D01*
X185992574Y-141200000D01*
X186011889Y-141302650D01*
X186072555Y-141396927D01*
X186165120Y-141460175D01*
X186275000Y-141482426D01*
X188075000Y-141482426D01*
X188177650Y-141463111D01*
X188271927Y-141402445D01*
X188335175Y-141309880D01*
X188357426Y-141200000D01*
X188357426Y-141057006D01*
X197837710Y-150537290D01*
X197992460Y-150640691D01*
X198175000Y-150677000D01*
X227267574Y-150677000D01*
X227267574Y-150900000D01*
X227286889Y-151002650D01*
X227347555Y-151096927D01*
X227440120Y-151160175D01*
X227550000Y-151182426D01*
X229350000Y-151182426D01*
X229452650Y-151163111D01*
X229546927Y-151102445D01*
X229610175Y-151009880D01*
X229632426Y-150900000D01*
X229632426Y-149500000D01*
X232067574Y-149500000D01*
X232067574Y-150900000D01*
X232086889Y-151002650D01*
X232147555Y-151096927D01*
X232240120Y-151160175D01*
X232350000Y-151182426D01*
X234150000Y-151182426D01*
X234252650Y-151163111D01*
X234346927Y-151102445D01*
X234410175Y-151009880D01*
X234432426Y-150900000D01*
X234432426Y-150577000D01*
X234560879Y-150577000D01*
X234572729Y-150588871D01*
X234784724Y-150676900D01*
X235014269Y-150677100D01*
X235226417Y-150589442D01*
X235388871Y-150427271D01*
X235476900Y-150215276D01*
X235477100Y-149985731D01*
X235389442Y-149773583D01*
X235227271Y-149611129D01*
X235015276Y-149523100D01*
X234785731Y-149522900D01*
X234573583Y-149610558D01*
X234561119Y-149623000D01*
X234432426Y-149623000D01*
X234432426Y-149500000D01*
X234413111Y-149397350D01*
X234352445Y-149303073D01*
X234259880Y-149239825D01*
X234150000Y-149217574D01*
X232350000Y-149217574D01*
X232247350Y-149236889D01*
X232153073Y-149297555D01*
X232089825Y-149390120D01*
X232067574Y-149500000D01*
X229632426Y-149500000D01*
X229613111Y-149397350D01*
X229552445Y-149303073D01*
X229459880Y-149239825D01*
X229350000Y-149217574D01*
X227550000Y-149217574D01*
X227447350Y-149236889D01*
X227353073Y-149297555D01*
X227289825Y-149390120D01*
X227267574Y-149500000D01*
X227267574Y-149723000D01*
X198372580Y-149723000D01*
X196127317Y-147477737D01*
X222347779Y-147477737D01*
X222541781Y-147947257D01*
X222900693Y-148306797D01*
X223369875Y-148501618D01*
X223877897Y-148502061D01*
X224347417Y-148308059D01*
X224706957Y-147949147D01*
X224901778Y-147479965D01*
X224902034Y-147185750D01*
X226915000Y-147185750D01*
X226915000Y-147726309D01*
X227011673Y-147959698D01*
X227190301Y-148138327D01*
X227423690Y-148235000D01*
X228164250Y-148235000D01*
X228323000Y-148076250D01*
X228323000Y-147027000D01*
X228577000Y-147027000D01*
X228577000Y-148076250D01*
X228735750Y-148235000D01*
X229476310Y-148235000D01*
X229709699Y-148138327D01*
X229888327Y-147959698D01*
X229985000Y-147726309D01*
X229985000Y-147185750D01*
X229826250Y-147027000D01*
X228577000Y-147027000D01*
X228323000Y-147027000D01*
X227073750Y-147027000D01*
X226915000Y-147185750D01*
X224902034Y-147185750D01*
X224902221Y-146971943D01*
X224708219Y-146502423D01*
X224349307Y-146142883D01*
X224182674Y-146073691D01*
X226915000Y-146073691D01*
X226915000Y-146614250D01*
X227073750Y-146773000D01*
X228323000Y-146773000D01*
X228323000Y-145723750D01*
X228577000Y-145723750D01*
X228577000Y-146773000D01*
X229826250Y-146773000D01*
X229985000Y-146614250D01*
X229985000Y-146073691D01*
X229888327Y-145840302D01*
X229709699Y-145661673D01*
X229476310Y-145565000D01*
X228735750Y-145565000D01*
X228577000Y-145723750D01*
X228323000Y-145723750D01*
X228164250Y-145565000D01*
X227423690Y-145565000D01*
X227190301Y-145661673D01*
X227011673Y-145840302D01*
X226915000Y-146073691D01*
X224182674Y-146073691D01*
X223880125Y-145948062D01*
X223372103Y-145947619D01*
X222902583Y-146141621D01*
X222543043Y-146500533D01*
X222348222Y-146969715D01*
X222347779Y-147477737D01*
X196127317Y-147477737D01*
X189427272Y-140777692D01*
X222652073Y-140777692D01*
X222750736Y-141044547D01*
X223360461Y-141271068D01*
X224010460Y-141247016D01*
X224499264Y-141044547D01*
X224597927Y-140777692D01*
X223625000Y-139804765D01*
X222652073Y-140777692D01*
X189427272Y-140777692D01*
X188812290Y-140162710D01*
X188657540Y-140059309D01*
X188475000Y-140023000D01*
X188357426Y-140023000D01*
X188357426Y-139800000D01*
X188338111Y-139697350D01*
X188291692Y-139625213D01*
X203624392Y-139625213D01*
X203693857Y-139867397D01*
X204217302Y-140054144D01*
X204772368Y-140026362D01*
X205156143Y-139867397D01*
X205225608Y-139625213D01*
X204425000Y-138824605D01*
X203624392Y-139625213D01*
X188291692Y-139625213D01*
X188277445Y-139603073D01*
X188184880Y-139539825D01*
X188075000Y-139517574D01*
X186275000Y-139517574D01*
X186172350Y-139536889D01*
X186078073Y-139597555D01*
X186014825Y-139690120D01*
X185992574Y-139800000D01*
X183910000Y-139800000D01*
X183910000Y-139673691D01*
X183813327Y-139440302D01*
X183634699Y-139261673D01*
X183401310Y-139165000D01*
X182660750Y-139165000D01*
X182502000Y-139323750D01*
X182248000Y-139323750D01*
X182089250Y-139165000D01*
X181348690Y-139165000D01*
X181115301Y-139261673D01*
X180936673Y-139440302D01*
X180840000Y-139673691D01*
X170842821Y-139673691D01*
X170861547Y-139650151D01*
X170864373Y-139644665D01*
X170868933Y-139640504D01*
X171529951Y-138742997D01*
X171532592Y-138737365D01*
X171537026Y-138733004D01*
X171738185Y-138437302D01*
X203015856Y-138437302D01*
X203043638Y-138992368D01*
X203202603Y-139376143D01*
X203444787Y-139445608D01*
X204245395Y-138645000D01*
X204604605Y-138645000D01*
X205405213Y-139445608D01*
X205647397Y-139376143D01*
X205652934Y-139360621D01*
X221979092Y-139360621D01*
X222003144Y-140010620D01*
X222205613Y-140499424D01*
X222472468Y-140598087D01*
X223445395Y-139625160D01*
X222472468Y-138652233D01*
X222205613Y-138750896D01*
X221979092Y-139360621D01*
X205652934Y-139360621D01*
X205834144Y-138852698D01*
X205806362Y-138297632D01*
X205647397Y-137913857D01*
X205405213Y-137844392D01*
X204604605Y-138645000D01*
X204245395Y-138645000D01*
X203444787Y-137844392D01*
X203202603Y-137913857D01*
X203015856Y-138437302D01*
X171738185Y-138437302D01*
X172149239Y-137833057D01*
X172151675Y-137827311D01*
X172155958Y-137822770D01*
X172254959Y-137664787D01*
X203624392Y-137664787D01*
X204425000Y-138465395D01*
X205225608Y-137664787D01*
X205156143Y-137422603D01*
X204632698Y-137235856D01*
X204077632Y-137263638D01*
X203693857Y-137422603D01*
X203624392Y-137664787D01*
X172254959Y-137664787D01*
X172738500Y-136893167D01*
X172740597Y-136887654D01*
X172744488Y-136883223D01*
X173223698Y-136054533D01*
X173228969Y-136039041D01*
X173238498Y-136025738D01*
X173249366Y-135979091D01*
X173264794Y-135933744D01*
X173263735Y-135917414D01*
X173267448Y-135901476D01*
X173259637Y-135854217D01*
X173256537Y-135806422D01*
X173249310Y-135791741D01*
X173246641Y-135775594D01*
X173221339Y-135734922D01*
X173200185Y-135691951D01*
X173187889Y-135681153D01*
X173179245Y-135667258D01*
X172425781Y-134863089D01*
X172411000Y-134852501D01*
X172399755Y-134838210D01*
X171404768Y-133986831D01*
X171395389Y-133981567D01*
X171388205Y-133973565D01*
X169910132Y-132866469D01*
X168679859Y-131901385D01*
X168117564Y-131389886D01*
X167598240Y-130837834D01*
X167262400Y-130415340D01*
X166957687Y-129961215D01*
X166719161Y-129532676D01*
X166513354Y-129078300D01*
X166308391Y-128429638D01*
X168541049Y-127544153D01*
X168549231Y-127538863D01*
X168558696Y-127536547D01*
X170995433Y-126400225D01*
X171003326Y-126394437D01*
X171012682Y-126391553D01*
X173367816Y-125118970D01*
X173375379Y-125112706D01*
X173384573Y-125109263D01*
X175654753Y-123702891D01*
X175661939Y-123696184D01*
X175670924Y-123692197D01*
X177504397Y-122400000D01*
X190142574Y-122400000D01*
X190142574Y-123800000D01*
X190161889Y-123902650D01*
X190222555Y-123996927D01*
X190315120Y-124060175D01*
X190425000Y-124082426D01*
X192225000Y-124082426D01*
X192327650Y-124063111D01*
X192421927Y-124002445D01*
X192485175Y-123909880D01*
X192507426Y-123800000D01*
X192507426Y-123657006D01*
X197712711Y-128862291D01*
X197867461Y-128965692D01*
X198050001Y-129002001D01*
X214477421Y-129002001D01*
X223470189Y-137994769D01*
X223239540Y-138003304D01*
X222750736Y-138205773D01*
X222652073Y-138472628D01*
X223625000Y-139445555D01*
X223639143Y-139431413D01*
X223818748Y-139611018D01*
X223804605Y-139625160D01*
X224777532Y-140598087D01*
X225044387Y-140499424D01*
X225270908Y-139889699D01*
X225267288Y-139791868D01*
X232067574Y-146592154D01*
X232067574Y-147600000D01*
X232086889Y-147702650D01*
X232147555Y-147796927D01*
X232240120Y-147860175D01*
X232350000Y-147882426D01*
X234150000Y-147882426D01*
X234252650Y-147863111D01*
X234346927Y-147802445D01*
X234410175Y-147709880D01*
X234432426Y-147600000D01*
X234432426Y-146200000D01*
X234413111Y-146097350D01*
X234352445Y-146003073D01*
X234259880Y-145939825D01*
X234150000Y-145917574D01*
X232742154Y-145917574D01*
X215012291Y-128187711D01*
X214857541Y-128084310D01*
X214675001Y-128048001D01*
X214432426Y-128048001D01*
X214432426Y-126775000D01*
X216867574Y-126775000D01*
X216867574Y-128175000D01*
X216886889Y-128277650D01*
X216947555Y-128371927D01*
X217040120Y-128435175D01*
X217150000Y-128457426D01*
X217498000Y-128457426D01*
X217498000Y-129535879D01*
X217486129Y-129547729D01*
X217398100Y-129759724D01*
X217397900Y-129989269D01*
X217485558Y-130201417D01*
X217647729Y-130363871D01*
X217859724Y-130451900D01*
X218089269Y-130452100D01*
X218301417Y-130364442D01*
X218463871Y-130202271D01*
X218551900Y-129990276D01*
X218552100Y-129760731D01*
X218464442Y-129548583D01*
X218452000Y-129536119D01*
X218452000Y-128457426D01*
X218950000Y-128457426D01*
X219052650Y-128438111D01*
X219146927Y-128377445D01*
X219210175Y-128284880D01*
X219232426Y-128175000D01*
X219232426Y-126775000D01*
X219213111Y-126672350D01*
X219152445Y-126578073D01*
X219059880Y-126514825D01*
X218950000Y-126492574D01*
X217150000Y-126492574D01*
X217047350Y-126511889D01*
X216953073Y-126572555D01*
X216889825Y-126665120D01*
X216867574Y-126775000D01*
X214432426Y-126775000D01*
X214413111Y-126672350D01*
X214352445Y-126578073D01*
X214259880Y-126514825D01*
X214150000Y-126492574D01*
X213727000Y-126492574D01*
X213727000Y-126375000D01*
X213690691Y-126192460D01*
X213587290Y-126037710D01*
X213011915Y-125462335D01*
X213123000Y-125351250D01*
X213123000Y-124302000D01*
X213377000Y-124302000D01*
X213377000Y-125351250D01*
X213535750Y-125510000D01*
X214276310Y-125510000D01*
X214509699Y-125413327D01*
X214688327Y-125234698D01*
X214785000Y-125001309D01*
X214785000Y-124460750D01*
X214626250Y-124302000D01*
X213377000Y-124302000D01*
X213123000Y-124302000D01*
X213103000Y-124302000D01*
X213103000Y-124048000D01*
X213123000Y-124048000D01*
X213123000Y-122998750D01*
X213377000Y-122998750D01*
X213377000Y-124048000D01*
X214626250Y-124048000D01*
X214785000Y-123889250D01*
X214785000Y-123348691D01*
X214688327Y-123115302D01*
X214509699Y-122936673D01*
X214276310Y-122840000D01*
X213535750Y-122840000D01*
X213377000Y-122998750D01*
X213123000Y-122998750D01*
X212964250Y-122840000D01*
X212223690Y-122840000D01*
X211990301Y-122936673D01*
X211811673Y-123115302D01*
X211715000Y-123348691D01*
X211715000Y-123889250D01*
X211873748Y-124047998D01*
X211715000Y-124047998D01*
X211715000Y-124165420D01*
X207012290Y-119462710D01*
X206857540Y-119359309D01*
X206675000Y-119323000D01*
X197307426Y-119323000D01*
X197307426Y-119100000D01*
X197288111Y-118997350D01*
X197227445Y-118903073D01*
X197134880Y-118839825D01*
X197025000Y-118817574D01*
X195351999Y-118817574D01*
X195351999Y-116522581D01*
X207942574Y-103932006D01*
X207942574Y-104975000D01*
X207961889Y-105077650D01*
X208022555Y-105171927D01*
X208115120Y-105235175D01*
X208225000Y-105257426D01*
X210025000Y-105257426D01*
X210127650Y-105238111D01*
X210221927Y-105177445D01*
X210285175Y-105084880D01*
X210307426Y-104975000D01*
X210307426Y-104560750D01*
X212390000Y-104560750D01*
X212390000Y-105101309D01*
X212486673Y-105334698D01*
X212665301Y-105513327D01*
X212898690Y-105610000D01*
X213639250Y-105610000D01*
X213798000Y-105451250D01*
X213798000Y-104402000D01*
X214052000Y-104402000D01*
X214052000Y-105451250D01*
X214210750Y-105610000D01*
X214951310Y-105610000D01*
X215184699Y-105513327D01*
X215363327Y-105334698D01*
X215460000Y-105101309D01*
X215460000Y-104560750D01*
X215301250Y-104402000D01*
X214052000Y-104402000D01*
X213798000Y-104402000D01*
X212548750Y-104402000D01*
X212390000Y-104560750D01*
X210307426Y-104560750D01*
X210307426Y-103575000D01*
X210288111Y-103472350D01*
X210272887Y-103448691D01*
X212390000Y-103448691D01*
X212390000Y-103989250D01*
X212548750Y-104148000D01*
X213798000Y-104148000D01*
X213798000Y-103098750D01*
X214052000Y-103098750D01*
X214052000Y-104148000D01*
X215301250Y-104148000D01*
X215460000Y-103989250D01*
X215460000Y-103448691D01*
X215363327Y-103215302D01*
X215184699Y-103036673D01*
X214951310Y-102940000D01*
X214210750Y-102940000D01*
X214052000Y-103098750D01*
X213798000Y-103098750D01*
X213639250Y-102940000D01*
X212898690Y-102940000D01*
X212665301Y-103036673D01*
X212486673Y-103215302D01*
X212390000Y-103448691D01*
X210272887Y-103448691D01*
X210227445Y-103378073D01*
X210134880Y-103314825D01*
X210025000Y-103292574D01*
X208582006Y-103292574D01*
X209462290Y-102412290D01*
X209565691Y-102257540D01*
X209602000Y-102075000D01*
X209602000Y-101957426D01*
X210025000Y-101957426D01*
X210127650Y-101938111D01*
X210221927Y-101877445D01*
X210285175Y-101784880D01*
X210307426Y-101675000D01*
X210307426Y-100275000D01*
X212742574Y-100275000D01*
X212742574Y-101675000D01*
X212761889Y-101777650D01*
X212822555Y-101871927D01*
X212915120Y-101935175D01*
X213025000Y-101957426D01*
X214432846Y-101957426D01*
X217573000Y-105097580D01*
X217573000Y-123192574D01*
X217150000Y-123192574D01*
X217047350Y-123211889D01*
X216953073Y-123272555D01*
X216889825Y-123365120D01*
X216867574Y-123475000D01*
X216867574Y-124875000D01*
X216886889Y-124977650D01*
X216947555Y-125071927D01*
X217040120Y-125135175D01*
X217150000Y-125157426D01*
X218950000Y-125157426D01*
X219052650Y-125138111D01*
X219146927Y-125077445D01*
X219210175Y-124984880D01*
X219232426Y-124875000D01*
X219232426Y-123475000D01*
X219213111Y-123372350D01*
X219152445Y-123278073D01*
X219059880Y-123214825D01*
X218950000Y-123192574D01*
X218527000Y-123192574D01*
X218527000Y-104900000D01*
X218490691Y-104717460D01*
X218387290Y-104562710D01*
X215107426Y-101282846D01*
X215107426Y-100275000D01*
X215088111Y-100172350D01*
X215027445Y-100078073D01*
X214934880Y-100014825D01*
X214825000Y-99992574D01*
X213025000Y-99992574D01*
X212922350Y-100011889D01*
X212828073Y-100072555D01*
X212764825Y-100165120D01*
X212742574Y-100275000D01*
X210307426Y-100275000D01*
X210288111Y-100172350D01*
X210227445Y-100078073D01*
X210134880Y-100014825D01*
X210025000Y-99992574D01*
X208225000Y-99992574D01*
X208122350Y-100011889D01*
X208028073Y-100072555D01*
X207964825Y-100165120D01*
X207942574Y-100275000D01*
X207942574Y-101675000D01*
X207961889Y-101777650D01*
X208022555Y-101871927D01*
X208115120Y-101935175D01*
X208225000Y-101957426D01*
X208567994Y-101957426D01*
X194537709Y-115987711D01*
X194434308Y-116142461D01*
X194397999Y-116325001D01*
X194397999Y-120749999D01*
X194434308Y-120932539D01*
X194537709Y-121087289D01*
X195567994Y-122117574D01*
X195225000Y-122117574D01*
X195122350Y-122136889D01*
X195028073Y-122197555D01*
X194964825Y-122290120D01*
X194942574Y-122400000D01*
X194942574Y-123800000D01*
X194961889Y-123902650D01*
X195022555Y-123996927D01*
X195115120Y-124060175D01*
X195225000Y-124082426D01*
X195698000Y-124082426D01*
X195698000Y-124585879D01*
X195686129Y-124597729D01*
X195598100Y-124809724D01*
X195597900Y-125039269D01*
X195685558Y-125251417D01*
X195847729Y-125413871D01*
X196059724Y-125501900D01*
X196289269Y-125502100D01*
X196501417Y-125414442D01*
X196663871Y-125252271D01*
X196751900Y-125040276D01*
X196752100Y-124810731D01*
X196664442Y-124598583D01*
X196652000Y-124586119D01*
X196652000Y-124082426D01*
X197025000Y-124082426D01*
X197127650Y-124063111D01*
X197221927Y-124002445D01*
X197285175Y-123909880D01*
X197307426Y-123800000D01*
X197307426Y-122400000D01*
X197288111Y-122297350D01*
X197227445Y-122203073D01*
X197134880Y-122139825D01*
X197025000Y-122117574D01*
X196602000Y-122117574D01*
X196602000Y-122000000D01*
X196597654Y-121978149D01*
X196565691Y-121817459D01*
X196462290Y-121662710D01*
X195582006Y-120782426D01*
X197025000Y-120782426D01*
X197127650Y-120763111D01*
X197221927Y-120702445D01*
X197285175Y-120609880D01*
X197307426Y-120500000D01*
X197307426Y-120277000D01*
X206477420Y-120277000D01*
X212692994Y-126492574D01*
X212350000Y-126492574D01*
X212247350Y-126511889D01*
X212153073Y-126572555D01*
X212089825Y-126665120D01*
X212067574Y-126775000D01*
X212067574Y-128048001D01*
X198247581Y-128048001D01*
X192962290Y-122762710D01*
X192807540Y-122659309D01*
X192625000Y-122623000D01*
X192507426Y-122623000D01*
X192507426Y-122400000D01*
X192488111Y-122297350D01*
X192427445Y-122203073D01*
X192334880Y-122139825D01*
X192225000Y-122117574D01*
X190425000Y-122117574D01*
X190322350Y-122136889D01*
X190228073Y-122197555D01*
X190164825Y-122290120D01*
X190142574Y-122400000D01*
X177504397Y-122400000D01*
X177852159Y-122154904D01*
X177858933Y-122147784D01*
X177867667Y-122143272D01*
X179955329Y-120478355D01*
X179961662Y-120470855D01*
X179970103Y-120465840D01*
X180392746Y-120085750D01*
X189790000Y-120085750D01*
X189790000Y-120626309D01*
X189886673Y-120859698D01*
X190065301Y-121038327D01*
X190298690Y-121135000D01*
X191039250Y-121135000D01*
X191198000Y-120976250D01*
X191198000Y-119927000D01*
X191452000Y-119927000D01*
X191452000Y-120976250D01*
X191610750Y-121135000D01*
X192351310Y-121135000D01*
X192584699Y-121038327D01*
X192763327Y-120859698D01*
X192860000Y-120626309D01*
X192860000Y-120085750D01*
X192701250Y-119927000D01*
X191452000Y-119927000D01*
X191198000Y-119927000D01*
X189948750Y-119927000D01*
X189790000Y-120085750D01*
X180392746Y-120085750D01*
X181629306Y-118973691D01*
X189790000Y-118973691D01*
X189790000Y-119514250D01*
X189948750Y-119673000D01*
X191198000Y-119673000D01*
X191198000Y-118623750D01*
X191452000Y-118623750D01*
X191452000Y-119673000D01*
X192701250Y-119673000D01*
X192860000Y-119514250D01*
X192860000Y-118973691D01*
X192763327Y-118740302D01*
X192584699Y-118561673D01*
X192351310Y-118465000D01*
X191610750Y-118465000D01*
X191452000Y-118623750D01*
X191198000Y-118623750D01*
X191039250Y-118465000D01*
X190298690Y-118465000D01*
X190065301Y-118561673D01*
X189886673Y-118740302D01*
X189790000Y-118973691D01*
X181629306Y-118973691D01*
X181958918Y-118677266D01*
X181964786Y-118669417D01*
X181972899Y-118663924D01*
X183857010Y-116756499D01*
X183862394Y-116748334D01*
X183870151Y-116742385D01*
X185643184Y-114721923D01*
X185648067Y-114713471D01*
X185655449Y-114707087D01*
X187310646Y-112580500D01*
X187313637Y-112574538D01*
X187318505Y-112569974D01*
X187895035Y-111764478D01*
X187912526Y-111725818D01*
X187934987Y-111689823D01*
X187938591Y-111668205D01*
X187947627Y-111648233D01*
X187948992Y-111605821D01*
X187955969Y-111563972D01*
X187951026Y-111542620D01*
X187951731Y-111520709D01*
X187936760Y-111480999D01*
X187927192Y-111439670D01*
X187914455Y-111421837D01*
X187906721Y-111401322D01*
X187877693Y-111370364D01*
X187853037Y-111335842D01*
X187834443Y-111324239D01*
X187819450Y-111308249D01*
X187780792Y-111290759D01*
X187744795Y-111268296D01*
X186628803Y-110846260D01*
X185619359Y-110305816D01*
X184672178Y-109630092D01*
X183762378Y-108798296D01*
X182860636Y-107773024D01*
X181920579Y-106483420D01*
X180828799Y-104753099D01*
X180197125Y-103696061D01*
X182193505Y-102778826D01*
X182201859Y-102772773D01*
X182211727Y-102769757D01*
X184442639Y-101571377D01*
X184450638Y-101564785D01*
X184460339Y-101561143D01*
X186603375Y-100231035D01*
X186610921Y-100223979D01*
X186620348Y-100219753D01*
X188683687Y-98753520D01*
X188690700Y-98746091D01*
X188699750Y-98741344D01*
X190691106Y-97132777D01*
X190697525Y-97125078D01*
X190706105Y-97119893D01*
X192632840Y-95360814D01*
X192638625Y-95352954D01*
X192646666Y-95347424D01*
X193794682Y-94168191D01*
X203297805Y-94168191D01*
X203469019Y-94582560D01*
X203785772Y-94899867D01*
X204199842Y-95071804D01*
X204648191Y-95072195D01*
X205062560Y-94900981D01*
X205379867Y-94584228D01*
X205551804Y-94170158D01*
X205552195Y-93721809D01*
X205380981Y-93307440D01*
X205064228Y-92990133D01*
X204650158Y-92818196D01*
X204201809Y-92817805D01*
X203787440Y-92989019D01*
X203470133Y-93305772D01*
X203298196Y-93719842D01*
X203297805Y-94168191D01*
X193794682Y-94168191D01*
X194515898Y-93427365D01*
X194521028Y-93419460D01*
X194528477Y-93413687D01*
X196347294Y-91319540D01*
X196351768Y-91311705D01*
X196358591Y-91305796D01*
X198134363Y-89021220D01*
X198138202Y-89013556D01*
X198144380Y-89007621D01*
X199885217Y-86511986D01*
X199888335Y-86504864D01*
X199893683Y-86499222D01*
X201483603Y-83975830D01*
X201505217Y-83919418D01*
X201528015Y-83863478D01*
X201527995Y-83859968D01*
X201529252Y-83856687D01*
X201527632Y-83796274D01*
X201527288Y-83735891D01*
X201504355Y-83623937D01*
X201484440Y-83576622D01*
X201468248Y-83527891D01*
X201443948Y-83485167D01*
X201410351Y-83446354D01*
X201379871Y-83405056D01*
X201307498Y-83339153D01*
X201301530Y-83335557D01*
X201297160Y-83330128D01*
X201247086Y-83302751D01*
X201198215Y-83273304D01*
X201191325Y-83272265D01*
X201185211Y-83268923D01*
X200942878Y-83192904D01*
X200924775Y-83190948D01*
X200907931Y-83184024D01*
X200675049Y-83138354D01*
X200670343Y-83058765D01*
X200714458Y-82088521D01*
X200710828Y-82064653D01*
X200713121Y-82040621D01*
X200608690Y-81012575D01*
X200602293Y-80991715D01*
X200601479Y-80969913D01*
X200340706Y-79874195D01*
X200333023Y-79857442D01*
X200330288Y-79839218D01*
X199895085Y-78629394D01*
X199888299Y-78618115D01*
X199885317Y-78605295D01*
X199228998Y-77154566D01*
X199228839Y-77154344D01*
X199228776Y-77154075D01*
X198921303Y-76477407D01*
X202797735Y-76477407D01*
X203029717Y-77038846D01*
X203458894Y-77468773D01*
X204019928Y-77701735D01*
X204627407Y-77702265D01*
X205188846Y-77470283D01*
X205618773Y-77041106D01*
X205851735Y-76480072D01*
X205852265Y-75872593D01*
X205620283Y-75311154D01*
X205191106Y-74881227D01*
X204630072Y-74648265D01*
X204022593Y-74647735D01*
X203461154Y-74879717D01*
X203031227Y-75308894D01*
X202798265Y-75869928D01*
X202797735Y-76477407D01*
X198921303Y-76477407D01*
X198716110Y-76025833D01*
X198927917Y-75987745D01*
X198938188Y-75983711D01*
X198949211Y-75983179D01*
X199539863Y-75835794D01*
X199550405Y-75830819D01*
X199561977Y-75829441D01*
X200101734Y-75653614D01*
X200112364Y-75647650D01*
X200124330Y-75645322D01*
X200632067Y-75437482D01*
X200642657Y-75430470D01*
X200654898Y-75427096D01*
X201120940Y-75193133D01*
X201131242Y-75185111D01*
X201143516Y-75180661D01*
X201579620Y-74916776D01*
X201589477Y-74907766D01*
X201601629Y-74902215D01*
X202003965Y-74612008D01*
X202013140Y-74602151D01*
X202024888Y-74595581D01*
X202398614Y-74276779D01*
X202411078Y-74260988D01*
X202427311Y-74249105D01*
X203091626Y-73525274D01*
X203105143Y-73503038D01*
X203123450Y-73484558D01*
X203684767Y-72635880D01*
X203693993Y-72613308D01*
X203708408Y-72593642D01*
X204142796Y-71661746D01*
X204788942Y-71661746D01*
X204881907Y-71976852D01*
X204881907Y-71976852D01*
G37*
X204881907Y-71976852D02*
X204887716Y-71987921D01*
X204889782Y-72000251D01*
X205085446Y-72516304D01*
X205092480Y-72527554D01*
X205095714Y-72540422D01*
X205312396Y-72997606D01*
X205320692Y-73008773D01*
X205325205Y-73021934D01*
X205572978Y-73448035D01*
X205582561Y-73458895D01*
X205588441Y-73472134D01*
X205855745Y-73851117D01*
X205866500Y-73861343D01*
X205873715Y-73874311D01*
X206170520Y-74223813D01*
X206182345Y-74233189D01*
X206190852Y-74245651D01*
X206508792Y-74557343D01*
X206521409Y-74565593D01*
X206531006Y-74577218D01*
X206877769Y-74860100D01*
X206897412Y-74870525D01*
X206913748Y-74885612D01*
X207687766Y-75359428D01*
X207714032Y-75369104D01*
X207737518Y-75384334D01*
X208636459Y-75742290D01*
X208661447Y-75746904D01*
X208684643Y-75757286D01*
X209729786Y-75995918D01*
X209750662Y-75996505D01*
X209770650Y-76002560D01*
X210536650Y-76077703D01*
X210539256Y-76103365D01*
X210531349Y-76331268D01*
X210423022Y-76748755D01*
X210199818Y-77115743D01*
X209813327Y-77499294D01*
X209149726Y-77983560D01*
X208743444Y-78273520D01*
X208733672Y-78283913D01*
X208721221Y-78290874D01*
X208358871Y-78599880D01*
X208340320Y-78623376D01*
X208317267Y-78642484D01*
X208034453Y-78990552D01*
X208012384Y-79032330D01*
X207986134Y-79071614D01*
X207817075Y-79479726D01*
X207807421Y-79528254D01*
X207793482Y-79575723D01*
X207744669Y-80121133D01*
X207749339Y-80164577D01*
X207748549Y-80208268D01*
X207843985Y-80737931D01*
X207853731Y-80762719D01*
X207857551Y-80789076D01*
X208105891Y-81490536D01*
X208264785Y-82034533D01*
X208327717Y-82670211D01*
X208290877Y-83110710D01*
X208126457Y-83130086D01*
X207534550Y-83139362D01*
X207519521Y-83142597D01*
X207504206Y-83141251D01*
X207457595Y-83155927D01*
X207409818Y-83166211D01*
X207397169Y-83174952D01*
X207382507Y-83179569D01*
X207221313Y-83267918D01*
X207214331Y-83273772D01*
X207205799Y-83276983D01*
X207165670Y-83314569D01*
X207123541Y-83349890D01*
X207119329Y-83357974D01*
X207112678Y-83364203D01*
X207089987Y-83414284D01*
X207064581Y-83463040D01*
X207063783Y-83472117D01*
X207060021Y-83480420D01*
X207058223Y-83535377D01*
X207053409Y-83590139D01*
X207056146Y-83598832D01*
X207055848Y-83607941D01*
X207075218Y-83659404D01*
X207091727Y-83711838D01*
X207097581Y-83718820D01*
X207100792Y-83727352D01*
X208555801Y-86067150D01*
X208562227Y-86074011D01*
X208566030Y-86082603D01*
X210164944Y-88355689D01*
X210171638Y-88362070D01*
X210175846Y-88370304D01*
X211926548Y-90585636D01*
X211933424Y-90591494D01*
X211937964Y-90599299D01*
X213850707Y-92765971D01*
X213857663Y-92771272D01*
X213862455Y-92778593D01*
X215950391Y-94906278D01*
X215957334Y-94911012D01*
X215962285Y-94917799D01*
X218242284Y-97017195D01*
X218249111Y-97021360D01*
X218254132Y-97027589D01*
X220748105Y-99111145D01*
X220754718Y-99114754D01*
X220759708Y-99120400D01*
X223496739Y-101203638D01*
X223503038Y-101206714D01*
X223507900Y-101211767D01*
X226528286Y-103315389D01*
X226532650Y-103317296D01*
X226536047Y-103320630D01*
X227811977Y-104156058D01*
X227533688Y-104689488D01*
X227091815Y-105448003D01*
X226640935Y-106142647D01*
X226160986Y-106807445D01*
X225670949Y-107418231D01*
X225152453Y-107999991D01*
X224621819Y-108535713D01*
X224062890Y-109042949D01*
X223488807Y-109510427D01*
X222886221Y-109949597D01*
X222264527Y-110353668D01*
X221613741Y-110729196D01*
X220939091Y-111072737D01*
X220230749Y-111388654D01*
X220213891Y-111395653D01*
X220188440Y-111412689D01*
X220160043Y-111424154D01*
X220135940Y-111447829D01*
X220107862Y-111466623D01*
X220090868Y-111492101D01*
X220069020Y-111513561D01*
X220055810Y-111544660D01*
X220037063Y-111572767D01*
X220031113Y-111602805D01*
X220019139Y-111630996D01*
X220018837Y-111664784D01*
X220012272Y-111697925D01*
X220018271Y-111727958D01*
X220017997Y-111758581D01*
X220030646Y-111789908D01*
X220037264Y-111823042D01*
X220054300Y-111848493D01*
X220065765Y-111876890D01*
X221045532Y-113372036D01*
X221055436Y-113382119D01*
X221061827Y-113394726D01*
X222189772Y-114831555D01*
X222200070Y-114840387D01*
X222207176Y-114851946D01*
X223498955Y-116245409D01*
X223509290Y-116252896D01*
X223516792Y-116263221D01*
X224995521Y-117630180D01*
X225005519Y-117636307D01*
X225013066Y-117645283D01*
X226713551Y-119007313D01*
X226722833Y-119012133D01*
X226730054Y-119019697D01*
X228708234Y-120408842D01*
X228716378Y-120412439D01*
X228722860Y-120418537D01*
X231081396Y-121892475D01*
X231087791Y-121894898D01*
X231092964Y-121899378D01*
X234074196Y-123595865D01*
X234077137Y-123596843D01*
X234079515Y-123598826D01*
X238759016Y-126147593D01*
X241774667Y-127883790D01*
X241416767Y-128744136D01*
X240813141Y-129812844D01*
X240037182Y-130890260D01*
X239020250Y-132059070D01*
X237541298Y-133568872D01*
X237540962Y-133569386D01*
X237540458Y-133569733D01*
X236377814Y-134765397D01*
X236372334Y-134773852D01*
X236364398Y-134780060D01*
X235273608Y-136047546D01*
X235268700Y-136056234D01*
X235261223Y-136062845D01*
X235237476Y-136111499D01*
X235210848Y-136158631D01*
X235209638Y-136168536D01*
X235205260Y-136177506D01*
X235201940Y-136231545D01*
X235195376Y-136285279D01*
X235198049Y-136294894D01*
X235197437Y-136304856D01*
X235215050Y-136356052D01*
X235229548Y-136408208D01*
X235235696Y-136416068D01*
X235238943Y-136425505D01*
X236265890Y-138187537D01*
X236274276Y-138197021D01*
X236279295Y-138208638D01*
X237444853Y-139897214D01*
X237453767Y-139905862D01*
X237459534Y-139916864D01*
X238772583Y-141543290D01*
X238781820Y-141550995D01*
X238788164Y-141561217D01*
X240261462Y-143136869D01*
X240270790Y-143143566D01*
X240277509Y-143152881D01*
X241928541Y-144689800D01*
X241937731Y-144695476D01*
X241944610Y-144703810D01*
X243797576Y-146215803D01*
X243806401Y-146220488D01*
X243813212Y-146227795D01*
X245902339Y-147732343D01*
X245910569Y-147736095D01*
X245917086Y-147742364D01*
X248293795Y-149264452D01*
X248301188Y-149267347D01*
X248307168Y-149272572D01*
X251056802Y-150853336D01*
X251063055Y-150855446D01*
X251068193Y-150859587D01*
X254358003Y-152580755D01*
X254362554Y-152582092D01*
X254366334Y-152584964D01*
X258648255Y-154671764D01*
X258649720Y-154672149D01*
X258650932Y-154673053D01*
X261156597Y-155866138D01*
X261177507Y-155964031D01*
X261189385Y-156159710D01*
X261121196Y-156537317D01*
X260934014Y-156888011D01*
X260580230Y-157273631D01*
X259964182Y-157759537D01*
X259518384Y-158094072D01*
X259516258Y-158096445D01*
X259513412Y-158097878D01*
X258030994Y-159255334D01*
X256518771Y-160385183D01*
X254979475Y-161485278D01*
X253407998Y-162559068D01*
X251809767Y-163602629D01*
X250179761Y-164619021D01*
X248523344Y-165604673D01*
X246835489Y-166562349D01*
X245121500Y-167488776D01*
X243376421Y-168386400D01*
X241605367Y-169252308D01*
X239803618Y-170088563D01*
X237976098Y-170892584D01*
X236118065Y-171666186D01*
X234234363Y-172407047D01*
X232320596Y-173116604D01*
X230381124Y-173792922D01*
X228411799Y-174437143D01*
X226416843Y-175047559D01*
X224392332Y-175625027D01*
X222342107Y-176168120D01*
X220262642Y-176677438D01*
X218157298Y-177151779D01*
X216022456Y-177591610D01*
X214417206Y-177898350D01*
X195276365Y-178114595D01*
X193341127Y-177922725D01*
X189548085Y-177428028D01*
X185895357Y-176793422D01*
X182371509Y-176021979D01*
X182154630Y-175964269D01*
X214972900Y-175964269D01*
X215060558Y-176176417D01*
X215222729Y-176338871D01*
X215434724Y-176426900D01*
X215664269Y-176427100D01*
X215876417Y-176339442D01*
X216038871Y-176177271D01*
X216126900Y-175965276D01*
X216126933Y-175927001D01*
X220524999Y-175927001D01*
X220669271Y-175898304D01*
X220791578Y-175816580D01*
X222856158Y-173752000D01*
X229325000Y-173752000D01*
X229469272Y-173723303D01*
X229591579Y-173641579D01*
X242731158Y-160502000D01*
X244250000Y-160502000D01*
X244394272Y-160473303D01*
X244516579Y-160391579D01*
X244556196Y-160351962D01*
X244714269Y-160352100D01*
X244926417Y-160264442D01*
X245088871Y-160102271D01*
X245161501Y-159927361D01*
X245322729Y-160088871D01*
X245534724Y-160176900D01*
X245764269Y-160177100D01*
X245976417Y-160089442D01*
X246138871Y-159927271D01*
X246226900Y-159715276D01*
X246227100Y-159485731D01*
X246139442Y-159273583D01*
X245977271Y-159111129D01*
X245765276Y-159023100D01*
X245606119Y-159022961D01*
X245341579Y-158758421D01*
X245219272Y-158676697D01*
X245075000Y-158648000D01*
X242300000Y-158648000D01*
X242177492Y-158672368D01*
X242155728Y-158676697D01*
X242033421Y-158758421D01*
X228443841Y-172348001D01*
X216449999Y-172348001D01*
X216305727Y-172376698D01*
X216261995Y-172405919D01*
X216198953Y-172448042D01*
X216035731Y-172447900D01*
X215823583Y-172535558D01*
X215661129Y-172697729D01*
X215573100Y-172909724D01*
X215572900Y-173139269D01*
X215660558Y-173351417D01*
X215822729Y-173513871D01*
X216034724Y-173601900D01*
X216264269Y-173602100D01*
X216476417Y-173514442D01*
X216638871Y-173352271D01*
X216726900Y-173140276D01*
X216726933Y-173102001D01*
X222443029Y-173102001D01*
X222433421Y-173108421D01*
X220368841Y-175173001D01*
X215849999Y-175173001D01*
X215705727Y-175201698D01*
X215668010Y-175226900D01*
X215598953Y-175273042D01*
X215435731Y-175272900D01*
X215223583Y-175360558D01*
X215061129Y-175522729D01*
X214973100Y-175734724D01*
X214972900Y-175964269D01*
X182154630Y-175964269D01*
X178966997Y-175116065D01*
X177851486Y-174764269D01*
X192222900Y-174764269D01*
X192310558Y-174976417D01*
X192472729Y-175138871D01*
X192684724Y-175226900D01*
X192914269Y-175227100D01*
X193126417Y-175139442D01*
X193264099Y-175002000D01*
X216925736Y-175002000D01*
X217070008Y-174973303D01*
X217192315Y-174891579D01*
X217596399Y-174487495D01*
X217622729Y-174513871D01*
X217834724Y-174601900D01*
X218064269Y-174602100D01*
X218276417Y-174514442D01*
X218438871Y-174352271D01*
X218526900Y-174140276D01*
X218527100Y-173910731D01*
X218439442Y-173698583D01*
X218277271Y-173536129D01*
X218065276Y-173448100D01*
X217835731Y-173447900D01*
X217623583Y-173535558D01*
X217507264Y-173651674D01*
X217381464Y-173676697D01*
X217259157Y-173758421D01*
X216769578Y-174248000D01*
X193213991Y-174248000D01*
X193127271Y-174161129D01*
X192915276Y-174073100D01*
X192685731Y-174072900D01*
X192473583Y-174160558D01*
X192311129Y-174322729D01*
X192223100Y-174534724D01*
X192222900Y-174764269D01*
X177851486Y-174764269D01*
X175672479Y-174077081D01*
X172478864Y-172905406D01*
X171014516Y-172289269D01*
X185997900Y-172289269D01*
X186085558Y-172501417D01*
X186247729Y-172663871D01*
X186459724Y-172751900D01*
X186689269Y-172752100D01*
X186901417Y-172664442D01*
X187063871Y-172502271D01*
X187151900Y-172290276D01*
X187152039Y-172131119D01*
X189416579Y-169866579D01*
X189498303Y-169744272D01*
X189527000Y-169600000D01*
X189527000Y-168589269D01*
X192797900Y-168589269D01*
X192885558Y-168801417D01*
X192998000Y-168914055D01*
X192998000Y-170450000D01*
X193026697Y-170594272D01*
X193108421Y-170716579D01*
X193673038Y-171281196D01*
X193672900Y-171439269D01*
X193760558Y-171651417D01*
X193922729Y-171813871D01*
X194134724Y-171901900D01*
X194364269Y-171902100D01*
X194576417Y-171814442D01*
X194738871Y-171652271D01*
X194826900Y-171440276D01*
X194827100Y-171210731D01*
X194739442Y-170998583D01*
X194577271Y-170836129D01*
X194424471Y-170772680D01*
X199575144Y-170772680D01*
X199575144Y-172372680D01*
X199594459Y-172475330D01*
X199655125Y-172569607D01*
X199747690Y-172632855D01*
X199857570Y-172655106D01*
X202037570Y-172655106D01*
X202140220Y-172635791D01*
X202234497Y-172575125D01*
X202297745Y-172482560D01*
X202319996Y-172372680D01*
X202319996Y-171863070D01*
X208427430Y-171863070D01*
X208427430Y-172503630D01*
X208524103Y-172737019D01*
X208702732Y-172915647D01*
X208936121Y-173012320D01*
X209866680Y-173012320D01*
X210025430Y-172853570D01*
X210025430Y-171704320D01*
X210279430Y-171704320D01*
X210279430Y-172853570D01*
X210438180Y-173012320D01*
X211368739Y-173012320D01*
X211602128Y-172915647D01*
X211780757Y-172737019D01*
X211877430Y-172503630D01*
X211877430Y-171863070D01*
X211718680Y-171704320D01*
X210279430Y-171704320D01*
X210025430Y-171704320D01*
X208586180Y-171704320D01*
X208427430Y-171863070D01*
X202319996Y-171863070D01*
X202319996Y-170772680D01*
X202300681Y-170670030D01*
X202288442Y-170651010D01*
X208427430Y-170651010D01*
X208427430Y-171291570D01*
X208586180Y-171450320D01*
X210025430Y-171450320D01*
X210025430Y-170301070D01*
X210279430Y-170301070D01*
X210279430Y-171450320D01*
X211718680Y-171450320D01*
X211877430Y-171291570D01*
X211877430Y-170651010D01*
X211780757Y-170417621D01*
X211602128Y-170238993D01*
X211368739Y-170142320D01*
X210438180Y-170142320D01*
X210279430Y-170301070D01*
X210025430Y-170301070D01*
X209866680Y-170142320D01*
X208936121Y-170142320D01*
X208702732Y-170238993D01*
X208524103Y-170417621D01*
X208427430Y-170651010D01*
X202288442Y-170651010D01*
X202240015Y-170575753D01*
X202147450Y-170512505D01*
X202037570Y-170490254D01*
X201324570Y-170490254D01*
X201324570Y-166441373D01*
X201438871Y-166327271D01*
X201526900Y-166115276D01*
X201527100Y-165885731D01*
X201439442Y-165673583D01*
X201277271Y-165511129D01*
X201065276Y-165423100D01*
X200835731Y-165422900D01*
X200623583Y-165510558D01*
X200461129Y-165672729D01*
X200373100Y-165884724D01*
X200372900Y-166114269D01*
X200460558Y-166326417D01*
X200570570Y-166436621D01*
X200570570Y-170490254D01*
X199857570Y-170490254D01*
X199754920Y-170509569D01*
X199660643Y-170570235D01*
X199597395Y-170662800D01*
X199575144Y-170772680D01*
X194424471Y-170772680D01*
X194365276Y-170748100D01*
X194206119Y-170747961D01*
X193752000Y-170293842D01*
X193752000Y-168913947D01*
X193863871Y-168802271D01*
X193951900Y-168590276D01*
X193952100Y-168360731D01*
X193864442Y-168148583D01*
X193702271Y-167986129D01*
X193490276Y-167898100D01*
X193260731Y-167897900D01*
X193048583Y-167985558D01*
X192886129Y-168147729D01*
X192798100Y-168359724D01*
X192797900Y-168589269D01*
X189527000Y-168589269D01*
X189527000Y-165588947D01*
X189638871Y-165477271D01*
X189726900Y-165265276D01*
X189727100Y-165035731D01*
X189639442Y-164823583D01*
X189477271Y-164661129D01*
X189265276Y-164573100D01*
X189035731Y-164572900D01*
X188823583Y-164660558D01*
X188661129Y-164822729D01*
X188573100Y-165034724D01*
X188572900Y-165264269D01*
X188660558Y-165476417D01*
X188773000Y-165589055D01*
X188773000Y-169443842D01*
X186618804Y-171598038D01*
X186460731Y-171597900D01*
X186248583Y-171685558D01*
X186086129Y-171847729D01*
X185998100Y-172059724D01*
X185997900Y-172289269D01*
X171014516Y-172289269D01*
X169377184Y-171600348D01*
X166358585Y-170160028D01*
X163414375Y-168581365D01*
X160535719Y-166859858D01*
X157713672Y-164989443D01*
X154939007Y-162962328D01*
X152201912Y-160768564D01*
X152009387Y-160600000D01*
X164817574Y-160600000D01*
X164817574Y-162000000D01*
X164836889Y-162102650D01*
X164897555Y-162196927D01*
X164990120Y-162260175D01*
X165100000Y-162282426D01*
X166900000Y-162282426D01*
X167002650Y-162263111D01*
X167096927Y-162202445D01*
X167160175Y-162109880D01*
X167182426Y-162000000D01*
X167182426Y-161857006D01*
X168012711Y-162687291D01*
X168167461Y-162790692D01*
X168350001Y-162827001D01*
X189253157Y-162827001D01*
X194488446Y-168062290D01*
X194643195Y-168165691D01*
X194825736Y-168202000D01*
X194910879Y-168202000D01*
X194922729Y-168213871D01*
X195134724Y-168301900D01*
X195364269Y-168302100D01*
X195576417Y-168214442D01*
X195738871Y-168052271D01*
X195826900Y-167840276D01*
X195827100Y-167610731D01*
X195739442Y-167398583D01*
X195577271Y-167236129D01*
X195365276Y-167148100D01*
X195135731Y-167147900D01*
X194985352Y-167210036D01*
X189788027Y-162012711D01*
X189633277Y-161909310D01*
X189450737Y-161873001D01*
X171982426Y-161873001D01*
X171982426Y-161677000D01*
X173010879Y-161677000D01*
X173022729Y-161688871D01*
X173234724Y-161776900D01*
X173464269Y-161777100D01*
X173676417Y-161689442D01*
X173838871Y-161527271D01*
X173926900Y-161315276D01*
X173927100Y-161085731D01*
X173839442Y-160873583D01*
X173677271Y-160711129D01*
X173465276Y-160623100D01*
X173235731Y-160622900D01*
X173023583Y-160710558D01*
X173011119Y-160723000D01*
X171982426Y-160723000D01*
X171982426Y-160600000D01*
X171963111Y-160497350D01*
X171902445Y-160403073D01*
X171809880Y-160339825D01*
X171700000Y-160317574D01*
X169900000Y-160317574D01*
X169797350Y-160336889D01*
X169703073Y-160397555D01*
X169639825Y-160490120D01*
X169617574Y-160600000D01*
X169617574Y-161873001D01*
X168547581Y-161873001D01*
X167637290Y-160962710D01*
X167482540Y-160859309D01*
X167300000Y-160823000D01*
X167182426Y-160823000D01*
X167182426Y-160600000D01*
X167163111Y-160497350D01*
X167102445Y-160403073D01*
X167009880Y-160339825D01*
X166900000Y-160317574D01*
X165100000Y-160317574D01*
X164997350Y-160336889D01*
X164903073Y-160397555D01*
X164839825Y-160490120D01*
X164817574Y-160600000D01*
X152009387Y-160600000D01*
X149491121Y-158395153D01*
X149375260Y-158285750D01*
X164465000Y-158285750D01*
X164465000Y-158826309D01*
X164561673Y-159059698D01*
X164740301Y-159238327D01*
X164973690Y-159335000D01*
X165714250Y-159335000D01*
X165873000Y-159176250D01*
X165873000Y-158127000D01*
X166127000Y-158127000D01*
X166127000Y-159176250D01*
X166285750Y-159335000D01*
X167026310Y-159335000D01*
X167259699Y-159238327D01*
X167438327Y-159059698D01*
X167535000Y-158826309D01*
X167535000Y-158285750D01*
X167376250Y-158127000D01*
X166127000Y-158127000D01*
X165873000Y-158127000D01*
X164623750Y-158127000D01*
X164465000Y-158285750D01*
X149375260Y-158285750D01*
X148197550Y-157173691D01*
X164465000Y-157173691D01*
X164465000Y-157714250D01*
X164623750Y-157873000D01*
X165873000Y-157873000D01*
X165873000Y-156823750D01*
X166127000Y-156823750D01*
X166127000Y-157873000D01*
X167376250Y-157873000D01*
X167535000Y-157714250D01*
X167535000Y-157300000D01*
X169617574Y-157300000D01*
X169617574Y-158700000D01*
X169636889Y-158802650D01*
X169697555Y-158896927D01*
X169790120Y-158960175D01*
X169900000Y-158982426D01*
X171700000Y-158982426D01*
X171802650Y-158963111D01*
X171896927Y-158902445D01*
X171960175Y-158809880D01*
X171982426Y-158700000D01*
X171982426Y-157300000D01*
X171963111Y-157197350D01*
X171902445Y-157103073D01*
X171809880Y-157039825D01*
X171700000Y-157017574D01*
X171277000Y-157017574D01*
X171277000Y-155372580D01*
X181867154Y-144782426D01*
X183275000Y-144782426D01*
X183377650Y-144763111D01*
X183471927Y-144702445D01*
X183535175Y-144609880D01*
X183557426Y-144500000D01*
X183557426Y-143100000D01*
X185992574Y-143100000D01*
X185992574Y-144500000D01*
X186011889Y-144602650D01*
X186072555Y-144696927D01*
X186165120Y-144760175D01*
X186275000Y-144782426D01*
X187332846Y-144782426D01*
X188897915Y-146347495D01*
X188897900Y-146364269D01*
X188985558Y-146576417D01*
X189147729Y-146738871D01*
X189359724Y-146826900D01*
X189589269Y-146827100D01*
X189801417Y-146739442D01*
X189963871Y-146577271D01*
X190051900Y-146365276D01*
X190052100Y-146135731D01*
X189964442Y-145923583D01*
X189802271Y-145761129D01*
X189590276Y-145673100D01*
X189572665Y-145673085D01*
X188357426Y-144457846D01*
X188357426Y-143100000D01*
X188338111Y-142997350D01*
X188277445Y-142903073D01*
X188184880Y-142839825D01*
X188075000Y-142817574D01*
X186275000Y-142817574D01*
X186172350Y-142836889D01*
X186078073Y-142897555D01*
X186014825Y-142990120D01*
X185992574Y-143100000D01*
X183557426Y-143100000D01*
X183538111Y-142997350D01*
X183477445Y-142903073D01*
X183384880Y-142839825D01*
X183275000Y-142817574D01*
X181475000Y-142817574D01*
X181372350Y-142836889D01*
X181278073Y-142897555D01*
X181214825Y-142990120D01*
X181192574Y-143100000D01*
X181192574Y-144107846D01*
X170462710Y-154837710D01*
X170359309Y-154992460D01*
X170323000Y-155175000D01*
X170323000Y-157017574D01*
X169900000Y-157017574D01*
X169797350Y-157036889D01*
X169703073Y-157097555D01*
X169639825Y-157190120D01*
X169617574Y-157300000D01*
X167535000Y-157300000D01*
X167535000Y-157173691D01*
X167438327Y-156940302D01*
X167259699Y-156761673D01*
X167026310Y-156665000D01*
X166285750Y-156665000D01*
X166127000Y-156823750D01*
X165873000Y-156823750D01*
X165714250Y-156665000D01*
X164973690Y-156665000D01*
X164740301Y-156761673D01*
X164561673Y-156940302D01*
X164465000Y-157173691D01*
X148197550Y-157173691D01*
X147469876Y-156486582D01*
X147469876Y-155236254D01*
X150453947Y-153923982D01*
X150456903Y-153921913D01*
X150460407Y-153921057D01*
X153583172Y-152466185D01*
X153586491Y-152463753D01*
X153590462Y-152462678D01*
X155429222Y-151549997D01*
X155432312Y-151547613D01*
X155436052Y-151546506D01*
X157239168Y-150598164D01*
X157242436Y-150595518D01*
X157246440Y-150594222D01*
X158737642Y-149761115D01*
X158740987Y-149758264D01*
X158745131Y-149756800D01*
X160203399Y-148890750D01*
X160206854Y-148887644D01*
X160211189Y-148885975D01*
X161484634Y-148080730D01*
X161488134Y-148077402D01*
X161492592Y-148075535D01*
X162734497Y-147238743D01*
X162738052Y-147235160D01*
X162742647Y-147233070D01*
X163854463Y-146433799D01*
X163858025Y-146429985D01*
X163862704Y-146427676D01*
X164943858Y-145597751D01*
X164947419Y-145593689D01*
X164952181Y-145591144D01*
X165933916Y-144785518D01*
X165937436Y-144781229D01*
X165942241Y-144778451D01*
X166893924Y-143942781D01*
X166897392Y-143938256D01*
X166902227Y-143935234D01*
X167774138Y-143114952D01*
X167777519Y-143110211D01*
X167782345Y-143106955D01*
X168624600Y-142257009D01*
X168627878Y-142252054D01*
X168632680Y-142248558D01*
X169408826Y-141407180D01*
X169411972Y-141402034D01*
X169416716Y-141398309D01*
X169941934Y-140785750D01*
X180840000Y-140785750D01*
X180840000Y-141326309D01*
X180936673Y-141559698D01*
X181115301Y-141738327D01*
X181348690Y-141835000D01*
X182089250Y-141835000D01*
X182248000Y-141676250D01*
X182248000Y-140627000D01*
X182502000Y-140627000D01*
X182502000Y-141676250D01*
X182660750Y-141835000D01*
X183401310Y-141835000D01*
X183634699Y-141738327D01*
X183813327Y-141559698D01*
X183910000Y-141326309D01*
X183910000Y-140785750D01*
X183751250Y-140627000D01*
X182502000Y-140627000D01*
X182248000Y-140627000D01*
X180998750Y-140627000D01*
X180840000Y-140785750D01*
X169941934Y-140785750D01*
X170163391Y-140527467D01*
X170166390Y-140522136D01*
X170171056Y-140518186D01*
X170842821Y-139673691D01*
X180840000Y-139673691D01*
X180840000Y-140214250D01*
X180998750Y-140373000D01*
X182248000Y-140373000D01*
X182248000Y-139323750D01*
X182502000Y-139323750D01*
X182502000Y-140373000D01*
X183751250Y-140373000D01*
X183910000Y-140214250D01*
X183910000Y-139800000D01*
X185992574Y-139800000D01*
X185992574Y-141200000D01*
X186011889Y-141302650D01*
X186072555Y-141396927D01*
X186165120Y-141460175D01*
X186275000Y-141482426D01*
X188075000Y-141482426D01*
X188177650Y-141463111D01*
X188271927Y-141402445D01*
X188335175Y-141309880D01*
X188357426Y-141200000D01*
X188357426Y-141057006D01*
X197837710Y-150537290D01*
X197992460Y-150640691D01*
X198175000Y-150677000D01*
X227267574Y-150677000D01*
X227267574Y-150900000D01*
X227286889Y-151002650D01*
X227347555Y-151096927D01*
X227440120Y-151160175D01*
X227550000Y-151182426D01*
X229350000Y-151182426D01*
X229452650Y-151163111D01*
X229546927Y-151102445D01*
X229610175Y-151009880D01*
X229632426Y-150900000D01*
X229632426Y-149500000D01*
X232067574Y-149500000D01*
X232067574Y-150900000D01*
X232086889Y-151002650D01*
X232147555Y-151096927D01*
X232240120Y-151160175D01*
X232350000Y-151182426D01*
X234150000Y-151182426D01*
X234252650Y-151163111D01*
X234346927Y-151102445D01*
X234410175Y-151009880D01*
X234432426Y-150900000D01*
X234432426Y-150577000D01*
X234560879Y-150577000D01*
X234572729Y-150588871D01*
X234784724Y-150676900D01*
X235014269Y-150677100D01*
X235226417Y-150589442D01*
X235388871Y-150427271D01*
X235476900Y-150215276D01*
X235477100Y-149985731D01*
X235389442Y-149773583D01*
X235227271Y-149611129D01*
X235015276Y-149523100D01*
X234785731Y-149522900D01*
X234573583Y-149610558D01*
X234561119Y-149623000D01*
X234432426Y-149623000D01*
X234432426Y-149500000D01*
X234413111Y-149397350D01*
X234352445Y-149303073D01*
X234259880Y-149239825D01*
X234150000Y-149217574D01*
X232350000Y-149217574D01*
X232247350Y-149236889D01*
X232153073Y-149297555D01*
X232089825Y-149390120D01*
X232067574Y-149500000D01*
X229632426Y-149500000D01*
X229613111Y-149397350D01*
X229552445Y-149303073D01*
X229459880Y-149239825D01*
X229350000Y-149217574D01*
X227550000Y-149217574D01*
X227447350Y-149236889D01*
X227353073Y-149297555D01*
X227289825Y-149390120D01*
X227267574Y-149500000D01*
X227267574Y-149723000D01*
X198372580Y-149723000D01*
X196127317Y-147477737D01*
X222347779Y-147477737D01*
X222541781Y-147947257D01*
X222900693Y-148306797D01*
X223369875Y-148501618D01*
X223877897Y-148502061D01*
X224347417Y-148308059D01*
X224706957Y-147949147D01*
X224901778Y-147479965D01*
X224902034Y-147185750D01*
X226915000Y-147185750D01*
X226915000Y-147726309D01*
X227011673Y-147959698D01*
X227190301Y-148138327D01*
X227423690Y-148235000D01*
X228164250Y-148235000D01*
X228323000Y-148076250D01*
X228323000Y-147027000D01*
X228577000Y-147027000D01*
X228577000Y-148076250D01*
X228735750Y-148235000D01*
X229476310Y-148235000D01*
X229709699Y-148138327D01*
X229888327Y-147959698D01*
X229985000Y-147726309D01*
X229985000Y-147185750D01*
X229826250Y-147027000D01*
X228577000Y-147027000D01*
X228323000Y-147027000D01*
X227073750Y-147027000D01*
X226915000Y-147185750D01*
X224902034Y-147185750D01*
X224902221Y-146971943D01*
X224708219Y-146502423D01*
X224349307Y-146142883D01*
X224182674Y-146073691D01*
X226915000Y-146073691D01*
X226915000Y-146614250D01*
X227073750Y-146773000D01*
X228323000Y-146773000D01*
X228323000Y-145723750D01*
X228577000Y-145723750D01*
X228577000Y-146773000D01*
X229826250Y-146773000D01*
X229985000Y-146614250D01*
X229985000Y-146073691D01*
X229888327Y-145840302D01*
X229709699Y-145661673D01*
X229476310Y-145565000D01*
X228735750Y-145565000D01*
X228577000Y-145723750D01*
X228323000Y-145723750D01*
X228164250Y-145565000D01*
X227423690Y-145565000D01*
X227190301Y-145661673D01*
X227011673Y-145840302D01*
X226915000Y-146073691D01*
X224182674Y-146073691D01*
X223880125Y-145948062D01*
X223372103Y-145947619D01*
X222902583Y-146141621D01*
X222543043Y-146500533D01*
X222348222Y-146969715D01*
X222347779Y-147477737D01*
X196127317Y-147477737D01*
X189427272Y-140777692D01*
X222652073Y-140777692D01*
X222750736Y-141044547D01*
X223360461Y-141271068D01*
X224010460Y-141247016D01*
X224499264Y-141044547D01*
X224597927Y-140777692D01*
X223625000Y-139804765D01*
X222652073Y-140777692D01*
X189427272Y-140777692D01*
X188812290Y-140162710D01*
X188657540Y-140059309D01*
X188475000Y-140023000D01*
X188357426Y-140023000D01*
X188357426Y-139800000D01*
X188338111Y-139697350D01*
X188291692Y-139625213D01*
X203624392Y-139625213D01*
X203693857Y-139867397D01*
X204217302Y-140054144D01*
X204772368Y-140026362D01*
X205156143Y-139867397D01*
X205225608Y-139625213D01*
X204425000Y-138824605D01*
X203624392Y-139625213D01*
X188291692Y-139625213D01*
X188277445Y-139603073D01*
X188184880Y-139539825D01*
X188075000Y-139517574D01*
X186275000Y-139517574D01*
X186172350Y-139536889D01*
X186078073Y-139597555D01*
X186014825Y-139690120D01*
X185992574Y-139800000D01*
X183910000Y-139800000D01*
X183910000Y-139673691D01*
X183813327Y-139440302D01*
X183634699Y-139261673D01*
X183401310Y-139165000D01*
X182660750Y-139165000D01*
X182502000Y-139323750D01*
X182248000Y-139323750D01*
X182089250Y-139165000D01*
X181348690Y-139165000D01*
X181115301Y-139261673D01*
X180936673Y-139440302D01*
X180840000Y-139673691D01*
X170842821Y-139673691D01*
X170861547Y-139650151D01*
X170864373Y-139644665D01*
X170868933Y-139640504D01*
X171529951Y-138742997D01*
X171532592Y-138737365D01*
X171537026Y-138733004D01*
X171738185Y-138437302D01*
X203015856Y-138437302D01*
X203043638Y-138992368D01*
X203202603Y-139376143D01*
X203444787Y-139445608D01*
X204245395Y-138645000D01*
X204604605Y-138645000D01*
X205405213Y-139445608D01*
X205647397Y-139376143D01*
X205652934Y-139360621D01*
X221979092Y-139360621D01*
X222003144Y-140010620D01*
X222205613Y-140499424D01*
X222472468Y-140598087D01*
X223445395Y-139625160D01*
X222472468Y-138652233D01*
X222205613Y-138750896D01*
X221979092Y-139360621D01*
X205652934Y-139360621D01*
X205834144Y-138852698D01*
X205806362Y-138297632D01*
X205647397Y-137913857D01*
X205405213Y-137844392D01*
X204604605Y-138645000D01*
X204245395Y-138645000D01*
X203444787Y-137844392D01*
X203202603Y-137913857D01*
X203015856Y-138437302D01*
X171738185Y-138437302D01*
X172149239Y-137833057D01*
X172151675Y-137827311D01*
X172155958Y-137822770D01*
X172254959Y-137664787D01*
X203624392Y-137664787D01*
X204425000Y-138465395D01*
X205225608Y-137664787D01*
X205156143Y-137422603D01*
X204632698Y-137235856D01*
X204077632Y-137263638D01*
X203693857Y-137422603D01*
X203624392Y-137664787D01*
X172254959Y-137664787D01*
X172738500Y-136893167D01*
X172740597Y-136887654D01*
X172744488Y-136883223D01*
X173223698Y-136054533D01*
X173228969Y-136039041D01*
X173238498Y-136025738D01*
X173249366Y-135979091D01*
X173264794Y-135933744D01*
X173263735Y-135917414D01*
X173267448Y-135901476D01*
X173259637Y-135854217D01*
X173256537Y-135806422D01*
X173249310Y-135791741D01*
X173246641Y-135775594D01*
X173221339Y-135734922D01*
X173200185Y-135691951D01*
X173187889Y-135681153D01*
X173179245Y-135667258D01*
X172425781Y-134863089D01*
X172411000Y-134852501D01*
X172399755Y-134838210D01*
X171404768Y-133986831D01*
X171395389Y-133981567D01*
X171388205Y-133973565D01*
X169910132Y-132866469D01*
X168679859Y-131901385D01*
X168117564Y-131389886D01*
X167598240Y-130837834D01*
X167262400Y-130415340D01*
X166957687Y-129961215D01*
X166719161Y-129532676D01*
X166513354Y-129078300D01*
X166308391Y-128429638D01*
X168541049Y-127544153D01*
X168549231Y-127538863D01*
X168558696Y-127536547D01*
X170995433Y-126400225D01*
X171003326Y-126394437D01*
X171012682Y-126391553D01*
X173367816Y-125118970D01*
X173375379Y-125112706D01*
X173384573Y-125109263D01*
X175654753Y-123702891D01*
X175661939Y-123696184D01*
X175670924Y-123692197D01*
X177504397Y-122400000D01*
X190142574Y-122400000D01*
X190142574Y-123800000D01*
X190161889Y-123902650D01*
X190222555Y-123996927D01*
X190315120Y-124060175D01*
X190425000Y-124082426D01*
X192225000Y-124082426D01*
X192327650Y-124063111D01*
X192421927Y-124002445D01*
X192485175Y-123909880D01*
X192507426Y-123800000D01*
X192507426Y-123657006D01*
X197712711Y-128862291D01*
X197867461Y-128965692D01*
X198050001Y-129002001D01*
X214477421Y-129002001D01*
X223470189Y-137994769D01*
X223239540Y-138003304D01*
X222750736Y-138205773D01*
X222652073Y-138472628D01*
X223625000Y-139445555D01*
X223639143Y-139431413D01*
X223818748Y-139611018D01*
X223804605Y-139625160D01*
X224777532Y-140598087D01*
X225044387Y-140499424D01*
X225270908Y-139889699D01*
X225267288Y-139791868D01*
X232067574Y-146592154D01*
X232067574Y-147600000D01*
X232086889Y-147702650D01*
X232147555Y-147796927D01*
X232240120Y-147860175D01*
X232350000Y-147882426D01*
X234150000Y-147882426D01*
X234252650Y-147863111D01*
X234346927Y-147802445D01*
X234410175Y-147709880D01*
X234432426Y-147600000D01*
X234432426Y-146200000D01*
X234413111Y-146097350D01*
X234352445Y-146003073D01*
X234259880Y-145939825D01*
X234150000Y-145917574D01*
X232742154Y-145917574D01*
X215012291Y-128187711D01*
X214857541Y-128084310D01*
X214675001Y-128048001D01*
X214432426Y-128048001D01*
X214432426Y-126775000D01*
X216867574Y-126775000D01*
X216867574Y-128175000D01*
X216886889Y-128277650D01*
X216947555Y-128371927D01*
X217040120Y-128435175D01*
X217150000Y-128457426D01*
X217498000Y-128457426D01*
X217498000Y-129535879D01*
X217486129Y-129547729D01*
X217398100Y-129759724D01*
X217397900Y-129989269D01*
X217485558Y-130201417D01*
X217647729Y-130363871D01*
X217859724Y-130451900D01*
X218089269Y-130452100D01*
X218301417Y-130364442D01*
X218463871Y-130202271D01*
X218551900Y-129990276D01*
X218552100Y-129760731D01*
X218464442Y-129548583D01*
X218452000Y-129536119D01*
X218452000Y-128457426D01*
X218950000Y-128457426D01*
X219052650Y-128438111D01*
X219146927Y-128377445D01*
X219210175Y-128284880D01*
X219232426Y-128175000D01*
X219232426Y-126775000D01*
X219213111Y-126672350D01*
X219152445Y-126578073D01*
X219059880Y-126514825D01*
X218950000Y-126492574D01*
X217150000Y-126492574D01*
X217047350Y-126511889D01*
X216953073Y-126572555D01*
X216889825Y-126665120D01*
X216867574Y-126775000D01*
X214432426Y-126775000D01*
X214413111Y-126672350D01*
X214352445Y-126578073D01*
X214259880Y-126514825D01*
X214150000Y-126492574D01*
X213727000Y-126492574D01*
X213727000Y-126375000D01*
X213690691Y-126192460D01*
X213587290Y-126037710D01*
X213011915Y-125462335D01*
X213123000Y-125351250D01*
X213123000Y-124302000D01*
X213377000Y-124302000D01*
X213377000Y-125351250D01*
X213535750Y-125510000D01*
X214276310Y-125510000D01*
X214509699Y-125413327D01*
X214688327Y-125234698D01*
X214785000Y-125001309D01*
X214785000Y-124460750D01*
X214626250Y-124302000D01*
X213377000Y-124302000D01*
X213123000Y-124302000D01*
X213103000Y-124302000D01*
X213103000Y-124048000D01*
X213123000Y-124048000D01*
X213123000Y-122998750D01*
X213377000Y-122998750D01*
X213377000Y-124048000D01*
X214626250Y-124048000D01*
X214785000Y-123889250D01*
X214785000Y-123348691D01*
X214688327Y-123115302D01*
X214509699Y-122936673D01*
X214276310Y-122840000D01*
X213535750Y-122840000D01*
X213377000Y-122998750D01*
X213123000Y-122998750D01*
X212964250Y-122840000D01*
X212223690Y-122840000D01*
X211990301Y-122936673D01*
X211811673Y-123115302D01*
X211715000Y-123348691D01*
X211715000Y-123889250D01*
X211873748Y-124047998D01*
X211715000Y-124047998D01*
X211715000Y-124165420D01*
X207012290Y-119462710D01*
X206857540Y-119359309D01*
X206675000Y-119323000D01*
X197307426Y-119323000D01*
X197307426Y-119100000D01*
X197288111Y-118997350D01*
X197227445Y-118903073D01*
X197134880Y-118839825D01*
X197025000Y-118817574D01*
X195351999Y-118817574D01*
X195351999Y-116522581D01*
X207942574Y-103932006D01*
X207942574Y-104975000D01*
X207961889Y-105077650D01*
X208022555Y-105171927D01*
X208115120Y-105235175D01*
X208225000Y-105257426D01*
X210025000Y-105257426D01*
X210127650Y-105238111D01*
X210221927Y-105177445D01*
X210285175Y-105084880D01*
X210307426Y-104975000D01*
X210307426Y-104560750D01*
X212390000Y-104560750D01*
X212390000Y-105101309D01*
X212486673Y-105334698D01*
X212665301Y-105513327D01*
X212898690Y-105610000D01*
X213639250Y-105610000D01*
X213798000Y-105451250D01*
X213798000Y-104402000D01*
X214052000Y-104402000D01*
X214052000Y-105451250D01*
X214210750Y-105610000D01*
X214951310Y-105610000D01*
X215184699Y-105513327D01*
X215363327Y-105334698D01*
X215460000Y-105101309D01*
X215460000Y-104560750D01*
X215301250Y-104402000D01*
X214052000Y-104402000D01*
X213798000Y-104402000D01*
X212548750Y-104402000D01*
X212390000Y-104560750D01*
X210307426Y-104560750D01*
X210307426Y-103575000D01*
X210288111Y-103472350D01*
X210272887Y-103448691D01*
X212390000Y-103448691D01*
X212390000Y-103989250D01*
X212548750Y-104148000D01*
X213798000Y-104148000D01*
X213798000Y-103098750D01*
X214052000Y-103098750D01*
X214052000Y-104148000D01*
X215301250Y-104148000D01*
X215460000Y-103989250D01*
X215460000Y-103448691D01*
X215363327Y-103215302D01*
X215184699Y-103036673D01*
X214951310Y-102940000D01*
X214210750Y-102940000D01*
X214052000Y-103098750D01*
X213798000Y-103098750D01*
X213639250Y-102940000D01*
X212898690Y-102940000D01*
X212665301Y-103036673D01*
X212486673Y-103215302D01*
X212390000Y-103448691D01*
X210272887Y-103448691D01*
X210227445Y-103378073D01*
X210134880Y-103314825D01*
X210025000Y-103292574D01*
X208582006Y-103292574D01*
X209462290Y-102412290D01*
X209565691Y-102257540D01*
X209602000Y-102075000D01*
X209602000Y-101957426D01*
X210025000Y-101957426D01*
X210127650Y-101938111D01*
X210221927Y-101877445D01*
X210285175Y-101784880D01*
X210307426Y-101675000D01*
X210307426Y-100275000D01*
X212742574Y-100275000D01*
X212742574Y-101675000D01*
X212761889Y-101777650D01*
X212822555Y-101871927D01*
X212915120Y-101935175D01*
X213025000Y-101957426D01*
X214432846Y-101957426D01*
X217573000Y-105097580D01*
X217573000Y-123192574D01*
X217150000Y-123192574D01*
X217047350Y-123211889D01*
X216953073Y-123272555D01*
X216889825Y-123365120D01*
X216867574Y-123475000D01*
X216867574Y-124875000D01*
X216886889Y-124977650D01*
X216947555Y-125071927D01*
X217040120Y-125135175D01*
X217150000Y-125157426D01*
X218950000Y-125157426D01*
X219052650Y-125138111D01*
X219146927Y-125077445D01*
X219210175Y-124984880D01*
X219232426Y-124875000D01*
X219232426Y-123475000D01*
X219213111Y-123372350D01*
X219152445Y-123278073D01*
X219059880Y-123214825D01*
X218950000Y-123192574D01*
X218527000Y-123192574D01*
X218527000Y-104900000D01*
X218490691Y-104717460D01*
X218387290Y-104562710D01*
X215107426Y-101282846D01*
X215107426Y-100275000D01*
X215088111Y-100172350D01*
X215027445Y-100078073D01*
X214934880Y-100014825D01*
X214825000Y-99992574D01*
X213025000Y-99992574D01*
X212922350Y-100011889D01*
X212828073Y-100072555D01*
X212764825Y-100165120D01*
X212742574Y-100275000D01*
X210307426Y-100275000D01*
X210288111Y-100172350D01*
X210227445Y-100078073D01*
X210134880Y-100014825D01*
X210025000Y-99992574D01*
X208225000Y-99992574D01*
X208122350Y-100011889D01*
X208028073Y-100072555D01*
X207964825Y-100165120D01*
X207942574Y-100275000D01*
X207942574Y-101675000D01*
X207961889Y-101777650D01*
X208022555Y-101871927D01*
X208115120Y-101935175D01*
X208225000Y-101957426D01*
X208567994Y-101957426D01*
X194537709Y-115987711D01*
X194434308Y-116142461D01*
X194397999Y-116325001D01*
X194397999Y-120749999D01*
X194434308Y-120932539D01*
X194537709Y-121087289D01*
X195567994Y-122117574D01*
X195225000Y-122117574D01*
X195122350Y-122136889D01*
X195028073Y-122197555D01*
X194964825Y-122290120D01*
X194942574Y-122400000D01*
X194942574Y-123800000D01*
X194961889Y-123902650D01*
X195022555Y-123996927D01*
X195115120Y-124060175D01*
X195225000Y-124082426D01*
X195698000Y-124082426D01*
X195698000Y-124585879D01*
X195686129Y-124597729D01*
X195598100Y-124809724D01*
X195597900Y-125039269D01*
X195685558Y-125251417D01*
X195847729Y-125413871D01*
X196059724Y-125501900D01*
X196289269Y-125502100D01*
X196501417Y-125414442D01*
X196663871Y-125252271D01*
X196751900Y-125040276D01*
X196752100Y-124810731D01*
X196664442Y-124598583D01*
X196652000Y-124586119D01*
X196652000Y-124082426D01*
X197025000Y-124082426D01*
X197127650Y-124063111D01*
X197221927Y-124002445D01*
X197285175Y-123909880D01*
X197307426Y-123800000D01*
X197307426Y-122400000D01*
X197288111Y-122297350D01*
X197227445Y-122203073D01*
X197134880Y-122139825D01*
X197025000Y-122117574D01*
X196602000Y-122117574D01*
X196602000Y-122000000D01*
X196597654Y-121978149D01*
X196565691Y-121817459D01*
X196462290Y-121662710D01*
X195582006Y-120782426D01*
X197025000Y-120782426D01*
X197127650Y-120763111D01*
X197221927Y-120702445D01*
X197285175Y-120609880D01*
X197307426Y-120500000D01*
X197307426Y-120277000D01*
X206477420Y-120277000D01*
X212692994Y-126492574D01*
X212350000Y-126492574D01*
X212247350Y-126511889D01*
X212153073Y-126572555D01*
X212089825Y-126665120D01*
X212067574Y-126775000D01*
X212067574Y-128048001D01*
X198247581Y-128048001D01*
X192962290Y-122762710D01*
X192807540Y-122659309D01*
X192625000Y-122623000D01*
X192507426Y-122623000D01*
X192507426Y-122400000D01*
X192488111Y-122297350D01*
X192427445Y-122203073D01*
X192334880Y-122139825D01*
X192225000Y-122117574D01*
X190425000Y-122117574D01*
X190322350Y-122136889D01*
X190228073Y-122197555D01*
X190164825Y-122290120D01*
X190142574Y-122400000D01*
X177504397Y-122400000D01*
X177852159Y-122154904D01*
X177858933Y-122147784D01*
X177867667Y-122143272D01*
X179955329Y-120478355D01*
X179961662Y-120470855D01*
X179970103Y-120465840D01*
X180392746Y-120085750D01*
X189790000Y-120085750D01*
X189790000Y-120626309D01*
X189886673Y-120859698D01*
X190065301Y-121038327D01*
X190298690Y-121135000D01*
X191039250Y-121135000D01*
X191198000Y-120976250D01*
X191198000Y-119927000D01*
X191452000Y-119927000D01*
X191452000Y-120976250D01*
X191610750Y-121135000D01*
X192351310Y-121135000D01*
X192584699Y-121038327D01*
X192763327Y-120859698D01*
X192860000Y-120626309D01*
X192860000Y-120085750D01*
X192701250Y-119927000D01*
X191452000Y-119927000D01*
X191198000Y-119927000D01*
X189948750Y-119927000D01*
X189790000Y-120085750D01*
X180392746Y-120085750D01*
X181629306Y-118973691D01*
X189790000Y-118973691D01*
X189790000Y-119514250D01*
X189948750Y-119673000D01*
X191198000Y-119673000D01*
X191198000Y-118623750D01*
X191452000Y-118623750D01*
X191452000Y-119673000D01*
X192701250Y-119673000D01*
X192860000Y-119514250D01*
X192860000Y-118973691D01*
X192763327Y-118740302D01*
X192584699Y-118561673D01*
X192351310Y-118465000D01*
X191610750Y-118465000D01*
X191452000Y-118623750D01*
X191198000Y-118623750D01*
X191039250Y-118465000D01*
X190298690Y-118465000D01*
X190065301Y-118561673D01*
X189886673Y-118740302D01*
X189790000Y-118973691D01*
X181629306Y-118973691D01*
X181958918Y-118677266D01*
X181964786Y-118669417D01*
X181972899Y-118663924D01*
X183857010Y-116756499D01*
X183862394Y-116748334D01*
X183870151Y-116742385D01*
X185643184Y-114721923D01*
X185648067Y-114713471D01*
X185655449Y-114707087D01*
X187310646Y-112580500D01*
X187313637Y-112574538D01*
X187318505Y-112569974D01*
X187895035Y-111764478D01*
X187912526Y-111725818D01*
X187934987Y-111689823D01*
X187938591Y-111668205D01*
X187947627Y-111648233D01*
X187948992Y-111605821D01*
X187955969Y-111563972D01*
X187951026Y-111542620D01*
X187951731Y-111520709D01*
X187936760Y-111480999D01*
X187927192Y-111439670D01*
X187914455Y-111421837D01*
X187906721Y-111401322D01*
X187877693Y-111370364D01*
X187853037Y-111335842D01*
X187834443Y-111324239D01*
X187819450Y-111308249D01*
X187780792Y-111290759D01*
X187744795Y-111268296D01*
X186628803Y-110846260D01*
X185619359Y-110305816D01*
X184672178Y-109630092D01*
X183762378Y-108798296D01*
X182860636Y-107773024D01*
X181920579Y-106483420D01*
X180828799Y-104753099D01*
X180197125Y-103696061D01*
X182193505Y-102778826D01*
X182201859Y-102772773D01*
X182211727Y-102769757D01*
X184442639Y-101571377D01*
X184450638Y-101564785D01*
X184460339Y-101561143D01*
X186603375Y-100231035D01*
X186610921Y-100223979D01*
X186620348Y-100219753D01*
X188683687Y-98753520D01*
X188690700Y-98746091D01*
X188699750Y-98741344D01*
X190691106Y-97132777D01*
X190697525Y-97125078D01*
X190706105Y-97119893D01*
X192632840Y-95360814D01*
X192638625Y-95352954D01*
X192646666Y-95347424D01*
X193794682Y-94168191D01*
X203297805Y-94168191D01*
X203469019Y-94582560D01*
X203785772Y-94899867D01*
X204199842Y-95071804D01*
X204648191Y-95072195D01*
X205062560Y-94900981D01*
X205379867Y-94584228D01*
X205551804Y-94170158D01*
X205552195Y-93721809D01*
X205380981Y-93307440D01*
X205064228Y-92990133D01*
X204650158Y-92818196D01*
X204201809Y-92817805D01*
X203787440Y-92989019D01*
X203470133Y-93305772D01*
X203298196Y-93719842D01*
X203297805Y-94168191D01*
X193794682Y-94168191D01*
X194515898Y-93427365D01*
X194521028Y-93419460D01*
X194528477Y-93413687D01*
X196347294Y-91319540D01*
X196351768Y-91311705D01*
X196358591Y-91305796D01*
X198134363Y-89021220D01*
X198138202Y-89013556D01*
X198144380Y-89007621D01*
X199885217Y-86511986D01*
X199888335Y-86504864D01*
X199893683Y-86499222D01*
X201483603Y-83975830D01*
X201505217Y-83919418D01*
X201528015Y-83863478D01*
X201527995Y-83859968D01*
X201529252Y-83856687D01*
X201527632Y-83796274D01*
X201527288Y-83735891D01*
X201504355Y-83623937D01*
X201484440Y-83576622D01*
X201468248Y-83527891D01*
X201443948Y-83485167D01*
X201410351Y-83446354D01*
X201379871Y-83405056D01*
X201307498Y-83339153D01*
X201301530Y-83335557D01*
X201297160Y-83330128D01*
X201247086Y-83302751D01*
X201198215Y-83273304D01*
X201191325Y-83272265D01*
X201185211Y-83268923D01*
X200942878Y-83192904D01*
X200924775Y-83190948D01*
X200907931Y-83184024D01*
X200675049Y-83138354D01*
X200670343Y-83058765D01*
X200714458Y-82088521D01*
X200710828Y-82064653D01*
X200713121Y-82040621D01*
X200608690Y-81012575D01*
X200602293Y-80991715D01*
X200601479Y-80969913D01*
X200340706Y-79874195D01*
X200333023Y-79857442D01*
X200330288Y-79839218D01*
X199895085Y-78629394D01*
X199888299Y-78618115D01*
X199885317Y-78605295D01*
X199228998Y-77154566D01*
X199228839Y-77154344D01*
X199228776Y-77154075D01*
X198921303Y-76477407D01*
X202797735Y-76477407D01*
X203029717Y-77038846D01*
X203458894Y-77468773D01*
X204019928Y-77701735D01*
X204627407Y-77702265D01*
X205188846Y-77470283D01*
X205618773Y-77041106D01*
X205851735Y-76480072D01*
X205852265Y-75872593D01*
X205620283Y-75311154D01*
X205191106Y-74881227D01*
X204630072Y-74648265D01*
X204022593Y-74647735D01*
X203461154Y-74879717D01*
X203031227Y-75308894D01*
X202798265Y-75869928D01*
X202797735Y-76477407D01*
X198921303Y-76477407D01*
X198716110Y-76025833D01*
X198927917Y-75987745D01*
X198938188Y-75983711D01*
X198949211Y-75983179D01*
X199539863Y-75835794D01*
X199550405Y-75830819D01*
X199561977Y-75829441D01*
X200101734Y-75653614D01*
X200112364Y-75647650D01*
X200124330Y-75645322D01*
X200632067Y-75437482D01*
X200642657Y-75430470D01*
X200654898Y-75427096D01*
X201120940Y-75193133D01*
X201131242Y-75185111D01*
X201143516Y-75180661D01*
X201579620Y-74916776D01*
X201589477Y-74907766D01*
X201601629Y-74902215D01*
X202003965Y-74612008D01*
X202013140Y-74602151D01*
X202024888Y-74595581D01*
X202398614Y-74276779D01*
X202411078Y-74260988D01*
X202427311Y-74249105D01*
X203091626Y-73525274D01*
X203105143Y-73503038D01*
X203123450Y-73484558D01*
X203684767Y-72635880D01*
X203693993Y-72613308D01*
X203708408Y-72593642D01*
X204142796Y-71661746D01*
X204788942Y-71661746D01*
X204881907Y-71976852D01*
M02*
