G04 #@! TF.FileFunction,Soldermask,Bot*
%FSLAX46Y46*%
G04 Gerber Fmt 4.6, Leading zero omitted, Abs format (unit mm)*
G04 Created by KiCad (PCBNEW 4.0.4-stable) date 12/07/16 00:48:56*
%MOMM*%
%LPD*%
G01*
G04 APERTURE LIST*
%ADD10C,0.100000*%
%ADD11R,1.600200X3.599180*%
%ADD12R,0.700000X0.600000*%
%ADD13R,0.590000X0.450000*%
%ADD14R,1.000000X1.000000*%
%ADD15R,2.032000X1.727200*%
%ADD16O,2.032000X1.727200*%
%ADD17R,0.600000X0.700000*%
%ADD18R,1.600000X2.180000*%
%ADD19C,2.000000*%
%ADD20R,2.500000X1.100000*%
%ADD21O,2.500000X1.100000*%
%ADD22O,1.100000X2.400000*%
%ADD23C,1.700000*%
%ADD24C,1.524000*%
G04 APERTURE END LIST*
D10*
D11*
X191750000Y-159050820D03*
X191750000Y-153549180D03*
X180575000Y-150325820D03*
X180575000Y-144824180D03*
D12*
X191100000Y-173575000D03*
X189900000Y-173575000D03*
D13*
X222280000Y-170600000D03*
X220170000Y-170600000D03*
D14*
X236150000Y-169250000D03*
X234850000Y-169250000D03*
X220575000Y-172875000D03*
X221875000Y-172875000D03*
D15*
X189600000Y-127500000D03*
D16*
X189600000Y-130040000D03*
X189600000Y-132580000D03*
D10*
G36*
X248943622Y-158525906D02*
X249718622Y-159868246D01*
X249199006Y-160168246D01*
X248424006Y-158825906D01*
X248943622Y-158525906D01*
X248943622Y-158525906D01*
G37*
G36*
X248077596Y-159025906D02*
X248852596Y-160368246D01*
X248332980Y-160668246D01*
X247557980Y-159325906D01*
X248077596Y-159025906D01*
X248077596Y-159025906D01*
G37*
G36*
X247211571Y-159525906D02*
X247986571Y-160868246D01*
X247466955Y-161168246D01*
X246691955Y-159825906D01*
X247211571Y-159525906D01*
X247211571Y-159525906D01*
G37*
G36*
X246345545Y-160025906D02*
X247120545Y-161368246D01*
X246600929Y-161668246D01*
X245825929Y-160325906D01*
X246345545Y-160025906D01*
X246345545Y-160025906D01*
G37*
G36*
X245479520Y-160525906D02*
X246254520Y-161868246D01*
X245734904Y-162168246D01*
X244959904Y-160825906D01*
X245479520Y-160525906D01*
X245479520Y-160525906D01*
G37*
G36*
X244613494Y-161025906D02*
X245388494Y-162368246D01*
X244868878Y-162668246D01*
X244093878Y-161325906D01*
X244613494Y-161025906D01*
X244613494Y-161025906D01*
G37*
G36*
X252204262Y-160973501D02*
X253104262Y-162532347D01*
X252065032Y-163132347D01*
X251165032Y-161573501D01*
X252204262Y-160973501D01*
X252204262Y-160973501D01*
G37*
G36*
X245622468Y-164773501D02*
X246522468Y-166332347D01*
X245483238Y-166932347D01*
X244583238Y-165373501D01*
X245622468Y-164773501D01*
X245622468Y-164773501D01*
G37*
D12*
X189300000Y-163925000D03*
X190500000Y-163925000D03*
X221150000Y-165825000D03*
X222350000Y-165825000D03*
X221150000Y-163650000D03*
X222350000Y-163650000D03*
D17*
X227775000Y-171325000D03*
X227775000Y-170125000D03*
D12*
X187450000Y-173575000D03*
X188650000Y-173575000D03*
X222350000Y-168400000D03*
X221150000Y-168400000D03*
D18*
X227747680Y-157172570D03*
X227752320Y-166377430D03*
X183747680Y-158347570D03*
X183752320Y-167552430D03*
D19*
X223625000Y-139625160D03*
X223625000Y-147224840D03*
D20*
X197875000Y-175700000D03*
D21*
X197875000Y-173700000D03*
X197875000Y-171700000D03*
X197875000Y-169700000D03*
X197875000Y-167700000D03*
X197875000Y-165700000D03*
X197875000Y-163700000D03*
X197875000Y-161700000D03*
D22*
X200565000Y-159950000D03*
X202565000Y-159950000D03*
X204565000Y-159950000D03*
X206565000Y-159950000D03*
X208565000Y-159950000D03*
X210565000Y-159950000D03*
D21*
X213275000Y-161700000D03*
X213175000Y-163700000D03*
X213275000Y-165700000D03*
X213275000Y-167700000D03*
X213275000Y-169700000D03*
X213275000Y-171700000D03*
X213275000Y-173700000D03*
X213275000Y-175700000D03*
D14*
X191300000Y-170350000D03*
X191300000Y-169050000D03*
D23*
X204425000Y-93945000D03*
D24*
X204425000Y-138645000D03*
M02*
