G04 #@! TF.FileFunction,Legend,Top*
%FSLAX46Y46*%
G04 Gerber Fmt 4.6, Leading zero omitted, Abs format (unit mm)*
G04 Created by KiCad (PCBNEW 4.0.4-stable) date 12/07/16 00:48:56*
%MOMM*%
%LPD*%
G01*
G04 APERTURE LIST*
%ADD10C,0.100000*%
%ADD11C,0.150000*%
%ADD12C,0.200000*%
%ADD13C,0.010000*%
G04 APERTURE END LIST*
D10*
D11*
X206789890Y-172125220D02*
X204289890Y-172125220D01*
X204289890Y-172125220D02*
X204289890Y-171025220D01*
X204289890Y-171025220D02*
X206789890Y-171025220D01*
X206789890Y-171025220D02*
X206789890Y-172125220D01*
X207039890Y-170775220D02*
X204039890Y-170775220D01*
X207039890Y-172375220D02*
X204039890Y-172375220D01*
X204039890Y-172375220D02*
X204039890Y-170775220D01*
X207039890Y-172375220D02*
X207039890Y-170775220D01*
X208539890Y-169825220D02*
X202539890Y-169825220D01*
X208539890Y-173325220D02*
X202539890Y-173325220D01*
X208539890Y-173325220D02*
X208539890Y-169825220D01*
X202539890Y-173325220D02*
X202539890Y-169825220D01*
D12*
X169400000Y-158650000D02*
X169400000Y-160650000D01*
X169400000Y-160650000D02*
X167400000Y-160650000D01*
X167400000Y-160650000D02*
X167400000Y-159150000D01*
X167400000Y-159150000D02*
X167900000Y-158650000D01*
X167900000Y-158650000D02*
X169400000Y-158650000D01*
X169400000Y-157150000D02*
X167400000Y-157150000D01*
X165900000Y-159150000D02*
X165900000Y-160150000D01*
X169400000Y-162150000D02*
X167400000Y-162150000D01*
X170900000Y-159150000D02*
X170900000Y-160150000D01*
X185775000Y-141150000D02*
X185775000Y-143150000D01*
X185775000Y-143150000D02*
X183775000Y-143150000D01*
X183775000Y-143150000D02*
X183775000Y-141650000D01*
X183775000Y-141650000D02*
X184275000Y-141150000D01*
X184275000Y-141150000D02*
X185775000Y-141150000D01*
X185775000Y-139650000D02*
X183775000Y-139650000D01*
X182275000Y-141650000D02*
X182275000Y-142650000D01*
X185775000Y-144650000D02*
X183775000Y-144650000D01*
X187275000Y-141650000D02*
X187275000Y-142650000D01*
X231850000Y-147550000D02*
X231850000Y-149550000D01*
X231850000Y-149550000D02*
X229850000Y-149550000D01*
X229850000Y-149550000D02*
X229850000Y-148050000D01*
X229850000Y-148050000D02*
X230350000Y-147550000D01*
X230350000Y-147550000D02*
X231850000Y-147550000D01*
X231850000Y-146050000D02*
X229850000Y-146050000D01*
X228350000Y-148050000D02*
X228350000Y-149050000D01*
X231850000Y-151050000D02*
X229850000Y-151050000D01*
X233350000Y-148050000D02*
X233350000Y-149050000D01*
X194725000Y-120450000D02*
X194725000Y-122450000D01*
X194725000Y-122450000D02*
X192725000Y-122450000D01*
X192725000Y-122450000D02*
X192725000Y-120950000D01*
X192725000Y-120950000D02*
X193225000Y-120450000D01*
X193225000Y-120450000D02*
X194725000Y-120450000D01*
X194725000Y-118950000D02*
X192725000Y-118950000D01*
X191225000Y-120950000D02*
X191225000Y-121950000D01*
X194725000Y-123950000D02*
X192725000Y-123950000D01*
X196225000Y-120950000D02*
X196225000Y-121950000D01*
X216650000Y-124825000D02*
X216650000Y-126825000D01*
X216650000Y-126825000D02*
X214650000Y-126825000D01*
X214650000Y-126825000D02*
X214650000Y-125325000D01*
X214650000Y-125325000D02*
X215150000Y-124825000D01*
X215150000Y-124825000D02*
X216650000Y-124825000D01*
X216650000Y-123325000D02*
X214650000Y-123325000D01*
X213150000Y-125325000D02*
X213150000Y-126325000D01*
X216650000Y-128325000D02*
X214650000Y-128325000D01*
X218150000Y-125325000D02*
X218150000Y-126325000D01*
X210525000Y-103625000D02*
X210525000Y-101625000D01*
X210525000Y-101625000D02*
X212525000Y-101625000D01*
X212525000Y-101625000D02*
X212525000Y-103125000D01*
X212525000Y-103125000D02*
X212025000Y-103625000D01*
X212025000Y-103625000D02*
X210525000Y-103625000D01*
X210525000Y-105125000D02*
X212525000Y-105125000D01*
X214025000Y-103125000D02*
X214025000Y-102125000D01*
X210525000Y-100125000D02*
X212525000Y-100125000D01*
X209025000Y-103125000D02*
X209025000Y-102125000D01*
D13*
G36*
X207077041Y-84615878D02*
X207258860Y-84762593D01*
X207429671Y-84943097D01*
X207536209Y-85105010D01*
X207549000Y-85156706D01*
X207609082Y-85276851D01*
X207746396Y-85426738D01*
X207896545Y-85543293D01*
X207972333Y-85571333D01*
X208047432Y-85639916D01*
X208057000Y-85698427D01*
X208114225Y-85824440D01*
X208261455Y-86013472D01*
X208395666Y-86154186D01*
X208582299Y-86349093D01*
X208705302Y-86503980D01*
X208734333Y-86565566D01*
X208795778Y-86669839D01*
X208943775Y-86805561D01*
X208946000Y-86807236D01*
X209095424Y-86950846D01*
X209157666Y-87073089D01*
X209157666Y-87073189D01*
X209214538Y-87187548D01*
X209360946Y-87368490D01*
X209496333Y-87508852D01*
X209682496Y-87700268D01*
X209805505Y-87847353D01*
X209835000Y-87902372D01*
X209890866Y-87994415D01*
X210033013Y-88155844D01*
X210131333Y-88255022D01*
X210304303Y-88437493D01*
X210411066Y-88578018D01*
X210427666Y-88619333D01*
X210483763Y-88718475D01*
X210626432Y-88884601D01*
X210724000Y-88983643D01*
X210896651Y-89163548D01*
X211003467Y-89298395D01*
X211020333Y-89336294D01*
X211076468Y-89426421D01*
X211221160Y-89590397D01*
X211359000Y-89729813D01*
X211545191Y-89921441D01*
X211668200Y-90068999D01*
X211697666Y-90124422D01*
X211753835Y-90226714D01*
X211845833Y-90324087D01*
X212022600Y-90502223D01*
X212180311Y-90690825D01*
X212277431Y-90838089D01*
X212290333Y-90878481D01*
X212346870Y-90961852D01*
X212494084Y-91123130D01*
X212671333Y-91299422D01*
X212870352Y-91497973D01*
X213008227Y-91650540D01*
X213052333Y-91717475D01*
X213090224Y-91792259D01*
X213212850Y-91942524D01*
X213433640Y-92183815D01*
X213666166Y-92428081D01*
X213814381Y-92597035D01*
X213894426Y-92717010D01*
X213899000Y-92734403D01*
X213958977Y-92830498D01*
X214110695Y-92991939D01*
X214311833Y-93180626D01*
X214520069Y-93358459D01*
X214693081Y-93487337D01*
X214782746Y-93529999D01*
X214871189Y-93602051D01*
X214969859Y-93781336D01*
X214994731Y-93844567D01*
X215140572Y-94117769D01*
X215342035Y-94358398D01*
X215359377Y-94373734D01*
X215641832Y-94631723D01*
X216020682Y-95003703D01*
X216481606Y-95475541D01*
X216579946Y-95578104D01*
X216928327Y-95927803D01*
X217179475Y-96145915D01*
X217337872Y-96236234D01*
X217361100Y-96239333D01*
X217450623Y-96297828D01*
X217455000Y-96323032D01*
X217507142Y-96451769D01*
X217669530Y-96660398D01*
X217951099Y-96959772D01*
X218108156Y-97116269D01*
X218501731Y-97500320D01*
X218792715Y-97776961D01*
X218996685Y-97960063D01*
X219129222Y-98063499D01*
X219205905Y-98101140D01*
X219215212Y-98102000D01*
X219315625Y-98169589D01*
X219348284Y-98229000D01*
X219461435Y-98341630D01*
X219526676Y-98356000D01*
X219640984Y-98404566D01*
X219656333Y-98447725D01*
X219717375Y-98567623D01*
X219869751Y-98742510D01*
X220067339Y-98928484D01*
X220264016Y-99081643D01*
X220398337Y-99153987D01*
X220558940Y-99264583D01*
X220672333Y-99414333D01*
X220812976Y-99589601D01*
X220948026Y-99675218D01*
X221101532Y-99763771D01*
X221308617Y-99930879D01*
X221421304Y-100037378D01*
X221651505Y-100245568D01*
X221878824Y-100416281D01*
X221963500Y-100466730D01*
X222126945Y-100570788D01*
X222196314Y-100655390D01*
X222196333Y-100656306D01*
X222266928Y-100714647D01*
X222355791Y-100726666D01*
X222504776Y-100798177D01*
X222559532Y-100896000D01*
X222672273Y-101037707D01*
X222814228Y-101065333D01*
X222994947Y-101118023D01*
X223077767Y-101276999D01*
X223154466Y-101435798D01*
X223239059Y-101488666D01*
X223402522Y-101548561D01*
X223643666Y-101713122D01*
X223891360Y-101924808D01*
X224089171Y-102062442D01*
X224219975Y-102121013D01*
X224361164Y-102196985D01*
X224397666Y-102256372D01*
X224466508Y-102326048D01*
X224527323Y-102335333D01*
X224668595Y-102403830D01*
X224705715Y-102462333D01*
X224805094Y-102574725D01*
X224859436Y-102589333D01*
X224994145Y-102640894D01*
X225159666Y-102758666D01*
X225334858Y-102880325D01*
X225468954Y-102927999D01*
X225573061Y-102977239D01*
X225583000Y-103011053D01*
X225654839Y-103091304D01*
X225794666Y-103147232D01*
X225953163Y-103212602D01*
X226006333Y-103275845D01*
X226077326Y-103337203D01*
X226175666Y-103351333D01*
X226313247Y-103386789D01*
X226345000Y-103436000D01*
X226413576Y-103511114D01*
X226472000Y-103520666D01*
X226584702Y-103564349D01*
X226599000Y-103601496D01*
X226673014Y-103668680D01*
X226855146Y-103729634D01*
X226895333Y-103737919D01*
X227097999Y-103806007D01*
X227190473Y-103899640D01*
X227191666Y-103911089D01*
X227259643Y-104015109D01*
X227318666Y-104028666D01*
X227431338Y-104074384D01*
X227445666Y-104113333D01*
X227514243Y-104188447D01*
X227572666Y-104198000D01*
X227674721Y-104271743D01*
X227699666Y-104412323D01*
X227654824Y-104592639D01*
X227572666Y-104675382D01*
X227465583Y-104790844D01*
X227445666Y-104884391D01*
X227392655Y-105016668D01*
X227324372Y-105044666D01*
X227206093Y-105115544D01*
X227145137Y-105227218D01*
X227041467Y-105416003D01*
X226885432Y-105596760D01*
X226745703Y-105747229D01*
X226683740Y-105855439D01*
X226683563Y-105858708D01*
X226632759Y-105966271D01*
X226507205Y-106137562D01*
X226471896Y-106179668D01*
X226333691Y-106368193D01*
X226262803Y-106519280D01*
X226260333Y-106539502D01*
X226206125Y-106643389D01*
X226168828Y-106653333D01*
X226074594Y-106710965D01*
X225895142Y-106864424D01*
X225659505Y-107084554D01*
X225396716Y-107342200D01*
X225135806Y-107608205D01*
X224905808Y-107853414D01*
X224735755Y-108048670D01*
X224654679Y-108164819D01*
X224651666Y-108176943D01*
X224580584Y-108245507D01*
X224478290Y-108262000D01*
X224299228Y-108320824D01*
X224118457Y-108458808D01*
X223939245Y-108616819D01*
X223783833Y-108710151D01*
X223658458Y-108817073D01*
X223635666Y-108894342D01*
X223564927Y-109000710D01*
X223466333Y-109024000D01*
X223329000Y-109072417D01*
X223297000Y-109140178D01*
X223218556Y-109231818D01*
X223008063Y-109301606D01*
X222958333Y-109310512D01*
X222746603Y-109362857D01*
X222628508Y-109427946D01*
X222619666Y-109448333D01*
X222551514Y-109523554D01*
X222498714Y-109532000D01*
X222339686Y-109587741D01*
X222261932Y-109647829D01*
X222089685Y-109765281D01*
X221942333Y-109828333D01*
X221734900Y-109925317D01*
X221622734Y-110008836D01*
X221461920Y-110088827D01*
X221230319Y-110124540D01*
X221216619Y-110124666D01*
X221023148Y-110145019D01*
X220928285Y-110194934D01*
X220926333Y-110204145D01*
X220850952Y-110262767D01*
X220660147Y-110319831D01*
X220545333Y-110340758D01*
X220318531Y-110389615D01*
X220182137Y-110447647D01*
X220164333Y-110472946D01*
X220092478Y-110531994D01*
X219973833Y-110549156D01*
X219649601Y-110586491D01*
X219453896Y-110688171D01*
X219402333Y-110811874D01*
X219436804Y-110944046D01*
X219480272Y-110971333D01*
X219550845Y-111044322D01*
X219612900Y-111220394D01*
X219614000Y-111225333D01*
X219675436Y-111403082D01*
X219746201Y-111479285D01*
X219747727Y-111479333D01*
X219816506Y-111548189D01*
X219825666Y-111608990D01*
X219893932Y-111751557D01*
X219947492Y-111785396D01*
X220053000Y-111895542D01*
X220122000Y-112072000D01*
X220199036Y-112261658D01*
X220296507Y-112358603D01*
X220405849Y-112473215D01*
X220418333Y-112535009D01*
X220458910Y-112649439D01*
X220494717Y-112664666D01*
X220572434Y-112735860D01*
X220655947Y-112908240D01*
X220659646Y-112918666D01*
X220746066Y-113094765D01*
X220833742Y-113172476D01*
X220837262Y-113172666D01*
X220916116Y-113241231D01*
X220926333Y-113300495D01*
X220986084Y-113448913D01*
X221095666Y-113573311D01*
X221223890Y-113720255D01*
X221265000Y-113824869D01*
X221337081Y-113922907D01*
X221476666Y-113984565D01*
X221650086Y-114086383D01*
X221688333Y-114222983D01*
X221750580Y-114396636D01*
X221903993Y-114585360D01*
X221938747Y-114615971D01*
X222101913Y-114773231D01*
X222188666Y-114899430D01*
X222192747Y-114918007D01*
X222250304Y-115021341D01*
X222398297Y-115204113D01*
X222605507Y-115427976D01*
X222619666Y-115442411D01*
X222828074Y-115661623D01*
X222979216Y-115834889D01*
X223042629Y-115927124D01*
X223043000Y-115929910D01*
X223101695Y-116019039D01*
X223261088Y-116197479D01*
X223496132Y-116441123D01*
X223781786Y-116725867D01*
X224093006Y-117027604D01*
X224404747Y-117322229D01*
X224691967Y-117585636D01*
X224929622Y-117793718D01*
X225092668Y-117922372D01*
X225142644Y-117950930D01*
X225288190Y-118025851D01*
X225329000Y-118086216D01*
X225392188Y-118211715D01*
X225549076Y-118385130D01*
X225750651Y-118563237D01*
X225947896Y-118702815D01*
X226091798Y-118760640D01*
X226093822Y-118760666D01*
X226229621Y-118809379D01*
X226260333Y-118875807D01*
X226323586Y-119001453D01*
X226476438Y-119146205D01*
X226483003Y-119150973D01*
X226715919Y-119330498D01*
X226918699Y-119501500D01*
X227084912Y-119631616D01*
X227202315Y-119691550D01*
X227208072Y-119692000D01*
X227312427Y-119748651D01*
X227464655Y-119886741D01*
X227480584Y-119903666D01*
X227634540Y-120047450D01*
X227747287Y-120114664D01*
X227754059Y-120115333D01*
X227866192Y-120171510D01*
X227967564Y-120263500D01*
X228228365Y-120504222D01*
X228479451Y-120662011D01*
X228648220Y-120708000D01*
X228775798Y-120765314D01*
X228800333Y-120833386D01*
X228872436Y-120946662D01*
X229005873Y-121010361D01*
X229181493Y-121094022D01*
X229257216Y-121181307D01*
X229367238Y-121288978D01*
X229423617Y-121300666D01*
X229556719Y-121369009D01*
X229592951Y-121427666D01*
X229706101Y-121540297D01*
X229771342Y-121554666D01*
X229885709Y-121599566D01*
X229901000Y-121639333D01*
X229973456Y-121702979D01*
X230112666Y-121724000D01*
X230282905Y-121768160D01*
X230324333Y-121851000D01*
X230394919Y-121954428D01*
X230493666Y-121978000D01*
X230631043Y-122024381D01*
X230663000Y-122089197D01*
X230734462Y-122189457D01*
X230911127Y-122296270D01*
X230959333Y-122316666D01*
X231150905Y-122406074D01*
X231251313Y-122480723D01*
X231255666Y-122492624D01*
X231327230Y-122555230D01*
X231467333Y-122605434D01*
X231625838Y-122671094D01*
X231679000Y-122734885D01*
X231751841Y-122804884D01*
X231925926Y-122865446D01*
X232118249Y-122942079D01*
X232219603Y-123041507D01*
X232334215Y-123150849D01*
X232396009Y-123163333D01*
X232510406Y-123206233D01*
X232525666Y-123244163D01*
X232599681Y-123311346D01*
X232781812Y-123372301D01*
X232822000Y-123380586D01*
X233024665Y-123448674D01*
X233117140Y-123542307D01*
X233118333Y-123553755D01*
X233186310Y-123657776D01*
X233245333Y-123671333D01*
X233358065Y-123712896D01*
X233372333Y-123748175D01*
X233446927Y-123810721D01*
X233638050Y-123887564D01*
X233795666Y-123933515D01*
X234040190Y-124015990D01*
X234191868Y-124106161D01*
X234219000Y-124153006D01*
X234287110Y-124251264D01*
X234346000Y-124264000D01*
X234458724Y-124306146D01*
X234473000Y-124341939D01*
X234545988Y-124412512D01*
X234722061Y-124474567D01*
X234727000Y-124475666D01*
X234904714Y-124535983D01*
X234980950Y-124604075D01*
X234981000Y-124605557D01*
X235054970Y-124668284D01*
X235237007Y-124726999D01*
X235277333Y-124735252D01*
X235472689Y-124790686D01*
X235570916Y-124855339D01*
X235573666Y-124866089D01*
X235642381Y-124932886D01*
X235700666Y-124941333D01*
X235813040Y-125003450D01*
X235827666Y-125057329D01*
X235902717Y-125148445D01*
X236095558Y-125243364D01*
X236208666Y-125280000D01*
X236433321Y-125355860D01*
X236570173Y-125427060D01*
X236589666Y-125453609D01*
X236662556Y-125516433D01*
X236838425Y-125575167D01*
X236843666Y-125576333D01*
X237021354Y-125635806D01*
X237097615Y-125701886D01*
X237097666Y-125703333D01*
X237170595Y-125769168D01*
X237346544Y-125829194D01*
X237351666Y-125830333D01*
X237529354Y-125889806D01*
X237605615Y-125955886D01*
X237605666Y-125957333D01*
X237678595Y-126023168D01*
X237854544Y-126083194D01*
X237859666Y-126084333D01*
X238037331Y-126143091D01*
X238113614Y-126207465D01*
X238113666Y-126208881D01*
X238185341Y-126278337D01*
X238325333Y-126330767D01*
X238483838Y-126396428D01*
X238537000Y-126460219D01*
X238609974Y-126529655D01*
X238786017Y-126591224D01*
X238791000Y-126592333D01*
X238968647Y-126650559D01*
X239044946Y-126713664D01*
X239045000Y-126715057D01*
X239118774Y-126775181D01*
X239305950Y-126851630D01*
X239426000Y-126888666D01*
X239650655Y-126964527D01*
X239787506Y-127035727D01*
X239807000Y-127062276D01*
X239879889Y-127125100D01*
X240055758Y-127183834D01*
X240061000Y-127185000D01*
X240238687Y-127244473D01*
X240314948Y-127310552D01*
X240315000Y-127312000D01*
X240387928Y-127377834D01*
X240563878Y-127437860D01*
X240569000Y-127439000D01*
X240746665Y-127497758D01*
X240822947Y-127562132D01*
X240823000Y-127563548D01*
X240894675Y-127633003D01*
X241034666Y-127685434D01*
X241193239Y-127753422D01*
X241246333Y-127821613D01*
X241314934Y-127895304D01*
X241373333Y-127904666D01*
X241469538Y-127958133D01*
X241496556Y-128130415D01*
X241456655Y-128439340D01*
X241447416Y-128486749D01*
X241381075Y-128669366D01*
X241292459Y-128751031D01*
X241287261Y-128751333D01*
X241188719Y-128823421D01*
X241126898Y-128963000D01*
X241058911Y-129121572D01*
X240990720Y-129174666D01*
X240923235Y-129245593D01*
X240907666Y-129344000D01*
X240854727Y-129481904D01*
X240780666Y-129513333D01*
X240667971Y-129557503D01*
X240653666Y-129595080D01*
X240599054Y-129701445D01*
X240462120Y-129870261D01*
X240399666Y-129936666D01*
X240242973Y-130112927D01*
X240153619Y-130244382D01*
X240145666Y-130270983D01*
X240091143Y-130370157D01*
X239952141Y-130540192D01*
X239850987Y-130648901D01*
X239664751Y-130871851D01*
X239532619Y-131086799D01*
X239503142Y-131164170D01*
X239425418Y-131323070D01*
X239338838Y-131376000D01*
X239275926Y-131394414D01*
X239180201Y-131460131D01*
X239034907Y-131588858D01*
X238823285Y-131796303D01*
X238528578Y-132098174D01*
X238177166Y-132464927D01*
X238000092Y-132665028D01*
X237884837Y-132822922D01*
X237859666Y-132882092D01*
X237787478Y-132961683D01*
X237632832Y-133023241D01*
X237444566Y-133116106D01*
X237212936Y-133290798D01*
X237082593Y-133413419D01*
X236892418Y-133597937D01*
X236746392Y-133718954D01*
X236693243Y-133746666D01*
X236594393Y-133804337D01*
X236482311Y-133916000D01*
X236326892Y-134044836D01*
X236209495Y-134085333D01*
X236096307Y-134131748D01*
X236081666Y-134171815D01*
X236012331Y-134263684D01*
X235848833Y-134360532D01*
X235657845Y-134469040D01*
X235548292Y-134570383D01*
X235419154Y-134668588D01*
X235366851Y-134678000D01*
X235239940Y-134746216D01*
X235204382Y-134805000D01*
X235091231Y-134917630D01*
X235025990Y-134932000D01*
X234911569Y-134973218D01*
X234896333Y-135009611D01*
X234825760Y-135090916D01*
X234663500Y-135172260D01*
X234530637Y-135232625D01*
X234524768Y-135263499D01*
X234529772Y-135263982D01*
X234616254Y-135342161D01*
X234683113Y-135517593D01*
X234759746Y-135709916D01*
X234859173Y-135811269D01*
X234968516Y-135925881D01*
X234981000Y-135987676D01*
X235025900Y-136102042D01*
X235065666Y-136117333D01*
X235141781Y-136185468D01*
X235150333Y-136238285D01*
X235205889Y-136398926D01*
X235261371Y-136471119D01*
X235371250Y-136624047D01*
X235486970Y-136843091D01*
X235493706Y-136858166D01*
X235601548Y-137041269D01*
X235707838Y-137131386D01*
X235721334Y-137133333D01*
X235807625Y-137204020D01*
X235827666Y-137302666D01*
X235859315Y-137440305D01*
X235903154Y-137472000D01*
X235977689Y-137543754D01*
X236031767Y-137683666D01*
X236114455Y-137842598D01*
X236210279Y-137895333D01*
X236311907Y-137965782D01*
X236335666Y-138064666D01*
X236388606Y-138202570D01*
X236462666Y-138234000D01*
X236566094Y-138304586D01*
X236589666Y-138403333D01*
X236621687Y-138540966D01*
X236666050Y-138572666D01*
X236743767Y-138643860D01*
X236827281Y-138816240D01*
X236830979Y-138826666D01*
X236916929Y-139002740D01*
X237003499Y-139080473D01*
X237006982Y-139080666D01*
X237090482Y-139152571D01*
X237147750Y-139293070D01*
X237272334Y-139489543D01*
X237403363Y-139556248D01*
X237569449Y-139658436D01*
X237605666Y-139768007D01*
X237666526Y-139943491D01*
X237775000Y-140073978D01*
X237902222Y-140207647D01*
X237944333Y-140291329D01*
X237999325Y-140391157D01*
X238137097Y-140554316D01*
X238198333Y-140617692D01*
X238356842Y-140797637D01*
X238446452Y-140940875D01*
X238453796Y-140971012D01*
X238516654Y-141101425D01*
X238662062Y-141263872D01*
X238829464Y-141399864D01*
X238951100Y-141451333D01*
X239034348Y-141519759D01*
X239045000Y-141578333D01*
X239090717Y-141691005D01*
X239129666Y-141705333D01*
X239209192Y-141771698D01*
X239214333Y-141806244D01*
X239272120Y-141916336D01*
X239420653Y-142091475D01*
X239553000Y-142222957D01*
X239741141Y-142412347D01*
X239864108Y-142562889D01*
X239891666Y-142620988D01*
X239959206Y-142719502D01*
X240018666Y-142751951D01*
X240130810Y-142839540D01*
X240145666Y-142884421D01*
X240202537Y-142963617D01*
X240358704Y-143139206D01*
X240592496Y-143389208D01*
X240882241Y-143691645D01*
X241206271Y-144024536D01*
X241542913Y-144365904D01*
X241870498Y-144693768D01*
X242167354Y-144986149D01*
X242411812Y-145221067D01*
X242582200Y-145376545D01*
X242656154Y-145430666D01*
X242759234Y-145492373D01*
X242968671Y-145673213D01*
X243277198Y-145966770D01*
X243399063Y-146086833D01*
X243577535Y-146251088D01*
X243709352Y-146349490D01*
X243741241Y-146362000D01*
X243830669Y-146418898D01*
X243992147Y-146565367D01*
X244125000Y-146700666D01*
X244314023Y-146888491D01*
X244461665Y-147012109D01*
X244517311Y-147040796D01*
X244620203Y-147097827D01*
X244773207Y-147234965D01*
X244790053Y-147252462D01*
X244947121Y-147395167D01*
X245063415Y-147461982D01*
X245070619Y-147462666D01*
X245181686Y-147515329D01*
X245349351Y-147644760D01*
X245379232Y-147671593D01*
X245596428Y-147871328D01*
X245837933Y-148093706D01*
X245877513Y-148130183D01*
X246087869Y-148300346D01*
X246279480Y-148417804D01*
X246322013Y-148434962D01*
X246461166Y-148512770D01*
X246495666Y-148573443D01*
X246566964Y-148656066D01*
X246739560Y-148741764D01*
X246749666Y-148745353D01*
X246925569Y-148828083D01*
X247003453Y-148907072D01*
X247003666Y-148910282D01*
X247074652Y-148972367D01*
X247173000Y-148986666D01*
X247311917Y-149040830D01*
X247342333Y-149116323D01*
X247411671Y-149252228D01*
X247490500Y-149302086D01*
X247683155Y-149412153D01*
X247750547Y-149468762D01*
X247908099Y-149564518D01*
X247983380Y-149579333D01*
X248092093Y-149628492D01*
X248104333Y-149666657D01*
X248172859Y-149766149D01*
X248252500Y-149810086D01*
X248438142Y-149907238D01*
X248503561Y-149955595D01*
X248718231Y-150134285D01*
X248860656Y-150224526D01*
X248980986Y-150254887D01*
X249032093Y-150256666D01*
X249171602Y-150291465D01*
X249205000Y-150341333D01*
X249272901Y-150417952D01*
X249322941Y-150426000D01*
X249453646Y-150494294D01*
X249489617Y-150553000D01*
X249602768Y-150665630D01*
X249668009Y-150680000D01*
X249782376Y-150724900D01*
X249797666Y-150764666D01*
X249868579Y-150833456D01*
X249967000Y-150849333D01*
X250104295Y-150899419D01*
X250136333Y-150969606D01*
X250209649Y-151070033D01*
X250386393Y-151144786D01*
X250390333Y-151145666D01*
X250568067Y-151206632D01*
X250644284Y-151276273D01*
X250644333Y-151277780D01*
X250716097Y-151352949D01*
X250856000Y-151407232D01*
X251014315Y-151466734D01*
X251067666Y-151518836D01*
X251139834Y-151584242D01*
X251314976Y-151664588D01*
X251531052Y-151736818D01*
X251726022Y-151777874D01*
X251772177Y-151780666D01*
X251893857Y-151842205D01*
X251914333Y-151907666D01*
X251982106Y-152019915D01*
X252041333Y-152034666D01*
X252154057Y-152076813D01*
X252168333Y-152112606D01*
X252241322Y-152183179D01*
X252417394Y-152245233D01*
X252422333Y-152246333D01*
X252599998Y-152305091D01*
X252676280Y-152369465D01*
X252676333Y-152370881D01*
X252748008Y-152440337D01*
X252888000Y-152492767D01*
X253046505Y-152558428D01*
X253099666Y-152622219D01*
X253172641Y-152691655D01*
X253348684Y-152753224D01*
X253353666Y-152754333D01*
X253531314Y-152812559D01*
X253607612Y-152875664D01*
X253607666Y-152877057D01*
X253681441Y-152937181D01*
X253868617Y-153013630D01*
X253988666Y-153050666D01*
X254213290Y-153126040D01*
X254350148Y-153196029D01*
X254369666Y-153221824D01*
X254441741Y-153286523D01*
X254601651Y-153344534D01*
X254789716Y-153414992D01*
X254885783Y-153487132D01*
X254995932Y-153550287D01*
X255207916Y-153605701D01*
X255288797Y-153618567D01*
X255505123Y-153663322D01*
X255628598Y-153719368D01*
X255639666Y-153739147D01*
X255708111Y-153805025D01*
X255762459Y-153812666D01*
X255905334Y-153878678D01*
X255959755Y-153945795D01*
X256085322Y-154039956D01*
X256307891Y-154112611D01*
X256387295Y-154126277D01*
X256630318Y-154185045D01*
X256737602Y-154271814D01*
X256740333Y-154289481D01*
X256810906Y-154383441D01*
X256909666Y-154405333D01*
X257047247Y-154440789D01*
X257079000Y-154490000D01*
X257152456Y-154549901D01*
X257328003Y-154574666D01*
X257523531Y-154600765D01*
X257629333Y-154659333D01*
X257745692Y-154724165D01*
X257894377Y-154744000D01*
X258110842Y-154792953D01*
X258234095Y-154871000D01*
X258411313Y-154966460D01*
X258599989Y-154998000D01*
X258793523Y-155039174D01*
X258887617Y-155125000D01*
X259000768Y-155237630D01*
X259066009Y-155252000D01*
X259180376Y-155296900D01*
X259195666Y-155336666D01*
X259269985Y-155393090D01*
X259452257Y-155420762D01*
X259485952Y-155421333D01*
X259719405Y-155454197D01*
X259888438Y-155533833D01*
X259894106Y-155539202D01*
X260078857Y-155657494D01*
X260174348Y-155688340D01*
X260337610Y-155772253D01*
X260351149Y-155932658D01*
X260214795Y-156170096D01*
X259928379Y-156485109D01*
X259922926Y-156490441D01*
X259698939Y-156718494D01*
X259532203Y-156906102D01*
X259452544Y-157019219D01*
X259449666Y-157030642D01*
X259392516Y-157116489D01*
X259238698Y-157292070D01*
X259014660Y-157530887D01*
X258746853Y-157806443D01*
X258461726Y-158092241D01*
X258185726Y-158361782D01*
X257945304Y-158588570D01*
X257766908Y-158746106D01*
X257676987Y-158807894D01*
X257675561Y-158808000D01*
X257588442Y-158864088D01*
X257413477Y-159014417D01*
X257181131Y-159232083D01*
X257052384Y-159358333D01*
X256802692Y-159599847D01*
X256595120Y-159787767D01*
X256460138Y-159895108D01*
X256429334Y-159910129D01*
X256316525Y-159972709D01*
X256166997Y-160116735D01*
X256035892Y-160281402D01*
X255978355Y-160405905D01*
X255978333Y-160407433D01*
X255909977Y-160490856D01*
X255852301Y-160501333D01*
X255662737Y-160571997D01*
X255384937Y-160784633D01*
X255255266Y-160903500D01*
X255123986Y-160994545D01*
X255071864Y-161009333D01*
X254962128Y-161071778D01*
X254827945Y-161213611D01*
X254727789Y-161366584D01*
X254708333Y-161433634D01*
X254638314Y-161504269D01*
X254557816Y-161517333D01*
X254390912Y-161577844D01*
X254262311Y-161686666D01*
X254109184Y-161815339D01*
X253995200Y-161856000D01*
X253873796Y-161926523D01*
X253819333Y-162025333D01*
X253695079Y-162167915D01*
X253568686Y-162194666D01*
X253395436Y-162243249D01*
X253323048Y-162321666D01*
X253210800Y-162434283D01*
X253146270Y-162448666D01*
X253031977Y-162520935D01*
X252965101Y-162660333D01*
X252869182Y-162829681D01*
X252706830Y-162872000D01*
X252530214Y-162918737D01*
X252452951Y-162999000D01*
X252349723Y-163111464D01*
X252292322Y-163126000D01*
X252137895Y-163179928D01*
X252068547Y-163231833D01*
X251915117Y-163343717D01*
X251703083Y-163464320D01*
X251702666Y-163464528D01*
X251506613Y-163582929D01*
X251383117Y-163694106D01*
X251380959Y-163697361D01*
X251244868Y-163794554D01*
X251190459Y-163803333D01*
X251081881Y-163871198D01*
X251067666Y-163930333D01*
X250994065Y-164032476D01*
X250856000Y-164057333D01*
X250696885Y-164086315D01*
X250644333Y-164142000D01*
X250575573Y-164216681D01*
X250514676Y-164226666D01*
X250373404Y-164295163D01*
X250336284Y-164353666D01*
X250229681Y-164466190D01*
X250169608Y-164480666D01*
X250063201Y-164547679D01*
X250051666Y-164598244D01*
X249975886Y-164692873D01*
X249783624Y-164765633D01*
X249755333Y-164771413D01*
X249559724Y-164836240D01*
X249461655Y-164923835D01*
X249459000Y-164939348D01*
X249381895Y-165025908D01*
X249180715Y-165094673D01*
X249120333Y-165105846D01*
X248874684Y-165175441D01*
X248782070Y-165277849D01*
X248781666Y-165286000D01*
X248711164Y-165388305D01*
X248612333Y-165412000D01*
X248474709Y-165444666D01*
X248443000Y-165489939D01*
X248370011Y-165560512D01*
X248193938Y-165622567D01*
X248189000Y-165623666D01*
X248010917Y-165697496D01*
X247935030Y-165797854D01*
X247935000Y-165799727D01*
X247864483Y-165897244D01*
X247765666Y-165920000D01*
X247628043Y-165952666D01*
X247596333Y-165997939D01*
X247523344Y-166068512D01*
X247347272Y-166130567D01*
X247342333Y-166131666D01*
X247164685Y-166189893D01*
X247088387Y-166252997D01*
X247088333Y-166254390D01*
X247014558Y-166314514D01*
X246827382Y-166390963D01*
X246707333Y-166428000D01*
X246477075Y-166515317D01*
X246342648Y-166611666D01*
X246326333Y-166650670D01*
X246258323Y-166753307D01*
X246199333Y-166766666D01*
X246086591Y-166807508D01*
X246072333Y-166842154D01*
X246000578Y-166916689D01*
X245860666Y-166970767D01*
X245702161Y-167036428D01*
X245649000Y-167100219D01*
X245576025Y-167169655D01*
X245399982Y-167231224D01*
X245395000Y-167232333D01*
X245217334Y-167291091D01*
X245141052Y-167355465D01*
X245141000Y-167356881D01*
X245068876Y-167424697D01*
X244909014Y-167483867D01*
X244720949Y-167554326D01*
X244624883Y-167626465D01*
X244514733Y-167689620D01*
X244302750Y-167745034D01*
X244221868Y-167757901D01*
X244005599Y-167800284D01*
X243882104Y-167850406D01*
X243871000Y-167867477D01*
X243797266Y-167924974D01*
X243610183Y-167999811D01*
X243490000Y-168036666D01*
X243265260Y-168113865D01*
X243128425Y-168188392D01*
X243109000Y-168217003D01*
X243040557Y-168283009D01*
X242986207Y-168290666D01*
X242843331Y-168356678D01*
X242788911Y-168423795D01*
X242663343Y-168517956D01*
X242440774Y-168590611D01*
X242361371Y-168604277D01*
X242144265Y-168649045D01*
X242019836Y-168705017D01*
X242008333Y-168725147D01*
X241939888Y-168791025D01*
X241885540Y-168798666D01*
X241736326Y-168863587D01*
X241695040Y-168912824D01*
X241573024Y-168999025D01*
X241356674Y-169068046D01*
X241300823Y-169078297D01*
X241063943Y-169141567D01*
X240896138Y-169232213D01*
X240877490Y-169251451D01*
X240740780Y-169334292D01*
X240503294Y-169406658D01*
X240365282Y-169431815D01*
X240096560Y-169489699D01*
X239888352Y-169569809D01*
X239830068Y-169610169D01*
X239653165Y-169705552D01*
X239504619Y-169730000D01*
X239348400Y-169758418D01*
X239299000Y-169810830D01*
X239224985Y-169878013D01*
X239042853Y-169938967D01*
X239002666Y-169947252D01*
X238807310Y-170002686D01*
X238709083Y-170067339D01*
X238706333Y-170078089D01*
X238637440Y-170144501D01*
X238576676Y-170153333D01*
X238434634Y-170219757D01*
X238401760Y-170271275D01*
X238292958Y-170352393D01*
X238059572Y-170420606D01*
X237903476Y-170445818D01*
X237612515Y-170503621D01*
X237435822Y-170584175D01*
X237403716Y-170624210D01*
X237286135Y-170713702D01*
X237057990Y-170746000D01*
X236861066Y-170766841D01*
X236761844Y-170818145D01*
X236759000Y-170829666D01*
X236684074Y-170893496D01*
X236496371Y-170952860D01*
X236413078Y-170968647D01*
X236186546Y-171028214D01*
X236042384Y-171109555D01*
X236024295Y-171135657D01*
X235918883Y-171208542D01*
X235687357Y-171272512D01*
X235481217Y-171303945D01*
X235215949Y-171344459D01*
X235034580Y-171392248D01*
X234981000Y-171429081D01*
X234905728Y-171481424D01*
X234715488Y-171534430D01*
X234605697Y-171553904D01*
X234368726Y-171612426D01*
X234211875Y-171693857D01*
X234185021Y-171728425D01*
X234073141Y-171825716D01*
X233967657Y-171846666D01*
X233828573Y-171877153D01*
X233795666Y-171920393D01*
X233718325Y-171964317D01*
X233514757Y-172010701D01*
X233227645Y-172050028D01*
X233203000Y-172052520D01*
X232911149Y-172091659D01*
X232699532Y-172139835D01*
X232610840Y-172187112D01*
X232610333Y-172190460D01*
X232539596Y-172255741D01*
X232445996Y-172270000D01*
X232283915Y-172308878D01*
X232229333Y-172354666D01*
X232119667Y-172406107D01*
X231904995Y-172436146D01*
X231801003Y-172439333D01*
X231575522Y-172456359D01*
X231441312Y-172499378D01*
X231425000Y-172524000D01*
X231352463Y-172587357D01*
X231210676Y-172608666D01*
X231030360Y-172653508D01*
X230947617Y-172735666D01*
X230853310Y-172839698D01*
X230733306Y-172854885D01*
X230663224Y-172775630D01*
X230661703Y-172756833D01*
X230641395Y-172696899D01*
X230596614Y-172751320D01*
X230481766Y-172818883D01*
X230257871Y-172881850D01*
X230095044Y-172909713D01*
X229829238Y-172965124D01*
X229652690Y-173041087D01*
X229612457Y-173084559D01*
X229492702Y-173167717D01*
X229226183Y-173200917D01*
X229183990Y-173201333D01*
X228955826Y-173216118D01*
X228818430Y-173253554D01*
X228800333Y-173276244D01*
X228724009Y-173326748D01*
X228527068Y-173378564D01*
X228334666Y-173409336D01*
X228080038Y-173452012D01*
X227910898Y-173501175D01*
X227869000Y-173533815D01*
X227791202Y-173574063D01*
X227582713Y-173626544D01*
X227280885Y-173682656D01*
X227107000Y-173709333D01*
X226772587Y-173763649D01*
X226512860Y-173817982D01*
X226365164Y-173863916D01*
X226345000Y-173881080D01*
X226267988Y-173921128D01*
X226066446Y-173965226D01*
X225794666Y-174002542D01*
X225514745Y-174041895D01*
X225316582Y-174087653D01*
X225244333Y-174128469D01*
X225167493Y-174171851D01*
X224967067Y-174218735D01*
X224716154Y-174255217D01*
X224431789Y-174299483D01*
X224219690Y-174354962D01*
X224133959Y-174402373D01*
X224023719Y-174463355D01*
X223807163Y-174516837D01*
X223688471Y-174533897D01*
X223457778Y-174574143D01*
X223317138Y-174626138D01*
X223297000Y-174651677D01*
X223225991Y-174711551D01*
X223127666Y-174725333D01*
X222989624Y-174681083D01*
X222957036Y-174619500D01*
X222936038Y-174562730D01*
X222884277Y-174626397D01*
X222761627Y-174703173D01*
X222538536Y-174761990D01*
X222441073Y-174774900D01*
X222209642Y-174814030D01*
X222062993Y-174870611D01*
X222041111Y-174895003D01*
X221952445Y-174971755D01*
X221831355Y-174961010D01*
X221771703Y-174873500D01*
X221747606Y-174816789D01*
X221708203Y-174861723D01*
X221594861Y-174921462D01*
X221369908Y-174974604D01*
X221183912Y-174999151D01*
X220923022Y-175039163D01*
X220741457Y-175096167D01*
X220690023Y-175137928D01*
X220604440Y-175218164D01*
X220484250Y-175225128D01*
X220418592Y-175155296D01*
X220418333Y-175148666D01*
X220358901Y-175073997D01*
X220239606Y-175076928D01*
X220148949Y-175153439D01*
X220146100Y-175161032D01*
X220119268Y-175201165D01*
X220052930Y-175233312D01*
X219923088Y-175260818D01*
X219705740Y-175287024D01*
X219376887Y-175315274D01*
X218912527Y-175348910D01*
X218685276Y-175364498D01*
X218364137Y-175394480D01*
X218113447Y-175433136D01*
X217976940Y-175473266D01*
X217965610Y-175482952D01*
X217867481Y-175518432D01*
X217637550Y-175557369D01*
X217313121Y-175594388D01*
X217031666Y-175617558D01*
X216659921Y-175650564D01*
X216353787Y-175691012D01*
X216151012Y-175733114D01*
X216089643Y-175762012D01*
X215984707Y-175805215D01*
X215757179Y-175842667D01*
X215453793Y-175866980D01*
X215415280Y-175868634D01*
X215093854Y-175893065D01*
X214863723Y-175934124D01*
X214763337Y-175984870D01*
X214762748Y-175986422D01*
X214677205Y-176065504D01*
X214556956Y-176071366D01*
X214491861Y-176001054D01*
X214491666Y-175995333D01*
X214426490Y-175926745D01*
X214288877Y-175914965D01*
X214165703Y-175959411D01*
X214138100Y-175997699D01*
X214046089Y-176038343D01*
X213820927Y-176076598D01*
X213498773Y-176107378D01*
X213264595Y-176120545D01*
X212889379Y-176144783D01*
X212598166Y-176179886D01*
X212424260Y-176221106D01*
X212390495Y-176245179D01*
X212305068Y-176321222D01*
X212184680Y-176324216D01*
X212121071Y-176252746D01*
X212121000Y-176249333D01*
X212052520Y-176186643D01*
X211901690Y-176166378D01*
X211750418Y-176189829D01*
X211683555Y-176242433D01*
X211594363Y-176268333D01*
X211361138Y-176296464D01*
X211009132Y-176324887D01*
X210563595Y-176351663D01*
X210049777Y-176374853D01*
X209877333Y-176381122D01*
X209346117Y-176402113D01*
X208874179Y-176426080D01*
X208487033Y-176451289D01*
X208210191Y-176476007D01*
X208069167Y-176498501D01*
X208057000Y-176504777D01*
X207965112Y-176520025D01*
X207722323Y-176535112D01*
X207347062Y-176549804D01*
X206857760Y-176563870D01*
X206272849Y-176577076D01*
X205610758Y-176589189D01*
X204889920Y-176599978D01*
X204128765Y-176609209D01*
X203345724Y-176616650D01*
X202559227Y-176622069D01*
X201787706Y-176625233D01*
X201049591Y-176625908D01*
X200363314Y-176623863D01*
X199747306Y-176618865D01*
X199399833Y-176614033D01*
X198875108Y-176602006D01*
X198412895Y-176585243D01*
X198038075Y-176565156D01*
X197775534Y-176543160D01*
X197650152Y-176520670D01*
X197643000Y-176514197D01*
X197562614Y-176489755D01*
X197338460Y-176462747D01*
X196996041Y-176435172D01*
X196560859Y-176409033D01*
X196058418Y-176386330D01*
X195972239Y-176383105D01*
X195457760Y-176361232D01*
X195003059Y-176335858D01*
X194634537Y-176308952D01*
X194378593Y-176282484D01*
X194261629Y-176258422D01*
X194257739Y-176255200D01*
X194161366Y-176225625D01*
X193928899Y-176192523D01*
X193593422Y-176159621D01*
X193188020Y-176130644D01*
X193113579Y-176126323D01*
X192699603Y-176098301D01*
X192349985Y-176065537D01*
X192097764Y-176031798D01*
X191975979Y-176000848D01*
X191970579Y-175996063D01*
X191873870Y-175963525D01*
X191643806Y-175927345D01*
X191316160Y-175892204D01*
X190975500Y-175865856D01*
X190596882Y-175835984D01*
X190289581Y-175801519D01*
X190087329Y-175766937D01*
X190023000Y-175739429D01*
X189944680Y-175705129D01*
X189734501Y-175666670D01*
X189429633Y-175630041D01*
X189239833Y-175613219D01*
X188893207Y-175579541D01*
X188615154Y-175540324D01*
X188445612Y-175501804D01*
X188413685Y-175484266D01*
X188313174Y-175443435D01*
X188092704Y-175402946D01*
X187821018Y-175373487D01*
X187314201Y-175326578D01*
X186908466Y-175274717D01*
X186623846Y-175221214D01*
X186480377Y-175169378D01*
X186467000Y-175149813D01*
X186389554Y-175112723D01*
X186185260Y-175071866D01*
X185896185Y-175035392D01*
X185856790Y-175031603D01*
X185551818Y-174994031D01*
X185318342Y-174948021D01*
X185202862Y-174902956D01*
X185199695Y-174899028D01*
X185097404Y-174856051D01*
X184873999Y-174815995D01*
X184577602Y-174787459D01*
X184574097Y-174787240D01*
X184275231Y-174756581D01*
X184046995Y-174710669D01*
X183938589Y-174659415D01*
X183938435Y-174659170D01*
X183827977Y-174596657D01*
X183606924Y-174536669D01*
X183438577Y-174508272D01*
X183191179Y-174464216D01*
X183030417Y-174414024D01*
X182995666Y-174384072D01*
X182918990Y-174340705D01*
X182719636Y-174293857D01*
X182487666Y-174259666D01*
X182220107Y-174218104D01*
X182036063Y-174169421D01*
X181979666Y-174131092D01*
X181902526Y-174087916D01*
X181700140Y-174041260D01*
X181416058Y-174001122D01*
X181411514Y-174000633D01*
X181104209Y-173953112D01*
X180856563Y-173888400D01*
X180728133Y-173824561D01*
X180575883Y-173753001D01*
X180333492Y-173712636D01*
X180242159Y-173709333D01*
X179944955Y-173676367D01*
X179796813Y-173576027D01*
X179796559Y-173575575D01*
X179652679Y-173477308D01*
X179346815Y-173410646D01*
X179199685Y-173394483D01*
X178927800Y-173360504D01*
X178738980Y-173319085D01*
X178677666Y-173283854D01*
X178602439Y-173234590D01*
X178412400Y-173183507D01*
X178304165Y-173164550D01*
X178066703Y-173104860D01*
X177909796Y-173020624D01*
X177883489Y-172985603D01*
X177760632Y-172894447D01*
X177495672Y-172862666D01*
X177494990Y-172862666D01*
X177281936Y-172844025D01*
X177162782Y-172797415D01*
X177153666Y-172778000D01*
X177083026Y-172708382D01*
X176990380Y-172693333D01*
X176793558Y-172639090D01*
X176715214Y-172584445D01*
X176547543Y-172484072D01*
X176282042Y-172383461D01*
X175988726Y-172304780D01*
X175737607Y-172270197D01*
X175722103Y-172270000D01*
X175585266Y-172253387D01*
X175447727Y-172184223D01*
X175257890Y-172033522D01*
X175180104Y-171965495D01*
X175030664Y-171888964D01*
X174800075Y-171821640D01*
X174759709Y-171813491D01*
X174556979Y-171757111D01*
X174449519Y-171691453D01*
X174444333Y-171676412D01*
X174368464Y-171621731D01*
X174174650Y-171567829D01*
X174026134Y-171543022D01*
X173770954Y-171488327D01*
X173600101Y-171412027D01*
X173563124Y-171370773D01*
X173449847Y-171265812D01*
X173388657Y-171254000D01*
X173274290Y-171209099D01*
X173259000Y-171169333D01*
X173186667Y-171105247D01*
X173051317Y-171084666D01*
X172758971Y-171032243D01*
X172450091Y-170902275D01*
X172258119Y-170768154D01*
X172098775Y-170675053D01*
X172025285Y-170661333D01*
X171916550Y-170613638D01*
X171904333Y-170576666D01*
X171832542Y-170510134D01*
X171713833Y-170490843D01*
X171419840Y-170459610D01*
X171216191Y-170380022D01*
X171142333Y-170270458D01*
X171071776Y-170175473D01*
X170973000Y-170153333D01*
X170835376Y-170120666D01*
X170803666Y-170075393D01*
X170730677Y-170004820D01*
X170554605Y-169942766D01*
X170549666Y-169941666D01*
X170372016Y-169883387D01*
X170295720Y-169820156D01*
X170295666Y-169818760D01*
X170220914Y-169764866D01*
X170034066Y-169711575D01*
X169957000Y-169697487D01*
X169745269Y-169645142D01*
X169627175Y-169580053D01*
X169618333Y-169559666D01*
X169551230Y-169482326D01*
X169510024Y-169476000D01*
X169380507Y-169413508D01*
X169281911Y-169309781D01*
X169110016Y-169166671D01*
X168924554Y-169091387D01*
X168753941Y-169030072D01*
X168687000Y-168961272D01*
X168618755Y-168891171D01*
X168566047Y-168883333D01*
X168407019Y-168827591D01*
X168329265Y-168767503D01*
X168153249Y-168646610D01*
X168026884Y-168592464D01*
X167881203Y-168516446D01*
X167840333Y-168454294D01*
X167767843Y-168394926D01*
X167628666Y-168375333D01*
X167460178Y-168332413D01*
X167417000Y-168252169D01*
X167339337Y-168150065D01*
X167134319Y-168076074D01*
X167120666Y-168073413D01*
X166918000Y-168005325D01*
X166825526Y-167911692D01*
X166824333Y-167900244D01*
X166759083Y-167794041D01*
X166710288Y-167782666D01*
X166568573Y-167730821D01*
X166401000Y-167613333D01*
X166240804Y-167492956D01*
X166134045Y-167444000D01*
X166075746Y-167372976D01*
X166062333Y-167274666D01*
X166117267Y-167135994D01*
X166252586Y-167117617D01*
X166424060Y-167225176D01*
X166427058Y-167228153D01*
X166600609Y-167340855D01*
X166787295Y-167410561D01*
X167053572Y-167499436D01*
X167242023Y-167583553D01*
X167436550Y-167667260D01*
X167565166Y-167697478D01*
X167663641Y-167743109D01*
X167671000Y-167769144D01*
X167746117Y-167825791D01*
X167940237Y-167898197D01*
X168136666Y-167952000D01*
X168389492Y-168024128D01*
X168558610Y-168094356D01*
X168602333Y-168134855D01*
X168674261Y-168190176D01*
X168795161Y-168206000D01*
X169019910Y-168254843D01*
X169159318Y-168326003D01*
X169359663Y-168423292D01*
X169618569Y-168499748D01*
X169643823Y-168504759D01*
X169845621Y-168558158D01*
X169952084Y-168616639D01*
X169957000Y-168629142D01*
X170032320Y-168679496D01*
X170222986Y-168731586D01*
X170338000Y-168751907D01*
X170564783Y-168800162D01*
X170701182Y-168856678D01*
X170719000Y-168881079D01*
X170793698Y-168938725D01*
X170980399Y-168995392D01*
X171057222Y-169010258D01*
X171280891Y-169062249D01*
X171422237Y-169121514D01*
X171438666Y-169137333D01*
X171542208Y-169192948D01*
X171750347Y-169248945D01*
X171841277Y-169265727D01*
X172138583Y-169331136D01*
X172412412Y-169417734D01*
X172454666Y-169435061D01*
X172661314Y-169513112D01*
X172968165Y-169615044D01*
X173312113Y-169719983D01*
X173343666Y-169729132D01*
X173663810Y-169823197D01*
X173929986Y-169904493D01*
X174092013Y-169957632D01*
X174105666Y-169962789D01*
X174258747Y-170011639D01*
X174506465Y-170079579D01*
X174656000Y-170117533D01*
X175196188Y-170253175D01*
X175591183Y-170358625D01*
X175861289Y-170439531D01*
X176010666Y-170494427D01*
X176198830Y-170552074D01*
X176465869Y-170608867D01*
X176561000Y-170624569D01*
X176798603Y-170670914D01*
X176956068Y-170721154D01*
X176984333Y-170740310D01*
X177018249Y-170763473D01*
X177100972Y-170791946D01*
X177251679Y-170829848D01*
X177489547Y-170881298D01*
X177833752Y-170950415D01*
X178303471Y-171041317D01*
X178917879Y-171158123D01*
X179016333Y-171176740D01*
X179309046Y-171239262D01*
X179554203Y-171304049D01*
X179651333Y-171337699D01*
X179830510Y-171388913D01*
X180103300Y-171439999D01*
X180281469Y-171464403D01*
X180554888Y-171504577D01*
X180761780Y-171549967D01*
X180831802Y-171576578D01*
X180955588Y-171619142D01*
X181195740Y-171675470D01*
X181501249Y-171733655D01*
X181514000Y-171735834D01*
X181898014Y-171802955D01*
X182354881Y-171885385D01*
X182791205Y-171966256D01*
X182826333Y-171972892D01*
X183378650Y-172071053D01*
X184069047Y-172183586D01*
X184867296Y-172306280D01*
X185743165Y-172434923D01*
X186666425Y-172565301D01*
X187606847Y-172693202D01*
X188534201Y-172814414D01*
X189418256Y-172924726D01*
X190228783Y-173019923D01*
X190742666Y-173075989D01*
X191894913Y-173192925D01*
X192961841Y-173292429D01*
X193970542Y-173375765D01*
X194948110Y-173444196D01*
X195921639Y-173498987D01*
X196918221Y-173541400D01*
X197964950Y-173572700D01*
X199088919Y-173594149D01*
X200317222Y-173607012D01*
X201676951Y-173612551D01*
X202257333Y-173613000D01*
X203516328Y-173611169D01*
X204629169Y-173605169D01*
X205619001Y-173594243D01*
X206508970Y-173577629D01*
X207322220Y-173554571D01*
X208081897Y-173524307D01*
X208811146Y-173486080D01*
X209533111Y-173439130D01*
X210270938Y-173382698D01*
X210893333Y-173329760D01*
X211470521Y-173278800D01*
X212084244Y-173224573D01*
X212674277Y-173172402D01*
X213180392Y-173127613D01*
X213348666Y-173112707D01*
X213777260Y-173070162D01*
X214171858Y-173022801D01*
X214485923Y-172976701D01*
X214661000Y-172941382D01*
X214885858Y-172893430D01*
X215216315Y-172839188D01*
X215589428Y-172788749D01*
X215677000Y-172778482D01*
X216123407Y-172722592D01*
X216634328Y-172650758D01*
X217107691Y-172577417D01*
X217158666Y-172568941D01*
X217562496Y-172501970D01*
X218063276Y-172420132D01*
X218590677Y-172334870D01*
X218979000Y-172272760D01*
X219618630Y-172167298D01*
X220189063Y-172065869D01*
X220666485Y-171973130D01*
X221027086Y-171893739D01*
X221247056Y-171832355D01*
X221265000Y-171825573D01*
X221420269Y-171784921D01*
X221671396Y-171739137D01*
X221815333Y-171718063D01*
X222078369Y-171671256D01*
X222274148Y-171615427D01*
X222328909Y-171587314D01*
X222457189Y-171538206D01*
X222696156Y-171487588D01*
X222921576Y-171455420D01*
X223196189Y-171415608D01*
X223395509Y-171371284D01*
X223466333Y-171339619D01*
X223567115Y-171289917D01*
X223778108Y-171226762D01*
X223932000Y-171190381D01*
X224273497Y-171110400D01*
X224655865Y-171011728D01*
X224821000Y-170965948D01*
X225114255Y-170891235D01*
X225367502Y-170842422D01*
X225477166Y-170831671D01*
X225625938Y-170803064D01*
X225667666Y-170756907D01*
X225743568Y-170704824D01*
X225937702Y-170652359D01*
X226091000Y-170626991D01*
X226332151Y-170581272D01*
X226485462Y-170525820D01*
X226514333Y-170494271D01*
X226589701Y-170437391D01*
X226780478Y-170381374D01*
X226895333Y-170360574D01*
X227122117Y-170312299D01*
X227258516Y-170255732D01*
X227276333Y-170231302D01*
X227352229Y-170180145D01*
X227546350Y-170128269D01*
X227699666Y-170103008D01*
X227940784Y-170058488D01*
X228094099Y-170006090D01*
X228123000Y-169976928D01*
X228196955Y-169917026D01*
X228379039Y-169859648D01*
X228420268Y-169851238D01*
X228629104Y-169796734D01*
X228752528Y-169735992D01*
X228759378Y-169727768D01*
X228862443Y-169672034D01*
X229067825Y-169616366D01*
X229139443Y-169602925D01*
X229350861Y-169550881D01*
X229468815Y-169490152D01*
X229477666Y-169471877D01*
X229553535Y-169417472D01*
X229750974Y-169349934D01*
X229985666Y-169293046D01*
X230251822Y-169228537D01*
X230435735Y-169165735D01*
X230493666Y-169124230D01*
X230567566Y-169068266D01*
X230749453Y-169012954D01*
X230790000Y-169004747D01*
X230985304Y-168951013D01*
X231083563Y-168890509D01*
X231086333Y-168880637D01*
X231159237Y-168816700D01*
X231335136Y-168757489D01*
X231340333Y-168756333D01*
X231517998Y-168697574D01*
X231594280Y-168633201D01*
X231594333Y-168631784D01*
X231666671Y-168565172D01*
X231827166Y-168508588D01*
X232041408Y-168440272D01*
X232296115Y-168335253D01*
X232529244Y-168221851D01*
X232678752Y-168128389D01*
X232695000Y-168112435D01*
X232795603Y-168056584D01*
X232996104Y-167978794D01*
X233076000Y-167952000D01*
X233296257Y-167872739D01*
X233437857Y-167806473D01*
X233457000Y-167791564D01*
X233545032Y-167735037D01*
X233752906Y-167619491D01*
X234049176Y-167461972D01*
X234388333Y-167286700D01*
X234740124Y-167104043D01*
X235033701Y-166945680D01*
X235237573Y-166829002D01*
X235319666Y-166772348D01*
X235412472Y-166706698D01*
X235614150Y-166593945D01*
X235870000Y-166463981D01*
X236140248Y-166321854D01*
X236348716Y-166193100D01*
X236445707Y-166110500D01*
X236581890Y-166013406D01*
X236636207Y-166004666D01*
X236746152Y-165957591D01*
X236759000Y-165920000D01*
X236827576Y-165844885D01*
X236886000Y-165835333D01*
X236980800Y-165814886D01*
X236994313Y-165744488D01*
X236917087Y-165610556D01*
X236739672Y-165399506D01*
X236452616Y-165097754D01*
X236187500Y-164831366D01*
X235764159Y-164403997D01*
X235338201Y-163962199D01*
X234928939Y-163527141D01*
X234555688Y-163119991D01*
X234237761Y-162761918D01*
X233994473Y-162474091D01*
X233845136Y-162277677D01*
X233819389Y-162235839D01*
X233691039Y-162069492D01*
X233586556Y-161995696D01*
X233472730Y-161903865D01*
X233457000Y-161854065D01*
X233403279Y-161740345D01*
X233268346Y-161563949D01*
X233203391Y-161491574D01*
X233048358Y-161312090D01*
X232958438Y-161180751D01*
X232949391Y-161153457D01*
X232894052Y-161052701D01*
X232761075Y-160903299D01*
X232757136Y-160899457D01*
X232596836Y-160717842D01*
X232405652Y-160466390D01*
X232312875Y-160332000D01*
X232158578Y-160108785D01*
X232035131Y-159947319D01*
X231989081Y-159898937D01*
X231884970Y-159776111D01*
X231757177Y-159568931D01*
X231648569Y-159348753D01*
X231629676Y-159300690D01*
X231522741Y-159152594D01*
X231458990Y-159112847D01*
X231351777Y-159002629D01*
X231340333Y-158946715D01*
X231271990Y-158813613D01*
X231213333Y-158777382D01*
X231100702Y-158664231D01*
X231086333Y-158598990D01*
X231045756Y-158484560D01*
X231009949Y-158469333D01*
X230927133Y-158399559D01*
X230838726Y-158236500D01*
X230717784Y-157974317D01*
X230576530Y-157716124D01*
X230447239Y-157517728D01*
X230380176Y-157443604D01*
X230275134Y-157319412D01*
X230146967Y-157110373D01*
X230038210Y-156887722D01*
X230019478Y-156839500D01*
X229943009Y-156714825D01*
X229897852Y-156691333D01*
X229833736Y-156618567D01*
X229775553Y-156444406D01*
X229702513Y-156253776D01*
X229610387Y-156154911D01*
X229510761Y-156048552D01*
X229439515Y-155873519D01*
X229378263Y-155686807D01*
X229322787Y-155591514D01*
X229208359Y-155455379D01*
X229068076Y-155223177D01*
X228948030Y-154976833D01*
X228859450Y-154811805D01*
X228788498Y-154744000D01*
X228730993Y-154671182D01*
X228674546Y-154495459D01*
X228673333Y-154490000D01*
X228613859Y-154312312D01*
X228547780Y-154236051D01*
X228546333Y-154236000D01*
X228480498Y-154163071D01*
X228420472Y-153987121D01*
X228419333Y-153982000D01*
X228357896Y-153804250D01*
X228287132Y-153728047D01*
X228285606Y-153728000D01*
X228213020Y-153661078D01*
X228207666Y-153622893D01*
X228171964Y-153510596D01*
X228074446Y-153279477D01*
X227929494Y-152961933D01*
X227751490Y-152590362D01*
X227728450Y-152543393D01*
X227525525Y-152127382D01*
X227331220Y-151723046D01*
X227168092Y-151377683D01*
X227061826Y-151145666D01*
X226913030Y-150816064D01*
X226741049Y-150444193D01*
X226652042Y-150255451D01*
X226531751Y-149972609D01*
X226451001Y-149724742D01*
X226429666Y-149599284D01*
X226401134Y-149451161D01*
X226354422Y-149410000D01*
X226290940Y-149336022D01*
X226231845Y-149153968D01*
X226223586Y-149113666D01*
X226166740Y-148918268D01*
X226098638Y-148820067D01*
X226087163Y-148817333D01*
X226018349Y-148747381D01*
X226005811Y-148669166D01*
X225967387Y-148489430D01*
X225881977Y-148284590D01*
X225776958Y-148026276D01*
X225703742Y-147755423D01*
X225650077Y-147561528D01*
X225589490Y-147465053D01*
X225580304Y-147462666D01*
X225518173Y-147389330D01*
X225458099Y-147210465D01*
X225452950Y-147187500D01*
X225393383Y-146971828D01*
X225330612Y-146830293D01*
X225328648Y-146827666D01*
X225275869Y-146703508D01*
X225207395Y-146470452D01*
X225155618Y-146256166D01*
X225087364Y-145996532D01*
X225020100Y-145819918D01*
X224977860Y-145769333D01*
X224922038Y-145694565D01*
X224867671Y-145507682D01*
X224853512Y-145430666D01*
X224805016Y-145219044D01*
X224749491Y-145100907D01*
X224732954Y-145092000D01*
X224678841Y-145017332D01*
X224624148Y-144830701D01*
X224609408Y-144753777D01*
X224557553Y-144530215D01*
X224498615Y-144389060D01*
X224482898Y-144372682D01*
X224432355Y-144270548D01*
X224380077Y-144057294D01*
X224355320Y-143906572D01*
X224309753Y-143665537D01*
X224256913Y-143512254D01*
X224227830Y-143483333D01*
X224171913Y-143408649D01*
X224116212Y-143221982D01*
X224101408Y-143145110D01*
X224048228Y-142920516D01*
X223986119Y-142777496D01*
X223969420Y-142760630D01*
X223915885Y-142656256D01*
X223862588Y-142441568D01*
X223838880Y-142294520D01*
X223795106Y-142054558D01*
X223744426Y-141902589D01*
X223717075Y-141874666D01*
X223671678Y-141797896D01*
X223613994Y-141595719D01*
X223555853Y-141310335D01*
X223551050Y-141282300D01*
X223491447Y-140982907D01*
X223428993Y-140754581D01*
X223376646Y-140644180D01*
X223374067Y-140642303D01*
X223315123Y-140529893D01*
X223297000Y-140382184D01*
X223297000Y-140169696D01*
X222598500Y-140228681D01*
X222258144Y-140263703D01*
X221974355Y-140304349D01*
X221796584Y-140343200D01*
X221773000Y-140352511D01*
X221637685Y-140385478D01*
X221376541Y-140421611D01*
X221032859Y-140455551D01*
X220799333Y-140473011D01*
X220387517Y-140505944D01*
X219993662Y-140547538D01*
X219678531Y-140590974D01*
X219571666Y-140610778D01*
X219263138Y-140658940D01*
X218807541Y-140704935D01*
X218227133Y-140748164D01*
X217544171Y-140788029D01*
X216780913Y-140823930D01*
X215959616Y-140855270D01*
X215102537Y-140881449D01*
X214231935Y-140901869D01*
X213370066Y-140915931D01*
X212539187Y-140923037D01*
X211761557Y-140922587D01*
X211059433Y-140913984D01*
X210455071Y-140896628D01*
X209970731Y-140869921D01*
X209962000Y-140869255D01*
X209412463Y-140828216D01*
X208770382Y-140782090D01*
X208112219Y-140736275D01*
X207514438Y-140696172D01*
X207464333Y-140692905D01*
X206666772Y-140638606D01*
X205935739Y-140584031D01*
X205290935Y-140530915D01*
X204752057Y-140480994D01*
X204338805Y-140436004D01*
X204070877Y-140397681D01*
X204035333Y-140390731D01*
X203802011Y-140349176D01*
X203424641Y-140291634D01*
X202927405Y-140221420D01*
X202334484Y-140141851D01*
X201670060Y-140056243D01*
X200958314Y-139967911D01*
X200902666Y-139961143D01*
X200491157Y-139905856D01*
X200145187Y-139849300D01*
X199897003Y-139797496D01*
X199778854Y-139756462D01*
X199773777Y-139750407D01*
X199679160Y-139699484D01*
X199481881Y-139672482D01*
X199435111Y-139671313D01*
X199137751Y-139646301D01*
X198821001Y-139587806D01*
X198786000Y-139578854D01*
X198515700Y-139513587D01*
X198166148Y-139438131D01*
X197897000Y-139384904D01*
X197593548Y-139323385D01*
X197346485Y-139265324D01*
X197219666Y-139226962D01*
X197065379Y-139179548D01*
X196815780Y-139120163D01*
X196669333Y-139089928D01*
X196148344Y-138981037D01*
X195717645Y-138876499D01*
X195408581Y-138784238D01*
X195314666Y-138747554D01*
X195144559Y-138693013D01*
X194870706Y-138626971D01*
X194595000Y-138571776D01*
X194299804Y-138511033D01*
X194069479Y-138450329D01*
X193960000Y-138406055D01*
X193830716Y-138355427D01*
X193600185Y-138302793D01*
X193473166Y-138281825D01*
X193239147Y-138234415D01*
X193094136Y-138178961D01*
X193071000Y-138151587D01*
X192996301Y-138093940D01*
X192809600Y-138037274D01*
X192732777Y-138022408D01*
X192507719Y-137968632D01*
X192363861Y-137905098D01*
X192346780Y-137887966D01*
X192235089Y-137830617D01*
X192068842Y-137810666D01*
X191826250Y-137766000D01*
X191667348Y-137690662D01*
X191467002Y-137593374D01*
X191208097Y-137516917D01*
X191182842Y-137511906D01*
X190981002Y-137457225D01*
X190874562Y-137395588D01*
X190869666Y-137382171D01*
X190793696Y-137329999D01*
X190596015Y-137265406D01*
X190361666Y-137211245D01*
X190095293Y-137148833D01*
X189911358Y-137086610D01*
X189853666Y-137044378D01*
X189780777Y-136981562D01*
X189604908Y-136922832D01*
X189599666Y-136921666D01*
X189422003Y-136862979D01*
X189345719Y-136798775D01*
X189345666Y-136797362D01*
X189271734Y-136738335D01*
X189089778Y-136681480D01*
X189049333Y-136673252D01*
X188854006Y-136618789D01*
X188755761Y-136556501D01*
X188753000Y-136546252D01*
X188679048Y-136485311D01*
X188497049Y-136427494D01*
X188456666Y-136419252D01*
X188261319Y-136364107D01*
X188163086Y-136300158D01*
X188160333Y-136289557D01*
X188087378Y-136221686D01*
X187911375Y-136160788D01*
X187906333Y-136159666D01*
X187728645Y-136100193D01*
X187652384Y-136034113D01*
X187652333Y-136032666D01*
X187579404Y-135966831D01*
X187403455Y-135906805D01*
X187398333Y-135905666D01*
X187188349Y-135841138D01*
X187132270Y-135781777D01*
X187214711Y-135736472D01*
X187420285Y-135714113D01*
X187715833Y-135722237D01*
X187998966Y-135742061D01*
X188407128Y-135769253D01*
X188896323Y-135800949D01*
X189422557Y-135834284D01*
X189726666Y-135853194D01*
X190256586Y-135888855D01*
X190777060Y-135929138D01*
X191243360Y-135970214D01*
X191610762Y-136008257D01*
X191758666Y-136027100D01*
X192087475Y-136065379D01*
X192524532Y-136103929D01*
X193008832Y-136137866D01*
X193409666Y-136159328D01*
X193886334Y-136185238D01*
X194367293Y-136219336D01*
X194791540Y-136256878D01*
X195060666Y-136287769D01*
X195230292Y-136309400D01*
X195428230Y-136330998D01*
X195668796Y-136353556D01*
X195966307Y-136378071D01*
X196335079Y-136405537D01*
X196789429Y-136436949D01*
X197343671Y-136473303D01*
X198012123Y-136515594D01*
X198809101Y-136564817D01*
X199748921Y-136621967D01*
X200648666Y-136676191D01*
X201888237Y-136741607D01*
X203231227Y-136796212D01*
X204637135Y-136839262D01*
X206065457Y-136870016D01*
X207475692Y-136887730D01*
X208827337Y-136891661D01*
X210079889Y-136881065D01*
X210893333Y-136864141D01*
X212620311Y-136800551D01*
X214205870Y-136706095D01*
X215675495Y-136578479D01*
X217054672Y-136415411D01*
X218368886Y-136214598D01*
X218640333Y-136167180D01*
X219070793Y-136090717D01*
X219530172Y-136009719D01*
X219924720Y-135940711D01*
X219952666Y-135935858D01*
X220250936Y-135877389D01*
X220477363Y-135820446D01*
X220585749Y-135776761D01*
X220587666Y-135774580D01*
X220685179Y-135736863D01*
X220909809Y-135685757D01*
X221220793Y-135629996D01*
X221370833Y-135606774D01*
X221700064Y-135551554D01*
X221954123Y-135496353D01*
X222095159Y-135449982D01*
X222111666Y-135434312D01*
X222187495Y-135387962D01*
X222381459Y-135338435D01*
X222535000Y-135313000D01*
X222776046Y-135268057D01*
X222929368Y-135216811D01*
X222958333Y-135188962D01*
X223034207Y-135141415D01*
X223228275Y-135091835D01*
X223381666Y-135066991D01*
X223622843Y-135020335D01*
X223776152Y-134962496D01*
X223805000Y-134929083D01*
X223874941Y-134859492D01*
X223953166Y-134846811D01*
X224132902Y-134808387D01*
X224337742Y-134722977D01*
X224596056Y-134617958D01*
X224866909Y-134544742D01*
X225060770Y-134492169D01*
X225157267Y-134434244D01*
X225159666Y-134425580D01*
X225233416Y-134367058D01*
X225420535Y-134291592D01*
X225540666Y-134254666D01*
X225765405Y-134177468D01*
X225902240Y-134102940D01*
X225921666Y-134074329D01*
X225992456Y-134013855D01*
X226086003Y-134000666D01*
X226250147Y-133969973D01*
X226275757Y-133871977D01*
X226161258Y-133697802D01*
X226002826Y-133531575D01*
X225817921Y-133339791D01*
X225696194Y-133192004D01*
X225667666Y-133137087D01*
X225610923Y-133048884D01*
X225461894Y-132881156D01*
X225252378Y-132669602D01*
X225244333Y-132661835D01*
X225033389Y-132450146D01*
X224881726Y-132281988D01*
X224821084Y-132192637D01*
X224821000Y-132191306D01*
X224767925Y-132096538D01*
X224634429Y-131931994D01*
X224567391Y-131858241D01*
X224412318Y-131678407D01*
X224322411Y-131546312D01*
X224313391Y-131518700D01*
X224254027Y-131424933D01*
X224107014Y-131277692D01*
X224057935Y-131235111D01*
X223874485Y-131048036D01*
X223656827Y-130779949D01*
X223488125Y-130542078D01*
X223319966Y-130296269D01*
X223183186Y-130114018D01*
X223108190Y-130035444D01*
X223048162Y-129937987D01*
X223043000Y-129890256D01*
X222975962Y-129761328D01*
X222873666Y-129682666D01*
X222739622Y-129577564D01*
X222704333Y-129506659D01*
X222651315Y-129392723D01*
X222521181Y-129224378D01*
X222496033Y-129196633D01*
X222317827Y-128961310D01*
X222183505Y-128713495D01*
X222078553Y-128512882D01*
X221970373Y-128388483D01*
X221968471Y-128387292D01*
X221868024Y-128260054D01*
X221857666Y-128205851D01*
X221789450Y-128078940D01*
X221730666Y-128043382D01*
X221618036Y-127930231D01*
X221603666Y-127864990D01*
X221559606Y-127750611D01*
X221520613Y-127735333D01*
X221439717Y-127663639D01*
X221385972Y-127529792D01*
X221302311Y-127354172D01*
X221215025Y-127278450D01*
X221107718Y-127164223D01*
X221095666Y-127102990D01*
X221054122Y-126988574D01*
X221017434Y-126973333D01*
X220942585Y-126903129D01*
X220824270Y-126719873D01*
X220699934Y-126486500D01*
X220569857Y-126228209D01*
X220467324Y-126036213D01*
X220418333Y-125957333D01*
X220303099Y-125802099D01*
X220164836Y-125563958D01*
X220058030Y-125343500D01*
X219969205Y-125178456D01*
X219897710Y-125110666D01*
X219828752Y-125041567D01*
X219718820Y-124865040D01*
X219647265Y-124729666D01*
X219525560Y-124511322D01*
X219424387Y-124373483D01*
X219387325Y-124348666D01*
X219320302Y-124283153D01*
X219317666Y-124258670D01*
X219282357Y-124129950D01*
X219193156Y-123919598D01*
X219075151Y-123677081D01*
X218953429Y-123451869D01*
X218853079Y-123293431D01*
X218805106Y-123248000D01*
X218742401Y-123175957D01*
X218685132Y-123016014D01*
X218624062Y-122831929D01*
X218569917Y-122740848D01*
X218509507Y-122651429D01*
X218392338Y-122445012D01*
X218237491Y-122155997D01*
X218123384Y-121935666D01*
X217927793Y-121557325D01*
X217732219Y-121186164D01*
X217567542Y-120880524D01*
X217509754Y-120776373D01*
X217381808Y-120518133D01*
X217300684Y-120294040D01*
X217285666Y-120204873D01*
X217254815Y-120064611D01*
X217210178Y-120030666D01*
X217137456Y-119958467D01*
X217076465Y-119798681D01*
X217013808Y-119614523D01*
X216956422Y-119523514D01*
X216881850Y-119421933D01*
X216761802Y-119208911D01*
X216617868Y-118928493D01*
X216471638Y-118624725D01*
X216344705Y-118341651D01*
X216258659Y-118123316D01*
X216240068Y-118062166D01*
X216172149Y-117893907D01*
X216098720Y-117829333D01*
X216026894Y-117759962D01*
X216015666Y-117690440D01*
X215979853Y-117542630D01*
X215890737Y-117312051D01*
X215775804Y-117059151D01*
X215662540Y-116844379D01*
X215578433Y-116728183D01*
X215577957Y-116727818D01*
X215518077Y-116621791D01*
X215460655Y-116443840D01*
X215383686Y-116222570D01*
X215259661Y-115944003D01*
X215199943Y-115826374D01*
X215083991Y-115591744D01*
X215011687Y-115413574D01*
X214999666Y-115360649D01*
X214963995Y-115240305D01*
X214872198Y-115025200D01*
X214788000Y-114850172D01*
X214669299Y-114586941D01*
X214592496Y-114364981D01*
X214576333Y-114273432D01*
X214544720Y-114128566D01*
X214509129Y-114089888D01*
X214437643Y-113998181D01*
X214335565Y-113799856D01*
X214225827Y-113548949D01*
X214131356Y-113299494D01*
X214075084Y-113105528D01*
X214068333Y-113051137D01*
X214024267Y-112934998D01*
X213983666Y-112918666D01*
X213903400Y-112852765D01*
X213899000Y-112822106D01*
X213865708Y-112693863D01*
X213780858Y-112474483D01*
X213719527Y-112335273D01*
X213552550Y-111975375D01*
X213429814Y-111740706D01*
X213322960Y-111603517D01*
X213203624Y-111536058D01*
X213043444Y-111510580D01*
X212867676Y-111501814D01*
X212106901Y-111466399D01*
X211385761Y-111429253D01*
X210723177Y-111391630D01*
X210138072Y-111354778D01*
X209649367Y-111319951D01*
X209275984Y-111288399D01*
X209036844Y-111261374D01*
X208953338Y-111242950D01*
X208830526Y-111203122D01*
X208586877Y-111151012D01*
X208269443Y-111096375D01*
X208184000Y-111083454D01*
X207654136Y-111001097D01*
X207150401Y-110914605D01*
X206700243Y-110829495D01*
X206331109Y-110751288D01*
X206070447Y-110685504D01*
X205945703Y-110637662D01*
X205940333Y-110632257D01*
X205837485Y-110580317D01*
X205629874Y-110525735D01*
X205538166Y-110508593D01*
X205318922Y-110455851D01*
X205191444Y-110394039D01*
X205178333Y-110371224D01*
X205105824Y-110313189D01*
X204966359Y-110293999D01*
X204755530Y-110254073D01*
X204498649Y-110155084D01*
X204438446Y-110124666D01*
X204204209Y-110017370D01*
X204010399Y-109958928D01*
X203973087Y-109955333D01*
X203846644Y-109919943D01*
X203823666Y-109879845D01*
X203751467Y-109807123D01*
X203591681Y-109746132D01*
X203407598Y-109685128D01*
X203316514Y-109631120D01*
X203223601Y-109566978D01*
X203022303Y-109454188D01*
X202765333Y-109321781D01*
X202470116Y-109160080D01*
X202213143Y-108993487D01*
X202070876Y-108877281D01*
X201923889Y-108743307D01*
X201826956Y-108685392D01*
X201825429Y-108685333D01*
X201725959Y-108626130D01*
X201568655Y-108480848D01*
X201398467Y-108297979D01*
X201260344Y-108126016D01*
X201199236Y-108013450D01*
X201199000Y-108009539D01*
X201131619Y-107901204D01*
X201080343Y-107872485D01*
X200960878Y-107759266D01*
X200919278Y-107664786D01*
X200914706Y-107630909D01*
X200928486Y-107602017D01*
X200973205Y-107577636D01*
X201061450Y-107557289D01*
X201205810Y-107540502D01*
X201418871Y-107526800D01*
X201713221Y-107515708D01*
X202101447Y-107506750D01*
X202596137Y-107499453D01*
X203209878Y-107493341D01*
X203955258Y-107487939D01*
X204844863Y-107482772D01*
X205885102Y-107477396D01*
X207280404Y-107467759D01*
X208512974Y-107453555D01*
X209589356Y-107434504D01*
X210516096Y-107410323D01*
X211299742Y-107380731D01*
X211946838Y-107345446D01*
X212463931Y-107304186D01*
X212857566Y-107256670D01*
X213134290Y-107202615D01*
X213264000Y-107159845D01*
X213442627Y-107108029D01*
X213715548Y-107055628D01*
X213899000Y-107029594D01*
X214172599Y-106987190D01*
X214378739Y-106938566D01*
X214449333Y-106908892D01*
X214582586Y-106853278D01*
X214805826Y-106796420D01*
X214863878Y-106785214D01*
X215133200Y-106713344D01*
X215360800Y-106615248D01*
X215384201Y-106600897D01*
X215510529Y-106492525D01*
X215524523Y-106363781D01*
X215480261Y-106226056D01*
X215398100Y-106052632D01*
X215328826Y-105976180D01*
X215326498Y-105975999D01*
X215268993Y-105903182D01*
X215212546Y-105727459D01*
X215211333Y-105722000D01*
X215154564Y-105544399D01*
X215094937Y-105468056D01*
X215093612Y-105468000D01*
X215039546Y-105393521D01*
X214968175Y-105202665D01*
X214923182Y-105044666D01*
X214849536Y-104805490D01*
X214778564Y-104652005D01*
X214744569Y-104621333D01*
X214679507Y-104548414D01*
X214619812Y-104372485D01*
X214618666Y-104367333D01*
X214558349Y-104189618D01*
X214490257Y-104113383D01*
X214488775Y-104113333D01*
X214426049Y-104039363D01*
X214367334Y-103857326D01*
X214359080Y-103817000D01*
X214305347Y-103621695D01*
X214244842Y-103523436D01*
X214234971Y-103520666D01*
X214171034Y-103447762D01*
X214111822Y-103271863D01*
X214110666Y-103266666D01*
X214051193Y-103088978D01*
X213985113Y-103012717D01*
X213983666Y-103012666D01*
X213917831Y-102939737D01*
X213857805Y-102763788D01*
X213856666Y-102758666D01*
X213797193Y-102580978D01*
X213731113Y-102504717D01*
X213729666Y-102504666D01*
X213663831Y-102431737D01*
X213603805Y-102255788D01*
X213602666Y-102250666D01*
X213545897Y-102073066D01*
X213486271Y-101996723D01*
X213484945Y-101996666D01*
X213430879Y-101922188D01*
X213359509Y-101731332D01*
X213314515Y-101573333D01*
X213241312Y-101334185D01*
X213171452Y-101180697D01*
X213138354Y-101149999D01*
X213071338Y-101077888D01*
X213012465Y-100918014D01*
X212949957Y-100733863D01*
X212892878Y-100642848D01*
X212798263Y-100521984D01*
X212678841Y-100303257D01*
X212563660Y-100049347D01*
X212481768Y-99822932D01*
X212459666Y-99708059D01*
X212427574Y-99571842D01*
X212384178Y-99541333D01*
X212310577Y-99469347D01*
X212252998Y-99319438D01*
X212164827Y-99102782D01*
X212074526Y-98974764D01*
X211981425Y-98813513D01*
X211908219Y-98572072D01*
X211898552Y-98519325D01*
X211849998Y-98309910D01*
X211793961Y-98194501D01*
X211778239Y-98186666D01*
X211715286Y-98113775D01*
X211656497Y-97937903D01*
X211655333Y-97932666D01*
X211598648Y-97755069D01*
X211539221Y-97678723D01*
X211537900Y-97678666D01*
X211467457Y-97606247D01*
X211367988Y-97421939D01*
X211261964Y-97175165D01*
X211171856Y-96915349D01*
X211143332Y-96810833D01*
X211081051Y-96642646D01*
X211017881Y-96577999D01*
X210953772Y-96505093D01*
X210894487Y-96329190D01*
X210893333Y-96323999D01*
X210834646Y-96146337D01*
X210770442Y-96070052D01*
X210769028Y-96069999D01*
X210710001Y-95996068D01*
X210653147Y-95814112D01*
X210644919Y-95773666D01*
X210590208Y-95578332D01*
X210527318Y-95480091D01*
X210516941Y-95477333D01*
X210458040Y-95402540D01*
X210385841Y-95210960D01*
X210343000Y-95054000D01*
X210273268Y-94814491D01*
X210205011Y-94661032D01*
X210171949Y-94630666D01*
X210109150Y-94557321D01*
X210048763Y-94378439D01*
X210043617Y-94355500D01*
X209984151Y-94139833D01*
X209921623Y-93998297D01*
X209919666Y-93995666D01*
X209857612Y-93858556D01*
X209797489Y-93644030D01*
X209795716Y-93635833D01*
X209737567Y-93449286D01*
X209674284Y-93361623D01*
X209668362Y-93360666D01*
X209609335Y-93286734D01*
X209552480Y-93104778D01*
X209544252Y-93064333D01*
X209487407Y-92868935D01*
X209419304Y-92770734D01*
X209407830Y-92768000D01*
X209337388Y-92698815D01*
X209327000Y-92632628D01*
X209294661Y-92463828D01*
X209216387Y-92240969D01*
X209211898Y-92230462D01*
X209059765Y-91870672D01*
X208966197Y-91627040D01*
X208918457Y-91462135D01*
X208903806Y-91338527D01*
X208903666Y-91324682D01*
X208870598Y-91189231D01*
X208826442Y-91159333D01*
X208766462Y-91084403D01*
X208707378Y-90896127D01*
X208689257Y-90804434D01*
X208624786Y-90553339D01*
X208537981Y-90364626D01*
X208512482Y-90332720D01*
X208419599Y-90158548D01*
X208395666Y-90010285D01*
X208367720Y-89854059D01*
X208316187Y-89804666D01*
X208257566Y-89729285D01*
X208200501Y-89538481D01*
X208179574Y-89423666D01*
X208132202Y-89196909D01*
X208077908Y-89060504D01*
X208054828Y-89042666D01*
X207999958Y-88967992D01*
X207944842Y-88781345D01*
X207930074Y-88704443D01*
X207878220Y-88480881D01*
X207819281Y-88339727D01*
X207803564Y-88323349D01*
X207753022Y-88221215D01*
X207700744Y-88007961D01*
X207675986Y-87857238D01*
X207630457Y-87616205D01*
X207577713Y-87462921D01*
X207548704Y-87434000D01*
X207501849Y-87357218D01*
X207443103Y-87155013D01*
X207384510Y-86869595D01*
X207379717Y-86841633D01*
X207320114Y-86542241D01*
X207257660Y-86313914D01*
X207205313Y-86203514D01*
X207202734Y-86201636D01*
X207136601Y-86085929D01*
X207125666Y-86000699D01*
X207100764Y-85842970D01*
X207035872Y-85584394D01*
X206956333Y-85317333D01*
X206848395Y-84960171D01*
X206799927Y-84733502D01*
X206810242Y-84609533D01*
X206878652Y-84560470D01*
X206937479Y-84555333D01*
X207077041Y-84615878D01*
X207077041Y-84615878D01*
G37*
X207077041Y-84615878D02*
X207258860Y-84762593D01*
X207429671Y-84943097D01*
X207536209Y-85105010D01*
X207549000Y-85156706D01*
X207609082Y-85276851D01*
X207746396Y-85426738D01*
X207896545Y-85543293D01*
X207972333Y-85571333D01*
X208047432Y-85639916D01*
X208057000Y-85698427D01*
X208114225Y-85824440D01*
X208261455Y-86013472D01*
X208395666Y-86154186D01*
X208582299Y-86349093D01*
X208705302Y-86503980D01*
X208734333Y-86565566D01*
X208795778Y-86669839D01*
X208943775Y-86805561D01*
X208946000Y-86807236D01*
X209095424Y-86950846D01*
X209157666Y-87073089D01*
X209157666Y-87073189D01*
X209214538Y-87187548D01*
X209360946Y-87368490D01*
X209496333Y-87508852D01*
X209682496Y-87700268D01*
X209805505Y-87847353D01*
X209835000Y-87902372D01*
X209890866Y-87994415D01*
X210033013Y-88155844D01*
X210131333Y-88255022D01*
X210304303Y-88437493D01*
X210411066Y-88578018D01*
X210427666Y-88619333D01*
X210483763Y-88718475D01*
X210626432Y-88884601D01*
X210724000Y-88983643D01*
X210896651Y-89163548D01*
X211003467Y-89298395D01*
X211020333Y-89336294D01*
X211076468Y-89426421D01*
X211221160Y-89590397D01*
X211359000Y-89729813D01*
X211545191Y-89921441D01*
X211668200Y-90068999D01*
X211697666Y-90124422D01*
X211753835Y-90226714D01*
X211845833Y-90324087D01*
X212022600Y-90502223D01*
X212180311Y-90690825D01*
X212277431Y-90838089D01*
X212290333Y-90878481D01*
X212346870Y-90961852D01*
X212494084Y-91123130D01*
X212671333Y-91299422D01*
X212870352Y-91497973D01*
X213008227Y-91650540D01*
X213052333Y-91717475D01*
X213090224Y-91792259D01*
X213212850Y-91942524D01*
X213433640Y-92183815D01*
X213666166Y-92428081D01*
X213814381Y-92597035D01*
X213894426Y-92717010D01*
X213899000Y-92734403D01*
X213958977Y-92830498D01*
X214110695Y-92991939D01*
X214311833Y-93180626D01*
X214520069Y-93358459D01*
X214693081Y-93487337D01*
X214782746Y-93529999D01*
X214871189Y-93602051D01*
X214969859Y-93781336D01*
X214994731Y-93844567D01*
X215140572Y-94117769D01*
X215342035Y-94358398D01*
X215359377Y-94373734D01*
X215641832Y-94631723D01*
X216020682Y-95003703D01*
X216481606Y-95475541D01*
X216579946Y-95578104D01*
X216928327Y-95927803D01*
X217179475Y-96145915D01*
X217337872Y-96236234D01*
X217361100Y-96239333D01*
X217450623Y-96297828D01*
X217455000Y-96323032D01*
X217507142Y-96451769D01*
X217669530Y-96660398D01*
X217951099Y-96959772D01*
X218108156Y-97116269D01*
X218501731Y-97500320D01*
X218792715Y-97776961D01*
X218996685Y-97960063D01*
X219129222Y-98063499D01*
X219205905Y-98101140D01*
X219215212Y-98102000D01*
X219315625Y-98169589D01*
X219348284Y-98229000D01*
X219461435Y-98341630D01*
X219526676Y-98356000D01*
X219640984Y-98404566D01*
X219656333Y-98447725D01*
X219717375Y-98567623D01*
X219869751Y-98742510D01*
X220067339Y-98928484D01*
X220264016Y-99081643D01*
X220398337Y-99153987D01*
X220558940Y-99264583D01*
X220672333Y-99414333D01*
X220812976Y-99589601D01*
X220948026Y-99675218D01*
X221101532Y-99763771D01*
X221308617Y-99930879D01*
X221421304Y-100037378D01*
X221651505Y-100245568D01*
X221878824Y-100416281D01*
X221963500Y-100466730D01*
X222126945Y-100570788D01*
X222196314Y-100655390D01*
X222196333Y-100656306D01*
X222266928Y-100714647D01*
X222355791Y-100726666D01*
X222504776Y-100798177D01*
X222559532Y-100896000D01*
X222672273Y-101037707D01*
X222814228Y-101065333D01*
X222994947Y-101118023D01*
X223077767Y-101276999D01*
X223154466Y-101435798D01*
X223239059Y-101488666D01*
X223402522Y-101548561D01*
X223643666Y-101713122D01*
X223891360Y-101924808D01*
X224089171Y-102062442D01*
X224219975Y-102121013D01*
X224361164Y-102196985D01*
X224397666Y-102256372D01*
X224466508Y-102326048D01*
X224527323Y-102335333D01*
X224668595Y-102403830D01*
X224705715Y-102462333D01*
X224805094Y-102574725D01*
X224859436Y-102589333D01*
X224994145Y-102640894D01*
X225159666Y-102758666D01*
X225334858Y-102880325D01*
X225468954Y-102927999D01*
X225573061Y-102977239D01*
X225583000Y-103011053D01*
X225654839Y-103091304D01*
X225794666Y-103147232D01*
X225953163Y-103212602D01*
X226006333Y-103275845D01*
X226077326Y-103337203D01*
X226175666Y-103351333D01*
X226313247Y-103386789D01*
X226345000Y-103436000D01*
X226413576Y-103511114D01*
X226472000Y-103520666D01*
X226584702Y-103564349D01*
X226599000Y-103601496D01*
X226673014Y-103668680D01*
X226855146Y-103729634D01*
X226895333Y-103737919D01*
X227097999Y-103806007D01*
X227190473Y-103899640D01*
X227191666Y-103911089D01*
X227259643Y-104015109D01*
X227318666Y-104028666D01*
X227431338Y-104074384D01*
X227445666Y-104113333D01*
X227514243Y-104188447D01*
X227572666Y-104198000D01*
X227674721Y-104271743D01*
X227699666Y-104412323D01*
X227654824Y-104592639D01*
X227572666Y-104675382D01*
X227465583Y-104790844D01*
X227445666Y-104884391D01*
X227392655Y-105016668D01*
X227324372Y-105044666D01*
X227206093Y-105115544D01*
X227145137Y-105227218D01*
X227041467Y-105416003D01*
X226885432Y-105596760D01*
X226745703Y-105747229D01*
X226683740Y-105855439D01*
X226683563Y-105858708D01*
X226632759Y-105966271D01*
X226507205Y-106137562D01*
X226471896Y-106179668D01*
X226333691Y-106368193D01*
X226262803Y-106519280D01*
X226260333Y-106539502D01*
X226206125Y-106643389D01*
X226168828Y-106653333D01*
X226074594Y-106710965D01*
X225895142Y-106864424D01*
X225659505Y-107084554D01*
X225396716Y-107342200D01*
X225135806Y-107608205D01*
X224905808Y-107853414D01*
X224735755Y-108048670D01*
X224654679Y-108164819D01*
X224651666Y-108176943D01*
X224580584Y-108245507D01*
X224478290Y-108262000D01*
X224299228Y-108320824D01*
X224118457Y-108458808D01*
X223939245Y-108616819D01*
X223783833Y-108710151D01*
X223658458Y-108817073D01*
X223635666Y-108894342D01*
X223564927Y-109000710D01*
X223466333Y-109024000D01*
X223329000Y-109072417D01*
X223297000Y-109140178D01*
X223218556Y-109231818D01*
X223008063Y-109301606D01*
X222958333Y-109310512D01*
X222746603Y-109362857D01*
X222628508Y-109427946D01*
X222619666Y-109448333D01*
X222551514Y-109523554D01*
X222498714Y-109532000D01*
X222339686Y-109587741D01*
X222261932Y-109647829D01*
X222089685Y-109765281D01*
X221942333Y-109828333D01*
X221734900Y-109925317D01*
X221622734Y-110008836D01*
X221461920Y-110088827D01*
X221230319Y-110124540D01*
X221216619Y-110124666D01*
X221023148Y-110145019D01*
X220928285Y-110194934D01*
X220926333Y-110204145D01*
X220850952Y-110262767D01*
X220660147Y-110319831D01*
X220545333Y-110340758D01*
X220318531Y-110389615D01*
X220182137Y-110447647D01*
X220164333Y-110472946D01*
X220092478Y-110531994D01*
X219973833Y-110549156D01*
X219649601Y-110586491D01*
X219453896Y-110688171D01*
X219402333Y-110811874D01*
X219436804Y-110944046D01*
X219480272Y-110971333D01*
X219550845Y-111044322D01*
X219612900Y-111220394D01*
X219614000Y-111225333D01*
X219675436Y-111403082D01*
X219746201Y-111479285D01*
X219747727Y-111479333D01*
X219816506Y-111548189D01*
X219825666Y-111608990D01*
X219893932Y-111751557D01*
X219947492Y-111785396D01*
X220053000Y-111895542D01*
X220122000Y-112072000D01*
X220199036Y-112261658D01*
X220296507Y-112358603D01*
X220405849Y-112473215D01*
X220418333Y-112535009D01*
X220458910Y-112649439D01*
X220494717Y-112664666D01*
X220572434Y-112735860D01*
X220655947Y-112908240D01*
X220659646Y-112918666D01*
X220746066Y-113094765D01*
X220833742Y-113172476D01*
X220837262Y-113172666D01*
X220916116Y-113241231D01*
X220926333Y-113300495D01*
X220986084Y-113448913D01*
X221095666Y-113573311D01*
X221223890Y-113720255D01*
X221265000Y-113824869D01*
X221337081Y-113922907D01*
X221476666Y-113984565D01*
X221650086Y-114086383D01*
X221688333Y-114222983D01*
X221750580Y-114396636D01*
X221903993Y-114585360D01*
X221938747Y-114615971D01*
X222101913Y-114773231D01*
X222188666Y-114899430D01*
X222192747Y-114918007D01*
X222250304Y-115021341D01*
X222398297Y-115204113D01*
X222605507Y-115427976D01*
X222619666Y-115442411D01*
X222828074Y-115661623D01*
X222979216Y-115834889D01*
X223042629Y-115927124D01*
X223043000Y-115929910D01*
X223101695Y-116019039D01*
X223261088Y-116197479D01*
X223496132Y-116441123D01*
X223781786Y-116725867D01*
X224093006Y-117027604D01*
X224404747Y-117322229D01*
X224691967Y-117585636D01*
X224929622Y-117793718D01*
X225092668Y-117922372D01*
X225142644Y-117950930D01*
X225288190Y-118025851D01*
X225329000Y-118086216D01*
X225392188Y-118211715D01*
X225549076Y-118385130D01*
X225750651Y-118563237D01*
X225947896Y-118702815D01*
X226091798Y-118760640D01*
X226093822Y-118760666D01*
X226229621Y-118809379D01*
X226260333Y-118875807D01*
X226323586Y-119001453D01*
X226476438Y-119146205D01*
X226483003Y-119150973D01*
X226715919Y-119330498D01*
X226918699Y-119501500D01*
X227084912Y-119631616D01*
X227202315Y-119691550D01*
X227208072Y-119692000D01*
X227312427Y-119748651D01*
X227464655Y-119886741D01*
X227480584Y-119903666D01*
X227634540Y-120047450D01*
X227747287Y-120114664D01*
X227754059Y-120115333D01*
X227866192Y-120171510D01*
X227967564Y-120263500D01*
X228228365Y-120504222D01*
X228479451Y-120662011D01*
X228648220Y-120708000D01*
X228775798Y-120765314D01*
X228800333Y-120833386D01*
X228872436Y-120946662D01*
X229005873Y-121010361D01*
X229181493Y-121094022D01*
X229257216Y-121181307D01*
X229367238Y-121288978D01*
X229423617Y-121300666D01*
X229556719Y-121369009D01*
X229592951Y-121427666D01*
X229706101Y-121540297D01*
X229771342Y-121554666D01*
X229885709Y-121599566D01*
X229901000Y-121639333D01*
X229973456Y-121702979D01*
X230112666Y-121724000D01*
X230282905Y-121768160D01*
X230324333Y-121851000D01*
X230394919Y-121954428D01*
X230493666Y-121978000D01*
X230631043Y-122024381D01*
X230663000Y-122089197D01*
X230734462Y-122189457D01*
X230911127Y-122296270D01*
X230959333Y-122316666D01*
X231150905Y-122406074D01*
X231251313Y-122480723D01*
X231255666Y-122492624D01*
X231327230Y-122555230D01*
X231467333Y-122605434D01*
X231625838Y-122671094D01*
X231679000Y-122734885D01*
X231751841Y-122804884D01*
X231925926Y-122865446D01*
X232118249Y-122942079D01*
X232219603Y-123041507D01*
X232334215Y-123150849D01*
X232396009Y-123163333D01*
X232510406Y-123206233D01*
X232525666Y-123244163D01*
X232599681Y-123311346D01*
X232781812Y-123372301D01*
X232822000Y-123380586D01*
X233024665Y-123448674D01*
X233117140Y-123542307D01*
X233118333Y-123553755D01*
X233186310Y-123657776D01*
X233245333Y-123671333D01*
X233358065Y-123712896D01*
X233372333Y-123748175D01*
X233446927Y-123810721D01*
X233638050Y-123887564D01*
X233795666Y-123933515D01*
X234040190Y-124015990D01*
X234191868Y-124106161D01*
X234219000Y-124153006D01*
X234287110Y-124251264D01*
X234346000Y-124264000D01*
X234458724Y-124306146D01*
X234473000Y-124341939D01*
X234545988Y-124412512D01*
X234722061Y-124474567D01*
X234727000Y-124475666D01*
X234904714Y-124535983D01*
X234980950Y-124604075D01*
X234981000Y-124605557D01*
X235054970Y-124668284D01*
X235237007Y-124726999D01*
X235277333Y-124735252D01*
X235472689Y-124790686D01*
X235570916Y-124855339D01*
X235573666Y-124866089D01*
X235642381Y-124932886D01*
X235700666Y-124941333D01*
X235813040Y-125003450D01*
X235827666Y-125057329D01*
X235902717Y-125148445D01*
X236095558Y-125243364D01*
X236208666Y-125280000D01*
X236433321Y-125355860D01*
X236570173Y-125427060D01*
X236589666Y-125453609D01*
X236662556Y-125516433D01*
X236838425Y-125575167D01*
X236843666Y-125576333D01*
X237021354Y-125635806D01*
X237097615Y-125701886D01*
X237097666Y-125703333D01*
X237170595Y-125769168D01*
X237346544Y-125829194D01*
X237351666Y-125830333D01*
X237529354Y-125889806D01*
X237605615Y-125955886D01*
X237605666Y-125957333D01*
X237678595Y-126023168D01*
X237854544Y-126083194D01*
X237859666Y-126084333D01*
X238037331Y-126143091D01*
X238113614Y-126207465D01*
X238113666Y-126208881D01*
X238185341Y-126278337D01*
X238325333Y-126330767D01*
X238483838Y-126396428D01*
X238537000Y-126460219D01*
X238609974Y-126529655D01*
X238786017Y-126591224D01*
X238791000Y-126592333D01*
X238968647Y-126650559D01*
X239044946Y-126713664D01*
X239045000Y-126715057D01*
X239118774Y-126775181D01*
X239305950Y-126851630D01*
X239426000Y-126888666D01*
X239650655Y-126964527D01*
X239787506Y-127035727D01*
X239807000Y-127062276D01*
X239879889Y-127125100D01*
X240055758Y-127183834D01*
X240061000Y-127185000D01*
X240238687Y-127244473D01*
X240314948Y-127310552D01*
X240315000Y-127312000D01*
X240387928Y-127377834D01*
X240563878Y-127437860D01*
X240569000Y-127439000D01*
X240746665Y-127497758D01*
X240822947Y-127562132D01*
X240823000Y-127563548D01*
X240894675Y-127633003D01*
X241034666Y-127685434D01*
X241193239Y-127753422D01*
X241246333Y-127821613D01*
X241314934Y-127895304D01*
X241373333Y-127904666D01*
X241469538Y-127958133D01*
X241496556Y-128130415D01*
X241456655Y-128439340D01*
X241447416Y-128486749D01*
X241381075Y-128669366D01*
X241292459Y-128751031D01*
X241287261Y-128751333D01*
X241188719Y-128823421D01*
X241126898Y-128963000D01*
X241058911Y-129121572D01*
X240990720Y-129174666D01*
X240923235Y-129245593D01*
X240907666Y-129344000D01*
X240854727Y-129481904D01*
X240780666Y-129513333D01*
X240667971Y-129557503D01*
X240653666Y-129595080D01*
X240599054Y-129701445D01*
X240462120Y-129870261D01*
X240399666Y-129936666D01*
X240242973Y-130112927D01*
X240153619Y-130244382D01*
X240145666Y-130270983D01*
X240091143Y-130370157D01*
X239952141Y-130540192D01*
X239850987Y-130648901D01*
X239664751Y-130871851D01*
X239532619Y-131086799D01*
X239503142Y-131164170D01*
X239425418Y-131323070D01*
X239338838Y-131376000D01*
X239275926Y-131394414D01*
X239180201Y-131460131D01*
X239034907Y-131588858D01*
X238823285Y-131796303D01*
X238528578Y-132098174D01*
X238177166Y-132464927D01*
X238000092Y-132665028D01*
X237884837Y-132822922D01*
X237859666Y-132882092D01*
X237787478Y-132961683D01*
X237632832Y-133023241D01*
X237444566Y-133116106D01*
X237212936Y-133290798D01*
X237082593Y-133413419D01*
X236892418Y-133597937D01*
X236746392Y-133718954D01*
X236693243Y-133746666D01*
X236594393Y-133804337D01*
X236482311Y-133916000D01*
X236326892Y-134044836D01*
X236209495Y-134085333D01*
X236096307Y-134131748D01*
X236081666Y-134171815D01*
X236012331Y-134263684D01*
X235848833Y-134360532D01*
X235657845Y-134469040D01*
X235548292Y-134570383D01*
X235419154Y-134668588D01*
X235366851Y-134678000D01*
X235239940Y-134746216D01*
X235204382Y-134805000D01*
X235091231Y-134917630D01*
X235025990Y-134932000D01*
X234911569Y-134973218D01*
X234896333Y-135009611D01*
X234825760Y-135090916D01*
X234663500Y-135172260D01*
X234530637Y-135232625D01*
X234524768Y-135263499D01*
X234529772Y-135263982D01*
X234616254Y-135342161D01*
X234683113Y-135517593D01*
X234759746Y-135709916D01*
X234859173Y-135811269D01*
X234968516Y-135925881D01*
X234981000Y-135987676D01*
X235025900Y-136102042D01*
X235065666Y-136117333D01*
X235141781Y-136185468D01*
X235150333Y-136238285D01*
X235205889Y-136398926D01*
X235261371Y-136471119D01*
X235371250Y-136624047D01*
X235486970Y-136843091D01*
X235493706Y-136858166D01*
X235601548Y-137041269D01*
X235707838Y-137131386D01*
X235721334Y-137133333D01*
X235807625Y-137204020D01*
X235827666Y-137302666D01*
X235859315Y-137440305D01*
X235903154Y-137472000D01*
X235977689Y-137543754D01*
X236031767Y-137683666D01*
X236114455Y-137842598D01*
X236210279Y-137895333D01*
X236311907Y-137965782D01*
X236335666Y-138064666D01*
X236388606Y-138202570D01*
X236462666Y-138234000D01*
X236566094Y-138304586D01*
X236589666Y-138403333D01*
X236621687Y-138540966D01*
X236666050Y-138572666D01*
X236743767Y-138643860D01*
X236827281Y-138816240D01*
X236830979Y-138826666D01*
X236916929Y-139002740D01*
X237003499Y-139080473D01*
X237006982Y-139080666D01*
X237090482Y-139152571D01*
X237147750Y-139293070D01*
X237272334Y-139489543D01*
X237403363Y-139556248D01*
X237569449Y-139658436D01*
X237605666Y-139768007D01*
X237666526Y-139943491D01*
X237775000Y-140073978D01*
X237902222Y-140207647D01*
X237944333Y-140291329D01*
X237999325Y-140391157D01*
X238137097Y-140554316D01*
X238198333Y-140617692D01*
X238356842Y-140797637D01*
X238446452Y-140940875D01*
X238453796Y-140971012D01*
X238516654Y-141101425D01*
X238662062Y-141263872D01*
X238829464Y-141399864D01*
X238951100Y-141451333D01*
X239034348Y-141519759D01*
X239045000Y-141578333D01*
X239090717Y-141691005D01*
X239129666Y-141705333D01*
X239209192Y-141771698D01*
X239214333Y-141806244D01*
X239272120Y-141916336D01*
X239420653Y-142091475D01*
X239553000Y-142222957D01*
X239741141Y-142412347D01*
X239864108Y-142562889D01*
X239891666Y-142620988D01*
X239959206Y-142719502D01*
X240018666Y-142751951D01*
X240130810Y-142839540D01*
X240145666Y-142884421D01*
X240202537Y-142963617D01*
X240358704Y-143139206D01*
X240592496Y-143389208D01*
X240882241Y-143691645D01*
X241206271Y-144024536D01*
X241542913Y-144365904D01*
X241870498Y-144693768D01*
X242167354Y-144986149D01*
X242411812Y-145221067D01*
X242582200Y-145376545D01*
X242656154Y-145430666D01*
X242759234Y-145492373D01*
X242968671Y-145673213D01*
X243277198Y-145966770D01*
X243399063Y-146086833D01*
X243577535Y-146251088D01*
X243709352Y-146349490D01*
X243741241Y-146362000D01*
X243830669Y-146418898D01*
X243992147Y-146565367D01*
X244125000Y-146700666D01*
X244314023Y-146888491D01*
X244461665Y-147012109D01*
X244517311Y-147040796D01*
X244620203Y-147097827D01*
X244773207Y-147234965D01*
X244790053Y-147252462D01*
X244947121Y-147395167D01*
X245063415Y-147461982D01*
X245070619Y-147462666D01*
X245181686Y-147515329D01*
X245349351Y-147644760D01*
X245379232Y-147671593D01*
X245596428Y-147871328D01*
X245837933Y-148093706D01*
X245877513Y-148130183D01*
X246087869Y-148300346D01*
X246279480Y-148417804D01*
X246322013Y-148434962D01*
X246461166Y-148512770D01*
X246495666Y-148573443D01*
X246566964Y-148656066D01*
X246739560Y-148741764D01*
X246749666Y-148745353D01*
X246925569Y-148828083D01*
X247003453Y-148907072D01*
X247003666Y-148910282D01*
X247074652Y-148972367D01*
X247173000Y-148986666D01*
X247311917Y-149040830D01*
X247342333Y-149116323D01*
X247411671Y-149252228D01*
X247490500Y-149302086D01*
X247683155Y-149412153D01*
X247750547Y-149468762D01*
X247908099Y-149564518D01*
X247983380Y-149579333D01*
X248092093Y-149628492D01*
X248104333Y-149666657D01*
X248172859Y-149766149D01*
X248252500Y-149810086D01*
X248438142Y-149907238D01*
X248503561Y-149955595D01*
X248718231Y-150134285D01*
X248860656Y-150224526D01*
X248980986Y-150254887D01*
X249032093Y-150256666D01*
X249171602Y-150291465D01*
X249205000Y-150341333D01*
X249272901Y-150417952D01*
X249322941Y-150426000D01*
X249453646Y-150494294D01*
X249489617Y-150553000D01*
X249602768Y-150665630D01*
X249668009Y-150680000D01*
X249782376Y-150724900D01*
X249797666Y-150764666D01*
X249868579Y-150833456D01*
X249967000Y-150849333D01*
X250104295Y-150899419D01*
X250136333Y-150969606D01*
X250209649Y-151070033D01*
X250386393Y-151144786D01*
X250390333Y-151145666D01*
X250568067Y-151206632D01*
X250644284Y-151276273D01*
X250644333Y-151277780D01*
X250716097Y-151352949D01*
X250856000Y-151407232D01*
X251014315Y-151466734D01*
X251067666Y-151518836D01*
X251139834Y-151584242D01*
X251314976Y-151664588D01*
X251531052Y-151736818D01*
X251726022Y-151777874D01*
X251772177Y-151780666D01*
X251893857Y-151842205D01*
X251914333Y-151907666D01*
X251982106Y-152019915D01*
X252041333Y-152034666D01*
X252154057Y-152076813D01*
X252168333Y-152112606D01*
X252241322Y-152183179D01*
X252417394Y-152245233D01*
X252422333Y-152246333D01*
X252599998Y-152305091D01*
X252676280Y-152369465D01*
X252676333Y-152370881D01*
X252748008Y-152440337D01*
X252888000Y-152492767D01*
X253046505Y-152558428D01*
X253099666Y-152622219D01*
X253172641Y-152691655D01*
X253348684Y-152753224D01*
X253353666Y-152754333D01*
X253531314Y-152812559D01*
X253607612Y-152875664D01*
X253607666Y-152877057D01*
X253681441Y-152937181D01*
X253868617Y-153013630D01*
X253988666Y-153050666D01*
X254213290Y-153126040D01*
X254350148Y-153196029D01*
X254369666Y-153221824D01*
X254441741Y-153286523D01*
X254601651Y-153344534D01*
X254789716Y-153414992D01*
X254885783Y-153487132D01*
X254995932Y-153550287D01*
X255207916Y-153605701D01*
X255288797Y-153618567D01*
X255505123Y-153663322D01*
X255628598Y-153719368D01*
X255639666Y-153739147D01*
X255708111Y-153805025D01*
X255762459Y-153812666D01*
X255905334Y-153878678D01*
X255959755Y-153945795D01*
X256085322Y-154039956D01*
X256307891Y-154112611D01*
X256387295Y-154126277D01*
X256630318Y-154185045D01*
X256737602Y-154271814D01*
X256740333Y-154289481D01*
X256810906Y-154383441D01*
X256909666Y-154405333D01*
X257047247Y-154440789D01*
X257079000Y-154490000D01*
X257152456Y-154549901D01*
X257328003Y-154574666D01*
X257523531Y-154600765D01*
X257629333Y-154659333D01*
X257745692Y-154724165D01*
X257894377Y-154744000D01*
X258110842Y-154792953D01*
X258234095Y-154871000D01*
X258411313Y-154966460D01*
X258599989Y-154998000D01*
X258793523Y-155039174D01*
X258887617Y-155125000D01*
X259000768Y-155237630D01*
X259066009Y-155252000D01*
X259180376Y-155296900D01*
X259195666Y-155336666D01*
X259269985Y-155393090D01*
X259452257Y-155420762D01*
X259485952Y-155421333D01*
X259719405Y-155454197D01*
X259888438Y-155533833D01*
X259894106Y-155539202D01*
X260078857Y-155657494D01*
X260174348Y-155688340D01*
X260337610Y-155772253D01*
X260351149Y-155932658D01*
X260214795Y-156170096D01*
X259928379Y-156485109D01*
X259922926Y-156490441D01*
X259698939Y-156718494D01*
X259532203Y-156906102D01*
X259452544Y-157019219D01*
X259449666Y-157030642D01*
X259392516Y-157116489D01*
X259238698Y-157292070D01*
X259014660Y-157530887D01*
X258746853Y-157806443D01*
X258461726Y-158092241D01*
X258185726Y-158361782D01*
X257945304Y-158588570D01*
X257766908Y-158746106D01*
X257676987Y-158807894D01*
X257675561Y-158808000D01*
X257588442Y-158864088D01*
X257413477Y-159014417D01*
X257181131Y-159232083D01*
X257052384Y-159358333D01*
X256802692Y-159599847D01*
X256595120Y-159787767D01*
X256460138Y-159895108D01*
X256429334Y-159910129D01*
X256316525Y-159972709D01*
X256166997Y-160116735D01*
X256035892Y-160281402D01*
X255978355Y-160405905D01*
X255978333Y-160407433D01*
X255909977Y-160490856D01*
X255852301Y-160501333D01*
X255662737Y-160571997D01*
X255384937Y-160784633D01*
X255255266Y-160903500D01*
X255123986Y-160994545D01*
X255071864Y-161009333D01*
X254962128Y-161071778D01*
X254827945Y-161213611D01*
X254727789Y-161366584D01*
X254708333Y-161433634D01*
X254638314Y-161504269D01*
X254557816Y-161517333D01*
X254390912Y-161577844D01*
X254262311Y-161686666D01*
X254109184Y-161815339D01*
X253995200Y-161856000D01*
X253873796Y-161926523D01*
X253819333Y-162025333D01*
X253695079Y-162167915D01*
X253568686Y-162194666D01*
X253395436Y-162243249D01*
X253323048Y-162321666D01*
X253210800Y-162434283D01*
X253146270Y-162448666D01*
X253031977Y-162520935D01*
X252965101Y-162660333D01*
X252869182Y-162829681D01*
X252706830Y-162872000D01*
X252530214Y-162918737D01*
X252452951Y-162999000D01*
X252349723Y-163111464D01*
X252292322Y-163126000D01*
X252137895Y-163179928D01*
X252068547Y-163231833D01*
X251915117Y-163343717D01*
X251703083Y-163464320D01*
X251702666Y-163464528D01*
X251506613Y-163582929D01*
X251383117Y-163694106D01*
X251380959Y-163697361D01*
X251244868Y-163794554D01*
X251190459Y-163803333D01*
X251081881Y-163871198D01*
X251067666Y-163930333D01*
X250994065Y-164032476D01*
X250856000Y-164057333D01*
X250696885Y-164086315D01*
X250644333Y-164142000D01*
X250575573Y-164216681D01*
X250514676Y-164226666D01*
X250373404Y-164295163D01*
X250336284Y-164353666D01*
X250229681Y-164466190D01*
X250169608Y-164480666D01*
X250063201Y-164547679D01*
X250051666Y-164598244D01*
X249975886Y-164692873D01*
X249783624Y-164765633D01*
X249755333Y-164771413D01*
X249559724Y-164836240D01*
X249461655Y-164923835D01*
X249459000Y-164939348D01*
X249381895Y-165025908D01*
X249180715Y-165094673D01*
X249120333Y-165105846D01*
X248874684Y-165175441D01*
X248782070Y-165277849D01*
X248781666Y-165286000D01*
X248711164Y-165388305D01*
X248612333Y-165412000D01*
X248474709Y-165444666D01*
X248443000Y-165489939D01*
X248370011Y-165560512D01*
X248193938Y-165622567D01*
X248189000Y-165623666D01*
X248010917Y-165697496D01*
X247935030Y-165797854D01*
X247935000Y-165799727D01*
X247864483Y-165897244D01*
X247765666Y-165920000D01*
X247628043Y-165952666D01*
X247596333Y-165997939D01*
X247523344Y-166068512D01*
X247347272Y-166130567D01*
X247342333Y-166131666D01*
X247164685Y-166189893D01*
X247088387Y-166252997D01*
X247088333Y-166254390D01*
X247014558Y-166314514D01*
X246827382Y-166390963D01*
X246707333Y-166428000D01*
X246477075Y-166515317D01*
X246342648Y-166611666D01*
X246326333Y-166650670D01*
X246258323Y-166753307D01*
X246199333Y-166766666D01*
X246086591Y-166807508D01*
X246072333Y-166842154D01*
X246000578Y-166916689D01*
X245860666Y-166970767D01*
X245702161Y-167036428D01*
X245649000Y-167100219D01*
X245576025Y-167169655D01*
X245399982Y-167231224D01*
X245395000Y-167232333D01*
X245217334Y-167291091D01*
X245141052Y-167355465D01*
X245141000Y-167356881D01*
X245068876Y-167424697D01*
X244909014Y-167483867D01*
X244720949Y-167554326D01*
X244624883Y-167626465D01*
X244514733Y-167689620D01*
X244302750Y-167745034D01*
X244221868Y-167757901D01*
X244005599Y-167800284D01*
X243882104Y-167850406D01*
X243871000Y-167867477D01*
X243797266Y-167924974D01*
X243610183Y-167999811D01*
X243490000Y-168036666D01*
X243265260Y-168113865D01*
X243128425Y-168188392D01*
X243109000Y-168217003D01*
X243040557Y-168283009D01*
X242986207Y-168290666D01*
X242843331Y-168356678D01*
X242788911Y-168423795D01*
X242663343Y-168517956D01*
X242440774Y-168590611D01*
X242361371Y-168604277D01*
X242144265Y-168649045D01*
X242019836Y-168705017D01*
X242008333Y-168725147D01*
X241939888Y-168791025D01*
X241885540Y-168798666D01*
X241736326Y-168863587D01*
X241695040Y-168912824D01*
X241573024Y-168999025D01*
X241356674Y-169068046D01*
X241300823Y-169078297D01*
X241063943Y-169141567D01*
X240896138Y-169232213D01*
X240877490Y-169251451D01*
X240740780Y-169334292D01*
X240503294Y-169406658D01*
X240365282Y-169431815D01*
X240096560Y-169489699D01*
X239888352Y-169569809D01*
X239830068Y-169610169D01*
X239653165Y-169705552D01*
X239504619Y-169730000D01*
X239348400Y-169758418D01*
X239299000Y-169810830D01*
X239224985Y-169878013D01*
X239042853Y-169938967D01*
X239002666Y-169947252D01*
X238807310Y-170002686D01*
X238709083Y-170067339D01*
X238706333Y-170078089D01*
X238637440Y-170144501D01*
X238576676Y-170153333D01*
X238434634Y-170219757D01*
X238401760Y-170271275D01*
X238292958Y-170352393D01*
X238059572Y-170420606D01*
X237903476Y-170445818D01*
X237612515Y-170503621D01*
X237435822Y-170584175D01*
X237403716Y-170624210D01*
X237286135Y-170713702D01*
X237057990Y-170746000D01*
X236861066Y-170766841D01*
X236761844Y-170818145D01*
X236759000Y-170829666D01*
X236684074Y-170893496D01*
X236496371Y-170952860D01*
X236413078Y-170968647D01*
X236186546Y-171028214D01*
X236042384Y-171109555D01*
X236024295Y-171135657D01*
X235918883Y-171208542D01*
X235687357Y-171272512D01*
X235481217Y-171303945D01*
X235215949Y-171344459D01*
X235034580Y-171392248D01*
X234981000Y-171429081D01*
X234905728Y-171481424D01*
X234715488Y-171534430D01*
X234605697Y-171553904D01*
X234368726Y-171612426D01*
X234211875Y-171693857D01*
X234185021Y-171728425D01*
X234073141Y-171825716D01*
X233967657Y-171846666D01*
X233828573Y-171877153D01*
X233795666Y-171920393D01*
X233718325Y-171964317D01*
X233514757Y-172010701D01*
X233227645Y-172050028D01*
X233203000Y-172052520D01*
X232911149Y-172091659D01*
X232699532Y-172139835D01*
X232610840Y-172187112D01*
X232610333Y-172190460D01*
X232539596Y-172255741D01*
X232445996Y-172270000D01*
X232283915Y-172308878D01*
X232229333Y-172354666D01*
X232119667Y-172406107D01*
X231904995Y-172436146D01*
X231801003Y-172439333D01*
X231575522Y-172456359D01*
X231441312Y-172499378D01*
X231425000Y-172524000D01*
X231352463Y-172587357D01*
X231210676Y-172608666D01*
X231030360Y-172653508D01*
X230947617Y-172735666D01*
X230853310Y-172839698D01*
X230733306Y-172854885D01*
X230663224Y-172775630D01*
X230661703Y-172756833D01*
X230641395Y-172696899D01*
X230596614Y-172751320D01*
X230481766Y-172818883D01*
X230257871Y-172881850D01*
X230095044Y-172909713D01*
X229829238Y-172965124D01*
X229652690Y-173041087D01*
X229612457Y-173084559D01*
X229492702Y-173167717D01*
X229226183Y-173200917D01*
X229183990Y-173201333D01*
X228955826Y-173216118D01*
X228818430Y-173253554D01*
X228800333Y-173276244D01*
X228724009Y-173326748D01*
X228527068Y-173378564D01*
X228334666Y-173409336D01*
X228080038Y-173452012D01*
X227910898Y-173501175D01*
X227869000Y-173533815D01*
X227791202Y-173574063D01*
X227582713Y-173626544D01*
X227280885Y-173682656D01*
X227107000Y-173709333D01*
X226772587Y-173763649D01*
X226512860Y-173817982D01*
X226365164Y-173863916D01*
X226345000Y-173881080D01*
X226267988Y-173921128D01*
X226066446Y-173965226D01*
X225794666Y-174002542D01*
X225514745Y-174041895D01*
X225316582Y-174087653D01*
X225244333Y-174128469D01*
X225167493Y-174171851D01*
X224967067Y-174218735D01*
X224716154Y-174255217D01*
X224431789Y-174299483D01*
X224219690Y-174354962D01*
X224133959Y-174402373D01*
X224023719Y-174463355D01*
X223807163Y-174516837D01*
X223688471Y-174533897D01*
X223457778Y-174574143D01*
X223317138Y-174626138D01*
X223297000Y-174651677D01*
X223225991Y-174711551D01*
X223127666Y-174725333D01*
X222989624Y-174681083D01*
X222957036Y-174619500D01*
X222936038Y-174562730D01*
X222884277Y-174626397D01*
X222761627Y-174703173D01*
X222538536Y-174761990D01*
X222441073Y-174774900D01*
X222209642Y-174814030D01*
X222062993Y-174870611D01*
X222041111Y-174895003D01*
X221952445Y-174971755D01*
X221831355Y-174961010D01*
X221771703Y-174873500D01*
X221747606Y-174816789D01*
X221708203Y-174861723D01*
X221594861Y-174921462D01*
X221369908Y-174974604D01*
X221183912Y-174999151D01*
X220923022Y-175039163D01*
X220741457Y-175096167D01*
X220690023Y-175137928D01*
X220604440Y-175218164D01*
X220484250Y-175225128D01*
X220418592Y-175155296D01*
X220418333Y-175148666D01*
X220358901Y-175073997D01*
X220239606Y-175076928D01*
X220148949Y-175153439D01*
X220146100Y-175161032D01*
X220119268Y-175201165D01*
X220052930Y-175233312D01*
X219923088Y-175260818D01*
X219705740Y-175287024D01*
X219376887Y-175315274D01*
X218912527Y-175348910D01*
X218685276Y-175364498D01*
X218364137Y-175394480D01*
X218113447Y-175433136D01*
X217976940Y-175473266D01*
X217965610Y-175482952D01*
X217867481Y-175518432D01*
X217637550Y-175557369D01*
X217313121Y-175594388D01*
X217031666Y-175617558D01*
X216659921Y-175650564D01*
X216353787Y-175691012D01*
X216151012Y-175733114D01*
X216089643Y-175762012D01*
X215984707Y-175805215D01*
X215757179Y-175842667D01*
X215453793Y-175866980D01*
X215415280Y-175868634D01*
X215093854Y-175893065D01*
X214863723Y-175934124D01*
X214763337Y-175984870D01*
X214762748Y-175986422D01*
X214677205Y-176065504D01*
X214556956Y-176071366D01*
X214491861Y-176001054D01*
X214491666Y-175995333D01*
X214426490Y-175926745D01*
X214288877Y-175914965D01*
X214165703Y-175959411D01*
X214138100Y-175997699D01*
X214046089Y-176038343D01*
X213820927Y-176076598D01*
X213498773Y-176107378D01*
X213264595Y-176120545D01*
X212889379Y-176144783D01*
X212598166Y-176179886D01*
X212424260Y-176221106D01*
X212390495Y-176245179D01*
X212305068Y-176321222D01*
X212184680Y-176324216D01*
X212121071Y-176252746D01*
X212121000Y-176249333D01*
X212052520Y-176186643D01*
X211901690Y-176166378D01*
X211750418Y-176189829D01*
X211683555Y-176242433D01*
X211594363Y-176268333D01*
X211361138Y-176296464D01*
X211009132Y-176324887D01*
X210563595Y-176351663D01*
X210049777Y-176374853D01*
X209877333Y-176381122D01*
X209346117Y-176402113D01*
X208874179Y-176426080D01*
X208487033Y-176451289D01*
X208210191Y-176476007D01*
X208069167Y-176498501D01*
X208057000Y-176504777D01*
X207965112Y-176520025D01*
X207722323Y-176535112D01*
X207347062Y-176549804D01*
X206857760Y-176563870D01*
X206272849Y-176577076D01*
X205610758Y-176589189D01*
X204889920Y-176599978D01*
X204128765Y-176609209D01*
X203345724Y-176616650D01*
X202559227Y-176622069D01*
X201787706Y-176625233D01*
X201049591Y-176625908D01*
X200363314Y-176623863D01*
X199747306Y-176618865D01*
X199399833Y-176614033D01*
X198875108Y-176602006D01*
X198412895Y-176585243D01*
X198038075Y-176565156D01*
X197775534Y-176543160D01*
X197650152Y-176520670D01*
X197643000Y-176514197D01*
X197562614Y-176489755D01*
X197338460Y-176462747D01*
X196996041Y-176435172D01*
X196560859Y-176409033D01*
X196058418Y-176386330D01*
X195972239Y-176383105D01*
X195457760Y-176361232D01*
X195003059Y-176335858D01*
X194634537Y-176308952D01*
X194378593Y-176282484D01*
X194261629Y-176258422D01*
X194257739Y-176255200D01*
X194161366Y-176225625D01*
X193928899Y-176192523D01*
X193593422Y-176159621D01*
X193188020Y-176130644D01*
X193113579Y-176126323D01*
X192699603Y-176098301D01*
X192349985Y-176065537D01*
X192097764Y-176031798D01*
X191975979Y-176000848D01*
X191970579Y-175996063D01*
X191873870Y-175963525D01*
X191643806Y-175927345D01*
X191316160Y-175892204D01*
X190975500Y-175865856D01*
X190596882Y-175835984D01*
X190289581Y-175801519D01*
X190087329Y-175766937D01*
X190023000Y-175739429D01*
X189944680Y-175705129D01*
X189734501Y-175666670D01*
X189429633Y-175630041D01*
X189239833Y-175613219D01*
X188893207Y-175579541D01*
X188615154Y-175540324D01*
X188445612Y-175501804D01*
X188413685Y-175484266D01*
X188313174Y-175443435D01*
X188092704Y-175402946D01*
X187821018Y-175373487D01*
X187314201Y-175326578D01*
X186908466Y-175274717D01*
X186623846Y-175221214D01*
X186480377Y-175169378D01*
X186467000Y-175149813D01*
X186389554Y-175112723D01*
X186185260Y-175071866D01*
X185896185Y-175035392D01*
X185856790Y-175031603D01*
X185551818Y-174994031D01*
X185318342Y-174948021D01*
X185202862Y-174902956D01*
X185199695Y-174899028D01*
X185097404Y-174856051D01*
X184873999Y-174815995D01*
X184577602Y-174787459D01*
X184574097Y-174787240D01*
X184275231Y-174756581D01*
X184046995Y-174710669D01*
X183938589Y-174659415D01*
X183938435Y-174659170D01*
X183827977Y-174596657D01*
X183606924Y-174536669D01*
X183438577Y-174508272D01*
X183191179Y-174464216D01*
X183030417Y-174414024D01*
X182995666Y-174384072D01*
X182918990Y-174340705D01*
X182719636Y-174293857D01*
X182487666Y-174259666D01*
X182220107Y-174218104D01*
X182036063Y-174169421D01*
X181979666Y-174131092D01*
X181902526Y-174087916D01*
X181700140Y-174041260D01*
X181416058Y-174001122D01*
X181411514Y-174000633D01*
X181104209Y-173953112D01*
X180856563Y-173888400D01*
X180728133Y-173824561D01*
X180575883Y-173753001D01*
X180333492Y-173712636D01*
X180242159Y-173709333D01*
X179944955Y-173676367D01*
X179796813Y-173576027D01*
X179796559Y-173575575D01*
X179652679Y-173477308D01*
X179346815Y-173410646D01*
X179199685Y-173394483D01*
X178927800Y-173360504D01*
X178738980Y-173319085D01*
X178677666Y-173283854D01*
X178602439Y-173234590D01*
X178412400Y-173183507D01*
X178304165Y-173164550D01*
X178066703Y-173104860D01*
X177909796Y-173020624D01*
X177883489Y-172985603D01*
X177760632Y-172894447D01*
X177495672Y-172862666D01*
X177494990Y-172862666D01*
X177281936Y-172844025D01*
X177162782Y-172797415D01*
X177153666Y-172778000D01*
X177083026Y-172708382D01*
X176990380Y-172693333D01*
X176793558Y-172639090D01*
X176715214Y-172584445D01*
X176547543Y-172484072D01*
X176282042Y-172383461D01*
X175988726Y-172304780D01*
X175737607Y-172270197D01*
X175722103Y-172270000D01*
X175585266Y-172253387D01*
X175447727Y-172184223D01*
X175257890Y-172033522D01*
X175180104Y-171965495D01*
X175030664Y-171888964D01*
X174800075Y-171821640D01*
X174759709Y-171813491D01*
X174556979Y-171757111D01*
X174449519Y-171691453D01*
X174444333Y-171676412D01*
X174368464Y-171621731D01*
X174174650Y-171567829D01*
X174026134Y-171543022D01*
X173770954Y-171488327D01*
X173600101Y-171412027D01*
X173563124Y-171370773D01*
X173449847Y-171265812D01*
X173388657Y-171254000D01*
X173274290Y-171209099D01*
X173259000Y-171169333D01*
X173186667Y-171105247D01*
X173051317Y-171084666D01*
X172758971Y-171032243D01*
X172450091Y-170902275D01*
X172258119Y-170768154D01*
X172098775Y-170675053D01*
X172025285Y-170661333D01*
X171916550Y-170613638D01*
X171904333Y-170576666D01*
X171832542Y-170510134D01*
X171713833Y-170490843D01*
X171419840Y-170459610D01*
X171216191Y-170380022D01*
X171142333Y-170270458D01*
X171071776Y-170175473D01*
X170973000Y-170153333D01*
X170835376Y-170120666D01*
X170803666Y-170075393D01*
X170730677Y-170004820D01*
X170554605Y-169942766D01*
X170549666Y-169941666D01*
X170372016Y-169883387D01*
X170295720Y-169820156D01*
X170295666Y-169818760D01*
X170220914Y-169764866D01*
X170034066Y-169711575D01*
X169957000Y-169697487D01*
X169745269Y-169645142D01*
X169627175Y-169580053D01*
X169618333Y-169559666D01*
X169551230Y-169482326D01*
X169510024Y-169476000D01*
X169380507Y-169413508D01*
X169281911Y-169309781D01*
X169110016Y-169166671D01*
X168924554Y-169091387D01*
X168753941Y-169030072D01*
X168687000Y-168961272D01*
X168618755Y-168891171D01*
X168566047Y-168883333D01*
X168407019Y-168827591D01*
X168329265Y-168767503D01*
X168153249Y-168646610D01*
X168026884Y-168592464D01*
X167881203Y-168516446D01*
X167840333Y-168454294D01*
X167767843Y-168394926D01*
X167628666Y-168375333D01*
X167460178Y-168332413D01*
X167417000Y-168252169D01*
X167339337Y-168150065D01*
X167134319Y-168076074D01*
X167120666Y-168073413D01*
X166918000Y-168005325D01*
X166825526Y-167911692D01*
X166824333Y-167900244D01*
X166759083Y-167794041D01*
X166710288Y-167782666D01*
X166568573Y-167730821D01*
X166401000Y-167613333D01*
X166240804Y-167492956D01*
X166134045Y-167444000D01*
X166075746Y-167372976D01*
X166062333Y-167274666D01*
X166117267Y-167135994D01*
X166252586Y-167117617D01*
X166424060Y-167225176D01*
X166427058Y-167228153D01*
X166600609Y-167340855D01*
X166787295Y-167410561D01*
X167053572Y-167499436D01*
X167242023Y-167583553D01*
X167436550Y-167667260D01*
X167565166Y-167697478D01*
X167663641Y-167743109D01*
X167671000Y-167769144D01*
X167746117Y-167825791D01*
X167940237Y-167898197D01*
X168136666Y-167952000D01*
X168389492Y-168024128D01*
X168558610Y-168094356D01*
X168602333Y-168134855D01*
X168674261Y-168190176D01*
X168795161Y-168206000D01*
X169019910Y-168254843D01*
X169159318Y-168326003D01*
X169359663Y-168423292D01*
X169618569Y-168499748D01*
X169643823Y-168504759D01*
X169845621Y-168558158D01*
X169952084Y-168616639D01*
X169957000Y-168629142D01*
X170032320Y-168679496D01*
X170222986Y-168731586D01*
X170338000Y-168751907D01*
X170564783Y-168800162D01*
X170701182Y-168856678D01*
X170719000Y-168881079D01*
X170793698Y-168938725D01*
X170980399Y-168995392D01*
X171057222Y-169010258D01*
X171280891Y-169062249D01*
X171422237Y-169121514D01*
X171438666Y-169137333D01*
X171542208Y-169192948D01*
X171750347Y-169248945D01*
X171841277Y-169265727D01*
X172138583Y-169331136D01*
X172412412Y-169417734D01*
X172454666Y-169435061D01*
X172661314Y-169513112D01*
X172968165Y-169615044D01*
X173312113Y-169719983D01*
X173343666Y-169729132D01*
X173663810Y-169823197D01*
X173929986Y-169904493D01*
X174092013Y-169957632D01*
X174105666Y-169962789D01*
X174258747Y-170011639D01*
X174506465Y-170079579D01*
X174656000Y-170117533D01*
X175196188Y-170253175D01*
X175591183Y-170358625D01*
X175861289Y-170439531D01*
X176010666Y-170494427D01*
X176198830Y-170552074D01*
X176465869Y-170608867D01*
X176561000Y-170624569D01*
X176798603Y-170670914D01*
X176956068Y-170721154D01*
X176984333Y-170740310D01*
X177018249Y-170763473D01*
X177100972Y-170791946D01*
X177251679Y-170829848D01*
X177489547Y-170881298D01*
X177833752Y-170950415D01*
X178303471Y-171041317D01*
X178917879Y-171158123D01*
X179016333Y-171176740D01*
X179309046Y-171239262D01*
X179554203Y-171304049D01*
X179651333Y-171337699D01*
X179830510Y-171388913D01*
X180103300Y-171439999D01*
X180281469Y-171464403D01*
X180554888Y-171504577D01*
X180761780Y-171549967D01*
X180831802Y-171576578D01*
X180955588Y-171619142D01*
X181195740Y-171675470D01*
X181501249Y-171733655D01*
X181514000Y-171735834D01*
X181898014Y-171802955D01*
X182354881Y-171885385D01*
X182791205Y-171966256D01*
X182826333Y-171972892D01*
X183378650Y-172071053D01*
X184069047Y-172183586D01*
X184867296Y-172306280D01*
X185743165Y-172434923D01*
X186666425Y-172565301D01*
X187606847Y-172693202D01*
X188534201Y-172814414D01*
X189418256Y-172924726D01*
X190228783Y-173019923D01*
X190742666Y-173075989D01*
X191894913Y-173192925D01*
X192961841Y-173292429D01*
X193970542Y-173375765D01*
X194948110Y-173444196D01*
X195921639Y-173498987D01*
X196918221Y-173541400D01*
X197964950Y-173572700D01*
X199088919Y-173594149D01*
X200317222Y-173607012D01*
X201676951Y-173612551D01*
X202257333Y-173613000D01*
X203516328Y-173611169D01*
X204629169Y-173605169D01*
X205619001Y-173594243D01*
X206508970Y-173577629D01*
X207322220Y-173554571D01*
X208081897Y-173524307D01*
X208811146Y-173486080D01*
X209533111Y-173439130D01*
X210270938Y-173382698D01*
X210893333Y-173329760D01*
X211470521Y-173278800D01*
X212084244Y-173224573D01*
X212674277Y-173172402D01*
X213180392Y-173127613D01*
X213348666Y-173112707D01*
X213777260Y-173070162D01*
X214171858Y-173022801D01*
X214485923Y-172976701D01*
X214661000Y-172941382D01*
X214885858Y-172893430D01*
X215216315Y-172839188D01*
X215589428Y-172788749D01*
X215677000Y-172778482D01*
X216123407Y-172722592D01*
X216634328Y-172650758D01*
X217107691Y-172577417D01*
X217158666Y-172568941D01*
X217562496Y-172501970D01*
X218063276Y-172420132D01*
X218590677Y-172334870D01*
X218979000Y-172272760D01*
X219618630Y-172167298D01*
X220189063Y-172065869D01*
X220666485Y-171973130D01*
X221027086Y-171893739D01*
X221247056Y-171832355D01*
X221265000Y-171825573D01*
X221420269Y-171784921D01*
X221671396Y-171739137D01*
X221815333Y-171718063D01*
X222078369Y-171671256D01*
X222274148Y-171615427D01*
X222328909Y-171587314D01*
X222457189Y-171538206D01*
X222696156Y-171487588D01*
X222921576Y-171455420D01*
X223196189Y-171415608D01*
X223395509Y-171371284D01*
X223466333Y-171339619D01*
X223567115Y-171289917D01*
X223778108Y-171226762D01*
X223932000Y-171190381D01*
X224273497Y-171110400D01*
X224655865Y-171011728D01*
X224821000Y-170965948D01*
X225114255Y-170891235D01*
X225367502Y-170842422D01*
X225477166Y-170831671D01*
X225625938Y-170803064D01*
X225667666Y-170756907D01*
X225743568Y-170704824D01*
X225937702Y-170652359D01*
X226091000Y-170626991D01*
X226332151Y-170581272D01*
X226485462Y-170525820D01*
X226514333Y-170494271D01*
X226589701Y-170437391D01*
X226780478Y-170381374D01*
X226895333Y-170360574D01*
X227122117Y-170312299D01*
X227258516Y-170255732D01*
X227276333Y-170231302D01*
X227352229Y-170180145D01*
X227546350Y-170128269D01*
X227699666Y-170103008D01*
X227940784Y-170058488D01*
X228094099Y-170006090D01*
X228123000Y-169976928D01*
X228196955Y-169917026D01*
X228379039Y-169859648D01*
X228420268Y-169851238D01*
X228629104Y-169796734D01*
X228752528Y-169735992D01*
X228759378Y-169727768D01*
X228862443Y-169672034D01*
X229067825Y-169616366D01*
X229139443Y-169602925D01*
X229350861Y-169550881D01*
X229468815Y-169490152D01*
X229477666Y-169471877D01*
X229553535Y-169417472D01*
X229750974Y-169349934D01*
X229985666Y-169293046D01*
X230251822Y-169228537D01*
X230435735Y-169165735D01*
X230493666Y-169124230D01*
X230567566Y-169068266D01*
X230749453Y-169012954D01*
X230790000Y-169004747D01*
X230985304Y-168951013D01*
X231083563Y-168890509D01*
X231086333Y-168880637D01*
X231159237Y-168816700D01*
X231335136Y-168757489D01*
X231340333Y-168756333D01*
X231517998Y-168697574D01*
X231594280Y-168633201D01*
X231594333Y-168631784D01*
X231666671Y-168565172D01*
X231827166Y-168508588D01*
X232041408Y-168440272D01*
X232296115Y-168335253D01*
X232529244Y-168221851D01*
X232678752Y-168128389D01*
X232695000Y-168112435D01*
X232795603Y-168056584D01*
X232996104Y-167978794D01*
X233076000Y-167952000D01*
X233296257Y-167872739D01*
X233437857Y-167806473D01*
X233457000Y-167791564D01*
X233545032Y-167735037D01*
X233752906Y-167619491D01*
X234049176Y-167461972D01*
X234388333Y-167286700D01*
X234740124Y-167104043D01*
X235033701Y-166945680D01*
X235237573Y-166829002D01*
X235319666Y-166772348D01*
X235412472Y-166706698D01*
X235614150Y-166593945D01*
X235870000Y-166463981D01*
X236140248Y-166321854D01*
X236348716Y-166193100D01*
X236445707Y-166110500D01*
X236581890Y-166013406D01*
X236636207Y-166004666D01*
X236746152Y-165957591D01*
X236759000Y-165920000D01*
X236827576Y-165844885D01*
X236886000Y-165835333D01*
X236980800Y-165814886D01*
X236994313Y-165744488D01*
X236917087Y-165610556D01*
X236739672Y-165399506D01*
X236452616Y-165097754D01*
X236187500Y-164831366D01*
X235764159Y-164403997D01*
X235338201Y-163962199D01*
X234928939Y-163527141D01*
X234555688Y-163119991D01*
X234237761Y-162761918D01*
X233994473Y-162474091D01*
X233845136Y-162277677D01*
X233819389Y-162235839D01*
X233691039Y-162069492D01*
X233586556Y-161995696D01*
X233472730Y-161903865D01*
X233457000Y-161854065D01*
X233403279Y-161740345D01*
X233268346Y-161563949D01*
X233203391Y-161491574D01*
X233048358Y-161312090D01*
X232958438Y-161180751D01*
X232949391Y-161153457D01*
X232894052Y-161052701D01*
X232761075Y-160903299D01*
X232757136Y-160899457D01*
X232596836Y-160717842D01*
X232405652Y-160466390D01*
X232312875Y-160332000D01*
X232158578Y-160108785D01*
X232035131Y-159947319D01*
X231989081Y-159898937D01*
X231884970Y-159776111D01*
X231757177Y-159568931D01*
X231648569Y-159348753D01*
X231629676Y-159300690D01*
X231522741Y-159152594D01*
X231458990Y-159112847D01*
X231351777Y-159002629D01*
X231340333Y-158946715D01*
X231271990Y-158813613D01*
X231213333Y-158777382D01*
X231100702Y-158664231D01*
X231086333Y-158598990D01*
X231045756Y-158484560D01*
X231009949Y-158469333D01*
X230927133Y-158399559D01*
X230838726Y-158236500D01*
X230717784Y-157974317D01*
X230576530Y-157716124D01*
X230447239Y-157517728D01*
X230380176Y-157443604D01*
X230275134Y-157319412D01*
X230146967Y-157110373D01*
X230038210Y-156887722D01*
X230019478Y-156839500D01*
X229943009Y-156714825D01*
X229897852Y-156691333D01*
X229833736Y-156618567D01*
X229775553Y-156444406D01*
X229702513Y-156253776D01*
X229610387Y-156154911D01*
X229510761Y-156048552D01*
X229439515Y-155873519D01*
X229378263Y-155686807D01*
X229322787Y-155591514D01*
X229208359Y-155455379D01*
X229068076Y-155223177D01*
X228948030Y-154976833D01*
X228859450Y-154811805D01*
X228788498Y-154744000D01*
X228730993Y-154671182D01*
X228674546Y-154495459D01*
X228673333Y-154490000D01*
X228613859Y-154312312D01*
X228547780Y-154236051D01*
X228546333Y-154236000D01*
X228480498Y-154163071D01*
X228420472Y-153987121D01*
X228419333Y-153982000D01*
X228357896Y-153804250D01*
X228287132Y-153728047D01*
X228285606Y-153728000D01*
X228213020Y-153661078D01*
X228207666Y-153622893D01*
X228171964Y-153510596D01*
X228074446Y-153279477D01*
X227929494Y-152961933D01*
X227751490Y-152590362D01*
X227728450Y-152543393D01*
X227525525Y-152127382D01*
X227331220Y-151723046D01*
X227168092Y-151377683D01*
X227061826Y-151145666D01*
X226913030Y-150816064D01*
X226741049Y-150444193D01*
X226652042Y-150255451D01*
X226531751Y-149972609D01*
X226451001Y-149724742D01*
X226429666Y-149599284D01*
X226401134Y-149451161D01*
X226354422Y-149410000D01*
X226290940Y-149336022D01*
X226231845Y-149153968D01*
X226223586Y-149113666D01*
X226166740Y-148918268D01*
X226098638Y-148820067D01*
X226087163Y-148817333D01*
X226018349Y-148747381D01*
X226005811Y-148669166D01*
X225967387Y-148489430D01*
X225881977Y-148284590D01*
X225776958Y-148026276D01*
X225703742Y-147755423D01*
X225650077Y-147561528D01*
X225589490Y-147465053D01*
X225580304Y-147462666D01*
X225518173Y-147389330D01*
X225458099Y-147210465D01*
X225452950Y-147187500D01*
X225393383Y-146971828D01*
X225330612Y-146830293D01*
X225328648Y-146827666D01*
X225275869Y-146703508D01*
X225207395Y-146470452D01*
X225155618Y-146256166D01*
X225087364Y-145996532D01*
X225020100Y-145819918D01*
X224977860Y-145769333D01*
X224922038Y-145694565D01*
X224867671Y-145507682D01*
X224853512Y-145430666D01*
X224805016Y-145219044D01*
X224749491Y-145100907D01*
X224732954Y-145092000D01*
X224678841Y-145017332D01*
X224624148Y-144830701D01*
X224609408Y-144753777D01*
X224557553Y-144530215D01*
X224498615Y-144389060D01*
X224482898Y-144372682D01*
X224432355Y-144270548D01*
X224380077Y-144057294D01*
X224355320Y-143906572D01*
X224309753Y-143665537D01*
X224256913Y-143512254D01*
X224227830Y-143483333D01*
X224171913Y-143408649D01*
X224116212Y-143221982D01*
X224101408Y-143145110D01*
X224048228Y-142920516D01*
X223986119Y-142777496D01*
X223969420Y-142760630D01*
X223915885Y-142656256D01*
X223862588Y-142441568D01*
X223838880Y-142294520D01*
X223795106Y-142054558D01*
X223744426Y-141902589D01*
X223717075Y-141874666D01*
X223671678Y-141797896D01*
X223613994Y-141595719D01*
X223555853Y-141310335D01*
X223551050Y-141282300D01*
X223491447Y-140982907D01*
X223428993Y-140754581D01*
X223376646Y-140644180D01*
X223374067Y-140642303D01*
X223315123Y-140529893D01*
X223297000Y-140382184D01*
X223297000Y-140169696D01*
X222598500Y-140228681D01*
X222258144Y-140263703D01*
X221974355Y-140304349D01*
X221796584Y-140343200D01*
X221773000Y-140352511D01*
X221637685Y-140385478D01*
X221376541Y-140421611D01*
X221032859Y-140455551D01*
X220799333Y-140473011D01*
X220387517Y-140505944D01*
X219993662Y-140547538D01*
X219678531Y-140590974D01*
X219571666Y-140610778D01*
X219263138Y-140658940D01*
X218807541Y-140704935D01*
X218227133Y-140748164D01*
X217544171Y-140788029D01*
X216780913Y-140823930D01*
X215959616Y-140855270D01*
X215102537Y-140881449D01*
X214231935Y-140901869D01*
X213370066Y-140915931D01*
X212539187Y-140923037D01*
X211761557Y-140922587D01*
X211059433Y-140913984D01*
X210455071Y-140896628D01*
X209970731Y-140869921D01*
X209962000Y-140869255D01*
X209412463Y-140828216D01*
X208770382Y-140782090D01*
X208112219Y-140736275D01*
X207514438Y-140696172D01*
X207464333Y-140692905D01*
X206666772Y-140638606D01*
X205935739Y-140584031D01*
X205290935Y-140530915D01*
X204752057Y-140480994D01*
X204338805Y-140436004D01*
X204070877Y-140397681D01*
X204035333Y-140390731D01*
X203802011Y-140349176D01*
X203424641Y-140291634D01*
X202927405Y-140221420D01*
X202334484Y-140141851D01*
X201670060Y-140056243D01*
X200958314Y-139967911D01*
X200902666Y-139961143D01*
X200491157Y-139905856D01*
X200145187Y-139849300D01*
X199897003Y-139797496D01*
X199778854Y-139756462D01*
X199773777Y-139750407D01*
X199679160Y-139699484D01*
X199481881Y-139672482D01*
X199435111Y-139671313D01*
X199137751Y-139646301D01*
X198821001Y-139587806D01*
X198786000Y-139578854D01*
X198515700Y-139513587D01*
X198166148Y-139438131D01*
X197897000Y-139384904D01*
X197593548Y-139323385D01*
X197346485Y-139265324D01*
X197219666Y-139226962D01*
X197065379Y-139179548D01*
X196815780Y-139120163D01*
X196669333Y-139089928D01*
X196148344Y-138981037D01*
X195717645Y-138876499D01*
X195408581Y-138784238D01*
X195314666Y-138747554D01*
X195144559Y-138693013D01*
X194870706Y-138626971D01*
X194595000Y-138571776D01*
X194299804Y-138511033D01*
X194069479Y-138450329D01*
X193960000Y-138406055D01*
X193830716Y-138355427D01*
X193600185Y-138302793D01*
X193473166Y-138281825D01*
X193239147Y-138234415D01*
X193094136Y-138178961D01*
X193071000Y-138151587D01*
X192996301Y-138093940D01*
X192809600Y-138037274D01*
X192732777Y-138022408D01*
X192507719Y-137968632D01*
X192363861Y-137905098D01*
X192346780Y-137887966D01*
X192235089Y-137830617D01*
X192068842Y-137810666D01*
X191826250Y-137766000D01*
X191667348Y-137690662D01*
X191467002Y-137593374D01*
X191208097Y-137516917D01*
X191182842Y-137511906D01*
X190981002Y-137457225D01*
X190874562Y-137395588D01*
X190869666Y-137382171D01*
X190793696Y-137329999D01*
X190596015Y-137265406D01*
X190361666Y-137211245D01*
X190095293Y-137148833D01*
X189911358Y-137086610D01*
X189853666Y-137044378D01*
X189780777Y-136981562D01*
X189604908Y-136922832D01*
X189599666Y-136921666D01*
X189422003Y-136862979D01*
X189345719Y-136798775D01*
X189345666Y-136797362D01*
X189271734Y-136738335D01*
X189089778Y-136681480D01*
X189049333Y-136673252D01*
X188854006Y-136618789D01*
X188755761Y-136556501D01*
X188753000Y-136546252D01*
X188679048Y-136485311D01*
X188497049Y-136427494D01*
X188456666Y-136419252D01*
X188261319Y-136364107D01*
X188163086Y-136300158D01*
X188160333Y-136289557D01*
X188087378Y-136221686D01*
X187911375Y-136160788D01*
X187906333Y-136159666D01*
X187728645Y-136100193D01*
X187652384Y-136034113D01*
X187652333Y-136032666D01*
X187579404Y-135966831D01*
X187403455Y-135906805D01*
X187398333Y-135905666D01*
X187188349Y-135841138D01*
X187132270Y-135781777D01*
X187214711Y-135736472D01*
X187420285Y-135714113D01*
X187715833Y-135722237D01*
X187998966Y-135742061D01*
X188407128Y-135769253D01*
X188896323Y-135800949D01*
X189422557Y-135834284D01*
X189726666Y-135853194D01*
X190256586Y-135888855D01*
X190777060Y-135929138D01*
X191243360Y-135970214D01*
X191610762Y-136008257D01*
X191758666Y-136027100D01*
X192087475Y-136065379D01*
X192524532Y-136103929D01*
X193008832Y-136137866D01*
X193409666Y-136159328D01*
X193886334Y-136185238D01*
X194367293Y-136219336D01*
X194791540Y-136256878D01*
X195060666Y-136287769D01*
X195230292Y-136309400D01*
X195428230Y-136330998D01*
X195668796Y-136353556D01*
X195966307Y-136378071D01*
X196335079Y-136405537D01*
X196789429Y-136436949D01*
X197343671Y-136473303D01*
X198012123Y-136515594D01*
X198809101Y-136564817D01*
X199748921Y-136621967D01*
X200648666Y-136676191D01*
X201888237Y-136741607D01*
X203231227Y-136796212D01*
X204637135Y-136839262D01*
X206065457Y-136870016D01*
X207475692Y-136887730D01*
X208827337Y-136891661D01*
X210079889Y-136881065D01*
X210893333Y-136864141D01*
X212620311Y-136800551D01*
X214205870Y-136706095D01*
X215675495Y-136578479D01*
X217054672Y-136415411D01*
X218368886Y-136214598D01*
X218640333Y-136167180D01*
X219070793Y-136090717D01*
X219530172Y-136009719D01*
X219924720Y-135940711D01*
X219952666Y-135935858D01*
X220250936Y-135877389D01*
X220477363Y-135820446D01*
X220585749Y-135776761D01*
X220587666Y-135774580D01*
X220685179Y-135736863D01*
X220909809Y-135685757D01*
X221220793Y-135629996D01*
X221370833Y-135606774D01*
X221700064Y-135551554D01*
X221954123Y-135496353D01*
X222095159Y-135449982D01*
X222111666Y-135434312D01*
X222187495Y-135387962D01*
X222381459Y-135338435D01*
X222535000Y-135313000D01*
X222776046Y-135268057D01*
X222929368Y-135216811D01*
X222958333Y-135188962D01*
X223034207Y-135141415D01*
X223228275Y-135091835D01*
X223381666Y-135066991D01*
X223622843Y-135020335D01*
X223776152Y-134962496D01*
X223805000Y-134929083D01*
X223874941Y-134859492D01*
X223953166Y-134846811D01*
X224132902Y-134808387D01*
X224337742Y-134722977D01*
X224596056Y-134617958D01*
X224866909Y-134544742D01*
X225060770Y-134492169D01*
X225157267Y-134434244D01*
X225159666Y-134425580D01*
X225233416Y-134367058D01*
X225420535Y-134291592D01*
X225540666Y-134254666D01*
X225765405Y-134177468D01*
X225902240Y-134102940D01*
X225921666Y-134074329D01*
X225992456Y-134013855D01*
X226086003Y-134000666D01*
X226250147Y-133969973D01*
X226275757Y-133871977D01*
X226161258Y-133697802D01*
X226002826Y-133531575D01*
X225817921Y-133339791D01*
X225696194Y-133192004D01*
X225667666Y-133137087D01*
X225610923Y-133048884D01*
X225461894Y-132881156D01*
X225252378Y-132669602D01*
X225244333Y-132661835D01*
X225033389Y-132450146D01*
X224881726Y-132281988D01*
X224821084Y-132192637D01*
X224821000Y-132191306D01*
X224767925Y-132096538D01*
X224634429Y-131931994D01*
X224567391Y-131858241D01*
X224412318Y-131678407D01*
X224322411Y-131546312D01*
X224313391Y-131518700D01*
X224254027Y-131424933D01*
X224107014Y-131277692D01*
X224057935Y-131235111D01*
X223874485Y-131048036D01*
X223656827Y-130779949D01*
X223488125Y-130542078D01*
X223319966Y-130296269D01*
X223183186Y-130114018D01*
X223108190Y-130035444D01*
X223048162Y-129937987D01*
X223043000Y-129890256D01*
X222975962Y-129761328D01*
X222873666Y-129682666D01*
X222739622Y-129577564D01*
X222704333Y-129506659D01*
X222651315Y-129392723D01*
X222521181Y-129224378D01*
X222496033Y-129196633D01*
X222317827Y-128961310D01*
X222183505Y-128713495D01*
X222078553Y-128512882D01*
X221970373Y-128388483D01*
X221968471Y-128387292D01*
X221868024Y-128260054D01*
X221857666Y-128205851D01*
X221789450Y-128078940D01*
X221730666Y-128043382D01*
X221618036Y-127930231D01*
X221603666Y-127864990D01*
X221559606Y-127750611D01*
X221520613Y-127735333D01*
X221439717Y-127663639D01*
X221385972Y-127529792D01*
X221302311Y-127354172D01*
X221215025Y-127278450D01*
X221107718Y-127164223D01*
X221095666Y-127102990D01*
X221054122Y-126988574D01*
X221017434Y-126973333D01*
X220942585Y-126903129D01*
X220824270Y-126719873D01*
X220699934Y-126486500D01*
X220569857Y-126228209D01*
X220467324Y-126036213D01*
X220418333Y-125957333D01*
X220303099Y-125802099D01*
X220164836Y-125563958D01*
X220058030Y-125343500D01*
X219969205Y-125178456D01*
X219897710Y-125110666D01*
X219828752Y-125041567D01*
X219718820Y-124865040D01*
X219647265Y-124729666D01*
X219525560Y-124511322D01*
X219424387Y-124373483D01*
X219387325Y-124348666D01*
X219320302Y-124283153D01*
X219317666Y-124258670D01*
X219282357Y-124129950D01*
X219193156Y-123919598D01*
X219075151Y-123677081D01*
X218953429Y-123451869D01*
X218853079Y-123293431D01*
X218805106Y-123248000D01*
X218742401Y-123175957D01*
X218685132Y-123016014D01*
X218624062Y-122831929D01*
X218569917Y-122740848D01*
X218509507Y-122651429D01*
X218392338Y-122445012D01*
X218237491Y-122155997D01*
X218123384Y-121935666D01*
X217927793Y-121557325D01*
X217732219Y-121186164D01*
X217567542Y-120880524D01*
X217509754Y-120776373D01*
X217381808Y-120518133D01*
X217300684Y-120294040D01*
X217285666Y-120204873D01*
X217254815Y-120064611D01*
X217210178Y-120030666D01*
X217137456Y-119958467D01*
X217076465Y-119798681D01*
X217013808Y-119614523D01*
X216956422Y-119523514D01*
X216881850Y-119421933D01*
X216761802Y-119208911D01*
X216617868Y-118928493D01*
X216471638Y-118624725D01*
X216344705Y-118341651D01*
X216258659Y-118123316D01*
X216240068Y-118062166D01*
X216172149Y-117893907D01*
X216098720Y-117829333D01*
X216026894Y-117759962D01*
X216015666Y-117690440D01*
X215979853Y-117542630D01*
X215890737Y-117312051D01*
X215775804Y-117059151D01*
X215662540Y-116844379D01*
X215578433Y-116728183D01*
X215577957Y-116727818D01*
X215518077Y-116621791D01*
X215460655Y-116443840D01*
X215383686Y-116222570D01*
X215259661Y-115944003D01*
X215199943Y-115826374D01*
X215083991Y-115591744D01*
X215011687Y-115413574D01*
X214999666Y-115360649D01*
X214963995Y-115240305D01*
X214872198Y-115025200D01*
X214788000Y-114850172D01*
X214669299Y-114586941D01*
X214592496Y-114364981D01*
X214576333Y-114273432D01*
X214544720Y-114128566D01*
X214509129Y-114089888D01*
X214437643Y-113998181D01*
X214335565Y-113799856D01*
X214225827Y-113548949D01*
X214131356Y-113299494D01*
X214075084Y-113105528D01*
X214068333Y-113051137D01*
X214024267Y-112934998D01*
X213983666Y-112918666D01*
X213903400Y-112852765D01*
X213899000Y-112822106D01*
X213865708Y-112693863D01*
X213780858Y-112474483D01*
X213719527Y-112335273D01*
X213552550Y-111975375D01*
X213429814Y-111740706D01*
X213322960Y-111603517D01*
X213203624Y-111536058D01*
X213043444Y-111510580D01*
X212867676Y-111501814D01*
X212106901Y-111466399D01*
X211385761Y-111429253D01*
X210723177Y-111391630D01*
X210138072Y-111354778D01*
X209649367Y-111319951D01*
X209275984Y-111288399D01*
X209036844Y-111261374D01*
X208953338Y-111242950D01*
X208830526Y-111203122D01*
X208586877Y-111151012D01*
X208269443Y-111096375D01*
X208184000Y-111083454D01*
X207654136Y-111001097D01*
X207150401Y-110914605D01*
X206700243Y-110829495D01*
X206331109Y-110751288D01*
X206070447Y-110685504D01*
X205945703Y-110637662D01*
X205940333Y-110632257D01*
X205837485Y-110580317D01*
X205629874Y-110525735D01*
X205538166Y-110508593D01*
X205318922Y-110455851D01*
X205191444Y-110394039D01*
X205178333Y-110371224D01*
X205105824Y-110313189D01*
X204966359Y-110293999D01*
X204755530Y-110254073D01*
X204498649Y-110155084D01*
X204438446Y-110124666D01*
X204204209Y-110017370D01*
X204010399Y-109958928D01*
X203973087Y-109955333D01*
X203846644Y-109919943D01*
X203823666Y-109879845D01*
X203751467Y-109807123D01*
X203591681Y-109746132D01*
X203407598Y-109685128D01*
X203316514Y-109631120D01*
X203223601Y-109566978D01*
X203022303Y-109454188D01*
X202765333Y-109321781D01*
X202470116Y-109160080D01*
X202213143Y-108993487D01*
X202070876Y-108877281D01*
X201923889Y-108743307D01*
X201826956Y-108685392D01*
X201825429Y-108685333D01*
X201725959Y-108626130D01*
X201568655Y-108480848D01*
X201398467Y-108297979D01*
X201260344Y-108126016D01*
X201199236Y-108013450D01*
X201199000Y-108009539D01*
X201131619Y-107901204D01*
X201080343Y-107872485D01*
X200960878Y-107759266D01*
X200919278Y-107664786D01*
X200914706Y-107630909D01*
X200928486Y-107602017D01*
X200973205Y-107577636D01*
X201061450Y-107557289D01*
X201205810Y-107540502D01*
X201418871Y-107526800D01*
X201713221Y-107515708D01*
X202101447Y-107506750D01*
X202596137Y-107499453D01*
X203209878Y-107493341D01*
X203955258Y-107487939D01*
X204844863Y-107482772D01*
X205885102Y-107477396D01*
X207280404Y-107467759D01*
X208512974Y-107453555D01*
X209589356Y-107434504D01*
X210516096Y-107410323D01*
X211299742Y-107380731D01*
X211946838Y-107345446D01*
X212463931Y-107304186D01*
X212857566Y-107256670D01*
X213134290Y-107202615D01*
X213264000Y-107159845D01*
X213442627Y-107108029D01*
X213715548Y-107055628D01*
X213899000Y-107029594D01*
X214172599Y-106987190D01*
X214378739Y-106938566D01*
X214449333Y-106908892D01*
X214582586Y-106853278D01*
X214805826Y-106796420D01*
X214863878Y-106785214D01*
X215133200Y-106713344D01*
X215360800Y-106615248D01*
X215384201Y-106600897D01*
X215510529Y-106492525D01*
X215524523Y-106363781D01*
X215480261Y-106226056D01*
X215398100Y-106052632D01*
X215328826Y-105976180D01*
X215326498Y-105975999D01*
X215268993Y-105903182D01*
X215212546Y-105727459D01*
X215211333Y-105722000D01*
X215154564Y-105544399D01*
X215094937Y-105468056D01*
X215093612Y-105468000D01*
X215039546Y-105393521D01*
X214968175Y-105202665D01*
X214923182Y-105044666D01*
X214849536Y-104805490D01*
X214778564Y-104652005D01*
X214744569Y-104621333D01*
X214679507Y-104548414D01*
X214619812Y-104372485D01*
X214618666Y-104367333D01*
X214558349Y-104189618D01*
X214490257Y-104113383D01*
X214488775Y-104113333D01*
X214426049Y-104039363D01*
X214367334Y-103857326D01*
X214359080Y-103817000D01*
X214305347Y-103621695D01*
X214244842Y-103523436D01*
X214234971Y-103520666D01*
X214171034Y-103447762D01*
X214111822Y-103271863D01*
X214110666Y-103266666D01*
X214051193Y-103088978D01*
X213985113Y-103012717D01*
X213983666Y-103012666D01*
X213917831Y-102939737D01*
X213857805Y-102763788D01*
X213856666Y-102758666D01*
X213797193Y-102580978D01*
X213731113Y-102504717D01*
X213729666Y-102504666D01*
X213663831Y-102431737D01*
X213603805Y-102255788D01*
X213602666Y-102250666D01*
X213545897Y-102073066D01*
X213486271Y-101996723D01*
X213484945Y-101996666D01*
X213430879Y-101922188D01*
X213359509Y-101731332D01*
X213314515Y-101573333D01*
X213241312Y-101334185D01*
X213171452Y-101180697D01*
X213138354Y-101149999D01*
X213071338Y-101077888D01*
X213012465Y-100918014D01*
X212949957Y-100733863D01*
X212892878Y-100642848D01*
X212798263Y-100521984D01*
X212678841Y-100303257D01*
X212563660Y-100049347D01*
X212481768Y-99822932D01*
X212459666Y-99708059D01*
X212427574Y-99571842D01*
X212384178Y-99541333D01*
X212310577Y-99469347D01*
X212252998Y-99319438D01*
X212164827Y-99102782D01*
X212074526Y-98974764D01*
X211981425Y-98813513D01*
X211908219Y-98572072D01*
X211898552Y-98519325D01*
X211849998Y-98309910D01*
X211793961Y-98194501D01*
X211778239Y-98186666D01*
X211715286Y-98113775D01*
X211656497Y-97937903D01*
X211655333Y-97932666D01*
X211598648Y-97755069D01*
X211539221Y-97678723D01*
X211537900Y-97678666D01*
X211467457Y-97606247D01*
X211367988Y-97421939D01*
X211261964Y-97175165D01*
X211171856Y-96915349D01*
X211143332Y-96810833D01*
X211081051Y-96642646D01*
X211017881Y-96577999D01*
X210953772Y-96505093D01*
X210894487Y-96329190D01*
X210893333Y-96323999D01*
X210834646Y-96146337D01*
X210770442Y-96070052D01*
X210769028Y-96069999D01*
X210710001Y-95996068D01*
X210653147Y-95814112D01*
X210644919Y-95773666D01*
X210590208Y-95578332D01*
X210527318Y-95480091D01*
X210516941Y-95477333D01*
X210458040Y-95402540D01*
X210385841Y-95210960D01*
X210343000Y-95054000D01*
X210273268Y-94814491D01*
X210205011Y-94661032D01*
X210171949Y-94630666D01*
X210109150Y-94557321D01*
X210048763Y-94378439D01*
X210043617Y-94355500D01*
X209984151Y-94139833D01*
X209921623Y-93998297D01*
X209919666Y-93995666D01*
X209857612Y-93858556D01*
X209797489Y-93644030D01*
X209795716Y-93635833D01*
X209737567Y-93449286D01*
X209674284Y-93361623D01*
X209668362Y-93360666D01*
X209609335Y-93286734D01*
X209552480Y-93104778D01*
X209544252Y-93064333D01*
X209487407Y-92868935D01*
X209419304Y-92770734D01*
X209407830Y-92768000D01*
X209337388Y-92698815D01*
X209327000Y-92632628D01*
X209294661Y-92463828D01*
X209216387Y-92240969D01*
X209211898Y-92230462D01*
X209059765Y-91870672D01*
X208966197Y-91627040D01*
X208918457Y-91462135D01*
X208903806Y-91338527D01*
X208903666Y-91324682D01*
X208870598Y-91189231D01*
X208826442Y-91159333D01*
X208766462Y-91084403D01*
X208707378Y-90896127D01*
X208689257Y-90804434D01*
X208624786Y-90553339D01*
X208537981Y-90364626D01*
X208512482Y-90332720D01*
X208419599Y-90158548D01*
X208395666Y-90010285D01*
X208367720Y-89854059D01*
X208316187Y-89804666D01*
X208257566Y-89729285D01*
X208200501Y-89538481D01*
X208179574Y-89423666D01*
X208132202Y-89196909D01*
X208077908Y-89060504D01*
X208054828Y-89042666D01*
X207999958Y-88967992D01*
X207944842Y-88781345D01*
X207930074Y-88704443D01*
X207878220Y-88480881D01*
X207819281Y-88339727D01*
X207803564Y-88323349D01*
X207753022Y-88221215D01*
X207700744Y-88007961D01*
X207675986Y-87857238D01*
X207630457Y-87616205D01*
X207577713Y-87462921D01*
X207548704Y-87434000D01*
X207501849Y-87357218D01*
X207443103Y-87155013D01*
X207384510Y-86869595D01*
X207379717Y-86841633D01*
X207320114Y-86542241D01*
X207257660Y-86313914D01*
X207205313Y-86203514D01*
X207202734Y-86201636D01*
X207136601Y-86085929D01*
X207125666Y-86000699D01*
X207100764Y-85842970D01*
X207035872Y-85584394D01*
X206956333Y-85317333D01*
X206848395Y-84960171D01*
X206799927Y-84733502D01*
X206810242Y-84609533D01*
X206878652Y-84560470D01*
X206937479Y-84555333D01*
X207077041Y-84615878D01*
D11*
X204206557Y-174579982D02*
X204349414Y-174627601D01*
X204587510Y-174627601D01*
X204682748Y-174579982D01*
X204730367Y-174532363D01*
X204777986Y-174437125D01*
X204777986Y-174341887D01*
X204730367Y-174246649D01*
X204682748Y-174199030D01*
X204587510Y-174151410D01*
X204397033Y-174103791D01*
X204301795Y-174056172D01*
X204254176Y-174008553D01*
X204206557Y-173913315D01*
X204206557Y-173818077D01*
X204254176Y-173722839D01*
X204301795Y-173675220D01*
X204397033Y-173627601D01*
X204635129Y-173627601D01*
X204777986Y-173675220D01*
X205111319Y-173627601D02*
X205349414Y-174627601D01*
X205539891Y-173913315D01*
X205730367Y-174627601D01*
X205968462Y-173627601D01*
X206873224Y-174627601D02*
X206301795Y-174627601D01*
X206587509Y-174627601D02*
X206587509Y-173627601D01*
X206492271Y-173770458D01*
X206397033Y-173865696D01*
X206301795Y-173913315D01*
M02*
