G04 #@! TF.FileFunction,Legend,Bot*
%FSLAX46Y46*%
G04 Gerber Fmt 4.6, Leading zero omitted, Abs format (unit mm)*
G04 Created by KiCad (PCBNEW 4.0.4-stable) date 12/07/16 00:48:56*
%MOMM*%
%LPD*%
G01*
G04 APERTURE LIST*
%ADD10C,0.100000*%
%ADD11C,0.127000*%
%ADD12C,0.150000*%
%ADD13C,0.203200*%
%ADD14C,0.152400*%
%ADD15C,0.125000*%
G04 APERTURE END LIST*
D10*
D11*
X190988000Y-153379000D02*
X192512000Y-153379000D01*
X192893000Y-153506000D02*
X190607000Y-153506000D01*
X190353000Y-153633000D02*
X193147000Y-153633000D01*
X193401000Y-153760000D02*
X190099000Y-153760000D01*
X189972000Y-153887000D02*
X193528000Y-153887000D01*
X194798000Y-156300000D02*
G75*
G03X194798000Y-156300000I-3048000J0D01*
G01*
X188448000Y-152998000D02*
X195052000Y-152998000D01*
X195052000Y-152998000D02*
X195052000Y-158840000D01*
X195052000Y-158840000D02*
X194290000Y-159602000D01*
X194290000Y-159602000D02*
X189210000Y-159602000D01*
X189210000Y-159602000D02*
X188448000Y-158840000D01*
X188448000Y-158840000D02*
X188448000Y-152998000D01*
X191750000Y-158459000D02*
X191750000Y-157697000D01*
X191369000Y-158078000D02*
X192131000Y-158078000D01*
X179813000Y-144654000D02*
X181337000Y-144654000D01*
X181718000Y-144781000D02*
X179432000Y-144781000D01*
X179178000Y-144908000D02*
X181972000Y-144908000D01*
X182226000Y-145035000D02*
X178924000Y-145035000D01*
X178797000Y-145162000D02*
X182353000Y-145162000D01*
X183623000Y-147575000D02*
G75*
G03X183623000Y-147575000I-3048000J0D01*
G01*
X177273000Y-144273000D02*
X183877000Y-144273000D01*
X183877000Y-144273000D02*
X183877000Y-150115000D01*
X183877000Y-150115000D02*
X183115000Y-150877000D01*
X183115000Y-150877000D02*
X178035000Y-150877000D01*
X178035000Y-150877000D02*
X177273000Y-150115000D01*
X177273000Y-150115000D02*
X177273000Y-144273000D01*
X180575000Y-149734000D02*
X180575000Y-148972000D01*
X180194000Y-149353000D02*
X180956000Y-149353000D01*
D12*
X190250000Y-173050000D02*
X190750000Y-173050000D01*
X190750000Y-174100000D02*
X190250000Y-174100000D01*
X220975000Y-170600000D02*
X220725000Y-170600000D01*
X221475000Y-170600000D02*
X221725000Y-170600000D01*
X221475000Y-170600000D02*
X220975000Y-170250000D01*
X220975000Y-170250000D02*
X220975000Y-170950000D01*
X220975000Y-170950000D02*
X221475000Y-170600000D01*
X221475000Y-170250000D02*
X221475000Y-170950000D01*
X222525000Y-171400000D02*
X220125000Y-171400000D01*
X222525000Y-169800000D02*
X220125000Y-169800000D01*
D13*
X235246000Y-170266000D02*
X235246000Y-168234000D01*
X235754000Y-168234000D02*
X235754000Y-170266000D01*
X235246000Y-170266000D02*
G75*
G02X234230000Y-169250000I0J1016000D01*
G01*
X234230000Y-169250000D02*
G75*
G02X235246000Y-168234000I1016000J0D01*
G01*
X235754000Y-168234000D02*
G75*
G02X236770000Y-169250000I0J-1016000D01*
G01*
X236770000Y-169250000D02*
G75*
G02X235754000Y-170266000I-1016000J0D01*
G01*
X221479000Y-171859000D02*
X221479000Y-173891000D01*
X220971000Y-173891000D02*
X220971000Y-171859000D01*
X221479000Y-171859000D02*
G75*
G02X222495000Y-172875000I0J-1016000D01*
G01*
X222495000Y-172875000D02*
G75*
G02X221479000Y-173891000I-1016000J0D01*
G01*
X220971000Y-173891000D02*
G75*
G02X219955000Y-172875000I0J1016000D01*
G01*
X219955000Y-172875000D02*
G75*
G02X220971000Y-171859000I1016000J0D01*
G01*
D12*
X191000000Y-126300000D02*
X191000000Y-133900000D01*
X179600000Y-133900000D02*
X179600000Y-126300000D01*
X191000000Y-133900000D02*
X179600000Y-133900000D01*
X191000000Y-126300000D02*
X179600000Y-126300000D01*
X250062339Y-158630569D02*
G75*
G03X250062339Y-158630569I-250000J0D01*
G01*
X251705224Y-163109142D02*
X246682276Y-166009142D01*
X251707852Y-160913694D02*
X250532852Y-158878534D01*
X250532852Y-158878534D02*
X249753429Y-159328534D01*
X250099839Y-159128534D02*
X250699839Y-160167765D01*
X250699839Y-160167765D02*
X250699839Y-160167765D01*
X250699839Y-160167765D02*
X250099839Y-159128534D01*
X250099839Y-159128534D02*
X250099839Y-159128534D01*
X250349839Y-159561547D02*
X250349839Y-159561547D01*
X250349839Y-159561547D02*
X250782852Y-159311547D01*
X250782852Y-159311547D02*
X250782852Y-159311547D01*
X250782852Y-159311547D02*
X250349839Y-159561547D01*
X250699839Y-160167765D02*
X250699839Y-160167765D01*
X250699839Y-160167765D02*
X251132852Y-159917765D01*
X251132852Y-159917765D02*
X251132852Y-159917765D01*
X251132852Y-159917765D02*
X250699839Y-160167765D01*
X244779648Y-164913694D02*
X243604648Y-162878534D01*
X243604648Y-162878534D02*
X244384071Y-162428534D01*
X244037661Y-162628534D02*
X244637661Y-163667765D01*
X244637661Y-163667765D02*
X244637661Y-163667765D01*
X244637661Y-163667765D02*
X244037661Y-162628534D01*
X244037661Y-162628534D02*
X244037661Y-162628534D01*
X244287661Y-163061547D02*
X244287661Y-163061547D01*
X244287661Y-163061547D02*
X243854648Y-163311547D01*
X243854648Y-163311547D02*
X243854648Y-163311547D01*
X243854648Y-163311547D02*
X244287661Y-163061547D01*
X244637661Y-163667765D02*
X244637661Y-163667765D01*
X244637661Y-163667765D02*
X244204648Y-163917765D01*
X244204648Y-163917765D02*
X244204648Y-163917765D01*
X244204648Y-163917765D02*
X244637661Y-163667765D01*
X190150000Y-164450000D02*
X189650000Y-164450000D01*
X189650000Y-163400000D02*
X190150000Y-163400000D01*
X222000000Y-166350000D02*
X221500000Y-166350000D01*
X221500000Y-165300000D02*
X222000000Y-165300000D01*
X222000000Y-164175000D02*
X221500000Y-164175000D01*
X221500000Y-163125000D02*
X222000000Y-163125000D01*
X228300000Y-170475000D02*
X228300000Y-170975000D01*
X227250000Y-170975000D02*
X227250000Y-170475000D01*
X188300000Y-174100000D02*
X187800000Y-174100000D01*
X187800000Y-173050000D02*
X188300000Y-173050000D01*
X221500000Y-167875000D02*
X222000000Y-167875000D01*
X222000000Y-168925000D02*
X221500000Y-168925000D01*
X227199780Y-160535110D02*
X227199780Y-163035110D01*
X227199780Y-163035110D02*
X228299780Y-163035110D01*
X228299780Y-163035110D02*
X228299780Y-160535110D01*
X228299780Y-160535110D02*
X227199780Y-160535110D01*
X228549780Y-160285110D02*
X228549780Y-163285110D01*
X226949780Y-160285110D02*
X226949780Y-163285110D01*
X226949780Y-163285110D02*
X228549780Y-163285110D01*
X226949780Y-160285110D02*
X228549780Y-160285110D01*
X229499780Y-158785110D02*
X229499780Y-164785110D01*
X225999780Y-158785110D02*
X225999780Y-164785110D01*
X225999780Y-158785110D02*
X229499780Y-158785110D01*
X225999780Y-164785110D02*
X229499780Y-164785110D01*
X183199780Y-161710110D02*
X183199780Y-164210110D01*
X183199780Y-164210110D02*
X184299780Y-164210110D01*
X184299780Y-164210110D02*
X184299780Y-161710110D01*
X184299780Y-161710110D02*
X183199780Y-161710110D01*
X184549780Y-161460110D02*
X184549780Y-164460110D01*
X182949780Y-161460110D02*
X182949780Y-164460110D01*
X182949780Y-164460110D02*
X184549780Y-164460110D01*
X182949780Y-161460110D02*
X184549780Y-161460110D01*
X185499780Y-159960110D02*
X185499780Y-165960110D01*
X181999780Y-159960110D02*
X181999780Y-165960110D01*
X181999780Y-159960110D02*
X185499780Y-159960110D01*
X181999780Y-165960110D02*
X185499780Y-165960110D01*
X224625760Y-143425000D02*
G75*
G03X224625760Y-143425000I-1000760J0D01*
G01*
X229825140Y-143425000D02*
G75*
G03X229825140Y-143425000I-6200140J0D01*
G01*
D14*
X197559000Y-160841000D02*
X197559000Y-160079000D01*
X197559000Y-160079000D02*
X213561000Y-160079000D01*
X213561000Y-160079000D02*
X213561000Y-160841000D01*
D13*
X190284000Y-169446000D02*
X192316000Y-169446000D01*
X192316000Y-169954000D02*
X190284000Y-169954000D01*
X190284000Y-169446000D02*
G75*
G02X191300000Y-168430000I1016000J0D01*
G01*
X191300000Y-168430000D02*
G75*
G02X192316000Y-169446000I0J-1016000D01*
G01*
X192316000Y-169954000D02*
G75*
G02X191300000Y-170970000I-1016000J0D01*
G01*
X191300000Y-170970000D02*
G75*
G02X190284000Y-169954000I0J1016000D01*
G01*
D12*
X197925000Y-91295000D02*
X197925000Y-141295000D01*
X210925000Y-91295000D02*
X197925000Y-91295000D01*
X210925000Y-141295000D02*
X210925000Y-91295000D01*
X197925000Y-141295000D02*
X210925000Y-141295000D01*
D15*
X188178571Y-157916667D02*
X188202381Y-157892857D01*
X188226190Y-157821429D01*
X188226190Y-157773810D01*
X188202381Y-157702381D01*
X188154762Y-157654762D01*
X188107143Y-157630953D01*
X188011905Y-157607143D01*
X187940476Y-157607143D01*
X187845238Y-157630953D01*
X187797619Y-157654762D01*
X187750000Y-157702381D01*
X187726190Y-157773810D01*
X187726190Y-157821429D01*
X187750000Y-157892857D01*
X187773810Y-157916667D01*
X188226190Y-158392857D02*
X188226190Y-158107143D01*
X188226190Y-158250000D02*
X187726190Y-158250000D01*
X187797619Y-158202381D01*
X187845238Y-158154762D01*
X187869048Y-158107143D01*
X177003571Y-149191667D02*
X177027381Y-149167857D01*
X177051190Y-149096429D01*
X177051190Y-149048810D01*
X177027381Y-148977381D01*
X176979762Y-148929762D01*
X176932143Y-148905953D01*
X176836905Y-148882143D01*
X176765476Y-148882143D01*
X176670238Y-148905953D01*
X176622619Y-148929762D01*
X176575000Y-148977381D01*
X176551190Y-149048810D01*
X176551190Y-149096429D01*
X176575000Y-149167857D01*
X176598810Y-149191667D01*
X176598810Y-149382143D02*
X176575000Y-149405953D01*
X176551190Y-149453572D01*
X176551190Y-149572619D01*
X176575000Y-149620238D01*
X176598810Y-149644048D01*
X176646429Y-149667857D01*
X176694048Y-149667857D01*
X176765476Y-149644048D01*
X177051190Y-149358334D01*
X177051190Y-149667857D01*
D12*
X190666666Y-172132143D02*
X190714285Y-172179762D01*
X190857142Y-172227381D01*
X190952380Y-172227381D01*
X191095238Y-172179762D01*
X191190476Y-172084524D01*
X191238095Y-171989286D01*
X191285714Y-171798810D01*
X191285714Y-171655952D01*
X191238095Y-171465476D01*
X191190476Y-171370238D01*
X191095238Y-171275000D01*
X190952380Y-171227381D01*
X190857142Y-171227381D01*
X190714285Y-171275000D01*
X190666666Y-171322619D01*
X190333333Y-171227381D02*
X189714285Y-171227381D01*
X190047619Y-171608333D01*
X189904761Y-171608333D01*
X189809523Y-171655952D01*
X189761904Y-171703571D01*
X189714285Y-171798810D01*
X189714285Y-172036905D01*
X189761904Y-172132143D01*
X189809523Y-172179762D01*
X189904761Y-172227381D01*
X190190476Y-172227381D01*
X190285714Y-172179762D01*
X190333333Y-172132143D01*
X224788095Y-170952381D02*
X224788095Y-169952381D01*
X224550000Y-169952381D01*
X224407142Y-170000000D01*
X224311904Y-170095238D01*
X224264285Y-170190476D01*
X224216666Y-170380952D01*
X224216666Y-170523810D01*
X224264285Y-170714286D01*
X224311904Y-170809524D01*
X224407142Y-170904762D01*
X224550000Y-170952381D01*
X224788095Y-170952381D01*
X223835714Y-170047619D02*
X223788095Y-170000000D01*
X223692857Y-169952381D01*
X223454761Y-169952381D01*
X223359523Y-170000000D01*
X223311904Y-170047619D01*
X223264285Y-170142857D01*
X223264285Y-170238095D01*
X223311904Y-170380952D01*
X223883333Y-170952381D01*
X223264285Y-170952381D01*
D14*
X236134999Y-170737714D02*
X236134999Y-171282000D01*
X236171285Y-171390857D01*
X236243856Y-171463429D01*
X236352713Y-171499714D01*
X236425285Y-171499714D01*
X235772142Y-171499714D02*
X235772142Y-170737714D01*
X235481857Y-170737714D01*
X235409285Y-170774000D01*
X235373000Y-170810286D01*
X235336714Y-170882857D01*
X235336714Y-170991714D01*
X235373000Y-171064286D01*
X235409285Y-171100571D01*
X235481857Y-171136857D01*
X235772142Y-171136857D01*
X235046428Y-170810286D02*
X235010142Y-170774000D01*
X234937571Y-170737714D01*
X234756142Y-170737714D01*
X234683571Y-170774000D01*
X234647285Y-170810286D01*
X234611000Y-170882857D01*
X234611000Y-170955429D01*
X234647285Y-171064286D01*
X235082714Y-171499714D01*
X234611000Y-171499714D01*
X224184999Y-172607714D02*
X224184999Y-173152000D01*
X224221285Y-173260857D01*
X224293856Y-173333429D01*
X224402713Y-173369714D01*
X224475285Y-173369714D01*
X223822142Y-173369714D02*
X223822142Y-172607714D01*
X223531857Y-172607714D01*
X223459285Y-172644000D01*
X223423000Y-172680286D01*
X223386714Y-172752857D01*
X223386714Y-172861714D01*
X223423000Y-172934286D01*
X223459285Y-172970571D01*
X223531857Y-173006857D01*
X223822142Y-173006857D01*
X222733571Y-172861714D02*
X222733571Y-173369714D01*
X222915000Y-172571429D02*
X223096428Y-173115714D01*
X222624714Y-173115714D01*
D12*
X248936714Y-157637751D02*
X248436714Y-156771726D01*
X248106799Y-156962202D01*
X248048130Y-157051060D01*
X248030700Y-157116109D01*
X248037079Y-157222397D01*
X248108508Y-157346115D01*
X248197366Y-157404784D01*
X248262415Y-157422214D01*
X248368703Y-157415834D01*
X248698618Y-157225357D01*
X247653167Y-157224107D02*
X247117055Y-157533631D01*
X247596207Y-157696878D01*
X247472488Y-157768307D01*
X247413819Y-157857165D01*
X247396390Y-157922214D01*
X247402770Y-158028503D01*
X247521817Y-158234699D01*
X247610676Y-158293368D01*
X247675724Y-158310798D01*
X247782012Y-158304418D01*
X248029449Y-158161560D01*
X248088118Y-158072702D01*
X248105548Y-158007653D01*
X190000000Y-165446429D02*
X190200000Y-165160714D01*
X190342857Y-165446429D02*
X190342857Y-164846429D01*
X190114285Y-164846429D01*
X190057143Y-164875000D01*
X190028571Y-164903571D01*
X190000000Y-164960714D01*
X190000000Y-165046429D01*
X190028571Y-165103571D01*
X190057143Y-165132143D01*
X190114285Y-165160714D01*
X190342857Y-165160714D01*
X189428571Y-165446429D02*
X189771428Y-165446429D01*
X189600000Y-165446429D02*
X189600000Y-164846429D01*
X189657143Y-164932143D01*
X189714285Y-164989286D01*
X189771428Y-165017857D01*
X223500000Y-166171429D02*
X223700000Y-165885714D01*
X223842857Y-166171429D02*
X223842857Y-165571429D01*
X223614285Y-165571429D01*
X223557143Y-165600000D01*
X223528571Y-165628571D01*
X223500000Y-165685714D01*
X223500000Y-165771429D01*
X223528571Y-165828571D01*
X223557143Y-165857143D01*
X223614285Y-165885714D01*
X223842857Y-165885714D01*
X223271428Y-165628571D02*
X223242857Y-165600000D01*
X223185714Y-165571429D01*
X223042857Y-165571429D01*
X222985714Y-165600000D01*
X222957143Y-165628571D01*
X222928571Y-165685714D01*
X222928571Y-165742857D01*
X222957143Y-165828571D01*
X223300000Y-166171429D01*
X222928571Y-166171429D01*
X223600000Y-164021429D02*
X223800000Y-163735714D01*
X223942857Y-164021429D02*
X223942857Y-163421429D01*
X223714285Y-163421429D01*
X223657143Y-163450000D01*
X223628571Y-163478571D01*
X223600000Y-163535714D01*
X223600000Y-163621429D01*
X223628571Y-163678571D01*
X223657143Y-163707143D01*
X223714285Y-163735714D01*
X223942857Y-163735714D01*
X223400000Y-163421429D02*
X223028571Y-163421429D01*
X223228571Y-163650000D01*
X223142857Y-163650000D01*
X223085714Y-163678571D01*
X223057143Y-163707143D01*
X223028571Y-163764286D01*
X223028571Y-163907143D01*
X223057143Y-163964286D01*
X223085714Y-163992857D01*
X223142857Y-164021429D01*
X223314285Y-164021429D01*
X223371428Y-163992857D01*
X223400000Y-163964286D01*
X229296429Y-170625000D02*
X229010714Y-170425000D01*
X229296429Y-170282143D02*
X228696429Y-170282143D01*
X228696429Y-170510715D01*
X228725000Y-170567857D01*
X228753571Y-170596429D01*
X228810714Y-170625000D01*
X228896429Y-170625000D01*
X228953571Y-170596429D01*
X228982143Y-170567857D01*
X229010714Y-170510715D01*
X229010714Y-170282143D01*
X228896429Y-171139286D02*
X229296429Y-171139286D01*
X228667857Y-170996429D02*
X229096429Y-170853572D01*
X229096429Y-171225000D01*
X188150000Y-175096429D02*
X188350000Y-174810714D01*
X188492857Y-175096429D02*
X188492857Y-174496429D01*
X188264285Y-174496429D01*
X188207143Y-174525000D01*
X188178571Y-174553571D01*
X188150000Y-174610714D01*
X188150000Y-174696429D01*
X188178571Y-174753571D01*
X188207143Y-174782143D01*
X188264285Y-174810714D01*
X188492857Y-174810714D01*
X187607143Y-174496429D02*
X187892857Y-174496429D01*
X187921428Y-174782143D01*
X187892857Y-174753571D01*
X187835714Y-174725000D01*
X187692857Y-174725000D01*
X187635714Y-174753571D01*
X187607143Y-174782143D01*
X187578571Y-174839286D01*
X187578571Y-174982143D01*
X187607143Y-175039286D01*
X187635714Y-175067857D01*
X187692857Y-175096429D01*
X187835714Y-175096429D01*
X187892857Y-175067857D01*
X187921428Y-175039286D01*
X223525000Y-168696429D02*
X223725000Y-168410714D01*
X223867857Y-168696429D02*
X223867857Y-168096429D01*
X223639285Y-168096429D01*
X223582143Y-168125000D01*
X223553571Y-168153571D01*
X223525000Y-168210714D01*
X223525000Y-168296429D01*
X223553571Y-168353571D01*
X223582143Y-168382143D01*
X223639285Y-168410714D01*
X223867857Y-168410714D01*
X223010714Y-168096429D02*
X223125000Y-168096429D01*
X223182143Y-168125000D01*
X223210714Y-168153571D01*
X223267857Y-168239286D01*
X223296428Y-168353571D01*
X223296428Y-168582143D01*
X223267857Y-168639286D01*
X223239285Y-168667857D01*
X223182143Y-168696429D01*
X223067857Y-168696429D01*
X223010714Y-168667857D01*
X222982143Y-168639286D01*
X222953571Y-168582143D01*
X222953571Y-168439286D01*
X222982143Y-168382143D01*
X223010714Y-168353571D01*
X223067857Y-168325000D01*
X223182143Y-168325000D01*
X223239285Y-168353571D01*
X223267857Y-168382143D01*
X223296428Y-168439286D01*
X216076381Y-142686905D02*
X215076381Y-142686905D01*
X215076381Y-143067858D01*
X215124000Y-143163096D01*
X215171619Y-143210715D01*
X215266857Y-143258334D01*
X215409714Y-143258334D01*
X215504952Y-143210715D01*
X215552571Y-143163096D01*
X215600190Y-143067858D01*
X215600190Y-142686905D01*
X216076381Y-144210715D02*
X216076381Y-143639286D01*
X216076381Y-143925000D02*
X215076381Y-143925000D01*
X215219238Y-143829762D01*
X215314476Y-143734524D01*
X215362095Y-143639286D01*
X221156429Y-139234048D02*
X221156429Y-139995953D01*
X221537381Y-139615001D02*
X220775476Y-139615001D01*
X197336905Y-177152381D02*
X197336905Y-177961905D01*
X197289286Y-178057143D01*
X197241667Y-178104762D01*
X197146429Y-178152381D01*
X196955952Y-178152381D01*
X196860714Y-178104762D01*
X196813095Y-178057143D01*
X196765476Y-177961905D01*
X196765476Y-177152381D01*
X196336905Y-177247619D02*
X196289286Y-177200000D01*
X196194048Y-177152381D01*
X195955952Y-177152381D01*
X195860714Y-177200000D01*
X195813095Y-177247619D01*
X195765476Y-177342857D01*
X195765476Y-177438095D01*
X195813095Y-177580952D01*
X196384524Y-178152381D01*
X195765476Y-178152381D01*
D14*
X188977714Y-169065001D02*
X189522000Y-169065001D01*
X189630857Y-169028715D01*
X189703429Y-168956144D01*
X189739714Y-168847287D01*
X189739714Y-168774715D01*
X189739714Y-169427858D02*
X188977714Y-169427858D01*
X188977714Y-169718143D01*
X189014000Y-169790715D01*
X189050286Y-169827000D01*
X189122857Y-169863286D01*
X189231714Y-169863286D01*
X189304286Y-169827000D01*
X189340571Y-169790715D01*
X189376857Y-169718143D01*
X189376857Y-169427858D01*
X189739714Y-170589000D02*
X189739714Y-170153572D01*
X189739714Y-170371286D02*
X188977714Y-170371286D01*
X189086571Y-170298715D01*
X189159143Y-170226143D01*
X189195429Y-170153572D01*
D12*
X205196900Y-115147498D02*
X205054043Y-115195117D01*
X205006424Y-115242737D01*
X204958805Y-115337975D01*
X204958805Y-115480832D01*
X205006424Y-115576070D01*
X205054043Y-115623689D01*
X205149281Y-115671308D01*
X205530234Y-115671308D01*
X205530234Y-114671308D01*
X205196900Y-114671308D01*
X205101662Y-114718927D01*
X205054043Y-114766546D01*
X205006424Y-114861784D01*
X205006424Y-114957022D01*
X205054043Y-115052260D01*
X205101662Y-115099879D01*
X205196900Y-115147498D01*
X205530234Y-115147498D01*
X204673091Y-114671308D02*
X204101662Y-114671308D01*
X204387377Y-115671308D02*
X204387377Y-114671308D01*
X203244519Y-115671308D02*
X203815948Y-115671308D01*
X203530234Y-115671308D02*
X203530234Y-114671308D01*
X203625472Y-114814165D01*
X203720710Y-114909403D01*
X203815948Y-114957022D01*
X206329762Y-97652143D02*
X202520238Y-97652143D01*
X204425000Y-99556905D02*
X204425000Y-95747381D01*
M02*
