G04 #@! TF.FileFunction,Copper,L2,Bot,Signal*
%FSLAX46Y46*%
G04 Gerber Fmt 4.6, Leading zero omitted, Abs format (unit mm)*
G04 Created by KiCad (PCBNEW 4.0.4-stable) date 12/07/16 00:48:56*
%MOMM*%
%LPD*%
G01*
G04 APERTURE LIST*
%ADD10C,0.100000*%
%ADD11R,1.600200X3.599180*%
%ADD12R,0.700000X0.600000*%
%ADD13R,0.590000X0.450000*%
%ADD14R,1.000000X1.000000*%
%ADD15R,2.032000X1.727200*%
%ADD16O,2.032000X1.727200*%
%ADD17R,0.600000X0.700000*%
%ADD18R,1.600000X2.180000*%
%ADD19C,2.000000*%
%ADD20R,2.500000X1.100000*%
%ADD21O,2.500000X1.100000*%
%ADD22O,1.100000X2.400000*%
%ADD23C,1.700000*%
%ADD24C,1.524000*%
%ADD25C,2.500000*%
%ADD26C,0.600000*%
%ADD27C,0.400000*%
%ADD28C,0.600000*%
%ADD29C,0.200000*%
%ADD30C,0.254000*%
G04 APERTURE END LIST*
D10*
D11*
X191750000Y-159050820D03*
X191750000Y-153549180D03*
X180575000Y-150325820D03*
X180575000Y-144824180D03*
D12*
X191100000Y-173575000D03*
X189900000Y-173575000D03*
D13*
X222280000Y-170600000D03*
X220170000Y-170600000D03*
D14*
X236150000Y-169250000D03*
X234850000Y-169250000D03*
X220575000Y-172875000D03*
X221875000Y-172875000D03*
D15*
X189600000Y-127500000D03*
D16*
X189600000Y-130040000D03*
X189600000Y-132580000D03*
D10*
G36*
X248943622Y-158525906D02*
X249718622Y-159868246D01*
X249199006Y-160168246D01*
X248424006Y-158825906D01*
X248943622Y-158525906D01*
X248943622Y-158525906D01*
G37*
G36*
X248077596Y-159025906D02*
X248852596Y-160368246D01*
X248332980Y-160668246D01*
X247557980Y-159325906D01*
X248077596Y-159025906D01*
X248077596Y-159025906D01*
G37*
G36*
X247211571Y-159525906D02*
X247986571Y-160868246D01*
X247466955Y-161168246D01*
X246691955Y-159825906D01*
X247211571Y-159525906D01*
X247211571Y-159525906D01*
G37*
G36*
X246345545Y-160025906D02*
X247120545Y-161368246D01*
X246600929Y-161668246D01*
X245825929Y-160325906D01*
X246345545Y-160025906D01*
X246345545Y-160025906D01*
G37*
G36*
X245479520Y-160525906D02*
X246254520Y-161868246D01*
X245734904Y-162168246D01*
X244959904Y-160825906D01*
X245479520Y-160525906D01*
X245479520Y-160525906D01*
G37*
G36*
X244613494Y-161025906D02*
X245388494Y-162368246D01*
X244868878Y-162668246D01*
X244093878Y-161325906D01*
X244613494Y-161025906D01*
X244613494Y-161025906D01*
G37*
G36*
X252204262Y-160973501D02*
X253104262Y-162532347D01*
X252065032Y-163132347D01*
X251165032Y-161573501D01*
X252204262Y-160973501D01*
X252204262Y-160973501D01*
G37*
G36*
X245622468Y-164773501D02*
X246522468Y-166332347D01*
X245483238Y-166932347D01*
X244583238Y-165373501D01*
X245622468Y-164773501D01*
X245622468Y-164773501D01*
G37*
D12*
X189300000Y-163925000D03*
X190500000Y-163925000D03*
X221150000Y-165825000D03*
X222350000Y-165825000D03*
X221150000Y-163650000D03*
X222350000Y-163650000D03*
D17*
X227775000Y-171325000D03*
X227775000Y-170125000D03*
D12*
X187450000Y-173575000D03*
X188650000Y-173575000D03*
X222350000Y-168400000D03*
X221150000Y-168400000D03*
D18*
X227747680Y-157172570D03*
X227752320Y-166377430D03*
X183747680Y-158347570D03*
X183752320Y-167552430D03*
D19*
X223625000Y-139625160D03*
X223625000Y-147224840D03*
D20*
X197875000Y-175700000D03*
D21*
X197875000Y-173700000D03*
X197875000Y-171700000D03*
X197875000Y-169700000D03*
X197875000Y-167700000D03*
X197875000Y-165700000D03*
X197875000Y-163700000D03*
X197875000Y-161700000D03*
D22*
X200565000Y-159950000D03*
X202565000Y-159950000D03*
X204565000Y-159950000D03*
X206565000Y-159950000D03*
X208565000Y-159950000D03*
X210565000Y-159950000D03*
D21*
X213275000Y-161700000D03*
X213175000Y-163700000D03*
X213275000Y-165700000D03*
X213275000Y-167700000D03*
X213275000Y-169700000D03*
X213275000Y-171700000D03*
X213275000Y-173700000D03*
X213275000Y-175700000D03*
D14*
X191300000Y-170350000D03*
X191300000Y-169050000D03*
D23*
X204425000Y-93945000D03*
D24*
X204425000Y-138645000D03*
D25*
X204325000Y-76175000D03*
D26*
X248350000Y-158175000D03*
X250025000Y-160575000D03*
X222425000Y-162350000D03*
X211075000Y-162325000D03*
X216250000Y-161625000D03*
X191725000Y-150625000D03*
X189900000Y-153500000D03*
X181425000Y-158425000D03*
X164200000Y-158025000D03*
X180475000Y-140500000D03*
X187250000Y-128450000D03*
X187225000Y-131750000D03*
X191575000Y-129025000D03*
X187000000Y-130000000D03*
X191250000Y-117925000D03*
X226625000Y-146875000D03*
X229550000Y-157175000D03*
X234900000Y-150100000D03*
X217975000Y-129875000D03*
X196175000Y-124925000D03*
X189475000Y-146250000D03*
X173350000Y-161200000D03*
X189150000Y-165150000D03*
X186575000Y-172175000D03*
X192800000Y-174650000D03*
X217950000Y-174025000D03*
X195250000Y-167725000D03*
X245650000Y-159600000D03*
X216150000Y-173025000D03*
X244600000Y-159775000D03*
X215550000Y-175850000D03*
X194250000Y-171325000D03*
X193375000Y-168475000D03*
X200950000Y-166000000D03*
D27*
X249071314Y-159347076D02*
X249071314Y-158896314D01*
X249071314Y-158896314D02*
X248350000Y-158175000D01*
X249071314Y-159347076D02*
X249071314Y-159621314D01*
X249071314Y-159621314D02*
X250025000Y-160575000D01*
X222350000Y-163650000D02*
X222350000Y-162425000D01*
X222350000Y-162425000D02*
X222425000Y-162350000D01*
X212575000Y-161700000D02*
X211700000Y-161700000D01*
X211700000Y-161700000D02*
X211075000Y-162325000D01*
X212575000Y-161700000D02*
X216175000Y-161700000D01*
X216175000Y-161700000D02*
X216250000Y-161625000D01*
X191750000Y-153549180D02*
X191750000Y-150650000D01*
X191750000Y-150650000D02*
X191725000Y-150625000D01*
X191750000Y-153549180D02*
X189949180Y-153549180D01*
X189949180Y-153549180D02*
X189900000Y-153500000D01*
X183747680Y-158347570D02*
X181502430Y-158347570D01*
X181502430Y-158347570D02*
X181425000Y-158425000D01*
X189600000Y-130040000D02*
X188840000Y-130040000D01*
X188840000Y-130040000D02*
X187250000Y-128450000D01*
X189600000Y-130040000D02*
X188935000Y-130040000D01*
X188935000Y-130040000D02*
X187225000Y-131750000D01*
X189600000Y-130040000D02*
X190560000Y-130040000D01*
X190560000Y-130040000D02*
X191575000Y-129025000D01*
X189600000Y-130040000D02*
X187040000Y-130040000D01*
X187040000Y-130040000D02*
X187000000Y-130000000D01*
X227747680Y-157172570D02*
X229547570Y-157172570D01*
X229547570Y-157172570D02*
X229550000Y-157175000D01*
X221150000Y-165825000D02*
X221150000Y-166525000D01*
X221150000Y-166525000D02*
X222325000Y-167700000D01*
X222325000Y-167700000D02*
X222350000Y-167700000D01*
X223200000Y-164400000D02*
X223200000Y-166850000D01*
X223200000Y-166850000D02*
X222350000Y-167700000D01*
X222350000Y-167700000D02*
X222350000Y-168400000D01*
X224000000Y-163600000D02*
X223200000Y-164400000D01*
X224000000Y-158400248D02*
X224000000Y-163600000D01*
X234900000Y-150100000D02*
X232300248Y-150100000D01*
X232300248Y-150100000D02*
X224000000Y-158400248D01*
X246950000Y-159625000D02*
X246950000Y-159957813D01*
X246950000Y-159957813D02*
X247339263Y-160347076D01*
X246650000Y-159325000D02*
X246950000Y-159625000D01*
X246650000Y-159000000D02*
X246650000Y-159325000D01*
X245992187Y-159000000D02*
X246650000Y-159000000D01*
X234900000Y-150100000D02*
X237092187Y-150100000D01*
X237092187Y-150100000D02*
X245992187Y-159000000D01*
X217975000Y-129875000D02*
X234900000Y-146800000D01*
X234900000Y-146800000D02*
X234900000Y-150100000D01*
X196175000Y-126157400D02*
X214257400Y-126157400D01*
X214257400Y-126157400D02*
X217975000Y-129875000D01*
X189600000Y-132580000D02*
X189752400Y-132580000D01*
X189752400Y-132580000D02*
X196175000Y-126157400D01*
X196175000Y-126157400D02*
X196175000Y-124925000D01*
X189475000Y-146250000D02*
X189475000Y-142825920D01*
X189475000Y-142825920D02*
X189600000Y-142700920D01*
X180575000Y-150325820D02*
X180575000Y-153975000D01*
X180575000Y-153975000D02*
X173350000Y-161200000D01*
D28*
X189600000Y-132580000D02*
X189600000Y-142700920D01*
X189600000Y-142700920D02*
X181975100Y-150325820D01*
X181975100Y-150325820D02*
X180575000Y-150325820D01*
X191750000Y-159050820D02*
X188300510Y-159050820D01*
X188300510Y-159050820D02*
X180575000Y-151325310D01*
X180575000Y-151325310D02*
X180575000Y-150325820D01*
X191750000Y-159050820D02*
X193150100Y-159050820D01*
X193150100Y-159050820D02*
X195799280Y-161700000D01*
X195799280Y-161700000D02*
X198575000Y-161700000D01*
D29*
X189300000Y-163925000D02*
X189300000Y-160500720D01*
X189300000Y-160500720D02*
X190749900Y-159050820D01*
X190749900Y-159050820D02*
X191750000Y-159050820D01*
X189150000Y-165150000D02*
X189150000Y-164075000D01*
X189150000Y-164075000D02*
X189300000Y-163925000D01*
X187450000Y-173575000D02*
X187450000Y-173050000D01*
X187450000Y-173050000D02*
X186575000Y-172175000D01*
D28*
X189600000Y-127500000D02*
X189600000Y-114900000D01*
X189600000Y-114900000D02*
X204425000Y-100075000D01*
X204425000Y-100075000D02*
X204425000Y-93945000D01*
D29*
X221875000Y-172875000D02*
X221875000Y-171005000D01*
X221875000Y-171005000D02*
X222280000Y-170600000D01*
X220575000Y-172875000D02*
X221875000Y-172875000D01*
X192800000Y-174650000D02*
X191725000Y-173575000D01*
X191725000Y-173575000D02*
X191100000Y-173575000D01*
X220575000Y-172875000D02*
X219100000Y-172875000D01*
X219100000Y-172875000D02*
X217950000Y-174025000D01*
X227750000Y-172650000D02*
X226774999Y-173625001D01*
X226774999Y-173625001D02*
X220625001Y-173625001D01*
X220625001Y-173625001D02*
X220575000Y-173575000D01*
X220575000Y-173575000D02*
X220575000Y-172875000D01*
X232150000Y-172650000D02*
X227750000Y-172650000D01*
X234850000Y-169250000D02*
X234850000Y-169950000D01*
X234850000Y-169950000D02*
X232150000Y-172650000D01*
X223625000Y-170125000D02*
X223190000Y-169690000D01*
X223190000Y-169690000D02*
X221150000Y-169690000D01*
X227775000Y-170125000D02*
X223625000Y-170125000D01*
X227752320Y-166377430D02*
X227752320Y-170102320D01*
X227752320Y-170102320D02*
X227775000Y-170125000D01*
X212575000Y-167700000D02*
X216775000Y-167700000D01*
X216775000Y-167700000D02*
X219675000Y-170600000D01*
X219675000Y-170600000D02*
X220170000Y-170600000D01*
X221150000Y-168400000D02*
X221150000Y-169690000D01*
X221150000Y-169690000D02*
X220240000Y-170600000D01*
X220240000Y-170600000D02*
X220170000Y-170600000D01*
X191300000Y-170350000D02*
X191300000Y-169050000D01*
X188650000Y-172740110D02*
X188650000Y-171000000D01*
X188650000Y-171000000D02*
X190600000Y-169050000D01*
X190600000Y-169050000D02*
X191300000Y-169050000D01*
X189900000Y-173575000D02*
X189900000Y-174075000D01*
X189900000Y-174075000D02*
X191525000Y-175700000D01*
X191525000Y-175700000D02*
X198575000Y-175700000D01*
X188650000Y-173575000D02*
X189900000Y-173575000D01*
X183752320Y-167552430D02*
X183752320Y-167842430D01*
X183752320Y-167842430D02*
X188650000Y-172740110D01*
X188650000Y-172740110D02*
X188650000Y-173075000D01*
X188650000Y-173075000D02*
X188650000Y-173575000D01*
X191300000Y-170350000D02*
X192000000Y-170350000D01*
X192000000Y-170350000D02*
X192650000Y-169700000D01*
X192650000Y-169700000D02*
X198575000Y-169700000D01*
X236150000Y-169250000D02*
X237338262Y-169250000D01*
X237338262Y-169250000D02*
X244741186Y-161847076D01*
D27*
X198575000Y-167700000D02*
X195275000Y-167700000D01*
X195275000Y-167700000D02*
X195250000Y-167725000D01*
D29*
X212575000Y-169700000D02*
X211674990Y-168799990D01*
X209825000Y-167125000D02*
X209825000Y-162500000D01*
X211674990Y-168799990D02*
X211499990Y-168799990D01*
X211499990Y-168799990D02*
X209825000Y-167125000D01*
X209825000Y-162500000D02*
X223625000Y-148700000D01*
X223625000Y-148700000D02*
X223625000Y-148639053D01*
X223625000Y-148639053D02*
X223625000Y-147224840D01*
X245650000Y-159600000D02*
X245650000Y-160023839D01*
X245650000Y-160023839D02*
X246473237Y-160847076D01*
X212575000Y-173700000D02*
X215475000Y-173700000D01*
X215475000Y-173700000D02*
X216150000Y-173025000D01*
X244600000Y-159775000D02*
X244600000Y-160339864D01*
X244600000Y-160339864D02*
X245607212Y-161347076D01*
X212575000Y-175700000D02*
X215400000Y-175700000D01*
X215400000Y-175700000D02*
X215550000Y-175850000D01*
X194250000Y-171325000D02*
X194674264Y-171325000D01*
X194674264Y-171325000D02*
X195049264Y-171700000D01*
X195049264Y-171700000D02*
X198575000Y-171700000D01*
X190500000Y-163925000D02*
X190550000Y-163925000D01*
X190550000Y-163925000D02*
X193375000Y-166750000D01*
X193375000Y-166750000D02*
X193375000Y-168475000D01*
X212575000Y-165700000D02*
X213000001Y-165274999D01*
X213000001Y-165274999D02*
X221749999Y-165274999D01*
X221749999Y-165274999D02*
X222300000Y-165825000D01*
X222300000Y-165825000D02*
X222350000Y-165825000D01*
X200950000Y-166000000D02*
X200650000Y-165700000D01*
X200650000Y-165700000D02*
X198575000Y-165700000D01*
X212575000Y-163700000D02*
X212625000Y-163650000D01*
X212625000Y-163650000D02*
X221150000Y-163650000D01*
D30*
G36*
X204881907Y-71976852D02*
X204887716Y-71987921D01*
X204889782Y-72000251D01*
X205085446Y-72516304D01*
X205092480Y-72527554D01*
X205095714Y-72540422D01*
X205312396Y-72997606D01*
X205320692Y-73008773D01*
X205325205Y-73021934D01*
X205572978Y-73448035D01*
X205582561Y-73458895D01*
X205588441Y-73472134D01*
X205855745Y-73851117D01*
X205866500Y-73861343D01*
X205873715Y-73874311D01*
X206170520Y-74223813D01*
X206182345Y-74233189D01*
X206190852Y-74245651D01*
X206508792Y-74557343D01*
X206521409Y-74565593D01*
X206531006Y-74577218D01*
X206877769Y-74860100D01*
X206897412Y-74870525D01*
X206913748Y-74885612D01*
X207687766Y-75359428D01*
X207714032Y-75369104D01*
X207737518Y-75384334D01*
X208636459Y-75742290D01*
X208661447Y-75746904D01*
X208684643Y-75757286D01*
X209729786Y-75995918D01*
X209750662Y-75996505D01*
X209770650Y-76002560D01*
X210536650Y-76077703D01*
X210539256Y-76103365D01*
X210531349Y-76331268D01*
X210423022Y-76748755D01*
X210199818Y-77115743D01*
X209813327Y-77499294D01*
X209149726Y-77983560D01*
X208743444Y-78273520D01*
X208733672Y-78283913D01*
X208721221Y-78290874D01*
X208358871Y-78599880D01*
X208340320Y-78623376D01*
X208317267Y-78642484D01*
X208034453Y-78990552D01*
X208012384Y-79032330D01*
X207986134Y-79071614D01*
X207817075Y-79479726D01*
X207807421Y-79528254D01*
X207793482Y-79575723D01*
X207744669Y-80121133D01*
X207749339Y-80164577D01*
X207748549Y-80208268D01*
X207843985Y-80737931D01*
X207853731Y-80762719D01*
X207857551Y-80789076D01*
X208105891Y-81490536D01*
X208264785Y-82034533D01*
X208327717Y-82670211D01*
X208290877Y-83110710D01*
X208126457Y-83130086D01*
X207534550Y-83139362D01*
X207519521Y-83142597D01*
X207504206Y-83141251D01*
X207457595Y-83155927D01*
X207409818Y-83166211D01*
X207397169Y-83174952D01*
X207382507Y-83179569D01*
X207221313Y-83267918D01*
X207214331Y-83273772D01*
X207205799Y-83276983D01*
X207165670Y-83314569D01*
X207123541Y-83349890D01*
X207119329Y-83357974D01*
X207112678Y-83364203D01*
X207089987Y-83414284D01*
X207064581Y-83463040D01*
X207063783Y-83472117D01*
X207060021Y-83480420D01*
X207058223Y-83535377D01*
X207053409Y-83590139D01*
X207056146Y-83598832D01*
X207055848Y-83607941D01*
X207075218Y-83659404D01*
X207091727Y-83711838D01*
X207097581Y-83718820D01*
X207100792Y-83727352D01*
X208555801Y-86067150D01*
X208562227Y-86074011D01*
X208566030Y-86082603D01*
X210164944Y-88355689D01*
X210171638Y-88362070D01*
X210175846Y-88370304D01*
X211926548Y-90585636D01*
X211933424Y-90591494D01*
X211937964Y-90599299D01*
X213850707Y-92765971D01*
X213857663Y-92771272D01*
X213862455Y-92778593D01*
X215950391Y-94906278D01*
X215957334Y-94911012D01*
X215962285Y-94917799D01*
X218242284Y-97017195D01*
X218249111Y-97021360D01*
X218254132Y-97027589D01*
X220748105Y-99111145D01*
X220754718Y-99114754D01*
X220759708Y-99120400D01*
X223496739Y-101203638D01*
X223503038Y-101206714D01*
X223507900Y-101211767D01*
X226528286Y-103315389D01*
X226532650Y-103317296D01*
X226536047Y-103320630D01*
X227811977Y-104156058D01*
X227533688Y-104689488D01*
X227091815Y-105448003D01*
X226640935Y-106142647D01*
X226160986Y-106807445D01*
X225670949Y-107418231D01*
X225152453Y-107999991D01*
X224621819Y-108535713D01*
X224062890Y-109042949D01*
X223488807Y-109510427D01*
X222886221Y-109949597D01*
X222264527Y-110353668D01*
X221613741Y-110729196D01*
X220939091Y-111072737D01*
X220230749Y-111388654D01*
X220213891Y-111395653D01*
X220188440Y-111412689D01*
X220160043Y-111424154D01*
X220135940Y-111447829D01*
X220107862Y-111466623D01*
X220090868Y-111492101D01*
X220069020Y-111513561D01*
X220055810Y-111544660D01*
X220037063Y-111572767D01*
X220031113Y-111602805D01*
X220019139Y-111630996D01*
X220018837Y-111664784D01*
X220012272Y-111697925D01*
X220018271Y-111727958D01*
X220017997Y-111758581D01*
X220030646Y-111789908D01*
X220037264Y-111823042D01*
X220054300Y-111848493D01*
X220065765Y-111876890D01*
X221045532Y-113372036D01*
X221055436Y-113382119D01*
X221061827Y-113394726D01*
X222189772Y-114831555D01*
X222200070Y-114840387D01*
X222207176Y-114851946D01*
X223498955Y-116245409D01*
X223509290Y-116252896D01*
X223516792Y-116263221D01*
X224995521Y-117630180D01*
X225005519Y-117636307D01*
X225013066Y-117645283D01*
X226713551Y-119007313D01*
X226722833Y-119012133D01*
X226730054Y-119019697D01*
X228708234Y-120408842D01*
X228716378Y-120412439D01*
X228722860Y-120418537D01*
X231081396Y-121892475D01*
X231087791Y-121894898D01*
X231092964Y-121899378D01*
X234074196Y-123595865D01*
X234077137Y-123596843D01*
X234079515Y-123598826D01*
X238759016Y-126147593D01*
X241774667Y-127883790D01*
X241416767Y-128744136D01*
X240813141Y-129812844D01*
X240037182Y-130890260D01*
X239020250Y-132059070D01*
X237541298Y-133568872D01*
X237540962Y-133569386D01*
X237540458Y-133569733D01*
X236377814Y-134765397D01*
X236372334Y-134773852D01*
X236364398Y-134780060D01*
X235273608Y-136047546D01*
X235268700Y-136056234D01*
X235261223Y-136062845D01*
X235237476Y-136111499D01*
X235210848Y-136158631D01*
X235209638Y-136168536D01*
X235205260Y-136177506D01*
X235201940Y-136231545D01*
X235195376Y-136285279D01*
X235198049Y-136294894D01*
X235197437Y-136304856D01*
X235215050Y-136356052D01*
X235229548Y-136408208D01*
X235235696Y-136416068D01*
X235238943Y-136425505D01*
X236265890Y-138187537D01*
X236274276Y-138197021D01*
X236279295Y-138208638D01*
X237444853Y-139897214D01*
X237453767Y-139905862D01*
X237459534Y-139916864D01*
X238772583Y-141543290D01*
X238781820Y-141550995D01*
X238788164Y-141561217D01*
X240261462Y-143136869D01*
X240270790Y-143143566D01*
X240277509Y-143152881D01*
X241928541Y-144689800D01*
X241937731Y-144695476D01*
X241944610Y-144703810D01*
X243797576Y-146215803D01*
X243806401Y-146220488D01*
X243813212Y-146227795D01*
X245902339Y-147732343D01*
X245910569Y-147736095D01*
X245917086Y-147742364D01*
X248293795Y-149264452D01*
X248301188Y-149267347D01*
X248307168Y-149272572D01*
X251056802Y-150853336D01*
X251063055Y-150855446D01*
X251068193Y-150859587D01*
X254358003Y-152580755D01*
X254362554Y-152582092D01*
X254366334Y-152584964D01*
X258648255Y-154671764D01*
X258649720Y-154672149D01*
X258650932Y-154673053D01*
X261156597Y-155866138D01*
X261177507Y-155964031D01*
X261189385Y-156159710D01*
X261121196Y-156537317D01*
X260934014Y-156888011D01*
X260580230Y-157273631D01*
X259964182Y-157759537D01*
X259518384Y-158094072D01*
X259516258Y-158096445D01*
X259513412Y-158097878D01*
X258030994Y-159255334D01*
X256518771Y-160385183D01*
X254979475Y-161485278D01*
X253407998Y-162559068D01*
X253378368Y-162578414D01*
X253384520Y-162497418D01*
X253348850Y-162391134D01*
X252448850Y-160832288D01*
X252380798Y-160753048D01*
X252281121Y-160701734D01*
X252169333Y-160693243D01*
X252063049Y-160728913D01*
X251023819Y-161328913D01*
X250944579Y-161396965D01*
X250893265Y-161496642D01*
X250884774Y-161608430D01*
X250920444Y-161714714D01*
X251820444Y-163273560D01*
X251888496Y-163352800D01*
X251988173Y-163404114D01*
X252099961Y-163412605D01*
X252101671Y-163412031D01*
X251809767Y-163602629D01*
X250179761Y-164619021D01*
X248523344Y-165604673D01*
X246835489Y-166562349D01*
X245121500Y-167488776D01*
X243376421Y-168386400D01*
X241605367Y-169252308D01*
X239803618Y-170088563D01*
X237976098Y-170892584D01*
X236118065Y-171666186D01*
X234234363Y-172407047D01*
X232320596Y-173116604D01*
X230381124Y-173792922D01*
X228411799Y-174437143D01*
X226416843Y-175047559D01*
X224392332Y-175625027D01*
X222342107Y-176168120D01*
X220262642Y-176677438D01*
X218157298Y-177151779D01*
X216022456Y-177591610D01*
X214417206Y-177898350D01*
X195276365Y-178114595D01*
X193341127Y-177922725D01*
X189548085Y-177428028D01*
X185895357Y-176793422D01*
X182371509Y-176021979D01*
X178966997Y-175116065D01*
X175672479Y-174077081D01*
X172478864Y-172905406D01*
X169377184Y-171600348D01*
X166358585Y-170160028D01*
X163414375Y-168581365D01*
X160535719Y-166859858D01*
X159936088Y-166462430D01*
X182669894Y-166462430D01*
X182669894Y-168642430D01*
X182689209Y-168745080D01*
X182749875Y-168839357D01*
X182842440Y-168902605D01*
X182952320Y-168924856D01*
X184301588Y-168924856D01*
X188273000Y-172896269D01*
X188273000Y-172997654D01*
X188197350Y-173011889D01*
X188103073Y-173072555D01*
X188049421Y-173151076D01*
X188002445Y-173078073D01*
X187909880Y-173014825D01*
X187816231Y-172995861D01*
X187798303Y-172905728D01*
X187716579Y-172783421D01*
X187151962Y-172218804D01*
X187152100Y-172060731D01*
X187064442Y-171848583D01*
X186902271Y-171686129D01*
X186690276Y-171598100D01*
X186460731Y-171597900D01*
X186248583Y-171685558D01*
X186086129Y-171847729D01*
X185998100Y-172059724D01*
X185997900Y-172289269D01*
X186085558Y-172501417D01*
X186247729Y-172663871D01*
X186459724Y-172751900D01*
X186618881Y-172752039D01*
X186925175Y-173058333D01*
X186903073Y-173072555D01*
X186839825Y-173165120D01*
X186817574Y-173275000D01*
X186817574Y-173875000D01*
X186836889Y-173977650D01*
X186897555Y-174071927D01*
X186990120Y-174135175D01*
X187100000Y-174157426D01*
X187800000Y-174157426D01*
X187902650Y-174138111D01*
X187996927Y-174077445D01*
X188050579Y-173998924D01*
X188097555Y-174071927D01*
X188190120Y-174135175D01*
X188300000Y-174157426D01*
X189000000Y-174157426D01*
X189102650Y-174138111D01*
X189196927Y-174077445D01*
X189260175Y-173984880D01*
X189266833Y-173952000D01*
X189282063Y-173952000D01*
X189286889Y-173977650D01*
X189347555Y-174071927D01*
X189440120Y-174135175D01*
X189538950Y-174155188D01*
X189551697Y-174219272D01*
X189633421Y-174341579D01*
X191258421Y-175966579D01*
X191380728Y-176048303D01*
X191525000Y-176077000D01*
X196342574Y-176077000D01*
X196342574Y-176250000D01*
X196361889Y-176352650D01*
X196422555Y-176446927D01*
X196515120Y-176510175D01*
X196625000Y-176532426D01*
X199125000Y-176532426D01*
X199227650Y-176513111D01*
X199321927Y-176452445D01*
X199385175Y-176359880D01*
X199407426Y-176250000D01*
X199407426Y-175700000D01*
X211718084Y-175700000D01*
X211781036Y-176016479D01*
X211960307Y-176284777D01*
X212228605Y-176464048D01*
X212545084Y-176527000D01*
X214004916Y-176527000D01*
X214321395Y-176464048D01*
X214589693Y-176284777D01*
X214728525Y-176077000D01*
X215019480Y-176077000D01*
X215060558Y-176176417D01*
X215222729Y-176338871D01*
X215434724Y-176426900D01*
X215664269Y-176427100D01*
X215876417Y-176339442D01*
X216038871Y-176177271D01*
X216126900Y-175965276D01*
X216127100Y-175735731D01*
X216039442Y-175523583D01*
X215877271Y-175361129D01*
X215665276Y-175273100D01*
X215435731Y-175272900D01*
X215314480Y-175323000D01*
X214728525Y-175323000D01*
X214589693Y-175115223D01*
X214321395Y-174935952D01*
X214004916Y-174873000D01*
X212545084Y-174873000D01*
X212228605Y-174935952D01*
X211960307Y-175115223D01*
X211781036Y-175383521D01*
X211718084Y-175700000D01*
X199407426Y-175700000D01*
X199407426Y-175150000D01*
X199388111Y-175047350D01*
X199327445Y-174953073D01*
X199234880Y-174889825D01*
X199125000Y-174867574D01*
X196625000Y-174867574D01*
X196522350Y-174886889D01*
X196428073Y-174947555D01*
X196364825Y-175040120D01*
X196342574Y-175150000D01*
X196342574Y-175323000D01*
X191681158Y-175323000D01*
X190440037Y-174081879D01*
X190446927Y-174077445D01*
X190500579Y-173998924D01*
X190547555Y-174071927D01*
X190640120Y-174135175D01*
X190750000Y-174157426D01*
X191450000Y-174157426D01*
X191552650Y-174138111D01*
X191646927Y-174077445D01*
X191666151Y-174049310D01*
X192223038Y-174606196D01*
X192222900Y-174764269D01*
X192310558Y-174976417D01*
X192472729Y-175138871D01*
X192684724Y-175226900D01*
X192914269Y-175227100D01*
X193126417Y-175139442D01*
X193288871Y-174977271D01*
X193376900Y-174765276D01*
X193377100Y-174535731D01*
X193289442Y-174323583D01*
X193127271Y-174161129D01*
X192915276Y-174073100D01*
X192756120Y-174072961D01*
X192383159Y-173700000D01*
X196318084Y-173700000D01*
X196381036Y-174016479D01*
X196560307Y-174284777D01*
X196828605Y-174464048D01*
X197145084Y-174527000D01*
X198604916Y-174527000D01*
X198921395Y-174464048D01*
X199189693Y-174284777D01*
X199368964Y-174016479D01*
X199431916Y-173700000D01*
X211718084Y-173700000D01*
X211781036Y-174016479D01*
X211960307Y-174284777D01*
X212228605Y-174464048D01*
X212545084Y-174527000D01*
X214004916Y-174527000D01*
X214321395Y-174464048D01*
X214589693Y-174284777D01*
X214728525Y-174077000D01*
X215475000Y-174077000D01*
X215619272Y-174048303D01*
X215741579Y-173966579D01*
X216106196Y-173601962D01*
X216264269Y-173602100D01*
X216476417Y-173514442D01*
X216638871Y-173352271D01*
X216726900Y-173140276D01*
X216727100Y-172910731D01*
X216639442Y-172698583D01*
X216477271Y-172536129D01*
X216265276Y-172448100D01*
X216035731Y-172447900D01*
X215823583Y-172535558D01*
X215661129Y-172697729D01*
X215573100Y-172909724D01*
X215572961Y-173068881D01*
X215318842Y-173323000D01*
X214728525Y-173323000D01*
X214589693Y-173115223D01*
X214321395Y-172935952D01*
X214004916Y-172873000D01*
X212545084Y-172873000D01*
X212228605Y-172935952D01*
X211960307Y-173115223D01*
X211781036Y-173383521D01*
X211718084Y-173700000D01*
X199431916Y-173700000D01*
X199368964Y-173383521D01*
X199189693Y-173115223D01*
X198921395Y-172935952D01*
X198604916Y-172873000D01*
X197145084Y-172873000D01*
X196828605Y-172935952D01*
X196560307Y-173115223D01*
X196381036Y-173383521D01*
X196318084Y-173700000D01*
X192383159Y-173700000D01*
X191991579Y-173308421D01*
X191869272Y-173226697D01*
X191725000Y-173198000D01*
X191717937Y-173198000D01*
X191713111Y-173172350D01*
X191652445Y-173078073D01*
X191559880Y-173014825D01*
X191450000Y-172992574D01*
X190750000Y-172992574D01*
X190647350Y-173011889D01*
X190553073Y-173072555D01*
X190499421Y-173151076D01*
X190452445Y-173078073D01*
X190359880Y-173014825D01*
X190250000Y-172992574D01*
X189550000Y-172992574D01*
X189447350Y-173011889D01*
X189353073Y-173072555D01*
X189289825Y-173165120D01*
X189283167Y-173198000D01*
X189267937Y-173198000D01*
X189263111Y-173172350D01*
X189202445Y-173078073D01*
X189109880Y-173014825D01*
X189027000Y-172998042D01*
X189027000Y-171439269D01*
X193672900Y-171439269D01*
X193760558Y-171651417D01*
X193922729Y-171813871D01*
X194134724Y-171901900D01*
X194364269Y-171902100D01*
X194576417Y-171814442D01*
X194603506Y-171787400D01*
X194782685Y-171966579D01*
X194904992Y-172048303D01*
X195049264Y-172077000D01*
X196421475Y-172077000D01*
X196560307Y-172284777D01*
X196828605Y-172464048D01*
X197145084Y-172527000D01*
X198604916Y-172527000D01*
X198921395Y-172464048D01*
X199189693Y-172284777D01*
X199368964Y-172016479D01*
X199431916Y-171700000D01*
X211718084Y-171700000D01*
X211781036Y-172016479D01*
X211960307Y-172284777D01*
X212228605Y-172464048D01*
X212545084Y-172527000D01*
X214004916Y-172527000D01*
X214321395Y-172464048D01*
X214589693Y-172284777D01*
X214768964Y-172016479D01*
X214831916Y-171700000D01*
X214768964Y-171383521D01*
X214589693Y-171115223D01*
X214321395Y-170935952D01*
X214004916Y-170873000D01*
X212545084Y-170873000D01*
X212228605Y-170935952D01*
X211960307Y-171115223D01*
X211781036Y-171383521D01*
X211718084Y-171700000D01*
X199431916Y-171700000D01*
X199368964Y-171383521D01*
X199189693Y-171115223D01*
X198921395Y-170935952D01*
X198604916Y-170873000D01*
X197145084Y-170873000D01*
X196828605Y-170935952D01*
X196560307Y-171115223D01*
X196421475Y-171323000D01*
X195205422Y-171323000D01*
X194940843Y-171058421D01*
X194818536Y-170976697D01*
X194692585Y-170951644D01*
X194577271Y-170836129D01*
X194365276Y-170748100D01*
X194135731Y-170747900D01*
X193923583Y-170835558D01*
X193761129Y-170997729D01*
X193673100Y-171209724D01*
X193672900Y-171439269D01*
X189027000Y-171439269D01*
X189027000Y-171156158D01*
X190535879Y-169647280D01*
X190536889Y-169652650D01*
X190567300Y-169699910D01*
X190539825Y-169740120D01*
X190517574Y-169850000D01*
X190517574Y-170850000D01*
X190536889Y-170952650D01*
X190597555Y-171046927D01*
X190690120Y-171110175D01*
X190800000Y-171132426D01*
X191800000Y-171132426D01*
X191902650Y-171113111D01*
X191996927Y-171052445D01*
X192060175Y-170959880D01*
X192082426Y-170850000D01*
X192082426Y-170710605D01*
X192144272Y-170698303D01*
X192266579Y-170616579D01*
X192806158Y-170077000D01*
X196421475Y-170077000D01*
X196560307Y-170284777D01*
X196828605Y-170464048D01*
X197145084Y-170527000D01*
X198604916Y-170527000D01*
X198921395Y-170464048D01*
X199189693Y-170284777D01*
X199368964Y-170016479D01*
X199431916Y-169700000D01*
X199368964Y-169383521D01*
X199189693Y-169115223D01*
X198921395Y-168935952D01*
X198604916Y-168873000D01*
X197145084Y-168873000D01*
X196828605Y-168935952D01*
X196560307Y-169115223D01*
X196421475Y-169323000D01*
X192650000Y-169323000D01*
X192505728Y-169351697D01*
X192383421Y-169433421D01*
X192064122Y-169752720D01*
X192063111Y-169747350D01*
X192032700Y-169700090D01*
X192060175Y-169659880D01*
X192082426Y-169550000D01*
X192082426Y-168550000D01*
X192063111Y-168447350D01*
X192002445Y-168353073D01*
X191909880Y-168289825D01*
X191800000Y-168267574D01*
X190800000Y-168267574D01*
X190697350Y-168286889D01*
X190603073Y-168347555D01*
X190539825Y-168440120D01*
X190517574Y-168550000D01*
X190517574Y-168689395D01*
X190464260Y-168700000D01*
X190455728Y-168701697D01*
X190333420Y-168783421D01*
X188383421Y-170733421D01*
X188301697Y-170855728D01*
X188273000Y-171000000D01*
X188273000Y-171829951D01*
X184834746Y-168391698D01*
X184834746Y-166462430D01*
X184815431Y-166359780D01*
X184754765Y-166265503D01*
X184662200Y-166202255D01*
X184552320Y-166180004D01*
X182952320Y-166180004D01*
X182849670Y-166199319D01*
X182755393Y-166259985D01*
X182692145Y-166352550D01*
X182669894Y-166462430D01*
X159936088Y-166462430D01*
X157713672Y-164989443D01*
X154939007Y-162962328D01*
X152882773Y-161314269D01*
X172772900Y-161314269D01*
X172860558Y-161526417D01*
X173022729Y-161688871D01*
X173234724Y-161776900D01*
X173464269Y-161777100D01*
X173676417Y-161689442D01*
X173838871Y-161527271D01*
X173926900Y-161315276D01*
X173926915Y-161297665D01*
X176591260Y-158633320D01*
X182312680Y-158633320D01*
X182312680Y-159563879D01*
X182409353Y-159797268D01*
X182587981Y-159975897D01*
X182821370Y-160072570D01*
X183461930Y-160072570D01*
X183620680Y-159913820D01*
X183620680Y-158474570D01*
X183874680Y-158474570D01*
X183874680Y-159913820D01*
X184033430Y-160072570D01*
X184673990Y-160072570D01*
X184907379Y-159975897D01*
X185086007Y-159797268D01*
X185182680Y-159563879D01*
X185182680Y-158633320D01*
X185023930Y-158474570D01*
X183874680Y-158474570D01*
X183620680Y-158474570D01*
X182471430Y-158474570D01*
X182312680Y-158633320D01*
X176591260Y-158633320D01*
X178093319Y-157131261D01*
X182312680Y-157131261D01*
X182312680Y-158061820D01*
X182471430Y-158220570D01*
X183620680Y-158220570D01*
X183620680Y-156781320D01*
X183874680Y-156781320D01*
X183874680Y-158220570D01*
X185023930Y-158220570D01*
X185182680Y-158061820D01*
X185182680Y-157131261D01*
X185086007Y-156897872D01*
X184907379Y-156719243D01*
X184673990Y-156622570D01*
X184033430Y-156622570D01*
X183874680Y-156781320D01*
X183620680Y-156781320D01*
X183461930Y-156622570D01*
X182821370Y-156622570D01*
X182587981Y-156719243D01*
X182409353Y-156897872D01*
X182312680Y-157131261D01*
X178093319Y-157131261D01*
X180912290Y-154312290D01*
X181015691Y-154157540D01*
X181052000Y-153975000D01*
X181052000Y-152618312D01*
X187892509Y-159458821D01*
X188079702Y-159583898D01*
X188300510Y-159627821D01*
X188300515Y-159627820D01*
X189639742Y-159627820D01*
X189033421Y-160234141D01*
X188951697Y-160356448D01*
X188923000Y-160500720D01*
X188923000Y-163347654D01*
X188847350Y-163361889D01*
X188753073Y-163422555D01*
X188689825Y-163515120D01*
X188667574Y-163625000D01*
X188667574Y-164225000D01*
X188686889Y-164327650D01*
X188747555Y-164421927D01*
X188773000Y-164439313D01*
X188773000Y-164711053D01*
X188661129Y-164822729D01*
X188573100Y-165034724D01*
X188572900Y-165264269D01*
X188660558Y-165476417D01*
X188822729Y-165638871D01*
X189034724Y-165726900D01*
X189264269Y-165727100D01*
X189476417Y-165639442D01*
X189638871Y-165477271D01*
X189726900Y-165265276D01*
X189727100Y-165035731D01*
X189639442Y-164823583D01*
X189527000Y-164710945D01*
X189527000Y-164507426D01*
X189650000Y-164507426D01*
X189752650Y-164488111D01*
X189846927Y-164427445D01*
X189900579Y-164348924D01*
X189947555Y-164421927D01*
X190040120Y-164485175D01*
X190150000Y-164507426D01*
X190599268Y-164507426D01*
X192998000Y-166906158D01*
X192998000Y-168036053D01*
X192886129Y-168147729D01*
X192798100Y-168359724D01*
X192797900Y-168589269D01*
X192885558Y-168801417D01*
X193047729Y-168963871D01*
X193259724Y-169051900D01*
X193489269Y-169052100D01*
X193701417Y-168964442D01*
X193863871Y-168802271D01*
X193951900Y-168590276D01*
X193952100Y-168360731D01*
X193864442Y-168148583D01*
X193752000Y-168035945D01*
X193752000Y-167839269D01*
X194672900Y-167839269D01*
X194760558Y-168051417D01*
X194922729Y-168213871D01*
X195134724Y-168301900D01*
X195364269Y-168302100D01*
X195576417Y-168214442D01*
X195613924Y-168177000D01*
X196488293Y-168177000D01*
X196560307Y-168284777D01*
X196828605Y-168464048D01*
X197145084Y-168527000D01*
X198604916Y-168527000D01*
X198921395Y-168464048D01*
X199189693Y-168284777D01*
X199368964Y-168016479D01*
X199431916Y-167700000D01*
X199368964Y-167383521D01*
X199189693Y-167115223D01*
X198921395Y-166935952D01*
X198604916Y-166873000D01*
X197145084Y-166873000D01*
X196828605Y-166935952D01*
X196560307Y-167115223D01*
X196488293Y-167223000D01*
X195545653Y-167223000D01*
X195365276Y-167148100D01*
X195135731Y-167147900D01*
X194923583Y-167235558D01*
X194761129Y-167397729D01*
X194673100Y-167609724D01*
X194672900Y-167839269D01*
X193752000Y-167839269D01*
X193752000Y-166750000D01*
X193723303Y-166605728D01*
X193641579Y-166483421D01*
X192858158Y-165700000D01*
X196318084Y-165700000D01*
X196381036Y-166016479D01*
X196560307Y-166284777D01*
X196828605Y-166464048D01*
X197145084Y-166527000D01*
X198604916Y-166527000D01*
X198921395Y-166464048D01*
X199189693Y-166284777D01*
X199328525Y-166077000D01*
X200372932Y-166077000D01*
X200372900Y-166114269D01*
X200460558Y-166326417D01*
X200622729Y-166488871D01*
X200834724Y-166576900D01*
X201064269Y-166577100D01*
X201276417Y-166489442D01*
X201438871Y-166327271D01*
X201526900Y-166115276D01*
X201527100Y-165885731D01*
X201439442Y-165673583D01*
X201277271Y-165511129D01*
X201065276Y-165423100D01*
X200900918Y-165422957D01*
X200794272Y-165351697D01*
X200650000Y-165323000D01*
X199328525Y-165323000D01*
X199189693Y-165115223D01*
X198921395Y-164935952D01*
X198604916Y-164873000D01*
X197145084Y-164873000D01*
X196828605Y-164935952D01*
X196560307Y-165115223D01*
X196381036Y-165383521D01*
X196318084Y-165700000D01*
X192858158Y-165700000D01*
X191132426Y-163974268D01*
X191132426Y-163700000D01*
X196318084Y-163700000D01*
X196381036Y-164016479D01*
X196560307Y-164284777D01*
X196828605Y-164464048D01*
X197145084Y-164527000D01*
X198604916Y-164527000D01*
X198921395Y-164464048D01*
X199189693Y-164284777D01*
X199368964Y-164016479D01*
X199431916Y-163700000D01*
X199368964Y-163383521D01*
X199189693Y-163115223D01*
X198921395Y-162935952D01*
X198604916Y-162873000D01*
X197145084Y-162873000D01*
X196828605Y-162935952D01*
X196560307Y-163115223D01*
X196381036Y-163383521D01*
X196318084Y-163700000D01*
X191132426Y-163700000D01*
X191132426Y-163625000D01*
X191113111Y-163522350D01*
X191052445Y-163428073D01*
X190959880Y-163364825D01*
X190850000Y-163342574D01*
X190150000Y-163342574D01*
X190047350Y-163361889D01*
X189953073Y-163422555D01*
X189899421Y-163501076D01*
X189852445Y-163428073D01*
X189759880Y-163364825D01*
X189677000Y-163348042D01*
X189677000Y-160656878D01*
X190667474Y-159666404D01*
X190667474Y-160850410D01*
X190686789Y-160953060D01*
X190747455Y-161047337D01*
X190840020Y-161110585D01*
X190949900Y-161132836D01*
X192550100Y-161132836D01*
X192652750Y-161113521D01*
X192747027Y-161052855D01*
X192810275Y-160960290D01*
X192832526Y-160850410D01*
X192832526Y-159627820D01*
X192911098Y-159627820D01*
X195391277Y-162107998D01*
X195391279Y-162108001D01*
X195578472Y-162233078D01*
X195799280Y-162277000D01*
X196555111Y-162277000D01*
X196560307Y-162284777D01*
X196828605Y-162464048D01*
X197145084Y-162527000D01*
X198604916Y-162527000D01*
X198740653Y-162500000D01*
X209448000Y-162500000D01*
X209448000Y-167125000D01*
X209476697Y-167269272D01*
X209558421Y-167391579D01*
X211233411Y-169066570D01*
X211292016Y-169105728D01*
X211355718Y-169148293D01*
X211499990Y-169176990D01*
X211518832Y-169176990D01*
X211771799Y-169429958D01*
X211718084Y-169700000D01*
X211781036Y-170016479D01*
X211960307Y-170284777D01*
X212228605Y-170464048D01*
X212545084Y-170527000D01*
X214004916Y-170527000D01*
X214321395Y-170464048D01*
X214589693Y-170284777D01*
X214768964Y-170016479D01*
X214831916Y-169700000D01*
X214768964Y-169383521D01*
X214589693Y-169115223D01*
X214321395Y-168935952D01*
X214004916Y-168873000D01*
X212545084Y-168873000D01*
X212324947Y-168916788D01*
X211941569Y-168533411D01*
X211819262Y-168451687D01*
X211674990Y-168422990D01*
X211656149Y-168422990D01*
X210202000Y-166968842D01*
X210202000Y-162656158D01*
X210848414Y-162009744D01*
X211431197Y-162009744D01*
X211431602Y-162036146D01*
X211647276Y-162448118D01*
X212004187Y-162746196D01*
X212423414Y-162877311D01*
X212128605Y-162935952D01*
X211860307Y-163115223D01*
X211681036Y-163383521D01*
X211618084Y-163700000D01*
X211681036Y-164016479D01*
X211860307Y-164284777D01*
X212128605Y-164464048D01*
X212445084Y-164527000D01*
X213904916Y-164527000D01*
X214221395Y-164464048D01*
X214489693Y-164284777D01*
X214661934Y-164027000D01*
X220532063Y-164027000D01*
X220536889Y-164052650D01*
X220597555Y-164146927D01*
X220690120Y-164210175D01*
X220800000Y-164232426D01*
X221429665Y-164232426D01*
X221461673Y-164309699D01*
X221640302Y-164488327D01*
X221873691Y-164585000D01*
X222064250Y-164585000D01*
X222223000Y-164426250D01*
X222223000Y-163777000D01*
X222203000Y-163777000D01*
X222203000Y-163523000D01*
X222223000Y-163523000D01*
X222223000Y-162873750D01*
X222064250Y-162715000D01*
X221873691Y-162715000D01*
X221640302Y-162811673D01*
X221461673Y-162990301D01*
X221429665Y-163067574D01*
X220800000Y-163067574D01*
X220697350Y-163086889D01*
X220603073Y-163147555D01*
X220539825Y-163240120D01*
X220533167Y-163273000D01*
X214595116Y-163273000D01*
X214489693Y-163115223D01*
X214221395Y-162935952D01*
X213965244Y-162885000D01*
X214102000Y-162885000D01*
X214545813Y-162746196D01*
X214902724Y-162448118D01*
X215118398Y-162036146D01*
X215118803Y-162009744D01*
X214993361Y-161827000D01*
X213402000Y-161827000D01*
X213402000Y-161847000D01*
X213148000Y-161847000D01*
X213148000Y-161827000D01*
X211556639Y-161827000D01*
X211431197Y-162009744D01*
X210848414Y-162009744D01*
X211446137Y-161412021D01*
X211556639Y-161573000D01*
X213148000Y-161573000D01*
X213148000Y-160515000D01*
X213402000Y-160515000D01*
X213402000Y-161573000D01*
X214993361Y-161573000D01*
X215118803Y-161390256D01*
X215118398Y-161363854D01*
X214902724Y-160951882D01*
X214545813Y-160653804D01*
X214102000Y-160515000D01*
X213402000Y-160515000D01*
X213148000Y-160515000D01*
X212448000Y-160515000D01*
X212295446Y-160562712D01*
X223891579Y-148966579D01*
X223973303Y-148844272D01*
X224002000Y-148700000D01*
X224002000Y-148450783D01*
X224347417Y-148308059D01*
X224706957Y-147949147D01*
X224901778Y-147479965D01*
X224902221Y-146971943D01*
X224708219Y-146502423D01*
X224349307Y-146142883D01*
X223880125Y-145948062D01*
X223372103Y-145947619D01*
X222902583Y-146141621D01*
X222543043Y-146500533D01*
X222348222Y-146969715D01*
X222347779Y-147477737D01*
X222541781Y-147947257D01*
X222900693Y-148306797D01*
X223248000Y-148451011D01*
X223248000Y-148543842D01*
X211392000Y-160399842D01*
X211392000Y-159271064D01*
X211329048Y-158954585D01*
X211149777Y-158686287D01*
X210881479Y-158507016D01*
X210565000Y-158444064D01*
X210248521Y-158507016D01*
X209980223Y-158686287D01*
X209800952Y-158954585D01*
X209738000Y-159271064D01*
X209738000Y-160628936D01*
X209800952Y-160945415D01*
X209980223Y-161213713D01*
X210248521Y-161392984D01*
X210373915Y-161417927D01*
X209558421Y-162233421D01*
X209476697Y-162355728D01*
X209448000Y-162500000D01*
X198740653Y-162500000D01*
X198921395Y-162464048D01*
X199189693Y-162284777D01*
X199368964Y-162016479D01*
X199431916Y-161700000D01*
X199368964Y-161383521D01*
X199189693Y-161115223D01*
X198921395Y-160935952D01*
X198604916Y-160873000D01*
X197145084Y-160873000D01*
X196828605Y-160935952D01*
X196560307Y-161115223D01*
X196555111Y-161123000D01*
X196038281Y-161123000D01*
X194186346Y-159271064D01*
X199738000Y-159271064D01*
X199738000Y-160628936D01*
X199800952Y-160945415D01*
X199980223Y-161213713D01*
X200248521Y-161392984D01*
X200565000Y-161455936D01*
X200881479Y-161392984D01*
X201149777Y-161213713D01*
X201329048Y-160945415D01*
X201392000Y-160628936D01*
X201392000Y-159271064D01*
X201738000Y-159271064D01*
X201738000Y-160628936D01*
X201800952Y-160945415D01*
X201980223Y-161213713D01*
X202248521Y-161392984D01*
X202565000Y-161455936D01*
X202881479Y-161392984D01*
X203149777Y-161213713D01*
X203329048Y-160945415D01*
X203392000Y-160628936D01*
X203392000Y-159271064D01*
X203738000Y-159271064D01*
X203738000Y-160628936D01*
X203800952Y-160945415D01*
X203980223Y-161213713D01*
X204248521Y-161392984D01*
X204565000Y-161455936D01*
X204881479Y-161392984D01*
X205149777Y-161213713D01*
X205329048Y-160945415D01*
X205392000Y-160628936D01*
X205392000Y-159271064D01*
X205738000Y-159271064D01*
X205738000Y-160628936D01*
X205800952Y-160945415D01*
X205980223Y-161213713D01*
X206248521Y-161392984D01*
X206565000Y-161455936D01*
X206881479Y-161392984D01*
X207149777Y-161213713D01*
X207329048Y-160945415D01*
X207392000Y-160628936D01*
X207392000Y-159271064D01*
X207738000Y-159271064D01*
X207738000Y-160628936D01*
X207800952Y-160945415D01*
X207980223Y-161213713D01*
X208248521Y-161392984D01*
X208565000Y-161455936D01*
X208881479Y-161392984D01*
X209149777Y-161213713D01*
X209329048Y-160945415D01*
X209392000Y-160628936D01*
X209392000Y-159271064D01*
X209329048Y-158954585D01*
X209149777Y-158686287D01*
X208881479Y-158507016D01*
X208565000Y-158444064D01*
X208248521Y-158507016D01*
X207980223Y-158686287D01*
X207800952Y-158954585D01*
X207738000Y-159271064D01*
X207392000Y-159271064D01*
X207329048Y-158954585D01*
X207149777Y-158686287D01*
X206881479Y-158507016D01*
X206565000Y-158444064D01*
X206248521Y-158507016D01*
X205980223Y-158686287D01*
X205800952Y-158954585D01*
X205738000Y-159271064D01*
X205392000Y-159271064D01*
X205329048Y-158954585D01*
X205149777Y-158686287D01*
X204881479Y-158507016D01*
X204565000Y-158444064D01*
X204248521Y-158507016D01*
X203980223Y-158686287D01*
X203800952Y-158954585D01*
X203738000Y-159271064D01*
X203392000Y-159271064D01*
X203329048Y-158954585D01*
X203149777Y-158686287D01*
X202881479Y-158507016D01*
X202565000Y-158444064D01*
X202248521Y-158507016D01*
X201980223Y-158686287D01*
X201800952Y-158954585D01*
X201738000Y-159271064D01*
X201392000Y-159271064D01*
X201329048Y-158954585D01*
X201149777Y-158686287D01*
X200881479Y-158507016D01*
X200565000Y-158444064D01*
X200248521Y-158507016D01*
X199980223Y-158686287D01*
X199800952Y-158954585D01*
X199738000Y-159271064D01*
X194186346Y-159271064D01*
X193558101Y-158642819D01*
X193370908Y-158517742D01*
X193150100Y-158473819D01*
X193150095Y-158473820D01*
X192832526Y-158473820D01*
X192832526Y-157251230D01*
X192813211Y-157148580D01*
X192752545Y-157054303D01*
X192659980Y-156991055D01*
X192550100Y-156968804D01*
X190949900Y-156968804D01*
X190847250Y-156988119D01*
X190752973Y-157048785D01*
X190689725Y-157141350D01*
X190667474Y-157251230D01*
X190667474Y-158473820D01*
X188539512Y-158473820D01*
X183900622Y-153834930D01*
X190314900Y-153834930D01*
X190314900Y-155475079D01*
X190411573Y-155708468D01*
X190590201Y-155887097D01*
X190823590Y-155983770D01*
X191464250Y-155983770D01*
X191623000Y-155825020D01*
X191623000Y-153676180D01*
X191877000Y-153676180D01*
X191877000Y-155825020D01*
X192035750Y-155983770D01*
X192676410Y-155983770D01*
X192909799Y-155887097D01*
X193088427Y-155708468D01*
X193185100Y-155475079D01*
X193185100Y-153834930D01*
X193026350Y-153676180D01*
X191877000Y-153676180D01*
X191623000Y-153676180D01*
X190473650Y-153676180D01*
X190314900Y-153834930D01*
X183900622Y-153834930D01*
X181688973Y-151623281D01*
X190314900Y-151623281D01*
X190314900Y-153263430D01*
X190473650Y-153422180D01*
X191623000Y-153422180D01*
X191623000Y-151273340D01*
X191877000Y-151273340D01*
X191877000Y-153422180D01*
X193026350Y-153422180D01*
X193185100Y-153263430D01*
X193185100Y-151623281D01*
X193088427Y-151389892D01*
X192909799Y-151211263D01*
X192676410Y-151114590D01*
X192035750Y-151114590D01*
X191877000Y-151273340D01*
X191623000Y-151273340D01*
X191464250Y-151114590D01*
X190823590Y-151114590D01*
X190590201Y-151211263D01*
X190411573Y-151389892D01*
X190314900Y-151623281D01*
X181688973Y-151623281D01*
X181657526Y-151591834D01*
X181657526Y-150902820D01*
X181975095Y-150902820D01*
X181975100Y-150902821D01*
X182195908Y-150858898D01*
X182383101Y-150733821D01*
X188998000Y-144118922D01*
X188998000Y-145910879D01*
X188986129Y-145922729D01*
X188898100Y-146134724D01*
X188897900Y-146364269D01*
X188985558Y-146576417D01*
X189147729Y-146738871D01*
X189359724Y-146826900D01*
X189589269Y-146827100D01*
X189801417Y-146739442D01*
X189963871Y-146577271D01*
X190051900Y-146365276D01*
X190052100Y-146135731D01*
X189964442Y-145923583D01*
X189952000Y-145911119D01*
X189952000Y-143164922D01*
X190008001Y-143108921D01*
X190133078Y-142921728D01*
X190177001Y-142700920D01*
X190177000Y-142700915D01*
X190177000Y-140777692D01*
X222652073Y-140777692D01*
X222750736Y-141044547D01*
X223360461Y-141271068D01*
X224010460Y-141247016D01*
X224499264Y-141044547D01*
X224597927Y-140777692D01*
X223625000Y-139804765D01*
X222652073Y-140777692D01*
X190177000Y-140777692D01*
X190177000Y-139625213D01*
X203624392Y-139625213D01*
X203693857Y-139867397D01*
X204217302Y-140054144D01*
X204772368Y-140026362D01*
X205156143Y-139867397D01*
X205225608Y-139625213D01*
X204425000Y-138824605D01*
X203624392Y-139625213D01*
X190177000Y-139625213D01*
X190177000Y-138437302D01*
X203015856Y-138437302D01*
X203043638Y-138992368D01*
X203202603Y-139376143D01*
X203444787Y-139445608D01*
X204245395Y-138645000D01*
X204604605Y-138645000D01*
X205405213Y-139445608D01*
X205647397Y-139376143D01*
X205652934Y-139360621D01*
X221979092Y-139360621D01*
X222003144Y-140010620D01*
X222205613Y-140499424D01*
X222472468Y-140598087D01*
X223445395Y-139625160D01*
X223804605Y-139625160D01*
X224777532Y-140598087D01*
X225044387Y-140499424D01*
X225270908Y-139889699D01*
X225246856Y-139239700D01*
X225044387Y-138750896D01*
X224777532Y-138652233D01*
X223804605Y-139625160D01*
X223445395Y-139625160D01*
X222472468Y-138652233D01*
X222205613Y-138750896D01*
X221979092Y-139360621D01*
X205652934Y-139360621D01*
X205834144Y-138852698D01*
X205815121Y-138472628D01*
X222652073Y-138472628D01*
X223625000Y-139445555D01*
X224597927Y-138472628D01*
X224499264Y-138205773D01*
X223889539Y-137979252D01*
X223239540Y-138003304D01*
X222750736Y-138205773D01*
X222652073Y-138472628D01*
X205815121Y-138472628D01*
X205806362Y-138297632D01*
X205647397Y-137913857D01*
X205405213Y-137844392D01*
X204604605Y-138645000D01*
X204245395Y-138645000D01*
X203444787Y-137844392D01*
X203202603Y-137913857D01*
X203015856Y-138437302D01*
X190177000Y-138437302D01*
X190177000Y-137664787D01*
X203624392Y-137664787D01*
X204425000Y-138465395D01*
X205225608Y-137664787D01*
X205156143Y-137422603D01*
X204632698Y-137235856D01*
X204077632Y-137263638D01*
X203693857Y-137422603D01*
X203624392Y-137664787D01*
X190177000Y-137664787D01*
X190177000Y-133641181D01*
X190214220Y-133633777D01*
X190584257Y-133386526D01*
X190831508Y-133016489D01*
X190918331Y-132580000D01*
X190836811Y-132170169D01*
X196372580Y-126634400D01*
X214059820Y-126634400D01*
X217397915Y-129972495D01*
X217397900Y-129989269D01*
X217485558Y-130201417D01*
X217647729Y-130363871D01*
X217859724Y-130451900D01*
X217877335Y-130451915D01*
X234423000Y-146997580D01*
X234423000Y-149623000D01*
X232300248Y-149623000D01*
X232117707Y-149659309D01*
X231962958Y-149762710D01*
X223662710Y-158062958D01*
X223559309Y-158217708D01*
X223523000Y-158400248D01*
X223523000Y-163402420D01*
X223335000Y-163590420D01*
X223335000Y-163522998D01*
X223176252Y-163522998D01*
X223335000Y-163364250D01*
X223335000Y-163223690D01*
X223238327Y-162990301D01*
X223059698Y-162811673D01*
X222826309Y-162715000D01*
X222635750Y-162715000D01*
X222477000Y-162873750D01*
X222477000Y-163523000D01*
X222497000Y-163523000D01*
X222497000Y-163777000D01*
X222477000Y-163777000D01*
X222477000Y-164426250D01*
X222635750Y-164585000D01*
X222723000Y-164585000D01*
X222723000Y-165247232D01*
X222700000Y-165242574D01*
X222250732Y-165242574D01*
X222016578Y-165008420D01*
X221894271Y-164926696D01*
X221749999Y-164897999D01*
X214130594Y-164897999D01*
X214004916Y-164873000D01*
X212545084Y-164873000D01*
X212228605Y-164935952D01*
X211960307Y-165115223D01*
X211781036Y-165383521D01*
X211718084Y-165700000D01*
X211781036Y-166016479D01*
X211960307Y-166284777D01*
X212228605Y-166464048D01*
X212545084Y-166527000D01*
X214004916Y-166527000D01*
X214321395Y-166464048D01*
X214589693Y-166284777D01*
X214768964Y-166016479D01*
X214831916Y-165700000D01*
X214822368Y-165651999D01*
X220517574Y-165651999D01*
X220517574Y-166125000D01*
X220536889Y-166227650D01*
X220597555Y-166321927D01*
X220673000Y-166373477D01*
X220673000Y-166525000D01*
X220709309Y-166707540D01*
X220812710Y-166862290D01*
X221830394Y-167879974D01*
X221803073Y-167897555D01*
X221749421Y-167976076D01*
X221702445Y-167903073D01*
X221609880Y-167839825D01*
X221500000Y-167817574D01*
X220800000Y-167817574D01*
X220697350Y-167836889D01*
X220603073Y-167897555D01*
X220539825Y-167990120D01*
X220517574Y-168100000D01*
X220517574Y-168700000D01*
X220536889Y-168802650D01*
X220597555Y-168896927D01*
X220690120Y-168960175D01*
X220773000Y-168976958D01*
X220773000Y-169533842D01*
X220214268Y-170092574D01*
X219875000Y-170092574D01*
X219772350Y-170111889D01*
X219740526Y-170132368D01*
X217041579Y-167433421D01*
X216919272Y-167351697D01*
X216775000Y-167323000D01*
X214728525Y-167323000D01*
X214589693Y-167115223D01*
X214321395Y-166935952D01*
X214004916Y-166873000D01*
X212545084Y-166873000D01*
X212228605Y-166935952D01*
X211960307Y-167115223D01*
X211781036Y-167383521D01*
X211718084Y-167700000D01*
X211781036Y-168016479D01*
X211960307Y-168284777D01*
X212228605Y-168464048D01*
X212545084Y-168527000D01*
X214004916Y-168527000D01*
X214321395Y-168464048D01*
X214589693Y-168284777D01*
X214728525Y-168077000D01*
X216618842Y-168077000D01*
X219408421Y-170866579D01*
X219530728Y-170948303D01*
X219639043Y-170969848D01*
X219672555Y-171021927D01*
X219765120Y-171085175D01*
X219875000Y-171107426D01*
X220465000Y-171107426D01*
X220567650Y-171088111D01*
X220661927Y-171027445D01*
X220725175Y-170934880D01*
X220747426Y-170825000D01*
X220747426Y-170625732D01*
X221306158Y-170067000D01*
X223033842Y-170067000D01*
X223358421Y-170391579D01*
X223480728Y-170473303D01*
X223625000Y-170502000D01*
X227197654Y-170502000D01*
X227211889Y-170577650D01*
X227272555Y-170671927D01*
X227351076Y-170725579D01*
X227278073Y-170772555D01*
X227214825Y-170865120D01*
X227192574Y-170975000D01*
X227192574Y-171675000D01*
X227211889Y-171777650D01*
X227272555Y-171871927D01*
X227365120Y-171935175D01*
X227475000Y-171957426D01*
X228075000Y-171957426D01*
X228177650Y-171938111D01*
X228271927Y-171877445D01*
X228335175Y-171784880D01*
X228357426Y-171675000D01*
X228357426Y-170975000D01*
X228338111Y-170872350D01*
X228277445Y-170778073D01*
X228198924Y-170724421D01*
X228271927Y-170677445D01*
X228335175Y-170584880D01*
X228357426Y-170475000D01*
X228357426Y-169775000D01*
X228338111Y-169672350D01*
X228277445Y-169578073D01*
X228184880Y-169514825D01*
X228129320Y-169503574D01*
X228129320Y-167749856D01*
X228552320Y-167749856D01*
X228654970Y-167730541D01*
X228749247Y-167669875D01*
X228812495Y-167577310D01*
X228834746Y-167467430D01*
X228834746Y-165287430D01*
X228815431Y-165184780D01*
X228754765Y-165090503D01*
X228662200Y-165027255D01*
X228552320Y-165005004D01*
X226952320Y-165005004D01*
X226849670Y-165024319D01*
X226755393Y-165084985D01*
X226692145Y-165177550D01*
X226669894Y-165287430D01*
X226669894Y-167467430D01*
X226689209Y-167570080D01*
X226749875Y-167664357D01*
X226842440Y-167727605D01*
X226952320Y-167749856D01*
X227375320Y-167749856D01*
X227375320Y-169511330D01*
X227372350Y-169511889D01*
X227278073Y-169572555D01*
X227214825Y-169665120D01*
X227198042Y-169748000D01*
X223781158Y-169748000D01*
X223456579Y-169423421D01*
X223334272Y-169341697D01*
X223190000Y-169313000D01*
X221527000Y-169313000D01*
X221527000Y-168977346D01*
X221602650Y-168963111D01*
X221696927Y-168902445D01*
X221750579Y-168823924D01*
X221797555Y-168896927D01*
X221890120Y-168960175D01*
X222000000Y-168982426D01*
X222700000Y-168982426D01*
X222802650Y-168963111D01*
X222896927Y-168902445D01*
X222960175Y-168809880D01*
X222982426Y-168700000D01*
X222982426Y-168100000D01*
X222963111Y-167997350D01*
X222902445Y-167903073D01*
X222854362Y-167870218D01*
X223537290Y-167187290D01*
X223640691Y-167032540D01*
X223677000Y-166850000D01*
X223677000Y-164597580D01*
X224337290Y-163937290D01*
X224440691Y-163782540D01*
X224477000Y-163600000D01*
X224477000Y-158597828D01*
X225616508Y-157458320D01*
X226312680Y-157458320D01*
X226312680Y-158388879D01*
X226409353Y-158622268D01*
X226587981Y-158800897D01*
X226821370Y-158897570D01*
X227461930Y-158897570D01*
X227620680Y-158738820D01*
X227620680Y-157299570D01*
X227874680Y-157299570D01*
X227874680Y-158738820D01*
X228033430Y-158897570D01*
X228673990Y-158897570D01*
X228907379Y-158800897D01*
X229086007Y-158622268D01*
X229182680Y-158388879D01*
X229182680Y-157458320D01*
X229023930Y-157299570D01*
X227874680Y-157299570D01*
X227620680Y-157299570D01*
X226471430Y-157299570D01*
X226312680Y-157458320D01*
X225616508Y-157458320D01*
X226312680Y-156762148D01*
X226312680Y-156886820D01*
X226471430Y-157045570D01*
X227620680Y-157045570D01*
X227620680Y-155606320D01*
X227874680Y-155606320D01*
X227874680Y-157045570D01*
X229023930Y-157045570D01*
X229182680Y-156886820D01*
X229182680Y-155956261D01*
X229086007Y-155722872D01*
X228907379Y-155544243D01*
X228673990Y-155447570D01*
X228033430Y-155447570D01*
X227874680Y-155606320D01*
X227620680Y-155606320D01*
X227544594Y-155530234D01*
X232497828Y-150577000D01*
X234560879Y-150577000D01*
X234572729Y-150588871D01*
X234784724Y-150676900D01*
X235014269Y-150677100D01*
X235226417Y-150589442D01*
X235238881Y-150577000D01*
X236894607Y-150577000D01*
X245397587Y-159079980D01*
X245323583Y-159110558D01*
X245161129Y-159272729D01*
X245088499Y-159447639D01*
X244927271Y-159286129D01*
X244715276Y-159198100D01*
X244485731Y-159197900D01*
X244273583Y-159285558D01*
X244111129Y-159447729D01*
X244023100Y-159659724D01*
X244022900Y-159889269D01*
X244110558Y-160101417D01*
X244223000Y-160214055D01*
X244223000Y-160339864D01*
X244251697Y-160484136D01*
X244333421Y-160606443D01*
X244499246Y-160772268D01*
X244472281Y-160781318D01*
X243952665Y-161081318D01*
X243873425Y-161149370D01*
X243822111Y-161249047D01*
X243813620Y-161360835D01*
X243849290Y-161467119D01*
X244119671Y-161935432D01*
X237182104Y-168873000D01*
X236932426Y-168873000D01*
X236932426Y-168750000D01*
X236913111Y-168647350D01*
X236852445Y-168553073D01*
X236759880Y-168489825D01*
X236650000Y-168467574D01*
X235650000Y-168467574D01*
X235547350Y-168486889D01*
X235500090Y-168517300D01*
X235459880Y-168489825D01*
X235350000Y-168467574D01*
X234350000Y-168467574D01*
X234247350Y-168486889D01*
X234153073Y-168547555D01*
X234089825Y-168640120D01*
X234067574Y-168750000D01*
X234067574Y-169750000D01*
X234086889Y-169852650D01*
X234147555Y-169946927D01*
X234240120Y-170010175D01*
X234253880Y-170012961D01*
X231993842Y-172273000D01*
X227750000Y-172273000D01*
X227605728Y-172301697D01*
X227556739Y-172334431D01*
X227483421Y-172383420D01*
X226618841Y-173248001D01*
X222657426Y-173248001D01*
X222657426Y-172375000D01*
X222638111Y-172272350D01*
X222577445Y-172178073D01*
X222484880Y-172114825D01*
X222375000Y-172092574D01*
X222252000Y-172092574D01*
X222252000Y-171161158D01*
X222305732Y-171107426D01*
X222575000Y-171107426D01*
X222677650Y-171088111D01*
X222771927Y-171027445D01*
X222835175Y-170934880D01*
X222857426Y-170825000D01*
X222857426Y-170375000D01*
X222838111Y-170272350D01*
X222777445Y-170178073D01*
X222684880Y-170114825D01*
X222575000Y-170092574D01*
X221985000Y-170092574D01*
X221882350Y-170111889D01*
X221788073Y-170172555D01*
X221724825Y-170265120D01*
X221702574Y-170375000D01*
X221702574Y-170644268D01*
X221608421Y-170738421D01*
X221526697Y-170860728D01*
X221498000Y-171005000D01*
X221498000Y-172092574D01*
X221375000Y-172092574D01*
X221272350Y-172111889D01*
X221225090Y-172142300D01*
X221184880Y-172114825D01*
X221075000Y-172092574D01*
X220075000Y-172092574D01*
X219972350Y-172111889D01*
X219878073Y-172172555D01*
X219814825Y-172265120D01*
X219792574Y-172375000D01*
X219792574Y-172498000D01*
X219100000Y-172498000D01*
X218955728Y-172526697D01*
X218906739Y-172559431D01*
X218833421Y-172608420D01*
X217993804Y-173448038D01*
X217835731Y-173447900D01*
X217623583Y-173535558D01*
X217461129Y-173697729D01*
X217373100Y-173909724D01*
X217372900Y-174139269D01*
X217460558Y-174351417D01*
X217622729Y-174513871D01*
X217834724Y-174601900D01*
X218064269Y-174602100D01*
X218276417Y-174514442D01*
X218438871Y-174352271D01*
X218526900Y-174140276D01*
X218527039Y-173981120D01*
X219256159Y-173252000D01*
X219792574Y-173252000D01*
X219792574Y-173375000D01*
X219811889Y-173477650D01*
X219872555Y-173571927D01*
X219965120Y-173635175D01*
X220075000Y-173657426D01*
X220214395Y-173657426D01*
X220226697Y-173719272D01*
X220308421Y-173841579D01*
X220358422Y-173891580D01*
X220480729Y-173973304D01*
X220625001Y-174002001D01*
X226774999Y-174002001D01*
X226919271Y-173973304D01*
X227041578Y-173891580D01*
X227906159Y-173027000D01*
X232150000Y-173027000D01*
X232294272Y-172998303D01*
X232416579Y-172916579D01*
X235116580Y-170216579D01*
X235177771Y-170125000D01*
X235198303Y-170094272D01*
X235210605Y-170032426D01*
X235350000Y-170032426D01*
X235452650Y-170013111D01*
X235499910Y-169982700D01*
X235540120Y-170010175D01*
X235650000Y-170032426D01*
X236650000Y-170032426D01*
X236752650Y-170013111D01*
X236846927Y-169952445D01*
X236910175Y-169859880D01*
X236932426Y-169750000D01*
X236932426Y-169627000D01*
X237338262Y-169627000D01*
X237482534Y-169598303D01*
X237604841Y-169516579D01*
X241712990Y-165408430D01*
X244302980Y-165408430D01*
X244338650Y-165514714D01*
X245238650Y-167073560D01*
X245306702Y-167152800D01*
X245406379Y-167204114D01*
X245518167Y-167212605D01*
X245624451Y-167176935D01*
X246663681Y-166576935D01*
X246742921Y-166508883D01*
X246794235Y-166409206D01*
X246802726Y-166297418D01*
X246767056Y-166191134D01*
X245867056Y-164632288D01*
X245799004Y-164553048D01*
X245699327Y-164501734D01*
X245587539Y-164493243D01*
X245481255Y-164528913D01*
X244442025Y-165128913D01*
X244362785Y-165196965D01*
X244311471Y-165296642D01*
X244302980Y-165408430D01*
X241712990Y-165408430D01*
X244509970Y-162611451D01*
X244624290Y-162809459D01*
X244692342Y-162888699D01*
X244792019Y-162940013D01*
X244903807Y-162948504D01*
X245010091Y-162912834D01*
X245529707Y-162612834D01*
X245608947Y-162544782D01*
X245660261Y-162445105D01*
X245660633Y-162440210D01*
X245769833Y-162448504D01*
X245876117Y-162412834D01*
X246395733Y-162112834D01*
X246474973Y-162044782D01*
X246526287Y-161945105D01*
X246526659Y-161940210D01*
X246635858Y-161948504D01*
X246742142Y-161912834D01*
X247261758Y-161612834D01*
X247340998Y-161544782D01*
X247392312Y-161445105D01*
X247392684Y-161440210D01*
X247501884Y-161448504D01*
X247608168Y-161412834D01*
X248127784Y-161112834D01*
X248207024Y-161044782D01*
X248258338Y-160945105D01*
X248258710Y-160940210D01*
X248367909Y-160948504D01*
X248474193Y-160912834D01*
X248846295Y-160698001D01*
X248912651Y-160748918D01*
X249156662Y-160814300D01*
X249407120Y-160781326D01*
X249528847Y-160711047D01*
X249586954Y-160494190D01*
X249024829Y-159520561D01*
X249007508Y-159530561D01*
X248928411Y-159393561D01*
X249244799Y-159393561D01*
X249806924Y-160367190D01*
X250023781Y-160425297D01*
X250145508Y-160355017D01*
X250299293Y-160154602D01*
X250364676Y-159910591D01*
X250331703Y-159660133D01*
X250205393Y-159441359D01*
X250023923Y-159127043D01*
X249807066Y-159068936D01*
X249244799Y-159393561D01*
X248928411Y-159393561D01*
X248880508Y-159310591D01*
X248897829Y-159300591D01*
X248335704Y-158326962D01*
X248118847Y-158268855D01*
X247997120Y-158339135D01*
X247843335Y-158539550D01*
X247777952Y-158783561D01*
X247788869Y-158866485D01*
X247416767Y-159081318D01*
X247337527Y-159149370D01*
X247286213Y-159249047D01*
X247285841Y-159253942D01*
X247250866Y-159251286D01*
X247127000Y-159127420D01*
X247127000Y-159000000D01*
X247090691Y-158817460D01*
X246987290Y-158662710D01*
X246832540Y-158559309D01*
X246650000Y-158523000D01*
X246189767Y-158523000D01*
X245866729Y-158199962D01*
X248555674Y-158199962D01*
X249117799Y-159173591D01*
X249680066Y-158848966D01*
X249738173Y-158632109D01*
X249556702Y-158317793D01*
X249430393Y-158099019D01*
X249229977Y-157945234D01*
X248985966Y-157879852D01*
X248735508Y-157912826D01*
X248613781Y-157983105D01*
X248555674Y-158199962D01*
X245866729Y-158199962D01*
X237429477Y-149762710D01*
X237274727Y-149659309D01*
X237092187Y-149623000D01*
X235377000Y-149623000D01*
X235377000Y-146800000D01*
X235340691Y-146617460D01*
X235237290Y-146462710D01*
X218552085Y-129777505D01*
X218552100Y-129760731D01*
X218464442Y-129548583D01*
X218302271Y-129386129D01*
X218090276Y-129298100D01*
X218072665Y-129298085D01*
X214594690Y-125820110D01*
X214439940Y-125716709D01*
X214257400Y-125680400D01*
X196652000Y-125680400D01*
X196652000Y-125264121D01*
X196663871Y-125252271D01*
X196751900Y-125040276D01*
X196752100Y-124810731D01*
X196664442Y-124598583D01*
X196502271Y-124436129D01*
X196290276Y-124348100D01*
X196060731Y-124347900D01*
X195848583Y-124435558D01*
X195686129Y-124597729D01*
X195598100Y-124809724D01*
X195597900Y-125039269D01*
X195685558Y-125251417D01*
X195698000Y-125263881D01*
X195698000Y-125959820D01*
X191169094Y-130488726D01*
X191204709Y-130414791D01*
X191207358Y-130399026D01*
X191086217Y-130167000D01*
X189727000Y-130167000D01*
X189727000Y-130187000D01*
X189473000Y-130187000D01*
X189473000Y-130167000D01*
X188113783Y-130167000D01*
X187992642Y-130399026D01*
X187995291Y-130414791D01*
X188249268Y-130942036D01*
X188685680Y-131331954D01*
X189148517Y-131493853D01*
X188985780Y-131526223D01*
X188615743Y-131773474D01*
X188368492Y-132143511D01*
X188281669Y-132580000D01*
X188368492Y-133016489D01*
X188615743Y-133386526D01*
X188985780Y-133633777D01*
X189023000Y-133641181D01*
X189023000Y-142461918D01*
X181736098Y-149748820D01*
X181657526Y-149748820D01*
X181657526Y-148526230D01*
X181638211Y-148423580D01*
X181577545Y-148329303D01*
X181484980Y-148266055D01*
X181375100Y-148243804D01*
X179774900Y-148243804D01*
X179672250Y-148263119D01*
X179577973Y-148323785D01*
X179514725Y-148416350D01*
X179492474Y-148526230D01*
X179492474Y-152125410D01*
X179511789Y-152228060D01*
X179572455Y-152322337D01*
X179665020Y-152385585D01*
X179774900Y-152407836D01*
X180098000Y-152407836D01*
X180098000Y-153777420D01*
X173252505Y-160622915D01*
X173235731Y-160622900D01*
X173023583Y-160710558D01*
X172861129Y-160872729D01*
X172773100Y-161084724D01*
X172772900Y-161314269D01*
X152882773Y-161314269D01*
X152201912Y-160768564D01*
X149491121Y-158395153D01*
X147469876Y-156486582D01*
X147469876Y-155236254D01*
X150453947Y-153923982D01*
X150456903Y-153921913D01*
X150460407Y-153921057D01*
X153583172Y-152466185D01*
X153586491Y-152463753D01*
X153590462Y-152462678D01*
X155429222Y-151549997D01*
X155432312Y-151547613D01*
X155436052Y-151546506D01*
X157239168Y-150598164D01*
X157242436Y-150595518D01*
X157246440Y-150594222D01*
X158737642Y-149761115D01*
X158740987Y-149758264D01*
X158745131Y-149756800D01*
X160203399Y-148890750D01*
X160206854Y-148887644D01*
X160211189Y-148885975D01*
X161484634Y-148080730D01*
X161488134Y-148077402D01*
X161492592Y-148075535D01*
X162734497Y-147238743D01*
X162738052Y-147235160D01*
X162742647Y-147233070D01*
X163854463Y-146433799D01*
X163858025Y-146429985D01*
X163862704Y-146427676D01*
X164943858Y-145597751D01*
X164947419Y-145593689D01*
X164952181Y-145591144D01*
X165538587Y-145109930D01*
X179139900Y-145109930D01*
X179139900Y-146750079D01*
X179236573Y-146983468D01*
X179415201Y-147162097D01*
X179648590Y-147258770D01*
X180289250Y-147258770D01*
X180448000Y-147100020D01*
X180448000Y-144951180D01*
X180702000Y-144951180D01*
X180702000Y-147100020D01*
X180860750Y-147258770D01*
X181501410Y-147258770D01*
X181734799Y-147162097D01*
X181913427Y-146983468D01*
X182010100Y-146750079D01*
X182010100Y-145109930D01*
X181851350Y-144951180D01*
X180702000Y-144951180D01*
X180448000Y-144951180D01*
X179298650Y-144951180D01*
X179139900Y-145109930D01*
X165538587Y-145109930D01*
X165933916Y-144785518D01*
X165937436Y-144781229D01*
X165942241Y-144778451D01*
X166893924Y-143942781D01*
X166897392Y-143938256D01*
X166902227Y-143935234D01*
X167774138Y-143114952D01*
X167777519Y-143110211D01*
X167782345Y-143106955D01*
X167989130Y-142898281D01*
X179139900Y-142898281D01*
X179139900Y-144538430D01*
X179298650Y-144697180D01*
X180448000Y-144697180D01*
X180448000Y-142548340D01*
X180702000Y-142548340D01*
X180702000Y-144697180D01*
X181851350Y-144697180D01*
X182010100Y-144538430D01*
X182010100Y-142898281D01*
X181913427Y-142664892D01*
X181734799Y-142486263D01*
X181501410Y-142389590D01*
X180860750Y-142389590D01*
X180702000Y-142548340D01*
X180448000Y-142548340D01*
X180289250Y-142389590D01*
X179648590Y-142389590D01*
X179415201Y-142486263D01*
X179236573Y-142664892D01*
X179139900Y-142898281D01*
X167989130Y-142898281D01*
X168624600Y-142257009D01*
X168627878Y-142252054D01*
X168632680Y-142248558D01*
X169408826Y-141407180D01*
X169411972Y-141402034D01*
X169416716Y-141398309D01*
X170163391Y-140527467D01*
X170166390Y-140522136D01*
X170171056Y-140518186D01*
X170861547Y-139650151D01*
X170864373Y-139644665D01*
X170868933Y-139640504D01*
X171529951Y-138742997D01*
X171532592Y-138737365D01*
X171537026Y-138733004D01*
X172149239Y-137833057D01*
X172151675Y-137827311D01*
X172155958Y-137822770D01*
X172738500Y-136893167D01*
X172740597Y-136887654D01*
X172744488Y-136883223D01*
X173223698Y-136054533D01*
X173228969Y-136039041D01*
X173238498Y-136025738D01*
X173249366Y-135979091D01*
X173264794Y-135933744D01*
X173263735Y-135917414D01*
X173267448Y-135901476D01*
X173259637Y-135854217D01*
X173256537Y-135806422D01*
X173249310Y-135791741D01*
X173246641Y-135775594D01*
X173221339Y-135734922D01*
X173200185Y-135691951D01*
X173187889Y-135681153D01*
X173179245Y-135667258D01*
X172425781Y-134863089D01*
X172411000Y-134852501D01*
X172399755Y-134838210D01*
X171404768Y-133986831D01*
X171395389Y-133981567D01*
X171388205Y-133973565D01*
X169910132Y-132866469D01*
X168679859Y-131901385D01*
X168117564Y-131389886D01*
X167598240Y-130837834D01*
X167262400Y-130415340D01*
X166957687Y-129961215D01*
X166801705Y-129680974D01*
X187992642Y-129680974D01*
X188113783Y-129913000D01*
X189473000Y-129913000D01*
X189473000Y-129893000D01*
X189727000Y-129893000D01*
X189727000Y-129913000D01*
X191086217Y-129913000D01*
X191207358Y-129680974D01*
X191204709Y-129665209D01*
X190950732Y-129137964D01*
X190514320Y-128748046D01*
X190222665Y-128646026D01*
X190616000Y-128646026D01*
X190718650Y-128626711D01*
X190812927Y-128566045D01*
X190876175Y-128473480D01*
X190898426Y-128363600D01*
X190898426Y-126636400D01*
X190879111Y-126533750D01*
X190818445Y-126439473D01*
X190725880Y-126376225D01*
X190616000Y-126353974D01*
X190177000Y-126353974D01*
X190177000Y-115139002D01*
X204833001Y-100483001D01*
X204958078Y-100295808D01*
X205002001Y-100075000D01*
X205002000Y-100074995D01*
X205002000Y-94926004D01*
X205062560Y-94900981D01*
X205379867Y-94584228D01*
X205551804Y-94170158D01*
X205552195Y-93721809D01*
X205380981Y-93307440D01*
X205064228Y-92990133D01*
X204650158Y-92818196D01*
X204201809Y-92817805D01*
X203787440Y-92989019D01*
X203470133Y-93305772D01*
X203298196Y-93719842D01*
X203297805Y-94168191D01*
X203469019Y-94582560D01*
X203785772Y-94899867D01*
X203848000Y-94925706D01*
X203848000Y-99835998D01*
X189191999Y-114491999D01*
X189066922Y-114679192D01*
X189022999Y-114900000D01*
X189023000Y-114900005D01*
X189023000Y-126353974D01*
X188584000Y-126353974D01*
X188481350Y-126373289D01*
X188387073Y-126433955D01*
X188323825Y-126526520D01*
X188301574Y-126636400D01*
X188301574Y-128363600D01*
X188320889Y-128466250D01*
X188381555Y-128560527D01*
X188474120Y-128623775D01*
X188584000Y-128646026D01*
X188977335Y-128646026D01*
X188685680Y-128748046D01*
X188249268Y-129137964D01*
X187995291Y-129665209D01*
X187992642Y-129680974D01*
X166801705Y-129680974D01*
X166719161Y-129532676D01*
X166513354Y-129078300D01*
X166308391Y-128429638D01*
X168541049Y-127544153D01*
X168549231Y-127538863D01*
X168558696Y-127536547D01*
X170995433Y-126400225D01*
X171003326Y-126394437D01*
X171012682Y-126391553D01*
X173367816Y-125118970D01*
X173375379Y-125112706D01*
X173384573Y-125109263D01*
X175654753Y-123702891D01*
X175661939Y-123696184D01*
X175670924Y-123692197D01*
X177852159Y-122154904D01*
X177858933Y-122147784D01*
X177867667Y-122143272D01*
X179955329Y-120478355D01*
X179961662Y-120470855D01*
X179970103Y-120465840D01*
X181958918Y-118677266D01*
X181964786Y-118669417D01*
X181972899Y-118663924D01*
X183857010Y-116756499D01*
X183862394Y-116748334D01*
X183870151Y-116742385D01*
X185643184Y-114721923D01*
X185648067Y-114713471D01*
X185655449Y-114707087D01*
X187310646Y-112580500D01*
X187313637Y-112574538D01*
X187318505Y-112569974D01*
X187895035Y-111764478D01*
X187912526Y-111725818D01*
X187934987Y-111689823D01*
X187938591Y-111668205D01*
X187947627Y-111648233D01*
X187948992Y-111605821D01*
X187955969Y-111563972D01*
X187951026Y-111542620D01*
X187951731Y-111520709D01*
X187936760Y-111480999D01*
X187927192Y-111439670D01*
X187914455Y-111421837D01*
X187906721Y-111401322D01*
X187877693Y-111370364D01*
X187853037Y-111335842D01*
X187834443Y-111324239D01*
X187819450Y-111308249D01*
X187780792Y-111290759D01*
X187744795Y-111268296D01*
X186628803Y-110846260D01*
X185619359Y-110305816D01*
X184672178Y-109630092D01*
X183762378Y-108798296D01*
X182860636Y-107773024D01*
X181920579Y-106483420D01*
X180828799Y-104753099D01*
X180197125Y-103696061D01*
X182193505Y-102778826D01*
X182201859Y-102772773D01*
X182211727Y-102769757D01*
X184442639Y-101571377D01*
X184450638Y-101564785D01*
X184460339Y-101561143D01*
X186603375Y-100231035D01*
X186610921Y-100223979D01*
X186620348Y-100219753D01*
X188683687Y-98753520D01*
X188690700Y-98746091D01*
X188699750Y-98741344D01*
X190691106Y-97132777D01*
X190697525Y-97125078D01*
X190706105Y-97119893D01*
X192632840Y-95360814D01*
X192638625Y-95352954D01*
X192646666Y-95347424D01*
X194515898Y-93427365D01*
X194521028Y-93419460D01*
X194528477Y-93413687D01*
X196347294Y-91319540D01*
X196351768Y-91311705D01*
X196358591Y-91305796D01*
X198134363Y-89021220D01*
X198138202Y-89013556D01*
X198144380Y-89007621D01*
X199885217Y-86511986D01*
X199888335Y-86504864D01*
X199893683Y-86499222D01*
X201483603Y-83975830D01*
X201505217Y-83919418D01*
X201528015Y-83863478D01*
X201527995Y-83859968D01*
X201529252Y-83856687D01*
X201527632Y-83796274D01*
X201527288Y-83735891D01*
X201504355Y-83623937D01*
X201484440Y-83576622D01*
X201468248Y-83527891D01*
X201443948Y-83485167D01*
X201410351Y-83446354D01*
X201379871Y-83405056D01*
X201307498Y-83339153D01*
X201301530Y-83335557D01*
X201297160Y-83330128D01*
X201247086Y-83302751D01*
X201198215Y-83273304D01*
X201191325Y-83272265D01*
X201185211Y-83268923D01*
X200942878Y-83192904D01*
X200924775Y-83190948D01*
X200907931Y-83184024D01*
X200675049Y-83138354D01*
X200670343Y-83058765D01*
X200714458Y-82088521D01*
X200710828Y-82064653D01*
X200713121Y-82040621D01*
X200608690Y-81012575D01*
X200602293Y-80991715D01*
X200601479Y-80969913D01*
X200340706Y-79874195D01*
X200333023Y-79857442D01*
X200330288Y-79839218D01*
X199895085Y-78629394D01*
X199888299Y-78618115D01*
X199885317Y-78605295D01*
X199228998Y-77154566D01*
X199228839Y-77154344D01*
X199228776Y-77154075D01*
X198921303Y-76477407D01*
X202797735Y-76477407D01*
X203029717Y-77038846D01*
X203458894Y-77468773D01*
X204019928Y-77701735D01*
X204627407Y-77702265D01*
X205188846Y-77470283D01*
X205618773Y-77041106D01*
X205851735Y-76480072D01*
X205852265Y-75872593D01*
X205620283Y-75311154D01*
X205191106Y-74881227D01*
X204630072Y-74648265D01*
X204022593Y-74647735D01*
X203461154Y-74879717D01*
X203031227Y-75308894D01*
X202798265Y-75869928D01*
X202797735Y-76477407D01*
X198921303Y-76477407D01*
X198716110Y-76025833D01*
X198927917Y-75987745D01*
X198938188Y-75983711D01*
X198949211Y-75983179D01*
X199539863Y-75835794D01*
X199550405Y-75830819D01*
X199561977Y-75829441D01*
X200101734Y-75653614D01*
X200112364Y-75647650D01*
X200124330Y-75645322D01*
X200632067Y-75437482D01*
X200642657Y-75430470D01*
X200654898Y-75427096D01*
X201120940Y-75193133D01*
X201131242Y-75185111D01*
X201143516Y-75180661D01*
X201579620Y-74916776D01*
X201589477Y-74907766D01*
X201601629Y-74902215D01*
X202003965Y-74612008D01*
X202013140Y-74602151D01*
X202024888Y-74595581D01*
X202398614Y-74276779D01*
X202411078Y-74260988D01*
X202427311Y-74249105D01*
X203091626Y-73525274D01*
X203105143Y-73503038D01*
X203123450Y-73484558D01*
X203684767Y-72635880D01*
X203693993Y-72613308D01*
X203708408Y-72593642D01*
X204142796Y-71661746D01*
X204788942Y-71661746D01*
X204881907Y-71976852D01*
X204881907Y-71976852D01*
G37*
X204881907Y-71976852D02*
X204887716Y-71987921D01*
X204889782Y-72000251D01*
X205085446Y-72516304D01*
X205092480Y-72527554D01*
X205095714Y-72540422D01*
X205312396Y-72997606D01*
X205320692Y-73008773D01*
X205325205Y-73021934D01*
X205572978Y-73448035D01*
X205582561Y-73458895D01*
X205588441Y-73472134D01*
X205855745Y-73851117D01*
X205866500Y-73861343D01*
X205873715Y-73874311D01*
X206170520Y-74223813D01*
X206182345Y-74233189D01*
X206190852Y-74245651D01*
X206508792Y-74557343D01*
X206521409Y-74565593D01*
X206531006Y-74577218D01*
X206877769Y-74860100D01*
X206897412Y-74870525D01*
X206913748Y-74885612D01*
X207687766Y-75359428D01*
X207714032Y-75369104D01*
X207737518Y-75384334D01*
X208636459Y-75742290D01*
X208661447Y-75746904D01*
X208684643Y-75757286D01*
X209729786Y-75995918D01*
X209750662Y-75996505D01*
X209770650Y-76002560D01*
X210536650Y-76077703D01*
X210539256Y-76103365D01*
X210531349Y-76331268D01*
X210423022Y-76748755D01*
X210199818Y-77115743D01*
X209813327Y-77499294D01*
X209149726Y-77983560D01*
X208743444Y-78273520D01*
X208733672Y-78283913D01*
X208721221Y-78290874D01*
X208358871Y-78599880D01*
X208340320Y-78623376D01*
X208317267Y-78642484D01*
X208034453Y-78990552D01*
X208012384Y-79032330D01*
X207986134Y-79071614D01*
X207817075Y-79479726D01*
X207807421Y-79528254D01*
X207793482Y-79575723D01*
X207744669Y-80121133D01*
X207749339Y-80164577D01*
X207748549Y-80208268D01*
X207843985Y-80737931D01*
X207853731Y-80762719D01*
X207857551Y-80789076D01*
X208105891Y-81490536D01*
X208264785Y-82034533D01*
X208327717Y-82670211D01*
X208290877Y-83110710D01*
X208126457Y-83130086D01*
X207534550Y-83139362D01*
X207519521Y-83142597D01*
X207504206Y-83141251D01*
X207457595Y-83155927D01*
X207409818Y-83166211D01*
X207397169Y-83174952D01*
X207382507Y-83179569D01*
X207221313Y-83267918D01*
X207214331Y-83273772D01*
X207205799Y-83276983D01*
X207165670Y-83314569D01*
X207123541Y-83349890D01*
X207119329Y-83357974D01*
X207112678Y-83364203D01*
X207089987Y-83414284D01*
X207064581Y-83463040D01*
X207063783Y-83472117D01*
X207060021Y-83480420D01*
X207058223Y-83535377D01*
X207053409Y-83590139D01*
X207056146Y-83598832D01*
X207055848Y-83607941D01*
X207075218Y-83659404D01*
X207091727Y-83711838D01*
X207097581Y-83718820D01*
X207100792Y-83727352D01*
X208555801Y-86067150D01*
X208562227Y-86074011D01*
X208566030Y-86082603D01*
X210164944Y-88355689D01*
X210171638Y-88362070D01*
X210175846Y-88370304D01*
X211926548Y-90585636D01*
X211933424Y-90591494D01*
X211937964Y-90599299D01*
X213850707Y-92765971D01*
X213857663Y-92771272D01*
X213862455Y-92778593D01*
X215950391Y-94906278D01*
X215957334Y-94911012D01*
X215962285Y-94917799D01*
X218242284Y-97017195D01*
X218249111Y-97021360D01*
X218254132Y-97027589D01*
X220748105Y-99111145D01*
X220754718Y-99114754D01*
X220759708Y-99120400D01*
X223496739Y-101203638D01*
X223503038Y-101206714D01*
X223507900Y-101211767D01*
X226528286Y-103315389D01*
X226532650Y-103317296D01*
X226536047Y-103320630D01*
X227811977Y-104156058D01*
X227533688Y-104689488D01*
X227091815Y-105448003D01*
X226640935Y-106142647D01*
X226160986Y-106807445D01*
X225670949Y-107418231D01*
X225152453Y-107999991D01*
X224621819Y-108535713D01*
X224062890Y-109042949D01*
X223488807Y-109510427D01*
X222886221Y-109949597D01*
X222264527Y-110353668D01*
X221613741Y-110729196D01*
X220939091Y-111072737D01*
X220230749Y-111388654D01*
X220213891Y-111395653D01*
X220188440Y-111412689D01*
X220160043Y-111424154D01*
X220135940Y-111447829D01*
X220107862Y-111466623D01*
X220090868Y-111492101D01*
X220069020Y-111513561D01*
X220055810Y-111544660D01*
X220037063Y-111572767D01*
X220031113Y-111602805D01*
X220019139Y-111630996D01*
X220018837Y-111664784D01*
X220012272Y-111697925D01*
X220018271Y-111727958D01*
X220017997Y-111758581D01*
X220030646Y-111789908D01*
X220037264Y-111823042D01*
X220054300Y-111848493D01*
X220065765Y-111876890D01*
X221045532Y-113372036D01*
X221055436Y-113382119D01*
X221061827Y-113394726D01*
X222189772Y-114831555D01*
X222200070Y-114840387D01*
X222207176Y-114851946D01*
X223498955Y-116245409D01*
X223509290Y-116252896D01*
X223516792Y-116263221D01*
X224995521Y-117630180D01*
X225005519Y-117636307D01*
X225013066Y-117645283D01*
X226713551Y-119007313D01*
X226722833Y-119012133D01*
X226730054Y-119019697D01*
X228708234Y-120408842D01*
X228716378Y-120412439D01*
X228722860Y-120418537D01*
X231081396Y-121892475D01*
X231087791Y-121894898D01*
X231092964Y-121899378D01*
X234074196Y-123595865D01*
X234077137Y-123596843D01*
X234079515Y-123598826D01*
X238759016Y-126147593D01*
X241774667Y-127883790D01*
X241416767Y-128744136D01*
X240813141Y-129812844D01*
X240037182Y-130890260D01*
X239020250Y-132059070D01*
X237541298Y-133568872D01*
X237540962Y-133569386D01*
X237540458Y-133569733D01*
X236377814Y-134765397D01*
X236372334Y-134773852D01*
X236364398Y-134780060D01*
X235273608Y-136047546D01*
X235268700Y-136056234D01*
X235261223Y-136062845D01*
X235237476Y-136111499D01*
X235210848Y-136158631D01*
X235209638Y-136168536D01*
X235205260Y-136177506D01*
X235201940Y-136231545D01*
X235195376Y-136285279D01*
X235198049Y-136294894D01*
X235197437Y-136304856D01*
X235215050Y-136356052D01*
X235229548Y-136408208D01*
X235235696Y-136416068D01*
X235238943Y-136425505D01*
X236265890Y-138187537D01*
X236274276Y-138197021D01*
X236279295Y-138208638D01*
X237444853Y-139897214D01*
X237453767Y-139905862D01*
X237459534Y-139916864D01*
X238772583Y-141543290D01*
X238781820Y-141550995D01*
X238788164Y-141561217D01*
X240261462Y-143136869D01*
X240270790Y-143143566D01*
X240277509Y-143152881D01*
X241928541Y-144689800D01*
X241937731Y-144695476D01*
X241944610Y-144703810D01*
X243797576Y-146215803D01*
X243806401Y-146220488D01*
X243813212Y-146227795D01*
X245902339Y-147732343D01*
X245910569Y-147736095D01*
X245917086Y-147742364D01*
X248293795Y-149264452D01*
X248301188Y-149267347D01*
X248307168Y-149272572D01*
X251056802Y-150853336D01*
X251063055Y-150855446D01*
X251068193Y-150859587D01*
X254358003Y-152580755D01*
X254362554Y-152582092D01*
X254366334Y-152584964D01*
X258648255Y-154671764D01*
X258649720Y-154672149D01*
X258650932Y-154673053D01*
X261156597Y-155866138D01*
X261177507Y-155964031D01*
X261189385Y-156159710D01*
X261121196Y-156537317D01*
X260934014Y-156888011D01*
X260580230Y-157273631D01*
X259964182Y-157759537D01*
X259518384Y-158094072D01*
X259516258Y-158096445D01*
X259513412Y-158097878D01*
X258030994Y-159255334D01*
X256518771Y-160385183D01*
X254979475Y-161485278D01*
X253407998Y-162559068D01*
X253378368Y-162578414D01*
X253384520Y-162497418D01*
X253348850Y-162391134D01*
X252448850Y-160832288D01*
X252380798Y-160753048D01*
X252281121Y-160701734D01*
X252169333Y-160693243D01*
X252063049Y-160728913D01*
X251023819Y-161328913D01*
X250944579Y-161396965D01*
X250893265Y-161496642D01*
X250884774Y-161608430D01*
X250920444Y-161714714D01*
X251820444Y-163273560D01*
X251888496Y-163352800D01*
X251988173Y-163404114D01*
X252099961Y-163412605D01*
X252101671Y-163412031D01*
X251809767Y-163602629D01*
X250179761Y-164619021D01*
X248523344Y-165604673D01*
X246835489Y-166562349D01*
X245121500Y-167488776D01*
X243376421Y-168386400D01*
X241605367Y-169252308D01*
X239803618Y-170088563D01*
X237976098Y-170892584D01*
X236118065Y-171666186D01*
X234234363Y-172407047D01*
X232320596Y-173116604D01*
X230381124Y-173792922D01*
X228411799Y-174437143D01*
X226416843Y-175047559D01*
X224392332Y-175625027D01*
X222342107Y-176168120D01*
X220262642Y-176677438D01*
X218157298Y-177151779D01*
X216022456Y-177591610D01*
X214417206Y-177898350D01*
X195276365Y-178114595D01*
X193341127Y-177922725D01*
X189548085Y-177428028D01*
X185895357Y-176793422D01*
X182371509Y-176021979D01*
X178966997Y-175116065D01*
X175672479Y-174077081D01*
X172478864Y-172905406D01*
X169377184Y-171600348D01*
X166358585Y-170160028D01*
X163414375Y-168581365D01*
X160535719Y-166859858D01*
X159936088Y-166462430D01*
X182669894Y-166462430D01*
X182669894Y-168642430D01*
X182689209Y-168745080D01*
X182749875Y-168839357D01*
X182842440Y-168902605D01*
X182952320Y-168924856D01*
X184301588Y-168924856D01*
X188273000Y-172896269D01*
X188273000Y-172997654D01*
X188197350Y-173011889D01*
X188103073Y-173072555D01*
X188049421Y-173151076D01*
X188002445Y-173078073D01*
X187909880Y-173014825D01*
X187816231Y-172995861D01*
X187798303Y-172905728D01*
X187716579Y-172783421D01*
X187151962Y-172218804D01*
X187152100Y-172060731D01*
X187064442Y-171848583D01*
X186902271Y-171686129D01*
X186690276Y-171598100D01*
X186460731Y-171597900D01*
X186248583Y-171685558D01*
X186086129Y-171847729D01*
X185998100Y-172059724D01*
X185997900Y-172289269D01*
X186085558Y-172501417D01*
X186247729Y-172663871D01*
X186459724Y-172751900D01*
X186618881Y-172752039D01*
X186925175Y-173058333D01*
X186903073Y-173072555D01*
X186839825Y-173165120D01*
X186817574Y-173275000D01*
X186817574Y-173875000D01*
X186836889Y-173977650D01*
X186897555Y-174071927D01*
X186990120Y-174135175D01*
X187100000Y-174157426D01*
X187800000Y-174157426D01*
X187902650Y-174138111D01*
X187996927Y-174077445D01*
X188050579Y-173998924D01*
X188097555Y-174071927D01*
X188190120Y-174135175D01*
X188300000Y-174157426D01*
X189000000Y-174157426D01*
X189102650Y-174138111D01*
X189196927Y-174077445D01*
X189260175Y-173984880D01*
X189266833Y-173952000D01*
X189282063Y-173952000D01*
X189286889Y-173977650D01*
X189347555Y-174071927D01*
X189440120Y-174135175D01*
X189538950Y-174155188D01*
X189551697Y-174219272D01*
X189633421Y-174341579D01*
X191258421Y-175966579D01*
X191380728Y-176048303D01*
X191525000Y-176077000D01*
X196342574Y-176077000D01*
X196342574Y-176250000D01*
X196361889Y-176352650D01*
X196422555Y-176446927D01*
X196515120Y-176510175D01*
X196625000Y-176532426D01*
X199125000Y-176532426D01*
X199227650Y-176513111D01*
X199321927Y-176452445D01*
X199385175Y-176359880D01*
X199407426Y-176250000D01*
X199407426Y-175700000D01*
X211718084Y-175700000D01*
X211781036Y-176016479D01*
X211960307Y-176284777D01*
X212228605Y-176464048D01*
X212545084Y-176527000D01*
X214004916Y-176527000D01*
X214321395Y-176464048D01*
X214589693Y-176284777D01*
X214728525Y-176077000D01*
X215019480Y-176077000D01*
X215060558Y-176176417D01*
X215222729Y-176338871D01*
X215434724Y-176426900D01*
X215664269Y-176427100D01*
X215876417Y-176339442D01*
X216038871Y-176177271D01*
X216126900Y-175965276D01*
X216127100Y-175735731D01*
X216039442Y-175523583D01*
X215877271Y-175361129D01*
X215665276Y-175273100D01*
X215435731Y-175272900D01*
X215314480Y-175323000D01*
X214728525Y-175323000D01*
X214589693Y-175115223D01*
X214321395Y-174935952D01*
X214004916Y-174873000D01*
X212545084Y-174873000D01*
X212228605Y-174935952D01*
X211960307Y-175115223D01*
X211781036Y-175383521D01*
X211718084Y-175700000D01*
X199407426Y-175700000D01*
X199407426Y-175150000D01*
X199388111Y-175047350D01*
X199327445Y-174953073D01*
X199234880Y-174889825D01*
X199125000Y-174867574D01*
X196625000Y-174867574D01*
X196522350Y-174886889D01*
X196428073Y-174947555D01*
X196364825Y-175040120D01*
X196342574Y-175150000D01*
X196342574Y-175323000D01*
X191681158Y-175323000D01*
X190440037Y-174081879D01*
X190446927Y-174077445D01*
X190500579Y-173998924D01*
X190547555Y-174071927D01*
X190640120Y-174135175D01*
X190750000Y-174157426D01*
X191450000Y-174157426D01*
X191552650Y-174138111D01*
X191646927Y-174077445D01*
X191666151Y-174049310D01*
X192223038Y-174606196D01*
X192222900Y-174764269D01*
X192310558Y-174976417D01*
X192472729Y-175138871D01*
X192684724Y-175226900D01*
X192914269Y-175227100D01*
X193126417Y-175139442D01*
X193288871Y-174977271D01*
X193376900Y-174765276D01*
X193377100Y-174535731D01*
X193289442Y-174323583D01*
X193127271Y-174161129D01*
X192915276Y-174073100D01*
X192756120Y-174072961D01*
X192383159Y-173700000D01*
X196318084Y-173700000D01*
X196381036Y-174016479D01*
X196560307Y-174284777D01*
X196828605Y-174464048D01*
X197145084Y-174527000D01*
X198604916Y-174527000D01*
X198921395Y-174464048D01*
X199189693Y-174284777D01*
X199368964Y-174016479D01*
X199431916Y-173700000D01*
X211718084Y-173700000D01*
X211781036Y-174016479D01*
X211960307Y-174284777D01*
X212228605Y-174464048D01*
X212545084Y-174527000D01*
X214004916Y-174527000D01*
X214321395Y-174464048D01*
X214589693Y-174284777D01*
X214728525Y-174077000D01*
X215475000Y-174077000D01*
X215619272Y-174048303D01*
X215741579Y-173966579D01*
X216106196Y-173601962D01*
X216264269Y-173602100D01*
X216476417Y-173514442D01*
X216638871Y-173352271D01*
X216726900Y-173140276D01*
X216727100Y-172910731D01*
X216639442Y-172698583D01*
X216477271Y-172536129D01*
X216265276Y-172448100D01*
X216035731Y-172447900D01*
X215823583Y-172535558D01*
X215661129Y-172697729D01*
X215573100Y-172909724D01*
X215572961Y-173068881D01*
X215318842Y-173323000D01*
X214728525Y-173323000D01*
X214589693Y-173115223D01*
X214321395Y-172935952D01*
X214004916Y-172873000D01*
X212545084Y-172873000D01*
X212228605Y-172935952D01*
X211960307Y-173115223D01*
X211781036Y-173383521D01*
X211718084Y-173700000D01*
X199431916Y-173700000D01*
X199368964Y-173383521D01*
X199189693Y-173115223D01*
X198921395Y-172935952D01*
X198604916Y-172873000D01*
X197145084Y-172873000D01*
X196828605Y-172935952D01*
X196560307Y-173115223D01*
X196381036Y-173383521D01*
X196318084Y-173700000D01*
X192383159Y-173700000D01*
X191991579Y-173308421D01*
X191869272Y-173226697D01*
X191725000Y-173198000D01*
X191717937Y-173198000D01*
X191713111Y-173172350D01*
X191652445Y-173078073D01*
X191559880Y-173014825D01*
X191450000Y-172992574D01*
X190750000Y-172992574D01*
X190647350Y-173011889D01*
X190553073Y-173072555D01*
X190499421Y-173151076D01*
X190452445Y-173078073D01*
X190359880Y-173014825D01*
X190250000Y-172992574D01*
X189550000Y-172992574D01*
X189447350Y-173011889D01*
X189353073Y-173072555D01*
X189289825Y-173165120D01*
X189283167Y-173198000D01*
X189267937Y-173198000D01*
X189263111Y-173172350D01*
X189202445Y-173078073D01*
X189109880Y-173014825D01*
X189027000Y-172998042D01*
X189027000Y-171439269D01*
X193672900Y-171439269D01*
X193760558Y-171651417D01*
X193922729Y-171813871D01*
X194134724Y-171901900D01*
X194364269Y-171902100D01*
X194576417Y-171814442D01*
X194603506Y-171787400D01*
X194782685Y-171966579D01*
X194904992Y-172048303D01*
X195049264Y-172077000D01*
X196421475Y-172077000D01*
X196560307Y-172284777D01*
X196828605Y-172464048D01*
X197145084Y-172527000D01*
X198604916Y-172527000D01*
X198921395Y-172464048D01*
X199189693Y-172284777D01*
X199368964Y-172016479D01*
X199431916Y-171700000D01*
X211718084Y-171700000D01*
X211781036Y-172016479D01*
X211960307Y-172284777D01*
X212228605Y-172464048D01*
X212545084Y-172527000D01*
X214004916Y-172527000D01*
X214321395Y-172464048D01*
X214589693Y-172284777D01*
X214768964Y-172016479D01*
X214831916Y-171700000D01*
X214768964Y-171383521D01*
X214589693Y-171115223D01*
X214321395Y-170935952D01*
X214004916Y-170873000D01*
X212545084Y-170873000D01*
X212228605Y-170935952D01*
X211960307Y-171115223D01*
X211781036Y-171383521D01*
X211718084Y-171700000D01*
X199431916Y-171700000D01*
X199368964Y-171383521D01*
X199189693Y-171115223D01*
X198921395Y-170935952D01*
X198604916Y-170873000D01*
X197145084Y-170873000D01*
X196828605Y-170935952D01*
X196560307Y-171115223D01*
X196421475Y-171323000D01*
X195205422Y-171323000D01*
X194940843Y-171058421D01*
X194818536Y-170976697D01*
X194692585Y-170951644D01*
X194577271Y-170836129D01*
X194365276Y-170748100D01*
X194135731Y-170747900D01*
X193923583Y-170835558D01*
X193761129Y-170997729D01*
X193673100Y-171209724D01*
X193672900Y-171439269D01*
X189027000Y-171439269D01*
X189027000Y-171156158D01*
X190535879Y-169647280D01*
X190536889Y-169652650D01*
X190567300Y-169699910D01*
X190539825Y-169740120D01*
X190517574Y-169850000D01*
X190517574Y-170850000D01*
X190536889Y-170952650D01*
X190597555Y-171046927D01*
X190690120Y-171110175D01*
X190800000Y-171132426D01*
X191800000Y-171132426D01*
X191902650Y-171113111D01*
X191996927Y-171052445D01*
X192060175Y-170959880D01*
X192082426Y-170850000D01*
X192082426Y-170710605D01*
X192144272Y-170698303D01*
X192266579Y-170616579D01*
X192806158Y-170077000D01*
X196421475Y-170077000D01*
X196560307Y-170284777D01*
X196828605Y-170464048D01*
X197145084Y-170527000D01*
X198604916Y-170527000D01*
X198921395Y-170464048D01*
X199189693Y-170284777D01*
X199368964Y-170016479D01*
X199431916Y-169700000D01*
X199368964Y-169383521D01*
X199189693Y-169115223D01*
X198921395Y-168935952D01*
X198604916Y-168873000D01*
X197145084Y-168873000D01*
X196828605Y-168935952D01*
X196560307Y-169115223D01*
X196421475Y-169323000D01*
X192650000Y-169323000D01*
X192505728Y-169351697D01*
X192383421Y-169433421D01*
X192064122Y-169752720D01*
X192063111Y-169747350D01*
X192032700Y-169700090D01*
X192060175Y-169659880D01*
X192082426Y-169550000D01*
X192082426Y-168550000D01*
X192063111Y-168447350D01*
X192002445Y-168353073D01*
X191909880Y-168289825D01*
X191800000Y-168267574D01*
X190800000Y-168267574D01*
X190697350Y-168286889D01*
X190603073Y-168347555D01*
X190539825Y-168440120D01*
X190517574Y-168550000D01*
X190517574Y-168689395D01*
X190464260Y-168700000D01*
X190455728Y-168701697D01*
X190333420Y-168783421D01*
X188383421Y-170733421D01*
X188301697Y-170855728D01*
X188273000Y-171000000D01*
X188273000Y-171829951D01*
X184834746Y-168391698D01*
X184834746Y-166462430D01*
X184815431Y-166359780D01*
X184754765Y-166265503D01*
X184662200Y-166202255D01*
X184552320Y-166180004D01*
X182952320Y-166180004D01*
X182849670Y-166199319D01*
X182755393Y-166259985D01*
X182692145Y-166352550D01*
X182669894Y-166462430D01*
X159936088Y-166462430D01*
X157713672Y-164989443D01*
X154939007Y-162962328D01*
X152882773Y-161314269D01*
X172772900Y-161314269D01*
X172860558Y-161526417D01*
X173022729Y-161688871D01*
X173234724Y-161776900D01*
X173464269Y-161777100D01*
X173676417Y-161689442D01*
X173838871Y-161527271D01*
X173926900Y-161315276D01*
X173926915Y-161297665D01*
X176591260Y-158633320D01*
X182312680Y-158633320D01*
X182312680Y-159563879D01*
X182409353Y-159797268D01*
X182587981Y-159975897D01*
X182821370Y-160072570D01*
X183461930Y-160072570D01*
X183620680Y-159913820D01*
X183620680Y-158474570D01*
X183874680Y-158474570D01*
X183874680Y-159913820D01*
X184033430Y-160072570D01*
X184673990Y-160072570D01*
X184907379Y-159975897D01*
X185086007Y-159797268D01*
X185182680Y-159563879D01*
X185182680Y-158633320D01*
X185023930Y-158474570D01*
X183874680Y-158474570D01*
X183620680Y-158474570D01*
X182471430Y-158474570D01*
X182312680Y-158633320D01*
X176591260Y-158633320D01*
X178093319Y-157131261D01*
X182312680Y-157131261D01*
X182312680Y-158061820D01*
X182471430Y-158220570D01*
X183620680Y-158220570D01*
X183620680Y-156781320D01*
X183874680Y-156781320D01*
X183874680Y-158220570D01*
X185023930Y-158220570D01*
X185182680Y-158061820D01*
X185182680Y-157131261D01*
X185086007Y-156897872D01*
X184907379Y-156719243D01*
X184673990Y-156622570D01*
X184033430Y-156622570D01*
X183874680Y-156781320D01*
X183620680Y-156781320D01*
X183461930Y-156622570D01*
X182821370Y-156622570D01*
X182587981Y-156719243D01*
X182409353Y-156897872D01*
X182312680Y-157131261D01*
X178093319Y-157131261D01*
X180912290Y-154312290D01*
X181015691Y-154157540D01*
X181052000Y-153975000D01*
X181052000Y-152618312D01*
X187892509Y-159458821D01*
X188079702Y-159583898D01*
X188300510Y-159627821D01*
X188300515Y-159627820D01*
X189639742Y-159627820D01*
X189033421Y-160234141D01*
X188951697Y-160356448D01*
X188923000Y-160500720D01*
X188923000Y-163347654D01*
X188847350Y-163361889D01*
X188753073Y-163422555D01*
X188689825Y-163515120D01*
X188667574Y-163625000D01*
X188667574Y-164225000D01*
X188686889Y-164327650D01*
X188747555Y-164421927D01*
X188773000Y-164439313D01*
X188773000Y-164711053D01*
X188661129Y-164822729D01*
X188573100Y-165034724D01*
X188572900Y-165264269D01*
X188660558Y-165476417D01*
X188822729Y-165638871D01*
X189034724Y-165726900D01*
X189264269Y-165727100D01*
X189476417Y-165639442D01*
X189638871Y-165477271D01*
X189726900Y-165265276D01*
X189727100Y-165035731D01*
X189639442Y-164823583D01*
X189527000Y-164710945D01*
X189527000Y-164507426D01*
X189650000Y-164507426D01*
X189752650Y-164488111D01*
X189846927Y-164427445D01*
X189900579Y-164348924D01*
X189947555Y-164421927D01*
X190040120Y-164485175D01*
X190150000Y-164507426D01*
X190599268Y-164507426D01*
X192998000Y-166906158D01*
X192998000Y-168036053D01*
X192886129Y-168147729D01*
X192798100Y-168359724D01*
X192797900Y-168589269D01*
X192885558Y-168801417D01*
X193047729Y-168963871D01*
X193259724Y-169051900D01*
X193489269Y-169052100D01*
X193701417Y-168964442D01*
X193863871Y-168802271D01*
X193951900Y-168590276D01*
X193952100Y-168360731D01*
X193864442Y-168148583D01*
X193752000Y-168035945D01*
X193752000Y-167839269D01*
X194672900Y-167839269D01*
X194760558Y-168051417D01*
X194922729Y-168213871D01*
X195134724Y-168301900D01*
X195364269Y-168302100D01*
X195576417Y-168214442D01*
X195613924Y-168177000D01*
X196488293Y-168177000D01*
X196560307Y-168284777D01*
X196828605Y-168464048D01*
X197145084Y-168527000D01*
X198604916Y-168527000D01*
X198921395Y-168464048D01*
X199189693Y-168284777D01*
X199368964Y-168016479D01*
X199431916Y-167700000D01*
X199368964Y-167383521D01*
X199189693Y-167115223D01*
X198921395Y-166935952D01*
X198604916Y-166873000D01*
X197145084Y-166873000D01*
X196828605Y-166935952D01*
X196560307Y-167115223D01*
X196488293Y-167223000D01*
X195545653Y-167223000D01*
X195365276Y-167148100D01*
X195135731Y-167147900D01*
X194923583Y-167235558D01*
X194761129Y-167397729D01*
X194673100Y-167609724D01*
X194672900Y-167839269D01*
X193752000Y-167839269D01*
X193752000Y-166750000D01*
X193723303Y-166605728D01*
X193641579Y-166483421D01*
X192858158Y-165700000D01*
X196318084Y-165700000D01*
X196381036Y-166016479D01*
X196560307Y-166284777D01*
X196828605Y-166464048D01*
X197145084Y-166527000D01*
X198604916Y-166527000D01*
X198921395Y-166464048D01*
X199189693Y-166284777D01*
X199328525Y-166077000D01*
X200372932Y-166077000D01*
X200372900Y-166114269D01*
X200460558Y-166326417D01*
X200622729Y-166488871D01*
X200834724Y-166576900D01*
X201064269Y-166577100D01*
X201276417Y-166489442D01*
X201438871Y-166327271D01*
X201526900Y-166115276D01*
X201527100Y-165885731D01*
X201439442Y-165673583D01*
X201277271Y-165511129D01*
X201065276Y-165423100D01*
X200900918Y-165422957D01*
X200794272Y-165351697D01*
X200650000Y-165323000D01*
X199328525Y-165323000D01*
X199189693Y-165115223D01*
X198921395Y-164935952D01*
X198604916Y-164873000D01*
X197145084Y-164873000D01*
X196828605Y-164935952D01*
X196560307Y-165115223D01*
X196381036Y-165383521D01*
X196318084Y-165700000D01*
X192858158Y-165700000D01*
X191132426Y-163974268D01*
X191132426Y-163700000D01*
X196318084Y-163700000D01*
X196381036Y-164016479D01*
X196560307Y-164284777D01*
X196828605Y-164464048D01*
X197145084Y-164527000D01*
X198604916Y-164527000D01*
X198921395Y-164464048D01*
X199189693Y-164284777D01*
X199368964Y-164016479D01*
X199431916Y-163700000D01*
X199368964Y-163383521D01*
X199189693Y-163115223D01*
X198921395Y-162935952D01*
X198604916Y-162873000D01*
X197145084Y-162873000D01*
X196828605Y-162935952D01*
X196560307Y-163115223D01*
X196381036Y-163383521D01*
X196318084Y-163700000D01*
X191132426Y-163700000D01*
X191132426Y-163625000D01*
X191113111Y-163522350D01*
X191052445Y-163428073D01*
X190959880Y-163364825D01*
X190850000Y-163342574D01*
X190150000Y-163342574D01*
X190047350Y-163361889D01*
X189953073Y-163422555D01*
X189899421Y-163501076D01*
X189852445Y-163428073D01*
X189759880Y-163364825D01*
X189677000Y-163348042D01*
X189677000Y-160656878D01*
X190667474Y-159666404D01*
X190667474Y-160850410D01*
X190686789Y-160953060D01*
X190747455Y-161047337D01*
X190840020Y-161110585D01*
X190949900Y-161132836D01*
X192550100Y-161132836D01*
X192652750Y-161113521D01*
X192747027Y-161052855D01*
X192810275Y-160960290D01*
X192832526Y-160850410D01*
X192832526Y-159627820D01*
X192911098Y-159627820D01*
X195391277Y-162107998D01*
X195391279Y-162108001D01*
X195578472Y-162233078D01*
X195799280Y-162277000D01*
X196555111Y-162277000D01*
X196560307Y-162284777D01*
X196828605Y-162464048D01*
X197145084Y-162527000D01*
X198604916Y-162527000D01*
X198740653Y-162500000D01*
X209448000Y-162500000D01*
X209448000Y-167125000D01*
X209476697Y-167269272D01*
X209558421Y-167391579D01*
X211233411Y-169066570D01*
X211292016Y-169105728D01*
X211355718Y-169148293D01*
X211499990Y-169176990D01*
X211518832Y-169176990D01*
X211771799Y-169429958D01*
X211718084Y-169700000D01*
X211781036Y-170016479D01*
X211960307Y-170284777D01*
X212228605Y-170464048D01*
X212545084Y-170527000D01*
X214004916Y-170527000D01*
X214321395Y-170464048D01*
X214589693Y-170284777D01*
X214768964Y-170016479D01*
X214831916Y-169700000D01*
X214768964Y-169383521D01*
X214589693Y-169115223D01*
X214321395Y-168935952D01*
X214004916Y-168873000D01*
X212545084Y-168873000D01*
X212324947Y-168916788D01*
X211941569Y-168533411D01*
X211819262Y-168451687D01*
X211674990Y-168422990D01*
X211656149Y-168422990D01*
X210202000Y-166968842D01*
X210202000Y-162656158D01*
X210848414Y-162009744D01*
X211431197Y-162009744D01*
X211431602Y-162036146D01*
X211647276Y-162448118D01*
X212004187Y-162746196D01*
X212423414Y-162877311D01*
X212128605Y-162935952D01*
X211860307Y-163115223D01*
X211681036Y-163383521D01*
X211618084Y-163700000D01*
X211681036Y-164016479D01*
X211860307Y-164284777D01*
X212128605Y-164464048D01*
X212445084Y-164527000D01*
X213904916Y-164527000D01*
X214221395Y-164464048D01*
X214489693Y-164284777D01*
X214661934Y-164027000D01*
X220532063Y-164027000D01*
X220536889Y-164052650D01*
X220597555Y-164146927D01*
X220690120Y-164210175D01*
X220800000Y-164232426D01*
X221429665Y-164232426D01*
X221461673Y-164309699D01*
X221640302Y-164488327D01*
X221873691Y-164585000D01*
X222064250Y-164585000D01*
X222223000Y-164426250D01*
X222223000Y-163777000D01*
X222203000Y-163777000D01*
X222203000Y-163523000D01*
X222223000Y-163523000D01*
X222223000Y-162873750D01*
X222064250Y-162715000D01*
X221873691Y-162715000D01*
X221640302Y-162811673D01*
X221461673Y-162990301D01*
X221429665Y-163067574D01*
X220800000Y-163067574D01*
X220697350Y-163086889D01*
X220603073Y-163147555D01*
X220539825Y-163240120D01*
X220533167Y-163273000D01*
X214595116Y-163273000D01*
X214489693Y-163115223D01*
X214221395Y-162935952D01*
X213965244Y-162885000D01*
X214102000Y-162885000D01*
X214545813Y-162746196D01*
X214902724Y-162448118D01*
X215118398Y-162036146D01*
X215118803Y-162009744D01*
X214993361Y-161827000D01*
X213402000Y-161827000D01*
X213402000Y-161847000D01*
X213148000Y-161847000D01*
X213148000Y-161827000D01*
X211556639Y-161827000D01*
X211431197Y-162009744D01*
X210848414Y-162009744D01*
X211446137Y-161412021D01*
X211556639Y-161573000D01*
X213148000Y-161573000D01*
X213148000Y-160515000D01*
X213402000Y-160515000D01*
X213402000Y-161573000D01*
X214993361Y-161573000D01*
X215118803Y-161390256D01*
X215118398Y-161363854D01*
X214902724Y-160951882D01*
X214545813Y-160653804D01*
X214102000Y-160515000D01*
X213402000Y-160515000D01*
X213148000Y-160515000D01*
X212448000Y-160515000D01*
X212295446Y-160562712D01*
X223891579Y-148966579D01*
X223973303Y-148844272D01*
X224002000Y-148700000D01*
X224002000Y-148450783D01*
X224347417Y-148308059D01*
X224706957Y-147949147D01*
X224901778Y-147479965D01*
X224902221Y-146971943D01*
X224708219Y-146502423D01*
X224349307Y-146142883D01*
X223880125Y-145948062D01*
X223372103Y-145947619D01*
X222902583Y-146141621D01*
X222543043Y-146500533D01*
X222348222Y-146969715D01*
X222347779Y-147477737D01*
X222541781Y-147947257D01*
X222900693Y-148306797D01*
X223248000Y-148451011D01*
X223248000Y-148543842D01*
X211392000Y-160399842D01*
X211392000Y-159271064D01*
X211329048Y-158954585D01*
X211149777Y-158686287D01*
X210881479Y-158507016D01*
X210565000Y-158444064D01*
X210248521Y-158507016D01*
X209980223Y-158686287D01*
X209800952Y-158954585D01*
X209738000Y-159271064D01*
X209738000Y-160628936D01*
X209800952Y-160945415D01*
X209980223Y-161213713D01*
X210248521Y-161392984D01*
X210373915Y-161417927D01*
X209558421Y-162233421D01*
X209476697Y-162355728D01*
X209448000Y-162500000D01*
X198740653Y-162500000D01*
X198921395Y-162464048D01*
X199189693Y-162284777D01*
X199368964Y-162016479D01*
X199431916Y-161700000D01*
X199368964Y-161383521D01*
X199189693Y-161115223D01*
X198921395Y-160935952D01*
X198604916Y-160873000D01*
X197145084Y-160873000D01*
X196828605Y-160935952D01*
X196560307Y-161115223D01*
X196555111Y-161123000D01*
X196038281Y-161123000D01*
X194186346Y-159271064D01*
X199738000Y-159271064D01*
X199738000Y-160628936D01*
X199800952Y-160945415D01*
X199980223Y-161213713D01*
X200248521Y-161392984D01*
X200565000Y-161455936D01*
X200881479Y-161392984D01*
X201149777Y-161213713D01*
X201329048Y-160945415D01*
X201392000Y-160628936D01*
X201392000Y-159271064D01*
X201738000Y-159271064D01*
X201738000Y-160628936D01*
X201800952Y-160945415D01*
X201980223Y-161213713D01*
X202248521Y-161392984D01*
X202565000Y-161455936D01*
X202881479Y-161392984D01*
X203149777Y-161213713D01*
X203329048Y-160945415D01*
X203392000Y-160628936D01*
X203392000Y-159271064D01*
X203738000Y-159271064D01*
X203738000Y-160628936D01*
X203800952Y-160945415D01*
X203980223Y-161213713D01*
X204248521Y-161392984D01*
X204565000Y-161455936D01*
X204881479Y-161392984D01*
X205149777Y-161213713D01*
X205329048Y-160945415D01*
X205392000Y-160628936D01*
X205392000Y-159271064D01*
X205738000Y-159271064D01*
X205738000Y-160628936D01*
X205800952Y-160945415D01*
X205980223Y-161213713D01*
X206248521Y-161392984D01*
X206565000Y-161455936D01*
X206881479Y-161392984D01*
X207149777Y-161213713D01*
X207329048Y-160945415D01*
X207392000Y-160628936D01*
X207392000Y-159271064D01*
X207738000Y-159271064D01*
X207738000Y-160628936D01*
X207800952Y-160945415D01*
X207980223Y-161213713D01*
X208248521Y-161392984D01*
X208565000Y-161455936D01*
X208881479Y-161392984D01*
X209149777Y-161213713D01*
X209329048Y-160945415D01*
X209392000Y-160628936D01*
X209392000Y-159271064D01*
X209329048Y-158954585D01*
X209149777Y-158686287D01*
X208881479Y-158507016D01*
X208565000Y-158444064D01*
X208248521Y-158507016D01*
X207980223Y-158686287D01*
X207800952Y-158954585D01*
X207738000Y-159271064D01*
X207392000Y-159271064D01*
X207329048Y-158954585D01*
X207149777Y-158686287D01*
X206881479Y-158507016D01*
X206565000Y-158444064D01*
X206248521Y-158507016D01*
X205980223Y-158686287D01*
X205800952Y-158954585D01*
X205738000Y-159271064D01*
X205392000Y-159271064D01*
X205329048Y-158954585D01*
X205149777Y-158686287D01*
X204881479Y-158507016D01*
X204565000Y-158444064D01*
X204248521Y-158507016D01*
X203980223Y-158686287D01*
X203800952Y-158954585D01*
X203738000Y-159271064D01*
X203392000Y-159271064D01*
X203329048Y-158954585D01*
X203149777Y-158686287D01*
X202881479Y-158507016D01*
X202565000Y-158444064D01*
X202248521Y-158507016D01*
X201980223Y-158686287D01*
X201800952Y-158954585D01*
X201738000Y-159271064D01*
X201392000Y-159271064D01*
X201329048Y-158954585D01*
X201149777Y-158686287D01*
X200881479Y-158507016D01*
X200565000Y-158444064D01*
X200248521Y-158507016D01*
X199980223Y-158686287D01*
X199800952Y-158954585D01*
X199738000Y-159271064D01*
X194186346Y-159271064D01*
X193558101Y-158642819D01*
X193370908Y-158517742D01*
X193150100Y-158473819D01*
X193150095Y-158473820D01*
X192832526Y-158473820D01*
X192832526Y-157251230D01*
X192813211Y-157148580D01*
X192752545Y-157054303D01*
X192659980Y-156991055D01*
X192550100Y-156968804D01*
X190949900Y-156968804D01*
X190847250Y-156988119D01*
X190752973Y-157048785D01*
X190689725Y-157141350D01*
X190667474Y-157251230D01*
X190667474Y-158473820D01*
X188539512Y-158473820D01*
X183900622Y-153834930D01*
X190314900Y-153834930D01*
X190314900Y-155475079D01*
X190411573Y-155708468D01*
X190590201Y-155887097D01*
X190823590Y-155983770D01*
X191464250Y-155983770D01*
X191623000Y-155825020D01*
X191623000Y-153676180D01*
X191877000Y-153676180D01*
X191877000Y-155825020D01*
X192035750Y-155983770D01*
X192676410Y-155983770D01*
X192909799Y-155887097D01*
X193088427Y-155708468D01*
X193185100Y-155475079D01*
X193185100Y-153834930D01*
X193026350Y-153676180D01*
X191877000Y-153676180D01*
X191623000Y-153676180D01*
X190473650Y-153676180D01*
X190314900Y-153834930D01*
X183900622Y-153834930D01*
X181688973Y-151623281D01*
X190314900Y-151623281D01*
X190314900Y-153263430D01*
X190473650Y-153422180D01*
X191623000Y-153422180D01*
X191623000Y-151273340D01*
X191877000Y-151273340D01*
X191877000Y-153422180D01*
X193026350Y-153422180D01*
X193185100Y-153263430D01*
X193185100Y-151623281D01*
X193088427Y-151389892D01*
X192909799Y-151211263D01*
X192676410Y-151114590D01*
X192035750Y-151114590D01*
X191877000Y-151273340D01*
X191623000Y-151273340D01*
X191464250Y-151114590D01*
X190823590Y-151114590D01*
X190590201Y-151211263D01*
X190411573Y-151389892D01*
X190314900Y-151623281D01*
X181688973Y-151623281D01*
X181657526Y-151591834D01*
X181657526Y-150902820D01*
X181975095Y-150902820D01*
X181975100Y-150902821D01*
X182195908Y-150858898D01*
X182383101Y-150733821D01*
X188998000Y-144118922D01*
X188998000Y-145910879D01*
X188986129Y-145922729D01*
X188898100Y-146134724D01*
X188897900Y-146364269D01*
X188985558Y-146576417D01*
X189147729Y-146738871D01*
X189359724Y-146826900D01*
X189589269Y-146827100D01*
X189801417Y-146739442D01*
X189963871Y-146577271D01*
X190051900Y-146365276D01*
X190052100Y-146135731D01*
X189964442Y-145923583D01*
X189952000Y-145911119D01*
X189952000Y-143164922D01*
X190008001Y-143108921D01*
X190133078Y-142921728D01*
X190177001Y-142700920D01*
X190177000Y-142700915D01*
X190177000Y-140777692D01*
X222652073Y-140777692D01*
X222750736Y-141044547D01*
X223360461Y-141271068D01*
X224010460Y-141247016D01*
X224499264Y-141044547D01*
X224597927Y-140777692D01*
X223625000Y-139804765D01*
X222652073Y-140777692D01*
X190177000Y-140777692D01*
X190177000Y-139625213D01*
X203624392Y-139625213D01*
X203693857Y-139867397D01*
X204217302Y-140054144D01*
X204772368Y-140026362D01*
X205156143Y-139867397D01*
X205225608Y-139625213D01*
X204425000Y-138824605D01*
X203624392Y-139625213D01*
X190177000Y-139625213D01*
X190177000Y-138437302D01*
X203015856Y-138437302D01*
X203043638Y-138992368D01*
X203202603Y-139376143D01*
X203444787Y-139445608D01*
X204245395Y-138645000D01*
X204604605Y-138645000D01*
X205405213Y-139445608D01*
X205647397Y-139376143D01*
X205652934Y-139360621D01*
X221979092Y-139360621D01*
X222003144Y-140010620D01*
X222205613Y-140499424D01*
X222472468Y-140598087D01*
X223445395Y-139625160D01*
X223804605Y-139625160D01*
X224777532Y-140598087D01*
X225044387Y-140499424D01*
X225270908Y-139889699D01*
X225246856Y-139239700D01*
X225044387Y-138750896D01*
X224777532Y-138652233D01*
X223804605Y-139625160D01*
X223445395Y-139625160D01*
X222472468Y-138652233D01*
X222205613Y-138750896D01*
X221979092Y-139360621D01*
X205652934Y-139360621D01*
X205834144Y-138852698D01*
X205815121Y-138472628D01*
X222652073Y-138472628D01*
X223625000Y-139445555D01*
X224597927Y-138472628D01*
X224499264Y-138205773D01*
X223889539Y-137979252D01*
X223239540Y-138003304D01*
X222750736Y-138205773D01*
X222652073Y-138472628D01*
X205815121Y-138472628D01*
X205806362Y-138297632D01*
X205647397Y-137913857D01*
X205405213Y-137844392D01*
X204604605Y-138645000D01*
X204245395Y-138645000D01*
X203444787Y-137844392D01*
X203202603Y-137913857D01*
X203015856Y-138437302D01*
X190177000Y-138437302D01*
X190177000Y-137664787D01*
X203624392Y-137664787D01*
X204425000Y-138465395D01*
X205225608Y-137664787D01*
X205156143Y-137422603D01*
X204632698Y-137235856D01*
X204077632Y-137263638D01*
X203693857Y-137422603D01*
X203624392Y-137664787D01*
X190177000Y-137664787D01*
X190177000Y-133641181D01*
X190214220Y-133633777D01*
X190584257Y-133386526D01*
X190831508Y-133016489D01*
X190918331Y-132580000D01*
X190836811Y-132170169D01*
X196372580Y-126634400D01*
X214059820Y-126634400D01*
X217397915Y-129972495D01*
X217397900Y-129989269D01*
X217485558Y-130201417D01*
X217647729Y-130363871D01*
X217859724Y-130451900D01*
X217877335Y-130451915D01*
X234423000Y-146997580D01*
X234423000Y-149623000D01*
X232300248Y-149623000D01*
X232117707Y-149659309D01*
X231962958Y-149762710D01*
X223662710Y-158062958D01*
X223559309Y-158217708D01*
X223523000Y-158400248D01*
X223523000Y-163402420D01*
X223335000Y-163590420D01*
X223335000Y-163522998D01*
X223176252Y-163522998D01*
X223335000Y-163364250D01*
X223335000Y-163223690D01*
X223238327Y-162990301D01*
X223059698Y-162811673D01*
X222826309Y-162715000D01*
X222635750Y-162715000D01*
X222477000Y-162873750D01*
X222477000Y-163523000D01*
X222497000Y-163523000D01*
X222497000Y-163777000D01*
X222477000Y-163777000D01*
X222477000Y-164426250D01*
X222635750Y-164585000D01*
X222723000Y-164585000D01*
X222723000Y-165247232D01*
X222700000Y-165242574D01*
X222250732Y-165242574D01*
X222016578Y-165008420D01*
X221894271Y-164926696D01*
X221749999Y-164897999D01*
X214130594Y-164897999D01*
X214004916Y-164873000D01*
X212545084Y-164873000D01*
X212228605Y-164935952D01*
X211960307Y-165115223D01*
X211781036Y-165383521D01*
X211718084Y-165700000D01*
X211781036Y-166016479D01*
X211960307Y-166284777D01*
X212228605Y-166464048D01*
X212545084Y-166527000D01*
X214004916Y-166527000D01*
X214321395Y-166464048D01*
X214589693Y-166284777D01*
X214768964Y-166016479D01*
X214831916Y-165700000D01*
X214822368Y-165651999D01*
X220517574Y-165651999D01*
X220517574Y-166125000D01*
X220536889Y-166227650D01*
X220597555Y-166321927D01*
X220673000Y-166373477D01*
X220673000Y-166525000D01*
X220709309Y-166707540D01*
X220812710Y-166862290D01*
X221830394Y-167879974D01*
X221803073Y-167897555D01*
X221749421Y-167976076D01*
X221702445Y-167903073D01*
X221609880Y-167839825D01*
X221500000Y-167817574D01*
X220800000Y-167817574D01*
X220697350Y-167836889D01*
X220603073Y-167897555D01*
X220539825Y-167990120D01*
X220517574Y-168100000D01*
X220517574Y-168700000D01*
X220536889Y-168802650D01*
X220597555Y-168896927D01*
X220690120Y-168960175D01*
X220773000Y-168976958D01*
X220773000Y-169533842D01*
X220214268Y-170092574D01*
X219875000Y-170092574D01*
X219772350Y-170111889D01*
X219740526Y-170132368D01*
X217041579Y-167433421D01*
X216919272Y-167351697D01*
X216775000Y-167323000D01*
X214728525Y-167323000D01*
X214589693Y-167115223D01*
X214321395Y-166935952D01*
X214004916Y-166873000D01*
X212545084Y-166873000D01*
X212228605Y-166935952D01*
X211960307Y-167115223D01*
X211781036Y-167383521D01*
X211718084Y-167700000D01*
X211781036Y-168016479D01*
X211960307Y-168284777D01*
X212228605Y-168464048D01*
X212545084Y-168527000D01*
X214004916Y-168527000D01*
X214321395Y-168464048D01*
X214589693Y-168284777D01*
X214728525Y-168077000D01*
X216618842Y-168077000D01*
X219408421Y-170866579D01*
X219530728Y-170948303D01*
X219639043Y-170969848D01*
X219672555Y-171021927D01*
X219765120Y-171085175D01*
X219875000Y-171107426D01*
X220465000Y-171107426D01*
X220567650Y-171088111D01*
X220661927Y-171027445D01*
X220725175Y-170934880D01*
X220747426Y-170825000D01*
X220747426Y-170625732D01*
X221306158Y-170067000D01*
X223033842Y-170067000D01*
X223358421Y-170391579D01*
X223480728Y-170473303D01*
X223625000Y-170502000D01*
X227197654Y-170502000D01*
X227211889Y-170577650D01*
X227272555Y-170671927D01*
X227351076Y-170725579D01*
X227278073Y-170772555D01*
X227214825Y-170865120D01*
X227192574Y-170975000D01*
X227192574Y-171675000D01*
X227211889Y-171777650D01*
X227272555Y-171871927D01*
X227365120Y-171935175D01*
X227475000Y-171957426D01*
X228075000Y-171957426D01*
X228177650Y-171938111D01*
X228271927Y-171877445D01*
X228335175Y-171784880D01*
X228357426Y-171675000D01*
X228357426Y-170975000D01*
X228338111Y-170872350D01*
X228277445Y-170778073D01*
X228198924Y-170724421D01*
X228271927Y-170677445D01*
X228335175Y-170584880D01*
X228357426Y-170475000D01*
X228357426Y-169775000D01*
X228338111Y-169672350D01*
X228277445Y-169578073D01*
X228184880Y-169514825D01*
X228129320Y-169503574D01*
X228129320Y-167749856D01*
X228552320Y-167749856D01*
X228654970Y-167730541D01*
X228749247Y-167669875D01*
X228812495Y-167577310D01*
X228834746Y-167467430D01*
X228834746Y-165287430D01*
X228815431Y-165184780D01*
X228754765Y-165090503D01*
X228662200Y-165027255D01*
X228552320Y-165005004D01*
X226952320Y-165005004D01*
X226849670Y-165024319D01*
X226755393Y-165084985D01*
X226692145Y-165177550D01*
X226669894Y-165287430D01*
X226669894Y-167467430D01*
X226689209Y-167570080D01*
X226749875Y-167664357D01*
X226842440Y-167727605D01*
X226952320Y-167749856D01*
X227375320Y-167749856D01*
X227375320Y-169511330D01*
X227372350Y-169511889D01*
X227278073Y-169572555D01*
X227214825Y-169665120D01*
X227198042Y-169748000D01*
X223781158Y-169748000D01*
X223456579Y-169423421D01*
X223334272Y-169341697D01*
X223190000Y-169313000D01*
X221527000Y-169313000D01*
X221527000Y-168977346D01*
X221602650Y-168963111D01*
X221696927Y-168902445D01*
X221750579Y-168823924D01*
X221797555Y-168896927D01*
X221890120Y-168960175D01*
X222000000Y-168982426D01*
X222700000Y-168982426D01*
X222802650Y-168963111D01*
X222896927Y-168902445D01*
X222960175Y-168809880D01*
X222982426Y-168700000D01*
X222982426Y-168100000D01*
X222963111Y-167997350D01*
X222902445Y-167903073D01*
X222854362Y-167870218D01*
X223537290Y-167187290D01*
X223640691Y-167032540D01*
X223677000Y-166850000D01*
X223677000Y-164597580D01*
X224337290Y-163937290D01*
X224440691Y-163782540D01*
X224477000Y-163600000D01*
X224477000Y-158597828D01*
X225616508Y-157458320D01*
X226312680Y-157458320D01*
X226312680Y-158388879D01*
X226409353Y-158622268D01*
X226587981Y-158800897D01*
X226821370Y-158897570D01*
X227461930Y-158897570D01*
X227620680Y-158738820D01*
X227620680Y-157299570D01*
X227874680Y-157299570D01*
X227874680Y-158738820D01*
X228033430Y-158897570D01*
X228673990Y-158897570D01*
X228907379Y-158800897D01*
X229086007Y-158622268D01*
X229182680Y-158388879D01*
X229182680Y-157458320D01*
X229023930Y-157299570D01*
X227874680Y-157299570D01*
X227620680Y-157299570D01*
X226471430Y-157299570D01*
X226312680Y-157458320D01*
X225616508Y-157458320D01*
X226312680Y-156762148D01*
X226312680Y-156886820D01*
X226471430Y-157045570D01*
X227620680Y-157045570D01*
X227620680Y-155606320D01*
X227874680Y-155606320D01*
X227874680Y-157045570D01*
X229023930Y-157045570D01*
X229182680Y-156886820D01*
X229182680Y-155956261D01*
X229086007Y-155722872D01*
X228907379Y-155544243D01*
X228673990Y-155447570D01*
X228033430Y-155447570D01*
X227874680Y-155606320D01*
X227620680Y-155606320D01*
X227544594Y-155530234D01*
X232497828Y-150577000D01*
X234560879Y-150577000D01*
X234572729Y-150588871D01*
X234784724Y-150676900D01*
X235014269Y-150677100D01*
X235226417Y-150589442D01*
X235238881Y-150577000D01*
X236894607Y-150577000D01*
X245397587Y-159079980D01*
X245323583Y-159110558D01*
X245161129Y-159272729D01*
X245088499Y-159447639D01*
X244927271Y-159286129D01*
X244715276Y-159198100D01*
X244485731Y-159197900D01*
X244273583Y-159285558D01*
X244111129Y-159447729D01*
X244023100Y-159659724D01*
X244022900Y-159889269D01*
X244110558Y-160101417D01*
X244223000Y-160214055D01*
X244223000Y-160339864D01*
X244251697Y-160484136D01*
X244333421Y-160606443D01*
X244499246Y-160772268D01*
X244472281Y-160781318D01*
X243952665Y-161081318D01*
X243873425Y-161149370D01*
X243822111Y-161249047D01*
X243813620Y-161360835D01*
X243849290Y-161467119D01*
X244119671Y-161935432D01*
X237182104Y-168873000D01*
X236932426Y-168873000D01*
X236932426Y-168750000D01*
X236913111Y-168647350D01*
X236852445Y-168553073D01*
X236759880Y-168489825D01*
X236650000Y-168467574D01*
X235650000Y-168467574D01*
X235547350Y-168486889D01*
X235500090Y-168517300D01*
X235459880Y-168489825D01*
X235350000Y-168467574D01*
X234350000Y-168467574D01*
X234247350Y-168486889D01*
X234153073Y-168547555D01*
X234089825Y-168640120D01*
X234067574Y-168750000D01*
X234067574Y-169750000D01*
X234086889Y-169852650D01*
X234147555Y-169946927D01*
X234240120Y-170010175D01*
X234253880Y-170012961D01*
X231993842Y-172273000D01*
X227750000Y-172273000D01*
X227605728Y-172301697D01*
X227556739Y-172334431D01*
X227483421Y-172383420D01*
X226618841Y-173248001D01*
X222657426Y-173248001D01*
X222657426Y-172375000D01*
X222638111Y-172272350D01*
X222577445Y-172178073D01*
X222484880Y-172114825D01*
X222375000Y-172092574D01*
X222252000Y-172092574D01*
X222252000Y-171161158D01*
X222305732Y-171107426D01*
X222575000Y-171107426D01*
X222677650Y-171088111D01*
X222771927Y-171027445D01*
X222835175Y-170934880D01*
X222857426Y-170825000D01*
X222857426Y-170375000D01*
X222838111Y-170272350D01*
X222777445Y-170178073D01*
X222684880Y-170114825D01*
X222575000Y-170092574D01*
X221985000Y-170092574D01*
X221882350Y-170111889D01*
X221788073Y-170172555D01*
X221724825Y-170265120D01*
X221702574Y-170375000D01*
X221702574Y-170644268D01*
X221608421Y-170738421D01*
X221526697Y-170860728D01*
X221498000Y-171005000D01*
X221498000Y-172092574D01*
X221375000Y-172092574D01*
X221272350Y-172111889D01*
X221225090Y-172142300D01*
X221184880Y-172114825D01*
X221075000Y-172092574D01*
X220075000Y-172092574D01*
X219972350Y-172111889D01*
X219878073Y-172172555D01*
X219814825Y-172265120D01*
X219792574Y-172375000D01*
X219792574Y-172498000D01*
X219100000Y-172498000D01*
X218955728Y-172526697D01*
X218906739Y-172559431D01*
X218833421Y-172608420D01*
X217993804Y-173448038D01*
X217835731Y-173447900D01*
X217623583Y-173535558D01*
X217461129Y-173697729D01*
X217373100Y-173909724D01*
X217372900Y-174139269D01*
X217460558Y-174351417D01*
X217622729Y-174513871D01*
X217834724Y-174601900D01*
X218064269Y-174602100D01*
X218276417Y-174514442D01*
X218438871Y-174352271D01*
X218526900Y-174140276D01*
X218527039Y-173981120D01*
X219256159Y-173252000D01*
X219792574Y-173252000D01*
X219792574Y-173375000D01*
X219811889Y-173477650D01*
X219872555Y-173571927D01*
X219965120Y-173635175D01*
X220075000Y-173657426D01*
X220214395Y-173657426D01*
X220226697Y-173719272D01*
X220308421Y-173841579D01*
X220358422Y-173891580D01*
X220480729Y-173973304D01*
X220625001Y-174002001D01*
X226774999Y-174002001D01*
X226919271Y-173973304D01*
X227041578Y-173891580D01*
X227906159Y-173027000D01*
X232150000Y-173027000D01*
X232294272Y-172998303D01*
X232416579Y-172916579D01*
X235116580Y-170216579D01*
X235177771Y-170125000D01*
X235198303Y-170094272D01*
X235210605Y-170032426D01*
X235350000Y-170032426D01*
X235452650Y-170013111D01*
X235499910Y-169982700D01*
X235540120Y-170010175D01*
X235650000Y-170032426D01*
X236650000Y-170032426D01*
X236752650Y-170013111D01*
X236846927Y-169952445D01*
X236910175Y-169859880D01*
X236932426Y-169750000D01*
X236932426Y-169627000D01*
X237338262Y-169627000D01*
X237482534Y-169598303D01*
X237604841Y-169516579D01*
X241712990Y-165408430D01*
X244302980Y-165408430D01*
X244338650Y-165514714D01*
X245238650Y-167073560D01*
X245306702Y-167152800D01*
X245406379Y-167204114D01*
X245518167Y-167212605D01*
X245624451Y-167176935D01*
X246663681Y-166576935D01*
X246742921Y-166508883D01*
X246794235Y-166409206D01*
X246802726Y-166297418D01*
X246767056Y-166191134D01*
X245867056Y-164632288D01*
X245799004Y-164553048D01*
X245699327Y-164501734D01*
X245587539Y-164493243D01*
X245481255Y-164528913D01*
X244442025Y-165128913D01*
X244362785Y-165196965D01*
X244311471Y-165296642D01*
X244302980Y-165408430D01*
X241712990Y-165408430D01*
X244509970Y-162611451D01*
X244624290Y-162809459D01*
X244692342Y-162888699D01*
X244792019Y-162940013D01*
X244903807Y-162948504D01*
X245010091Y-162912834D01*
X245529707Y-162612834D01*
X245608947Y-162544782D01*
X245660261Y-162445105D01*
X245660633Y-162440210D01*
X245769833Y-162448504D01*
X245876117Y-162412834D01*
X246395733Y-162112834D01*
X246474973Y-162044782D01*
X246526287Y-161945105D01*
X246526659Y-161940210D01*
X246635858Y-161948504D01*
X246742142Y-161912834D01*
X247261758Y-161612834D01*
X247340998Y-161544782D01*
X247392312Y-161445105D01*
X247392684Y-161440210D01*
X247501884Y-161448504D01*
X247608168Y-161412834D01*
X248127784Y-161112834D01*
X248207024Y-161044782D01*
X248258338Y-160945105D01*
X248258710Y-160940210D01*
X248367909Y-160948504D01*
X248474193Y-160912834D01*
X248846295Y-160698001D01*
X248912651Y-160748918D01*
X249156662Y-160814300D01*
X249407120Y-160781326D01*
X249528847Y-160711047D01*
X249586954Y-160494190D01*
X249024829Y-159520561D01*
X249007508Y-159530561D01*
X248928411Y-159393561D01*
X249244799Y-159393561D01*
X249806924Y-160367190D01*
X250023781Y-160425297D01*
X250145508Y-160355017D01*
X250299293Y-160154602D01*
X250364676Y-159910591D01*
X250331703Y-159660133D01*
X250205393Y-159441359D01*
X250023923Y-159127043D01*
X249807066Y-159068936D01*
X249244799Y-159393561D01*
X248928411Y-159393561D01*
X248880508Y-159310591D01*
X248897829Y-159300591D01*
X248335704Y-158326962D01*
X248118847Y-158268855D01*
X247997120Y-158339135D01*
X247843335Y-158539550D01*
X247777952Y-158783561D01*
X247788869Y-158866485D01*
X247416767Y-159081318D01*
X247337527Y-159149370D01*
X247286213Y-159249047D01*
X247285841Y-159253942D01*
X247250866Y-159251286D01*
X247127000Y-159127420D01*
X247127000Y-159000000D01*
X247090691Y-158817460D01*
X246987290Y-158662710D01*
X246832540Y-158559309D01*
X246650000Y-158523000D01*
X246189767Y-158523000D01*
X245866729Y-158199962D01*
X248555674Y-158199962D01*
X249117799Y-159173591D01*
X249680066Y-158848966D01*
X249738173Y-158632109D01*
X249556702Y-158317793D01*
X249430393Y-158099019D01*
X249229977Y-157945234D01*
X248985966Y-157879852D01*
X248735508Y-157912826D01*
X248613781Y-157983105D01*
X248555674Y-158199962D01*
X245866729Y-158199962D01*
X237429477Y-149762710D01*
X237274727Y-149659309D01*
X237092187Y-149623000D01*
X235377000Y-149623000D01*
X235377000Y-146800000D01*
X235340691Y-146617460D01*
X235237290Y-146462710D01*
X218552085Y-129777505D01*
X218552100Y-129760731D01*
X218464442Y-129548583D01*
X218302271Y-129386129D01*
X218090276Y-129298100D01*
X218072665Y-129298085D01*
X214594690Y-125820110D01*
X214439940Y-125716709D01*
X214257400Y-125680400D01*
X196652000Y-125680400D01*
X196652000Y-125264121D01*
X196663871Y-125252271D01*
X196751900Y-125040276D01*
X196752100Y-124810731D01*
X196664442Y-124598583D01*
X196502271Y-124436129D01*
X196290276Y-124348100D01*
X196060731Y-124347900D01*
X195848583Y-124435558D01*
X195686129Y-124597729D01*
X195598100Y-124809724D01*
X195597900Y-125039269D01*
X195685558Y-125251417D01*
X195698000Y-125263881D01*
X195698000Y-125959820D01*
X191169094Y-130488726D01*
X191204709Y-130414791D01*
X191207358Y-130399026D01*
X191086217Y-130167000D01*
X189727000Y-130167000D01*
X189727000Y-130187000D01*
X189473000Y-130187000D01*
X189473000Y-130167000D01*
X188113783Y-130167000D01*
X187992642Y-130399026D01*
X187995291Y-130414791D01*
X188249268Y-130942036D01*
X188685680Y-131331954D01*
X189148517Y-131493853D01*
X188985780Y-131526223D01*
X188615743Y-131773474D01*
X188368492Y-132143511D01*
X188281669Y-132580000D01*
X188368492Y-133016489D01*
X188615743Y-133386526D01*
X188985780Y-133633777D01*
X189023000Y-133641181D01*
X189023000Y-142461918D01*
X181736098Y-149748820D01*
X181657526Y-149748820D01*
X181657526Y-148526230D01*
X181638211Y-148423580D01*
X181577545Y-148329303D01*
X181484980Y-148266055D01*
X181375100Y-148243804D01*
X179774900Y-148243804D01*
X179672250Y-148263119D01*
X179577973Y-148323785D01*
X179514725Y-148416350D01*
X179492474Y-148526230D01*
X179492474Y-152125410D01*
X179511789Y-152228060D01*
X179572455Y-152322337D01*
X179665020Y-152385585D01*
X179774900Y-152407836D01*
X180098000Y-152407836D01*
X180098000Y-153777420D01*
X173252505Y-160622915D01*
X173235731Y-160622900D01*
X173023583Y-160710558D01*
X172861129Y-160872729D01*
X172773100Y-161084724D01*
X172772900Y-161314269D01*
X152882773Y-161314269D01*
X152201912Y-160768564D01*
X149491121Y-158395153D01*
X147469876Y-156486582D01*
X147469876Y-155236254D01*
X150453947Y-153923982D01*
X150456903Y-153921913D01*
X150460407Y-153921057D01*
X153583172Y-152466185D01*
X153586491Y-152463753D01*
X153590462Y-152462678D01*
X155429222Y-151549997D01*
X155432312Y-151547613D01*
X155436052Y-151546506D01*
X157239168Y-150598164D01*
X157242436Y-150595518D01*
X157246440Y-150594222D01*
X158737642Y-149761115D01*
X158740987Y-149758264D01*
X158745131Y-149756800D01*
X160203399Y-148890750D01*
X160206854Y-148887644D01*
X160211189Y-148885975D01*
X161484634Y-148080730D01*
X161488134Y-148077402D01*
X161492592Y-148075535D01*
X162734497Y-147238743D01*
X162738052Y-147235160D01*
X162742647Y-147233070D01*
X163854463Y-146433799D01*
X163858025Y-146429985D01*
X163862704Y-146427676D01*
X164943858Y-145597751D01*
X164947419Y-145593689D01*
X164952181Y-145591144D01*
X165538587Y-145109930D01*
X179139900Y-145109930D01*
X179139900Y-146750079D01*
X179236573Y-146983468D01*
X179415201Y-147162097D01*
X179648590Y-147258770D01*
X180289250Y-147258770D01*
X180448000Y-147100020D01*
X180448000Y-144951180D01*
X180702000Y-144951180D01*
X180702000Y-147100020D01*
X180860750Y-147258770D01*
X181501410Y-147258770D01*
X181734799Y-147162097D01*
X181913427Y-146983468D01*
X182010100Y-146750079D01*
X182010100Y-145109930D01*
X181851350Y-144951180D01*
X180702000Y-144951180D01*
X180448000Y-144951180D01*
X179298650Y-144951180D01*
X179139900Y-145109930D01*
X165538587Y-145109930D01*
X165933916Y-144785518D01*
X165937436Y-144781229D01*
X165942241Y-144778451D01*
X166893924Y-143942781D01*
X166897392Y-143938256D01*
X166902227Y-143935234D01*
X167774138Y-143114952D01*
X167777519Y-143110211D01*
X167782345Y-143106955D01*
X167989130Y-142898281D01*
X179139900Y-142898281D01*
X179139900Y-144538430D01*
X179298650Y-144697180D01*
X180448000Y-144697180D01*
X180448000Y-142548340D01*
X180702000Y-142548340D01*
X180702000Y-144697180D01*
X181851350Y-144697180D01*
X182010100Y-144538430D01*
X182010100Y-142898281D01*
X181913427Y-142664892D01*
X181734799Y-142486263D01*
X181501410Y-142389590D01*
X180860750Y-142389590D01*
X180702000Y-142548340D01*
X180448000Y-142548340D01*
X180289250Y-142389590D01*
X179648590Y-142389590D01*
X179415201Y-142486263D01*
X179236573Y-142664892D01*
X179139900Y-142898281D01*
X167989130Y-142898281D01*
X168624600Y-142257009D01*
X168627878Y-142252054D01*
X168632680Y-142248558D01*
X169408826Y-141407180D01*
X169411972Y-141402034D01*
X169416716Y-141398309D01*
X170163391Y-140527467D01*
X170166390Y-140522136D01*
X170171056Y-140518186D01*
X170861547Y-139650151D01*
X170864373Y-139644665D01*
X170868933Y-139640504D01*
X171529951Y-138742997D01*
X171532592Y-138737365D01*
X171537026Y-138733004D01*
X172149239Y-137833057D01*
X172151675Y-137827311D01*
X172155958Y-137822770D01*
X172738500Y-136893167D01*
X172740597Y-136887654D01*
X172744488Y-136883223D01*
X173223698Y-136054533D01*
X173228969Y-136039041D01*
X173238498Y-136025738D01*
X173249366Y-135979091D01*
X173264794Y-135933744D01*
X173263735Y-135917414D01*
X173267448Y-135901476D01*
X173259637Y-135854217D01*
X173256537Y-135806422D01*
X173249310Y-135791741D01*
X173246641Y-135775594D01*
X173221339Y-135734922D01*
X173200185Y-135691951D01*
X173187889Y-135681153D01*
X173179245Y-135667258D01*
X172425781Y-134863089D01*
X172411000Y-134852501D01*
X172399755Y-134838210D01*
X171404768Y-133986831D01*
X171395389Y-133981567D01*
X171388205Y-133973565D01*
X169910132Y-132866469D01*
X168679859Y-131901385D01*
X168117564Y-131389886D01*
X167598240Y-130837834D01*
X167262400Y-130415340D01*
X166957687Y-129961215D01*
X166801705Y-129680974D01*
X187992642Y-129680974D01*
X188113783Y-129913000D01*
X189473000Y-129913000D01*
X189473000Y-129893000D01*
X189727000Y-129893000D01*
X189727000Y-129913000D01*
X191086217Y-129913000D01*
X191207358Y-129680974D01*
X191204709Y-129665209D01*
X190950732Y-129137964D01*
X190514320Y-128748046D01*
X190222665Y-128646026D01*
X190616000Y-128646026D01*
X190718650Y-128626711D01*
X190812927Y-128566045D01*
X190876175Y-128473480D01*
X190898426Y-128363600D01*
X190898426Y-126636400D01*
X190879111Y-126533750D01*
X190818445Y-126439473D01*
X190725880Y-126376225D01*
X190616000Y-126353974D01*
X190177000Y-126353974D01*
X190177000Y-115139002D01*
X204833001Y-100483001D01*
X204958078Y-100295808D01*
X205002001Y-100075000D01*
X205002000Y-100074995D01*
X205002000Y-94926004D01*
X205062560Y-94900981D01*
X205379867Y-94584228D01*
X205551804Y-94170158D01*
X205552195Y-93721809D01*
X205380981Y-93307440D01*
X205064228Y-92990133D01*
X204650158Y-92818196D01*
X204201809Y-92817805D01*
X203787440Y-92989019D01*
X203470133Y-93305772D01*
X203298196Y-93719842D01*
X203297805Y-94168191D01*
X203469019Y-94582560D01*
X203785772Y-94899867D01*
X203848000Y-94925706D01*
X203848000Y-99835998D01*
X189191999Y-114491999D01*
X189066922Y-114679192D01*
X189022999Y-114900000D01*
X189023000Y-114900005D01*
X189023000Y-126353974D01*
X188584000Y-126353974D01*
X188481350Y-126373289D01*
X188387073Y-126433955D01*
X188323825Y-126526520D01*
X188301574Y-126636400D01*
X188301574Y-128363600D01*
X188320889Y-128466250D01*
X188381555Y-128560527D01*
X188474120Y-128623775D01*
X188584000Y-128646026D01*
X188977335Y-128646026D01*
X188685680Y-128748046D01*
X188249268Y-129137964D01*
X187995291Y-129665209D01*
X187992642Y-129680974D01*
X166801705Y-129680974D01*
X166719161Y-129532676D01*
X166513354Y-129078300D01*
X166308391Y-128429638D01*
X168541049Y-127544153D01*
X168549231Y-127538863D01*
X168558696Y-127536547D01*
X170995433Y-126400225D01*
X171003326Y-126394437D01*
X171012682Y-126391553D01*
X173367816Y-125118970D01*
X173375379Y-125112706D01*
X173384573Y-125109263D01*
X175654753Y-123702891D01*
X175661939Y-123696184D01*
X175670924Y-123692197D01*
X177852159Y-122154904D01*
X177858933Y-122147784D01*
X177867667Y-122143272D01*
X179955329Y-120478355D01*
X179961662Y-120470855D01*
X179970103Y-120465840D01*
X181958918Y-118677266D01*
X181964786Y-118669417D01*
X181972899Y-118663924D01*
X183857010Y-116756499D01*
X183862394Y-116748334D01*
X183870151Y-116742385D01*
X185643184Y-114721923D01*
X185648067Y-114713471D01*
X185655449Y-114707087D01*
X187310646Y-112580500D01*
X187313637Y-112574538D01*
X187318505Y-112569974D01*
X187895035Y-111764478D01*
X187912526Y-111725818D01*
X187934987Y-111689823D01*
X187938591Y-111668205D01*
X187947627Y-111648233D01*
X187948992Y-111605821D01*
X187955969Y-111563972D01*
X187951026Y-111542620D01*
X187951731Y-111520709D01*
X187936760Y-111480999D01*
X187927192Y-111439670D01*
X187914455Y-111421837D01*
X187906721Y-111401322D01*
X187877693Y-111370364D01*
X187853037Y-111335842D01*
X187834443Y-111324239D01*
X187819450Y-111308249D01*
X187780792Y-111290759D01*
X187744795Y-111268296D01*
X186628803Y-110846260D01*
X185619359Y-110305816D01*
X184672178Y-109630092D01*
X183762378Y-108798296D01*
X182860636Y-107773024D01*
X181920579Y-106483420D01*
X180828799Y-104753099D01*
X180197125Y-103696061D01*
X182193505Y-102778826D01*
X182201859Y-102772773D01*
X182211727Y-102769757D01*
X184442639Y-101571377D01*
X184450638Y-101564785D01*
X184460339Y-101561143D01*
X186603375Y-100231035D01*
X186610921Y-100223979D01*
X186620348Y-100219753D01*
X188683687Y-98753520D01*
X188690700Y-98746091D01*
X188699750Y-98741344D01*
X190691106Y-97132777D01*
X190697525Y-97125078D01*
X190706105Y-97119893D01*
X192632840Y-95360814D01*
X192638625Y-95352954D01*
X192646666Y-95347424D01*
X194515898Y-93427365D01*
X194521028Y-93419460D01*
X194528477Y-93413687D01*
X196347294Y-91319540D01*
X196351768Y-91311705D01*
X196358591Y-91305796D01*
X198134363Y-89021220D01*
X198138202Y-89013556D01*
X198144380Y-89007621D01*
X199885217Y-86511986D01*
X199888335Y-86504864D01*
X199893683Y-86499222D01*
X201483603Y-83975830D01*
X201505217Y-83919418D01*
X201528015Y-83863478D01*
X201527995Y-83859968D01*
X201529252Y-83856687D01*
X201527632Y-83796274D01*
X201527288Y-83735891D01*
X201504355Y-83623937D01*
X201484440Y-83576622D01*
X201468248Y-83527891D01*
X201443948Y-83485167D01*
X201410351Y-83446354D01*
X201379871Y-83405056D01*
X201307498Y-83339153D01*
X201301530Y-83335557D01*
X201297160Y-83330128D01*
X201247086Y-83302751D01*
X201198215Y-83273304D01*
X201191325Y-83272265D01*
X201185211Y-83268923D01*
X200942878Y-83192904D01*
X200924775Y-83190948D01*
X200907931Y-83184024D01*
X200675049Y-83138354D01*
X200670343Y-83058765D01*
X200714458Y-82088521D01*
X200710828Y-82064653D01*
X200713121Y-82040621D01*
X200608690Y-81012575D01*
X200602293Y-80991715D01*
X200601479Y-80969913D01*
X200340706Y-79874195D01*
X200333023Y-79857442D01*
X200330288Y-79839218D01*
X199895085Y-78629394D01*
X199888299Y-78618115D01*
X199885317Y-78605295D01*
X199228998Y-77154566D01*
X199228839Y-77154344D01*
X199228776Y-77154075D01*
X198921303Y-76477407D01*
X202797735Y-76477407D01*
X203029717Y-77038846D01*
X203458894Y-77468773D01*
X204019928Y-77701735D01*
X204627407Y-77702265D01*
X205188846Y-77470283D01*
X205618773Y-77041106D01*
X205851735Y-76480072D01*
X205852265Y-75872593D01*
X205620283Y-75311154D01*
X205191106Y-74881227D01*
X204630072Y-74648265D01*
X204022593Y-74647735D01*
X203461154Y-74879717D01*
X203031227Y-75308894D01*
X202798265Y-75869928D01*
X202797735Y-76477407D01*
X198921303Y-76477407D01*
X198716110Y-76025833D01*
X198927917Y-75987745D01*
X198938188Y-75983711D01*
X198949211Y-75983179D01*
X199539863Y-75835794D01*
X199550405Y-75830819D01*
X199561977Y-75829441D01*
X200101734Y-75653614D01*
X200112364Y-75647650D01*
X200124330Y-75645322D01*
X200632067Y-75437482D01*
X200642657Y-75430470D01*
X200654898Y-75427096D01*
X201120940Y-75193133D01*
X201131242Y-75185111D01*
X201143516Y-75180661D01*
X201579620Y-74916776D01*
X201589477Y-74907766D01*
X201601629Y-74902215D01*
X202003965Y-74612008D01*
X202013140Y-74602151D01*
X202024888Y-74595581D01*
X202398614Y-74276779D01*
X202411078Y-74260988D01*
X202427311Y-74249105D01*
X203091626Y-73525274D01*
X203105143Y-73503038D01*
X203123450Y-73484558D01*
X203684767Y-72635880D01*
X203693993Y-72613308D01*
X203708408Y-72593642D01*
X204142796Y-71661746D01*
X204788942Y-71661746D01*
X204881907Y-71976852D01*
M02*
