M48
;DRILL file {KiCad 4.0.4-stable} date 12/07/16 00:48:58
;FORMAT={-:-/ absolute / inch / decimal}
FMAT,2
INCH,TZ
T1C0.016
T2C0.039
T3C0.040
T4C0.098
%
G90
G05
M72
T1
X6.4646Y-6.2215
X6.8248Y-6.3465
X7.1053Y-5.5315
X7.1427Y-6.2372
X7.3455Y-6.7785
X7.3622Y-5.1181
X7.3711Y-5.187
X7.372Y-5.0571
X7.4469Y-6.502
X7.4596Y-5.7579
X7.4764Y-6.0433
X7.5295Y-4.6427
X7.5423Y-5.0797
X7.5482Y-5.9301
X7.5906Y-6.876
X7.6132Y-6.6329
X7.6476Y-6.7451
X7.687Y-6.6033
X7.7234Y-4.9183
X7.9114Y-6.5354
X8.31Y-6.3907
X8.4862Y-6.9232
X8.5098Y-6.812
X8.5138Y-6.3632
X8.5807Y-6.8514
X8.5817Y-5.1132
X8.7569Y-6.3917
X8.9222Y-5.7825
X9.0374Y-6.188
X9.248Y-5.9094
X9.6299Y-6.2904
X9.6713Y-6.2835
X9.7776Y-6.2274
X9.8435Y-6.3219
T2
X8.8041Y-5.4971
X8.8041Y-5.7963
T3
X8.0482Y-3.6986
X8.0482Y-5.4585
T4
X8.0443Y-2.999
T0
M30
