G04 #@! TF.FileFunction,Profile,NP*
%FSLAX46Y46*%
G04 Gerber Fmt 4.6, Leading zero omitted, Abs format (unit mm)*
G04 Created by KiCad (PCBNEW 4.0.4-stable) date 12/07/16 00:48:56*
%MOMM*%
%LPD*%
G01*
G04 APERTURE LIST*
%ADD10C,0.100000*%
G04 APERTURE END LIST*
D10*
X203873116Y-71466307D02*
X203922532Y-71334746D01*
X203412026Y-72455488D02*
X203873116Y-71466307D01*
X202850709Y-73304167D02*
X203412026Y-72455488D01*
X202186395Y-74027998D02*
X202850709Y-73304167D01*
X201812669Y-74346800D02*
X202186395Y-74027998D01*
X201410333Y-74637007D02*
X201812669Y-74346800D01*
X200974229Y-74900892D02*
X201410333Y-74637007D01*
X200508187Y-75134855D02*
X200974229Y-74900892D01*
X200000451Y-75342695D02*
X200508187Y-75134855D01*
X199460694Y-75518522D02*
X200000451Y-75342695D01*
X198870042Y-75665907D02*
X199460694Y-75518522D01*
X198244500Y-75778395D02*
X198870042Y-75665907D01*
X198931069Y-77289351D02*
X198244500Y-75778395D01*
X199587388Y-78740080D02*
X198931069Y-77289351D01*
X200022591Y-79949904D02*
X199587388Y-78740080D01*
X200283364Y-81045622D02*
X200022591Y-79949904D01*
X200387795Y-82073668D02*
X200283364Y-81045622D01*
X200342904Y-83060988D02*
X200387795Y-82073668D01*
X200357171Y-83302321D02*
X200342904Y-83060988D01*
X200383714Y-83345488D02*
X200357171Y-83302321D01*
X200420731Y-83383101D02*
X200383714Y-83345488D01*
X200471070Y-83416075D02*
X200420731Y-83383101D01*
X200541238Y-83445341D02*
X200471070Y-83416075D01*
X200845002Y-83504912D02*
X200541238Y-83445341D01*
X201087334Y-83580931D02*
X200845002Y-83504912D01*
X201159707Y-83646834D02*
X201087334Y-83580931D01*
X201184007Y-83689558D02*
X201159707Y-83646834D01*
X201206940Y-83801512D02*
X201184007Y-83689558D01*
X199617020Y-86324904D02*
X201206940Y-83801512D01*
X197876183Y-88820540D02*
X199617020Y-86324904D01*
X196100411Y-91105116D02*
X197876183Y-88820540D01*
X194281594Y-93199263D02*
X196100411Y-91105116D01*
X192412362Y-95119322D02*
X194281594Y-93199263D01*
X190485627Y-96878401D02*
X192412362Y-95119322D01*
X188494271Y-98486967D02*
X190485627Y-96878401D01*
X186430932Y-99953200D02*
X188494271Y-98486967D01*
X184287896Y-101283308D02*
X186430932Y-99953200D01*
X182056985Y-102481688D02*
X184287896Y-101283308D01*
X179729523Y-103551039D02*
X182056985Y-102481688D01*
X180550141Y-104924254D02*
X179729523Y-103551039D01*
X181649880Y-106667189D02*
X180550141Y-104924254D01*
X182605203Y-107977736D02*
X181649880Y-106667189D01*
X183528588Y-109027617D02*
X182605203Y-107977736D01*
X184466149Y-109884794D02*
X183528588Y-109027617D01*
X185446519Y-110584196D02*
X184466149Y-109884794D01*
X186493226Y-111144591D02*
X185446519Y-110584196D01*
X187629128Y-111574156D02*
X186493226Y-111144591D01*
X187052598Y-112379652D02*
X187629128Y-111574156D01*
X185397401Y-114506239D02*
X187052598Y-112379652D01*
X183624368Y-116526701D02*
X185397401Y-114506239D01*
X181740258Y-118434126D02*
X183624368Y-116526701D01*
X179751443Y-120222700D02*
X181740258Y-118434126D01*
X177663781Y-121887617D02*
X179751443Y-120222700D01*
X175482545Y-123424910D02*
X177663781Y-121887617D01*
X173212365Y-124831282D02*
X175482545Y-123424910D01*
X170857232Y-126103865D02*
X173212365Y-124831282D01*
X168420495Y-127240187D02*
X170857232Y-126103865D01*
X165904870Y-128237898D02*
X168420495Y-127240187D01*
X166207429Y-129195433D02*
X165904870Y-128237898D01*
X166426865Y-129679899D02*
X166207429Y-129195433D01*
X166678574Y-130132124D02*
X166426865Y-129679899D01*
X166998208Y-130608488D02*
X166678574Y-130132124D01*
X167350732Y-131051970D02*
X166998208Y-130608488D01*
X167888108Y-131623213D02*
X167350732Y-131051970D01*
X168468644Y-132151304D02*
X167888108Y-131623213D01*
X169711198Y-133126021D02*
X168468644Y-132151304D01*
X171192170Y-134235289D02*
X169711198Y-133126021D01*
X172187157Y-135086668D02*
X171192170Y-134235289D01*
X172940621Y-135890837D02*
X172187157Y-135086668D01*
X172461411Y-136719527D02*
X172940621Y-135890837D01*
X171878869Y-137649130D02*
X172461411Y-136719527D01*
X171266656Y-138549078D02*
X171878869Y-137649130D01*
X170605637Y-139446585D02*
X171266656Y-138549078D01*
X169915147Y-140314619D02*
X170605637Y-139446585D01*
X169168473Y-141185461D02*
X169915147Y-140314619D01*
X168392327Y-142026839D02*
X169168473Y-141185461D01*
X167550073Y-142876784D02*
X168392327Y-142026839D01*
X166678162Y-143697066D02*
X167550073Y-142876784D01*
X165726479Y-144532736D02*
X166678162Y-143697066D01*
X164744744Y-145338362D02*
X165726479Y-144532736D01*
X163663590Y-146168287D02*
X164744744Y-145338362D01*
X162551774Y-146967558D02*
X163663590Y-146168287D01*
X161309869Y-147804350D02*
X162551774Y-146967558D01*
X160036424Y-148609595D02*
X161309869Y-147804350D01*
X158578156Y-149475645D02*
X160036424Y-148609595D01*
X157086953Y-150308752D02*
X158578156Y-149475645D01*
X155283837Y-151257094D02*
X157086953Y-150308752D01*
X153445077Y-152169775D02*
X155283837Y-151257094D01*
X150322312Y-153624647D02*
X153445077Y-152169775D01*
X147142876Y-155022833D02*
X150322312Y-153624647D01*
X147142876Y-155825323D02*
X147142876Y-155022833D01*
X147142876Y-156627554D02*
X147142876Y-155825323D01*
X149271088Y-158637129D02*
X147142876Y-156627554D01*
X151991860Y-161019278D02*
X149271088Y-158637129D01*
X154740205Y-163222059D02*
X151991860Y-161019278D01*
X157526795Y-165257887D02*
X154740205Y-163222059D01*
X160361367Y-167136603D02*
X157526795Y-165257887D01*
X163253106Y-168865935D02*
X160361367Y-167136603D01*
X166210839Y-170451849D02*
X163253106Y-168865935D01*
X169243279Y-171898772D02*
X166210839Y-170451849D01*
X172359071Y-173209769D02*
X169243279Y-171898772D01*
X175566933Y-174386671D02*
X172359071Y-173209769D01*
X178875733Y-175430159D02*
X175566933Y-174386671D01*
X182294465Y-176339857D02*
X178875733Y-175430159D01*
X185832375Y-177114378D02*
X182294465Y-176339857D01*
X189498933Y-177751387D02*
X185832375Y-177114378D01*
X193303849Y-178247633D02*
X189498933Y-177751387D01*
X195262032Y-178441778D02*
X193303849Y-178247633D01*
X214450000Y-178225000D02*
X195262032Y-178441778D01*
X216086091Y-177912367D02*
X214450000Y-178225000D01*
X218226281Y-177471434D02*
X216086091Y-177912367D01*
X220337457Y-176995779D02*
X218226281Y-177471434D01*
X222422891Y-176484999D02*
X220337457Y-176995779D01*
X224479043Y-175940336D02*
X222422891Y-176484999D01*
X226509545Y-175361159D02*
X224479043Y-175940336D01*
X228510476Y-174748915D02*
X226509545Y-175361159D01*
X230485787Y-174102736D02*
X228510476Y-174748915D01*
X232431268Y-173424322D02*
X230485787Y-174102736D01*
X234351083Y-172712523D02*
X232431268Y-173424322D01*
X236240777Y-171969305D02*
X234351083Y-172712523D01*
X238104775Y-171193220D02*
X236240777Y-171969305D01*
X239938317Y-170386549D02*
X238104775Y-171193220D01*
X241746056Y-169547514D02*
X239938317Y-170386549D01*
X243523034Y-168678709D02*
X241746056Y-169547514D01*
X245274041Y-167778036D02*
X243523034Y-168678709D01*
X246993935Y-166848418D02*
X245274041Y-167778036D01*
X248687646Y-165887419D02*
X246993935Y-166848418D01*
X250349892Y-164898298D02*
X248687646Y-165887419D01*
X251985680Y-163878302D02*
X250349892Y-164898298D01*
X253589639Y-162831000D02*
X251985680Y-163878302D01*
X255166802Y-161753325D02*
X253589639Y-162831000D01*
X256711739Y-160649199D02*
X255166802Y-161753325D01*
X258229501Y-159515211D02*
X256711739Y-160649199D01*
X259714654Y-158355620D02*
X258229501Y-159515211D01*
X260163583Y-158018736D02*
X259714654Y-158355620D01*
X260803399Y-157514082D02*
X260163583Y-158018736D01*
X261202981Y-157078543D02*
X260803399Y-157514082D01*
X261433862Y-156645979D02*
X261202981Y-157078543D01*
X261518166Y-156179136D02*
X261433862Y-156645979D01*
X261502419Y-155919722D02*
X261518166Y-156179136D01*
X261442712Y-155640196D02*
X261502419Y-155919722D01*
X258791512Y-154377814D02*
X261442712Y-155640196D01*
X254509591Y-152291014D02*
X258791512Y-154377814D01*
X251219781Y-150569845D02*
X254509591Y-152291014D01*
X248470147Y-148989081D02*
X251219781Y-150569845D01*
X246093438Y-147466994D02*
X248470147Y-148989081D01*
X244004311Y-145962446D02*
X246093438Y-147466994D01*
X242151345Y-144450453D02*
X244004311Y-145962446D01*
X240500314Y-142913534D02*
X242151345Y-144450453D01*
X239027016Y-141337881D02*
X240500314Y-142913534D01*
X237713967Y-139711455D02*
X239027016Y-141337881D01*
X236548409Y-138022879D02*
X237713967Y-139711455D01*
X235521462Y-136260847D02*
X236548409Y-138022879D01*
X236612252Y-134993361D02*
X235521462Y-136260847D01*
X237774896Y-133797697D02*
X236612252Y-134993361D01*
X239260613Y-132280989D02*
X237774896Y-133797697D01*
X240293740Y-131093565D02*
X239260613Y-132280989D01*
X241089013Y-129989332D02*
X240293740Y-131093565D01*
X241711144Y-128887861D02*
X241089013Y-129989332D01*
X242187035Y-127743880D02*
X241711144Y-128887861D01*
X238918816Y-125862272D02*
X242187035Y-127743880D01*
X234235925Y-123311659D02*
X238918816Y-125862272D01*
X231254693Y-121615172D02*
X234235925Y-123311659D01*
X228896157Y-120141234D02*
X231254693Y-121615172D01*
X226917977Y-118752089D02*
X228896157Y-120141234D01*
X225217492Y-117390059D02*
X226917977Y-118752089D01*
X223738763Y-116023100D02*
X225217492Y-117390059D01*
X222446984Y-114629637D02*
X223738763Y-116023100D01*
X221319039Y-113192808D02*
X222446984Y-114629637D01*
X220339272Y-111697661D02*
X221319039Y-113192808D01*
X220360040Y-111689039D02*
X220339272Y-111697661D01*
X221079980Y-111367949D02*
X220360040Y-111689039D01*
X221769753Y-111016707D02*
X221079980Y-111367949D01*
X222435464Y-110632567D02*
X221769753Y-111016707D01*
X223071755Y-110219008D02*
X222435464Y-110632567D01*
X223688485Y-109769530D02*
X223071755Y-110219008D01*
X224276162Y-109290983D02*
X223688485Y-109769530D01*
X224848016Y-108772017D02*
X224276162Y-109290983D01*
X225390832Y-108223997D02*
X224848016Y-108772017D01*
X225920708Y-107629469D02*
X225390832Y-108223997D01*
X226421243Y-107005598D02*
X225920708Y-107629469D01*
X226910806Y-106327482D02*
X226421243Y-107005598D01*
X227370400Y-105619414D02*
X226910806Y-106327482D01*
X227820077Y-104847502D02*
X227370400Y-105619414D01*
X228238885Y-104044722D02*
X227820077Y-104847502D01*
X226715173Y-103047056D02*
X228238885Y-104044722D01*
X223694787Y-100943434D02*
X226715173Y-103047056D01*
X220957757Y-98860197D02*
X223694787Y-100943434D01*
X218463784Y-96776640D02*
X220957757Y-98860197D01*
X216183785Y-94677244D02*
X218463784Y-96776640D01*
X214095849Y-92549559D02*
X216183785Y-94677244D01*
X212183106Y-90382887D02*
X214095849Y-92549559D01*
X210432404Y-88167555D02*
X212183106Y-90382887D01*
X208833489Y-85894469D02*
X210432404Y-88167555D01*
X207378480Y-83554671D02*
X208833489Y-85894469D01*
X207539674Y-83466322D02*
X207378480Y-83554671D01*
X208148209Y-83456785D02*
X207539674Y-83466322D01*
X208441621Y-83422209D02*
X208148209Y-83456785D01*
X208532021Y-83372069D02*
X208441621Y-83422209D01*
X208564759Y-83337492D02*
X208532021Y-83372069D01*
X208589242Y-83295958D02*
X208564759Y-83337492D01*
X208612862Y-83184324D02*
X208589242Y-83295958D01*
X208656068Y-82667708D02*
X208612862Y-83184324D01*
X208587197Y-81972044D02*
X208656068Y-82667708D01*
X208417207Y-81390059D02*
X208587197Y-81972044D01*
X208165803Y-80679945D02*
X208417207Y-81390059D01*
X208070367Y-80150282D02*
X208165803Y-80679945D01*
X208119180Y-79604872D02*
X208070367Y-80150282D01*
X208288239Y-79196760D02*
X208119180Y-79604872D01*
X208571053Y-78848692D02*
X208288239Y-79196760D01*
X208933404Y-78539686D02*
X208571053Y-78848692D01*
X209341058Y-78248747D02*
X208933404Y-78539686D01*
X210026093Y-77748839D02*
X209341058Y-78248747D01*
X210458474Y-77319746D02*
X210026093Y-77748839D01*
X210727441Y-76877516D02*
X210458474Y-77319746D01*
X210856904Y-76378569D02*
X210727441Y-76877516D01*
X210866830Y-76092467D02*
X210856904Y-76378569D01*
X210834946Y-75778395D02*
X210866830Y-76092467D01*
X209802575Y-75677122D02*
X210834946Y-75778395D01*
X208757432Y-75438490D02*
X209802575Y-75677122D01*
X207858491Y-75080534D02*
X208757432Y-75438490D01*
X207084473Y-74606718D02*
X207858491Y-75080534D01*
X206737710Y-74323836D02*
X207084473Y-74606718D01*
X206419770Y-74012144D02*
X206737710Y-74323836D01*
X206122964Y-73662642D02*
X206419770Y-74012144D01*
X205855660Y-73283659D02*
X206122964Y-73662642D01*
X205607888Y-72857558D02*
X205855660Y-73283659D01*
X205391206Y-72400374D02*
X205607888Y-72857558D01*
X205195542Y-71884321D02*
X205391206Y-72400374D01*
X205033402Y-71334746D02*
X205195542Y-71884321D01*
X204477906Y-71334746D02*
X205033402Y-71334746D01*
X203922532Y-71334746D02*
X204477906Y-71334746D01*
M02*
